<?xml version="1.0" encoding="utf-8"?>
<!-- Generator: Adobe Illustrator 25.2.0, SVG Export Plug-In . SVG Version: 6.00 Build 0)  -->
<svg version="1.1" id="Capa_1" xmlns="http://www.w3.org/2000/svg" xmlns:xlink="http://www.w3.org/1999/xlink" x="0px" y="0px"
	 viewBox="0 0 24 24" style="enable-background:new 0 0 24 24;" xml:space="preserve">
<style type="text/css">
	.st0{fill:#FFFFFF;stroke:#FFFFFF;stroke-miterlimit:10;}
	.st1{fill:#12B5E1;}
</style>
<circle class="st0" cx="10.4" cy="10.3" r="9"/>
<g id="Capa_3">
	<path class="st1" d="M10.4,0L10.4,0C4.7-0.1,0.1,4.4,0,10.1c0,0,0,0.1,0,0.1c0,3.1,1.3,5.5,3.6,7.8c3,2.9,5.8,5.6,5.8,5.6
		c0.3,0.3,0.7,0.5,1.2,0.4v-0.4l0,0V24c0.4-0.1,0.7-0.2,1-0.5c0,0,2.7-2.7,5.7-5.7c2.3-2.2,3.5-4.5,3.5-7.7C20.8,4.5,16.2,0,10.4,0
		C10.5,0,10.4,0,10.4,0z M10.4,19c-4.9,0-9-4-9-8.9c0-4.9,4-9,8.9-9c4.9,0,9,4,9,8.9c0,0,0,0,0,0C19.3,15,15.3,19,10.4,19L10.4,19z"
		/>
</g>
<g>
	<path class="st1" d="M15.6,6.1c-0.1-1.5-1.5-2.8-3.3-2.8c-1.2,0-2.2,0.6-2.8,1.5C8.5,4.2,7.2,4.4,6.5,5.3c0,0.1-0.1,0.1-0.1,0.2
		c-0.2,0-0.3,0-0.5,0c-1.8,0-3.2,1.5-3.2,3.2c0,1.1,0.6,2.2,1.6,2.8c0.1,0,0.1,0,0.2,0c0.1,0,0.3-0.1,0.3-0.2c0.1-0.2,0-0.4-0.1-0.5
		c-1.2-0.7-1.6-2.2-0.9-3.4C4.2,6.6,5,6.2,5.9,6.2c0,0,0.1,0,0.2,0c0,0.1,0,0.2,0,0.3c0,0.2,0.1,0.4,0.3,0.4c0.2,0,0.4-0.1,0.4-0.3
		c0,0,0,0,0-0.1c0-0.7,0.7-1.3,1.4-1.3c0.4,0,0.8,0.2,1.1,0.5c0.1,0.1,0.2,0.2,0.3,0.1c0.1,0,0.2-0.1,0.3-0.2c0.4-1,1.4-1.6,2.4-1.5
		c1.4,0,2.5,1,2.5,2.2c0,0.1,0,0.1,0,0.2c0,0.2,0.1,0.4,0.4,0.4c0,0,0,0,0,0c1.2,0,2.2,1,2.2,2.2c0,0.7-0.3,1.3-0.8,1.7
		c-0.2,0.1-0.2,0.4-0.1,0.5c0.1,0.1,0.2,0.1,0.3,0.1c0.1,0,0.2,0,0.2-0.1c0.7-0.5,1.1-1.4,1.1-2.3C18.1,7.5,17,6.3,15.6,6.1z"/>
	<path class="st1" d="M5.4,12.5c-0.2,0-0.4-0.2-0.4-0.4c0-0.1,0-0.2,0.1-0.2l0.5-0.6c0.1-0.2,0.4-0.2,0.5-0.1
		c0.2,0.1,0.2,0.4,0.1,0.5l-0.5,0.6C5.6,12.4,5.5,12.5,5.4,12.5z"/>
	<path class="st1" d="M8.5,12.5c-0.1,0-0.2,0-0.2-0.1c-0.2-0.1-0.2-0.4-0.1-0.5l0.5-0.6c0.1-0.2,0.4-0.2,0.5-0.1
		c0.2,0.1,0.2,0.4,0.1,0.5l-0.5,0.6C8.8,12.5,8.7,12.5,8.5,12.5z"/>
	<path class="st1" d="M11.7,12.5c-0.1,0-0.2,0-0.2-0.1c-0.2-0.1-0.2-0.4-0.1-0.5l0.5-0.6c0.1-0.2,0.3-0.2,0.5-0.1
		c0.2,0.1,0.2,0.3,0.1,0.5c0,0,0,0,0,0L12,12.4C11.9,12.5,11.8,12.5,11.7,12.5z"/>
	<path class="st1" d="M14.9,12.5c-0.1,0-0.2,0-0.2-0.1c-0.2-0.1-0.2-0.4-0.1-0.5l0.5-0.6c0.1-0.2,0.3-0.2,0.5-0.1
		c0.2,0.1,0.2,0.3,0.1,0.5c0,0,0,0,0,0l-0.5,0.6C15.1,12.5,15,12.5,14.9,12.5z"/>
	<path class="st1" d="M7,14.8c-0.1,0-0.2,0-0.2-0.1c-0.2-0.1-0.2-0.3-0.1-0.5c0,0,0,0,0,0l0.5-0.6c0.1-0.2,0.3-0.2,0.5-0.1
		c0,0,0,0,0,0c0.2,0.1,0.2,0.4,0.1,0.5l-0.5,0.7C7.2,14.8,7.1,14.8,7,14.8z"/>
	<path class="st1" d="M10.1,14.8c-0.1,0-0.2,0-0.2-0.1c-0.2-0.1-0.2-0.3-0.1-0.5c0,0,0,0,0,0l0.5-0.6c0.1-0.2,0.3-0.2,0.5-0.1
		c0,0,0,0,0,0c0.2,0.1,0.2,0.4,0.1,0.5l-0.5,0.7C10.3,14.8,10.2,14.8,10.1,14.8z"/>
	<path class="st1" d="M13.3,14.8c-0.1,0-0.2,0-0.2-0.1c-0.2-0.1-0.2-0.4-0.1-0.5l0.5-0.6c0.1-0.2,0.3-0.2,0.5-0.1
		c0.2,0.1,0.2,0.3,0.1,0.5c0,0,0,0,0,0l-0.5,0.7C13.5,14.8,13.4,14.8,13.3,14.8z"/>
	<path class="st1" d="M8.5,17.2c-0.2,0-0.4-0.2-0.4-0.4c0-0.1,0-0.2,0.1-0.2l0.5-0.7c0.1-0.2,0.4-0.2,0.5-0.1
		c0.2,0.1,0.2,0.4,0.1,0.5L8.8,17C8.8,17.1,8.7,17.2,8.5,17.2z"/>
	<path class="st1" d="M11.7,17.2c-0.1,0-0.2,0-0.2-0.1c-0.2-0.1-0.2-0.4-0.1-0.5l0.5-0.7c0.1-0.2,0.4-0.2,0.5-0.1
		c0.2,0.1,0.2,0.4,0.1,0.5l0,0L12,17C11.9,17.1,11.8,17.2,11.7,17.2z"/>
</g>
</svg>
