<?xml version="1.0" encoding="utf-8"?>
<!-- Generator: Adobe Illustrator 25.2.0, SVG Export Plug-In . SVG Version: 6.00 Build 0)  -->
<svg version="1.1" id="Capa_1" xmlns="http://www.w3.org/2000/svg" xmlns:xlink="http://www.w3.org/1999/xlink" x="0px" y="0px"
	 viewBox="0 0 24 24" style="enable-background:new 0 0 24 24;" xml:space="preserve">
<style type="text/css">
	.st0{fill:#FFFFFF;stroke:#FFFFFF;stroke-miterlimit:10;}
	.st1{display:none;}
	.st2{display:inline;fill:#9A7D22;}
	.st3{fill:#65B4E1;}
</style>
<circle class="st0" cx="10.4" cy="10.2" r="9"/>
<g id="Capa_1_1_" class="st1">
	<circle class="st2" cx="12" cy="10.4" r="10"/>
</g>
<g id="Capa_3">
	<path class="st3" d="M17.3,2.6c-3-2.7-7.4-3.4-11.1-1.8C2.5,2.4,0.1,6.1,0,10.1v0.1c0,3.1,1.3,5.5,3.6,7.8c3,2.9,5.8,5.6,5.8,5.6
		c0.3,0.3,0.7,0.5,1.2,0.4c-0.1,0-0.2,0-0.4,0c0.1,0,0.2,0,0.4,0c0.4-0.1,0.7-0.2,1-0.5c0,0,2.7-2.7,5.7-5.7
		c1.4-1.3,2.3-2.6,2.9-4.2c0.1-0.4,0.6-1.8,0.6-3.5C20.7,6.1,18,3.3,17.3,2.6z M10.4,19c-4.9,0-9-4-9-8.9s4-9,8.9-9s9,4,9,8.9l0,0
		C19.3,15,15.3,19,10.4,19L10.4,19z"/>
</g>
<g>
	<path class="st3" d="M11.4,5.9c0.1,0,0.2-0.1,0.2-0.2c0,0,0,0,0,0v-1c0-0.1-0.1-0.2-0.2-0.2l0,0H9.1c-0.1,0-0.2,0.1-0.2,0.2
		c0,0,0,0,0,0v1c0,0.1,0.1,0.2,0.2,0.2c-0.2,1.4-0.7,4.8-0.7,7.5c0,0.1,0.1,0.2,0.2,0.2c0.1,0,0.2-0.1,0.2-0.2
		c0-2.9,0.6-6.9,0.7-7.7h1.3c0.1,0.8,0.8,4.9,0.8,7.7c0,0.1,0,0.1,0.1,0.2c0,0,0.1,0.1,0.2,0.1c0.1,0,0.2-0.1,0.2-0.2c0,0,0,0,0,0
		C12.1,10.8,11.6,7.3,11.4,5.9L11.4,5.9z M11.1,4.9v0.3c0,0-0.1,0-0.1,0H9.4c0,0,0,0-0.1,0V4.9H11.1z"/>
	<path class="st3" d="M15.5,8.6V3.7c0-0.1-0.1-0.2-0.2-0.2h-10C5.1,3.5,5,3.6,5,3.7v4.9c-0.4,1.4-0.7,2.9-0.9,4.4
		c0,0.1,0.1,0.3,0.2,0.3c0.1,0,0.3-0.1,0.3-0.2c0,0,0,0,0,0c0.3-3.2,1.6-6.6,1.9-7.3h1.2c0,0.1,0,0.3-0.1,0.4c0,0.4-0.1,1.1-0.2,1.8
		C7.3,9.6,7.3,11.3,7.3,13c0,0.1,0.1,0.2,0.2,0.2c0.1,0,0.2-0.1,0.2-0.2c-0.1-2.4,0.1-4.7,0.3-7.1h0.1c0.1,0,0.2-0.1,0.2-0.2
		c0,0,0,0,0,0v-1c0-0.1-0.1-0.2-0.2-0.2l0,0H6c-0.1,0-0.2,0.1-0.2,0.2v1c0,0.1,0.1,0.2,0.2,0.2C5.8,6.2,5.7,6.6,5.5,7.1V4H15v3.1
		c-0.2-0.5-0.3-0.9-0.4-1.2c0.1,0,0.2-0.1,0.2-0.2v-1c0-0.1-0.1-0.2-0.2-0.2h-2.3c-0.1,0-0.2,0.1-0.2,0.2c0,0,0,0,0,0v1
		c0,0.1,0.1,0.2,0.2,0.2l0,0h0.1c0.3,2.4,0.4,4.8,0.3,7.1c0,0.1,0.1,0.2,0.2,0.2c0,0,0,0,0,0c0.1,0,0.2-0.1,0.2-0.2c0,0,0,0,0,0
		c0.1-1.7,0-3.4-0.1-5.1c-0.1-0.8-0.1-1.4-0.2-1.8c0-0.2,0-0.3-0.1-0.4H14c0.3,0.7,1.6,4.2,1.9,7.4c0,0.1,0.1,0.2,0.2,0.2h0
		c0.1,0,0.2-0.1,0.2-0.3C16.2,11.6,15.9,10.1,15.5,8.6z M8.1,5.2C8,5.2,8,5.2,8.1,5.2H6.4c-0.1,0-0.1,0-0.2,0.1V4.9h1.9V5.2z
		 M14.3,4.9v0.3c0,0-0.1-0.1-0.2-0.1h-1.6c0,0-0.1,0-0.1,0V4.9H14.3z"/>
	<path class="st3" d="M16.2,13.9c-0.2-0.1-0.3-0.1-0.5-0.1c-0.3,0-0.6,0.1-0.8,0.3l0,0l-0.1,0c-0.1,0.1-0.2,0.1-0.3,0.1
		c-0.1,0-0.3-0.1-0.4-0.1c-0.6-0.4-1.4-0.4-2,0c-0.2,0.2-0.6,0.2-0.8,0c-0.6-0.4-1.4-0.4-2,0c-0.1,0.1-0.2,0.1-0.4,0.1l0,0
		c-0.1,0-0.3-0.1-0.4-0.2c-0.3-0.2-0.7-0.3-1-0.3c-0.4,0-0.7,0.1-1,0.3c-0.2,0.2-0.6,0.2-0.8,0L5.6,14c-0.2-0.2-0.5-0.3-0.8-0.3
		c-0.2,0-0.4,0.1-0.5,0.2c-0.1,0-0.2,0.2-0.1,0.3c0,0.1,0.2,0.2,0.3,0.1c0,0,0,0,0,0c0.1-0.1,0.2-0.1,0.3-0.1c0.2,0,0.4,0,0.5,0.2
		l0.1,0.1c0.4,0.3,0.9,0.3,1.3,0c0.2-0.2,0.5-0.3,0.8-0.2c0.3,0,0.5,0.1,0.8,0.2c0.2,0.1,0.4,0.2,0.6,0.2l0,0c0.2,0,0.5-0.1,0.6-0.2
		c0.4-0.3,1.1-0.3,1.5,0c0.4,0.3,0.9,0.3,1.3,0c0.4-0.3,1.1-0.3,1.5,0c0.2,0.1,0.4,0.2,0.6,0.2c0.2,0,0.4-0.1,0.6-0.2l0.1,0l0,0
		c0.1-0.1,0.3-0.2,0.5-0.2c0.1,0,0.2,0.1,0.3,0.1c0.1,0,0.2,0,0.3-0.1C16.3,14.1,16.3,14,16.2,13.9L16.2,13.9z"/>
	<path class="st3" d="M16.2,15.4c-0.2-0.1-0.3-0.1-0.5-0.1c-0.3,0-0.6,0.1-0.8,0.3l0,0l-0.1,0c-0.1,0.1-0.2,0.1-0.3,0.1
		c-0.1,0-0.3-0.1-0.4-0.1c-0.6-0.4-1.4-0.4-2,0c-0.2,0.2-0.6,0.2-0.8,0c-0.6-0.4-1.4-0.4-2,0c-0.1,0.1-0.2,0.1-0.4,0.1l0,0
		c-0.1,0-0.3-0.1-0.4-0.2c-0.3-0.2-0.7-0.3-1-0.3c-0.4,0-0.7,0.1-1,0.3c-0.2,0.2-0.6,0.2-0.8,0l-0.1-0.1c-0.2-0.2-0.5-0.3-0.8-0.3
		c-0.2,0-0.4,0.1-0.5,0.2c-0.1,0-0.2,0.2-0.1,0.3c0,0.1,0.2,0.2,0.3,0.1c0,0,0,0,0,0c0.1-0.1,0.2-0.1,0.3-0.1c0.2,0,0.4,0,0.5,0.2
		l0.1,0.1c0.4,0.3,0.9,0.3,1.3,0c0.2-0.2,0.5-0.3,0.8-0.2c0.3,0,0.5,0.1,0.8,0.2c0.2,0.1,0.4,0.2,0.6,0.2l0,0c0.2,0,0.5-0.1,0.6-0.2
		c0.4-0.3,1.1-0.3,1.5,0c0.4,0.3,0.9,0.3,1.3,0c0.4-0.3,1.1-0.3,1.5,0c0.2,0.1,0.4,0.2,0.6,0.2c0.2,0,0.4-0.1,0.6-0.2l0.1,0l0,0
		c0.1-0.1,0.3-0.2,0.5-0.2c0.1,0,0.2,0.1,0.3,0.1c0.1,0,0.2,0,0.3-0.1C16.3,15.6,16.3,15.5,16.2,15.4L16.2,15.4z"/>
</g>
</svg>
