<?xml version="1.0" encoding="utf-8"?>
<!-- Generator: Adobe Illustrator 25.2.0, SVG Export Plug-In . SVG Version: 6.00 Build 0)  -->
<svg version="1.1" id="Capa_1" xmlns="http://www.w3.org/2000/svg" xmlns:xlink="http://www.w3.org/1999/xlink" x="0px" y="0px"
	 viewBox="0 0 24 24" style="enable-background:new 0 0 24 24;" xml:space="preserve">
<style type="text/css">
	.st0{fill:#FFFFFF;stroke:#FFFFFF;stroke-miterlimit:10;}
	.st1{fill:#12B5E1;}
</style>
<circle class="st0" cx="10.4" cy="10.3" r="9"/>
<g id="Capa_3">
	<path class="st1" d="M10.4,0L10.4,0C4.7-0.1,0.1,4.4,0,10.1c0,0,0,0.1,0,0.1c0,3.1,1.3,5.5,3.6,7.8c3,2.9,5.8,5.6,5.8,5.6
		c0.3,0.3,0.7,0.5,1.2,0.4v-0.4l0,0V24c0.4-0.1,0.7-0.2,1-0.5c0,0,2.7-2.7,5.7-5.7c2.3-2.2,3.5-4.5,3.5-7.7C20.8,4.5,16.2,0,10.4,0
		C10.5,0,10.4,0,10.4,0z M10.4,19c-4.9,0-9-4-9-8.9c0-4.9,4-9,8.9-9c4.9,0,9,4,9,8.9c0,0,0,0,0,0C19.3,15,15.3,19,10.4,19L10.4,19z"
		/>
</g>
<path class="st1" d="M10.5,11.3V4.6c0-0.1-0.1-0.3-0.3-0.3c-0.1,0-0.3,0.1-0.3,0.3v6.7c-0.5,0.1-0.8,0.5-0.8,1.1
	c0,0.6,0.5,1.1,1.1,1.1c0.6,0,1.1-0.5,1.1-1.1C11.3,11.9,11,11.5,10.5,11.3z M10.2,13c-0.3,0-0.6-0.3-0.6-0.6s0.3-0.6,0.6-0.6
	s0.6,0.3,0.6,0.6S10.6,13,10.2,13z"/>
<path class="st1" d="M12.4,12.6c0.3,0,0.5-0.1,0.7-0.3c0.5-0.4,1.2-0.4,1.7,0c0.2,0.2,0.5,0.3,0.7,0.3c0.2,0,0.5-0.1,0.7-0.2l0.1,0
	l0,0c0.2-0.1,0.4-0.2,0.6-0.2c0.1,0,0.2,0.1,0.4,0.1c0.1,0,0.3,0,0.3-0.2c0-0.1,0-0.2-0.1-0.3c-0.2-0.1-0.4-0.1-0.6-0.2
	c-0.3,0-0.6,0.1-0.9,0.3l0,0l-0.1,0c-0.1,0.1-0.2,0.1-0.3,0.1c-0.2,0-0.3-0.1-0.4-0.2c-0.7-0.5-1.6-0.5-2.3,0
	c-0.1,0.1-0.3,0.2-0.5,0.1c-0.1,0-0.2,0-0.3-0.1l-0.3,0.4C11.9,12.5,12.1,12.6,12.4,12.6z"/>
<path class="st1" d="M8.4,11.8c-0.3-0.2-0.7-0.4-1.2-0.3c-0.4,0-0.8,0.1-1.2,0.4c-0.3,0.2-0.6,0.2-0.9,0l-0.1-0.1
	c-0.2-0.2-0.6-0.3-0.9-0.3c-0.2,0-0.4,0.1-0.6,0.2c-0.1,0.1-0.2,0.2-0.1,0.3c0.1,0.1,0.2,0.2,0.3,0.1c0,0,0,0,0,0
	C4,12,4.1,12,4.2,12c0.2,0,0.4,0,0.6,0.2l0.1,0.1c0.4,0.3,1,0.3,1.5,0C6.6,12.1,6.9,12,7.3,12c0.3,0,0.6,0.1,0.9,0.3l0.2,0.1
	L8.4,11.8L8.4,11.8z"/>
<path class="st1" d="M8.3,13.3c-0.4,0-0.8,0.1-1.2,0.4c-0.3,0.2-0.6,0.2-0.9,0l-0.1-0.1c-0.2-0.2-0.6-0.3-0.9-0.3
	c-0.2,0-0.4,0.1-0.6,0.2c-0.1,0.1-0.2,0.2-0.1,0.4c0.1,0.1,0.2,0.1,0.3,0.1c0.1-0.1,0.2-0.1,0.3-0.1c0.2,0,0.4,0,0.6,0.2l0.1,0.1
	c0.4,0.3,1,0.3,1.5,0c0.2-0.2,0.5-0.3,0.9-0.3c0.3,0,0.5,0.1,0.7,0.2l0.1-0.5C8.9,13.4,8.6,13.3,8.3,13.3z"/>
<path class="st1" d="M10.7,13.8c0.3,0,0.6,0.1,0.9,0.3c0.4,0.3,1,0.3,1.5,0c0.5-0.4,1.2-0.4,1.7,0c0.2,0.2,0.5,0.3,0.7,0.3
	c0.2,0,0.5-0.1,0.7-0.2l0.1,0l0,0c0.2-0.1,0.4-0.2,0.6-0.2c0.1,0,0.2,0.1,0.4,0.1c0.1,0.1,0.3,0,0.3-0.2c0-0.1,0-0.3-0.1-0.3
	c-0.2-0.1-0.4-0.1-0.6-0.2c-0.3,0-0.6,0.1-0.9,0.3l0,0l-0.1,0c-0.1,0.1-0.2,0.1-0.3,0.1c-0.2,0-0.3-0.1-0.4-0.2
	c-0.7-0.5-1.6-0.5-2.3,0c-0.3,0.2-0.6,0.2-0.9,0c-0.2-0.2-0.5-0.3-0.8-0.3L10.7,13.8L10.7,13.8z"/>
<path class="st1" d="M17.2,15.3c-0.2-0.1-0.4-0.1-0.6-0.2c-0.3,0-0.6,0.1-0.9,0.3l0,0l-0.1,0c-0.1,0.1-0.2,0.1-0.3,0.1
	c-0.2,0-0.3-0.1-0.4-0.2c-0.7-0.5-1.6-0.5-2.3,0c-0.3,0.2-0.6,0.2-0.9,0c-0.7-0.5-1.6-0.5-2.3,0c-0.1,0.1-0.3,0.2-0.4,0.2l0,0
	c-0.2,0-0.3-0.1-0.4-0.2c-0.3-0.2-0.7-0.4-1.2-0.3c-0.4,0-0.8,0.1-1.2,0.4c-0.3,0.2-0.6,0.2-0.9,0l-0.1-0.1
	c-0.2-0.2-0.6-0.3-0.9-0.3c-0.2,0-0.4,0.1-0.6,0.2c-0.1,0.1-0.2,0.2-0.1,0.3c0.1,0.1,0.2,0.2,0.3,0.1c0,0,0,0,0,0
	c0.1-0.1,0.2-0.1,0.3-0.1c0.2,0,0.4,0,0.6,0.2l0.1,0.1c0.4,0.3,1,0.3,1.5,0c0.2-0.2,0.5-0.3,0.9-0.3c0.3,0,0.6,0.1,0.9,0.3
	c0.2,0.2,0.5,0.2,0.7,0.3l0,0c0.3,0,0.5-0.1,0.7-0.3c0.5-0.4,1.2-0.4,1.7,0c0.4,0.3,1,0.3,1.5,0c0.5-0.4,1.2-0.4,1.7,0
	c0.2,0.2,0.5,0.3,0.7,0.3c0.2,0,0.5-0.1,0.7-0.2l0.1,0l0,0c0.2-0.1,0.4-0.2,0.6-0.2c0.1,0,0.2,0.1,0.4,0.1c0.1,0.1,0.3,0,0.3-0.2
	C17.3,15.5,17.3,15.4,17.2,15.3L17.2,15.3z"/>
<path class="st1" d="M10.4,7.6H11c0.1,0,0.2-0.1,0.2-0.2c0-0.1-0.1-0.2-0.2-0.2c0,0,0,0,0,0h-0.6c-0.1,0-0.2,0.1-0.2,0.2
	C10.2,7.6,10.3,7.6,10.4,7.6z"/>
<path class="st1" d="M10.4,4.7H11c0.1,0,0.2-0.1,0.2-0.2c0-0.1-0.1-0.2-0.2-0.2c0,0,0,0,0,0h-0.6c-0.1,0-0.2,0.1-0.2,0.2
	C10.2,4.6,10.3,4.7,10.4,4.7C10.4,4.7,10.4,4.7,10.4,4.7z"/>
<path class="st1" d="M10.4,6.2H11c0.1,0,0.2-0.1,0.2-0.2c0-0.1-0.1-0.2-0.2-0.2c0,0,0,0,0,0h-0.6c-0.1,0-0.2,0.1-0.2,0.2
	C10.2,6.1,10.3,6.2,10.4,6.2z"/>
<path class="st1" d="M10.4,10.5H11c0.1,0,0.2-0.1,0.2-0.2c0-0.1-0.1-0.2-0.2-0.2c0,0,0,0,0,0h-0.6c-0.1,0-0.2,0.1-0.2,0.2
	S10.3,10.5,10.4,10.5C10.4,10.5,10.4,10.5,10.4,10.5z"/>
<path class="st1" d="M10.4,9.1H11c0.1,0,0.2-0.1,0.2-0.2c0-0.1-0.1-0.2-0.2-0.2c0,0,0,0,0,0h-0.6c-0.1,0-0.2,0.1-0.2,0.2
	C10.2,9,10.3,9.1,10.4,9.1C10.4,9.1,10.4,9.1,10.4,9.1z"/>
</svg>
