<?xml version="1.0" encoding="utf-8"?>
<!-- Generator: Adobe Illustrator 25.2.0, SVG Export Plug-In . SVG Version: 6.00 Build 0)  -->
<svg version="1.1" id="Capa_1" xmlns="http://www.w3.org/2000/svg" xmlns:xlink="http://www.w3.org/1999/xlink" x="0px" y="0px"
	 viewBox="0 0 24 24" style="enable-background:new 0 0 24 24;" xml:space="preserve">
<style type="text/css">
	.st0{fill:#FFFFFF;stroke:#FFFFFF;stroke-miterlimit:10;}
	.st1{fill:#12B5E1;}
</style>
<circle class="st0" cx="10.4" cy="10.3" r="9"/>
<g id="Capa_3">
	<path class="st1" d="M10.4,0L10.4,0C4.7-0.1,0.1,4.4,0,10.1c0,0,0,0.1,0,0.1c0,3.1,1.3,5.5,3.6,7.8c3,2.9,5.8,5.6,5.8,5.6
		c0.3,0.3,0.7,0.5,1.2,0.4v-0.4l0,0V24c0.4-0.1,0.7-0.2,1-0.5c0,0,2.7-2.7,5.7-5.7c2.3-2.2,3.5-4.5,3.5-7.7C20.8,4.5,16.2,0,10.4,0
		C10.5,0,10.4,0,10.4,0z M10.4,19c-4.9,0-9-4-9-8.9c0-4.9,4-9,8.9-9c4.9,0,9,4,9,8.9c0,0,0,0,0,0C19.3,15,15.3,19,10.4,19L10.4,19z"
		/>
</g>
<g>
	<path class="st1" d="M9.8,4.9c-0.1,0-0.1-0.1-0.2-0.1C9.3,4.9,9.1,5,8.8,5.1L9,4.6c0-0.1,0-0.3-0.2-0.3c-0.1,0-0.3,0-0.3,0.2
		l-0.3,1L6.9,6V4.6l0.8-0.7c0.1-0.1,0.1-0.3,0-0.4c-0.1-0.1-0.3-0.1-0.4,0c0,0,0,0,0,0L6.8,3.9V3.1c0-0.1-0.2-0.3-0.3-0.2
		C6.4,2.9,6.3,3,6.3,3.1v0.7L5.9,3.5c-0.1-0.1-0.3-0.1-0.4,0c-0.1,0.1-0.1,0.3,0,0.4l0.8,0.7V6L5,5.4l-0.3-1c0-0.1-0.2-0.2-0.3-0.2
		c-0.1,0-0.2,0.2-0.2,0.3c0,0,0,0,0,0l0.2,0.5C4.1,5,3.9,4.9,3.6,4.8C3.5,4.8,3.3,4.9,3.3,5c0,0.1,0.1,0.3,0.2,0.3l0.7,0.3L3.6,5.8
		C3.5,5.9,3.4,6,3.5,6.1c0,0,0,0,0,0c0.1,0.1,0.2,0.2,0.3,0.1c0,0,0,0,0,0l1-0.4L6,6.5L4.9,7.2l-1-0.3c-0.1,0-0.1,0-0.2,0
		C3.6,7,3.6,7.1,3.6,7.1c0,0.1,0.1,0.3,0.2,0.3l0.5,0.1C4.1,7.7,3.8,7.9,3.6,8c0,0.1-0.1,0.1-0.1,0.2c0,0.1,0,0.1,0.1,0.2
		c0.1,0.1,0.2,0.1,0.3,0L4.6,8L4.5,8.6c0,0.1,0.1,0.3,0.2,0.3c0.1,0,0.2,0,0.2,0C5,8.8,5,8.7,5,8.7l0.2-1l1.1-0.7v1.4L5.6,9
		C5.5,9,5.5,9.1,5.5,9.2c0,0.1,0,0.1,0.1,0.2c0,0.1,0.1,0.1,0.2,0.1c0.1,0,0.1,0,0.2-0.1L6.4,9v0.7c0,0.1,0.1,0.2,0.2,0.3
		c0,0,0.1,0,0.1,0l0,0c0,0,0.1,0,0.1,0c0.1,0,0.2-0.1,0.2-0.3c0,0,0-0.2,0-0.4V9l0.4,0.4c0.1,0.1,0.3,0.1,0.4,0c0,0,0.1-0.1,0.1-0.2
		c0-0.1,0-0.1-0.1-0.2L6.9,8.3V6.9L8,7.6l0.2,1c0,0.1,0.1,0.1,0.1,0.2c0.1,0,0.1,0.1,0.2,0c0.1,0,0.1-0.1,0.2-0.1
		c0-0.1,0.1-0.1,0-0.2L8.6,8l0.6,0.4c0.1,0.1,0.2,0.1,0.3,0c0.1-0.1,0.1-0.3,0-0.4C9.4,7.9,9.1,7.7,8.9,7.6l0.5-0.1
		c0.1,0,0.2-0.2,0.2-0.3C9.6,7.1,9.6,7,9.5,7c-0.1,0-0.1,0-0.2,0l-1,0.3L7.2,6.5l1.3-0.6l1,0.4c0.1,0.1,0.3,0,0.3-0.1
		c0.1-0.1,0-0.3-0.1-0.3L9.1,5.6l0.6-0.3c0.1,0,0.2-0.2,0.2-0.3l0,0C9.9,5,9.8,4.9,9.8,4.9z"/>
	<path class="st1" d="M13.4,13.3v-1.3c0-0.1-0.1-0.2-0.2-0.2h-0.4c-0.1,0-0.2,0.1-0.2,0.2v1.3c-0.8,0.2-1.3,1-1.1,1.8
		c0.2,0.8,1,1.3,1.8,1.1c0.8-0.2,1.3-1,1.1-1.8C14.4,13.9,13.9,13.5,13.4,13.3z"/>
	<path class="st1" d="M14.7,12V3c0-0.4-0.3-0.8-0.8-0.8h-1.8c-0.4,0-0.8,0.3-0.8,0.8v9c-0.5,0.3-0.9,0.8-1.2,1.4
		c-0.4,0.8-0.4,1.7-0.1,2.5c0.3,0.8,0.9,1.5,1.7,1.8c0.4,0.1,0.8,0.2,1.2,0.2c1.7,0,3.2-1.4,3.2-3.1C16.3,13.6,15.7,12.6,14.7,12
		L14.7,12z M13,17.1c-0.3,0-0.6-0.1-0.9-0.2c-0.6-0.2-1.1-0.7-1.3-1.3c-0.5-1.2,0.1-2.6,1.4-3.1V3H14v9.4c1.2,0.5,1.8,1.9,1.3,3.1
		C14.9,16.5,14.1,17.1,13,17.1L13,17.1z"/>
	<path class="st1" d="M12.7,7.7h0.7c0.1,0,0.2-0.1,0.2-0.2c0-0.1-0.1-0.2-0.2-0.2c0,0,0,0,0,0h-0.7c-0.1,0-0.2,0.1-0.2,0.2
		C12.5,7.6,12.6,7.7,12.7,7.7z"/>
	<path class="st1" d="M12.7,4.4h0.7c0.1,0,0.2-0.1,0.2-0.2c0-0.1-0.1-0.2-0.2-0.2c0,0,0,0,0,0h-0.7c-0.1,0-0.2,0.1-0.2,0.2
		C12.5,4.3,12.6,4.4,12.7,4.4C12.7,4.4,12.7,4.4,12.7,4.4z"/>
	<path class="st1" d="M12.7,6h0.7c0.1,0,0.2-0.1,0.2-0.2c0-0.1-0.1-0.2-0.2-0.2c0,0,0,0,0,0h-0.7c-0.1,0-0.2,0.1-0.2,0.2
		C12.5,5.9,12.6,6,12.7,6z"/>
	<path class="st1" d="M12.7,10.9h0.7c0.1,0,0.2-0.1,0.2-0.2c0-0.1-0.1-0.2-0.2-0.2c0,0,0,0,0,0h-0.7c-0.1,0-0.2,0.1-0.2,0.2
		C12.5,10.9,12.6,10.9,12.7,10.9C12.7,10.9,12.7,10.9,12.7,10.9z"/>
	<path class="st1" d="M12.7,9.3h0.7c0.1,0,0.2-0.1,0.2-0.2c0-0.1-0.1-0.2-0.2-0.2c0,0,0,0,0,0h-0.7c-0.1,0-0.2,0.1-0.2,0.2
		C12.5,9.2,12.6,9.3,12.7,9.3C12.7,9.3,12.7,9.3,12.7,9.3z"/>
</g>
</svg>
