<?xml version="1.0" encoding="utf-8"?>
<!-- Generator: Adobe Illustrator 25.2.0, SVG Export Plug-In . SVG Version: 6.00 Build 0)  -->
<svg version="1.1" id="Capa_1" xmlns="http://www.w3.org/2000/svg" xmlns:xlink="http://www.w3.org/1999/xlink" x="0px" y="0px"
	 viewBox="0 0 24 24" style="enable-background:new 0 0 24 24;" xml:space="preserve">
<style type="text/css">
	.st0{fill:#FFFFFF;stroke:#FFFFFF;stroke-miterlimit:10;}
	.st1{fill:#12B5E1;}
</style>
<g>
	<circle class="st0" cx="10.4" cy="10.3" r="9"/>
	<g id="Capa_3">
		<path class="st1" d="M10.4,0L10.4,0C4.7-0.1,0.1,4.4,0,10.1v0.1c0,3.1,1.3,5.5,3.6,7.8c3,2.9,5.8,5.6,5.8,5.6
			c0.3,0.3,0.7,0.5,1.2,0.4v-0.4l0,0V24c0.4-0.1,0.7-0.2,1-0.5c0,0,2.7-2.7,5.7-5.7c2.3-2.2,3.5-4.5,3.5-7.7C20.8,4.5,16.2,0,10.4,0
			C10.5,0,10.4,0,10.4,0z M10.4,19c-4.9,0-9-4-9-8.9s4-9,8.9-9s9,4,9,8.9l0,0C19.3,15,15.3,19,10.4,19L10.4,19z"/>
	</g>
	<g>
		<g>
			<path class="st1" d="M10.7,10.5L10.7,10.5c0.1,0,0.2-0.1,0.2-0.2c0-0.1-0.1-0.2-0.2-0.2h0l-1.2,0.3c-0.1,0.1-0.1,0.2-0.1,0.3
				c0,0.1,0.1,0.1,0.2,0.1L10.7,10.5L10.7,10.5z"/>
			<path class="st1" d="M9.8,8.2L9.8,8.2l1,0.6l0,0c0.1,0.1,0.2,0,0.3-0.1v0c0-0.1,0-0.2-0.1-0.3l-1-0.6c-0.1,0-0.2,0-0.3,0.1
				C9.8,8,9.8,8.1,9.8,8.2L9.8,8.2z"/>
			<path class="st1" d="M12.2,7.6C12.2,7.7,12.2,7.7,12.2,7.6c0.1,0.1,0.2,0.2,0.3,0.1c0.1,0,0.1-0.1,0.1-0.2l-0.3-1.2
				c0-0.1-0.1-0.2-0.2-0.2h0c-0.1,0-0.2,0.1-0.2,0.3L12.2,7.6z"/>
			<path class="st1" d="M14,8.1c0.1,0.1,0.2,0,0.3-0.1l0.6-1c0.1-0.1,0-0.2-0.1-0.3c0,0-0.1,0-0.1,0c-0.1,0-0.1,0-0.2,0.1l-0.6,1
				l0,0C13.9,7.9,13.9,8,14,8.1z"/>
			<path class="st1" d="M11.5,10.5l2.6-1.7c-0.6-0.7-1.5-0.7-2.2-0.2c-0.4,0.4-0.6,1-0.5,1.5C11.4,10.3,11.4,10.4,11.5,10.5z"/>
			<path class="st1" d="M16.3,10.9L16.3,10.9c0-0.1-0.1-0.2-0.2-0.1L14.9,11h0l-1.4-0.9l0,0l1.4-0.9h0l1.1,0.3
				c0.1,0.1,0.2,0,0.3-0.1c0.1-0.1,0-0.2-0.1-0.3c0,0-0.1,0-0.1,0l-0.8-0.2l0.8-0.5c0.1-0.1,0.1-0.2,0.1-0.3C16.2,8,16.1,7.9,16,8
				l-1.2,0.8c-4.6,3-4.8,3.1-4.8,3.1c-0.1,0.1,0,0.2,0.1,0.3c0.1,0,0.1,0,0.2,0l0.7-0.5l0.1,0l-0.1,0.8c-0.1,0.1,0,0.2,0.1,0.3
				c0.1,0.1,0.2,0,0.3-0.1c0,0,0-0.1,0-0.1l0.2-1.2h0l1.3-0.8l0,0v1.6l0,0l-0.8,0.8C12,13,11.9,13.1,12,13.2s0.2,0.1,0.3,0.1
				c0,0,0.1,0,0.1-0.1l0.6-0.5v0.1c0,0.5,0,0.8,0,0.9c0,0.1,0.1,0.2,0.1,0.2c0,0,0.1,0,0.2,0c0,0,0.1-0.1,0.1-0.1c0-0.3,0-0.6,0-1
				v-0.1l0.6,0.5c0.1,0.1,0.2,0.1,0.3,0c0.1-0.1,0.1-0.2,0-0.3l-0.8-0.8v-1.7l1.4,0.9l0.2,1.2c0,0.1,0.1,0.2,0.2,0.2
				c0.1,0,0.2-0.1,0.2-0.2l-0.1-0.8l0.1,0l0.7,0.5c0.1,0.1,0.2,0,0.3-0.1c0-0.1,0-0.1,0-0.2c-0.3-0.2-0.5-0.4-0.8-0.5l-0.1,0
				l0.8-0.2C16.3,11.1,16.3,11,16.3,10.9z"/>
		</g>
		<path class="st1" d="M12.8,4.7c-2.1,0-3.9,1.2-4.8,3H5.3v-4c0-0.2-0.2-0.4-0.4-0.4S4.5,3.5,4.5,3.7v12.7c0,0.2,0.2,0.4,0.4,0.4
			s0.4-0.2,0.4-0.4v-4H8c1.3,2.7,4.5,3.7,7.2,2.4c2.7-1.3,3.7-4.5,2.4-7.2C16.7,5.8,14.9,4.7,12.8,4.7z M5.3,11.7V8.5h2.4
			c-0.3,1-0.3,2.1,0,3.2H5.3z M12.8,14.6c-2.5,0-4.6-2.1-4.6-4.6s2.1-4.6,4.6-4.6c2.5,0,4.6,2,4.6,4.6
			C17.4,12.6,15.4,14.6,12.8,14.6C12.9,14.6,12.8,14.6,12.8,14.6z"/>
	</g>
</g>
</svg>
