<?xml version="1.0" encoding="utf-8"?>
<!-- Generator: Adobe Illustrator 25.2.0, SVG Export Plug-In . SVG Version: 6.00 Build 0)  -->
<svg version="1.1" id="Capa_1" xmlns="http://www.w3.org/2000/svg" xmlns:xlink="http://www.w3.org/1999/xlink" x="0px" y="0px"
	 viewBox="0 0 24 24" style="enable-background:new 0 0 24 24;" xml:space="preserve">
<style type="text/css">
	.st0{fill:#FFFFFF;stroke:#FFFFFF;stroke-miterlimit:10;}
	.st1{display:none;}
	.st2{display:inline;fill:#9A7D22;}
	.st3{fill:#EFB875;}
	.st4{fill:#FFFFFF;}
</style>
<circle class="st0" cx="10.4" cy="10.2" r="9"/>
<g id="Capa_1_1_" class="st1">
	<circle class="st2" cx="12" cy="10.4" r="10"/>
</g>
<g id="Capa_3">
	<path class="st3" d="M10.4,0L10.4,0C4.7-0.1,0.1,4.4,0,10.1v0.1c0,3.1,1.3,5.5,3.6,7.8c3,2.9,5.8,5.6,5.8,5.6
		c0.3,0.3,0.7,0.5,1.2,0.4v-0.4l0,0V24c0.4-0.1,0.7-0.2,1-0.5c0,0,2.7-2.7,5.7-5.7c2.3-2.2,3.5-4.5,3.5-7.7C20.8,4.5,16.2,0,10.4,0
		C10.5,0,10.4,0,10.4,0z M10.4,19c-4.9,0-9-4-9-8.9s4-9,8.9-9s9,4,9,8.9l0,0C19.3,15,15.3,19,10.4,19L10.4,19z"/>
</g>
<rect x="8.2" y="12.2" class="st4" width="4.2" height="3.2"/>
<path class="st3" d="M16.1,8.7l-1-1.4c0-0.1-0.1-0.1-0.2-0.1h-4l-0.6-0.6c0,0,0,0,0,0V6c0.4-0.2,0.9-0.1,1.3,0c0,0,0.1,0,0.1,0
	c0,0,0.1-0.1,0.1-0.1V5.7v0V5.1v0V4.9c0-0.1,0-0.1-0.1-0.1c-0.5-0.2-1.1-0.2-1.6,0c0,0-0.1,0.1-0.1,0.1V5v0.9v0.6c0,0,0,0,0,0
	L9.5,7.2h-4c-0.1,0-0.1,0-0.2,0.1l-1,1.4c0,0.1-0.1,0.2,0,0.2s0.1,0.1,0.2,0.1h0.8v4.9c0,0,0,0,0,0H4.5c-0.1,0-0.1,0.1-0.1,0.1
	s0.1,0.1,0.1,0.1H16c0.1,0,0.1-0.1,0.1-0.1S16,13.9,16,13.9h-0.8c0,0,0,0,0,0V9.1H16c0.1,0,0.2,0,0.2-0.1
	C16.2,8.9,16.2,8.8,16.1,8.7z M10.4,5.5V5.2c0.4-0.1,0.8-0.1,1.2,0v0.3C11.2,5.4,10.8,5.4,10.4,5.5z M5.7,7.7h3.5l-0.9,1H5.5H5
	L5.7,7.7z M10.9,13.9H9.6v-2.1c0-0.4,0.3-0.8,0.7-0.8s0.7,0.3,0.7,0.8V13.9z M14.8,13.9h-3.6v-2.1c0-0.6-0.4-1-0.9-1
	c-0.5,0-0.9,0.5-0.9,1v2.1H5.7c0,0,0,0,0,0V9.1h2.7c0,0,0.1,0,0.1,0c0,0,0,0,0,0c0,0,0,0,0,0c0,0,0,0,0,0l1.7-1.9L11.9,9
	c0,0,0,0,0,0c0,0,0,0,0,0c0,0,0,0,0,0c0,0,0.1,0,0.1,0h2.7L14.8,13.9C14.8,13.9,14.8,13.9,14.8,13.9z M15,8.6h-2.8l-0.9-1h3.5l0.7,1
	H15z M7.4,10.4H6.8c-0.1,0-0.1,0.1-0.1,0.1v1.1c0,0.1,0.1,0.1,0.1,0.1h0.6c0.1,0,0.1-0.1,0.1-0.1v-1.1C7.6,10.4,7.5,10.4,7.4,10.4z
	 M7.3,11.5H7v-0.8h0.3V11.5z M8.7,10.4H8.1c-0.1,0-0.1,0.1-0.1,0.1v1.1c0,0.1,0.1,0.1,0.1,0.1h0.6c0.1,0,0.1-0.1,0.1-0.1v-1.1
	C8.8,10.4,8.7,10.4,8.7,10.4z M8.5,11.5H8.2v-0.8h0.3V11.5z M7.4,12.1H6.8c-0.1,0-0.1,0.1-0.1,0.1v1.1c0,0.1,0.1,0.1,0.1,0.1h0.6
	c0.1,0,0.1-0.1,0.1-0.1v-1.1C7.6,12.2,7.5,12.1,7.4,12.1z M7.3,13.2H7v-0.8h0.3V13.2z M8.7,12.1H8.1c-0.1,0-0.1,0.1-0.1,0.1v1.1
	c0,0.1,0.1,0.1,0.1,0.1h0.6c0.1,0,0.1-0.1,0.1-0.1v-1.1C8.8,12.2,8.7,12.1,8.7,12.1z M8.5,13.2H8.2v-0.8h0.3V13.2z M12.4,10.4h-0.6
	c-0.1,0-0.1,0.1-0.1,0.1v1.1c0,0.1,0.1,0.1,0.1,0.1h0.6c0.1,0,0.1-0.1,0.1-0.1v-1.1C12.6,10.4,12.5,10.4,12.4,10.4z M12.3,11.5H12
	v-0.8h0.3V11.5z M13.7,10.4h-0.6c-0.1,0-0.1,0.1-0.1,0.1v1.1c0,0.1,0.1,0.1,0.1,0.1h0.6c0.1,0,0.1-0.1,0.1-0.1v-1.1
	C13.8,10.4,13.8,10.4,13.7,10.4z M13.5,11.5h-0.3v-0.8h0.3V11.5z M12.4,12.1h-0.6c-0.1,0-0.1,0.1-0.1,0.1v1.1c0,0.1,0.1,0.1,0.1,0.1
	h0.6c0.1,0,0.1-0.1,0.1-0.1v-1.1C12.6,12.2,12.5,12.1,12.4,12.1z M12.3,13.2H12v-0.8h0.3V13.2z M13.7,12.1h-0.6
	c-0.1,0-0.1,0.1-0.1,0.1v1.1c0,0.1,0.1,0.1,0.1,0.1h0.6c0.1,0,0.1-0.1,0.1-0.1v-1.1C13.8,12.2,13.8,12.1,13.7,12.1z M13.5,13.2h-0.3
	v-0.8h0.3V13.2z M10.3,8.6C9.9,8.6,9.7,9,9.7,9.4c0,0.4,0.2,0.8,0.6,0.8c0.3,0,0.6-0.3,0.6-0.8C10.8,9,10.6,8.6,10.3,8.6z M10.3,10
	c-0.1,0-0.3-0.2-0.3-0.5c0-0.3,0.2-0.5,0.3-0.5c0.1,0,0.3,0.2,0.3,0.5C10.6,9.7,10.4,10,10.3,10z"/>
</svg>
