<?xml version="1.0" encoding="utf-8"?>
<!-- Generator: Adobe Illustrator 25.2.0, SVG Export Plug-In . SVG Version: 6.00 Build 0)  -->
<svg version="1.1" id="Capa_1" xmlns="http://www.w3.org/2000/svg" xmlns:xlink="http://www.w3.org/1999/xlink" x="0px" y="0px"
	 viewBox="0 0 24 24" style="enable-background:new 0 0 24 24;" xml:space="preserve">
<style type="text/css">
	.st0{fill:#FFFFFF;stroke:#FFFFFF;stroke-miterlimit:10;}
	.st1{display:none;}
	.st2{display:inline;fill:#9A7D22;}
	.st3{fill:#EFB875;}
	.st4{fill:#FFFFFF;}
</style>
<circle class="st0" cx="10.4" cy="10.2" r="9"/>
<g id="Capa_1_1_" class="st1">
	<circle class="st2" cx="12" cy="10.4" r="10"/>
</g>
<g id="Capa_3">
	<path class="st3" d="M10.4,0L10.4,0C4.7-0.1,0.1,4.4,0,10.1v0.1c0,3.1,1.3,5.5,3.6,7.8c3,2.9,5.8,5.6,5.8,5.6
		c0.3,0.3,0.7,0.5,1.2,0.4v-0.4l0,0V24c0.4-0.1,0.7-0.2,1-0.5c0,0,2.7-2.7,5.7-5.7c2.3-2.2,3.5-4.5,3.5-7.7C20.8,4.5,16.2,0,10.4,0
		C10.5,0,10.4,0,10.4,0z M10.4,19c-4.9,0-9-4-9-8.9s4-9,8.9-9s9,4,9,8.9l0,0C19.3,15,15.3,19,10.4,19L10.4,19z"/>
</g>
<path class="st3" d="M7.7,6.1L7.7,6.1c-0.2,0-0.3,0-0.3,0.1v0.4c0,0.1,0.1,0.1,0.2,0.1h0.1c0.1,0,0.2-0.1,0.2-0.1V6.2
	C7.9,6.1,7.8,6.1,7.7,6.1z"/>
<path class="st3" d="M8.4,6.1L8.4,6.1c-0.2,0-0.3,0.1-0.3,0.1v0.4c0,0.1,0.1,0.1,0.2,0.1h0.1c0.1,0,0.2-0.1,0.2-0.1V6.2
	C8.6,6.1,8.6,6.1,8.4,6.1z"/>
<path class="st3" d="M7.7,7L7.7,7C7.5,7,7.4,7.1,7.4,7.2v0.4c0,0.1,0.1,0.1,0.2,0.1h0.1c0.1,0,0.2-0.1,0.2-0.1V7.2
	C7.9,7.1,7.8,7,7.7,7z"/>
<path class="st3" d="M8.4,7L8.4,7C8.2,7,8.1,7.1,8.1,7.1v0.4c0,0.1,0.1,0.1,0.2,0.1h0.1c0.1,0,0.2-0.1,0.2-0.1V7.2
	C8.6,7.1,8.5,7,8.4,7z"/>
<path class="st3" d="M17.1,13.6h-1.8v-1.4c0.4-0.1,0.7-0.3,0.8-0.6c0.7,0,1.2-0.6,1.1-1.3c0-0.3-0.2-0.6-0.4-0.8c0-0.1,0-0.1,0-0.2
	c0-0.6-0.6-1.2-1.2-1.2c-0.2,0-0.5,0.1-0.6,0.2c-0.6-0.4-1.3-0.2-1.7,0.4C13,9,13,9.3,13,9.6c-0.5,0.5-0.5,1.2,0,1.8
	c0.2,0.2,0.5,0.4,0.7,0.4c0.2,0.3,0.5,0.6,0.7,0.6v1.4h-2.2V7.2c0-0.5-0.4-0.8-0.8-0.8H9.5H9.4V5.9c0-0.5-0.4-0.8-0.8-0.8H7.2
	C6.7,5,6.4,5.4,6.4,5.9v2.4H4.7c-0.5,0-0.8,0.4-0.8,0.8v4.4H3.2c-0.2,0-0.3,0.1-0.3,0.3s0.1,0.3,0.3,0.3l0,0h14
	c0.2,0,0.3-0.1,0.3-0.3C17.4,13.7,17.2,13.6,17.1,13.6L17.1,13.6L17.1,13.6z M14.3,11.3c0-0.1-0.1-0.2-0.3-0.2l0,0l0,0
	c-0.4,0-0.7-0.3-0.7-0.7c0-0.2,0.1-0.5,0.3-0.6c0.1-0.1,0.1-0.2,0.1-0.3c-0.1-0.4,0.1-0.7,0.5-0.9c0.2-0.1,0.5,0,0.7,0.1
	c0.1,0.1,0.3,0.1,0.4,0c0.3-0.3,0.7-0.2,1,0.1c0.1,0.1,0.1,0.4,0,0.6c0,0.1,0,0.2,0.1,0.3c0.4,0.2,0.5,0.6,0.2,1
	c-0.1,0.2-0.4,0.4-0.7,0.4l0,0c-0.1,0-0.2,0.1-0.3,0.2c-0.1,0.2-0.2,0.4-0.5,0.5v-0.4c0-0.1-0.1-0.2-0.2-0.2h-0.2
	c-0.1,0-0.2,0.1-0.2,0.2v0.4C14.5,11.5,14.3,11.4,14.3,11.3z M11.8,13.6H4.3V9.2c0-0.2,0.1-0.3,0.3-0.3h1.7v2.3
	c0,0.2,0.1,0.3,0.3,0.3s0.3-0.1,0.3-0.3V5.9c0-0.2,0.1-0.3,0.3-0.3h1.6c0.2,0,0.3,0.1,0.3,0.3v3.5c0,0.2,0.1,0.3,0.3,0.3
	c0.2,0,0.3-0.1,0.3-0.3V6.8h0.1h1.9c0.2,0,0.3,0.1,0.3,0.3l0,0L11.8,13.6z"/>
<path class="st3" d="M10.4,7.2L10.4,7.2c-0.2,0-0.3,0.1-0.3,0.1v0.4c0,0.1,0.1,0.1,0.2,0.1h0.1c0.1,0,0.1,0,0.2-0.1l0,0V7.4l0,0
	C10.5,7.3,10.5,7.2,10.4,7.2z"/>
<path class="st3" d="M11.2,7.2L11.2,7.2c-0.2,0-0.3,0.1-0.3,0.1v0.4c0,0.1,0.1,0.1,0.2,0.1h0.1c0.1,0,0.2-0.1,0.2-0.1V7.4
	C11.3,7.3,11.3,7.2,11.2,7.2z"/>
<path class="st3" d="M10.5,8.2c0,0-0.1-0.1-0.2-0.1l0,0c-0.1,0-0.2,0.1-0.2,0.1v0.5v0.1c0,0,0.1,0.1,0.2,0.1h0.1
	c0.1,0,0.2-0.1,0.2-0.1L10.5,8.2C10.6,8.3,10.6,8.2,10.5,8.2z"/>
<path class="st3" d="M11.2,8.2L11.2,8.2c-0.2,0-0.3,0.1-0.3,0.1v0.4c0,0.1,0.1,0.1,0.2,0.1h0.1c0.1,0,0.2-0.1,0.2-0.1V8.3
	C11.3,8.2,11.3,8.2,11.2,8.2z"/>
<path class="st3" d="M5,9.3L5,9.3c-0.2,0-0.3,0.1-0.3,0.1v0.4c0,0.1,0.1,0.1,0.2,0.1H5c0.1,0,0.2-0.1,0.2-0.1L5,9.3
	C5.2,9.3,5.1,9.3,5,9.3z"/>
<path class="st3" d="M5.8,9.3L5.8,9.3c-0.2,0-0.3,0-0.3,0.1v0.4c0,0.1,0.1,0.1,0.2,0.1h0.1C5.9,9.9,6,9.8,6,9.8V9.4
	C6,9.3,5.9,9.3,5.8,9.3z"/>
<path class="st3" d="M5,10.2L5,10.2c-0.2,0-0.3,0.1-0.3,0.1v0.4c0,0.1,0.1,0.1,0.2,0.1H5c0.1,0,0.2-0.1,0.2-0.1v-0.3
	C5.2,10.3,5.1,10.2,5,10.2z"/>
<path class="st3" d="M5.8,10.2L5.8,10.2c-0.2,0-0.3,0.1-0.3,0.1v0.4c0,0.1,0.1,0.1,0.2,0.1h0.1c0.1,0,0.2-0.1,0.2-0.1v-0.3
	C6,10.3,5.9,10.2,5.8,10.2z"/>
<rect x="8.2" y="12.2" class="st4" width="4.2" height="3.2"/>
<path class="st3" d="M12.5,14.6l-1.3-1.3c-0.2,0.3-0.4,0.5-0.7,0.6l1.3,1.3c0.2,0.2,0.5,0.2,0.7,0C12.7,15.1,12.7,14.8,12.5,14.6
	L12.5,14.6z"/>
<path class="st3" d="M11.2,12.2c0-0.9-0.7-1.8-1.8-1.8c-0.9,0-1.8,0.7-1.8,1.8c0,0.9,0.7,1.8,1.8,1.8C10.4,13.9,11.2,13.1,11.2,12.2
	L11.2,12.2z M9.4,13.5c-0.7,0-1.3-0.6-1.3-1.3s0.6-1.3,1.3-1.3c0.7,0,1.3,0.6,1.3,1.3C10.8,12.8,10.1,13.5,9.4,13.5L9.4,13.5
	L9.4,13.5z"/>
<path class="st3" d="M9.4,11.3c-0.5,0-0.8,0.4-0.8,0.8c0,0.1,0.1,0.2,0.1,0.2c0.1,0,0.2-0.1,0.2-0.1l0,0c0-0.4,0.3-0.6,0.6-0.6
	c0.1,0,0.1-0.1,0.1-0.2C9.5,11.4,9.4,11.3,9.4,11.3z"/>
</svg>
