<?xml version="1.0" encoding="utf-8"?>
<!-- Generator: Adobe Illustrator 25.2.0, SVG Export Plug-In . SVG Version: 6.00 Build 0)  -->
<svg version="1.1" id="Capa_1" xmlns="http://www.w3.org/2000/svg" xmlns:xlink="http://www.w3.org/1999/xlink" x="0px" y="0px"
	 viewBox="0 0 24 24" style="enable-background:new 0 0 24 24;" xml:space="preserve">
<style type="text/css">
	.st0{fill:#FFFFFF;stroke:#FFFFFF;stroke-miterlimit:10;}
	.st1{display:none;}
	.st2{display:inline;fill:#9A7D22;}
	.st3{fill:#9B3844;}
</style>
<circle class="st0" cx="10.4" cy="10.2" r="9"/>
<g id="Capa_1_1_" class="st1">
	<circle class="st2" cx="12" cy="10.4" r="10"/>
</g>
<g id="Capa_3">
	<path class="st3" d="M10.4,0L10.4,0C4.7-0.1,0.1,4.4,0,10.1c0,0,0,0.1,0,0.1c0,3.1,1.3,5.5,3.6,7.8c3,2.9,5.8,5.6,5.8,5.6
		c0.3,0.3,0.7,0.5,1.2,0.4v-0.4l0,0V24c0.4-0.1,0.7-0.2,1-0.5c0,0,2.7-2.7,5.7-5.7c2.3-2.2,3.5-4.5,3.5-7.7C20.8,4.5,16.2,0,10.4,0
		C10.5,0,10.4,0,10.4,0z M10.4,19c-4.9,0-9-4-9-8.9c0-4.9,4-9,8.9-9c4.9,0,9,4,9,8.9c0,0,0,0,0,0C19.3,15,15.3,19,10.4,19L10.4,19z"
		/>
</g>
<path class="st3" d="M13.9,10.6V7.8c0-0.1,0-0.2-0.1-0.2l-3.3-2.3c-0.1-0.1-0.2-0.1-0.3,0L6.9,7.6c0,0-0.1,0.1-0.1,0.2v2.8
	c0.2,0,0.3-0.1,0.4-0.1V7.8l3.1-2.2l3.1,2.2v2.7C13.6,10.5,13.7,10.5,13.9,10.6z"/>
<path class="st3" d="M6.4,7.3l3.9-2.8l3.9,2.8c0.1,0.1,0.3,0,0.3-0.1s0-0.2-0.1-0.2l-4.1-2.9C10.2,4,10.1,4,10,4.1L8.2,5.5V4.3
	c0-0.2-0.1-0.2-0.3-0.2c-0.2,0,0,0.1,0,0.2v1.5L6.1,7C6,7.1,6,7.2,6.1,7.3C6.2,7.3,6.3,7.4,6.4,7.3L6.4,7.3z"/>
<path class="st3" d="M11.9,10.9V8.6c0-0.1-0.1-0.2-0.2-0.2H9.2C9.1,8.4,9,8.5,9,8.6v2.4l0,0c0.1-0.1,0.3-0.2,0.3-0.2V8.7h2.1v2
	C11.6,10.7,11.7,10.8,11.9,10.9z"/>
<path class="st3" d="M4.7,11.3c0.1-0.1,0.2-0.1,0.3-0.1c0.2,0,0.3,0,0.5,0.2l0.1,0.1c0.3,0.3,0.9,0.3,1.3,0c0.2-0.2,0.5-0.2,0.8-0.2
	s0.5,0.1,0.8,0.2c0.2,0.2,0.4,0.2,0.6,0.2l0,0c0.3,0,0.4-0.1,0.7-0.2c0.4-0.3,1-0.3,1.5,0c0.3,0.3,0.9,0.3,1.3,0
	c0.4-0.3,1-0.3,1.5,0c0.2,0.2,0.4,0.2,0.7,0.2c0.2,0,0.4-0.1,0.6-0.2h-0.1l0,0c0.2-0.1,0.3-0.2,0.5-0.2c0.1,0,0.3,0.1,0.3,0.1
	c0.1,0.1,0.3,0,0.3-0.1c0.1-0.1,0-0.2-0.1-0.3c-0.3-0.2-0.5-0.2-0.7-0.2c-0.3,0-0.6,0.1-0.8,0.2l0,0h-0.1c-0.1,0.1-0.2,0.1-0.3,0.1
	c-0.2,0-0.3-0.1-0.4-0.2c-0.6-0.4-1.4-0.4-2,0c-0.3,0.2-0.5,0.2-0.8,0s-0.6-0.3-1-0.3c-0.3,0-0.7,0.1-1,0.3
	c-0.1,0.1-0.3,0.2-0.4,0.2l0,0c-0.2,0-0.3-0.1-0.3-0.2c-0.3-0.2-0.7-0.3-1-0.3s-0.7,0.1-1,0.3s-0.5,0.2-0.8,0H5.6
	c-0.1-0.1-0.3-0.2-0.6-0.2c-0.2,0-0.3,0.1-0.5,0.2c-0.1,0.1-0.2,0.2-0.1,0.3C4.4,11.3,4.6,11.3,4.7,11.3L4.7,11.3z"/>
<path class="st3" d="M16.2,12.4c-0.2-0.1-0.3-0.1-0.5-0.2c-0.3,0-0.6,0.1-0.8,0.2l0,0h-0.1c-0.1,0.1-0.2,0.1-0.3,0.1
	c-0.2,0-0.3-0.1-0.4-0.2c-0.6-0.4-1.4-0.4-2,0c-0.3,0.2-0.5,0.2-0.8,0s-0.6-0.3-1-0.3c-0.3,0-0.7,0.1-1,0.3
	c-0.1,0.1-0.3,0.2-0.4,0.2l0,0c-0.2,0-0.3-0.1-0.4-0.2c-0.3-0.2-0.7-0.3-1-0.3s-0.7,0.1-1,0.3s-0.5,0.2-0.8,0l0.1,0.1
	c-0.2-0.2-0.5-0.2-0.8-0.2c-0.2,0-0.3,0.1-0.5,0.2c-0.1,0.1-0.2,0.2-0.1,0.2s0.2,0.2,0.3,0.1l0,0C4.8,12.6,5,12.6,5,12.6
	c0.2,0,0.3,0,0.5,0.2l0.1,0.1c0.3,0.3,0.9,0.3,1.3,0c0.2-0.2,0.5-0.2,0.8-0.2s0.5,0.1,0.8,0.2c0.2,0.2,0.4,0.2,0.6,0.2l0,0
	c0.3,0,0.4-0.1,0.7-0.2c0.4-0.3,1-0.3,1.5,0c0.3,0.3,0.9,0.3,1.3,0c0.4-0.3,1-0.3,1.5,0c0.2,0.2,0.4,0.2,0.7,0.2
	c0.2,0,0.4-0.1,0.6-0.2h-0.1l0,0c0.2-0.1,0.3-0.2,0.5-0.2c0.1,0,0.3,0.1,0.3,0.1c0.1,0.1,0.3,0,0.3-0.1
	C16.4,12.5,16.3,12.4,16.2,12.4L16.2,12.4z"/>
<path class="st3" d="M16.2,13.8c-0.2-0.1-0.3-0.1-0.5-0.2c-0.3,0-0.6,0.1-0.8,0.2l0,0h-0.1C14.7,14,14.6,14,14.5,14
	c-0.2,0-0.3-0.1-0.4-0.2c-0.6-0.4-1.4-0.4-2,0c-0.3,0.2-0.5,0.2-0.8,0s-0.6-0.3-1-0.3c-0.3,0-0.7,0.1-1,0.3C9.2,13.9,9,14,8.9,14
	l0,0c-0.2,0-0.3-0.1-0.3-0.2c-0.3-0.2-0.7-0.3-1-0.3s-0.7,0.1-1,0.3s-0.5,0.2-0.8,0l-0.1-0.1c-0.2-0.2-0.5-0.2-0.8-0.2
	c-0.2,0-0.3,0.1-0.5,0.2c-0.1,0.1-0.2,0.2-0.1,0.4c0.1,0.1,0.2,0.2,0.3,0.1c0.2-0.1,0.3-0.1,0.4-0.1s0.3,0,0.5,0.2l0.1,0.1
	c0.3,0.3,0.9,0.3,1.3,0c0.2-0.2,0.5-0.2,0.8-0.2s0.5,0.1,0.8,0.2c0.2,0.2,0.4,0.2,0.6,0.2l0,0c0.3,0,0.4-0.1,0.7-0.2
	c0.4-0.3,1-0.3,1.5,0c0.3,0.3,0.9,0.3,1.3,0c0.4-0.3,1-0.3,1.5,0c0.2,0.2,0.4,0.2,0.7,0.2c0.2,0,0.4-0.1,0.6-0.2h-0.1l0,0
	c0.1-0.3,0.3-0.3,0.4-0.3s0.3,0.1,0.3,0.1c0.1,0.1,0.3,0,0.3-0.1C16.4,13.9,16.3,13.8,16.2,13.8z"/>
</svg>
