<?xml version="1.0" encoding="utf-8"?>
<!-- Generator: Adobe Illustrator 25.2.0, SVG Export Plug-In . SVG Version: 6.00 Build 0)  -->
<svg version="1.1" id="Capa_1" xmlns="http://www.w3.org/2000/svg" xmlns:xlink="http://www.w3.org/1999/xlink" x="0px" y="0px"
	 viewBox="0 0 24 24" style="enable-background:new 0 0 24 24;" xml:space="preserve">
<style type="text/css">
	.st0{fill:#FFFFFF;stroke:#FFFFFF;stroke-miterlimit:10;}
	.st1{fill:#12B5E1;}
</style>
<circle class="st0" cx="12" cy="10.2" r="9"/>
<g id="Capa_3">
	<path class="st1" d="M12,0L12,0C6.3-0.1,1.7,4.4,1.6,10.1c0,0,0,0.1,0,0.1c0,3.1,1.3,5.5,3.6,7.8c3,2.9,5.8,5.6,5.8,5.6
		c0.3,0.3,0.7,0.5,1.2,0.4v-0.4l0,0V24c0.4-0.1,0.7-0.2,1-0.5c0,0,2.7-2.7,5.7-5.7c2.3-2.2,3.5-4.5,3.5-7.7C22.4,4.5,17.8,0,12,0
		C12.1,0,12,0,12,0z M12,19c-4.9,0-9-4-9-8.9c0-4.9,4-9,8.9-9c4.9,0,9,4,9,8.9c0,0,0,0,0,0C20.9,15,16.9,19,12,19L12,19z"/>
</g>
<g>
	<path class="st1" d="M17.2,6.1c-0.1-1.5-1.5-2.8-3.3-2.8c-1.2,0-2.2,0.6-2.8,1.5c-0.9-0.7-2.2-0.5-2.9,0.4C8.1,5.4,8,5.4,8,5.5
		c-0.2,0-0.3,0-0.5,0c-1.8,0-3.2,1.5-3.2,3.2c0,1.1,0.6,2.2,1.6,2.8c0.1,0,0.1,0,0.2,0c0.1,0,0.3-0.1,0.3-0.2c0.1-0.2,0-0.4-0.1-0.5
		c-1.2-0.7-1.6-2.2-0.9-3.4c0.4-0.8,1.3-1.2,2.1-1.2c0,0,0.1,0,0.2,0c0,0.1,0,0.2,0,0.3c0,0.2,0.1,0.4,0.3,0.4
		c0.2,0,0.4-0.1,0.4-0.3c0,0,0,0,0-0.1c0-0.7,0.7-1.3,1.4-1.3c0.4,0,0.8,0.2,1.1,0.5c0.1,0.1,0.2,0.2,0.3,0.1c0.1,0,0.2-0.1,0.3-0.2
		c0.4-1,1.4-1.6,2.4-1.5c1.4,0,2.5,1,2.5,2.2c0,0.1,0,0.1,0,0.2c0,0.2,0.1,0.4,0.4,0.4c0,0,0,0,0,0C18,6.8,19,7.8,19,9
		c0,0.7-0.3,1.3-0.8,1.7c-0.2,0.1-0.2,0.4-0.1,0.5c0.1,0.1,0.2,0.1,0.3,0.1c0.1,0,0.2,0,0.2-0.1c0.7-0.5,1.1-1.4,1.1-2.3
		C19.7,7.5,18.6,6.3,17.2,6.1z"/>
	<path class="st1" d="M7,12.5c-0.2,0-0.4-0.2-0.4-0.4c0-0.1,0-0.2,0.1-0.2l0.5-0.6c0.1-0.2,0.4-0.2,0.5-0.1c0.2,0.1,0.2,0.4,0.1,0.5
		l-0.5,0.6C7.2,12.4,7.1,12.5,7,12.5z"/>
	<path class="st1" d="M10.1,12.5c-0.1,0-0.2,0-0.2-0.1c-0.2-0.1-0.2-0.4-0.1-0.5l0.5-0.6c0.1-0.2,0.4-0.2,0.5-0.1
		c0.2,0.1,0.2,0.4,0.1,0.5l-0.5,0.6C10.4,12.5,10.3,12.5,10.1,12.5z"/>
	<path class="st1" d="M13.3,12.5c-0.1,0-0.2,0-0.2-0.1c-0.2-0.1-0.2-0.4-0.1-0.5l0.5-0.6c0.1-0.2,0.3-0.2,0.5-0.1
		c0.2,0.1,0.2,0.3,0.1,0.5c0,0,0,0,0,0l-0.5,0.6C13.5,12.5,13.4,12.5,13.3,12.5z"/>
	<path class="st1" d="M16.5,12.5c-0.1,0-0.2,0-0.2-0.1c-0.2-0.1-0.2-0.4-0.1-0.5l0.5-0.6c0.1-0.2,0.3-0.2,0.5-0.1
		c0.2,0.1,0.2,0.3,0.1,0.5c0,0,0,0,0,0l-0.5,0.6C16.7,12.5,16.6,12.5,16.5,12.5z"/>
	<path class="st1" d="M8.6,14.8c-0.1,0-0.2,0-0.2-0.1c-0.2-0.1-0.2-0.3-0.1-0.5c0,0,0,0,0,0l0.5-0.6c0.1-0.2,0.3-0.2,0.5-0.1
		c0,0,0,0,0,0c0.2,0.1,0.2,0.4,0.1,0.5l-0.5,0.7C8.8,14.8,8.7,14.8,8.6,14.8z"/>
	<path class="st1" d="M11.7,14.8c-0.1,0-0.2,0-0.2-0.1c-0.2-0.1-0.2-0.3-0.1-0.5c0,0,0,0,0,0l0.5-0.6c0.1-0.2,0.3-0.2,0.5-0.1
		c0,0,0,0,0,0c0.2,0.1,0.2,0.4,0.1,0.5L12,14.7C11.9,14.8,11.8,14.8,11.7,14.8z"/>
	<path class="st1" d="M14.9,14.8c-0.1,0-0.2,0-0.2-0.1c-0.2-0.1-0.2-0.4-0.1-0.5l0.5-0.6c0.1-0.2,0.3-0.2,0.5-0.1
		c0.2,0.1,0.2,0.3,0.1,0.5c0,0,0,0,0,0l-0.5,0.7C15.1,14.8,15,14.8,14.9,14.8z"/>
	<path class="st1" d="M10.1,17.2c-0.2,0-0.4-0.2-0.4-0.4c0-0.1,0-0.2,0.1-0.2l0.5-0.7c0.1-0.2,0.4-0.2,0.5-0.1
		c0.2,0.1,0.2,0.4,0.1,0.5L10.4,17C10.4,17.1,10.3,17.2,10.1,17.2z"/>
	<path class="st1" d="M13.3,17.2c-0.1,0-0.2,0-0.2-0.1c-0.2-0.1-0.2-0.4-0.1-0.5l0.5-0.7c0.1-0.2,0.4-0.2,0.5-0.1
		c0.2,0.1,0.2,0.4,0.1,0.5l0,0L13.6,17C13.5,17.1,13.4,17.2,13.3,17.2z"/>
</g>
</svg>
