<?xml version="1.0" encoding="utf-8"?>
<!-- Generator: Adobe Illustrator 25.2.0, SVG Export Plug-In . SVG Version: 6.00 Build 0)  -->
<svg version="1.1" id="Capa_3" xmlns="http://www.w3.org/2000/svg" xmlns:xlink="http://www.w3.org/1999/xlink" x="0px" y="0px"
	 viewBox="0 0 642.1 291" style="enable-background:new 0 0 642.1 291;" xml:space="preserve">
<style type="text/css">
	.st0{fill:#FFFFFF;}
	.st1{fill-rule:evenodd;clip-rule:evenodd;fill:#FFFFFF;}
</style>
<g>
	<g>
		<g>
			<g>
				<path class="st0" d="M219.7,138.7c-0.8-1.9-1.6-3.8-2.3-5.7c-0.8-1.9-1.6-3.8-2.3-5.7c-0.2-0.4-0.4-1.1-0.7-1.9
					s-0.6-1.7-0.9-2.8c-0.3-1-0.6-2.1-0.9-3.2c0,1.3,0.1,2.5,0.1,3.7c0,1.1,0,2.2,0,3.3c0,0.5,0,1,0,1.6c0,0.5,0,1.1,0,1.6
					s0,1,0,1.6c0,0.5,0,1,0,1.6c0,0.6,0,1.2-0.1,1.8c0,0.6-0.1,1-0.1,1.3c0.4,0,0.9-0.1,1.4-0.1c0.6,0,1,0,1.2,0v2.7h-7.9v-2.3
					c0.5,0,1-0.1,1.3-0.2c0.4-0.1,0.6-0.4,0.8-0.8c0.2-0.4,0.3-1.1,0.3-2l0.2-13.3c0-0.6,0-1.2,0.1-1.8c0-0.6,0-1,0.1-1.3
					c-0.4,0-0.8,0-1.4,0.1c-0.6,0-1,0-1.2,0.1v-2.7h7.7l5.2,13.4c0.2,0.5,0.4,1.2,0.7,1.9s0.5,1.4,0.7,2c0.2,0.7,0.4,1.2,0.5,1.6
					l0,0c0.3-0.8,0.6-1.6,0.8-2.4c0.3-0.8,0.5-1.5,0.8-2.2c0.9-2.4,1.8-4.8,2.7-7.2c0.9-2.4,1.8-4.8,2.7-7.2h8v2.3
					c-0.5,0-1,0.1-1.4,0.2s-0.7,0.4-0.9,0.8s-0.3,1.1-0.3,2l0.5,13.3c0,0.6,0,1.2,0,1.8s-0.1,1-0.1,1.3c0.4,0,0.9-0.1,1.4-0.1
					c0.6,0,1,0,1.2,0v2.7h-9.7v-2.3c0.5,0,1-0.1,1.4-0.2c0.4-0.1,0.7-0.4,0.9-0.8c0.2-0.4,0.3-1.1,0.2-2l-0.3-7.4
					c0-0.3,0-0.8-0.1-1.4c0-0.7-0.1-1.4-0.1-2.3c0-0.8-0.1-1.6-0.1-2.3c-0.1,0.2-0.1,0.3-0.2,0.5c-0.1,0.2-0.1,0.3-0.2,0.5
					l-6.8,18.1h-2.9L219.7,138.7L219.7,138.7z"/>
				<path class="st0" d="M240.3,136.1c0.6,0,1.1-0.1,1.4-0.4c0.3-0.3,0.5-0.6,0.5-1.1c0.1-0.5,0.1-1,0.1-1.6v-5.8c0-0.4,0-0.9,0-1.4
					s0.1-1.1,0.1-1.6c-0.4,0-0.8,0-1.3,0.1c-0.5,0-0.9,0-1.1,0.1v-2.7c1.1,0,2-0.1,2.7-0.2s1.3-0.3,1.8-0.4c0.4-0.2,0.7-0.3,0.9-0.5
					h1.9v12.1c0,0.3,0,0.8,0,1.4c0,0.6-0.1,1.2-0.1,1.7c0.4,0,0.8-0.1,1.2-0.1c0.5,0,0.8,0,1,0v2.6h-9.1L240.3,136.1L240.3,136.1z
					 M244.6,117.9c-0.8,0-1.4-0.3-1.9-0.8c-0.5-0.6-0.8-1.2-0.8-2s0.3-1.5,0.8-2c0.5-0.6,1.2-0.8,1.9-0.8s1.4,0.3,1.9,0.8
					c0.5,0.6,0.7,1.2,0.7,2s-0.2,1.5-0.7,2C246.1,117.6,245.4,117.9,244.6,117.9z"/>
				<path class="st0" d="M251.4,138.4v-2.3c0.6,0,1.1-0.1,1.4-0.4c0.3-0.3,0.5-0.6,0.5-1.1c0.1-0.5,0.1-1,0.1-1.6v-5.8
					c0-0.4,0-0.9,0-1.4s0.1-1,0.1-1.5c-0.4,0-0.8,0-1.3,0.1c-0.5,0-0.9,0-1.1,0.1v-2.8c1.1,0,2-0.1,2.7-0.2s1.3-0.3,1.8-0.4
					c0.4-0.2,0.7-0.3,0.9-0.5h1.7c0,0.3,0.1,0.5,0.1,0.7c0,0.1,0,0.3,0,0.4s0.1,0.4,0.1,0.7c0.5-0.4,1-0.7,1.6-1s1.2-0.5,1.8-0.7
					s1.1-0.3,1.6-0.3c2.1,0,3.6,0.6,4.5,1.8s1.3,3.2,1.3,5.9v4.7c0,0.3,0,0.8,0,1.4c0,0.6-0.1,1.2-0.1,1.7c0.4,0,0.8-0.1,1.2-0.1
					s0.8,0,1,0v2.6h-9.1v-2.3c0.6,0,1.1-0.1,1.4-0.4c0.3-0.3,0.5-0.6,0.6-1.1s0.1-1,0.1-1.6v-4.9c0-1.5-0.2-2.6-0.6-3.4
					c-0.4-0.7-1.2-1.1-2.2-1.1c-0.6,0-1.2,0.1-1.7,0.4c-0.6,0.3-1,0.6-1.4,0.9c0,0.3,0,0.7,0,1s0,0.7,0,1v5.9c0,0.3,0,0.8,0,1.4
					c0,0.6-0.1,1.2-0.1,1.7c0.4,0,0.8-0.1,1.2-0.1c0.5,0,0.8,0,1,0v2.6H251.4z"/>
				<path class="st0" d="M273.4,136.1c0.6,0,1.1-0.1,1.4-0.4c0.3-0.3,0.5-0.6,0.5-1.1c0.1-0.5,0.1-1,0.1-1.6v-5.8c0-0.4,0-0.9,0-1.4
					s0.1-1.1,0.1-1.6c-0.4,0-0.8,0-1.3,0.1c-0.5,0-0.9,0-1.1,0.1v-2.7c1.1,0,2-0.1,2.7-0.2c0.7-0.1,1.3-0.3,1.8-0.4
					c0.4-0.2,0.7-0.3,0.9-0.5h1.9v12.1c0,0.3,0,0.8,0,1.4c0,0.6-0.1,1.2-0.1,1.7c0.4,0,0.8-0.1,1.2-0.1c0.5,0,0.8,0,1,0v2.6h-9.1
					L273.4,136.1L273.4,136.1z M277.8,117.9c-0.8,0-1.4-0.3-1.9-0.8c-0.5-0.6-0.8-1.2-0.8-2s0.3-1.5,0.8-2c0.5-0.6,1.2-0.8,1.9-0.8
					c0.7,0,1.4,0.3,1.9,0.8c0.5,0.6,0.7,1.2,0.7,2s-0.2,1.5-0.7,2C279.2,117.6,278.6,117.9,277.8,117.9z"/>
				<path class="st0" d="M292.5,138.9c-1,0-2-0.1-2.9-0.4c-1-0.3-1.7-0.6-2.2-1l0.1,1h-2.7l-0.1-6h2.3c0.1,0.7,0.3,1.3,0.8,1.9
					c0.5,0.6,1.1,1,1.9,1.4c0.8,0.3,1.7,0.5,2.6,0.5c0.4,0,0.8-0.1,1.1-0.2c0.4-0.1,0.7-0.3,0.9-0.6c0.2-0.3,0.4-0.6,0.4-1
					c0-0.4-0.2-0.8-0.5-1.1s-0.8-0.5-1.4-0.8s-1.3-0.5-2.2-0.9c-0.7-0.3-1.4-0.6-2.2-0.9c-0.7-0.3-1.4-0.7-2-1.1
					c-0.6-0.4-1.1-1-1.5-1.6c-0.4-0.6-0.6-1.4-0.6-2.3c0-0.7,0.1-1.3,0.4-2c0.3-0.7,0.6-1.3,1.2-1.8c0.5-0.5,1.2-1,2-1.3
					c0.8-0.3,1.8-0.5,2.9-0.5c0.6,0,1.3,0.1,2.1,0.3c0.8,0.2,1.5,0.5,2,0.9v-1h2.6v6.1h-2.3c-0.1-0.8-0.4-1.5-0.9-2.1
					c-0.4-0.6-1-1-1.6-1.3c-0.7-0.3-1.4-0.5-2.3-0.5c-0.6,0-1.1,0.1-1.6,0.4s-0.7,0.8-0.7,1.4c0,0.5,0.2,1,0.6,1.3s0.9,0.6,1.5,0.8
					c0.6,0.2,1.4,0.5,2.2,0.7c1.2,0.4,2.2,0.9,3.1,1.4s1.6,1.2,2.2,1.9c0.5,0.8,0.8,1.7,0.8,2.8c0,1.2-0.3,2.2-0.9,3
					c-0.6,0.8-1.4,1.4-2.3,1.8C294.6,138.7,293.6,138.9,292.5,138.9z"/>
				<path class="st0" d="M307.8,138.9c-0.7,0-1.4-0.1-2-0.2c-0.6-0.2-1.2-0.5-1.7-0.9c-0.5-0.5-0.9-1.1-1.2-2
					c-0.3-0.9-0.5-2-0.5-3.5l0.1-8.4h-2.4V121c0.7,0,1.4-0.3,2.1-0.7c0.7-0.5,1.2-1.1,1.7-1.8c0.5-0.7,0.8-1.5,1-2.3h2.6v4.9h4.4
					v2.7l-4.4,0.1v8.5c0,0.5,0.1,1.1,0.2,1.6s0.3,0.9,0.6,1.3c0.3,0.3,0.7,0.5,1.3,0.5c0.3,0,0.8-0.1,1.3-0.3
					c0.6-0.2,1.2-0.8,1.8-1.7l1.7,1.6c-0.6,0.9-1.3,1.6-1.9,2.2c-0.7,0.5-1.3,0.9-1.9,1.1c-0.6,0.2-1.2,0.4-1.6,0.4
					C308.3,138.9,307.9,138.9,307.8,138.9z"/>
				<path class="st0" d="M323.5,138.9c-1.7,0-3.2-0.4-4.5-1.1c-1.3-0.8-2.3-1.8-3-3.2s-1.1-3-1.1-4.9c0-1.6,0.4-3.1,1.1-4.6
					c0.7-1.4,1.7-2.6,3-3.4c1.3-0.9,2.8-1.3,4.6-1.3c1,0,1.9,0.1,2.8,0.4s1.8,0.7,2.5,1.4c0.8,0.6,1.4,1.5,1.8,2.6
					c0.5,1.1,0.7,2.5,0.6,4.2l-11.4,0.2c0,1.3,0.2,2.4,0.5,3.4s0.8,1.8,1.5,2.4c0.7,0.6,1.7,0.9,2.9,0.9c0.5,0,1-0.1,1.6-0.2
					c0.6-0.2,1.2-0.4,1.8-0.8c0.6-0.4,1.2-0.9,1.7-1.5l1.6,1.5c-0.8,1.2-1.7,2.1-2.7,2.7c-1,0.6-1.9,1-2.8,1.2
					C325.2,138.8,324.3,138.9,323.5,138.9z M320.3,126.8h6.4c0-1-0.2-1.7-0.4-2.3c-0.2-0.6-0.6-1-1-1.2c-0.4-0.3-0.9-0.4-1.5-0.4
					c-1,0-1.8,0.4-2.4,1.1C320.8,124.7,320.4,125.6,320.3,126.8z"/>
				<path class="st0" d="M333.4,136.1c0.6,0,1.1-0.1,1.4-0.4c0.3-0.3,0.5-0.6,0.5-1.1c0.1-0.5,0.1-1,0.1-1.6v-5.8c0-0.4,0-0.9,0-1.4
					s0.1-1,0.1-1.5c-0.4,0-0.8,0-1.3,0.1c-0.5,0-0.9,0-1.1,0.1v-2.8h1.4c0.9,0,1.7-0.1,2.5-0.3c0.8-0.2,1.2-0.5,1.5-0.7h1.7
					c0,0.2,0.1,0.7,0.1,1.3c0,0.6,0,1.2,0,1.7c0.6-0.8,1.2-1.4,1.8-1.8c0.6-0.5,1.1-0.8,1.7-1c0.5-0.2,1.1-0.3,1.7-0.3
					c0.8,0,1.5,0.2,2.1,0.7s0.9,1.2,0.9,2.2c0,0.3-0.1,0.7-0.2,1.1s-0.4,0.7-0.8,1c-0.3,0.3-0.8,0.4-1.4,0.4c-0.5,0-0.9-0.1-1.4-0.4
					s-0.8-0.8-0.8-1.6c-0.5,0-0.9,0.2-1.4,0.6s-0.9,0.8-1.2,1.4c-0.4,0.5-0.6,1-0.7,1.4v5.7c0,0.3,0,0.8,0,1.4
					c0,0.6-0.1,1.2-0.1,1.7c0.4,0,0.8-0.1,1.2-0.1c0.5,0,0.8,0,1,0v2.6h-9.1v-2.6L333.4,136.1L333.4,136.1z"/>
				<path class="st0" d="M350.3,136.1c0.6,0,1.1-0.1,1.4-0.4c0.3-0.3,0.5-0.6,0.5-1.1c0.1-0.5,0.1-1,0.1-1.6v-5.8c0-0.4,0-0.9,0-1.4
					s0.1-1.1,0.1-1.6c-0.4,0-0.8,0-1.3,0.1c-0.5,0-0.9,0-1.1,0.1v-2.7c1.1,0,2-0.1,2.7-0.2s1.3-0.3,1.8-0.4c0.4-0.2,0.7-0.3,0.9-0.5
					h1.9v12.1c0,0.3,0,0.8,0,1.4c0,0.6-0.1,1.2-0.1,1.7c0.4,0,0.8-0.1,1.2-0.1c0.5,0,0.8,0,1,0v2.6h-9.1V136.1z M354.7,117.9
					c-0.8,0-1.4-0.3-1.9-0.8c-0.5-0.6-0.8-1.2-0.8-2s0.3-1.5,0.8-2c0.5-0.6,1.2-0.8,1.9-0.8c0.7,0,1.4,0.3,1.9,0.8
					c0.5,0.6,0.7,1.2,0.7,2s-0.2,1.5-0.7,2C356.1,117.6,355.5,117.9,354.7,117.9z"/>
				<path class="st0" d="M369.5,138.9c-1.7,0-3.2-0.4-4.5-1.1s-2.4-1.7-3.2-3.1c-0.8-1.4-1.2-2.9-1.2-4.7c0-1.9,0.4-3.6,1.2-5.1
					c0.8-1.4,1.9-2.6,3.2-3.4c1.3-0.8,2.8-1.2,4.4-1.2c1.7,0,3.2,0.4,4.5,1.1s2.4,1.7,3.1,3.1s1.1,2.9,1.1,4.8
					c0,1.9-0.4,3.6-1.1,5.1c-0.7,1.4-1.8,2.5-3.1,3.3C372.7,138.5,371.2,138.9,369.5,138.9z M369.7,136.5c0.9,0,1.6-0.3,2.1-1
					c0.5-0.6,0.8-1.4,1-2.4c0.2-0.9,0.3-1.9,0.3-2.9c0-0.9-0.1-1.7-0.2-2.6s-0.3-1.7-0.6-2.4c-0.3-0.7-0.7-1.3-1.1-1.7
					c-0.5-0.4-1.1-0.6-1.8-0.6c-0.9,0-1.6,0.3-2.1,1c-0.5,0.6-0.9,1.4-1.1,2.3s-0.3,1.9-0.3,2.9c0,1.2,0.1,2.3,0.4,3.5
					c0.3,1.1,0.7,2.1,1.2,2.8C368,136.1,368.7,136.5,369.7,136.5z"/>
				<path class="st0" d="M396.5,138.9c-1.4,0-2.6-0.4-3.7-1.1s-1.9-1.7-2.5-3.1c-0.6-1.3-0.9-2.9-0.9-4.7c0-1.9,0.4-3.5,1.1-5
					s1.7-2.6,3-3.4s2.8-1.3,4.5-1.3c0.6,0,1.2,0.1,1.7,0.2s1,0.3,1.4,0.4v-2.3c0-0.3,0-0.8,0-1.4s0.1-1.2,0.1-1.7
					c-0.4,0-0.8,0-1.3,0.1c-0.5,0-0.9,0-1.1,0V113c1.1,0,2-0.1,2.7-0.2s1.3-0.3,1.7-0.4c0.4-0.2,0.7-0.3,0.9-0.5h1.9v20.6
					c0,0.3,0,0.8,0,1.4c0,0.6-0.1,1.2-0.1,1.7c0.4,0,0.8-0.1,1.2-0.1c0.4,0,0.8,0,1,0v2.6h-6.6c0-0.3-0.1-0.5-0.1-0.8
					s-0.1-0.5-0.1-0.8c-0.8,0.8-1.6,1.3-2.4,1.7C398.2,138.8,397.4,138.9,396.5,138.9z M398.3,135.8c0.6,0,1.2-0.2,1.7-0.5
					s0.9-0.7,1.2-1.2c0-0.3,0-0.7,0-1s0-0.7,0-1v-8.4c-0.2-0.2-0.6-0.3-1-0.5c-0.5-0.1-0.9-0.2-1.4-0.2c-1.1,0-1.9,0.4-2.5,1
					s-1,1.5-1.3,2.5c-0.2,1-0.4,2-0.4,3.1c0,1,0.1,1.9,0.4,2.9c0.2,0.9,0.6,1.7,1.2,2.3C396.7,135.5,397.4,135.8,398.3,135.8z"/>
				<path class="st0" d="M418.1,138.9c-1.7,0-3.2-0.4-4.5-1.1c-1.3-0.8-2.3-1.8-3-3.2s-1.1-3-1.1-4.9c0-1.6,0.4-3.1,1.1-4.6
					c0.7-1.4,1.7-2.6,3-3.4c1.3-0.9,2.8-1.3,4.6-1.3c1,0,1.9,0.1,2.8,0.4s1.8,0.7,2.5,1.4c0.8,0.6,1.4,1.5,1.8,2.6
					c0.5,1.1,0.7,2.5,0.6,4.2l-11.4,0.2c0,1.3,0.2,2.4,0.5,3.4s0.8,1.8,1.5,2.4c0.7,0.6,1.7,0.9,2.9,0.9c0.5,0,1-0.1,1.6-0.2
					c0.6-0.2,1.2-0.4,1.8-0.8c0.6-0.4,1.2-0.9,1.7-1.5l1.6,1.5c-0.8,1.2-1.7,2.1-2.7,2.7c-1,0.6-1.9,1-2.8,1.2
					C419.7,138.8,418.9,138.9,418.1,138.9z M414.8,126.8h6.4c0-1-0.2-1.7-0.4-2.3c-0.2-0.6-0.6-1-1-1.2c-0.4-0.3-0.9-0.4-1.5-0.4
					c-1,0-1.8,0.4-2.4,1.1C415.4,124.7,415,125.6,414.8,126.8z"/>
				<path class="st0" d="M438,136.1c0.5,0,1-0.1,1.3-0.2c0.4-0.1,0.6-0.4,0.8-0.8c0.2-0.4,0.3-1.1,0.3-2v-13.4c0-0.6,0-1.2,0.1-1.8
					c0-0.6,0.1-1,0.1-1.3c-0.4,0-0.8,0-1.4,0.1c-0.6,0-1,0-1.2,0.1v-2.7h10.1c2.3,0,4.3,0.3,6,1s3.1,1.6,4.1,2.8
					c1.1,1.2,1.9,2.4,2.4,3.9c0.5,1.4,0.8,2.9,0.8,4.3s-0.2,2.8-0.7,4.3s-1.3,2.8-2.3,4c-1.1,1.2-2.5,2.2-4.2,3s-3.8,1.1-6.2,1.1
					h-9.9L438,136.1L438,136.1z M445.5,132.7c0,0.6,0,1.2,0,1.8s-0.1,1-0.1,1.3c0.2,0,0.6,0,1,0s0.8,0,1.3,0c0.4,0,0.8,0,1.1,0
					c1.3,0,2.4-0.3,3.3-0.8s1.7-1.2,2.3-2.1c0.6-0.9,1-1.8,1.3-2.9c0.3-1.1,0.4-2.2,0.4-3.4c0-2.4-0.3-4.3-1-5.8
					c-0.6-1.5-1.6-2.6-2.7-3.4c-1.2-0.7-2.6-1.1-4.2-1.2c-0.6,0-1,0-1.4,0.2c-0.4,0.1-0.7,0.4-0.9,0.8c-0.2,0.4-0.3,1.1-0.3,2
					L445.5,132.7L445.5,132.7z"/>
				<path class="st0" d="M472,138.9c-1.7,0-3.2-0.4-4.5-1.1c-1.3-0.8-2.3-1.8-3-3.2s-1.1-3-1.1-4.9c0-1.6,0.4-3.1,1.1-4.6
					c0.7-1.4,1.7-2.6,3-3.4c1.3-0.9,2.8-1.3,4.6-1.3c1,0,1.9,0.1,2.8,0.4s1.8,0.7,2.5,1.4c0.8,0.6,1.4,1.5,1.8,2.6
					c0.5,1.1,0.7,2.5,0.6,4.2l-11.4,0.2c0,1.3,0.2,2.4,0.5,3.4s0.8,1.8,1.5,2.4c0.7,0.6,1.7,0.9,2.9,0.9c0.5,0,1-0.1,1.6-0.2
					c0.6-0.2,1.2-0.4,1.8-0.8c0.6-0.4,1.2-0.9,1.7-1.5l1.6,1.5c-0.8,1.2-1.7,2.1-2.7,2.7c-1,0.6-1.9,1-2.8,1.2
					C473.7,138.8,472.8,138.9,472,138.9z M468.8,126.8h6.4c0-1-0.2-1.7-0.4-2.3c-0.2-0.6-0.6-1-1-1.2c-0.4-0.3-0.9-0.4-1.5-0.4
					c-1,0-1.8,0.4-2.4,1.1C469.3,124.7,469,125.6,468.8,126.8z"/>
				<path class="st0" d="M484.1,120c0-2.8,0.6-4.8,1.8-6c1.2-1.2,2.9-1.8,5-1.8c1.1,0,2,0.2,2.6,0.5s1.1,0.7,1.4,1.2
					s0.4,0.9,0.4,1.4c0,0.6-0.2,1.1-0.6,1.6s-0.9,0.7-1.6,0.7s-1.2-0.2-1.6-0.5c-0.4-0.4-0.6-0.9-0.6-1.4c0-0.1,0-0.2,0-0.3
					c0-0.1,0-0.2,0.1-0.3c-0.1-0.1-0.3-0.2-0.4-0.2c-0.2,0-0.3-0.1-0.4-0.1c-0.4,0-0.7,0.1-0.9,0.3c-0.2,0.2-0.3,0.5-0.4,0.8
					s-0.1,0.7-0.1,1v4.3h3.9v2.7l-3.9,0.1v8.9c0,0.3,0,0.8,0,1.4c0,0.6-0.1,1.2-0.1,1.7c0.4,0,0.8-0.1,1.3-0.1s0.9,0,1.1,0v2.6h-9.3
					v-2.3c0.6,0,1.1-0.1,1.4-0.4c0.3-0.3,0.5-0.6,0.6-1.1s0.1-1,0.1-1.6v-9.2h-2.5V121h2.5v-1C483.9,120,484.1,120,484.1,120z"/>
				<path class="st0" d="M502.2,138.9c-1.7,0-3.2-0.4-4.5-1.1c-1.3-0.8-2.3-1.8-3-3.2s-1.1-3-1.1-4.9c0-1.6,0.4-3.1,1.1-4.6
					c0.7-1.4,1.7-2.6,3-3.4c1.3-0.9,2.8-1.3,4.6-1.3c1,0,1.9,0.1,2.8,0.4s1.8,0.7,2.5,1.4c0.8,0.6,1.4,1.5,1.8,2.6
					c0.5,1.1,0.7,2.5,0.6,4.2l-11.4,0.2c0,1.3,0.2,2.4,0.5,3.4s0.8,1.8,1.5,2.4c0.7,0.6,1.7,0.9,2.9,0.9c0.5,0,1-0.1,1.6-0.2
					c0.6-0.2,1.2-0.4,1.8-0.8c0.6-0.4,1.2-0.9,1.7-1.5l1.6,1.5c-0.8,1.2-1.7,2.1-2.7,2.7c-1,0.6-1.9,1-2.8,1.2
					C503.9,138.8,503,138.9,502.2,138.9z M499,126.8h6.4c0-1-0.2-1.7-0.4-2.3c-0.2-0.6-0.6-1-1-1.2c-0.4-0.3-0.9-0.4-1.5-0.4
					c-1,0-1.8,0.4-2.4,1.1C499.5,124.7,499.2,125.6,499,126.8z"/>
				<path class="st0" d="M512.1,138.4v-2.3c0.6,0,1.1-0.1,1.4-0.4c0.3-0.3,0.5-0.6,0.5-1.1c0.1-0.5,0.1-1,0.1-1.6v-5.8
					c0-0.4,0-0.9,0-1.4s0.1-1,0.1-1.5c-0.4,0-0.8,0-1.3,0.1c-0.5,0-0.9,0-1.1,0.1v-2.8c1.1,0,2-0.1,2.7-0.2s1.3-0.3,1.8-0.4
					c0.4-0.2,0.7-0.3,0.9-0.5h1.7c0,0.3,0.1,0.5,0.1,0.7c0,0.1,0,0.3,0,0.4s0.1,0.4,0.1,0.7c0.5-0.4,1-0.7,1.6-1
					c0.6-0.3,1.2-0.5,1.8-0.7c0.6-0.2,1.1-0.3,1.6-0.3c2.1,0,3.6,0.6,4.5,1.8c0.9,1.2,1.3,3.2,1.3,5.9v4.7c0,0.3,0,0.8,0,1.4
					c0,0.6-0.1,1.2-0.1,1.7c0.4,0,0.8-0.1,1.2-0.1s0.8,0,1,0v2.6h-9.1v-2.3c0.6,0,1.1-0.1,1.4-0.4c0.3-0.3,0.5-0.6,0.6-1.1
					c0.1-0.5,0.1-1,0.1-1.6v-4.9c0-1.5-0.2-2.6-0.6-3.4c-0.4-0.7-1.2-1.1-2.2-1.1c-0.6,0-1.2,0.1-1.7,0.4c-0.6,0.3-1,0.6-1.4,0.9
					c0,0.3,0,0.7,0,1s0,0.7,0,1v5.9c0,0.3,0,0.8,0,1.4c0,0.6-0.1,1.2-0.1,1.7c0.4,0,0.8-0.1,1.2-0.1c0.5,0,0.8,0,1,0v2.6H512.1z"/>
				<path class="st0" d="M542,138.9c-1,0-2-0.1-2.9-0.4c-1-0.3-1.7-0.6-2.2-1l0.1,1h-2.6l-0.1-6h2.3c0.1,0.7,0.3,1.3,0.8,1.9
					c0.5,0.6,1.1,1,1.9,1.4c0.8,0.3,1.7,0.5,2.6,0.5c0.4,0,0.8-0.1,1.1-0.2c0.4-0.1,0.7-0.3,0.9-0.6c0.2-0.3,0.4-0.6,0.4-1
					c0-0.4-0.2-0.8-0.5-1.1s-0.8-0.5-1.4-0.8c-0.6-0.3-1.3-0.5-2.2-0.9c-0.7-0.3-1.4-0.6-2.2-0.9c-0.7-0.3-1.4-0.7-2-1.1
					c-0.6-0.4-1.1-1-1.5-1.6c-0.4-0.6-0.6-1.4-0.6-2.3c0-0.7,0.1-1.3,0.4-2s0.6-1.3,1.2-1.8c0.5-0.5,1.2-1,2-1.3s1.8-0.5,2.9-0.5
					c0.6,0,1.3,0.1,2.1,0.3c0.8,0.2,1.5,0.5,2,0.9v-1h2.6v6.1h-2.3c-0.1-0.8-0.4-1.5-0.9-2.1c-0.4-0.6-1-1-1.6-1.3
					c-0.7-0.3-1.4-0.5-2.3-0.5c-0.6,0-1.1,0.1-1.6,0.4s-0.7,0.8-0.7,1.4c0,0.5,0.2,1,0.6,1.3c0.4,0.3,0.9,0.6,1.5,0.8
					c0.6,0.2,1.4,0.5,2.2,0.7c1.2,0.4,2.2,0.9,3.1,1.4c0.9,0.5,1.6,1.2,2.2,1.9c0.5,0.8,0.8,1.7,0.8,2.8c0,1.2-0.3,2.2-0.9,3
					c-0.6,0.8-1.4,1.4-2.3,1.8C544.1,138.7,543.1,138.9,542,138.9z"/>
				<path class="st0" d="M560.4,138.4c0-0.3-0.1-0.6-0.1-0.8s0-0.5-0.1-0.8c-0.8,0.8-1.6,1.3-2.5,1.7c-0.9,0.3-1.8,0.5-2.7,0.5
					c-1.5,0-2.6-0.4-3.5-1.3c-0.8-0.9-1.2-2-1.2-3.3c0-1.1,0.3-2.1,0.9-2.8c0.6-0.8,1.3-1.4,2.3-1.9c0.9-0.5,2-0.9,3.1-1.1
					c1.1-0.3,2.3-0.4,3.5-0.5v-1.8c0-0.6-0.1-1.1-0.2-1.6c-0.2-0.5-0.4-0.9-0.8-1.1c-0.4-0.3-0.9-0.4-1.5-0.4
					c-0.4,0-0.9,0.1-1.3,0.3c-0.4,0.2-0.8,0.4-1.1,0.7c0.2,0.2,0.3,0.4,0.3,0.7c0,0.2,0.1,0.5,0.1,0.6c0,0.5-0.2,0.9-0.6,1.4
					c-0.4,0.5-1,0.7-1.8,0.7c-0.7,0-1.2-0.3-1.6-0.7c-0.4-0.5-0.6-1-0.6-1.6c0-0.9,0.3-1.7,1-2.4c0.7-0.7,1.5-1.2,2.7-1.6
					c1.1-0.4,2.3-0.6,3.7-0.6c2,0,3.6,0.5,4.7,1.6c1.1,1.1,1.7,2.7,1.7,5.1c0,0.8,0,1.5,0,2c0,0.6,0,1.1,0,1.7c0,0.6,0,1.2,0,2
					c0,0.3,0,0.8,0,1.4c0,0.6-0.1,1.2-0.1,1.7c0.4,0,0.8-0.1,1.2-0.1s0.8,0,1,0v2.6h-6.5L560.4,138.4L560.4,138.4z M560,130.4
					c-0.6,0.1-1.3,0.2-1.8,0.3c-0.6,0.2-1.1,0.4-1.5,0.7c-0.4,0.3-0.8,0.6-1,1c-0.2,0.4-0.4,0.8-0.4,1.3c0,0.6,0.2,1.1,0.6,1.4
					c0.4,0.3,0.8,0.4,1.4,0.4c0.5,0,1-0.1,1.5-0.3c0.5-0.2,0.9-0.5,1.3-0.9c0-0.2,0-0.5,0-0.7s0-0.4,0-0.7c0-0.4,0-0.8,0-1.3
					C560,131.2,560,130.8,560,130.4z"/>
				<path class="st0" d="M207.1,174.3V173c0.6,0,1.1-0.2,1.4-0.4c0.3-0.2,0.5-0.6,0.5-1.1c0.1-0.5,0.1-1.1,0.1-1.8v-12.2
					c0-0.4,0-0.8,0-1.2s0-0.7,0.1-1c-0.3,0-0.7,0-1.1,0.1c-0.4,0-0.7,0-1.1,0.1v-1.8c1.2,0,2.4,0,3.6,0c1.2,0,2.4,0,3.7,0
					c1.8,0,3.4,0.2,4.5,0.6c1.2,0.4,2.1,1,2.7,1.9c0.6,0.8,0.9,1.9,0.9,3.1c0,0.8-0.1,1.6-0.5,2.3c-0.3,0.8-0.9,1.5-1.7,2.1
					s-1.9,1.1-3.2,1.4c0.4,0.2,0.7,0.6,1.1,1s0.6,0.9,1,1.4l1.8,2.8c0.4,0.6,0.7,1.1,1,1.5s0.7,0.7,1.1,1c0.4,0.2,0.9,0.3,1.4,0.3
					v1.3h-4.1c-0.5-0.4-0.9-0.9-1.3-1.4s-0.7-1.1-1.2-1.7l-2-3.3c-0.3-0.4-0.5-0.8-0.8-1.3c-0.3-0.4-0.6-0.8-0.9-1.1
					c-0.3,0-0.6,0-0.9,0c-0.3,0-0.6,0-0.9,0v4.8c0,0.5,0,1,0,1.4s0,0.8-0.1,1c0.2,0,0.5,0,0.7,0c0.3,0,0.5,0,0.8,0s0.5,0,0.7,0v1.6
					h-7.3V174.3z M214,164.1c1.1,0,2-0.2,2.8-0.5s1.3-0.8,1.8-1.5s0.6-1.5,0.6-2.6c0-0.8-0.1-1.5-0.4-2c-0.2-0.5-0.6-1-1-1.3
					s-0.9-0.6-1.5-0.7c-0.6-0.1-1.2-0.2-1.9-0.2c-0.6,0-1.1,0.1-1.4,0.4c-0.3,0.2-0.5,0.6-0.5,1c-0.1,0.4-0.1,1-0.1,1.7v5.7
					c0.3,0,0.6,0,0.8,0.1C213.4,164.1,213.7,164.1,214,164.1z"/>
				<path class="st0" d="M232.3,174.7c-1.4,0-2.6-0.3-3.7-1c-1.1-0.6-1.9-1.5-2.6-2.7c-0.6-1.2-0.9-2.5-0.9-4.1
					c0-1.4,0.3-2.6,0.9-3.8c0.6-1.2,1.5-2.2,2.6-2.9s2.4-1.1,3.9-1.1c0.8,0,1.6,0.1,2.3,0.4c0.7,0.3,1.4,0.7,2,1.2s1,1.2,1.4,2.1
					c0.3,0.9,0.5,1.9,0.5,3.1l-10.1,0.2c0,1.3,0.2,2.5,0.5,3.5s0.8,1.8,1.5,2.4c0.7,0.6,1.6,0.9,2.7,0.9c0.5,0,1.1-0.1,1.7-0.3
					c0.6-0.2,1.2-0.5,1.7-0.8c0.5-0.4,1-0.8,1.4-1.3l0.9,0.8c-0.6,0.9-1.3,1.6-2,2.1s-1.5,0.9-2.3,1.1
					C233.7,174.6,233,174.7,232.3,174.7z M228.7,164.5h6.8c0-0.7-0.1-1.4-0.3-2s-0.5-1.1-1-1.4c-0.4-0.4-1-0.5-1.6-0.5
					c-1,0-1.9,0.3-2.6,1C229.4,162.2,228.9,163.2,228.7,164.5z"/>
				<path class="st0" d="M240.5,181.7v-1.2c0.6,0,1-0.1,1.2-0.4c0.2-0.3,0.4-0.7,0.4-1.1c0-0.5,0.1-1.1,0.1-1.7v-13.6
					c0-0.3,0-0.7,0-1c0-0.4,0-0.7,0.1-1.1c-0.3,0-0.7,0-1.1,0c-0.4,0-0.7,0-1,0V160c0.9,0,1.6,0,2.1-0.1s0.9-0.2,1.1-0.3
					c0.3-0.1,0.5-0.2,0.6-0.4h1.1c0,0.2,0,0.4,0.1,0.7c0,0.3,0,0.5,0.1,0.8c0.6-0.5,1.3-1,2.1-1.3s1.5-0.4,2.3-0.4
					c1.1,0,2.2,0.3,3.1,0.9c0.9,0.6,1.7,1.4,2.3,2.5s0.9,2.4,0.9,3.9c0,1.6-0.3,3.1-1,4.3c-0.7,1.3-1.6,2.2-2.7,2.9
					c-1.1,0.7-2.4,1-3.7,1c-0.6,0-1.2-0.1-1.7-0.2c-0.5-0.1-1-0.3-1.5-0.6v4.2c0,0.4,0,0.7,0,1.1c0,0.4,0,0.7-0.1,1.1
					c0.3,0,0.6,0,1,0c0.3,0,0.6,0,0.9,0v1.6L240.5,181.7L240.5,181.7z M248.3,173.2c0.9,0,1.7-0.3,2.3-0.8c0.6-0.6,1.1-1.3,1.4-2.3
					c0.3-0.9,0.5-2,0.5-3.2c0-1-0.1-2-0.4-2.9c-0.3-0.9-0.7-1.7-1.3-2.2c-0.6-0.6-1.4-0.9-2.3-0.8c-0.6,0-1.2,0.1-1.7,0.4
					c-0.5,0.3-1,0.7-1.4,1.1c0,0.3,0,0.5,0,0.8s0,0.7,0,1.1c0,0.4,0,1,0,1.7s0,1.5,0,2.5s0,2.2,0,3.7c0.4,0.3,0.8,0.5,1.4,0.7
					C247.2,173.1,247.7,173.2,248.3,173.2z"/>
				<path class="st0" d="M264.1,174.7c-1.1,0-2-0.2-2.7-0.6c-0.7-0.4-1.2-1.1-1.6-2c-0.4-0.9-0.5-2.2-0.5-3.8v-4.6c0-0.3,0-0.7,0-1
					c0-0.4,0-0.7,0.1-1.1c-0.3,0-0.7,0-1.1,0c-0.4,0-0.7,0-1,0V160h0.7c1,0,1.7-0.1,2.2-0.3s0.8-0.4,1-0.6h1.1v8.9
					c0,1.5,0.2,2.7,0.6,3.5s1.2,1.1,2.2,1.1c0.7,0,1.3-0.2,1.9-0.6c0.6-0.4,1.1-0.9,1.5-1.4v-7c0-0.4,0-0.8,0-1.2s0.1-0.7,0.1-1.1
					c-0.4,0-0.7,0-1.1,0s-0.7,0-1,0v-1.6h0.8c0.9,0,1.5-0.1,2-0.3s0.8-0.4,1.1-0.6h1.1v10.8c0,0.3,0,0.7,0,1.3c0,0.5,0,1-0.1,1.4
					c0.3,0,0.7,0,1-0.1c0.4,0,0.7,0,1,0v1.6h-4.7c0-0.3-0.1-0.6-0.1-0.9c0-0.3-0.1-0.5-0.1-0.8c-0.6,0.6-1.3,1.1-2.1,1.5
					C265.8,174.5,265,174.7,264.1,174.7z M264,157.4l-1-0.9l2.4-4c0.3-0.4,0.6-0.6,0.8-0.7c0.3-0.1,0.5-0.1,0.8-0.1
					c0.2,0,0.4,0.1,0.6,0.2c0.2,0.1,0.3,0.3,0.4,0.6s0.1,0.5,0,0.8s-0.3,0.6-0.6,1L264,157.4z"/>
				<path class="st0" d="M276.1,156.5c0-0.3,0-0.7,0-1s0-0.7,0.1-1.1c-0.4,0-0.7,0-1.1,0s-0.7,0-1,0v-1.6c0.9,0,1.6,0,2.1-0.1
					s0.9-0.2,1.2-0.3c0.3-0.1,0.5-0.2,0.6-0.4h1.1v8.7c0.6-0.5,1.2-1,2-1.2c0.7-0.3,1.5-0.4,2.3-0.4c1.2,0,2.3,0.3,3.3,0.9
					c1,0.6,1.7,1.5,2.3,2.6s0.8,2.4,0.8,4s-0.3,3.1-1,4.3c-0.7,1.2-1.6,2.2-2.7,2.9c-1.1,0.7-2.4,1-3.8,1c-0.6,0-1.3-0.1-2.1-0.4
					c-0.8-0.2-1.5-0.7-2.2-1.4l-0.8,1.3h-1.3L276.1,156.5z M279.2,169.7c0,0.9,0.1,1.6,0.4,2.1c0.3,0.5,0.7,0.9,1.1,1.1
					c0.4,0.2,0.9,0.3,1.5,0.3c0.9,0,1.7-0.2,2.3-0.8s1.1-1.2,1.4-2.2c0.3-0.9,0.5-1.9,0.5-3.1c0-1.2-0.1-2.2-0.4-3.2
					c-0.3-0.9-0.7-1.7-1.3-2.2c-0.6-0.6-1.4-0.8-2.3-0.8c-0.6,0-1.2,0.1-1.7,0.4c-0.6,0.3-1,0.6-1.4,1.1v7.3L279.2,169.7
					L279.2,169.7z"/>
				<path class="st0" d="M291.5,173c0.6,0,1-0.1,1.2-0.4c0.2-0.3,0.4-0.7,0.4-1.1c0-0.5,0.1-1.1,0.1-1.7v-13.3c0-0.3,0-0.7,0-1
					s0-0.7,0.1-1.1c-0.3,0-0.7,0-1.1,0s-0.7,0-1,0v-1.6c0.9,0,1.6,0,2.1-0.1s0.9-0.2,1.2-0.3c0.3-0.1,0.5-0.2,0.6-0.4h1.1v18.5
					c0,0.4,0,0.7,0,1.1c0,0.4,0,0.7-0.1,1.1c0.3,0,0.6,0,1,0c0.3,0,0.6,0,0.9,0v1.6h-6.5L291.5,173L291.5,173z"/>
				<path class="st0" d="M300.1,173c0.6,0,1-0.1,1.2-0.4c0.2-0.3,0.4-0.7,0.4-1.1c0-0.5,0.1-1.1,0.1-1.7v-6.1c0-0.3,0-0.7,0-1
					s0-0.7,0.1-1.1c-0.3,0-0.7,0-1.1,0s-0.7,0-1,0V160c0.9,0,1.6,0,2.1-0.1s0.9-0.2,1.2-0.3c0.3-0.1,0.5-0.2,0.6-0.4h1.1v11.3
					c0,0.4,0,0.7,0,1.1c0,0.4,0,0.7-0.1,1.1c0.3,0,0.6,0,1,0c0.3,0,0.6,0,0.9,0v1.6h-6.5L300.1,173L300.1,173z M303.2,156.6
					c-0.5,0-0.9-0.2-1.3-0.6c-0.4-0.4-0.5-0.8-0.5-1.4c0-0.5,0.2-1,0.6-1.4s0.8-0.6,1.3-0.6s0.9,0.2,1.3,0.6
					c0.3,0.4,0.5,0.8,0.5,1.4c0,0.5-0.2,1-0.5,1.4C304.1,156.4,303.7,156.6,303.2,156.6z"/>
				<path class="st0" d="M315.4,174.7c-1.3,0-2.5-0.3-3.6-0.9c-1.1-0.6-2-1.5-2.6-2.6c-0.7-1.1-1-2.5-1-4c0-1.1,0.2-2.1,0.6-3
					s0.9-1.8,1.6-2.6s1.5-1.4,2.4-1.8c0.9-0.4,2-0.7,3.1-0.7c1.2,0,2.1,0.2,3,0.5c0.8,0.4,1.5,0.8,1.9,1.4c0.4,0.6,0.7,1.2,0.7,1.8
					c0,0.5-0.1,0.9-0.4,1.2c-0.3,0.4-0.7,0.5-1.2,0.5c-0.6,0-1-0.2-1.2-0.5c-0.2-0.4-0.4-0.7-0.4-1c0-0.2,0-0.4,0.1-0.6
					c0.1-0.2,0.2-0.4,0.3-0.6c-0.2-0.4-0.4-0.7-0.8-0.9s-0.7-0.3-1.1-0.4c-0.4-0.1-0.7-0.1-0.9-0.1c-1.2,0-2.2,0.5-3,1.5
					s-1.2,2.5-1.2,4.4c0,1.2,0.2,2.3,0.5,3.3c0.4,1,0.9,1.7,1.6,2.3s1.5,0.9,2.5,0.9c0.9,0,1.7-0.2,2.6-0.7c0.8-0.5,1.5-1,2-1.7
					l0.9,0.8c-0.6,0.9-1.2,1.6-2,2.1c-0.7,0.5-1.5,0.9-2.2,1.1S316.1,174.7,315.4,174.7z"/>
				<path class="st0" d="M332.6,174.3c0-0.3-0.1-0.6-0.1-0.8s0-0.5-0.1-0.7c-0.7,0.7-1.4,1.2-2.1,1.5c-0.8,0.3-1.6,0.5-2.4,0.5
					c-1.4,0-2.5-0.3-3.2-1s-1.1-1.6-1.1-2.6c0-0.9,0.3-1.7,0.8-2.3c0.5-0.7,1.2-1.2,2.1-1.6c0.9-0.4,1.8-0.7,2.8-0.9s2-0.3,3-0.3
					v-1.7c0-0.6-0.1-1.2-0.2-1.7s-0.4-1-0.7-1.3c-0.4-0.3-0.9-0.5-1.7-0.5c-0.5,0-1,0.1-1.5,0.3s-0.9,0.5-1.2,1
					c0.2,0.2,0.3,0.3,0.3,0.5s0.1,0.4,0.1,0.6c0,0.3-0.1,0.6-0.4,0.9c-0.2,0.3-0.6,0.5-1.2,0.5c-0.5,0-0.8-0.2-1.1-0.5
					c-0.2-0.3-0.4-0.7-0.4-1.1c0-0.7,0.3-1.3,0.8-1.9c0.5-0.5,1.2-1,2.1-1.3s1.9-0.5,3-0.5c1.7,0,2.9,0.4,3.8,1.3
					c0.8,0.9,1.2,2.3,1.2,4.2c0,0.7,0,1.4,0,2s0,1.3,0,1.9c0,0.6,0,1.3,0,2.1c0,0.3,0,0.6,0,1s0,0.8-0.1,1.2c0.3,0,0.7,0,1-0.1
					c0.4,0,0.7,0,1,0v1.6h-4.5L332.6,174.3L332.6,174.3z M332.3,167.2c-0.6,0-1.3,0.1-1.9,0.3c-0.7,0.1-1.2,0.3-1.8,0.6
					c-0.5,0.3-1,0.6-1.3,1.1c-0.3,0.4-0.5,0.9-0.5,1.6c0,0.7,0.3,1.2,0.7,1.5c0.4,0.3,0.9,0.5,1.4,0.5c0.7,0,1.3-0.1,1.8-0.4
					c0.5-0.3,1-0.6,1.6-1.1c0-0.2,0-0.4,0-0.7c0-0.2,0-0.5,0-0.7s0-0.5,0-1C332.3,168.3,332.3,167.8,332.3,167.2z"/>
				<path class="st0" d="M345.5,174.3V173c0.6,0,1-0.2,1.3-0.5s0.6-0.7,0.8-1.3c0.2-0.5,0.4-1.1,0.7-1.8l5.9-16.2h1.2l6.4,16.5
					c0.2,0.4,0.3,0.9,0.5,1.5s0.3,1.2,0.3,1.6c0.3,0,0.7-0.1,1-0.1s0.6,0,0.9,0v1.6h-7.1V173c0.7,0,1.1-0.2,1.4-0.5
					c0.2-0.3,0.3-0.6,0.3-1s-0.2-0.8-0.3-1.2l-0.9-2.4l-7.2,0.2l-0.9,2.6c-0.1,0.4-0.2,0.8-0.4,1.1c-0.1,0.4-0.3,0.7-0.4,1
					c0.4,0,0.7-0.1,1.1-0.1s0.8,0,1.1,0v1.6H345.5L345.5,174.3z M351.2,166.5h6.2l-1.8-5c-0.2-0.6-0.5-1.3-0.7-1.9
					c-0.2-0.6-0.4-1.2-0.6-1.8l0,0c-0.2,0.5-0.3,1-0.5,1.6s-0.4,1.2-0.7,1.9L351.2,166.5z"/>
				<path class="st0" d="M366.2,173c0.6,0,1-0.1,1.2-0.4c0.2-0.3,0.4-0.7,0.4-1.1c0-0.5,0.1-1.1,0.1-1.7v-6.1c0-0.3,0-0.7,0-1
					c0-0.4,0-0.7,0.1-1.1c-0.3,0-0.7,0-1.1,0s-0.7,0-1,0V160h1c0.8,0,1.4-0.1,1.9-0.3c0.4-0.2,0.7-0.4,0.9-0.6h1.1
					c0,0.3,0.1,0.7,0.1,1.1c0,0.5,0,1,0.1,1.6c0.4-0.5,0.8-1,1.3-1.5c0.5-0.4,1-0.8,1.6-1.1s1.2-0.4,1.8-0.4c0.6,0,1.1,0.2,1.6,0.5
					c0.4,0.3,0.7,0.8,0.7,1.6c0,0.2-0.1,0.4-0.2,0.7s-0.3,0.5-0.5,0.7s-0.6,0.3-1,0.3s-0.8-0.2-1.1-0.5c-0.3-0.3-0.4-0.7-0.4-1.2
					c-0.5,0-0.9,0.1-1.4,0.4c-0.5,0.3-0.9,0.7-1.3,1.1c-0.4,0.5-0.7,1-1,1.5v6.4c0,0.4,0,0.7,0,1.1c0,0.4,0,0.7-0.1,1.1
					c0.3,0,0.6,0,1,0c0.3,0,0.6,0,0.9,0v1.6h-6.6V173H366.2z"/>
				<path class="st0" d="M385.9,182.2c-1.7,0-3.1-0.2-4.2-0.6c-1-0.4-1.8-0.9-2.3-1.5s-0.7-1.2-0.7-1.9c0-0.5,0.1-1,0.4-1.5
					c0.2-0.5,0.6-0.8,1-1.2c0.4-0.3,0.9-0.6,1.4-0.8c-0.7-0.2-1.2-0.5-1.6-0.9s-0.5-0.9-0.5-1.5s0.3-1.2,0.7-1.8
					c0.5-0.6,1.2-1,2.2-1.2c-0.9-0.4-1.6-1-2.1-1.7s-0.8-1.6-0.8-2.6c0-1.2,0.3-2.2,0.9-3.1c0.6-0.9,1.4-1.6,2.4-2.1s2-0.7,3-0.7
					c0.6,0,1.2,0.1,1.9,0.2c0.6,0.2,1.2,0.4,1.8,0.8c0.2-0.6,0.5-1.1,0.8-1.6c0.4-0.5,0.8-0.8,1.2-1.1c0.5-0.3,1-0.4,1.5-0.4
					c0.6,0,1,0.1,1.3,0.4c0.3,0.3,0.4,0.7,0.4,1.2c0,0.2,0,0.3-0.1,0.6c-0.1,0.2-0.2,0.4-0.5,0.6c-0.2,0.2-0.5,0.2-0.9,0.2
					c-0.3,0-0.6-0.1-0.8-0.3c-0.2-0.2-0.4-0.5-0.5-0.7c-0.4,0.1-0.7,0.3-1,0.7s-0.4,0.8-0.5,1.2c0.5,0.4,0.9,1,1.2,1.6
					c0.3,0.6,0.4,1.3,0.4,2c0,1.1-0.3,2.1-0.9,3s-1.4,1.5-2.3,2c-1,0.5-2,0.7-3.1,0.7c-0.3,0-0.6,0-0.9-0.1c-0.3,0-0.6-0.1-1-0.1
					c-0.6,0-1.1,0.1-1.5,0.4c-0.4,0.3-0.6,0.6-0.5,1.1c0.1,0.4,0.5,0.7,1.2,0.9c0.7,0.1,1.8,0.2,3.1,0.3c1.5,0.1,2.8,0.2,3.9,0.5
					s1.9,0.8,2.5,1.4c0.6,0.6,0.9,1.5,0.9,2.6c0,0.8-0.2,1.5-0.7,2.1c-0.4,0.6-1,1.1-1.8,1.6c-0.7,0.4-1.6,0.7-2.4,1
					C387.7,182.1,386.8,182.2,385.9,182.2z M386.2,180.8c1.6,0,2.8-0.3,3.7-0.9c0.9-0.6,1.3-1.3,1.3-2c0-0.6-0.2-1.1-0.6-1.5
					c-0.4-0.3-1-0.6-1.8-0.7c-0.8-0.1-1.7-0.2-2.7-0.2c-0.5,0-1-0.1-1.6-0.1c-0.5,0-1-0.1-1.5-0.1c-0.4,0.3-0.8,0.7-1,1.1
					c-0.2,0.4-0.4,0.9-0.4,1.4c0,0.9,0.4,1.6,1.3,2.2C383.6,180.5,384.8,180.8,386.2,180.8z M385.8,168.9c0.7,0,1.2-0.2,1.7-0.5
					c0.4-0.3,0.8-0.8,1-1.4c0.2-0.6,0.3-1.2,0.3-1.9c0-0.8-0.1-1.6-0.4-2.3c-0.2-0.7-0.6-1.3-1-1.7s-1-0.6-1.7-0.6
					c-1,0-1.7,0.4-2.2,1.1c-0.5,0.8-0.8,1.7-0.8,2.8c0,0.9,0.1,1.6,0.4,2.3c0.2,0.7,0.6,1.2,1.1,1.6
					C384.6,168.7,385.1,168.9,385.8,168.9z"/>
				<path class="st0" d="M401.8,174.7c-1.4,0-2.6-0.3-3.7-1c-1.1-0.6-1.9-1.5-2.6-2.7c-0.6-1.2-0.9-2.5-0.9-4.1
					c0-1.4,0.3-2.6,0.9-3.8s1.5-2.2,2.6-2.9s2.4-1.1,3.9-1.1c0.8,0,1.6,0.1,2.3,0.4c0.7,0.3,1.4,0.7,2,1.2s1,1.2,1.4,2.1
					c0.3,0.9,0.5,1.9,0.5,3.1l-10.1,0.2c0,1.3,0.2,2.5,0.5,3.5s0.8,1.8,1.5,2.4c0.7,0.6,1.6,0.9,2.7,0.9c0.5,0,1.1-0.1,1.7-0.3
					s1.2-0.5,1.7-0.8c0.5-0.4,1-0.8,1.4-1.3l0.9,0.8c-0.6,0.9-1.3,1.6-2,2.1c-0.8,0.5-1.5,0.9-2.3,1.1
					C403.2,174.6,402.4,174.7,401.8,174.7z M398.2,164.5h6.8c0-0.7-0.1-1.4-0.3-2c-0.2-0.6-0.5-1.1-1-1.4c-0.4-0.4-1-0.5-1.6-0.5
					c-1,0-1.9,0.3-2.6,1C398.8,162.2,398.4,163.2,398.2,164.5z"/>
				<path class="st0" d="M410.1,174.3v-1.2c0.6,0,1-0.1,1.2-0.4c0.2-0.3,0.4-0.7,0.4-1.1c0-0.5,0.1-1.1,0.1-1.7v-6.1
					c0-0.3,0-0.7,0-1c0-0.4,0-0.7,0.1-1.1c-0.4,0-0.7,0-1.1,0s-0.7,0-1,0v-1.6c0.9,0,1.6,0,2.1-0.1s0.9-0.2,1.1-0.3
					c0.3-0.1,0.5-0.2,0.6-0.4h1.1c0,0.2,0,0.3,0,0.5s0,0.3,0,0.5s0,0.4,0,0.7c0.4-0.4,0.9-0.7,1.4-0.9c0.5-0.3,1-0.5,1.6-0.7
					s1.1-0.2,1.6-0.2c1.7,0,3,0.5,3.8,1.6s1.2,2.7,1.2,5v5c0,0.4,0,0.7,0,1.1c0,0.4,0,0.7-0.1,1.1c0.3,0,0.6,0,1,0
					c0.3,0,0.6,0,0.9,0v1.6h-6.5v-1.2c0.6,0,1-0.1,1.2-0.4c0.2-0.3,0.4-0.7,0.4-1.1c0-0.5,0.1-1.1,0.1-1.7v-4.5
					c0-1.5-0.3-2.7-0.7-3.5c-0.5-0.8-1.2-1.2-2.3-1.1c-0.6,0-1.2,0.2-1.8,0.5c-0.6,0.3-1.1,0.7-1.5,1.1c0,0.2,0,0.4,0,0.6
					c0,0.2,0,0.5,0,0.7v6.7c0,0.4,0,0.7,0,1.1c0,0.4,0,0.7-0.1,1.1c0.3,0,0.6,0,1,0c0.3,0,0.6,0,0.9,0v1.6h-6.7L410.1,174.3
					L410.1,174.3z"/>
				<path class="st0" d="M433.1,174.7c-0.5,0-1-0.1-1.5-0.2c-0.5-0.1-1-0.4-1.4-0.8c-0.4-0.4-0.7-0.9-1-1.7
					c-0.2-0.7-0.4-1.7-0.4-2.9l0.1-8h-2.1v-1.6c0.5,0,1.1-0.2,1.6-0.6c0.5-0.4,1-0.9,1.4-1.5s0.7-1.3,0.8-2h1.4v4.1h4.5v1.5
					l-4.5,0.1l-0.1,7.8c0,0.7,0.1,1.4,0.2,2s0.3,1,0.6,1.3c0.3,0.3,0.7,0.5,1.2,0.5c0.4,0,0.9-0.1,1.4-0.4c0.5-0.3,0.9-0.7,1.4-1.3
					l1,0.9c-0.5,0.7-0.9,1.2-1.4,1.6c-0.5,0.4-0.9,0.7-1.3,0.9s-0.8,0.3-1.2,0.4C433.6,174.7,433.3,174.7,433.1,174.7z"/>
				<path class="st0" d="M439.3,173c0.6,0,1-0.1,1.2-0.4c0.2-0.3,0.4-0.7,0.4-1.1c0-0.5,0.1-1.1,0.1-1.7v-6.1c0-0.3,0-0.7,0-1
					s0-0.7,0.1-1.1c-0.3,0-0.7,0-1.1,0s-0.7,0-1,0V160c0.9,0,1.6,0,2.1-0.1s0.9-0.2,1.2-0.3c0.3-0.1,0.5-0.2,0.6-0.4h1.1v11.3
					c0,0.4,0,0.7,0,1.1c0,0.4,0,0.7-0.1,1.1c0.3,0,0.6,0,1,0c0.3,0,0.6,0,0.9,0v1.6h-6.5L439.3,173L439.3,173z M442.4,156.6
					c-0.5,0-0.9-0.2-1.3-0.6c-0.4-0.4-0.5-0.8-0.5-1.4c0-0.5,0.2-1,0.6-1.4s0.8-0.6,1.3-0.6s0.9,0.2,1.3,0.6
					c0.3,0.4,0.5,0.8,0.5,1.4c0,0.5-0.2,1-0.5,1.4C443.3,156.4,442.9,156.6,442.4,156.6z"/>
				<path class="st0" d="M447.9,174.3v-1.2c0.6,0,1-0.1,1.2-0.4c0.2-0.3,0.4-0.7,0.4-1.1c0-0.5,0.1-1.1,0.1-1.7v-6.1
					c0-0.3,0-0.7,0-1c0-0.4,0-0.7,0.1-1.1c-0.4,0-0.7,0-1.1,0s-0.7,0-1,0v-1.6c0.9,0,1.6,0,2.1-0.1s0.9-0.2,1.1-0.3
					c0.3-0.1,0.5-0.2,0.6-0.4h1.1c0,0.2,0,0.3,0,0.5s0,0.3,0,0.5s0,0.4,0,0.7c0.4-0.4,0.9-0.7,1.4-0.9c0.5-0.3,1-0.5,1.6-0.7
					s1.1-0.2,1.6-0.2c1.7,0,3,0.5,3.8,1.6s1.2,2.7,1.2,5v5c0,0.4,0,0.7,0,1.1c0,0.4,0,0.7-0.1,1.1c0.3,0,0.6,0,1,0
					c0.3,0,0.6,0,0.9,0v1.6h-6.5v-1.2c0.6,0,1-0.1,1.2-0.4c0.2-0.3,0.4-0.7,0.4-1.1c0-0.5,0.1-1.1,0.1-1.7v-4.5
					c0-1.5-0.3-2.7-0.7-3.5c-0.5-0.8-1.2-1.2-2.3-1.1c-0.6,0-1.2,0.2-1.8,0.5c-0.6,0.3-1.1,0.7-1.5,1.1c0,0.2,0,0.4,0,0.6
					c0,0.2,0,0.5,0,0.7v6.7c0,0.4,0,0.7,0,1.1c0,0.4,0,0.7-0.1,1.1c0.3,0,0.6,0,1,0c0.3,0,0.6,0,0.9,0v1.6h-6.7L447.9,174.3
					L447.9,174.3z"/>
				<path class="st0" d="M474.7,174.3c0-0.3-0.1-0.6-0.1-0.8s0-0.5-0.1-0.7c-0.7,0.7-1.4,1.2-2.1,1.5c-0.8,0.3-1.6,0.5-2.4,0.5
					c-1.4,0-2.5-0.3-3.2-1s-1.1-1.6-1.1-2.6c0-0.9,0.3-1.7,0.8-2.3c0.5-0.7,1.2-1.2,2.1-1.6c0.9-0.4,1.8-0.7,2.8-0.9s2-0.3,3-0.3
					v-1.7c0-0.6-0.1-1.2-0.2-1.7s-0.4-1-0.7-1.3c-0.4-0.3-0.9-0.5-1.7-0.5c-0.5,0-1,0.1-1.5,0.3s-0.9,0.5-1.2,1
					c0.2,0.2,0.3,0.3,0.3,0.5s0.1,0.4,0.1,0.6c0,0.3-0.1,0.6-0.4,0.9c-0.2,0.3-0.6,0.5-1.2,0.5c-0.5,0-0.8-0.2-1.1-0.5
					c-0.2-0.3-0.4-0.7-0.4-1.1c0-0.7,0.3-1.3,0.8-1.9c0.5-0.5,1.2-1,2.1-1.3s1.9-0.5,3-0.5c1.7,0,2.9,0.4,3.8,1.3
					c0.8,0.9,1.2,2.3,1.2,4.2c0,0.7,0,1.4,0,2s0,1.3,0,1.9c0,0.6,0,1.3,0,2.1c0,0.3,0,0.6,0,1s0,0.8-0.1,1.2c0.3,0,0.7,0,1-0.1
					c0.4,0,0.7,0,1,0v1.6h-4.5L474.7,174.3L474.7,174.3z M474.5,167.2c-0.6,0-1.3,0.1-1.9,0.3c-0.7,0.1-1.2,0.3-1.8,0.6
					c-0.5,0.3-1,0.6-1.3,1.1c-0.3,0.4-0.5,0.9-0.5,1.6c0,0.7,0.3,1.2,0.7,1.5c0.4,0.3,0.9,0.5,1.4,0.5c0.7,0,1.3-0.1,1.8-0.4
					c0.5-0.3,1-0.6,1.6-1.1c0-0.2,0-0.4,0-0.7c0-0.2,0-0.5,0-0.7s0-0.5,0-1C474.5,168.3,474.5,167.8,474.5,167.2z"/>
			</g>
		</g>
	</g>
</g>
<g>
	<g>
		<path class="st1" d="M46.8,116.5"/>
	</g>
	<g>
		<path class="st1" d="M43.4,115.8"/>
	</g>
	<g>
		<path class="st1" d="M46.9,116.5"/>
	</g>
	<path class="st0" d="M99,244.7c-34.7,0-62.9-39.7-62.9-88.6c0.1-48.9,28.3-88.6,62.9-88.6s62.9,39.7,62.9,88.6
		S133.8,244.7,99,244.7z M99,69.3c-33.8,0-61.2,39-61.2,86.9s27.4,86.9,61.2,86.9s61.2-39,61.2-86.9S132.8,69.3,99,69.3z"/>
	<rect x="36.5" y="153.4" class="st0" width="125.5" height="0.9"/>
	<rect x="37.2" y="140.5" class="st0" width="123.7" height="0.9"/>
	<g>
		<path class="st0" d="M79.5,127.6C79.3,127.6,79.3,127.6,79.5,127.6H40.2v0.9H80C79.7,128.1,79.5,127.8,79.5,127.6z"/>
		<path class="st0" d="M120,127.6c-0.1,0.3-0.4,0.5-0.8,0.9h38.7v-0.9H120z"/>
	</g>
	<g>
		<path class="st0" d="M117.4,114.8c0.1,0.3,0.3,0.5,0.4,0.9h35.8v-0.9H117.4z"/>
		<path class="st0" d="M81.6,114.8h-37v0.9h36.4C81.3,115.2,81.4,114.9,81.6,114.8z"/>
	</g>
	<g>
		<path class="st0" d="M110.1,101.8c0.1,0.3,0.3,0.5,0.5,0.9h37.3v-0.9H110.1z"/>
		<path class="st0" d="M79.7,101.8H50.1v0.9h28.7C79.1,102.3,79.3,102,79.7,101.8z"/>
	</g>
	<rect x="59.5" y="88.9" class="st0" width="79.4" height="0.9"/>
	<rect x="72.2" y="76.1" class="st0" width="53.8" height="0.9"/>
	<g>
		<path class="st0" d="M153.2,200c0.5-1.3,1.2-3.4,1.8-5.9C154.3,196.9,153.6,198.7,153.2,200z"/>
		<path class="st0" d="M152.2,201.7c-2.5-0.3-19.4-7.6-23.5-10.6c-0.8-0.5-1.4-1.2-2.3-1.8c-3-2.6-6.4-5.6-8.2-7.6
			c-0.5-0.5-1-1-1.3-1.3c-1.6-1.4-9.3-5.3-12.6-5.3c-0.1,0-0.3,0-0.4,0c-1.7,0.3-3.1,1-4.6,1.8c-1,0.5-1.8,1.2-2.9,1.4
			c-2.5,0.8-5.9,0.8-6.3,0.4c-0.3-0.1-1-0.8-0.8-1.3c0.3-0.8,2.6-1.7,3.8-2.3c1.2-0.4,2.7-1.7,4.3-3c1.3-1,2.7-2.1,3.4-2.3
			c1.4-0.5,4.6-0.5,6.3-0.4c2.3,0.1,15.8,3.8,22.7,6c6.3,2.1,25.1,3.5,29.1,3.8c-1.2,5.9-2.5,11.2-3.6,15.2c0.4-1.2,0.9-2.5,1.3-3.9
			c1.8-5.9,3-12.5,3-12.5c-0.3,0-22.8-1.6-29.5-3.8c-6.9-2.3-20.3-5.9-22.8-6.1c-1.7-0.1-5.1-0.1-6.6,0.5c-0.1,0-0.3,0.1-0.5,0.3
			c-1.8-0.5-6.4-1-7.9-0.9c-2.5,0.3-15.9,3.8-22.8,6.1c-6.8,2.2-29.3,3.8-29.5,3.8h-0.8l0.1,0.8c0,0,1,6.6,3,12.6
			c3.6,11.3,4.3,12.8,5.2,12.8c0.1,0,13-5.9,20.7-10.2c3-1.7,8.9-4.8,10.6-5.1l0.9-1.7c-2.1,0.4-11.5,5.2-11.7,5.3
			c-10.2,5-17.2,8.7-20.5,9.9c-1.8,0.8-7.3-23.2-6.8-23.2c0,0,22.8-1.7,29.1-3.8c6.6-2.2,20.2-5.9,22.7-6c1.3-0.1,4.7,0.1,6.6,0.5
			c-0.5,0.4-1.2,0.9-1.8,1.4c-1.4,1.2-3.1,2.5-4.2,2.9c-2.5,1-3.9,1.8-4.3,2.9c-0.4,0.9,0,1.8,1.2,2.7c0.9,0.8,5,0.4,7.3-0.3
			c1.2-0.3,2.2-0.9,3.1-1.4c1.3-0.8,2.6-1.6,4-1.7c2.5-0.3,10.4,3.5,12,5.1c0.3,0.3,0.8,0.8,1.3,1.3c1.8,1.8,5.2,5,8.5,7.7
			c0.9,0.8,1.6,1.3,2.5,1.8c3.9,3,21.4,11.1,24.2,11.5c0,0,0.1-0.8,1-3.1C152.8,201,152.4,201.7,152.2,201.7z"/>
	</g>
	<g>
		<path class="st1" d="M43.4,115.8"/>
	</g>
	<g>
		<path class="st1" d="M46.8,116.5"/>
	</g>
	<g>
		<path class="st1" d="M43.2,115.8"/>
	</g>
	<g>
		<path class="st1" d="M46.8,116.5"/>
	</g>
	<g>
		<g>
			<g>
				<g>
					<path class="st0" d="M138.9,79.2L138.9,79.2l-18.5-6.5v0.1c0.8,0.4,1.6,0.9,2.5,1.3l16.3,5.9h0.1l-0.1-0.1
						C139.1,79.7,139,79.6,138.9,79.2z"/>
					<path class="st0" d="M153.6,61.9l-30.1-2.1l0,0c0.1,0,0.3-0.1,0.4-0.1c0.5-0.3,1.3-0.4,2.2-0.9c0.4-0.1,0.9-0.4,1.2-0.5l0,0
						c0.3-0.1,0.5-0.3,0.9-0.4c1.2-0.5,2.5-1,3.6-1.3c1.2-0.3,2.5-0.4,3.8-0.3c0.4,0,0.9,0,1.3,0.1l0,0c0.3,0,0.5,0,0.9,0
						c0.8,0,1.6,0.1,2.5,0c1.6-0.3,2.7-0.9,3.9-1.6l0,0c0.1-0.1,0.3-0.1,0.4-0.3c1.2-0.5,2.3-1.3,3.6-1.6c1.2-0.3,2.5-0.4,3.8-0.3
						c0.5,0.1,1.2-0.3,1.3-1c0-0.3,0-0.5-0.1-0.9c-0.1-0.3-0.4-0.4-0.8-0.5c-1.6-0.3-3.1-0.3-4.8,0c-1.6,0.3-2.9,1-4.2,1.6
						c-0.5,0.3-1.2,0.5-1.8,0.9c-0.3,0.1-0.5,0.1-0.9,0.3l0,0c-0.1,0-0.3,0-0.3,0.1h-0.1c-0.1,0-0.1,0-0.3,0l0,0
						c-0.8,0-1.6,0-2.5-0.1c-0.4,0-1-0.1-1.4-0.1c-1.6-0.1-3.1-0.1-4.8,0.1c-1.4,0.3-2.9,0.8-4.6,1.3c-0.3,0.1-0.5,0.3-0.9,0.4l0,0
						c-0.3,0.1-0.5,0.3-1,0.4c-0.8,0.3-1.3,0.4-1.8,0.5c-0.4,0.1-0.9,0.3-1.3,0.3l0,0l-0.1-0.3l28.3-14.1c0.4-0.3,0.5-0.8,0.4-1
						c-0.1-0.3-0.5-0.5-1-0.4l-28.8,10.4l0,0c0.1-0.1,0.4-0.4,0.5-0.5c0.5-0.4,1-1,1.6-1.6c0.3-0.3,0.5-0.5,0.9-0.9l0,0
						c0.1-0.3,0.4-0.4,0.5-0.8c0.9-1,1.8-1.8,2.7-2.6c1-0.8,2.1-1.3,3.4-1.7c0.4-0.1,0.8-0.3,1.2-0.4l0,0c0.3-0.1,0.4-0.1,0.8-0.3
						c0.8-0.3,1.4-0.5,2.3-1c1.3-0.9,2.2-1.8,3-2.9l0,0c0.1-0.1,0.1-0.3,0.3-0.3c0.9-1,1.7-2.1,2.6-2.9c1-0.8,2.1-1.3,3.4-1.7
						c0.5-0.1,1-0.9,0.9-1.4c0-0.3-0.3-0.5-0.5-0.8c-0.3-0.1-0.5-0.3-0.9-0.1c-1.6,0.3-3,1-4.3,1.8c-1.3,0.9-2.3,2.1-3.4,3.1
						c-0.4,0.4-0.9,1-1.4,1.4c-0.3,0.3-0.4,0.4-0.8,0.5l0,0c-0.1,0.1-0.1,0.1-0.3,0.1l0,0c0,0,0,0-0.1,0s-0.1,0.1-0.3,0.1l0,0
						c-0.5,0.3-1.4,0.5-2.3,0.9c-0.4,0.1-0.9,0.3-1.4,0.4c-1.6,0.4-3,1.2-4.3,2.1c-1.3,0.8-2.5,1.7-3.6,3c-0.3,0.3-0.4,0.4-0.8,0.8
						c-0.3,0.3-0.4,0.5-0.8,0.8c-0.5,0.5-1,1-1.4,1.3c-0.4,0.3-0.9,0.8-1.3,0.9l0,0l-0.1-0.1l20.6-24.4c0.3-0.4,0.1-0.9,0-1.2
						c-0.3-0.3-0.8-0.3-1.2,0l-22,20.8l0,0c0.1-0.3,0.3-0.5,0.4-0.8c0.3-0.5,0.5-1.3,0.9-2.2c0.1-0.4,0.3-0.8,0.4-1.2l0,0
						c0.1-0.3,0.1-0.5,0.3-0.9c0.4-1.3,0.9-2.5,1.6-3.5c0.5-1,1.4-2.1,2.3-2.9c0.3-0.3,0.5-0.5,0.9-0.9h0.1c0.1-0.1,0.3-0.3,0.5-0.4
						c0.5-0.5,1.2-1.2,1.7-1.8c0.9-1.3,1.3-2.6,1.6-3.9c0-0.1,0.1-0.3,0.1-0.5c0.3-1.3,0.8-2.6,1.3-3.8c0.5-1.2,1.4-2.1,2.3-2.9
						c0.4-0.4,0.5-1.2,0.3-1.6c-0.1-0.3-0.4-0.4-0.8-0.4c-0.3,0-0.5,0-0.9,0.1c-1.3,0.9-2.5,2.2-3.1,3.5c-0.9,1.3-1.3,2.7-1.8,4.2
						c-0.1,0.5-0.4,1.3-0.8,1.8c-0.1,0.3-0.3,0.5-0.4,0.9l0,0c0,0.1-0.1,0.1-0.1,0.3v0.1c0,0-0.1,0.1-0.1,0.3l0,0
						c-0.4,0.5-1.2,1-1.8,1.6l0,0c-0.3,0.3-0.8,0.5-1.2,0.9c-1.3,1-2.3,2.2-3.1,3.5c-0.9,1.2-1.6,2.6-2.2,4.2
						c-0.1,0.3-0.3,0.5-0.4,0.9V38c-0.1,0.3-0.3,0.5-0.4,0.9c-0.3,0.8-0.5,1.3-0.9,1.7c-0.3,0.5-0.5,1-0.9,1.4l0,0l0,0l0,0
						c-0.1,0-0.1-0.1-0.3-0.1l0,0l10.7-30.4c0.1-0.4-0.1-0.9-0.4-1c-0.3-0.1-0.9,0-1,0.4l-12.1,25.7l0,0c0-0.4,0-0.8,0-1.2
						c0-0.4,0-0.8-0.1-1.2l0,0c0-0.3,0-0.5-0.1-0.9c-0.1-1.3-0.1-2.6,0-3.8c0.1-1.2,0.4-2.5,1-3.6c0.1-0.4,0.3-0.8,0.5-1.2
						c0.1-0.3,0.3-0.4,0.3-0.8c0.3-0.8,0.5-1.4,0.9-2.3c0.3-1.6,0.1-2.9,0-4.2l0,0c0-0.1,0-0.3,0-0.4c-0.1-1.3-0.3-2.6-0.3-3.9
						c0.1-1.3,0.4-2.5,1-3.6c0.3-0.5,0.1-1.3-0.4-1.6c-0.3-0.1-0.5-0.3-0.9-0.1c-0.3,0.1-0.5,0.3-0.8,0.5c-0.9,1.3-1.4,2.9-1.6,4.6
						c-0.3,1.6-0.1,3,0,4.6c0,0.8,0.1,1.3,0.1,2.1c0,0.3,0,0.5,0,0.9l0,0c0,0.1,0,0.3,0,0.3l0,0c0,0,0,0,0,0.1c0,0.1,0,0.1,0,0.3
						l0,0c-0.1,0.8-0.5,1.4-1,2.2c-0.1,0.4-0.4,0.9-0.8,1.3c-0.8,1.4-1.3,3-1.6,4.6c-0.3,1.4-0.4,3-0.4,4.7c0,0.3,0,0.5,0,0.9V35
						c0,0.3,0,0.8,0,1c0,0.8,0,1.4-0.1,1.8c0,0.5-0.1,1.2-0.3,1.7c0,0.1,0,0.1-0.1,0.3l0,0l0,0c-0.1,0-0.3,0-0.3,0L99.7,8.1
						c0-0.4-0.4-0.8-0.8-0.8c-0.4,0-0.8,0.3-0.9,0.8l-1.4,30.5l0,0c-0.1-0.3-0.1-0.5-0.3-0.9c-0.3-0.5-0.4-1.3-0.9-2.2
						c-0.1-0.3-0.3-0.8-0.5-1v-0.1c-0.1-0.3-0.3-0.5-0.4-0.8c-0.5-1.2-1-2.5-1.3-3.6c-0.3-1.2-0.4-2.5-0.3-3.8c0-0.4,0-0.8,0-1.2
						v-0.1c0-0.3,0-0.4,0-0.8c0-0.8,0.1-1.6,0-2.5c-0.3-1.6-0.9-2.7-1.6-3.9c-0.1-0.1-0.1-0.3-0.3-0.4c-0.5-1.2-1.3-2.3-1.6-3.6
						c-0.3-1.2-0.4-2.5-0.3-3.8c0.1-0.5-0.3-1.2-1-1.3c-0.3,0-0.5,0-0.9,0.1C87,8.7,86.9,9,86.8,9.4c-0.3,1.6-0.3,3.1,0,4.8
						c0.3,1.6,1,2.9,1.6,4.2c0.3,0.5,0.5,1.2,0.9,1.8c0.1,0.3,0.1,0.5,0.3,0.9l0,0c0,0.1,0,0.1,0,0.3v0.1c0,0.1,0,0.1,0,0.3l0,0
						c0,0.8,0,1.6-0.1,2.5c0,0.4-0.1,1-0.1,1.4c-0.1,1.6-0.1,3.1,0.1,4.8c0.3,1.4,0.8,3,1.3,4.6c0.1,0.3,0.3,0.5,0.4,0.9l0,0
						c0.1,0.3,0.3,0.8,0.4,1c0.3,0.8,0.4,1.3,0.5,1.8c0.1,0.5,0.3,1.2,0.3,1.7l0,0h-0.1L77.9,11.8c-0.3-0.4-0.8-0.5-1-0.4
						c-0.3,0.1-0.5,0.5-0.4,1L87,41l0,0c-0.1-0.3-0.4-0.4-0.5-0.5c-0.4-0.4-1-1-1.6-1.6c-0.3-0.3-0.5-0.5-0.9-0.8L83.9,38
						c-0.3-0.1-0.4-0.4-0.5-0.5c-1-0.9-1.8-1.8-2.6-2.7c-0.8-1-1.3-2.1-1.7-3.4c-0.1-0.4-0.3-0.8-0.4-1.2c-0.1-0.3-0.1-0.5-0.3-0.8
						c-0.3-0.8-0.5-1.4-1-2.3c-0.9-1.3-1.8-2.2-2.9-3c-0.1-0.1-0.3-0.3-0.4-0.3c-1-0.9-2.1-1.7-2.9-2.6c-0.8-1-1.3-2.1-1.7-3.4
						c-0.1-0.5-0.9-1-1.4-0.9c-0.3,0-0.5,0.3-0.8,0.5c-0.1,0.3-0.3,0.5-0.1,0.9c0.3,1.6,1,3,1.8,4.3C70,24,71.1,25,72.2,26
						c0.4,0.4,1,0.9,1.4,1.4c0.3,0.3,0.4,0.4,0.5,0.8l0,0c0.1,0.1,0.1,0.1,0.1,0.3l0.1,0.1c0,0.1,0.1,0.1,0.1,0.3l0,0
						c0.3,0.5,0.5,1.4,0.9,2.3l0,0c0.1,0.4,0.3,0.9,0.4,1.4c0.4,1.6,1.2,3,2.1,4.3c0.8,1.3,1.7,2.5,3,3.6c0.3,0.3,0.4,0.4,0.8,0.8
						l0,0c0.3,0.3,0.5,0.4,0.8,0.8c0.5,0.5,1,1,1.3,1.4c0.4,0.4,0.8,1,1,1.4c0,0,0,0.1,0.1,0.1l0,0l0,0L60.2,23.3
						c-0.4-0.3-0.9-0.1-1.2,0c-0.3,0.3-0.3,0.8,0,1.2l20.8,22.2l0,0c-0.3-0.1-0.5-0.3-0.8-0.4c-0.5-0.3-1.3-0.5-2.2-0.9
						c-0.3-0.1-0.8-0.3-1.2-0.4h-0.1c-0.3-0.1-0.5-0.1-0.9-0.3c-1.3-0.4-2.5-0.9-3.5-1.6c-1-0.5-2.1-1.4-2.9-2.3
						c-0.3-0.3-0.5-0.5-0.9-0.9c-0.1-0.1-0.4-0.4-0.5-0.5c-0.5-0.5-1.2-1.2-1.8-1.7c-1.3-0.9-2.6-1.3-3.9-1.6l0,0
						c-0.1,0-0.3-0.1-0.4-0.1c-1.3-0.3-2.6-0.8-3.8-1.3c-1.2-0.5-2.1-1.4-2.9-2.3c-0.4-0.4-1.2-0.5-1.6-0.3
						c-0.5,0.4-0.8,1.2-0.3,1.7c0.9,1.3,2.2,2.5,3.5,3.1c1.3,0.9,2.7,1.3,4.2,1.8c0.5,0.1,1.3,0.4,1.8,0.8c0.3,0.1,0.5,0.3,0.9,0.4
						l0,0c0.1,0,0.1,0.1,0.3,0.1h-0.3c0.1,0,0.1,0.1,0.3,0.1l0,0c0.5,0.4,1,1.2,1.6,1.8c0.3,0.3,0.5,0.8,0.9,1.2
						c1,1.3,2.2,2.3,3.5,3.1c1.2,0.9,2.6,1.6,4.2,2.2c0.3,0.1,0.8,0.3,1,0.4c0.3,0.1,0.8,0.3,1,0.4c0.8,0.3,1.3,0.5,1.7,0.9
						c0.5,0.3,1,0.5,1.4,0.9l0.1,0.1l0,0l-0.1,0.3L47.9,40.9c-0.4-0.1-0.9,0.1-1,0.4c-0.1,0.3,0,0.9,0.4,1l25.7,12l0,0
						c-0.3,0-0.8,0-1.2,0c-0.4,0-0.8,0-1.2,0.1h-0.1c-0.3,0-0.5,0-0.9,0.1c-1.3,0.1-2.6,0.1-3.8,0c-1.2-0.1-2.5-0.4-3.6-1
						c-0.4-0.1-0.8-0.3-1.2-0.5l0,0c-0.3-0.1-0.4-0.3-0.8-0.3c-0.8-0.3-1.4-0.5-2.3-0.9c-1.6-0.3-2.9-0.1-4.2,0h-0.1
						c-0.1,0-0.3,0-0.4,0c-1.3,0.1-2.6,0.3-3.9,0.3c-1.3-0.1-2.5-0.4-3.6-1c-0.5-0.3-1.3-0.1-1.6,0.4c-0.1,0.3-0.3,0.5-0.1,0.9
						c0.1,0.3,0.3,0.5,0.5,0.8c1.3,0.9,2.9,1.4,4.6,1.6c1.6,0.3,3,0.1,4.6,0c0.5,0,1.3-0.1,2.1-0.1l0,0c0.3,0,0.5,0,0.9,0l0,0
						c0.1,0,0.3,0,0.3,0h0.1c0.1,0,0.1,0,0.3,0l0,0c0.8,0.1,1.4,0.5,2.2,1l0,0c0.4,0.3,0.9,0.4,1.3,0.8c1.4,0.8,3,1.3,4.6,1.6
						c1.4,0.3,3,0.4,4.7,0.4c0.4,0,0.8,0,1,0c0.4,0,0.8,0,1,0c0.8,0,1.4,0,1.8,0.1c0.5,0,1.2,0.1,1.7,0.3c0.1,0,0.1,0,0.3,0.1l0,0
						l0,0c0,0.1,0,0.3,0,0.3L44,61c-0.4,0-0.8,0.4-0.8,0.9c0,0.4,0.3,0.8,0.8,0.8l30.2,1.7l0,0c-0.3,0.1-0.5,0.1-0.9,0.3
						c-0.8,0.3-1.3,0.4-2.2,0.9c-0.4,0.1-0.8,0.4-1.2,0.5l0,0c-0.3,0.1-0.5,0.3-0.9,0.4c-1.2,0.5-2.5,1-3.6,1.3
						c-1.2,0.3-2.5,0.4-3.8,0.3c-0.4,0-0.9,0-1.3-0.1h-0.1c-0.3,0-0.4,0-0.8,0c-0.8,0-1.6-0.1-2.5,0c-1.6,0.3-2.7,0.9-3.9,1.6
						c-0.1,0.1-0.3,0.1-0.4,0.3c-1.2,0.5-2.3,1.3-3.6,1.6c-1.2,0.3-2.5,0.4-3.8,0.3c-0.5-0.1-1.2,0.3-1.3,1c0,0.3,0,0.5,0.1,0.9
						c0.1,0.4,0.4,0.4,0.8,0.5c1.6,0.3,3.1,0.3,4.8,0c1.6-0.3,2.9-1,4.2-1.6c0.5-0.3,1.2-0.5,1.8-0.9c0.3-0.1,0.5-0.1,0.9-0.3l0,0
						c0.1,0,0.3,0,0.3-0.1l0,0c0,0,0,0,0.1,0c0.1,0,0.1,0,0.3,0l0,0c0.8,0,1.6,0,2.5,0.1l0,0c0.4,0,1,0.1,1.4,0.1
						c1.6,0.1,3.1,0.1,4.8-0.1c1.4-0.3,2.9-0.8,4.6-1.3c0.3-0.1,0.5-0.3,0.9-0.3l0,0c0.3-0.1,0.8-0.3,1-0.4c0.8-0.3,1.3-0.4,1.8-0.5
						c0.5-0.1,1.2-0.3,1.6-0.3l0,0l0,0v0.1l0,0l-16.4,8.1h-0.1l0,0l0,0c0.1,0.1,0.1,0.3,0,0.4l0.1,0.3l17.9-8.5l0,0v-0.3
						c0-0.1-0.1-0.4-0.1-0.5v-0.3h-0.3h-0.1c-0.5,0-1.2,0.1-1.7,0.3c-0.5,0.1-1.2,0.3-1.8,0.5c-0.3,0.1-0.8,0.3-1,0.4l0,0
						c-0.3,0.1-0.5,0.3-0.9,0.4c-1.4,0.5-2.9,1-4.3,1.3s-3,0.3-4.7,0.1c-0.4,0-1-0.1-1.4-0.1l0,0c-0.9-0.1-1.7-0.3-2.6-0.1
						c-0.1,0-0.3,0-0.4,0h-0.4c-0.1,0-0.3,0-0.4,0.1c-0.3,0.1-0.8,0.1-0.9,0.3c-0.5,0.3-1.3,0.5-1.8,0.9c-1.3,0.5-2.6,1.2-4.2,1.6
						c-1.4,0.3-3,0.3-4.6,0c-0.1,0-0.3-0.1-0.4-0.3c-0.1-0.1-0.1-0.3-0.1-0.4c0-0.3,0.3-0.5,0.8-0.4c1.3,0.1,2.6,0,3.9-0.3
						c1.3-0.4,2.6-1,3.8-1.7c0.1,0,0.3-0.1,0.4-0.1h0.1c1.2-0.5,2.3-1.2,3.8-1.4c0.9-0.1,1.6-0.1,2.3,0c0.3,0,0.5,0,0.9,0l0,0
						c0.4,0,0.9,0,1.3,0.1c1.4,0,2.6,0,3.9-0.3c1.2-0.3,2.5-0.8,3.8-1.3c0.3-0.1,0.5-0.3,0.9-0.4l0,0c0.3-0.1,0.8-0.4,1.2-0.5
						c0.9-0.4,1.4-0.5,2.2-0.9c0.8-0.3,1.6-0.4,2.3-0.5H77v-0.8l-32.2-1.4c-0.1,0-0.1-0.1-0.1-0.1s0-0.1,0.1-0.1L77,60.8l0,0v-0.3
						c0-0.3,0-0.5,0.1-0.8v-0.1l-0.5-0.5h-0.1c-0.1-0.1-0.3-0.1-0.5-0.3c-0.5-0.1-1.2-0.3-1.7-0.3s-1.2-0.1-2.1-0.1
						c-0.4,0-0.8,0-1,0s-0.8,0-1,0c-1.6,0-3.1,0-4.6-0.3c-1.4-0.3-2.9-0.9-4.3-1.6c-0.4-0.3-0.9-0.4-1.3-0.8
						c-0.9-0.4-1.6-0.9-2.3-1.2c-0.1,0-0.3,0-0.3-0.1h-0.1c-0.1,0-0.3,0-0.4,0c-0.3,0-0.5,0-1,0l0,0c-0.8,0-1.4,0-2.1,0.1
						c-1.4,0.1-2.9,0.1-4.6,0c-1.4-0.3-2.9-0.8-4.2-1.6c-0.4-0.5-0.5-0.8-0.5-0.9c0-0.1,0-0.3,0.1-0.4c0.1-0.3,0.5-0.4,0.9-0.3
						c1.2,0.5,2.5,1,3.8,1.2c1.3,0.1,2.7,0,4-0.3c0.1,0,0.3,0,0.3,0h0.1c1.3-0.1,2.6-0.3,4,0c0.9,0.1,1.6,0.4,2.2,0.8
						c0.3,0.1,0.4,0.3,0.8,0.3l0,0c0.4,0.1,0.8,0.3,1.2,0.5c1.3,0.5,2.5,0.9,3.8,1c1.2,0.1,2.6,0.1,3.9,0c0.3,0,0.5,0,0.9-0.1
						c0.4,0,0.9-0.1,1.2-0.1c0.9,0,1.6-0.1,2.3,0h0.1h1.4L47.3,41.3c-0.1-0.1-0.1-0.1-0.1-0.3c0,0,0.1-0.1,0.3-0.1l30.9,10.8l0,0
						l0.1-0.3c0,0,0.3-0.4,0.3-0.5l0.1-0.1l-0.1-0.1c-0.1-0.1-0.3-0.3-0.4-0.4c-0.4-0.4-1-0.8-1.6-1c-0.4-0.3-1-0.5-1.7-0.9
						c-0.3-0.1-0.8-0.3-1-0.4l0,0c-0.3-0.1-0.5-0.3-0.9-0.4c-1.4-0.5-2.9-1.3-4-2.2c-1.2-0.9-2.3-1.8-3.4-3
						c-0.3-0.4-0.5-0.8-0.9-1.2c-0.5-0.8-1.2-1.4-1.7-1.8c-0.1-0.1-0.1-0.1-0.3-0.3h-0.1c-0.1,0-0.1-0.1-0.3-0.3
						c-0.3-0.1-0.5-0.3-0.9-0.4c-0.5-0.3-1.3-0.5-1.8-0.8c-1.3-0.4-2.7-1-4-1.7c-1.3-0.8-2.5-1.8-3.4-3c-0.1-0.3-0.1-0.8,0.1-0.9
						c0.3-0.1,0.5-0.1,0.9,0.1c0.9,1,1.8,1.8,3,2.6c1.2,0.5,2.6,1,3.8,1.3c0.1,0,0.3,0.1,0.4,0.1l0,0c1.2,0.3,2.5,0.8,3.8,1.6
						c0.8,0.4,1.2,1,1.7,1.6c0.1,0.1,0.4,0.4,0.5,0.5c0.3,0.3,0.5,0.8,0.9,1c1,1,1.8,1.8,3,2.5c1,0.5,2.3,1.2,3.6,1.6
						c0.3,0.1,0.5,0.1,0.9,0.3l0,0c0.3,0.1,0.8,0.3,1.2,0.4c0.9,0.3,1.4,0.5,2.2,0.9c0.8,0.3,1.4,0.8,2.2,1.2c0,0,0.1,0.1,0.3,0.1
						l0.3,0.1l0.4-0.4L59.1,24.1c-0.1-0.1,0-0.3,0-0.3s0.1-0.1,0.3,0l24.8,21.1l0,0l0.1-0.1c0.1-0.1,0.3-0.3,0.4-0.3l0.1-0.1v-0.1
						c0-0.1-0.1-0.3-0.1-0.4c-0.3-0.5-0.5-1-1-1.4c-0.3-0.4-0.8-0.9-1.3-1.4c-0.3-0.3-0.5-0.5-0.8-0.8l0,0c-0.3-0.3-0.4-0.4-0.8-0.8
						c-1.2-1.2-2.2-2.3-2.9-3.5c-0.9-1.2-1.4-2.6-1.8-4.2c-0.1-0.4-0.3-1-0.4-1.3l0,0c-0.3-0.9-0.4-1.7-0.9-2.5
						c0-0.1-0.1-0.3-0.1-0.3v-0.1c0-0.1-0.1-0.3-0.3-0.3c-0.1-0.3-0.4-0.5-0.5-0.8c-0.4-0.4-1-1-1.4-1.4c-1-1-2.2-2.1-3-3.1
						c-0.9-1.2-1.4-2.6-1.8-4.2c0-0.1,0-0.3,0.1-0.4c0.1-0.1,0.3-0.3,0.4-0.3c0.3,0,0.5,0.1,0.8,0.4c0.4,1.3,1,2.5,1.8,3.5
						c0.9,1,2.1,1.8,3,2.7c0.1,0.1,0.3,0.3,0.4,0.3c1,0.8,2.1,1.6,2.7,2.9c0.4,0.8,0.8,1.4,1,2.2c0.1,0.3,0.1,0.5,0.3,0.8l0,0
						c0.1,0.4,0.3,0.9,0.4,1.2c0.4,1.3,1,2.5,1.8,3.5c0.8,1,1.6,2.1,2.7,2.9c0.3,0.1,0.4,0.4,0.8,0.5l0,0c0.3,0.3,0.5,0.5,0.9,0.8
						c0.8,0.5,1.2,1.2,1.6,1.6c0.5,0.5,1,1.3,1.4,1.8c0,0,0,0.1,0.1,0.1l0.1,0.3l0.5-0.3L77.2,11.8c0-0.1,0-0.3,0.1-0.3
						c0,0,0.1,0,0.3,0.1L92,40.9l0,0l0.3-0.1c0.1,0,0.4-0.1,0.5-0.1H93v-0.3c0-0.1,0-0.1,0-0.3c0-0.5-0.1-1.2-0.3-1.7
						c-0.1-0.5,0.1-1.4-0.1-2.1c-0.1-0.3-0.3-0.5-0.4-0.9l-0.1-0.1c-0.1-0.3-0.3-0.5-0.3-0.9c-0.5-1.4-1-2.9-1.3-4.3
						c-0.3-1.4-0.3-3-0.1-4.7c0-0.4,0.1-1,0.1-1.4c0.1-0.9,0.3-1.8,0.1-2.6c0-0.1,0-0.3,0-0.4c0,0,0,0,0-0.1l0,0
						c0-0.1,0-0.3-0.1-0.4c-0.1-0.3-0.1-0.5-0.3-0.9c-0.3-0.5-0.5-1.3-0.9-1.8c-0.5-1.3-1.2-2.6-1.6-4.2c-0.3-1.4-0.3-3,0-4.6
						c0-0.1,0.1-0.3,0.3-0.4c0.1-0.1,0.3-0.1,0.4-0.1c0.3,0,0.5,0.3,0.4,0.8c-0.1,1.3,0,2.6,0.3,3.9c0.4,1.3,1,2.6,1.7,3.8
						c0.1,0.1,0.1,0.3,0.3,0.4c0.5,1.2,1.2,2.3,1.4,3.8c0.1,0.9,0.1,1.6,0,2.3c0,0.3,0,0.5,0,0.9c0,0.4,0,0.9-0.1,1.3
						c0,1.4,0,2.6,0.3,3.9c0.3,1.2,0.8,2.5,1.3,3.8c0.1,0.3,0.3,0.5,0.4,0.9c0.1,0.3,0.3,0.8,0.5,1.2c0.4,0.9,0.5,1.4,0.9,2.2
						c0.3,0.8,0.4,1.6,0.5,2.3v0.3h0.8l1.4-32.2c0-0.1,0.1-0.1,0.1-0.1s0.1,0,0.1,0.1l1.8,32.2l0,0h0.3c0.3,0,0.5,0,0.9,0.1h0.1
						l0.1-0.1c0-0.1,0.1-0.3,0.3-0.5c0.1-0.5,0.3-1.2,0.3-1.7c0-0.5,0.1-1.2,0.1-2.1c0-0.3,0-0.8,0-1.2l0,0c0-0.3,0-0.5,0-1
						c0-1.6,0-3.1,0.3-4.6c0.3-1.4,0.9-2.9,1.6-4.3c0.3-0.4,0.4-0.9,0.8-1.3c0.4-0.9,0.9-1.6,1.2-2.3c0-0.1,0-0.3,0.1-0.3v-0.1
						c0-0.1,0-0.3,0-0.4c0-0.3,0-0.5,0-1c0-0.8,0-1.4-0.1-2.1c-0.1-1.4-0.1-2.9,0-4.6c0.3-1.4,0.8-2.9,1.6-4.2
						c0.1-0.1,0.3-0.3,0.4-0.3c0.1,0,0.3,0,0.4,0.1c0.3,0.1,0.4,0.5,0.3,0.9c-0.5,1.2-1,2.5-1.2,3.8s0,2.7,0.3,4c0,0.1,0,0.3,0,0.4
						v-0.1c0.1,1.3,0.3,2.6,0,4c-0.1,0.9-0.4,1.6-0.8,2.2c-0.5,0-0.8,0.3-0.8,0.5l0,0c-0.1,0.4-0.3,0.8-0.5,1.2
						c-0.5,1.3-0.9,2.5-1,3.8c-0.1,1.2-0.1,2.6,0,3.9c0,0.3,0,0.5,0.1,0.9c0,0.4,0.1,0.9,0.1,1.2c0,0.9,0.1,1.6,0,2.3v0.1v1.4
						l14.2-28.1c0.1-0.1,0.1-0.1,0.3-0.1c0,0,0.1,0.1,0.1,0.3l-11.2,30.9l0,0l0.3,0.1c0.3,0.1,0.4,0.3,0.8,0.4l0.1,0.1l0.1-0.1
						c0.1-0.1,0.1-0.1,0.3-0.3c0.3-0.4,0.8-1,1-1.6c0.3-0.4,0.5-1,0.9-1.7c0.1-0.3,0.3-0.5,0.4-1v-0.1c0.1-0.3,0.1-0.5,0.3-0.9
						c0.5-1.4,1.3-2.9,2.2-4c0.9-1.2,1.8-2.3,3-3.4c0.4-0.3,0.8-0.5,1.2-0.9l0,0c0.8-0.5,1.4-1.2,1.8-1.7c0.1-0.1,0.1-0.1,0.3-0.3
						v-0.1c0-0.1,0.1-0.1,0.3-0.4c0.1-0.3,0.3-0.5,0.4-0.9l0,0c0.3-0.5,0.4-1.3,0.8-1.8c0.4-1.3,1-2.7,1.7-4c0.8-1.3,1.8-2.5,3-3.4
						c0.1-0.1,0.3-0.1,0.4-0.1c0.1,0,0.3,0.1,0.4,0.3c0.1,0.3,0.1,0.5-0.1,0.9c-1,0.9-1.8,1.8-2.6,3c-0.5,1.2-1,2.6-1.3,3.9
						c0,0.1-0.1,0.3-0.1,0.4l0,0c-0.3,1.2-0.8,2.5-1.6,3.8c-0.4,0.8-1,1.2-1.6,1.7c-0.1,0.1-0.3,0.3-0.4,0.4l-0.1,0.1
						c-0.3,0.3-0.5,0.5-1,0.9c-1,1-1.8,1.8-2.5,3c-0.5,1-1.2,2.3-1.6,3.6c-0.1,0.3-0.1,0.5-0.3,0.9v0.1c-0.1,0.4-0.3,0.8-0.4,1.2
						c-0.3,0.9-0.5,1.4-0.9,2.2c-0.3,0.8-0.8,1.4-1.2,2.2l0,0l-0.1,0.3l0.5,0.4l23.5-22.2c0.1-0.1,0.3,0,0.3,0s0.1,0.1,0,0.3
						L116,47.5l0,0l0.1,0.1c0.1,0.1,0.3,0.3,0.4,0.5l0.1,0.1l0.1-0.1c0,0,0.1,0,0.1-0.1c0.5-0.3,1-0.5,1.4-1
						c0.4-0.3,0.9-0.8,1.4-1.3c0.3-0.3,0.5-0.5,0.8-0.8c0.3-0.3,0.4-0.4,0.8-0.8c1.2-1.2,2.3-2.2,3.5-2.9c1.2-0.9,2.6-1.4,4.2-1.8
						c0.4-0.1,1-0.3,1.4-0.4c0.9-0.3,1.7-0.4,2.5-0.9c0.1,0,0.3-0.1,0.3-0.1h0.1c0.1,0,0.3-0.1,0.3-0.3c0.3-0.1,0.4-0.4,0.8-0.5
						c0.4-0.4,1-1,1.4-1.4c1-1,2.1-2.2,3.1-3c1-0.8,2.6-1.4,4-1.8c0.1,0,0.3,0,0.4,0.1c0.1,0.1,0.3,0.3,0.3,0.4
						c0,0.3-0.1,0.5-0.4,0.8c-1.3,0.4-2.5,1-3.5,1.8c-1,0.8-1.8,2.1-2.7,3c-0.1,0.1-0.1,0.1-0.3,0.3l-0.1,0.1
						c-0.8,1-1.6,2.1-2.9,2.7c-0.8,0.4-1.4,0.8-2.2,1c-0.3,0.1-0.5,0.1-0.8,0.3c-0.4,0.1-0.9,0.3-1.2,0.4c-1.3,0.4-2.5,1.2-3.5,1.8
						c-1,0.8-2.1,1.6-2.9,2.7c-0.1,0.1-0.3,0.4-0.5,0.5v0.1c-0.3,0.3-0.5,0.5-0.9,0.9c-0.5,0.8-1.2,1.2-1.6,1.6
						c-0.5,0.5-1.2,1-1.8,1.4l-0.3,0.1l0.3,0.5l30.1-11.2c0.1,0,0.3,0,0.3,0.1c0,0,0,0.1-0.1,0.3L120.1,55l0,0l0.1,0.3
						c0.1,0.3,0.1,0.4,0.1,0.8v0.3h0.3c0.5,0,1.2-0.1,1.7-0.3c0.5-0.1,1.2-0.3,1.8-0.5c0.3-0.1,0.5-0.3,1-0.4l0,0
						c0.3-0.1,0.5-0.3,0.9-0.4c1.4-0.5,2.9-1,4.3-1.3c1.4-0.3,3-0.3,4.7-0.1c0.4,0,1,0.1,1.4,0.1l0,0c0.9,0.1,1.8,0.3,2.6,0.1
						c0.1,0,0.3,0,0.4,0h0.1c0.1,0,0.3,0,0.4-0.1c0.3-0.1,0.5-0.1,0.9-0.3c0.5-0.3,1.3-0.5,1.8-0.9c1.3-0.5,2.6-1.2,4.2-1.6
						c1.4-0.3,3-0.3,4.6,0c0.1,0,0.3,0.1,0.4,0.3c0.1,0.1,0.1,0.3,0.1,0.4c0,0.3-0.4,0.5-0.8,0.4c-1.3-0.1-2.6,0-3.9,0.3
						c-1.3,0.4-2.6,1-3.8,1.7c-0.1,0-0.3,0.1-0.4,0.1l0,0c-1.2,0.5-2.3,1.2-3.8,1.4c-0.9,0.1-1.6,0.1-2.3,0c-0.3,0-0.5,0-0.9,0
						s-0.9,0-1.3-0.1c-1.4,0-2.6,0-3.9,0.3c-1.2,0.3-2.5,0.8-3.8,1.3c-0.3,0.1-0.5,0.3-0.8,0.4h-0.1c-0.3,0.1-0.8,0.3-1,0.5
						c-0.9,0.4-1.4,0.5-2.2,0.9c-0.8,0.3-1.3,0.4-2.1,0.5h0.4v0.5l32.2,2.2C153.6,61.7,153.6,61.9,153.6,61.9c0,0,0,0.1-0.1,0.1
						l-32.2,1.3v0.3c0,0.4-0.1,0.8-0.1,1.2v0.9l0.3,0.1c0.1,0,0.1,0,0.3,0c0.5,0.1,1.2,0.3,1.7,0.3c0.5,0,1.2,0.1,2.1,0.1
						c0.4,0,0.8,0,1.2,0h0.1c0.3,0,0.5,0,0.9,0c1.6,0,3.1,0,4.6,0.3s2.9,0.9,4.3,1.6c0.4,0.3,0.9,0.4,1.3,0.8
						c0.9,0.4,1.6,0.9,2.3,1.2c0.1,0,0.3,0,0.3,0.1h0.1c0.1,0,0.3,0,0.4,0c0.3,0,0.8,0,1,0l0,0c0.8,0,1.4,0,2.1-0.1
						c1.4-0.1,2.9-0.1,4.6,0c1.4,0.3,2.9,0.8,4.2,1.6c0.1,0.1,0.3,0.3,0.3,0.4c0,0.1,0,0.3-0.1,0.4c-0.1,0.3-0.5,0.4-0.9,0.3
						c-1.2-0.5-2.5-1-3.8-1.2c-1.3-0.1-2.7,0-4,0.3c-0.1,0-0.3,0-0.4,0l0,0c-1.3,0.1-2.6,0.3-4,0c-0.9-0.1-1.6-0.4-2.2-0.8
						c-0.3-0.1-0.5-0.3-0.8-0.3c-0.4-0.1-0.8-0.4-1.2-0.5c-1.3-0.5-2.5-0.9-3.8-1c-1.2-0.1-2.6-0.1-3.9,0c-0.3,0-0.5,0-0.9,0.1l0,0
						c-0.4,0-0.9,0.1-1.2,0.1c-0.9,0-1.6,0-2.3,0h-0.1h-1.4l16.2,7.7h0.1v-0.1c0,0,0-0.1,0.1-0.3c0,0,0.1,0,0.1-0.1h0.1L124.8,70
						l0,0c0.3,0,0.8,0,1.2,0c0.4,0,0.9,0,1.2-0.1l0,0c0.3,0,0.5,0,0.9-0.1c1.3-0.1,2.6-0.1,3.8,0c1.2,0.1,2.5,0.4,3.6,1
						c0.4,0.1,0.8,0.3,1.2,0.5h0.1c0.3,0.1,0.4,0.1,0.8,0.3c0.8,0.3,1.4,0.5,2.3,0.9c1.6,0.3,2.9,0.1,4.2,0c0.1,0,0.3,0,0.5,0
						c1.3-0.1,2.6-0.3,3.9-0.3c1.3,0.1,2.5,0.4,3.6,1c0.5,0.3,1.3,0.1,1.6-0.4c0.1-0.3,0.3-0.5,0.1-0.9c-0.1-0.3-0.3-0.5-0.5-0.8
						c-1.3-0.9-2.9-1.4-4.6-1.6c-1.6-0.3-3-0.1-4.6,0c-0.5,0-1.3,0.1-2.1,0.1l0,0c-0.3,0-0.5,0-0.9,0l0,0c-0.1,0-0.3,0-0.3,0h-0.1
						c-0.1,0-0.1,0-0.3,0l0,0c-0.8-0.1-1.4-0.5-2.2-1l0,0c-0.4-0.3-0.9-0.4-1.3-0.8c-1.4-0.8-3-1.3-4.6-1.6c-1.4-0.3-3-0.4-4.7-0.4
						c-0.4,0-0.8,0-1,0l0,0c-0.3,0-0.8,0-1,0c-0.8,0-1.4,0-1.8-0.1c-0.5,0-1.2-0.1-1.6-0.3l0,0l0,0c0-0.1,0-0.4,0-0.5l31.8-1.3
						c0.4,0,0.8-0.4,0.8-0.8C154.4,62.3,154.1,61.9,153.6,61.9z M118.8,28L118.8,28L118.8,28L118.8,28z"/>
					<path class="st0" d="M58.9,79.9L58.9,79.9c-0.1,0.3-0.3,0.4-0.3,0.5l-0.1,0.1l15.1-5.6c0.9-0.4,1.6-0.9,2.2-1.3l1.4-0.8
						L58.9,79.9z"/>
				</g>
				<g>
					<path class="st0" d="M105.4,53.9c-1.4,0.4-2.2,1.4-2.2,1.4l-0.1,0.1l0.1,0.1c1,1.2,2.3,1.6,3.6,1.6c2.3,0,4.6-1.4,4.6-1.4
						l0.3-0.3l-0.4-0.3C108.7,53.3,106.6,53.4,105.4,53.9z M105.5,54.4c-0.1,0.5-0.3,1.6,0.1,2.2c-0.8-0.1-1.3-0.4-1.8-1.2
						C104.1,55.2,104.6,54.7,105.5,54.4z M108,56.5c0.5-0.5,0.4-1.6,0.3-2.2c0.8,0.1,1.4,0.5,2.3,1.2C110,55.8,109.2,56.3,108,56.5z
						"/>
					<path class="st0" d="M107,52.4L107,52.4c-2.1,0-3.9,0.9-5.6,2.6l-0.3,0.3l0.1,0.1c0,0.1,1,2.3,3.5,3c0.5,0.1,1.2,0.3,1.7,0.3
						c1.6,0,3.5-0.5,5.3-1.8l-0.3-0.4c-2.5,1.6-4.8,2.1-6.5,1.4c-1.8-0.5-2.7-2.1-3-2.6c1.6-1.4,3.1-2.3,5.1-2.2
						c3.4,0,5.9,2.6,5.9,2.6l0.4-0.4C113.1,55.2,110.5,52.4,107,52.4z"/>
					<path class="st0" d="M90.5,57.2c1.3,0,2.5-0.4,3.6-1.6l0.1-0.1l-0.1-0.1c0,0-0.8-1-2.2-1.4c-1.3-0.4-3.4-0.5-6,1.4l-0.3,0.3
						l0.3,0.3C86.1,55.9,88.2,57.2,90.5,57.2z M93.5,55.5c-0.5,0.5-1.3,0.9-1.8,1.2c0.4-0.5,0.3-1.6,0.1-2.2
						C92.8,54.7,93.3,55.2,93.5,55.5z M89.1,54.4C89,55,88.8,56,89.4,56.7c-1.2-0.3-2.1-0.8-2.6-1C87.7,54.8,88.3,54.6,89.1,54.4z"
						/>
					<path class="st0" d="M106.7,49.5c-4.8,0-7.6,2.6-7.6,7.2c0,4.8,1.7,5.2,2.7,5.5c0.1,0,0.3,0,0.4,0.1c0.9,0.1,1.3,0.3,1.3,1.2
						c0,0.4-0.1,0.5-0.5,0.8c-0.5,0.3-1.6,0-2.1-0.4l-0.3-0.1l-0.1,0.3c0,0-0.5,0.5-1.8,0.5S96.9,64,96.9,64l-0.1-0.3L96.5,64
						c-0.5,0.5-1.4,0.8-2.1,0.4c-0.3-0.1-0.5-0.4-0.5-0.8c0-0.9,0.4-1,1.3-1.2c0.1,0,0.3,0,0.4-0.1c0.9-0.3,2.6-0.8,2.6-5.5
						c0-4.6-2.7-7.2-7.6-7.2c-4.3,0-7.3,3.6-7.4,3.8l0.4,0.4c0,0,2.7-3.5,6.8-3.5c4.6,0,6.9,2.3,6.9,6.5c0,4.3-1.4,4.8-2.2,5H95
						c-0.1,0-0.3,0-0.3,0.1C93.9,62,93,62.3,93,63.7c0,0.5,0.3,1.2,0.9,1.3c0.8,0.3,1.8,0.1,2.6-0.4c0.3,0.3,1,0.5,2.1,0.5l0,0
						c1,0,1.7-0.3,2.1-0.5c0.4,0.4,1.2,0.5,1.7,0.5c0.3,0,0.5,0,0.9-0.1c0.5-0.3,0.9-0.8,0.9-1.3c0-1.4-1-1.7-1.7-1.8
						c-0.1,0-0.3,0-0.3-0.1h-0.1l0,0c-0.8-0.1-2.2-0.5-2.2-5c0-4.2,2.5-6.5,6.9-6.5c4,0,6.8,3.5,6.8,3.5l0.4-0.4
						C113.9,53.1,111,49.5,106.7,49.5z"/>
					<path class="st0" d="M96,55.4l0.1-0.1L96,55.1c-1.7-1.7-3.6-2.6-5.5-2.6l0,0c-3.5,0-6.1,2.6-6.3,2.7l0.4,0.4
						c0,0,2.6-2.6,5.9-2.6l0,0c1.7,0,3.5,0.8,5,2.2c-0.3,0.5-1.3,2.1-3,2.6c-1.8,0.5-4,0-6.5-1.4l-0.4,0.5c1.8,1.2,3.8,1.8,5.3,1.8
						c0.5,0,1.2-0.1,1.7-0.3C95.1,57.6,96,55.5,96,55.4z"/>
				</g>
			</g>
		</g>
	</g>
	<path class="st0" d="M99,244.7c-34.7,0-62.9-39.7-62.9-88.6c0.1-48.9,28.3-88.6,62.9-88.6s62.9,39.7,62.9,88.6
		S133.8,244.7,99,244.7z M99,69.3c-33.8,0-61.2,39-61.2,86.9s27.4,86.9,61.2,86.9s61.2-39,61.2-86.9S132.8,69.3,99,69.3z"/>
	<g>
		<path class="st1" d="M43.2,115.8"/>
	</g>
	<g>
		<path class="st0" d="M181.5,151.9c-0.1-0.1-0.4,0-0.5,0.1c-0.4,0.3-0.9,0.8-1.3,1.2l-0.1,0.1c-0.9,0.8-1.8,1.7-2.9,2.6
			c-0.4-1.3-0.9-2.5-1.3-3.6l0,0c-0.1-0.4-0.3-0.8-0.4-1c0.3-0.1,0.5-0.4,0.9-0.5c1.7-1.3,3.4-2.5,4.2-4.8c0.1-0.3,0.1-0.5,0.3-0.9
			c0.8-2.6,0.3-6.6-0.1-9.8c0-0.5-0.1-1.2-0.1-1.6c0-0.1-0.1-0.4-0.4-0.4c-0.1,0-0.4,0-0.5,0.1c-0.3,0.4-0.8,0.9-1.2,1.4
			c-0.8,0.9-1.6,2.1-2.5,3c-0.5-1.2-1.3-2.3-1.8-3.4l0,0c-0.3-0.4-0.5-0.9-0.8-1.3c0.3-0.3,0.5-0.5,0.9-0.9c1.6-1.6,2.9-2.9,3.5-5.3
			c0-0.3,0.1-0.5,0.1-0.9c0.4-2.6-0.8-6.6-1.4-9.5c-0.1-0.5-0.3-1-0.4-1.6c0-0.1-0.3-0.3-0.4-0.4c-0.1,0-0.4,0-0.5,0.3
			c-0.3,0.4-0.5,1-1,1.6c-0.5,1-1.3,2.2-2.1,3.4c-0.8-1-1.6-2.2-2.3-3l0,0c-0.3-0.3-0.4-0.5-0.8-0.9c0.1-0.3,0.4-0.5,0.5-0.9
			c1.3-1.7,2.5-3.4,2.6-5.9c0-0.3,0-0.5,0-0.9c0-2.6-1.7-6.4-3-9.3c-0.3-0.5-0.4-1-0.8-1.4c-0.1-0.1-0.3-0.3-0.4-0.3
			c-0.1,0-0.4,0.1-0.4,0.3c-0.1,0.5-0.4,1.2-0.8,1.7l0,0c-0.4,1.2-1,2.3-1.4,3.6c-0.9-0.9-1.8-1.8-2.9-2.6c-0.3-0.3-0.5-0.5-0.9-0.9
			c0-0.3,0.1-0.4,0.1-0.8l0,0c0.5-2.3,1-4.6-0.3-7.3c-1-2.3-3.9-5-6.1-6.9l0,0c-0.4-0.4-0.9-0.9-1.3-1.2c-0.1-0.1-0.4-0.1-0.5-0.1
			c-0.1,0.1-0.3,0.3-0.3,0.4c0,0.5,0,1.2,0,1.7c0,1.7,0.1,3.9,0.3,5.9c-1.7-0.4-3.8-0.9-5.5-1.2c-0.5-0.1-1.3-0.3-1.7-0.3
			c-0.1,0-0.4,0-0.5,0.3c-0.1,0.1-0.1,0.4,0,0.5c0.3,0.4,0.5,0.9,1,1.4c1.7,2.6,3.9,5.9,6.1,7.3c1.7,1.2,3.4,1.4,5,1.4
			c0.8,0,1.4,0,2.2-0.1c0.1,0,0.3,0,0.4,0c0,0.3,0,0.4,0,0.8c0,1.3,0,2.7,0.1,4c-1.3-0.5-2.6-1-3.8-1.4c-0.5-0.3-1.3-0.4-1.7-0.5
			c-0.1-0.1-0.4,0-0.5,0.1s-0.1,0.4-0.1,0.5c0.1,0.4,0.4,0.9,0.8,1.4c1.3,2.7,3,6.5,5,8.5c2.3,2.1,4.3,2.3,6.8,2.5l0,0
			c0.3,0,0.4,0,0.8,0.1c0,0.3-0.1,0.5-0.1,0.9c-0.1,1.3-0.4,2.6-0.5,4c-1.2-0.8-2.5-1.4-3.5-2.1c-0.5-0.3-1.2-0.5-1.6-0.9
			c-0.1-0.1-0.4-0.1-0.5,0c-0.1,0.1-0.3,0.3-0.1,0.5c0.1,0.4,0.3,1,0.4,1.4l0,0c0.8,2.9,1.8,6.9,3.5,9.1c1.8,2.3,3.9,2.9,6.4,3.6
			l0,0c0.3,0.1,0.5,0.1,0.9,0.3c-0.1,0.4-0.3,0.9-0.4,1.3c-0.4,1.3-0.8,2.6-1.2,3.9c-1-0.9-2.2-1.7-3.1-2.5l0,0
			c-0.5-0.4-1-0.8-1.4-1.2c-0.1-0.1-0.4-0.1-0.5,0c-0.1,0.1-0.3,0.3-0.3,0.5c0,0.4,0.1,1,0.1,1.4v0.1c0.4,3,0.9,7.2,2.2,9.4
			c1.6,2.6,3.5,3.5,5.9,4.6c0.1,0.1,0.4,0.1,0.8,0.3c-0.1,0.3-0.3,0.5-0.4,0.9l0,0c-0.5,1.2-1.2,2.5-1.7,3.8c-0.9-1-1.8-2.1-2.7-2.9
			c-0.4-0.5-0.9-1-1.3-1.3c-0.1-0.1-0.4-0.1-0.5-0.1c-0.1,0-0.3,0.3-0.3,0.4c0,0.4,0,1,0,1.6c-0.1,3-0.3,7.3,0.5,9.8
			c1,2.9,2.9,4,5,5.3c0.3,0.1,0.5,0.4,0.9,0.5c-0.1,0.3-0.4,0.8-0.5,1.2l0,0c-0.8,1.2-1.4,2.3-2.1,3.6c-0.9-1.2-1.7-2.2-2.5-3.1
			c-0.4-0.5-0.9-1-1.2-1.4c-0.1-0.1-0.3-0.3-0.5-0.1c-0.1,0-0.3,0.3-0.4,0.4c0,0.4-0.1,0.9-0.1,1.4v0.1c-0.4,3-1,7.2-0.3,9.8
			c0.9,2.9,2.5,4.2,4.6,5.9c0.1,0.1,0.4,0.3,0.8,0.5c-0.1,0.3-0.4,0.4-0.5,0.8c-0.9,1-1.7,2.1-2.6,3.1c-0.5-1.2-1.3-2.5-1.8-3.5
			c-0.3-0.5-0.5-1.2-0.9-1.6c-0.1-0.1-0.3-0.3-0.4-0.3l0,0c-0.1,0-0.4,0.1-0.4,0.4c-0.1,0.4-0.3,0.9-0.4,1.4
			c-0.9,2.9-2.2,6.9-1.8,9.5c0.3,3,1.7,4.7,3.5,6.4c0.1,0.1,0.4,0.4,0.5,0.5c-0.3,0.1-0.4,0.4-0.8,0.5l0,0c-1,0.9-2.1,1.7-3,2.7
			c-0.4-1.3-0.9-2.6-1.3-3.8c-0.3-0.5-0.4-1.2-0.8-1.7c0-0.1-0.3-0.3-0.4-0.3c-0.1,0-0.4,0.1-0.4,0.3c-0.1,0.4-0.4,0.9-0.5,1.3v0.1
			c-1.3,2.7-3.1,6.5-3.1,9.1c-0.1,3,1,4.8,2.5,6.8c0.1,0.3,0.4,0.5,0.5,0.9c-0.3,0.1-0.8,0.4-1.2,0.5c-1.2,0.5-2.3,1.3-3.6,2.1
			c-0.1-1.3-0.3-2.7-0.5-3.9c-0.1-0.8-0.1-1.3-0.3-1.8c0-0.1-0.1-0.4-0.4-0.4c-0.1,0-0.4,0-0.5,0.1c-0.3,0.4-0.5,0.9-1,1.3
			c-1.8,2.5-4.3,5.9-5.1,8.2c-0.8,2.9,0,5,1,7.3c0.1,0.3,0.3,0.8,0.4,1.2c-0.4,0.1-0.9,0.3-1.4,0.4l0,0c-1.3,0.3-2.6,0.8-3.9,1.2
			c0.1-1.3,0.3-2.7,0.4-3.9c0-0.8,0.1-1.3,0.1-1.8c0-0.1-0.1-0.4-0.3-0.5c-0.1-0.1-0.4-0.1-0.5,0c-0.3,0.3-0.8,0.5-1.2,1l0,0
			c-2.3,1.8-5.6,4.6-6.9,6.8c-1.4,2.7-1.2,4.8-0.8,7.3c0,0.3,0.1,0.8,0.1,1c-0.4,0-0.9,0-1.3,0h-0.1c-1.3,0-2.7,0-4,0.1
			c0.5-1.3,1-2.6,1.4-3.8c0.3-0.5,0.4-1.2,0.8-1.7c0.1-0.1,0-0.4-0.1-0.5s-0.4-0.1-0.5-0.1c-0.4,0.1-0.9,0.4-1.3,0.5h-0.1
			c-2.7,1.2-6.6,2.9-8.6,4.8c-2.1,2.2-2.3,4.3-2.6,6.8c0,0.4-0.1,0.9-0.1,1.3c0,0.1,0,0.3,0,0.3c0,0.1,0.1,0.1,0.1,0.3
			c0.4,0.3,0.8,0.5,1,0.8l0,0c1.7,1.3,3.4,2.5,5.9,2.7c0.3,0,0.5,0,0.9,0c2.6,0,6.5-1.6,9.3-2.9c0.5-0.3,1-0.4,1.4-0.5
			c0.1-0.1,0.3-0.3,0.3-0.4c0-0.1-0.1-0.4-0.3-0.4c-0.4-0.1-1-0.4-1.6-0.8h-0.1c-1.2-0.4-2.3-1-3.6-1.4c1-0.9,1.8-1.8,2.7-2.7
			c0.4-0.4,0.9-0.9,1.3-1.3c0.3,0.1,0.8,0.3,1,0.4c1.6,0.5,3,1.2,4.8,1.2c0.4,0,1,0,1.6-0.1c0.3,0,0.5-0.1,0.9-0.1
			c2.6-0.8,5.9-3.4,8.2-5.2l0,0c0.4-0.3,0.9-0.8,1.2-1c0.1-0.1,0.3-0.3,0.1-0.5c0-0.1-0.3-0.3-0.4-0.4c-0.5,0-1.2-0.1-1.8-0.3
			c-1.2-0.1-2.5-0.3-3.9-0.4c0.8-1.2,1.3-2.3,1.8-3.5v-0.1c0.3-0.5,0.5-1,0.9-1.6c0,0,0,0,0-0.1c0.4,0,0.8,0.1,1.2,0.1l0,0
			c1,0.1,1.8,0.3,2.9,0.3c1.2,0,2.3-0.1,3.5-0.8c0.3-0.1,0.5-0.3,0.9-0.4c2.3-1.3,5-4.7,6.6-7.2c0.3-0.4,0.8-0.9,1-1.3
			c0.1-0.1,0.1-0.4,0-0.5c-0.1-0.1-0.3-0.3-0.5-0.3c-0.5,0-1.2,0.1-1.8,0.1c-1.2,0.1-2.6,0.3-3.9,0.4c0.4-1.3,0.8-2.6,1-3.8V222
			c0.1-0.5,0.3-1.2,0.4-1.6c0.3,0,0.8,0,1-0.1c2.2-0.1,4.2-0.3,6.3-1.7c0.3-0.1,0.4-0.3,0.8-0.5c2.1-1.7,3.8-5.5,5.1-8.2
			c0.3-0.5,0.4-1,0.8-1.4c0.1-0.1,0-0.4-0.1-0.5c-0.1-0.1-0.4-0.1-0.5-0.1c-0.5,0.1-1.2,0.4-1.7,0.5c-1.2,0.4-2.5,0.8-3.6,1.3
			c0.1-1.3,0.1-2.6,0.3-3.9v-0.1c0-0.4,0-0.9,0-1.2c0.3-0.1,0.5-0.1,0.9-0.1l0,0c2.2-0.4,4-0.9,5.9-2.6c0.1-0.1,0.4-0.4,0.5-0.8
			c1.7-2.1,2.9-6,3.9-9c0.1-0.5,0.3-1,0.4-1.4c0-0.1,0-0.4-0.1-0.5c-0.1-0.1-0.4-0.1-0.5,0c-0.4,0.3-1,0.5-1.7,0.9
			c-1,0.5-2.3,1.2-3.5,1.7c-0.1-1.3-0.3-2.6-0.3-3.9c0-0.4-0.1-0.9-0.1-1.3c0.3-0.1,0.5-0.3,0.9-0.3c2.1-0.9,3.8-1.6,5.3-3.6
			c0.1-0.3,0.3-0.4,0.4-0.8c1.3-2.3,1.8-6.4,2.3-9.4v-0.1c0-0.5,0.1-1,0.1-1.4c0-0.1,0-0.4-0.3-0.5c-0.1-0.1-0.4-0.1-0.5,0
			c-0.4,0.3-1,0.8-1.4,1.2c-1,0.8-2.1,1.4-3,2.3c-0.3-1.3-0.8-2.6-1-3.8v-0.1c-0.1-0.5-0.3-1-0.4-1.4c0.3-0.1,0.5-0.3,0.9-0.4l0,0
			c2.1-1,3.6-1.8,5-4c0.1-0.3,0.3-0.5,0.4-0.8c1.2-2.3,1.3-6.5,1.4-9.5v-0.4c0-0.5,0-1,0.1-1.4C181.8,152.2,181.6,151.9,181.5,151.9
			z M163.6,214.2c-1.2,2.5-2.9,3.4-5,4.3c-0.1,0.1-0.3,0.1-0.5,0.3c0-0.1-0.1-0.3-0.1-0.5c-0.4-2.3-0.9-4.2,0.3-6.6
			c0.4-0.9,1.2-1.7,2.1-2.7c0.3,1.2,0.4,2.2,0.4,3c0,0.1,0.1,0.4,0.3,0.4c0.1,0.1,0.4,0,0.5,0c0.8-0.5,1.7-1.2,2.7-1.6
			C164.4,212.1,164,213.3,163.6,214.2z M157.5,211.2c-1.2,2.3-1,4.2-0.5,6.3c-1-1.6-1.8-3.1-1.7-5.5c0.1-2.5,1.8-6.1,3.1-8.7
			l0.1-0.3c0.1,0.1,0.1,0.4,0.3,0.5c0.4,1.3,1,2.7,1.4,4.2C159,208.9,158,210,157.5,211.2z M162,218c1.2-0.9,2.2-1.8,2.7-3.4
			c0.5-1.2,0.9-2.6,1-4.3c1.3-0.5,2.7-1,4-1.4l0,0c0.1,0,0.4-0.1,0.5-0.1l-0.1,0.3c-1.3,2.6-3,6.4-5,7.9c-1.7,1.4-3.4,1.8-5.2,2.1
			C160.9,218.6,161.3,218.4,162,218z M162,211.1c-0.1-0.9-0.3-1.8-0.5-3c1.2-1.2,2.3-2.2,3.4-3c0.1-0.1,0.3-0.3,0.4-0.3
			c0,0.1,0,0.3,0,0.4v0.3c0,1.3-0.1,2.9-0.3,4.3C163.8,210,162.7,210.6,162,211.1z M170.6,197.3c-0.9,2.6-2.3,3.8-4.2,5.1l-0.1,0.1
			c-0.1,0.1-0.1,0.1-0.3,0.3c0-0.1-0.1-0.3-0.1-0.4v-0.1c-0.9-2.3-1.4-4-0.8-6.6c0.3-0.9,0.9-1.8,1.6-3c0.4,1,0.9,2.1,1,3
			c0,0.1,0.1,0.3,0.3,0.4c0.1,0,0.4,0,0.5-0.1c0.5-0.8,1.6-1.3,2.6-2.1C171.1,195.2,170.9,196.5,170.6,197.3z M163.9,195.3
			c-0.8,2.5-0.3,4.3,0.3,6.3c-1.3-1.4-2.3-2.7-2.6-5.2c-0.3-2.5,0.9-6.3,1.7-9.1l0.1-0.3c0.1,0.1,0.1,0.4,0.3,0.5
			c0.8,1.2,1.4,2.6,2.2,3.9C165.1,192.8,164.4,194.1,163.9,195.3z M169.2,201.3c1-1,1.7-2.2,2.3-3.8c0.4-1.2,0.4-2.7,0.4-4.3
			c1.3-0.8,2.6-1.4,3.8-2.1l0,0c0.1-0.1,0.4-0.1,0.5-0.3l-0.1,0.3c-0.9,2.7-2.1,6.6-3.6,8.6c-1.4,1.7-3,2.3-4.8,2.7
			C168.5,202.1,168.9,201.8,169.2,201.3z M168.5,194.4c-0.3-0.9-0.5-1.8-1-2.9c0.9-1.3,2.1-2.5,2.9-3.5l0.3-0.4c0,0.1,0,0.3,0,0.4
			v0.1c0.1,1.3,0.3,2.9,0.4,4.3C170,193.2,169.1,193.9,168.5,194.4z M174.9,179.5c-0.3,2.7-1.7,4-3.4,5.9c-0.1,0.1-0.3,0.3-0.4,0.4
			c-0.1-0.1-0.1-0.3-0.3-0.4c-1.2-2.1-2.2-3.8-1.7-6.5c0.1-1,0.5-2.1,1-3.1c0.5,1,1.2,1.8,1.4,2.7c0,0.1,0.3,0.3,0.4,0.3
			c0.1,0,0.4,0,0.4-0.3c0.5-0.8,1.3-1.6,2.2-2.3C174.9,177.3,174.9,178.6,174.9,179.5z M167.8,178.6c-0.3,2.6,0.4,4.3,1.3,6.1
			c-1.6-1.2-2.7-2.5-3.4-4.7c-0.8-2.3-0.1-6.4,0.3-9.3v-0.3c0.1,0.1,0.3,0.3,0.4,0.5c0.9,1.2,1.8,2.3,2.7,3.6
			C168.6,176,167.9,177.5,167.8,178.6z M174.2,183.7c0.9-1.2,1.4-2.5,1.6-4c0.1-1.3,0-2.7-0.3-4.3c1.2-0.9,2.3-1.7,3.5-2.6l0,0
			c0.1-0.1,0.3-0.3,0.5-0.4v0.3c-0.4,2.9-0.9,6.9-2.2,9c-1.2,1.8-2.6,2.7-4.3,3.5C173.4,184.6,173.8,184.2,174.2,183.7z
			 M172.1,177.2c-0.4-0.9-0.9-1.7-1.6-2.6c0.8-1.4,1.6-2.7,2.3-3.9l0.3-0.4c0,0.1,0.1,0.3,0.1,0.4v0.1c0.3,1.3,0.8,2.7,1,4.2
			C173.5,175.5,172.6,176.4,172.1,177.2z M167.2,122.7c1,0.8,1.7,1.3,2.3,2.1c0.1,0.1,0.3,0.1,0.5,0.1c0.1,0,0.3-0.1,0.4-0.4
			c0.1-0.9,0.5-2.1,1.2-3c0.8,1.2,1.3,2.2,1.6,3.1c0.8,2.6,0,4.3-0.9,6.5v0.1c0,0.1-0.1,0.3-0.1,0.4c-0.1-0.1-0.3-0.1-0.3-0.3h-0.1
			c-1.8-1.4-3.5-2.6-4-5.2C167.2,125.2,167.2,124,167.2,122.7z M174.1,128.7c0.3-1.4,0.3-2.9,0-4.3c-0.3-1.2-1-2.6-2.1-3.9
			c0.8-1.3,1.4-2.6,2.2-3.8l0.1-0.1c0.1-0.1,0.1-0.3,0.3-0.4l0.1,0.3c0.8,2.9,1.8,6.8,1.4,9.1c-0.3,2.2-1.3,3.5-2.6,4.8
			C173.8,129.9,173.9,129.2,174.1,128.7z M169.6,123.4c-0.8-0.5-1.6-1.3-2.5-1.8c0.1-1.6,0.4-3.1,0.5-4.6l0.1-0.4l0.4,0.4
			c0.9,1,1.7,2.3,2.6,3.5C170.3,121.4,169.9,122.5,169.6,123.4z M166.4,126.4c0.8,2.5,2.1,3.9,3.6,5.2c-1.8-0.5-3.5-1.2-5-3
			c-1.4-1.8-2.6-5.9-3.4-8.7l-0.1-0.3c0.1,0.1,0.4,0.1,0.5,0.3c1.3,0.8,2.6,1.4,3.9,2.2C166,123.6,166.1,125.2,166.4,126.4z
			 M173.9,152.1c0-0.1,0.1-0.1,0.1-0.3l0.3,0.5c0.4,1.3,1,2.7,1.4,4c-0.8,0.8-1.4,1.6-2.1,2.5c-0.4-0.9-1-1.7-1.7-2.5
			c0.5-1.4,1.3-2.9,1.8-4.2L173.9,152.1z M173.5,160.7c0.1,0,0.4-0.1,0.4-0.3c0.4-0.9,1.2-1.7,2.1-2.6c0.3,1.3,0.5,2.5,0.4,3.5
			c-0.1,2.7-1.3,4.2-2.9,6l-0.1,0c-0.1,0.1-0.1,0.1-0.3,0.3c-0.1-0.1-0.1-0.3-0.3-0.4l0,0c-1.3-2.1-2.5-3.6-2.3-6.3
			c0-1,0.3-2.1,0.8-3.4c0.8,0.9,1.3,1.8,1.6,2.6C173.2,160.5,173.4,160.7,173.5,160.7z M169.6,160.8c-0.1,2.6,0.8,4.3,1.8,6
			c-1.6-1.2-2.9-2.2-3.8-4.3c-0.9-2.3-0.8-6.4-0.5-9.3V153c0.1,0.1,0.3,0.3,0.4,0.4c1,1,2.1,2.2,3,3.4
			C170.2,158.2,169.8,159.6,169.6,160.8z M176.3,165.3c0.8-1.3,1.2-2.6,1.3-4.2c0-1.3-0.3-2.7-0.8-4.3c1-1,2.2-2.1,3.1-2.9l0,0
			c0.1-0.1,0.3-0.3,0.4-0.4v0.3c-0.1,2.9-0.3,6.9-1.4,9.1c-1,2.1-2.3,2.9-3.9,3.8C175.6,166.4,176,166,176.3,165.3z M172.6,142.7
			c0.1,0.1,0.3,0.3,0.4,0.3c0.1,0,0.4-0.1,0.4-0.3c0.3-0.9,0.9-1.8,1.6-2.9c0.5,1.2,1,2.3,1,3.4c0.3,2.7-0.5,4.3-1.8,6.4v0.1
			c-0.1,0.1-0.1,0.3-0.3,0.4c-0.1-0.1-0.3-0.3-0.4-0.4l0,0c-1.7-1.7-3-3-3.4-5.9c-0.1-1,0-2.2,0.3-3.4
			C171.5,141,172.2,141.9,172.6,142.7z M176.7,147.1c0.5-1.4,0.8-2.7,0.5-4.3c-0.1-1.3-0.8-2.7-1.4-4.2c0.9-1.2,1.8-2.3,2.7-3.4
			l0.1-0.1c0.1-0.1,0.1-0.3,0.3-0.4v0.3c0.3,2.9,0.9,6.9,0.1,9.3c-0.5,2.2-1.7,3.4-3.4,4.6C176.3,148.3,176.5,147.8,176.7,147.1z
			 M173,141.4c-0.5-0.8-1.3-1.4-2.2-2.2c0.3-1.6,0.9-3,1.2-4.6v-0.1c0-0.1,0-0.3,0.1-0.3l0.3,0.5c0.8,1.2,1.4,2.5,2.2,3.8
			C173.9,139.4,173.4,140.5,173,141.4z M169.2,143.8c0.3,2.6,1.4,4,2.9,5.6c-1.7-0.9-3.4-1.6-4.6-3.6c-1.2-2.2-1.7-6.1-2.1-9.1v-0.3
			c0.1,0.1,0.3,0.3,0.5,0.4c1.2,0.9,2.5,1.7,3.5,2.7C169.5,141,169.1,142.5,169.2,143.8z M164.4,108.1c0.1-0.1,0.3-0.3,0.3-0.4
			c0-1,0.3-2.1,0.5-3.1c0.9,1,1.6,1.8,2.1,2.9c1.2,2.5,0.8,4.3,0.1,6.6c0,0.1-0.1,0.4-0.1,0.5c-0.1-0.1-0.3-0.1-0.4-0.3
			c-2.2-1.2-3.8-2.1-5-4.6c-0.4-0.9-0.5-2.1-0.9-3.4c1,0.4,2.1,1,2.7,1.6C163.9,108.3,164,108.3,164.4,108.1z M169,111.1
			c0.1-1.4-0.1-2.9-0.8-4.3c-0.5-1.2-1.4-2.3-2.6-3.6c0.4-1.3,1-2.7,1.6-4V99c0.1-0.1,0.1-0.3,0.1-0.5l0.1,0.3
			c1.3,2.7,2.9,6.4,3,8.9c0,2.3-0.8,3.6-1.7,5.2C168.9,112.4,168.9,111.9,169,111.1z M163.6,106.7c-0.8-0.5-1.7-1-2.7-1.4
			c-0.1-1.6-0.1-3.1-0.1-4.7v-0.1c0-0.1,0-0.3,0-0.3c0.1,0.1,0.1,0.1,0.3,0.3l0.1,0.1c1,0.9,2.2,1.8,3.1,3
			C164,104.7,163.8,105.8,163.6,106.7z M160.9,110.1c1.2,2.3,2.6,3.5,4.6,4.6c-2.1-0.3-3.6-0.5-5.3-2.2c-1.7-1.7-3.5-5.3-4.8-7.9
			l-0.1-0.3c0.1,0,0.4,0.1,0.5,0.1c1.3,0.4,2.7,1,4.2,1.6C160.1,107.5,160.5,109.2,160.9,110.1z M159.5,98.4
			c-2.1-1.2-3.6-2.1-4.8-4.6c-0.1-0.4-0.4-1-0.5-1.6c0.5,0.3,1.2,0.4,1.6,0.8C158,94.5,158.7,96.3,159.5,98.4z M160.1,97.6
			c-0.8-2.1-1.6-3.9-3.9-5.3c-0.8-0.4-1.4-0.8-2.3-1.2c-0.3-2.1-0.3-4.2-0.4-6.1v-0.4c0.1,0.1,0.3,0.3,0.4,0.4c2.1,1.8,5,4.6,6,6.6
			C160.9,93.8,160.6,95.5,160.1,97.6z M153.7,94.3c1.2,2.6,2.9,3.6,4.8,4.7c-2.1,0.1-3.8,0.1-6-1.2c-2.1-1.3-4.2-4.6-5.9-6.9
			l-0.3-0.4c0.1,0,0.4,0,0.5,0.1c1.7,0.3,3.9,0.8,5.9,1.3C153.2,92.8,153.5,93.5,153.7,94.3z M153.6,230.1c-1.6,2.2-3.5,2.6-5.9,3.4
			c-0.1,0-0.4,0.1-0.5,0.1c0-0.1,0-0.3,0-0.5c0-2.5,0-4.3,1.7-6.5c0.5-0.8,1.4-1.6,2.5-2.3c0,1.2,0,2.2-0.1,3.1c0,0.1,0,0.4,0.1,0.5
			s0.4,0.1,0.5,0c0.9-0.4,1.8-0.8,3-1C154.8,228.2,154.3,229.3,153.6,230.1z M148.1,225.9c-1.6,2.1-1.8,3.9-1.8,6
			c-0.8-1.8-1.2-3.5-0.5-5.9c0.5-2.3,3-5.5,5-7.9l0.1-0.3c0,0.1,0,0.4,0.1,0.5c0.1,1.4,0.4,2.9,0.5,4.6
			C150.2,223.9,149.1,224.9,148.1,225.9z M151,233.4c1.4-0.5,2.5-1.4,3.5-2.7c0.8-1,1.4-2.5,1.8-3.9c1.4-0.3,2.9-0.4,4.3-0.5l0,0
			c0.3,0,0.4,0,0.5,0l-0.1,0.3c-1.7,2.3-4.3,5.5-6.4,6.8c-2.1,1.2-3.6,1.2-5.5,0.9C149.8,233.9,150.5,233.8,151,233.4z M152.4,226.6
			c0.1-0.9,0.1-2.1,0-3c1.3-0.9,2.7-1.6,3.9-2.3l0.4-0.3c0,0.1-0.1,0.4-0.1,0.5c-0.3,1.3-0.8,2.7-1.2,4.2
			C154.5,226.1,153.5,226.3,152.4,226.6z M140.1,243.5c-2.2,1.7-4,1.7-6.4,1.8c-0.1,0-0.4,0-0.5,0c0-0.1,0.1-0.3,0.1-0.5
			c0.5-2.3,1-4.2,3.1-6c0.8-0.5,1.7-1.2,3-1.6c-0.3,1.2-0.4,2.2-0.9,3c-0.1,0.1,0,0.4,0,0.5c0.1,0.1,0.3,0.3,0.5,0.1
			c0.9-0.1,2.1-0.3,3.1-0.3C141.6,242,140.8,243,140.1,243.5z M135.6,238.2c-2.1,1.6-2.7,3.5-3.1,5.3c-0.3-1.8-0.3-3.6,0.8-5.6
			c1.2-2.2,4.3-4.7,6.6-6.5l0.3-0.3c0,0.1,0,0.4,0,0.5c-0.1,1.4-0.3,2.9-0.4,4.6C138.1,236.8,136.7,237.3,135.6,238.2z M136.7,246.1
			c1.4-0.3,2.7-0.9,3.9-1.8c1-0.8,1.8-2.1,2.7-3.5c1.4,0.1,2.9,0.3,4.3,0.4h0.3c0.1,0,0.3,0,0.4,0l-0.3,0.3
			c-2.3,1.8-5.5,4.3-7.8,5.1c-2.2,0.5-3.8,0.3-5.5-0.4C135.5,246.3,136.2,246.3,136.7,246.1z M139.8,239.9c0.3-0.9,0.5-1.8,0.8-3
			c1.4-0.5,3-1,4.3-1.3l0.4-0.1c-0.1,0.1-0.1,0.4-0.3,0.5c-0.5,1.2-1.3,2.5-2.2,3.8C141.9,239.7,140.7,239.7,139.8,239.9z
			 M123.5,253.2c-2.5,1-4.3,0.5-6.6,0h-0.1c-0.1,0-0.3-0.1-0.4-0.1c0.1-0.1,0.1-0.3,0.3-0.4l0,0c1.2-2.1,2.2-3.8,4.7-4.8
			c0.9-0.4,2.1-0.5,3.4-0.8c-0.5,1-1,1.8-1.6,2.6c-0.1,0.1-0.1,0.3-0.1,0.5c0.1,0.1,0.3,0.3,0.4,0.3c1,0,2.1,0.3,3.1,0.5
			C125.3,252,124.3,252.7,123.5,253.2z M120.9,246.8c-2.5,1-3.5,2.6-4.7,4.3c0.3-1.8,0.5-3.6,2.3-5.3c1.8-1.7,5.3-3.4,8.1-4.6
			l0.3-0.1c-0.1,0.1-0.1,0.4-0.3,0.5c-0.4,1.3-1,2.7-1.6,4.2C123.5,246,121.8,246.1,120.9,246.8z M119.6,254.7c0.3,0,0.5,0,0.9,0
			c1.2,0,2.3-0.3,3.5-0.8c1.2-0.5,2.5-1.4,3.6-2.5c1.3,0.4,2.7,1,4,1.6l0,0c0.1,0.1,0.4,0.1,0.5,0.3l-0.3,0.1
			c-2.7,1.2-6.5,2.7-8.9,2.7c-2.3,0-3.6-0.8-5.2-1.8C118.4,254.6,118.9,254.7,119.6,254.7z M124.2,249.5c0.5-0.8,1-1.7,1.4-2.6
			c1.6-0.1,3.1-0.1,4.7-0.1h0.5c-0.1,0.1-0.1,0.1-0.3,0.3l-0.1,0.1c-0.9,1-2.1,2.1-3,3C126.2,249.9,125.2,249.7,124.2,249.5z"/>
		<path class="st0" d="M138.4,78.6c1.3,2.7,2.9,6.1,4.8,7.7c2.2,1.8,4.2,2.1,6.5,2.2l0,0c0.4,0,0.8,0,1.2,0.1l0,0c0,0,0,0,0.1,0l0,0
			c0.1,0,0.1-0.1,0.3-0.1c0.1-0.1,0.1-0.3,0.1-0.4c-0.1-0.4-0.1-0.8-0.3-1.2c-0.4-2.3-0.9-4.2-3-6.1c-1.8-1.6-5.3-2.7-8.1-3.6
			c-0.5-0.1-1.2-0.4-1.7-0.5c-0.1,0-0.4,0-0.5,0.1c-0.1,0.1-0.1,0.4,0,0.5C137.8,77.5,138.1,78,138.4,78.6z M139.1,77.6l0.5,0.1
			c2.6,0.9,6.1,2.1,7.8,3.5c1.8,1.7,2.3,3.5,2.7,5.6l0,0c0,0.1,0,0.3,0.1,0.4c-0.1,0-0.3,0-0.4,0h-0.1c-2.3-0.1-4-0.3-6-2.1
			c-1.7-1.4-3.4-5-4.6-7.4C139.1,77.9,139.1,77.8,139.1,77.6z"/>
		<path class="st0" d="M80.1,245c-1.8-1.8-5.6-3.6-8.6-4.8l0,0c-0.4-0.1-1-0.4-1.4-0.5c-0.1-0.1-0.4,0-0.5,0.1
			c-0.1,0.1-0.1,0.4-0.1,0.5c0.1,0.5,0.4,1.2,0.5,1.7l0,0c0.4,1.2,0.9,2.5,1.4,3.8c-1.4,0-2.7,0-4-0.1h-0.1c-0.4,0-0.9,0-1.3,0
			c0-0.3,0.1-0.8,0.1-1l0,0c0.4-2.5,0.8-4.6-0.8-7.3c-1.3-2.3-4.6-5-6.9-6.8l0,0c-0.4-0.3-0.9-0.8-1.2-1c-0.1-0.1-0.4-0.1-0.5,0
			c-0.1,0.1-0.3,0.3-0.3,0.5c0,0.5,0.1,1.3,0.1,1.8c0.1,1.3,0.3,2.6,0.4,3.9c-1.3-0.4-2.7-0.9-3.9-1.2l0,0c-0.5-0.1-1-0.3-1.4-0.4
			c0.1-0.4,0.3-0.8,0.4-1.2c0.9-2.3,1.7-4.2,1-7.3c-0.8-2.6-3.1-6-5.1-8.2c-0.3-0.4-0.8-0.9-1-1.3c-0.1-0.1-0.3-0.3-0.5-0.1
			c-0.1,0-0.3,0.3-0.4,0.4c-0.1,0.5-0.1,1.2-0.3,1.8c-0.1,1.2-0.4,2.6-0.5,3.9c-1.2-0.8-2.5-1.4-3.6-2.1c-0.4-0.3-0.8-0.4-1.2-0.5
			c0.1-0.3,0.4-0.5,0.5-0.9c1.4-2.1,2.6-3.8,2.5-6.8c-0.1-2.6-1.8-6.4-3.1-9.1v-0.1c-0.3-0.4-0.4-1-0.5-1.3
			c-0.1-0.1-0.3-0.3-0.4-0.3c-0.1,0-0.4,0.1-0.4,0.3c-0.1,0.5-0.4,1.2-0.5,1.7l0,0c-0.4,1.2-0.9,2.5-1.3,3.8c-1-1-2.1-1.8-3-2.7l0,0
			c-0.3-0.3-0.4-0.4-0.8-0.5c0.1-0.1,0.4-0.4,0.5-0.5c1.7-1.8,3.1-3.4,3.5-6.4c0.3-2.6-1-6.6-1.8-9.5c-0.1-0.5-0.3-1-0.4-1.4
			c0-0.1-0.3-0.3-0.4-0.4c-0.1,0-0.4,0.1-0.5,0.3c-0.3,0.4-0.5,1-0.9,1.6c-0.5,1.2-1.3,2.3-1.8,3.5c-0.9-1.2-1.7-2.2-2.6-3.1l0,0
			c-0.1-0.3-0.4-0.4-0.5-0.8c0.1-0.1,0.4-0.3,0.5-0.5l0,0c1.8-1.4,3.6-2.7,4.6-5.9c0.8-2.6,0.1-6.6-0.3-9.8
			c-0.1-0.5-0.1-1.2-0.1-1.6c0-0.1-0.1-0.4-0.4-0.4c-0.1,0-0.4,0-0.5,0.1c-0.3,0.4-0.8,0.9-1.2,1.4c-0.8,1-1.6,2.1-2.5,3.1
			c-0.8-1.2-1.4-2.5-2.1-3.6l0,0c-0.3-0.4-0.4-0.8-0.8-1.2c0.3-0.1,0.5-0.4,0.9-0.5c2.1-1.3,3.9-2.5,5-5.3c0.9-2.5,0.8-6.6,0.5-9.8
			l0,0c0-0.5,0-1,0-1.6c0-0.1-0.1-0.4-0.3-0.4c-0.1-0.1-0.4,0-0.5,0.1c-0.4,0.4-0.9,0.9-1.3,1.3c-0.9,0.9-1.8,1.8-2.7,2.9
			c-0.5-1.3-1.2-2.6-1.7-3.8c-0.1-0.3-0.3-0.5-0.4-0.9c0.1-0.1,0.4-0.1,0.5-0.3l0,0c2.3-1,4.2-1.8,5.9-4.6c1.3-2.3,1.8-6.4,2.2-9.4
			l0,0c0-0.5,0.1-1,0.1-1.6c0-0.1-0.1-0.4-0.3-0.5s-0.4-0.1-0.5,0c-0.4,0.3-1,0.8-1.4,1.2c-1,0.8-2.2,1.6-3.1,2.5
			c-0.3-1.3-0.8-2.7-1.2-3.9l0,0c-0.1-0.4-0.3-0.9-0.4-1.3c0.3-0.1,0.5-0.1,0.9-0.3l0,0c2.3-0.8,4.6-1.2,6.4-3.6
			c1.6-2.1,2.7-6.1,3.5-9.1l0,0c0.1-0.5,0.3-1,0.4-1.4c0-0.1,0-0.4-0.1-0.5c-0.1-0.1-0.4-0.1-0.5,0c-0.4,0.3-1.2,0.5-1.6,0.9
			c-1.2,0.5-2.3,1.3-3.5,2.1c-1.3-1.6-1.4-2.9-1.8-4.2l0,0c0-0.3-0.1-0.5-0.1-0.9c0.3,0,0.4,0,0.8-0.1l0,0c2.5-0.3,4.7-0.4,6.8-2.5
			c2.1-1.7,3.8-5.5,5-8.5c0.3-0.5,0.4-1,0.8-1.4c0.1-0.1,0-0.4-0.1-0.5c-0.1-0.1-0.4-0.1-0.5-0.1c-0.5,0.1-1.2,0.4-1.7,0.5
			c-1.2,0.4-2.5,0.9-3.8,1.4c0.1-1.4,0.1-2.7,0.1-4l0,0c0-0.3,0-0.4,0-0.8c0.1,0,0.3,0,0.4,0c0.8,0,1.4,0.1,2.2,0.1
			c1.6,0,3.1-0.3,5-1.4c2.2-1.4,4.3-4.7,6.1-7.3l0,0c0.3-0.4,0.8-1,1-1.4c0.1-0.1,0.1-0.4,0-0.5c0.4,0.1,0.1,0.1,0,0.1
			c-0.5,0.1-1.2,0.3-1.8,0.3c-1.7,0.3-3.8,0.5-5.5,1.2c0.3-1.8,0.3-3.9,0.3-5.9l0,0c0-0.5,0-1.2,0-1.6c0-0.1-0.1-0.4-0.3-0.4
			c-0.1-0.1-0.4,0-0.5,0.1c-0.4,0.4-0.9,0.9-1.3,1.3c-2.3,2.1-5.1,4.7-6.1,6.9c-1.3,2.7-0.8,4.8-0.3,7.3c0,0.1,0.1,0.4,0.1,0.8
			c-0.3,0.3-0.5,0.5-0.9,0.9l0,0c-0.9,0.9-1.8,1.7-2.9,2.6c-0.4-1.3-0.9-2.5-1.4-3.6l0,0c-0.3-0.5-0.4-1.2-0.8-1.7
			c-0.1-0.1-0.3-0.3-0.4-0.3l0,0c-0.1,0-0.4,0.1-0.4,0.3c-0.1,0.4-0.4,0.9-0.8,1.4c-1.3,2.7-3,6.5-3,9.3c0,0.3,0,0.5,0,0.9
			c0.1,2.5,1.3,4,2.6,5.9c0.1,0.3,0.4,0.5,0.5,0.9c-0.3,0.3-0.4,0.5-0.8,0.9l0,0c-0.8,1-1.6,2.1-2.3,3c-0.5-1.2-1.3-2.3-2.1-3.4l0,0
			c-0.3-0.5-0.8-1.2-1-1.6c-0.1-0.1-0.3-0.3-0.5-0.3c-0.1,0-0.4,0.1-0.4,0.4c-0.1,0.4-0.3,1-0.4,1.6c-0.8,2.9-1.8,6.9-1.4,9.5
			c0,0.3,0.1,0.5,0.1,0.9c0.5,2.5,2.1,3.8,3.5,5.3c0.3,0.3,0.5,0.5,0.9,0.9c-0.3,0.4-0.4,0.9-0.8,1.3l0,0c-0.5,1-1.3,2.2-1.8,3.4
			c-0.9-1-1.6-2.1-2.5-3l0,0c-0.4-0.5-0.9-1-1.2-1.4c-0.1-0.1-0.3-0.3-0.5-0.1c-0.1,0-0.3,0.3-0.4,0.4c0,0.4-0.1,1-0.1,1.6l0,0
			c-0.4,3-0.9,7.2-0.1,9.8c0.1,0.3,0.1,0.5,0.3,0.9c0.9,2.3,2.5,3.5,4.2,4.8c0.3,0.1,0.5,0.4,0.9,0.5c-0.1,0.3-0.3,0.8-0.4,1l0,0
			c-0.4,1.2-0.9,2.5-1.3,3.6c-1-0.9-2.1-1.7-2.9-2.6l0,0c-0.4-0.4-1-0.9-1.3-1.2c-0.1-0.1-0.4-0.1-0.5-0.1c-0.1,0.1-0.3,0.3-0.3,0.4
			c0,0.4,0,1,0.1,1.6l0,0c0.1,3,0.3,7.3,1.4,9.5c0.1,0.3,0.3,0.5,0.4,0.8c1.3,2.2,3,3,5,4l0,0c0.3,0.1,0.5,0.3,0.9,0.4
			c-0.1,0.4-0.3,0.9-0.4,1.4v0.1c-0.3,1.2-0.8,2.5-1,3.8c-1-0.9-2.2-1.6-3-2.3l0,0c-0.5-0.4-1-0.8-1.4-1.2c-0.1-0.1-0.4-0.1-0.5,0
			c-0.1,0.1-0.3,0.3-0.3,0.5c0,0.4,0.1,1,0.1,1.4l0,0c0.4,3,1,7.2,2.3,9.4c0.1,0.3,0.3,0.5,0.4,0.8c1.4,2.1,3.1,2.7,5.3,3.6
			c0.3,0.1,0.5,0.3,0.9,0.3c0,0.4-0.1,0.9-0.1,1.3c-0.1,1.2-0.3,2.6-0.3,3.9c-1.2-0.5-2.3-1.3-3.5-1.7c-0.5-0.3-1.2-0.5-1.7-0.9
			c-0.1-0.1-0.4-0.1-0.5,0c-0.1,0.1-0.3,0.3-0.1,0.5c0.1,0.4,0.3,1,0.4,1.4c0.9,2.9,2.2,6.9,3.9,9c0.1,0.3,0.4,0.4,0.5,0.8
			c1.7,1.7,3.6,2.2,5.9,2.6l0,0c0.3,0,0.5,0.1,0.9,0.1c0,0.4,0,0.9,0,1.3l0,0c0,1.2,0.1,2.6,0.3,3.9c-1.3-0.4-2.5-0.9-3.6-1.3l0,0
			c-0.5-0.1-1.2-0.4-1.7-0.5c-0.1,0-0.4,0-0.5,0.1c-0.1,0.1-0.1,0.4-0.1,0.5c0.1,0.4,0.4,0.9,0.8,1.4c1.3,2.7,3.1,6.5,5.1,8.2
			c0.3,0.1,0.4,0.4,0.8,0.5c2.1,1.4,3.9,1.6,6.3,1.7c0.3,0,0.8,0,1,0.1c0.1,0.4,0.3,1,0.4,1.6c0.3,1.2,0.5,2.5,1,3.8
			c-1.3-0.1-2.6-0.3-3.9-0.4c-0.8,0-1.3-0.1-1.8-0.1c-0.1,0-0.4,0.1-0.5,0.3c-0.1,0.1-0.1,0.4,0,0.5c0.3,0.4,0.5,0.9,1,1.3
			c1.8,2.5,4.3,5.9,6.6,6.9c0.3,0.1,0.5,0.3,0.9,0.4c1.3,0.5,2.3,0.8,3.5,0.8c1,0,1.8-0.1,2.9-0.3l0,0c0.3,0,0.8-0.1,1-0.1
			c0,0,0,0,0,0.1c0.3,0.4,0.5,1,0.9,1.6l0,0c0.5,1,1.2,2.3,1.8,3.4c-1.3,0.1-2.6,0.3-3.9,0.4c-0.8,0.1-1.3,0.1-1.8,0.3
			c-0.1,0-0.4,0.1-0.4,0.4c0,0.1,0,0.4,0.1,0.5c0.3,0.3,0.8,0.5,1.2,0.9l0.1,0.1c2.3,1.8,5.6,4.6,8.2,5.2c0.3,0.1,0.5,0.1,0.9,0.1
			l0,0c0.5,0.1,1,0.1,1.6,0.1c1.7,0,3.1-0.5,4.8-1.2c0.3-0.1,0.8-0.3,1-0.4c0.4,0.4,0.9,0.9,1.3,1.3l0,0c0.9,0.9,1.7,1.8,2.7,2.7
			c-1.3,0.4-2.5,1-3.6,1.4h-0.1c-0.5,0.3-1.2,0.4-1.6,0.8c-0.1,0.1-0.3,0.3-0.3,0.4c0,0.1,0.1,0.4,0.3,0.4c0.4,0.1,0.9,0.4,1.4,0.5
			c2.7,1.2,6.6,2.9,9.3,2.9c0.3,0,0.5,0,0.9,0c2.5-0.3,4-1.3,5.9-2.7l0,0c0.3-0.3,0.8-0.5,1-0.8c0.1,0,0.1-0.1,0.1-0.3
			c0-0.1,0.1-0.3,0-0.3c0-0.4-0.1-0.9-0.1-1.3C82.5,249.4,82.2,247.2,80.1,245z M74.6,250.6c0.1,0,0.4-0.1,0.4-0.3
			c0.1-0.1,0-0.4-0.1-0.5c-0.5-0.8-1.2-1.6-1.6-2.6c1.3,0.1,2.5,0.4,3.4,0.8c2.5,1,3.5,2.7,4.7,4.8c0.1,0.1,0.1,0.3,0.3,0.4
			c-0.1,0-0.3,0.1-0.4,0.1h-0.1c-2.3,0.5-4.2,1-6.6,0c-0.9-0.4-1.8-1.2-2.9-2.1C72.6,250.8,73.6,250.6,74.6,250.6z M77.1,246.8
			c-1.2-0.4-2.6-0.8-4.2-0.9c-0.5-1.4-1.2-2.9-1.6-4.2c-0.1-0.1-0.1-0.4-0.3-0.5l0.3,0.1c2.7,1.2,6.5,2.7,8.1,4.6
			c1.6,1.7,2.1,3.4,2.3,5.3C80.5,249.3,79.3,247.8,77.1,246.8z M73.6,249.5c-1,0.1-2.1,0.4-3,0.8c-1.2-1-2.2-2.2-3-3l-0.1-0.1
			c-0.1-0.1-0.1-0.1-0.3-0.3h0.5c1.4,0,3,0,4.7,0.1C72.6,247.8,72.9,248.7,73.6,249.5z M73.9,254c1.2,0.4,2.3,0.8,3.5,0.8
			c0.3,0,0.5,0,0.9,0c0.5,0,1.2-0.1,1.8-0.3c-1.4,1-2.9,1.8-5.2,1.8c-2.5,0-6.3-1.6-8.9-2.7l-0.3-0.1c0.1-0.1,0.4-0.1,0.5-0.3l0,0
			c1.3-0.5,2.6-1.2,4-1.6C71.5,252.5,72.7,253.6,73.9,254z M58.7,241.1c0.1,0,0.4,0,0.5-0.1c0.1-0.1,0.1-0.4,0-0.5
			c-0.4-0.9-0.8-1.8-0.9-3c1.2,0.4,2.2,1,3,1.6c2.2,1.7,2.6,3.6,3.1,6c0,0.1,0.1,0.3,0.1,0.5c-0.1,0-0.4,0-0.5,0
			c-2.3-0.1-4.3-0.1-6.4-1.8c-0.8-0.5-1.6-1.6-2.3-2.6C56.8,240.8,57.8,240.9,58.7,241.1z M65.3,243.5c-0.5-2.1-1.2-3.8-3.1-5.3
			c-1-0.8-2.3-1.4-3.9-2.1c-0.3-1.4-0.3-3-0.4-4.6v-0.1c0-0.1,0-0.3,0-0.5l0.3,0.3c2.3,1.8,5.5,4.3,6.6,6.5
			C65.8,239.9,65.7,241.7,65.3,243.5z M58.1,239.9c-1-0.1-2.1-0.1-3.1,0c-0.8-1.3-1.4-2.6-2.2-3.8l-0.1-0.1
			c-0.1-0.1-0.1-0.3-0.3-0.4l0.4,0.1c1.3,0.4,2.9,0.9,4.3,1.3C57.4,238.1,57.8,239.1,58.1,239.9z M57.1,244.4c1.2,1,2.5,1.6,3.9,1.8
			c0.5,0.1,1.2,0.1,1.8,0.1c-1.7,0.5-3.4,1-5.5,0.4c-2.3-0.8-5.5-3.1-7.8-5.1l-0.3-0.1c0.1,0,0.3,0,0.4,0h0.3
			c1.3-0.1,2.9-0.4,4.3-0.4C55.2,242.4,56.1,243.5,57.1,244.4z M46.2,227.9c0.1-0.1,0.3-0.3,0.1-0.5c-0.1-0.9-0.1-2.1-0.1-3.1
			c1,0.8,1.8,1.4,2.5,2.3c1.6,2.2,1.7,4,1.7,6.5c0,0.1,0,0.3,0,0.5c-0.1,0-0.4-0.1-0.5-0.1c-2.3-0.5-4-1.2-5.9-3.4
			c-0.5-0.8-1.2-1.8-1.6-3.1c1.2,0.3,2.2,0.5,3,1C45.8,228,46,228,46.2,227.9z M49.6,225.9c-0.8-1-1.8-1.8-3.4-2.9
			c0.1-1.4,0.4-3,0.5-4.6c0-0.3,0-0.4,0.1-0.5l0.1,0.3c1.7,2.3,4.2,5.5,5,7.9c0.5,2.3,0.1,3.9-0.5,5.9
			C51.6,229.8,51.2,227.9,49.6,225.9z M45.3,226.6c-0.9-0.3-2.1-0.5-3-0.9c-0.4-1.4-0.9-2.9-1.2-4.2v-0.1c0-0.1-0.1-0.3-0.1-0.4
			l0.4,0.3c1.2,0.8,2.6,1.4,3.9,2.3C45.2,224.6,45.2,225.7,45.3,226.6z M43.2,230.6c1,1.3,2.1,2.1,3.5,2.7c0.5,0.3,1.2,0.4,1.7,0.5
			c-1.8,0.1-3.5,0.1-5.5-0.9c-2.2-1.2-4.7-4.3-6.4-6.8l-0.1-0.3c0.1,0,0.4,0,0.5,0l0,0c1.3,0.1,2.9,0.3,4.3,0.5
			C41.9,228.3,42.6,229.6,43.2,230.6z M33.6,108.1c0.1,0.1,0.4,0,0.5,0c0.8-0.5,1.6-1.2,2.7-1.6c-0.1,1.3-0.4,2.5-0.9,3.4
			c-1.2,2.5-2.7,3.4-5,4.6c-0.1,0.1-0.3,0.1-0.4,0.3c0-0.1-0.1-0.3-0.1-0.5l0,0c-0.5-2.3-0.9-4.2,0.1-6.6c0.4-0.9,1.2-1.8,2.1-2.9
			c0.3,1.2,0.5,2.2,0.5,3.1C33.2,108,33.2,108.1,33.6,108.1z M36.9,110.1c0.5-1.2,0.9-2.6,1-4.2c1.4-0.5,2.9-1.2,4.2-1.6
			c0.1-0.1,0.4-0.1,0.5-0.1l-0.1,0.3c-1.3,2.7-2.9,6.4-4.8,7.9c-1.7,1.6-3.4,1.8-5.3,2.2C34.2,113.6,35.8,112.6,36.9,110.1z
			 M34.1,106.7c-0.1-1-0.4-2.1-0.8-3c1-1,2.2-2.2,3.1-3l0.1-0.1c0.1-0.1,0.3-0.1,0.3-0.3v0.5c0,1.4,0,3-0.1,4.7
			C35.8,105.8,35,106.2,34.1,106.7z M29.7,107c-0.5,1.4-0.9,2.7-0.8,4.3c0,0.5,0.1,1.2,0.3,1.8c-1-1.6-1.8-2.9-1.7-5.2
			c0-2.5,1.7-6.1,3-8.9l0.1-0.3c0.1,0.1,0.1,0.4,0.3,0.5l0,0c0.4,1.3,1,2.6,1.6,4C31.1,104.6,30.2,105.8,29.7,107z M43.1,93.9
			c-1.2,2.5-2.7,3.4-4.8,4.6c0.9-2.2,1.4-3.9,3.6-5.3c0.4-0.3,1-0.5,1.6-0.8C43.5,92.9,43.4,93.4,43.1,93.9z M44.2,94.3
			c0.3-0.8,0.5-1.6,0.8-2.5c1.8-0.5,4-1,5.9-1.3c0.1,0,0.4-0.1,0.5-0.1l-0.4,0.4c-1.6,2.3-3.8,5.6-5.9,6.9c-2.1,1.3-3.8,1.3-6,1.2
			C41.3,98,43,96.9,44.2,94.3z M41.5,92.1c-2.3,1.4-3.1,3.4-3.9,5.3c-0.4-2.1-0.8-3.8,0.3-6c1-2.2,3.8-4.8,6-6.6
			c0.1-0.1,0.3-0.3,0.4-0.4v0.4c0,1.8-0.1,4.2-0.4,6.1C43,91.5,42.1,91.7,41.5,92.1z M27.7,124.9c0.1,0,0.4,0,0.5-0.1
			c0.5-0.8,1.4-1.3,2.3-2.1c0,1.3,0,2.5-0.3,3.4c-0.8,2.6-2.2,3.8-4,5.2l-0.1,0.1c-0.1,0.1-0.1,0.1-0.3,0.3c0-0.1-0.1-0.3-0.1-0.5
			c-0.9-2.2-1.6-3.9-0.9-6.5c0.3-1,0.9-2.1,1.6-3.1c0.5,1,0.9,2.2,1.2,3C27.5,124.8,27.6,124.9,27.7,124.9z M31.5,126.4
			c0.3-1.2,0.3-2.7,0.3-4.3c1.3-0.9,2.6-1.6,3.9-2.3c0.1-0.1,0.4-0.1,0.5-0.3l-0.1,0.3c-0.8,2.9-1.8,6.8-3.4,8.7c-1.4,1.8-3,2.5-5,3
			C29.6,130.3,30.9,128.9,31.5,126.4z M28.1,123.4c-0.3-0.9-0.8-1.8-1.3-2.9c0.9-1.3,1.8-2.5,2.6-3.5c0.1-0.1,0.3-0.3,0.4-0.4
			l0.1,0.4c0.1,1.3,0.4,3,0.5,4.6C29.8,122.2,28.9,122.7,28.1,123.4z M23.7,124.3c-0.4,1.4-0.4,2.9,0,4.3c0.1,0.5,0.3,1.2,0.5,1.7
			c-1.3-1.3-2.3-2.6-2.6-4.8c-0.3-2.5,0.8-6.4,1.4-9.1l0.1-0.3c0.1,0.1,0.3,0.4,0.3,0.5l0,0c0.8,1.2,1.4,2.5,2.2,3.8
			C24.9,121.7,24.1,123.3,23.7,124.3z M23.7,152.2c0-0.1,0.1-0.3,0.1-0.4l0.3,0.4c0.5,1.3,1.3,2.7,1.8,4.2c-0.8,0.9-1.3,1.7-1.7,2.5
			c-0.5-0.8-1.3-1.6-2.1-2.5c0.4-1.4,1-2.9,1.4-4L23.7,152.2z M24.2,160.7L24.2,160.7c0.3,0,0.4-0.1,0.4-0.3c0.4-0.9,1-1.7,1.6-2.6
			c0.4,1.2,0.8,2.3,0.8,3.4c0.1,2.7-1,4.3-2.3,6.3c-0.1,0.1-0.1,0.3-0.3,0.4c-0.1-0.1-0.1-0.3-0.3-0.4l0,0c-1.6-1.8-2.7-3.4-2.9-6
			c0-1,0.1-2.2,0.4-3.5c0.9,0.9,1.6,1.7,2.1,2.6C23.8,160.5,24,160.7,24.2,160.7z M28.1,160.8c0-1.3-0.4-2.7-1-4.2
			c1-1.2,2.1-2.3,3-3.4c0.1-0.1,0.3-0.3,0.4-0.4v0.3c0.1,2.9,0.3,6.9-0.5,9.3c-0.9,2.2-2.2,3.4-3.8,4.3
			C27.5,165.1,28.4,163.5,28.1,160.8z M20.2,161.2c0.1,1.6,0.4,2.9,1.3,4.2c0.3,0.5,0.8,1,1,1.4c-1.6-0.9-3-1.8-3.9-3.8
			c-1-2.2-1.3-6.3-1.4-9.1v-0.3l0.5,0.4c1,0.9,2.2,1.8,3.1,2.9C20.6,158.4,20.2,160,20.2,161.2z M24.6,142.8c0.1,0,0.4,0,0.4-0.3
			c0.4-0.8,1.3-1.6,2.1-2.3c0.3,1.3,0.3,2.5,0.3,3.4c-0.3,2.7-1.6,4-3.4,5.9c-0.1,0.1-0.3,0.3-0.4,0.4c-0.1-0.1-0.1-0.3-0.3-0.4
			c-1.2-2.1-2.2-3.6-1.8-6.4c0.1-1,0.5-2.2,1-3.4c0.8,1,1.2,2.1,1.6,2.9C24.2,142.7,24.5,142.8,24.6,142.8z M28.5,143.8
			c0.1-1.3,0-2.7-0.3-4.3c1.2-1,2.5-1.8,3.5-2.7c0.1-0.1,0.3-0.3,0.5-0.4v0.3c-0.3,2.9-0.9,6.9-2.1,9.1c-1.2,2.1-2.6,2.9-4.6,3.6
			C27.1,147.9,28.1,146.4,28.5,143.8z M24.9,141.4c-0.4-0.9-1-1.7-1.6-2.7c0.8-1.3,1.4-2.7,2.2-3.8l0.3-0.5c0,0.1,0.1,0.3,0.1,0.4
			v0.1c0.4,1.3,0.9,2.9,1.2,4.3C26.2,139.9,25.4,140.6,24.9,141.4z M20.6,142.9c-0.1,1.6,0,2.9,0.5,4.3c0.3,0.5,0.5,1.2,0.9,1.6
			c-1.4-1.2-2.6-2.3-3.4-4.6c-0.8-2.3-0.1-6.4,0.1-9.3v-0.3c0.1,0.1,0.3,0.3,0.4,0.4l0,0c0.9,1,1.8,2.2,2.7,3.4
			C21.2,140.2,20.7,141.6,20.6,142.9z M25.4,178.5c0.1,0.1,0.3,0.3,0.4,0.3s0.4-0.1,0.4-0.3c0.3-0.9,0.9-1.8,1.4-2.7
			c0.5,1.2,0.9,2.3,1,3.1c0.3,2.7-0.5,4.3-1.7,6.5c-0.1,0.1-0.1,0.3-0.3,0.4c-0.1-0.1-0.3-0.3-0.3-0.3l0,0c-1.7-1.7-3-3-3.4-5.9
			c-0.1-1,0-2.2,0.1-3.5C24.1,176.8,25,177.7,25.4,178.5z M29.9,178.6c-0.1-1.3-0.8-2.6-1.4-4c0.9-1.3,1.8-2.5,2.7-3.6
			c0.1-0.1,0.3-0.3,0.4-0.5v0.3c0.4,2.9,0.9,6.9,0.3,9.3c-0.5,2.3-1.8,3.5-3.4,4.7C29.6,182.9,30.2,181.2,29.9,178.6z M25.8,177.2
			c-0.5-0.8-1.4-1.4-2.3-2.2c0.3-1.4,0.8-2.9,1.2-4.2v-0.1c0-0.1,0.1-0.3,0.1-0.4l0.3,0.4c0.8,1.2,1.6,2.6,2.3,3.9
			C26.7,175.4,26.2,176.3,25.8,177.2z M22.1,179.8c0.1,1.6,0.8,2.9,1.6,4c0.4,0.4,0.8,1,1.2,1.4c-1.7-0.8-3.1-1.6-4.3-3.5
			c-1.3-2.1-1.7-6.1-2.2-9v-0.3c0.1,0.1,0.3,0.3,0.5,0.4l0,0c1.2,0.8,2.3,1.7,3.5,2.6C22.1,176.8,21.9,178.5,22.1,179.8z
			 M27.3,187.6c0.1,0.1,0.1,0.1,0.3,0.3v0.1c0.9,1,2.1,2.3,2.9,3.5c-0.4,1-0.9,2.1-1,2.9c-0.8-0.5-1.6-1.3-2.6-1.7
			c0-1.4,0.3-3,0.4-4.3v-0.8H27.3z M26.8,193.9c1,0.5,1.8,1.3,2.6,2.1c0.1,0.1,0.3,0.1,0.5,0.1c0.1,0,0.3-0.3,0.4-0.4
			c0.1-0.9,0.4-1.8,1-3c0.8,1,1.3,2.1,1.6,3c0.9,2.6,0.1,4.3-0.8,6.6v0.1c0,0.1-0.1,0.3-0.1,0.4c-0.1-0.1-0.3-0.1-0.3-0.3l-0.1-0.1
			c-1.8-1.4-3.5-2.5-4.2-5.1C26.8,196.5,26.8,195.2,26.8,193.9z M33.9,195.3c-0.4-1.2-1.2-2.5-2.1-3.8c0.5-1.3,1.4-2.7,2.2-3.9
			c0.1-0.1,0.1-0.4,0.3-0.5l0.1,0.3c0.9,2.9,2.1,6.6,1.8,9.1c-0.3,2.3-1.3,3.6-2.6,5.2C34.1,199.6,34.5,197.8,33.9,195.3z
			 M26.2,197.5c0.4,1.4,1.2,2.6,2.3,3.8c0.4,0.4,0.9,0.9,1.4,1.2c-1.8-0.4-3.4-1-4.8-2.7c-1.6-1.8-2.7-5.9-3.6-8.6l-0.1-0.3
			c0.1,0.1,0.4,0.1,0.5,0.3l0,0c1.2,0.5,2.6,1.3,3.8,2.1C25.8,194.8,25.9,196.5,26.2,197.5z M36.6,212.5c0.1-0.1,0.3-0.3,0.3-0.4
			c0-0.9,0.1-2.1,0.4-3c0.9,0.9,1.6,1.8,2.1,2.7c1.2,2.5,0.9,4.3,0.3,6.6v0.1c0,0.1,0,0.3-0.1,0.4c-0.1-0.1-0.3-0.1-0.5-0.3
			c-2.2-1.2-3.8-2.1-5-4.3c-0.4-0.9-0.8-2.1-0.9-3.4c1.2,0.4,2.1,1,2.7,1.6C36.2,212.5,36.5,212.5,36.6,212.5z M40.4,211.2
			c-0.5-1.2-1.4-2.3-2.6-3.5c0.4-1.4,1-2.9,1.4-4.2c0.1-0.1,0.1-0.4,0.3-0.5l0.1,0.3c1.3,2.6,3,6.4,3.1,8.7c0.1,2.3-0.8,3.8-1.7,5.5
			C41.4,215.4,41.5,213.6,40.4,211.2z M35.8,211.1c-0.9-0.5-1.7-1-2.9-1.4c-0.1-1.4-0.3-3-0.3-4.3v-0.3c0-0.1,0-0.3,0-0.4
			c0.1,0.1,0.3,0.3,0.4,0.3c1,0.9,2.3,2.1,3.4,3C36.3,209,36.1,210,35.8,211.1z M33.1,214.7c0.8,1.4,1.6,2.5,2.7,3.4
			c0.4,0.3,1,0.8,1.6,1c-1.8-0.1-3.5-0.5-5.2-2.1c-1.8-1.6-3.6-5.2-5-7.9l-0.1-0.3c0.1,0,0.4,0.1,0.5,0.1l0,0c1.3,0.4,2.7,0.9,4,1.4
			C32.3,212,32.7,213.6,33.1,214.7z M33.9,204.3L33.9,204.3L33.9,204.3L33.9,204.3z"/>
		<path class="st0" d="M46.9,88.3L46.9,88.3L46.9,88.3c0.5,0,0.9,0,1.3,0c2.3-0.1,4.3-0.1,6.6-2.1c1.8-1.6,3.6-5,5-7.6l0,0
			c0.3-0.4,0.4-1,0.8-1.4c0.1-0.1,0.1-0.4,0-0.5c-0.1-0.1-0.3-0.1-0.5-0.1c-0.4,0.1-1,0.3-1.7,0.5c-2.7,0.9-6.4,1.8-8.2,3.5
			c-2.2,1.8-2.7,3.8-3.1,6.1l0,0c-0.1,0.4-0.1,0.8-0.3,1.2C46.8,88.1,46.8,88.2,46.9,88.3C46.6,88.3,46.8,88.3,46.9,88.3z
			 M47.7,87.4c0-0.1,0.1-0.3,0.1-0.5c0.5-2.2,1-3.9,2.9-5.5c1.7-1.4,5.2-2.5,7.8-3.1l0.5-0.1l-0.1,0.4c-1.3,2.5-3,5.9-4.8,7.3
			c-2.1,1.6-3.8,1.7-6.1,1.8l0,0C47.9,87.4,47.8,87.4,47.7,87.4z"/>
	</g>
	<path class="st0" d="M122.3,185.7l-0.9,0.8c0.9,0.9,0.8,1.7,0.1,2.3c-0.8,0.8-2.2,0.9-3.6-0.3c-0.1-0.1-0.9-0.9-1.7-1.6
		c-2.7-2.5-4-3.6-4.7-4.2c-0.1-0.1-0.1-0.1-0.1-0.1l0,0c-0.4-0.3-0.5-0.3-0.9,0l-0.4,0.4l0.4,0.4c0.1,0.1,1.4,1.3,3.4,3.1
		c1,0.9,2.1,1.8,2.2,2.1c1,1.2,1,2.2,0.5,2.7c-0.5,0.5-1.7,1-3.5-0.1c-0.5-0.3-1-0.8-1.6-1l-0.3-0.3l0,0c-0.5-0.4-1.7-1.6-2.7-2.5
		c-1.7-1.6-2.6-2.3-3-2.6l0,0l0,0c-0.4-0.3-0.4-0.1-0.8-0.1c-0.3,0.1-0.4,0.5-0.1,0.9l0,0c0,0,0,0,3.9,3.6l2.1,2.1
		c1,1.2,1,2.2,0.5,2.7c-0.5,0.5-1.7,1-3.5-0.1c-0.4-0.3-0.8-0.3-2.7-1.8c-3-2.5-3-2.5-3.1-2.5l0,0c-0.5,0-0.9,0.5-0.4,1
		c0.1,0.1-1.3-1.2,1.6,1.6c1.2,1,1.3,1.3,1.4,1.4c1,1,0.8,2.1,0.3,2.5c-0.4,0.5-1.6,0.9-3.1-0.1c-0.3-0.1-0.9-0.5-1.4-1l-0.1-0.1
		c0,0,0,0,0,0.1c0.5-0.8,0.9-1.4,0.9-2.2c0-0.5-0.3-1.3-1.4-1.8c-1-0.4-1.8-0.4-2.7,0c0-0.1,0-0.3,0-0.4c-0.1-0.5-0.4-1.4-1.8-2.1
		c-0.8-0.3-1.6-0.3-2.2-0.1l0,0c0-0.1,0-0.3,0-0.4c-0.1-0.8-0.5-1.7-2.1-2.3c-1.4-0.5-2.6-0.3-3.6,0.4c0-0.5-0.1-1.2-0.5-1.7
		c-0.8-1.2-1.7-1.4-2.3-1.4c-1.6,0.1-3.4,1.7-4.8,4.8c-0.4,1-0.5,1.8-0.5,2.6c0.1,1,0.5,1.6,1.2,2.1c0.5,0.4,1.6,0.5,2.5,0.1
		c0,0.9,0.3,1.6,0.9,2.1c0.5,0.5,1.4,0.9,2.5,0.9c0.5,0,1.2-0.3,1.8-0.5l0,0c0,0.8,0.3,1.3,0.8,1.6c0.4,0.4,1.3,0.9,2.2,0.8
		c0.5,0,1.3-0.3,2.2-0.9l0,0c0,0.4,0.3,0.8,0.4,1c0.4,0.4,1,0.9,1.8,0.9c0.5,0,1.3-0.1,2.2-0.8c0.1-0.1,0.3-0.1,0.4-0.3v27.4l0,0
		c0,1,0.9,1.8,1.8,1.8c1,0,1.8-0.9,1.8-1.8v-27.2c0.9,0.4,1.6,0.8,2.3,0.8c1,0,1.7-0.4,2.2-1c0.5-0.5,1-1.6,0.5-2.6l1,0.8
		c2.5,1.4,4.2,0.9,5.1-0.1c0.5-0.5,0.8-1.6,0.4-2.6l0,0c2.5,1.6,4.3,1,5.2,0c0.4-0.5,0.8-1.3,0.5-2.2c1.7,1,3.5,0.8,4.3-0.3
		C123.4,188.8,123.6,187.1,122.3,185.7z M99.1,195.3L99.1,195.3L99.1,195.3z M82.2,190.6c-0.9,0.9-1.7,0.9-2.3,0.5
		c-0.5-0.4-1-1.4-0.1-3.1c1.4-3,2.9-4,3.8-4.2c0.4,0,0.9,0.3,1.3,0.9c0.1,0.3,0.3,0.8,0.3,1c0,0.4,0,0.9-0.1,1.3
		c-0.8,0.8-1.4,1.6-1.8,2.3c-0.1,0.1-0.3,0.4-0.4,0.5C82.6,190.2,82.3,190.4,82.2,190.6z M87.4,192.7c-0.1,0.1-0.3,0.3-0.4,0.3
		c-1.7,1.3-2.9,1-3.5,0.4c-0.5-0.5-0.8-1.6,0.3-2.9c0.1-0.1,0.3-0.3,0.4-0.5c1.2-1.6,2.5-3.4,4.2-3.5c0.4,0,0.9,0,1.2,0.1
		c0.8,0.3,1.2,0.8,1.3,1.3c0,0.3,0,0.5-0.1,1c-1.2,0.9-2.1,2.1-2.5,2.7c-0.1,0.1-0.3,0.3-0.3,0.4C87.7,192.3,87.5,192.6,87.4,192.7z
		 M92.2,194.5c-0.3,0.1-0.4,0.4-0.8,0.5c-1.4,1.2-2.6,0.9-3.1,0.4c-0.4-0.4-0.5-1.4,0.3-2.6c0.1-0.1,0.3-0.3,0.4-0.5
		c1-1.4,2.3-3,3.8-3.1c0.3,0,0.8,0,1.2,0.1c0.8,0.3,1,0.5,1.2,1.2c0,0.3,0,0.8-0.3,1.3c-0.5,0.4-1,1-1.4,1.4
		c-0.1,0.1-0.3,0.3-0.3,0.4C92.6,194,92.5,194.3,92.2,194.5z M95.9,196.5c-1.4,0.9-2.3,0.5-2.7,0.1c-0.4-0.4-0.4-1.3,0.4-2.2
		c0.1-0.1,0.3-0.3,0.4-0.4c1-1.2,2.2-2.5,3.5-2.5c0.3,0,0.5,0,0.9,0.3c0.5,0.3,0.9,0.5,0.9,1C99.3,193.5,98.5,194.9,95.9,196.5z"/>
	<path class="st0" d="M120.4,123.6c-0.3-2.3-0.9-4.6-1.8-6.4c-0.5-1-7.3-14.3-10.3-18c-1.2-1.4-6.5-6.8-12-5.9
		c-1.8,0.1-3.8,0.8-5.6,1.6c-3.9,1.7-7.6,4.2-11.1,6.9c-2.1,1.6-2.9,4.8-2.1,7.4c0.4,1.2,1.2,2.2,2.3,2.5c1,0.3,1.8,0,2.7-0.5
		c0.3-0.1,0.5-0.4,1-0.3c0,0.1-0.1,0.4-0.1,0.5c0,0.1-0.1,0.3-0.3,0.4c-1.2,2.1-2.3,3.9-3.4,6c-0.3,0.5-0.5,1.3-0.8,1.8
		c-0.4,1.4-0.4,3-0.3,4.7c0.1,1.2,0.3,2.3,0.5,3.5c0.4,1.2,1,1.8,2.1,2.2c0.1,0,0.4,0.1,0.5,0.1c3.9,1.4,7.9,2.3,12.1,2.7
		c0.9,0.1,1.7,0.1,2.7,0.1v36.4c1.3,0.3,2.6-0.8,3.9-0.1v-36.2c0.1,0,0.4,0,0.5,0c2.2-0.1,4.3-0.4,6.4-0.9c3.6-0.8,7.3-1.8,10.7-3.1
		c0.9-0.3,1.4-1,1.7-2.1C120.5,125.9,120.5,124.7,120.4,123.6z M84.9,129.2c4-1.7,8.1-2.7,12.1-3.1v5v0.4
		C93,131.5,89.1,130.7,84.9,129.2z M100.8,131.6V126c5.1,0,10.2,0.8,15.1,2.3C110.1,130.3,105.4,131.3,100.8,131.6z M118.9,126.5
		c-0.3,0.9-0.9,1-1.4,0.8c-1.3-0.5-2.7-1-4.2-1.3c-1.8-0.4-4.6-1-6.4-1.3c-2.5-0.3-5.6-0.4-8.1-0.3c-4,0.1-6.1,0.5-10,1.8
		c-1.6,0.5-3.6,1.3-5.2,1.8c-0.4,0.1-0.9,0.3-1.4,0.3c-0.8-0.1-1.2-0.4-1.4-1.2s-0.4-1.6-0.5-2.5c-0.1-1.4-0.3-2.7,0-4.2
		c0.1-0.9,0.4-1.7,0.9-2.5c1-1.8,2.2-3.8,3.1-5.5c0.1-0.3,0.3-0.4,0.4-0.8c0.3-0.5,0.8-2.1,1-2.7c1-3.1,7.6-4.2,10-5.2
		c-0.3-0.3-9.3,1.3-11.3,3.8c-1.2,1.4-3.6,3.8-5.5,1c-0.5-1.4-0.4-2.9,0.1-4.2c0.3-0.8,0.8-1.3,1.4-1.8c2.7-2.2,5.6-4.2,8.9-5.9
		c1.8-1,3.9-1.7,6-2.2c4.3-0.9,9.4,0.9,15.8,11.7c1.3,2.3,2.5,5.3,3.4,6.6c0,0,0,0,0,0.1c-2.1-0.9-6.9-1.2-9.5-0.9
		c-4,0.4-7.8,2.5-12,3.9c-2.9,1-6.1,1-5.9,3.6c1.3-1.3,4-2.1,5.9-2.6c3.5-1.2,4.6-1.7,8.1-2.6c2-0.5,9.8-2.3,14.6,0.7
		c0.1,0,0.4,0.3,0.5,0.4c1.6,2.3,2.5,4.8,2.9,7.7C119.2,124.6,119.2,125.5,118.9,126.5z"/>
	<path class="st0" d="M124.9,275.7c-3.6-6.1-14.1-10.8-18.9-12.4c2.7-2.6,5.2-6.1,5.3-8.9c0,0,0,0,0-0.1l0,0c0-1.7-0.1-3.9-1.4-5.5
		c-0.4-0.4-1.4-0.8-2.1-0.5c-0.4,0.1-5.1,0.9-9.8,0.8c-5.2-0.1-8.6-0.8-9-0.8c-0.5-0.1-1.6,0-2.1,0.5c-1.2,1.6-1.4,3.8-1.4,5.5l0,0
		c0,0,0,0,0,0.1c0.3,2.7,2.6,6.1,5.3,8.9c-4.8,1.4-15.2,6.3-18.9,12.4c-0.1,0.1-0.1,0.4,0,0.5c0.1,0.1,0.4,0.1,0.5,0.1
		c1.8-0.9,3.6-1,5.1-0.4c1.6,0.5,2.9,2.1,3.6,4c0.1,0.1,0.3,0.3,0.4,0.3l0,0c0.1,0,0.4-0.1,0.4-0.3c2.1-5.6,8.7-12.1,11.7-14.2
		c0.1,0.8,0.9,1.2,1.6,1.3c0.8,0.1,1.4,0.1,2.3,0.1l0,0l0,0h0.1H98l0,0l0,0c0.8,0,1.4,0,2.3-0.1c0.9-0.1,1.4-0.5,1.6-1.3
		c3,2.1,9.5,8.5,11.7,14.2c0,0.1,0.3,0.3,0.4,0.3l0,0c0.1,0,0.4-0.1,0.4-0.3c0.9-2.1,2.1-3.5,3.6-4c1.4-0.5,3.4-0.4,5.1,0.4
		c0.1,0.1,0.4,0,0.5-0.1C125.1,276.2,125.1,275.8,124.9,275.7z M88.2,249.5c0.1-0.1,0.5-0.3,1-0.1c0.4,0.1,3.5,0.5,9.3,0.9
		c5.5,0.1,9.4-0.8,10-0.9c0.3-0.1,0.9,0.1,1,0.1c0.3,0.4,0.5,0.9,0.8,1.4c-7.7,1.7-14.9,1.8-22.7,0
		C87.7,250.4,87.9,249.9,88.2,249.5z M87,254.5c0-0.5,0-1.2,0.1-1.6c7.9,1.8,15.2,2.1,23.3,0c0,0.5,0.1,1.2,0.1,1.7c0,0,0,0,0,0.1
		C104.1,256.8,93.5,256.6,87,254.5L87,254.5z M103.2,262c0-0.1,0-0.3,0-0.5l0,0c0.8-1.3,1.2-2.9,1.2-4.2c0.1,0,0.1,0,0.3,0l0,0
		c0.5-0.1,1-0.1,1.4-0.3l0,0c0.1,0,0.3,0,0.4-0.1C105.8,258.6,104.6,260.3,103.2,262z M94.6,261.4c0,0.1,0,0.3,0,0.5
		c-1.4-1.6-2.6-3.4-3.4-5.2c0.1,0,0.3,0,0.4,0.1l0,0c0.4,0.1,1,0.1,1.4,0.3l0,0c0.1,0,0.1,0,0.3,0C93.4,258.4,93.9,259.9,94.6,261.4
		L94.6,261.4z M74.3,274.9c4.2-5.5,13.9-9.8,18-10.8c0.1,0.1,0.1,0.1,0.3,0.3c-5.1,2.7-10.8,6.3-15.2,10.4
		C76.3,274.5,75.4,274.5,74.3,274.9z M82.5,278.7c-0.5-1.3-1.4-2.2-2.5-2.9c2.6-3.8,9.4-8.6,13.2-10.8c0.1,0.1,0.3,0.3,0.5,0.4
		C90.8,267.5,84.9,273.2,82.5,278.7z M92.9,263.2C92.8,263.2,92.8,263.2,92.9,263.2c-2.6-2.3-4.8-5.1-5.5-7.6c0.1,0,0.4,0.1,0.5,0.1
		h0.1c0.3,0.1,0.5,0.1,0.9,0.3c1.4,2.7,3.1,5.2,5.5,7.3c0,0.3,0,0.5,0,0.9C93.8,263.9,93.3,263.6,92.9,263.2z M95.6,265.6
		c0-0.1,0-0.3,0-0.4l0,0V265c0-0.5-0.1-1-0.1-1.6l0,0c0-0.1,0-0.1,0-0.3c0-0.4,0-0.9,0.1-1.6v-0.1c0.1-0.5,0.5-0.8,0.9-0.8
		c0.4,0,0.8-0.1,1.2-0.1v6c-0.4,0-0.8,0-1.2-0.1C95.9,266.3,95.6,266.1,95.6,265.6z M102.1,265v0.1l0,0c0,0.1,0,0.3,0,0.4
		c0,0.4-0.4,0.8-0.9,0.8c-0.4,0-0.8,0.1-1.2,0.1v-6c0.4,0,0.8,0.1,1.2,0.1c0.3,0,0.8,0.1,0.9,0.8v0.1c0.1,0.5,0.1,1.2,0.1,1.6
		c0,0.1,0,0.1,0,0.3l0,0C102.3,264,102.1,264.5,102.1,265z M102.4,260.2c-0.3-0.3-0.8-0.4-1.2-0.5c-0.8-0.1-4.2-0.1-5.1,0
		c-0.4,0.1-0.9,0.3-1.2,0.5c-0.4-1-0.8-2.1-0.8-2.9c1.4,0.1,7.4,0.1,8.9,0C103.2,258.3,102.9,259.3,102.4,260.2z M103.2,263.5
		c2.3-2.1,4-4.6,5.5-7.3c0.3-0.1,0.5-0.1,0.9-0.3h0.1c0.1,0,0.4-0.1,0.5-0.1c-0.8,2.3-2.9,5.2-5.3,7.4c0,0-0.1,0-0.1,0.1
		c-0.5,0.4-1,0.8-1.6,1.2C103.2,264,103.2,263.7,103.2,263.5z M115,278.7c-2.5-5.3-8.5-11.3-11.3-13.3c0.1-0.1,0.4-0.3,0.5-0.4
		c3.9,2.3,10.6,7.2,13.3,10.8C116.6,276.5,115.8,277.5,115,278.7z M120.3,274.8c-4.3-4-10.2-7.7-15.2-10.4c0.1,0,0.1-0.1,0.3-0.1
		c4,1,13.7,5.3,18,10.8C122.2,274.5,121.3,274.5,120.3,274.8z"/>
</g>
</svg>
