<?xml version="1.0" encoding="utf-8"?>
<!-- Generator: Adobe Illustrator 25.2.0, SVG Export Plug-In . SVG Version: 6.00 Build 0)  -->
<svg version="1.1" id="Capa_3" xmlns="http://www.w3.org/2000/svg" xmlns:xlink="http://www.w3.org/1999/xlink" x="0px" y="0px"
	 viewBox="0 0 642.1 291" style="enable-background:new 0 0 642.1 291;" xml:space="preserve">
<style type="text/css">
	.st0{fill:#FFFFFF;}
	.st1{fill-rule:evenodd;clip-rule:evenodd;fill:#FFFFFF;}
</style>
<g>
	<g>
		<g>
			<g>
				<g>
					<path class="st0" d="M184.9,131c-0.8-1.9-1.6-3.8-2.3-5.7c-0.8-1.9-1.6-3.8-2.3-5.7c-0.2-0.4-0.4-1.1-0.7-1.9
						c-0.3-0.8-0.6-1.7-0.9-2.8c-0.3-1-0.6-2.1-0.9-3.2c0,1.3,0.1,2.5,0.1,3.7c0,1.1,0,2.2,0,3.3c0,0.5,0,1,0,1.6c0,0.5,0,1.1,0,1.6
						c0,0.5,0,1,0,1.6c0,0.5,0,1,0,1.6c0,0.6,0,1.2-0.1,1.8c0,0.6-0.1,1-0.1,1.3c0.4,0,0.9-0.1,1.4-0.1c0.6,0,1,0,1.2,0v2.7h-7.9
						v-2.3c0.5,0,1-0.1,1.3-0.2c0.4-0.1,0.6-0.4,0.8-0.8c0.2-0.4,0.3-1.1,0.3-2l0.2-13.3c0-0.6,0-1.2,0.1-1.8c0-0.6,0-1,0.1-1.3
						c-0.4,0-0.8,0-1.4,0.1c-0.6,0-1,0-1.2,0.1v-2.7h7.7l5.2,13.4c0.2,0.5,0.4,1.2,0.7,1.9c0.3,0.7,0.5,1.4,0.7,2
						c0.2,0.7,0.4,1.2,0.5,1.6h0c0.3-0.8,0.6-1.6,0.8-2.4c0.3-0.8,0.5-1.5,0.8-2.2c0.9-2.4,1.8-4.8,2.7-7.2c0.9-2.4,1.8-4.8,2.7-7.2
						h8v2.3c-0.5,0-1,0.1-1.4,0.2c-0.4,0.1-0.7,0.4-0.9,0.8c-0.2,0.4-0.3,1.1-0.3,2l0.5,13.3c0,0.6,0,1.2,0,1.8c0,0.6-0.1,1-0.1,1.3
						c0.4,0,0.9-0.1,1.4-0.1c0.6,0,1,0,1.2,0v2.7h-9.7v-2.3c0.5,0,1-0.1,1.4-0.2c0.4-0.1,0.7-0.4,0.9-0.8c0.2-0.4,0.3-1.1,0.2-2
						l-0.3-7.4c0-0.3,0-0.8-0.1-1.4c0-0.7-0.1-1.4-0.1-2.3c0-0.8-0.1-1.6-0.1-2.3c-0.1,0.2-0.1,0.3-0.2,0.5
						c-0.1,0.2-0.1,0.3-0.2,0.5l-6.8,18.1H184.9z"/>
					<path class="st0" d="M205.5,128.4c0.6,0,1.1-0.1,1.4-0.4c0.3-0.3,0.5-0.6,0.5-1.1c0.1-0.5,0.1-1,0.1-1.6v-5.8
						c0-0.4,0-0.9,0-1.4c0-0.5,0.1-1.1,0.1-1.6c-0.4,0-0.8,0-1.3,0.1c-0.5,0-0.9,0-1.1,0.1V114c1.1,0,2-0.1,2.7-0.2
						c0.7-0.1,1.3-0.3,1.8-0.4c0.4-0.2,0.7-0.3,0.9-0.5h1.9v12.1c0,0.3,0,0.8,0,1.4c0,0.6-0.1,1.2-0.1,1.7c0.4,0,0.8-0.1,1.2-0.1
						c0.5,0,0.8,0,1,0v2.6h-9.1V128.4z M209.8,110.2c-0.8,0-1.4-0.3-1.9-0.8c-0.5-0.6-0.8-1.2-0.8-2c0-0.8,0.3-1.5,0.8-2
						c0.5-0.6,1.2-0.8,1.9-0.8c0.7,0,1.4,0.3,1.9,0.8c0.5,0.6,0.7,1.2,0.7,2c0,0.8-0.2,1.5-0.7,2
						C211.3,109.9,210.6,110.2,209.8,110.2z"/>
					<path class="st0" d="M216.6,130.7v-2.3c0.6,0,1.1-0.1,1.4-0.4c0.3-0.3,0.5-0.6,0.5-1.1c0.1-0.5,0.1-1,0.1-1.6v-5.8
						c0-0.4,0-0.9,0-1.4s0.1-1,0.1-1.5c-0.4,0-0.8,0-1.3,0.1c-0.5,0-0.9,0-1.1,0.1V114c1.1,0,2-0.1,2.7-0.2c0.7-0.1,1.3-0.3,1.8-0.4
						c0.4-0.2,0.7-0.3,0.9-0.5h1.7c0,0.3,0.1,0.5,0.1,0.7c0,0.1,0,0.3,0,0.4c0,0.1,0.1,0.4,0.1,0.7c0.5-0.4,1-0.7,1.6-1
						c0.6-0.3,1.2-0.5,1.8-0.7c0.6-0.2,1.1-0.3,1.6-0.3c2.1,0,3.6,0.6,4.5,1.8s1.3,3.2,1.3,5.9v4.7c0,0.3,0,0.8,0,1.4
						c0,0.6-0.1,1.2-0.1,1.7c0.4,0,0.8-0.1,1.2-0.1c0.4,0,0.8,0,1,0v2.6h-9.1v-2.3c0.6,0,1.1-0.1,1.4-0.4c0.3-0.3,0.5-0.6,0.6-1.1
						c0.1-0.5,0.1-1,0.1-1.6l0-4.9c0-1.5-0.2-2.6-0.6-3.4c-0.4-0.7-1.2-1.1-2.2-1.1c-0.6,0-1.2,0.1-1.7,0.4c-0.6,0.3-1,0.6-1.4,0.9
						c0,0.3,0,0.7,0,1c0,0.3,0,0.7,0,1v5.9c0,0.3,0,0.8,0,1.4c0,0.6-0.1,1.2-0.1,1.7c0.4,0,0.8-0.1,1.2-0.1c0.5,0,0.8,0,1,0v2.6
						H216.6z"/>
					<path class="st0" d="M238.6,128.4c0.6,0,1.1-0.1,1.4-0.4c0.3-0.3,0.5-0.6,0.5-1.1c0.1-0.5,0.1-1,0.1-1.6v-5.8
						c0-0.4,0-0.9,0-1.4c0-0.5,0.1-1.1,0.1-1.6c-0.4,0-0.8,0-1.3,0.1c-0.5,0-0.9,0-1.1,0.1V114c1.1,0,2-0.1,2.7-0.2
						c0.7-0.1,1.3-0.3,1.8-0.4c0.4-0.2,0.7-0.3,0.9-0.5h1.9v12.1c0,0.3,0,0.8,0,1.4c0,0.6-0.1,1.2-0.1,1.7c0.4,0,0.8-0.1,1.2-0.1
						c0.5,0,0.8,0,1,0v2.6h-9.1V128.4z M243,110.2c-0.8,0-1.4-0.3-1.9-0.8c-0.5-0.6-0.8-1.2-0.8-2c0-0.8,0.3-1.5,0.8-2
						c0.5-0.6,1.2-0.8,1.9-0.8c0.7,0,1.4,0.3,1.9,0.8c0.5,0.6,0.7,1.2,0.7,2c0,0.8-0.2,1.5-0.7,2C244.4,109.9,243.8,110.2,243,110.2
						z"/>
					<path class="st0" d="M257.7,131.2c-1,0-2-0.1-2.9-0.4c-1-0.3-1.7-0.6-2.2-1l0.1,1H250l-0.1-6h2.3c0.1,0.7,0.3,1.3,0.8,1.9
						c0.5,0.6,1.1,1,1.9,1.4c0.8,0.3,1.7,0.5,2.6,0.5c0.4,0,0.8-0.1,1.1-0.2c0.4-0.1,0.7-0.3,0.9-0.6c0.2-0.3,0.4-0.6,0.4-1
						c0-0.4-0.2-0.8-0.5-1.1c-0.3-0.3-0.8-0.5-1.4-0.8c-0.6-0.3-1.3-0.5-2.2-0.9c-0.7-0.3-1.4-0.6-2.2-0.9c-0.7-0.3-1.4-0.7-2-1.1
						c-0.6-0.4-1.1-1-1.5-1.6c-0.4-0.6-0.6-1.4-0.6-2.3c0-0.7,0.1-1.3,0.4-2c0.3-0.7,0.6-1.3,1.2-1.8c0.5-0.5,1.2-1,2-1.3
						c0.8-0.3,1.8-0.5,2.9-0.5c0.6,0,1.3,0.1,2.1,0.3c0.8,0.2,1.5,0.5,2,0.9v-1h2.6v6.1h-2.3c-0.1-0.8-0.4-1.5-0.9-2.1
						c-0.4-0.6-1-1-1.6-1.3c-0.7-0.3-1.4-0.5-2.3-0.5c-0.6,0-1.1,0.1-1.6,0.4c-0.5,0.3-0.7,0.8-0.7,1.4c0,0.5,0.2,1,0.6,1.3
						c0.4,0.3,0.9,0.6,1.5,0.8c0.6,0.2,1.4,0.5,2.2,0.7c1.2,0.4,2.2,0.9,3.1,1.4c0.9,0.5,1.6,1.2,2.2,1.9c0.5,0.8,0.8,1.7,0.8,2.8
						c0,1.2-0.3,2.2-0.9,3c-0.6,0.8-1.4,1.4-2.3,1.8C259.8,131,258.8,131.2,257.7,131.2z"/>
					<path class="st0" d="M273,131.2c-0.7,0-1.4-0.1-2-0.2c-0.6-0.2-1.2-0.5-1.7-0.9c-0.5-0.5-0.9-1.1-1.2-2c-0.3-0.9-0.5-2-0.5-3.5
						l0.1-8.4h-2.4v-2.9c0.7,0,1.4-0.3,2.1-0.7c0.7-0.5,1.2-1.1,1.7-1.8c0.5-0.7,0.8-1.5,1-2.3h2.6l0,4.9h4.4v2.7l-4.4,0.1l0,8.5
						c0,0.5,0.1,1.1,0.2,1.6c0.1,0.5,0.3,0.9,0.6,1.3c0.3,0.3,0.7,0.5,1.3,0.5c0.3,0,0.8-0.1,1.3-0.3c0.6-0.2,1.2-0.8,1.8-1.7
						l1.7,1.6c-0.6,0.9-1.3,1.6-1.9,2.2c-0.7,0.5-1.3,0.9-1.9,1.1c-0.6,0.2-1.2,0.4-1.6,0.4C273.5,131.2,273.1,131.2,273,131.2z"/>
					<path class="st0" d="M288.7,131.2c-1.7,0-3.2-0.4-4.5-1.1c-1.3-0.8-2.3-1.8-3-3.2c-0.7-1.4-1.1-3-1.1-4.9
						c0-1.6,0.4-3.1,1.1-4.6c0.7-1.4,1.7-2.6,3-3.4c1.3-0.9,2.8-1.3,4.6-1.3c1,0,1.9,0.1,2.8,0.4c0.9,0.3,1.8,0.7,2.5,1.4
						c0.8,0.6,1.4,1.5,1.8,2.6c0.5,1.1,0.7,2.5,0.6,4.2l-11.4,0.2c0,1.3,0.2,2.4,0.5,3.4c0.3,1,0.8,1.8,1.5,2.4
						c0.7,0.6,1.7,0.9,2.9,0.9c0.5,0,1-0.1,1.6-0.2c0.6-0.2,1.2-0.4,1.8-0.8c0.6-0.4,1.2-0.9,1.7-1.5l1.6,1.5
						c-0.8,1.2-1.7,2.1-2.7,2.7c-1,0.6-1.9,1-2.8,1.2C290.4,131.1,289.5,131.2,288.7,131.2z M285.5,119.1h6.4c0-1-0.2-1.7-0.4-2.3
						c-0.2-0.6-0.6-1-1-1.2c-0.4-0.3-0.9-0.4-1.5-0.4c-1,0-1.8,0.4-2.4,1.1C286,117,285.6,117.9,285.5,119.1z"/>
					<path class="st0" d="M298.6,128.4c0.6,0,1.1-0.1,1.4-0.4c0.3-0.3,0.5-0.6,0.5-1.1c0.1-0.5,0.1-1,0.1-1.6v-5.8
						c0-0.4,0-0.9,0-1.4s0.1-1,0.1-1.5c-0.4,0-0.8,0-1.3,0.1c-0.5,0-0.9,0-1.1,0.1V114h1.4c0.9,0,1.7-0.1,2.5-0.3
						c0.8-0.2,1.2-0.5,1.5-0.7h1.7c0,0.2,0.1,0.7,0.1,1.3c0,0.6,0,1.2,0,1.7c0.6-0.8,1.2-1.4,1.8-1.8c0.6-0.5,1.1-0.8,1.7-1
						c0.5-0.2,1.1-0.3,1.7-0.3c0.8,0,1.5,0.2,2.1,0.7c0.6,0.5,0.9,1.2,0.9,2.2c0,0.3-0.1,0.7-0.2,1.1s-0.4,0.7-0.8,1
						c-0.3,0.3-0.8,0.4-1.4,0.4c-0.5,0-0.9-0.1-1.4-0.4c-0.5-0.3-0.8-0.8-0.8-1.6c-0.5,0-0.9,0.2-1.4,0.6c-0.5,0.4-0.9,0.8-1.2,1.4
						c-0.4,0.5-0.6,1-0.7,1.4v5.7c0,0.3,0,0.8,0,1.4c0,0.6-0.1,1.2-0.1,1.7c0.4,0,0.8-0.1,1.2-0.1c0.5,0,0.8,0,1,0v2.6h-9.1V128.4z"
						/>
					<path class="st0" d="M315.5,128.4c0.6,0,1.1-0.1,1.4-0.4c0.3-0.3,0.5-0.6,0.5-1.1c0.1-0.5,0.1-1,0.1-1.6v-5.8
						c0-0.4,0-0.9,0-1.4c0-0.5,0.1-1.1,0.1-1.6c-0.4,0-0.8,0-1.3,0.1c-0.5,0-0.9,0-1.1,0.1V114c1.1,0,2-0.1,2.7-0.2
						c0.7-0.1,1.3-0.3,1.8-0.4c0.4-0.2,0.7-0.3,0.9-0.5h1.9v12.1c0,0.3,0,0.8,0,1.4c0,0.6-0.1,1.2-0.1,1.7c0.4,0,0.8-0.1,1.2-0.1
						c0.5,0,0.8,0,1,0v2.6h-9.1V128.4z M319.9,110.2c-0.8,0-1.4-0.3-1.9-0.8c-0.5-0.6-0.8-1.2-0.8-2c0-0.8,0.3-1.5,0.8-2
						c0.5-0.6,1.2-0.8,1.9-0.8c0.7,0,1.4,0.3,1.9,0.8c0.5,0.6,0.7,1.2,0.7,2c0,0.8-0.2,1.5-0.7,2
						C321.3,109.9,320.7,110.2,319.9,110.2z"/>
					<path class="st0" d="M334.7,131.2c-1.7,0-3.2-0.4-4.5-1.1s-2.4-1.7-3.2-3.1s-1.2-2.9-1.2-4.7c0-1.9,0.4-3.6,1.2-5.1
						c0.8-1.4,1.9-2.6,3.2-3.4c1.3-0.8,2.8-1.2,4.4-1.2c1.7,0,3.2,0.4,4.5,1.1c1.3,0.7,2.4,1.7,3.1,3.1s1.1,2.9,1.1,4.8
						c0,1.9-0.4,3.6-1.1,5.1c-0.7,1.4-1.8,2.5-3.1,3.3C337.9,130.8,336.4,131.2,334.7,131.2z M334.9,128.8c0.9,0,1.6-0.3,2.1-1
						c0.5-0.6,0.8-1.4,1-2.4c0.2-0.9,0.3-1.9,0.3-2.9c0-0.9-0.1-1.7-0.2-2.6c-0.1-0.9-0.3-1.7-0.6-2.4c-0.3-0.7-0.7-1.3-1.1-1.7
						c-0.5-0.4-1.1-0.6-1.8-0.6c-0.9,0-1.6,0.3-2.1,1c-0.5,0.6-0.9,1.4-1.1,2.3c-0.2,0.9-0.3,1.9-0.3,2.9c0,1.2,0.1,2.3,0.4,3.5
						c0.3,1.1,0.7,2.1,1.2,2.8C333.2,128.4,333.9,128.8,334.9,128.8z"/>
					<path class="st0" d="M361.7,131.2c-1.4,0-2.6-0.4-3.7-1.1s-1.9-1.7-2.5-3.1c-0.6-1.3-0.9-2.9-0.9-4.7c0-1.9,0.4-3.5,1.1-5
						c0.7-1.5,1.7-2.6,3-3.4c1.3-0.8,2.8-1.3,4.5-1.3c0.6,0,1.2,0.1,1.7,0.2c0.5,0.1,1,0.3,1.4,0.4v-2.3c0-0.3,0-0.8,0-1.4
						c0-0.6,0.1-1.2,0.1-1.7c-0.4,0-0.8,0-1.3,0.1c-0.5,0-0.9,0-1.1,0v-2.6c1.1,0,2-0.1,2.7-0.2c0.7-0.1,1.3-0.3,1.7-0.4
						c0.4-0.2,0.7-0.3,0.9-0.5h1.9v20.6c0,0.3,0,0.8,0,1.4c0,0.6-0.1,1.2-0.1,1.7c0.4,0,0.8-0.1,1.2-0.1c0.4,0,0.8,0,1,0v2.6h-6.6
						c0-0.3-0.1-0.5-0.1-0.8c0-0.3-0.1-0.5-0.1-0.8c-0.8,0.8-1.6,1.3-2.4,1.7C363.4,131.1,362.6,131.2,361.7,131.2z M363.5,128.1
						c0.6,0,1.2-0.2,1.7-0.5c0.5-0.3,0.9-0.7,1.2-1.2c0-0.3,0-0.7,0-1c0-0.3,0-0.7,0-1V116c-0.2-0.2-0.6-0.3-1-0.5
						c-0.5-0.1-0.9-0.2-1.4-0.2c-1.1,0-1.9,0.4-2.5,1c-0.6,0.6-1,1.5-1.3,2.5c-0.2,1-0.4,2-0.4,3.1c0,1,0.1,1.9,0.4,2.9
						c0.2,0.9,0.6,1.7,1.2,2.3C361.9,127.8,362.6,128.1,363.5,128.1z"/>
					<path class="st0" d="M383.3,131.2c-1.7,0-3.2-0.4-4.5-1.1c-1.3-0.8-2.3-1.8-3-3.2c-0.7-1.4-1.1-3-1.1-4.9
						c0-1.6,0.4-3.1,1.1-4.6c0.7-1.4,1.7-2.6,3-3.4c1.3-0.9,2.8-1.3,4.6-1.3c1,0,1.9,0.1,2.8,0.4c0.9,0.3,1.8,0.7,2.5,1.4
						c0.8,0.6,1.4,1.5,1.8,2.6c0.5,1.1,0.7,2.5,0.6,4.2l-11.4,0.2c0,1.3,0.2,2.4,0.5,3.4c0.3,1,0.8,1.8,1.5,2.4
						c0.7,0.6,1.7,0.9,2.9,0.9c0.5,0,1-0.1,1.6-0.2c0.6-0.2,1.2-0.4,1.8-0.8c0.6-0.4,1.2-0.9,1.7-1.5l1.6,1.5
						c-0.8,1.2-1.7,2.1-2.7,2.7c-1,0.6-1.9,1-2.8,1.2C384.9,131.1,384.1,131.2,383.3,131.2z M380,119.1h6.4c0-1-0.2-1.7-0.4-2.3
						c-0.2-0.6-0.6-1-1-1.2c-0.4-0.3-0.9-0.4-1.5-0.4c-1,0-1.8,0.4-2.4,1.1C380.6,117,380.2,117.9,380,119.1z"/>
					<path class="st0" d="M403.2,128.4c0.5,0,1-0.1,1.3-0.2c0.4-0.1,0.6-0.4,0.8-0.8c0.2-0.4,0.3-1.1,0.3-2V112c0-0.6,0-1.2,0.1-1.8
						c0-0.6,0.1-1,0.1-1.3c-0.4,0-0.8,0-1.4,0.1c-0.6,0-1,0-1.2,0.1v-2.7l10.1,0c2.3,0,4.3,0.3,6,1c1.7,0.7,3.1,1.6,4.1,2.8
						c1.1,1.2,1.9,2.4,2.4,3.9c0.5,1.4,0.8,2.9,0.8,4.3c0,1.4-0.2,2.8-0.7,4.3c-0.5,1.5-1.3,2.8-2.3,4c-1.1,1.2-2.5,2.2-4.2,3
						c-1.7,0.8-3.8,1.1-6.2,1.1h-9.9V128.4z M410.7,125c0,0.6,0,1.2,0,1.8c0,0.6-0.1,1-0.1,1.3c0.2,0,0.6,0,1,0c0.4,0,0.8,0,1.3,0
						c0.4,0,0.8,0,1.1,0c1.3,0,2.4-0.3,3.3-0.8c0.9-0.5,1.7-1.2,2.3-2.1c0.6-0.9,1-1.8,1.3-2.9c0.3-1.1,0.4-2.2,0.4-3.4
						c0-2.4-0.3-4.3-1-5.8c-0.6-1.5-1.6-2.6-2.7-3.4c-1.2-0.7-2.6-1.1-4.2-1.2c-0.6,0-1,0-1.4,0.2c-0.4,0.1-0.7,0.4-0.9,0.8
						c-0.2,0.4-0.3,1.1-0.3,2V125z"/>
					<path class="st0" d="M437.2,131.2c-1.7,0-3.2-0.4-4.5-1.1c-1.3-0.8-2.3-1.8-3-3.2c-0.7-1.4-1.1-3-1.1-4.9
						c0-1.6,0.4-3.1,1.1-4.6c0.7-1.4,1.7-2.6,3-3.4c1.3-0.9,2.8-1.3,4.6-1.3c1,0,1.9,0.1,2.8,0.4c0.9,0.3,1.8,0.7,2.5,1.4
						c0.8,0.6,1.4,1.5,1.8,2.6c0.5,1.1,0.7,2.5,0.6,4.2l-11.4,0.2c0,1.3,0.2,2.4,0.5,3.4c0.3,1,0.8,1.8,1.5,2.4
						c0.7,0.6,1.7,0.9,2.9,0.9c0.5,0,1-0.1,1.6-0.2c0.6-0.2,1.2-0.4,1.8-0.8c0.6-0.4,1.2-0.9,1.7-1.5l1.6,1.5
						c-0.8,1.2-1.7,2.1-2.7,2.7c-1,0.6-1.9,1-2.8,1.2C438.9,131.1,438,131.2,437.2,131.2z M434,119.1h6.4c0-1-0.2-1.7-0.4-2.3
						c-0.2-0.6-0.6-1-1-1.2c-0.4-0.3-0.9-0.4-1.5-0.4c-1,0-1.8,0.4-2.4,1.1C434.5,117,434.2,117.9,434,119.1z"/>
					<path class="st0" d="M449.3,112.3c0-2.8,0.6-4.8,1.8-6c1.2-1.2,2.9-1.8,5-1.8c1.1,0,2,0.2,2.6,0.5s1.1,0.7,1.4,1.2
						c0.3,0.5,0.4,0.9,0.4,1.4c0,0.6-0.2,1.1-0.6,1.6c-0.4,0.5-0.9,0.7-1.6,0.7c-0.7,0-1.2-0.2-1.6-0.5c-0.4-0.4-0.6-0.9-0.6-1.4
						c0-0.1,0-0.2,0-0.3c0-0.1,0-0.2,0.1-0.3c-0.1-0.1-0.3-0.2-0.4-0.2c-0.2,0-0.3-0.1-0.4-0.1c-0.4,0-0.7,0.1-0.9,0.3
						c-0.2,0.2-0.3,0.5-0.4,0.8c-0.1,0.3-0.1,0.7-0.1,1v4.3h3.9v2.7l-3.9,0.1l0,8.9c0,0.3,0,0.8,0,1.4c0,0.6-0.1,1.2-0.1,1.7
						c0.4,0,0.8-0.1,1.3-0.1c0.5,0,0.9,0,1.1,0v2.6h-9.3v-2.3c0.6,0,1.1-0.1,1.4-0.4c0.3-0.3,0.5-0.6,0.6-1.1c0.1-0.5,0.1-1,0.1-1.6
						v-9.2l-2.5,0v-2.9h2.5V112.3z"/>
					<path class="st0" d="M467.4,131.2c-1.7,0-3.2-0.4-4.5-1.1c-1.3-0.8-2.3-1.8-3-3.2c-0.7-1.4-1.1-3-1.1-4.9
						c0-1.6,0.4-3.1,1.1-4.6c0.7-1.4,1.7-2.6,3-3.4c1.3-0.9,2.8-1.3,4.6-1.3c1,0,1.9,0.1,2.8,0.4c0.9,0.3,1.8,0.7,2.5,1.4
						c0.8,0.6,1.4,1.5,1.8,2.6c0.5,1.1,0.7,2.5,0.6,4.2l-11.4,0.2c0,1.3,0.2,2.4,0.5,3.4c0.3,1,0.8,1.8,1.5,2.4
						c0.7,0.6,1.7,0.9,2.9,0.9c0.5,0,1-0.1,1.6-0.2c0.6-0.2,1.2-0.4,1.8-0.8c0.6-0.4,1.2-0.9,1.7-1.5l1.6,1.5
						c-0.8,1.2-1.7,2.1-2.7,2.7c-1,0.6-1.9,1-2.8,1.2C469.1,131.1,468.2,131.2,467.4,131.2z M464.2,119.1h6.4c0-1-0.2-1.7-0.4-2.3
						c-0.2-0.6-0.6-1-1-1.2c-0.4-0.3-0.9-0.4-1.5-0.4c-1,0-1.8,0.4-2.4,1.1C464.7,117,464.4,117.9,464.2,119.1z"/>
					<path class="st0" d="M477.3,130.7v-2.3c0.6,0,1.1-0.1,1.4-0.4c0.3-0.3,0.5-0.6,0.5-1.1c0.1-0.5,0.1-1,0.1-1.6v-5.8
						c0-0.4,0-0.9,0-1.4c0-0.5,0.1-1,0.1-1.5c-0.4,0-0.8,0-1.3,0.1c-0.5,0-0.9,0-1.1,0.1V114c1.1,0,2-0.1,2.7-0.2
						c0.7-0.1,1.3-0.3,1.8-0.4c0.4-0.2,0.7-0.3,0.9-0.5h1.7c0,0.3,0.1,0.5,0.1,0.7c0,0.1,0,0.3,0,0.4c0,0.1,0.1,0.4,0.1,0.7
						c0.5-0.4,1-0.7,1.6-1c0.6-0.3,1.2-0.5,1.8-0.7c0.6-0.2,1.1-0.3,1.6-0.3c2.1,0,3.6,0.6,4.5,1.8c0.9,1.2,1.3,3.2,1.3,5.9v4.7
						c0,0.3,0,0.8,0,1.4c0,0.6-0.1,1.2-0.1,1.7c0.4,0,0.8-0.1,1.2-0.1c0.4,0,0.8,0,1,0v2.6h-9.1v-2.3c0.6,0,1.1-0.1,1.4-0.4
						c0.3-0.3,0.5-0.6,0.6-1.1c0.1-0.5,0.1-1,0.1-1.6l0-4.9c0-1.5-0.2-2.6-0.6-3.4c-0.4-0.7-1.2-1.1-2.2-1.1c-0.6,0-1.2,0.1-1.7,0.4
						c-0.6,0.3-1,0.6-1.4,0.9c0,0.3,0,0.7,0,1c0,0.3,0,0.7,0,1v5.9c0,0.3,0,0.8,0,1.4c0,0.6-0.1,1.2-0.1,1.7c0.4,0,0.8-0.1,1.2-0.1
						c0.5,0,0.8,0,1,0v2.6H477.3z"/>
					<path class="st0" d="M507.2,131.2c-1,0-2-0.1-2.9-0.4c-1-0.3-1.7-0.6-2.2-1l0.1,1h-2.6l-0.1-6h2.3c0.1,0.7,0.3,1.3,0.8,1.9
						c0.5,0.6,1.1,1,1.9,1.4c0.8,0.3,1.7,0.5,2.6,0.5c0.4,0,0.8-0.1,1.1-0.2c0.4-0.1,0.7-0.3,0.9-0.6c0.2-0.3,0.4-0.6,0.4-1
						c0-0.4-0.2-0.8-0.5-1.1c-0.3-0.3-0.8-0.5-1.4-0.8c-0.6-0.3-1.3-0.5-2.2-0.9c-0.7-0.3-1.4-0.6-2.2-0.9c-0.7-0.3-1.4-0.7-2-1.1
						c-0.6-0.4-1.1-1-1.5-1.6c-0.4-0.6-0.6-1.4-0.6-2.3c0-0.7,0.1-1.3,0.4-2c0.3-0.7,0.6-1.3,1.2-1.8c0.5-0.5,1.2-1,2-1.3
						c0.8-0.3,1.8-0.5,2.9-0.5c0.6,0,1.3,0.1,2.1,0.3c0.8,0.2,1.5,0.5,2,0.9v-1h2.6v6.1h-2.3c-0.1-0.8-0.4-1.5-0.9-2.1
						c-0.4-0.6-1-1-1.6-1.3c-0.7-0.3-1.4-0.5-2.3-0.5c-0.6,0-1.1,0.1-1.6,0.4c-0.5,0.3-0.7,0.8-0.7,1.4c0,0.5,0.2,1,0.6,1.3
						c0.4,0.3,0.9,0.6,1.5,0.8c0.6,0.2,1.4,0.5,2.2,0.7c1.2,0.4,2.2,0.9,3.1,1.4c0.9,0.5,1.6,1.2,2.2,1.9c0.5,0.8,0.8,1.7,0.8,2.8
						c0,1.2-0.3,2.2-0.9,3c-0.6,0.8-1.4,1.4-2.3,1.8C509.3,131,508.3,131.2,507.2,131.2z"/>
					<path class="st0" d="M525.6,130.7c0-0.3-0.1-0.6-0.1-0.8c0-0.2,0-0.5-0.1-0.8c-0.8,0.8-1.6,1.3-2.5,1.7
						c-0.9,0.3-1.8,0.5-2.7,0.5c-1.5,0-2.6-0.4-3.5-1.3c-0.8-0.9-1.2-2-1.2-3.3c0-1.1,0.3-2.1,0.9-2.8c0.6-0.8,1.3-1.4,2.3-1.9
						c0.9-0.5,2-0.9,3.1-1.1c1.1-0.3,2.3-0.4,3.5-0.5v-1.8c0-0.6-0.1-1.1-0.2-1.6c-0.2-0.5-0.4-0.9-0.8-1.1
						c-0.4-0.3-0.9-0.4-1.5-0.4c-0.4,0-0.9,0.1-1.3,0.3c-0.4,0.2-0.8,0.4-1.1,0.7c0.2,0.2,0.3,0.4,0.3,0.7c0,0.2,0.1,0.5,0.1,0.6
						c0,0.5-0.2,0.9-0.6,1.4c-0.4,0.5-1,0.7-1.8,0.7c-0.7,0-1.2-0.3-1.6-0.7c-0.4-0.5-0.6-1-0.6-1.6c0-0.9,0.3-1.7,1-2.4
						c0.7-0.7,1.5-1.2,2.7-1.6c1.1-0.4,2.3-0.6,3.7-0.6c2,0,3.6,0.5,4.7,1.6c1.1,1.1,1.7,2.7,1.7,5.1c0,0.8,0,1.5,0,2
						c0,0.6,0,1.1,0,1.7c0,0.6,0,1.2,0,2c0,0.3,0,0.8,0,1.4c0,0.6-0.1,1.2-0.1,1.7c0.4,0,0.8-0.1,1.2-0.1c0.4,0,0.8,0,1,0v2.6H525.6
						z M525.2,122.7c-0.6,0.1-1.3,0.2-1.8,0.3c-0.6,0.2-1.1,0.4-1.5,0.7c-0.4,0.3-0.8,0.6-1,1c-0.2,0.4-0.4,0.8-0.4,1.3
						c0,0.6,0.2,1.1,0.6,1.4c0.4,0.3,0.8,0.4,1.4,0.4c0.5,0,1-0.1,1.5-0.3c0.5-0.2,0.9-0.5,1.3-0.9c0-0.2,0-0.5,0-0.7
						c0-0.2,0-0.4,0-0.7c0-0.4,0-0.8,0-1.3C525.2,123.5,525.2,123.1,525.2,122.7z"/>
					<path class="st0" d="M172.3,166.6v-1.3c0.6,0,1.1-0.2,1.4-0.4c0.3-0.2,0.5-0.6,0.5-1.1c0.1-0.5,0.1-1.1,0.1-1.8v-12.2
						c0-0.4,0-0.8,0-1.2c0-0.4,0-0.7,0.1-1c-0.3,0-0.7,0-1.1,0.1c-0.4,0-0.7,0-1.1,0.1V146c1.2,0,2.4,0,3.6,0c1.2,0,2.4,0,3.7,0
						c1.8,0,3.4,0.2,4.5,0.6c1.2,0.4,2.1,1,2.7,1.9c0.6,0.8,0.9,1.9,0.9,3.1c0,0.8-0.1,1.6-0.5,2.3c-0.3,0.8-0.9,1.5-1.7,2.1
						c-0.8,0.6-1.9,1.1-3.2,1.4c0.4,0.2,0.7,0.6,1.1,1s0.6,0.9,1,1.4l1.8,2.8c0.4,0.6,0.7,1.1,1,1.5c0.3,0.4,0.7,0.7,1.1,1
						c0.4,0.2,0.9,0.3,1.4,0.3v1.3h-4.1c-0.5-0.4-0.9-0.9-1.3-1.4s-0.7-1.1-1.2-1.7l-2-3.3c-0.3-0.4-0.5-0.8-0.8-1.3
						c-0.3-0.4-0.6-0.8-0.9-1.1c-0.3,0-0.6,0-0.9,0c-0.3,0-0.6,0-0.9,0v4.8c0,0.5,0,1,0,1.4c0,0.4,0,0.8-0.1,1c0.2,0,0.5,0,0.7,0
						c0.3,0,0.5,0,0.8,0c0.3,0,0.5,0,0.7,0v1.6H172.3z M179.2,156.4c1.1,0,2-0.2,2.8-0.5c0.8-0.3,1.3-0.8,1.8-1.5s0.6-1.5,0.6-2.6
						c0-0.8-0.1-1.5-0.4-2c-0.2-0.5-0.6-1-1-1.3c-0.4-0.3-0.9-0.6-1.5-0.7c-0.6-0.1-1.2-0.2-1.9-0.2c-0.6,0-1.1,0.1-1.4,0.4
						c-0.3,0.2-0.5,0.6-0.5,1c-0.1,0.4-0.1,1-0.1,1.7v5.7c0.3,0,0.6,0,0.8,0.1C178.6,156.4,178.9,156.4,179.2,156.4z"/>
					<path class="st0" d="M197.5,167c-1.4,0-2.6-0.3-3.7-1c-1.1-0.6-1.9-1.5-2.6-2.7c-0.6-1.2-0.9-2.5-0.9-4.1
						c0-1.4,0.3-2.6,0.9-3.8c0.6-1.2,1.5-2.2,2.6-2.9c1.1-0.7,2.4-1.1,3.9-1.1c0.8,0,1.6,0.1,2.3,0.4c0.7,0.3,1.4,0.7,2,1.2
						c0.6,0.5,1,1.2,1.4,2.1c0.3,0.9,0.5,1.9,0.5,3.1l-10.1,0.2c0,1.3,0.2,2.5,0.5,3.5c0.3,1,0.8,1.8,1.5,2.4
						c0.7,0.6,1.6,0.9,2.7,0.9c0.5,0,1.1-0.1,1.7-0.3c0.6-0.2,1.2-0.5,1.7-0.8c0.5-0.4,1-0.8,1.4-1.3l0.9,0.8
						c-0.6,0.9-1.3,1.6-2,2.1s-1.5,0.9-2.3,1.1C198.9,166.9,198.2,167,197.5,167z M193.9,156.8h6.8c0-0.7-0.1-1.4-0.3-2
						c-0.2-0.6-0.5-1.1-1-1.4c-0.4-0.4-1-0.5-1.6-0.5c-1,0-1.9,0.3-2.6,1C194.6,154.5,194.1,155.5,193.9,156.8z"/>
					<path class="st0" d="M205.7,174v-1.2c0.6,0,1-0.1,1.2-0.4c0.2-0.3,0.4-0.7,0.4-1.1c0-0.5,0.1-1.1,0.1-1.7l0-13.6
						c0-0.3,0-0.7,0-1c0-0.4,0-0.7,0.1-1.1c-0.3,0-0.7,0-1.1,0c-0.4,0-0.7,0-1,0v-1.6c0.9,0,1.6,0,2.1-0.1c0.5-0.1,0.9-0.2,1.1-0.3
						c0.3-0.1,0.5-0.2,0.6-0.4h1.1c0,0.2,0,0.4,0.1,0.7c0,0.3,0,0.5,0.1,0.8c0.6-0.5,1.3-1,2.1-1.3c0.8-0.3,1.5-0.4,2.3-0.4
						c1.1,0,2.2,0.3,3.1,0.9c0.9,0.6,1.7,1.4,2.3,2.5c0.6,1.1,0.9,2.4,0.9,3.9c0,1.6-0.3,3.1-1,4.3c-0.7,1.3-1.6,2.2-2.7,2.9
						c-1.1,0.7-2.4,1-3.7,1c-0.6,0-1.2-0.1-1.7-0.2c-0.5-0.1-1-0.3-1.5-0.6v4.2c0,0.4,0,0.7,0,1.1c0,0.4,0,0.7-0.1,1.1
						c0.3,0,0.6,0,1,0c0.3,0,0.6,0,0.9,0v1.6H205.7z M213.5,165.5c0.9,0,1.7-0.3,2.3-0.8c0.6-0.6,1.1-1.3,1.4-2.3
						c0.3-0.9,0.5-2,0.5-3.2c0-1-0.1-2-0.4-2.9c-0.3-0.9-0.7-1.7-1.3-2.2c-0.6-0.6-1.4-0.9-2.3-0.8c-0.6,0-1.2,0.1-1.7,0.4
						c-0.5,0.3-1,0.7-1.4,1.1c0,0.3,0,0.5,0,0.8c0,0.3,0,0.7,0,1.1c0,0.4,0,1,0,1.7c0,0.7,0,1.5,0,2.5c0,1,0,2.2,0,3.7
						c0.4,0.3,0.8,0.5,1.4,0.7C212.4,165.4,212.9,165.5,213.5,165.5z"/>
					<path class="st0" d="M229.3,167c-1.1,0-2-0.2-2.7-0.6c-0.7-0.4-1.2-1.1-1.6-2c-0.4-0.9-0.5-2.2-0.5-3.8V156c0-0.3,0-0.7,0-1
						c0-0.4,0-0.7,0.1-1.1c-0.3,0-0.7,0-1.1,0c-0.4,0-0.7,0-1,0v-1.6h0.7c1,0,1.7-0.1,2.2-0.3c0.5-0.2,0.8-0.4,1-0.6h1.1v8.9
						c0,1.5,0.2,2.7,0.6,3.5c0.4,0.8,1.2,1.1,2.2,1.1c0.7,0,1.3-0.2,1.9-0.6c0.6-0.4,1.1-0.9,1.5-1.4v-7c0-0.4,0-0.8,0-1.2
						c0-0.4,0.1-0.7,0.1-1.1c-0.4,0-0.7,0-1.1,0c-0.4,0-0.7,0-1,0v-1.6h0.8c0.9,0,1.5-0.1,2-0.3c0.5-0.2,0.8-0.4,1.1-0.6h1.1l0,10.8
						c0,0.3,0,0.7,0,1.3c0,0.5,0,1-0.1,1.4c0.3,0,0.7,0,1-0.1c0.4,0,0.7,0,1,0v1.6h-4.7c0-0.3-0.1-0.6-0.1-0.9
						c0-0.3-0.1-0.5-0.1-0.8c-0.6,0.6-1.3,1.1-2.1,1.5C231,166.8,230.2,167,229.3,167z M229.2,149.7l-1-0.9l2.4-4
						c0.3-0.4,0.6-0.6,0.8-0.7c0.3-0.1,0.5-0.1,0.8-0.1c0.2,0,0.4,0.1,0.6,0.2c0.2,0.1,0.3,0.3,0.4,0.6c0.1,0.3,0.1,0.5,0,0.8
						c-0.1,0.3-0.3,0.6-0.6,1L229.2,149.7z"/>
					<path class="st0" d="M241.3,148.8c0-0.3,0-0.7,0-1c0-0.3,0-0.7,0.1-1.1c-0.4,0-0.7,0-1.1,0c-0.4,0-0.7,0-1,0v-1.6
						c0.9,0,1.6,0,2.1-0.1c0.5-0.1,0.9-0.2,1.2-0.3c0.3-0.1,0.5-0.2,0.6-0.4h1.1v8.7c0.6-0.5,1.2-1,2-1.2c0.7-0.3,1.5-0.4,2.3-0.4
						c1.2,0,2.3,0.3,3.3,0.9c1,0.6,1.7,1.5,2.3,2.6c0.6,1.1,0.8,2.4,0.8,4c0,1.6-0.3,3.1-1,4.3c-0.7,1.2-1.6,2.2-2.7,2.9
						c-1.1,0.7-2.4,1-3.8,1c-0.6,0-1.3-0.1-2.1-0.4c-0.8-0.2-1.5-0.7-2.2-1.4l-0.8,1.3h-1.3L241.3,148.8z M244.4,162
						c0,0.9,0.1,1.6,0.4,2.1c0.3,0.5,0.7,0.9,1.1,1.1s0.9,0.3,1.5,0.3c0.9,0,1.7-0.2,2.3-0.8s1.1-1.2,1.4-2.2
						c0.3-0.9,0.5-1.9,0.5-3.1c0-1.2-0.1-2.2-0.4-3.2c-0.3-0.9-0.7-1.7-1.3-2.2c-0.6-0.6-1.4-0.8-2.3-0.8c-0.6,0-1.2,0.1-1.7,0.4
						c-0.6,0.3-1,0.6-1.4,1.1V162z"/>
					<path class="st0" d="M256.7,165.3c0.6,0,1-0.1,1.2-0.4c0.2-0.3,0.4-0.7,0.4-1.1c0-0.5,0.1-1.1,0.1-1.7v-13.3c0-0.3,0-0.7,0-1
						c0-0.3,0-0.7,0.1-1.1c-0.3,0-0.7,0-1.1,0c-0.4,0-0.7,0-1,0v-1.6c0.9,0,1.6,0,2.1-0.1c0.5-0.1,0.9-0.2,1.2-0.3
						c0.3-0.1,0.5-0.2,0.6-0.4h1.1v18.5c0,0.4,0,0.7,0,1.1c0,0.4,0,0.7-0.1,1.1c0.3,0,0.6,0,1,0c0.3,0,0.6,0,0.9,0v1.6h-6.5V165.3z"
						/>
					<path class="st0" d="M265.3,165.3c0.6,0,1-0.1,1.2-0.4c0.2-0.3,0.4-0.7,0.4-1.1c0-0.5,0.1-1.1,0.1-1.7V156c0-0.3,0-0.7,0-1
						c0-0.3,0-0.7,0.1-1.1c-0.3,0-0.7,0-1.1,0c-0.4,0-0.7,0-1,0v-1.6c0.9,0,1.6,0,2.1-0.1c0.5-0.1,0.9-0.2,1.2-0.3
						c0.3-0.1,0.5-0.2,0.6-0.4h1.1v11.3c0,0.4,0,0.7,0,1.1c0,0.4,0,0.7-0.1,1.1c0.3,0,0.6,0,1,0c0.3,0,0.6,0,0.9,0v1.6h-6.5V165.3z
						 M268.4,148.9c-0.5,0-0.9-0.2-1.3-0.6c-0.4-0.4-0.5-0.8-0.5-1.4c0-0.5,0.2-1,0.6-1.4c0.4-0.4,0.8-0.6,1.3-0.6
						c0.5,0,0.9,0.2,1.3,0.6c0.3,0.4,0.5,0.8,0.5,1.4c0,0.5-0.2,1-0.5,1.4C269.3,148.7,268.9,148.9,268.4,148.9z"/>
					<path class="st0" d="M280.6,167c-1.3,0-2.5-0.3-3.6-0.9c-1.1-0.6-2-1.5-2.6-2.6c-0.7-1.1-1-2.5-1-4c0-1.1,0.2-2.1,0.6-3
						s0.9-1.8,1.6-2.6c0.7-0.8,1.5-1.4,2.4-1.8c0.9-0.4,2-0.7,3.1-0.7c1.2,0,2.1,0.2,3,0.5c0.8,0.4,1.5,0.8,1.9,1.4
						c0.4,0.6,0.7,1.2,0.7,1.8c0,0.5-0.1,0.9-0.4,1.2c-0.3,0.4-0.7,0.5-1.2,0.5c-0.6,0-1-0.2-1.2-0.5c-0.2-0.4-0.4-0.7-0.4-1
						c0-0.2,0-0.4,0.1-0.6c0.1-0.2,0.2-0.4,0.3-0.6c-0.2-0.4-0.4-0.7-0.8-0.9c-0.4-0.2-0.7-0.3-1.1-0.4c-0.4-0.1-0.7-0.1-0.9-0.1
						c-1.2,0-2.2,0.5-3,1.5c-0.8,1-1.2,2.5-1.2,4.4c0,1.2,0.2,2.3,0.5,3.3c0.4,1,0.9,1.7,1.6,2.3c0.7,0.6,1.5,0.9,2.5,0.9
						c0.9,0,1.7-0.2,2.6-0.7c0.8-0.5,1.5-1,2-1.7l0.9,0.8c-0.6,0.9-1.2,1.6-2,2.1c-0.7,0.5-1.5,0.9-2.2,1.1S281.3,167,280.6,167z"/>
					<path class="st0" d="M297.8,166.6c0-0.3-0.1-0.6-0.1-0.8c0-0.2,0-0.5-0.1-0.7c-0.7,0.7-1.4,1.2-2.1,1.5
						c-0.8,0.3-1.6,0.5-2.4,0.5c-1.4,0-2.5-0.3-3.2-1c-0.7-0.7-1.1-1.6-1.1-2.6c0-0.9,0.3-1.7,0.8-2.3c0.5-0.7,1.2-1.2,2.1-1.6
						c0.9-0.4,1.8-0.7,2.8-0.9c1-0.2,2-0.3,3-0.3v-1.7c0-0.6-0.1-1.2-0.2-1.7c-0.1-0.5-0.4-1-0.7-1.3c-0.4-0.3-0.9-0.5-1.7-0.5
						c-0.5,0-1,0.1-1.5,0.3c-0.5,0.2-0.9,0.5-1.2,1c0.2,0.2,0.3,0.3,0.3,0.5c0,0.2,0.1,0.4,0.1,0.6c0,0.3-0.1,0.6-0.4,0.9
						c-0.2,0.3-0.6,0.5-1.2,0.5c-0.5,0-0.8-0.2-1.1-0.5c-0.2-0.3-0.4-0.7-0.4-1.1c0-0.7,0.3-1.3,0.8-1.9c0.5-0.5,1.2-1,2.1-1.3
						c0.9-0.3,1.9-0.5,3-0.5c1.7,0,2.9,0.4,3.8,1.3c0.8,0.9,1.2,2.3,1.2,4.2c0,0.7,0,1.4,0,2s0,1.3,0,1.9c0,0.6,0,1.3,0,2.1
						c0,0.3,0,0.6,0,1c0,0.4,0,0.8-0.1,1.2c0.3,0,0.7,0,1-0.1c0.4,0,0.7,0,1,0v1.6H297.8z M297.5,159.5c-0.6,0-1.3,0.1-1.9,0.3
						c-0.7,0.1-1.2,0.3-1.8,0.6c-0.5,0.3-1,0.6-1.3,1.1c-0.3,0.4-0.5,0.9-0.5,1.6c0,0.7,0.3,1.2,0.7,1.5c0.4,0.3,0.9,0.5,1.4,0.5
						c0.7,0,1.3-0.1,1.8-0.4c0.5-0.3,1-0.6,1.6-1.1c0-0.2,0-0.4,0-0.7c0-0.2,0-0.5,0-0.7c0-0.2,0-0.5,0-1
						C297.5,160.6,297.5,160.1,297.5,159.5z"/>
					<path class="st0" d="M310.7,166.6v-1.3c0.6,0,1-0.2,1.3-0.5c0.3-0.3,0.6-0.7,0.8-1.3c0.2-0.5,0.4-1.1,0.7-1.8l5.9-16.2h1.2
						l6.4,16.5c0.2,0.4,0.3,0.9,0.5,1.5c0.2,0.6,0.3,1.2,0.3,1.6c0.3,0,0.7-0.1,1-0.1c0.3,0,0.6,0,0.9,0v1.6h-7.1v-1.3
						c0.7,0,1.1-0.2,1.4-0.5c0.2-0.3,0.3-0.6,0.3-1c0-0.4-0.2-0.8-0.3-1.2l-0.9-2.4l-7.2,0.2l-0.9,2.6c-0.1,0.4-0.2,0.8-0.4,1.1
						c-0.1,0.4-0.3,0.7-0.4,1c0.4,0,0.7-0.1,1.1-0.1c0.4,0,0.8,0,1.1,0v1.6H310.7z M316.4,158.8h6.2l-1.8-5
						c-0.2-0.6-0.5-1.3-0.7-1.9c-0.2-0.6-0.4-1.2-0.6-1.8h0c-0.2,0.5-0.3,1-0.5,1.6c-0.2,0.6-0.4,1.2-0.7,1.9L316.4,158.8z"/>
					<path class="st0" d="M331.4,165.3c0.6,0,1-0.1,1.2-0.4c0.2-0.3,0.4-0.7,0.4-1.1c0-0.5,0.1-1.1,0.1-1.7V156c0-0.3,0-0.7,0-1
						c0-0.4,0-0.7,0.1-1.1c-0.3,0-0.7,0-1.1,0c-0.4,0-0.7,0-1,0v-1.6h1c0.8,0,1.4-0.1,1.9-0.3c0.4-0.2,0.7-0.4,0.9-0.6h1.1
						c0,0.3,0.1,0.7,0.1,1.1c0,0.5,0,1,0.1,1.6c0.4-0.5,0.8-1,1.3-1.5c0.5-0.4,1-0.8,1.6-1.1c0.6-0.3,1.2-0.4,1.8-0.4
						c0.6,0,1.1,0.2,1.6,0.5c0.4,0.3,0.7,0.8,0.7,1.6c0,0.2-0.1,0.4-0.2,0.7c-0.1,0.3-0.3,0.5-0.5,0.7c-0.2,0.2-0.6,0.3-1,0.3
						c-0.4,0-0.8-0.2-1.1-0.5c-0.3-0.3-0.4-0.7-0.4-1.2c-0.5,0-0.9,0.1-1.4,0.4c-0.5,0.3-0.9,0.7-1.3,1.1c-0.4,0.5-0.7,1-1,1.5v6.4
						c0,0.4,0,0.7,0,1.1c0,0.4,0,0.7-0.1,1.1c0.3,0,0.6,0,1,0c0.3,0,0.6,0,0.9,0v1.6h-6.6V165.3z"/>
					<path class="st0" d="M351.1,174.5c-1.7,0-3.1-0.2-4.2-0.6c-1-0.4-1.8-0.9-2.3-1.5c-0.5-0.6-0.7-1.2-0.7-1.9
						c0-0.5,0.1-1,0.4-1.5c0.2-0.5,0.6-0.8,1-1.2c0.4-0.3,0.9-0.6,1.4-0.8c-0.7-0.2-1.2-0.5-1.6-0.9c-0.4-0.4-0.5-0.9-0.5-1.5
						c0-0.6,0.3-1.2,0.7-1.8c0.5-0.6,1.2-1,2.2-1.2c-0.9-0.4-1.6-1-2.1-1.7c-0.5-0.7-0.8-1.6-0.8-2.6c0-1.2,0.3-2.2,0.9-3.1
						c0.6-0.9,1.4-1.6,2.4-2.1c1-0.5,2-0.7,3-0.7c0.6,0,1.2,0.1,1.9,0.2c0.6,0.2,1.2,0.4,1.8,0.8c0.2-0.6,0.5-1.1,0.8-1.6
						c0.4-0.5,0.8-0.8,1.2-1.1c0.5-0.3,1-0.4,1.5-0.4c0.6,0,1,0.1,1.3,0.4c0.3,0.3,0.4,0.7,0.4,1.2c0,0.2,0,0.3-0.1,0.6
						c-0.1,0.2-0.2,0.4-0.5,0.6c-0.2,0.2-0.5,0.2-0.9,0.2c-0.3,0-0.6-0.1-0.8-0.3c-0.2-0.2-0.4-0.5-0.5-0.7c-0.4,0.1-0.7,0.3-1,0.7
						c-0.3,0.4-0.4,0.8-0.5,1.2c0.5,0.4,0.9,1,1.2,1.6c0.3,0.6,0.4,1.3,0.4,2c0,1.1-0.3,2.1-0.9,3c-0.6,0.9-1.4,1.5-2.3,2
						c-1,0.5-2,0.7-3.1,0.7c-0.3,0-0.6,0-0.9-0.1c-0.3,0-0.6-0.1-1-0.1c-0.6,0-1.1,0.1-1.5,0.4c-0.4,0.3-0.6,0.6-0.5,1.1
						c0.1,0.4,0.5,0.7,1.2,0.9c0.7,0.1,1.8,0.2,3.1,0.3c1.5,0.1,2.8,0.2,3.9,0.5c1.1,0.3,1.9,0.8,2.5,1.4c0.6,0.6,0.9,1.5,0.9,2.6
						c0,0.8-0.2,1.5-0.7,2.1c-0.4,0.6-1,1.1-1.8,1.6c-0.7,0.4-1.6,0.7-2.4,1C352.9,174.4,352,174.5,351.1,174.5z M351.4,173.1
						c1.6,0,2.8-0.3,3.7-0.9c0.9-0.6,1.3-1.3,1.3-2c0-0.6-0.2-1.1-0.6-1.5c-0.4-0.3-1-0.6-1.8-0.7c-0.8-0.1-1.7-0.2-2.7-0.2
						c-0.5,0-1-0.1-1.6-0.1c-0.5,0-1-0.1-1.5-0.1c-0.4,0.3-0.8,0.7-1,1.1c-0.2,0.4-0.4,0.9-0.4,1.4c0,0.9,0.4,1.6,1.3,2.2
						C348.8,172.8,350,173.1,351.4,173.1z M351,161.2c0.7,0,1.2-0.2,1.7-0.5c0.4-0.3,0.8-0.8,1-1.4c0.2-0.6,0.3-1.2,0.3-1.9
						c0-0.8-0.1-1.6-0.4-2.3c-0.2-0.7-0.6-1.3-1-1.7c-0.4-0.4-1-0.6-1.7-0.6c-1,0-1.7,0.4-2.2,1.1c-0.5,0.8-0.8,1.7-0.8,2.8
						c0,0.9,0.1,1.6,0.4,2.3c0.2,0.7,0.6,1.2,1.1,1.6C349.8,161,350.3,161.2,351,161.2z"/>
					<path class="st0" d="M367,167c-1.4,0-2.6-0.3-3.7-1c-1.1-0.6-1.9-1.5-2.6-2.7c-0.6-1.2-0.9-2.5-0.9-4.1c0-1.4,0.3-2.6,0.9-3.8
						c0.6-1.2,1.5-2.2,2.6-2.9c1.1-0.7,2.4-1.1,3.9-1.1c0.8,0,1.6,0.1,2.3,0.4c0.7,0.3,1.4,0.7,2,1.2c0.6,0.5,1,1.2,1.4,2.1
						c0.3,0.9,0.5,1.9,0.5,3.1l-10.1,0.2c0,1.3,0.2,2.5,0.5,3.5c0.3,1,0.8,1.8,1.5,2.4c0.7,0.6,1.6,0.9,2.7,0.9
						c0.5,0,1.1-0.1,1.7-0.3c0.6-0.2,1.2-0.5,1.7-0.8c0.5-0.4,1-0.8,1.4-1.3l0.9,0.8c-0.6,0.9-1.3,1.6-2,2.1
						c-0.8,0.5-1.5,0.9-2.3,1.1C368.4,166.9,367.6,167,367,167z M363.4,156.8h6.8c0-0.7-0.1-1.4-0.3-2c-0.2-0.6-0.5-1.1-1-1.4
						c-0.4-0.4-1-0.5-1.6-0.5c-1,0-1.9,0.3-2.6,1C364,154.5,363.6,155.5,363.4,156.8z"/>
					<path class="st0" d="M375.3,166.6v-1.2c0.6,0,1-0.1,1.2-0.4c0.2-0.3,0.4-0.7,0.4-1.1c0-0.5,0.1-1.1,0.1-1.7l0-6.1
						c0-0.3,0-0.7,0-1c0-0.4,0-0.7,0.1-1.1c-0.4,0-0.7,0-1.1,0c-0.4,0-0.7,0-1,0v-1.6c0.9,0,1.6,0,2.1-0.1c0.5-0.1,0.9-0.2,1.1-0.3
						c0.3-0.1,0.5-0.2,0.6-0.4h1.1c0,0.2,0,0.3,0,0.5c0,0.2,0,0.3,0,0.5c0,0.2,0,0.4,0,0.7c0.4-0.4,0.9-0.7,1.4-0.9
						c0.5-0.3,1-0.5,1.6-0.7c0.6-0.2,1.1-0.2,1.6-0.2c1.7,0,3,0.5,3.8,1.6c0.8,1.1,1.2,2.7,1.2,5v5c0,0.4,0,0.7,0,1.1
						c0,0.4,0,0.7-0.1,1.1c0.3,0,0.6,0,1,0c0.3,0,0.6,0,0.9,0v1.6h-6.5v-1.2c0.6,0,1-0.1,1.2-0.4c0.2-0.3,0.4-0.7,0.4-1.1
						c0-0.5,0.1-1.1,0.1-1.7V158c0-1.5-0.3-2.7-0.7-3.5c-0.5-0.8-1.2-1.2-2.3-1.1c-0.6,0-1.2,0.2-1.8,0.5c-0.6,0.3-1.1,0.7-1.5,1.1
						c0,0.2,0,0.4,0,0.6c0,0.2,0,0.5,0,0.7v6.7c0,0.4,0,0.7,0,1.1c0,0.4,0,0.7-0.1,1.1c0.3,0,0.6,0,1,0c0.3,0,0.6,0,0.9,0v1.6H375.3
						z"/>
					<path class="st0" d="M398.3,167c-0.5,0-1-0.1-1.5-0.2c-0.5-0.1-1-0.4-1.4-0.8c-0.4-0.4-0.7-0.9-1-1.7c-0.2-0.7-0.4-1.7-0.4-2.9
						l0.1-8H392v-1.6c0.5,0,1.1-0.2,1.6-0.6c0.5-0.4,1-0.9,1.4-1.5c0.4-0.6,0.7-1.3,0.8-2h1.4v4.1h4.5v1.5l-4.5,0.1l-0.1,7.8
						c0,0.7,0.1,1.4,0.2,2c0.1,0.6,0.3,1,0.6,1.3c0.3,0.3,0.7,0.5,1.2,0.5c0.4,0,0.9-0.1,1.4-0.4c0.5-0.3,0.9-0.7,1.4-1.3l1,0.9
						c-0.5,0.7-0.9,1.2-1.4,1.6c-0.5,0.4-0.9,0.7-1.3,0.9c-0.4,0.2-0.8,0.3-1.2,0.4C398.8,167,398.5,167,398.3,167z"/>
					<path class="st0" d="M404.5,165.3c0.6,0,1-0.1,1.2-0.4c0.2-0.3,0.4-0.7,0.4-1.1c0-0.5,0.1-1.1,0.1-1.7V156c0-0.3,0-0.7,0-1
						c0-0.3,0-0.7,0.1-1.1c-0.3,0-0.7,0-1.1,0c-0.4,0-0.7,0-1,0v-1.6c0.9,0,1.6,0,2.1-0.1c0.5-0.1,0.9-0.2,1.2-0.3
						c0.3-0.1,0.5-0.2,0.6-0.4h1.1v11.3c0,0.4,0,0.7,0,1.1c0,0.4,0,0.7-0.1,1.1c0.3,0,0.6,0,1,0c0.3,0,0.6,0,0.9,0v1.6h-6.5V165.3z
						 M407.6,148.9c-0.5,0-0.9-0.2-1.3-0.6c-0.4-0.4-0.5-0.8-0.5-1.4c0-0.5,0.2-1,0.6-1.4c0.4-0.4,0.8-0.6,1.3-0.6
						c0.5,0,0.9,0.2,1.3,0.6c0.3,0.4,0.5,0.8,0.5,1.4c0,0.5-0.2,1-0.5,1.4C408.5,148.7,408.1,148.9,407.6,148.9z"/>
					<path class="st0" d="M413.1,166.6v-1.2c0.6,0,1-0.1,1.2-0.4c0.2-0.3,0.4-0.7,0.4-1.1c0-0.5,0.1-1.1,0.1-1.7l0-6.1
						c0-0.3,0-0.7,0-1c0-0.4,0-0.7,0.1-1.1c-0.4,0-0.7,0-1.1,0c-0.4,0-0.7,0-1,0v-1.6c0.9,0,1.6,0,2.1-0.1c0.5-0.1,0.9-0.2,1.1-0.3
						c0.3-0.1,0.5-0.2,0.6-0.4h1.1c0,0.2,0,0.3,0,0.5c0,0.2,0,0.3,0,0.5c0,0.2,0,0.4,0,0.7c0.4-0.4,0.9-0.7,1.4-0.9
						c0.5-0.3,1-0.5,1.6-0.7c0.6-0.2,1.1-0.2,1.6-0.2c1.7,0,3,0.5,3.8,1.6c0.8,1.1,1.2,2.7,1.2,5v5c0,0.4,0,0.7,0,1.1
						c0,0.4,0,0.7-0.1,1.1c0.3,0,0.6,0,1,0c0.3,0,0.6,0,0.9,0v1.6h-6.5v-1.2c0.6,0,1-0.1,1.2-0.4c0.2-0.3,0.4-0.7,0.4-1.1
						c0-0.5,0.1-1.1,0.1-1.7V158c0-1.5-0.3-2.7-0.7-3.5c-0.5-0.8-1.2-1.2-2.3-1.1c-0.6,0-1.2,0.2-1.8,0.5c-0.6,0.3-1.1,0.7-1.5,1.1
						c0,0.2,0,0.4,0,0.6c0,0.2,0,0.5,0,0.7v6.7c0,0.4,0,0.7,0,1.1c0,0.4,0,0.7-0.1,1.1c0.3,0,0.6,0,1,0c0.3,0,0.6,0,0.9,0v1.6H413.1
						z"/>
					<path class="st0" d="M439.9,166.6c0-0.3-0.1-0.6-0.1-0.8c0-0.2,0-0.5-0.1-0.7c-0.7,0.7-1.4,1.2-2.1,1.5
						c-0.8,0.3-1.6,0.5-2.4,0.5c-1.4,0-2.5-0.3-3.2-1c-0.7-0.7-1.1-1.6-1.1-2.6c0-0.9,0.3-1.7,0.8-2.3c0.5-0.7,1.2-1.2,2.1-1.6
						c0.9-0.4,1.8-0.7,2.8-0.9c1-0.2,2-0.3,3-0.3v-1.7c0-0.6-0.1-1.2-0.2-1.7c-0.1-0.5-0.4-1-0.7-1.3c-0.4-0.3-0.9-0.5-1.7-0.5
						c-0.5,0-1,0.1-1.5,0.3c-0.5,0.2-0.9,0.5-1.2,1c0.2,0.2,0.3,0.3,0.3,0.5c0,0.2,0.1,0.4,0.1,0.6c0,0.3-0.1,0.6-0.4,0.9
						c-0.2,0.3-0.6,0.5-1.2,0.5c-0.5,0-0.8-0.2-1.1-0.5c-0.2-0.3-0.4-0.7-0.4-1.1c0-0.7,0.3-1.3,0.8-1.9c0.5-0.5,1.2-1,2.1-1.3
						c0.9-0.3,1.9-0.5,3-0.5c1.7,0,2.9,0.4,3.8,1.3c0.8,0.9,1.2,2.3,1.2,4.2c0,0.7,0,1.4,0,2s0,1.3,0,1.9c0,0.6,0,1.3,0,2.1
						c0,0.3,0,0.6,0,1c0,0.4,0,0.8-0.1,1.2c0.3,0,0.7,0,1-0.1c0.4,0,0.7,0,1,0v1.6H439.9z M439.7,159.5c-0.6,0-1.3,0.1-1.9,0.3
						c-0.7,0.1-1.2,0.3-1.8,0.6c-0.5,0.3-1,0.6-1.3,1.1c-0.3,0.4-0.5,0.9-0.5,1.6c0,0.7,0.3,1.2,0.7,1.5c0.4,0.3,0.9,0.5,1.4,0.5
						c0.7,0,1.3-0.1,1.8-0.4c0.5-0.3,1-0.6,1.6-1.1c0-0.2,0-0.4,0-0.7c0-0.2,0-0.5,0-0.7c0-0.2,0-0.5,0-1
						C439.7,160.6,439.7,160.1,439.7,159.5z"/>
				</g>
			</g>
		</g>
	</g>
	<g>
		<g>
			<path class="st1" d="M54.3,106.8"/>
		</g>
		<g>
			<path class="st1" d="M52,106.3"/>
		</g>
		<g>
			<path class="st1" d="M54.4,106.8"/>
		</g>
		<path class="st0" d="M90.3,195.2c-23.9,0-43.4-27.4-43.4-61.1C47,100.4,66.4,73,90.3,73s43.4,27.4,43.4,61.1
			C133.7,167.8,114.3,195.2,90.3,195.2z M90.3,74.2c-23.3,0-42.2,26.9-42.2,59.9c0,33,18.9,59.9,42.2,59.9s42.2-26.9,42.2-59.9
			C132.6,101.1,113.6,74.2,90.3,74.2z"/>
		<rect x="47.2" y="132.2" class="st0" width="86.5" height="0.6"/>
		<rect x="47.7" y="123.3" class="st0" width="85.3" height="0.6"/>
		<g>
			<path class="st0" d="M76.9,114.4C76.8,114.4,76.8,114.4,76.9,114.4l-27.1,0v0.6h27.4C77,114.8,76.9,114.6,76.9,114.4z"/>
			<path class="st0" d="M104.8,114.4c-0.1,0.2-0.3,0.4-0.5,0.6h26.7v-0.6H104.8z"/>
		</g>
		<g>
			<path class="st0" d="M103,105.6c0.1,0.2,0.2,0.4,0.3,0.6h24.7v-0.6H103z"/>
			<path class="st0" d="M78.3,105.6H52.8v0.6h25.1C78.1,105.9,78.2,105.7,78.3,105.6z"/>
		</g>
		<g>
			<path class="st0" d="M98,96.6c0.1,0.2,0.2,0.4,0.4,0.6h25.7v-0.6H98z"/>
			<path class="st0" d="M77,96.6H56.6v0.6h19.8C76.6,97,76.8,96.8,77,96.6z"/>
		</g>
		<rect x="63.1" y="87.7" class="st0" width="54.7" height="0.6"/>
		<rect x="71.8" y="78.9" class="st0" width="37.1" height="0.6"/>
		<g>
			<path class="st0" d="M127.7,164.4c0.4-0.9,0.8-2.3,1.3-4C128.4,162.2,128,163.5,127.7,164.4z"/>
			<path class="st0" d="M127,165.5c-1.7-0.2-13.4-5.2-16.2-7.3c-0.5-0.4-1-0.8-1.6-1.3c-2.1-1.8-4.4-3.9-5.7-5.2
				c-0.4-0.4-0.7-0.7-0.9-0.9c-1.1-1-6.4-3.7-8.7-3.7c-0.1,0-0.2,0-0.3,0c-1.2,0.2-2.2,0.7-3.1,1.3c-0.7,0.4-1.3,0.8-2,1
				c-1.7,0.5-4,0.5-4.3,0.3c-0.2-0.1-0.7-0.5-0.5-0.9c0.2-0.5,1.8-1.2,2.6-1.6c0.8-0.3,1.9-1.2,3-2.1c0.9-0.7,1.9-1.4,2.3-1.6
				c1-0.4,3.1-0.4,4.3-0.3c1.6,0.1,10.9,2.6,15.6,4.1c4.3,1.4,17.3,2.4,20,2.6c-0.8,4-1.7,7.7-2.5,10.5c0.3-0.8,0.6-1.7,0.9-2.7
				c1.3-4,2.1-8.6,2.1-8.6c-0.2,0-15.7-1.1-20.3-2.6c-4.8-1.6-14-4-15.7-4.2c-1.2-0.1-3.5-0.1-4.6,0.4c-0.1,0-0.2,0.1-0.4,0.2
				c-1.3-0.4-4.4-0.7-5.5-0.6c-1.7,0.2-11,2.6-15.7,4.2c-4.7,1.5-20.2,2.6-20.3,2.6l-0.5,0l0.1,0.5c0,0,0.7,4.6,2.1,8.7
				c2.5,7.8,3,8.8,3.6,8.8c0.1,0,9-4,14.3-7c2.1-1.2,6.1-3.3,7.3-3.5l0.6-1.2c-1.4,0.3-7.9,3.6-8.1,3.7c-7,3.4-11.9,6-14.1,6.8
				c-1.3,0.5-5-16-4.7-16c0,0,15.7-1.2,20-2.6c4.6-1.5,13.9-4,15.6-4.1c0.9-0.1,3.2,0.1,4.6,0.4c-0.4,0.3-0.8,0.6-1.3,1
				c-1,0.8-2.2,1.7-2.9,2c-1.7,0.7-2.7,1.3-3,2c-0.3,0.6,0,1.3,0.8,1.9c0.6,0.5,3.4,0.3,5-0.2c0.8-0.2,1.5-0.6,2.2-1
				c0.9-0.5,1.8-1.1,2.8-1.2c1.7-0.2,7.2,2.4,8.3,3.5c0.2,0.2,0.5,0.5,0.9,0.9c1.3,1.3,3.6,3.4,5.8,5.3c0.6,0.5,1.1,0.9,1.7,1.3
				c2.7,2.1,14.7,7.6,16.7,7.9c0,0,0.1-0.5,0.7-2.2C127.4,165.1,127.2,165.5,127,165.5z"/>
		</g>
		<g>
			<path class="st1" d="M52,106.3"/>
		</g>
		<g>
			<path class="st1" d="M54.3,106.8"/>
		</g>
		<g>
			<path class="st1" d="M51.9,106.3"/>
		</g>
		<g>
			<path class="st1" d="M54.3,106.8"/>
		</g>
		<g>
			<g>
				<g>
					<g>
						<path class="st0" d="M117.8,81.1L117.8,81.1l-12.8-4.5l0,0.1c0.5,0.3,1.1,0.6,1.7,0.9l11.2,4l0.1,0l-0.1-0.1
							C118,81.4,117.9,81.3,117.8,81.1z"/>
						<path class="st0" d="M128,69.1l-20.8-1.4l0,0c0.1,0,0.2-0.1,0.3-0.1c0.4-0.2,0.9-0.3,1.5-0.6c0.3-0.1,0.6-0.3,0.8-0.4l0,0
							c0.2-0.1,0.4-0.2,0.6-0.3c0.8-0.4,1.7-0.7,2.5-0.9c0.8-0.2,1.7-0.3,2.6-0.2c0.3,0,0.6,0,0.9,0.1l0,0c0.2,0,0.4,0,0.6,0
							c0.5,0,1.1,0.1,1.7,0c1.1-0.2,1.9-0.6,2.7-1.1l0,0c0.1-0.1,0.2-0.1,0.3-0.2c0.8-0.4,1.6-0.9,2.5-1.1c0.8-0.2,1.7-0.3,2.6-0.2
							c0.4,0.1,0.8-0.2,0.9-0.7c0-0.2,0-0.4-0.1-0.6c-0.1-0.2-0.3-0.3-0.5-0.4c-1.1-0.2-2.2-0.2-3.3,0c-1.1,0.2-2,0.7-2.9,1.1
							c-0.4,0.2-0.8,0.4-1.3,0.6c-0.2,0.1-0.4,0.1-0.6,0.2l0,0c-0.1,0-0.2,0-0.2,0.1l-0.1,0c-0.1,0-0.1,0-0.2,0l0,0
							c-0.5,0-1.1,0-1.7-0.1c-0.3,0-0.7-0.1-1-0.1c-1.1-0.1-2.2-0.1-3.3,0.1c-1,0.2-2,0.5-3.1,0.9c-0.2,0.1-0.4,0.2-0.6,0.3l0,0
							c-0.2,0.1-0.4,0.2-0.7,0.3c-0.5,0.2-0.9,0.3-1.3,0.4c-0.3,0.1-0.6,0.2-0.9,0.2l0,0l-0.1-0.2l19.5-9.7c0.3-0.2,0.4-0.5,0.3-0.7
							c-0.1-0.2-0.4-0.4-0.7-0.3L105,61.3l0,0c0.1-0.1,0.3-0.3,0.4-0.4c0.4-0.3,0.7-0.7,1.1-1.1c0.2-0.2,0.4-0.4,0.6-0.6l0,0
							c0.1-0.2,0.3-0.3,0.4-0.5c0.6-0.7,1.3-1.3,1.9-1.8c0.7-0.5,1.4-0.9,2.3-1.2c0.3-0.1,0.5-0.2,0.8-0.3l0,0
							c0.2-0.1,0.3-0.1,0.5-0.2c0.5-0.2,1-0.4,1.6-0.7c0.9-0.6,1.5-1.3,2.1-2l0,0c0.1-0.1,0.1-0.2,0.2-0.2c0.6-0.7,1.2-1.4,1.8-2
							c0.7-0.5,1.4-0.9,2.3-1.2c0.4-0.1,0.7-0.6,0.6-1c0-0.2-0.2-0.4-0.4-0.5c-0.2-0.1-0.4-0.2-0.6-0.1c-1.1,0.2-2.1,0.7-3,1.3
							c-0.9,0.6-1.6,1.4-2.3,2.2c-0.3,0.3-0.6,0.7-1,1c-0.2,0.2-0.3,0.3-0.5,0.4l0,0c-0.1,0.1-0.1,0.1-0.2,0.1l0,0c0,0,0,0-0.1,0
							c-0.1,0-0.1,0.1-0.2,0.1l0,0c-0.4,0.2-1,0.4-1.6,0.6c-0.3,0.1-0.6,0.2-1,0.3c-1.1,0.3-2.1,0.8-3,1.4c-0.9,0.5-1.7,1.2-2.5,2.1
							c-0.2,0.2-0.3,0.3-0.5,0.5c-0.2,0.2-0.3,0.4-0.5,0.5c-0.4,0.4-0.7,0.7-1,0.9c-0.3,0.2-0.6,0.5-0.9,0.6l0,0l-0.1-0.1l14.3-16.7
							c0.2-0.3,0.1-0.6,0-0.8c-0.2-0.2-0.5-0.2-0.8,0l-15.2,14.4l0,0c0.1-0.2,0.2-0.4,0.3-0.5c0.2-0.4,0.4-0.9,0.6-1.5
							c0.1-0.3,0.2-0.5,0.3-0.8l0,0c0.1-0.2,0.1-0.4,0.2-0.6c0.3-0.9,0.6-1.7,1.1-2.4c0.4-0.7,1-1.4,1.6-2c0.2-0.2,0.4-0.4,0.6-0.6
							l0.1,0c0.1-0.1,0.2-0.2,0.4-0.3c0.4-0.4,0.8-0.8,1.2-1.3c0.6-0.9,0.9-1.8,1.1-2.7c0-0.1,0.1-0.2,0.1-0.4
							c0.2-0.9,0.5-1.8,0.9-2.6c0.4-0.8,1-1.4,1.6-2c0.3-0.3,0.4-0.8,0.2-1.1c-0.1-0.2-0.3-0.3-0.5-0.3c-0.2,0-0.4,0-0.6,0.1
							c-0.9,0.6-1.7,1.5-2.2,2.4c-0.6,0.9-0.9,1.9-1.3,2.9c-0.1,0.4-0.3,0.9-0.5,1.3c-0.1,0.2-0.2,0.4-0.3,0.6l0,0
							c0,0.1-0.1,0.1-0.1,0.2l0,0.1c0,0-0.1,0.1-0.1,0.2l0,0c-0.3,0.4-0.8,0.7-1.3,1.1l0,0c-0.2,0.2-0.5,0.4-0.8,0.6
							c-0.9,0.7-1.6,1.5-2.2,2.4c-0.6,0.8-1.1,1.8-1.5,2.9c-0.1,0.2-0.2,0.4-0.3,0.6l0,0.1c-0.1,0.2-0.2,0.4-0.3,0.6
							c-0.2,0.5-0.4,0.9-0.6,1.2c-0.2,0.4-0.4,0.7-0.6,1l0,0l0,0l0,0c-0.1,0-0.1-0.1-0.2-0.1l0,0l7.4-20.9c0.1-0.3-0.1-0.6-0.3-0.7
							c-0.2-0.1-0.6,0-0.7,0.3l-8.4,17.7l0,0c0-0.3,0-0.5,0-0.8c0-0.3,0-0.5-0.1-0.8l0,0c0-0.2,0-0.4-0.1-0.6
							c-0.1-0.9-0.1-1.8,0-2.6c0.1-0.8,0.3-1.7,0.7-2.5c0.1-0.3,0.2-0.5,0.4-0.8c0.1-0.2,0.2-0.3,0.2-0.5c0.2-0.5,0.4-1,0.6-1.6
							c0.2-1.1,0.1-2,0-2.9l0,0c0-0.1,0-0.2,0-0.3c-0.1-0.9-0.2-1.8-0.2-2.7c0.1-0.9,0.3-1.7,0.7-2.5c0.2-0.4,0.1-0.9-0.3-1.1
							c-0.2-0.1-0.4-0.2-0.6-0.1c-0.2,0.1-0.4,0.2-0.5,0.4c-0.6,0.9-1,2-1.1,3.1c-0.2,1.1-0.1,2.1,0,3.1c0,0.5,0.1,0.9,0.1,1.4
							c0,0.2,0,0.4,0,0.6l0,0c0,0.1,0,0.2,0,0.2l0,0c0,0,0,0,0,0.1c0,0.1,0,0.1,0,0.2l0,0c-0.1,0.5-0.4,1-0.7,1.5
							c-0.1,0.3-0.3,0.6-0.5,0.9c-0.5,1-0.9,2.1-1.1,3.1c-0.2,1-0.3,2.1-0.3,3.2c0,0.2,0,0.4,0,0.6l0,0.2c0,0.2,0,0.5,0,0.7
							c0,0.5,0,1-0.1,1.3c0,0.4-0.1,0.8-0.2,1.2c0,0.1,0,0.1-0.1,0.2l0,0l0,0c-0.1,0-0.2,0-0.2,0l-1.3-21.9c0-0.3-0.3-0.5-0.5-0.5
							c-0.3,0-0.5,0.2-0.6,0.5l-1,20.9l0,0c-0.1-0.2-0.1-0.4-0.2-0.6c-0.2-0.4-0.3-0.9-0.6-1.5c-0.1-0.2-0.2-0.5-0.4-0.7l0-0.1
							c-0.1-0.2-0.2-0.4-0.3-0.5c-0.4-0.8-0.7-1.7-0.9-2.5c-0.2-0.8-0.3-1.7-0.2-2.6c0-0.3,0-0.5,0-0.8l0-0.1c0-0.2,0-0.3,0-0.5
							c0-0.5,0.1-1.1,0-1.7c-0.2-1.1-0.6-1.9-1.1-2.7c-0.1-0.1-0.1-0.2-0.2-0.3c-0.4-0.8-0.9-1.6-1.1-2.5c-0.2-0.8-0.3-1.7-0.2-2.6
							c0.1-0.4-0.2-0.8-0.7-0.9c-0.2,0-0.4,0-0.6,0.1c-0.2,0.1-0.3,0.3-0.4,0.5c-0.2,1.1-0.2,2.2,0,3.3c0.2,1.1,0.7,2,1.1,2.9
							c0.2,0.4,0.4,0.8,0.6,1.3c0.1,0.2,0.1,0.4,0.2,0.6l0,0c0,0.1,0,0.1,0,0.2l0,0.1c0,0.1,0,0.1,0,0.2l0,0c0,0.5,0,1.1-0.1,1.7
							c0,0.3-0.1,0.7-0.1,1c-0.1,1.1-0.1,2.2,0.1,3.3c0.2,1,0.5,2.1,0.9,3.1c0.1,0.2,0.2,0.4,0.3,0.6l0,0c0.1,0.2,0.2,0.5,0.3,0.7
							c0.2,0.5,0.3,0.9,0.4,1.3c0.1,0.4,0.2,0.8,0.2,1.2l0,0l-0.1,0l-9.8-19.8c-0.2-0.3-0.5-0.4-0.7-0.3c-0.2,0.1-0.4,0.4-0.3,0.7
							l7.3,19.7l0,0c-0.1-0.2-0.3-0.3-0.4-0.4c-0.3-0.3-0.7-0.7-1.1-1.1c-0.2-0.2-0.4-0.4-0.6-0.5l-0.1-0.1
							c-0.2-0.1-0.3-0.3-0.4-0.4c-0.7-0.6-1.3-1.3-1.8-1.9c-0.5-0.7-0.9-1.4-1.2-2.3c-0.1-0.3-0.2-0.5-0.3-0.8
							c-0.1-0.2-0.1-0.4-0.2-0.5c-0.2-0.5-0.4-1-0.7-1.6c-0.6-0.9-1.3-1.5-2-2.1c-0.1-0.1-0.2-0.2-0.3-0.2c-0.7-0.6-1.4-1.2-2-1.8
							c-0.5-0.7-0.9-1.4-1.2-2.3c-0.1-0.4-0.6-0.7-1-0.6c-0.2,0-0.4,0.2-0.5,0.4c-0.1,0.2-0.2,0.4-0.1,0.6c0.2,1.1,0.7,2.1,1.3,3
							c0.6,0.9,1.4,1.6,2.2,2.3c0.3,0.3,0.7,0.6,1,1c0.2,0.2,0.3,0.3,0.4,0.5l0,0c0.1,0.1,0.1,0.1,0.1,0.2l0.1,0.1
							c0,0.1,0.1,0.1,0.1,0.2l0,0c0.2,0.4,0.4,1,0.6,1.6l0,0c0.1,0.3,0.2,0.6,0.3,1c0.3,1.1,0.8,2.1,1.4,3c0.5,0.9,1.2,1.7,2.1,2.5
							c0.2,0.2,0.3,0.3,0.5,0.5l0,0c0.2,0.2,0.4,0.3,0.5,0.5c0.4,0.4,0.7,0.7,0.9,1c0.3,0.3,0.5,0.7,0.7,1c0,0,0,0.1,0.1,0.1l0,0
							l0,0L63.3,42.6c-0.3-0.2-0.6-0.1-0.8,0c-0.2,0.2-0.2,0.5,0,0.8l14.4,15.3l0,0c-0.2-0.1-0.4-0.2-0.5-0.3
							c-0.4-0.2-0.9-0.4-1.5-0.6c-0.2-0.1-0.5-0.2-0.8-0.3l-0.1,0c-0.2-0.1-0.4-0.1-0.6-0.2c-0.9-0.3-1.7-0.6-2.4-1.1
							c-0.7-0.4-1.4-1-2-1.6c-0.2-0.2-0.4-0.4-0.6-0.6c-0.1-0.1-0.3-0.3-0.4-0.4c-0.4-0.4-0.8-0.8-1.3-1.2c-0.9-0.6-1.8-0.9-2.7-1.1
							l0,0c-0.1,0-0.2-0.1-0.3-0.1c-0.9-0.2-1.8-0.5-2.6-0.9c-0.8-0.4-1.4-1-2-1.6c-0.3-0.3-0.8-0.4-1.1-0.2
							c-0.4,0.3-0.5,0.8-0.2,1.2c0.6,0.9,1.5,1.7,2.4,2.2c0.9,0.6,1.9,0.9,2.9,1.3c0.4,0.1,0.9,0.3,1.3,0.5c0.2,0.1,0.4,0.2,0.6,0.3
							l0,0c0.1,0,0.1,0.1,0.2,0.1l0.1,0c0.1,0,0.1,0.1,0.2,0.1l0,0c0.4,0.3,0.7,0.8,1.1,1.3c0.2,0.2,0.4,0.5,0.6,0.8
							c0.7,0.9,1.5,1.6,2.4,2.2c0.8,0.6,1.8,1.1,2.9,1.5c0.2,0.1,0.5,0.2,0.7,0.3c0.2,0.1,0.5,0.2,0.7,0.3c0.5,0.2,0.9,0.4,1.2,0.6
							c0.4,0.2,0.7,0.4,1,0.6c0,0,0.1,0.1,0.1,0.1l0,0l-0.1,0.2l-21-7.4c-0.3-0.1-0.6,0.1-0.7,0.3c-0.1,0.2,0,0.6,0.3,0.7L72.4,64
							l0,0c-0.2,0-0.5,0-0.8,0c-0.3,0-0.5,0-0.8,0.1l-0.1,0c-0.2,0-0.4,0-0.6,0.1c-0.9,0.1-1.8,0.1-2.6,0c-0.8-0.1-1.7-0.3-2.5-0.7
							c-0.3-0.1-0.5-0.2-0.8-0.4l0,0c-0.2-0.1-0.3-0.2-0.5-0.2c-0.5-0.2-1-0.4-1.6-0.6c-1.1-0.2-2-0.1-2.9,0l-0.1,0
							c-0.1,0-0.2,0-0.3,0c-0.9,0.1-1.8,0.2-2.7,0.2c-0.9-0.1-1.7-0.3-2.5-0.7c-0.4-0.2-0.9-0.1-1.1,0.3c-0.1,0.2-0.2,0.4-0.1,0.6
							c0.1,0.2,0.2,0.4,0.4,0.5c0.9,0.6,2,1,3.1,1.1c1.1,0.2,2.1,0.1,3.1,0c0.4,0,0.9-0.1,1.4-0.1h0c0.2,0,0.4,0,0.6,0l0,0
							c0.1,0,0.2,0,0.2,0l0.1,0c0.1,0,0.1,0,0.2,0l0,0c0.5,0.1,1,0.4,1.5,0.7l0,0c0.3,0.2,0.6,0.3,0.9,0.5c1,0.5,2.1,0.9,3.1,1.1
							c1,0.2,2.1,0.3,3.2,0.3c0.3,0,0.5,0,0.7,0c0.3,0,0.5,0,0.7,0c0.5,0,1,0,1.3,0.1c0.4,0,0.8,0.1,1.2,0.2c0.1,0,0.1,0,0.2,0.1
							l0,0l0,0c0,0.1,0,0.2,0,0.2l-21.9,1.3c-0.3,0-0.5,0.3-0.5,0.6c0,0.3,0.2,0.5,0.5,0.5l20.9,1l0,0c-0.2,0.1-0.4,0.1-0.6,0.2
							c-0.5,0.2-0.9,0.3-1.5,0.6c-0.3,0.1-0.5,0.3-0.8,0.4l0,0c-0.2,0.1-0.4,0.2-0.6,0.3c-0.8,0.4-1.7,0.7-2.5,0.9
							c-0.8,0.2-1.7,0.3-2.6,0.2c-0.3,0-0.6,0-0.9-0.1l-0.1,0c-0.2,0-0.3,0-0.5,0c-0.5,0-1.1-0.1-1.7,0c-1.1,0.2-1.9,0.6-2.7,1.1
							c-0.1,0.1-0.2,0.1-0.3,0.2c-0.8,0.4-1.6,0.9-2.5,1.1c-0.8,0.2-1.7,0.3-2.6,0.2c-0.4-0.1-0.8,0.2-0.9,0.7c0,0.2,0,0.4,0.1,0.6
							c0.1,0.2,0.3,0.3,0.5,0.4c1.1,0.2,2.2,0.2,3.3,0c1.1-0.2,2-0.7,2.9-1.1c0.4-0.2,0.8-0.4,1.3-0.6c0.2-0.1,0.4-0.1,0.6-0.2l0,0
							c0.1,0,0.2,0,0.2-0.1l0,0c0,0,0,0,0.1,0c0.1,0,0.1,0,0.2,0l0,0c0.5,0,1.1,0,1.7,0.1l0,0c0.3,0,0.7,0.1,1,0.1
							c1.1,0.1,2.2,0.1,3.3-0.1c1-0.2,2-0.5,3.1-0.9c0.2-0.1,0.4-0.2,0.6-0.2l0,0c0.2-0.1,0.5-0.2,0.7-0.3c0.5-0.2,0.9-0.3,1.3-0.4
							c0.4-0.1,0.8-0.2,1.1-0.2l0,0l0,0c0,0,0,0.1,0,0.1l0,0l-11.3,5.6l-0.1,0l0,0l0,0c0.1,0.1,0.1,0.2,0,0.3l-0.1,0.1L75.3,74l0,0
							l0-0.2c0-0.1-0.1-0.3-0.1-0.4l0-0.2l-0.2,0c0,0-0.1,0-0.1,0c-0.4,0-0.8,0.1-1.2,0.2c-0.4,0.1-0.8,0.2-1.3,0.4
							c-0.2,0.1-0.5,0.2-0.7,0.3l0,0c-0.2,0.1-0.4,0.2-0.6,0.3c-1,0.4-2,0.7-3,0.9c-1,0.2-2.1,0.2-3.2,0.1c-0.3,0-0.7-0.1-1-0.1l0,0
							c-0.6-0.1-1.2-0.2-1.8-0.1c-0.1,0-0.2,0-0.3,0l-0.1,0c-0.1,0-0.2,0-0.3,0.1c-0.2,0.1-0.5,0.1-0.6,0.2
							c-0.4,0.2-0.9,0.4-1.3,0.6c-0.9,0.4-1.8,0.8-2.9,1.1c-1,0.2-2.1,0.2-3.1,0c-0.1,0-0.2-0.1-0.3-0.2c-0.1-0.1-0.1-0.2-0.1-0.3
							c0-0.2,0.2-0.4,0.5-0.3c0.9,0.1,1.8,0,2.7-0.2c0.9-0.3,1.8-0.7,2.6-1.2c0.1,0,0.2-0.1,0.3-0.1l0.1,0c0.8-0.4,1.6-0.8,2.6-1
							c0.6-0.1,1.1-0.1,1.6,0c0.2,0,0.4,0,0.6,0l0,0c0.3,0,0.6,0,0.9,0.1c1,0,1.8,0,2.7-0.2c0.8-0.2,1.7-0.5,2.6-0.9
							c0.2-0.1,0.4-0.2,0.6-0.3l0,0c0.2-0.1,0.5-0.3,0.8-0.4c0.6-0.3,1-0.4,1.5-0.6c0.5-0.2,1.1-0.3,1.6-0.4l0.2,0l0-0.5l-22.2-1
							c-0.1,0-0.1-0.1-0.1-0.1c0,0,0-0.1,0.1-0.1l22.2-1.3l0,0l0-0.2c0-0.2,0-0.4,0.1-0.5l0-0.1L74.7,67l-0.1,0
							c-0.1-0.1-0.2-0.1-0.4-0.2c-0.4-0.1-0.8-0.2-1.2-0.2c-0.4,0-0.8-0.1-1.4-0.1c-0.3,0-0.5,0-0.7,0c-0.2,0-0.5,0-0.7,0
							c-1.1,0-2.2,0-3.1-0.2c-1-0.2-2-0.6-3-1.1c-0.3-0.2-0.6-0.3-0.9-0.5c-0.6-0.3-1.1-0.6-1.6-0.8c-0.1,0-0.2,0-0.2-0.1l-0.1,0
							c-0.1,0-0.2,0-0.3,0c-0.2,0-0.4,0-0.7,0h0c-0.5,0-1,0-1.4,0.1c-1,0.1-2,0.1-3.1,0c-1-0.2-2-0.5-2.9-1.1
							c-0.1-0.1-0.2-0.2-0.2-0.3c0-0.1,0-0.2,0.1-0.3c0.1-0.2,0.4-0.3,0.6-0.2c0.8,0.4,1.7,0.7,2.6,0.8c0.9,0.1,1.9,0,2.8-0.2
							c0.1,0,0.2,0,0.2,0l0.1,0c0.9-0.1,1.8-0.2,2.8,0c0.6,0.1,1.1,0.3,1.5,0.5c0.2,0.1,0.3,0.2,0.5,0.2l0,0
							c0.3,0.1,0.5,0.2,0.8,0.4c0.9,0.4,1.7,0.6,2.6,0.7c0.8,0.1,1.8,0.1,2.7,0c0.2,0,0.4,0,0.6-0.1c0.3,0,0.6-0.1,0.8-0.1
							c0.6,0,1.1-0.1,1.6,0c0,0,0.1,0,0.1,0l1,0l-19.4-9.3c-0.1-0.1-0.1-0.1-0.1-0.2c0,0,0.1-0.1,0.2-0.1l21.3,7.5l0,0l0.1-0.2
							c0,0,0.2-0.3,0.2-0.4l0.1-0.1l-0.1-0.1c-0.1-0.1-0.2-0.2-0.3-0.3c-0.3-0.3-0.7-0.5-1.1-0.7c-0.3-0.2-0.7-0.4-1.2-0.6
							c-0.2-0.1-0.5-0.2-0.7-0.3l0,0c-0.2-0.1-0.4-0.2-0.6-0.3c-1-0.4-2-0.9-2.8-1.5c-0.8-0.6-1.6-1.3-2.3-2.1
							c-0.2-0.3-0.4-0.5-0.6-0.8c-0.4-0.5-0.8-1-1.2-1.3c-0.1-0.1-0.1-0.1-0.2-0.2l-0.1,0c-0.1,0-0.1-0.1-0.2-0.2
							c-0.2-0.1-0.4-0.2-0.6-0.3c-0.4-0.2-0.9-0.4-1.3-0.5c-0.9-0.3-1.9-0.7-2.8-1.2c-0.9-0.5-1.7-1.3-2.3-2.1
							c-0.1-0.2-0.1-0.5,0.1-0.6c0.2-0.1,0.4-0.1,0.6,0.1c0.6,0.7,1.3,1.3,2.1,1.8c0.8,0.4,1.8,0.7,2.6,0.9c0.1,0,0.2,0.1,0.3,0.1
							l0,0c0.8,0.2,1.7,0.5,2.6,1.1c0.5,0.3,0.8,0.7,1.2,1.1c0.1,0.1,0.3,0.3,0.4,0.4c0.2,0.2,0.4,0.5,0.6,0.7
							c0.7,0.7,1.3,1.3,2.1,1.7c0.7,0.4,1.6,0.8,2.5,1.1c0.2,0.1,0.4,0.1,0.6,0.2l0,0c0.2,0.1,0.5,0.2,0.8,0.3
							c0.6,0.2,1,0.4,1.5,0.6c0.5,0.2,1,0.5,1.5,0.8c0,0,0.1,0.1,0.2,0.1l0.2,0.1l0.3-0.3L62.8,43.1c-0.1-0.1,0-0.2,0-0.2
							c0,0,0.1-0.1,0.2,0l17.1,14.6l0,0l0.1-0.1c0.1-0.1,0.2-0.2,0.3-0.2l0.1-0.1l0-0.1c0-0.1-0.1-0.2-0.1-0.3
							c-0.2-0.4-0.4-0.7-0.7-1c-0.2-0.3-0.5-0.6-0.9-1c-0.2-0.2-0.4-0.4-0.5-0.5l0,0c-0.2-0.2-0.3-0.3-0.5-0.5
							c-0.8-0.8-1.5-1.6-2-2.4c-0.6-0.8-1-1.8-1.3-2.9c-0.1-0.3-0.2-0.7-0.3-0.9l0,0c-0.2-0.6-0.3-1.2-0.6-1.7
							c0-0.1-0.1-0.2-0.1-0.2l0-0.1c0-0.1-0.1-0.2-0.2-0.2c-0.1-0.2-0.3-0.4-0.4-0.5c-0.3-0.3-0.7-0.7-1-1c-0.7-0.7-1.5-1.4-2.1-2.2
							c-0.6-0.8-1-1.8-1.3-2.9c0-0.1,0-0.2,0.1-0.3c0.1-0.1,0.2-0.2,0.3-0.2c0.2,0,0.4,0.1,0.5,0.3c0.3,0.9,0.7,1.7,1.3,2.4
							c0.6,0.7,1.4,1.3,2.1,1.9c0.1,0.1,0.2,0.2,0.3,0.2c0.7,0.5,1.4,1.1,1.9,2c0.3,0.5,0.5,1,0.7,1.5c0.1,0.2,0.1,0.4,0.2,0.5l0,0
							c0.1,0.3,0.2,0.6,0.3,0.8c0.3,0.9,0.7,1.7,1.3,2.4c0.5,0.7,1.1,1.4,1.9,2c0.2,0.1,0.3,0.3,0.5,0.4l0,0
							c0.2,0.2,0.4,0.4,0.6,0.5c0.5,0.4,0.8,0.8,1.1,1.1c0.4,0.4,0.7,0.9,1,1.3c0,0,0,0.1,0.1,0.1l0.1,0.2l0.4-0.2l-7.8-21
							c0-0.1,0-0.2,0.1-0.2c0,0,0.1,0,0.2,0.1l9.9,20.1l0,0l0.2-0.1c0.1,0,0.3-0.1,0.4-0.1l0.2,0l0-0.2c0-0.1,0-0.1,0-0.2
							c0-0.4-0.1-0.8-0.2-1.2c-0.1-0.4-0.2-0.8-0.4-1.3c-0.1-0.2-0.2-0.4-0.3-0.6l-0.1-0.1c-0.1-0.2-0.2-0.4-0.2-0.6
							c-0.4-1-0.7-2-0.9-3c-0.2-1-0.2-2.1-0.1-3.2c0-0.3,0.1-0.7,0.1-1c0.1-0.6,0.2-1.3,0.1-1.8c0-0.1,0-0.2,0-0.3c0,0,0,0,0-0.1
							l0,0c0-0.1,0-0.2-0.1-0.3c-0.1-0.2-0.1-0.4-0.2-0.6c-0.2-0.4-0.4-0.9-0.6-1.3c-0.4-0.9-0.8-1.8-1.1-2.9c-0.2-1-0.2-2.1,0-3.1
							c0-0.1,0.1-0.2,0.2-0.3c0.1-0.1,0.2-0.1,0.3-0.1c0.2,0,0.4,0.2,0.3,0.5c-0.1,0.9,0,1.8,0.2,2.7c0.3,0.9,0.7,1.8,1.2,2.6
							c0.1,0.1,0.1,0.2,0.2,0.3c0.4,0.8,0.8,1.6,1,2.6c0.1,0.6,0.1,1.1,0,1.6c0,0.2,0,0.4,0,0.6c0,0.3,0,0.6-0.1,0.9
							c0,1,0,1.8,0.2,2.7c0.2,0.8,0.5,1.7,0.9,2.6c0.1,0.2,0.2,0.4,0.3,0.6c0.1,0.2,0.2,0.5,0.4,0.8c0.3,0.6,0.4,1,0.6,1.5
							c0.2,0.5,0.3,1.1,0.4,1.6l0,0.2l0.5,0l1-22.2c0-0.1,0.1-0.1,0.1-0.1c0,0,0.1,0,0.1,0.1l1.3,22.2l0,0l0.2,0
							c0.2,0,0.4,0,0.6,0.1l0.1,0l0.1-0.1c0-0.1,0.1-0.2,0.2-0.4c0.1-0.4,0.2-0.8,0.2-1.2c0-0.4,0.1-0.8,0.1-1.4c0-0.2,0-0.5,0-0.8
							l0,0c0-0.2,0-0.4,0-0.7c0-1.1,0-2.2,0.2-3.1c0.2-1,0.6-2,1.1-3c0.2-0.3,0.3-0.6,0.5-0.9c0.3-0.6,0.6-1.1,0.8-1.6
							c0-0.1,0-0.2,0.1-0.2l0-0.1c0-0.1,0-0.2,0-0.3c0-0.2,0-0.4,0-0.7c0-0.5,0-1-0.1-1.4c-0.1-1-0.1-2,0-3.1c0.2-1,0.5-2,1.1-2.9
							c0.1-0.1,0.2-0.2,0.3-0.2c0.1,0,0.2,0,0.3,0.1c0.2,0.1,0.3,0.4,0.2,0.6c-0.4,0.8-0.7,1.7-0.8,2.6c-0.1,0.9,0,1.9,0.2,2.8
							c0,0.1,0,0.2,0,0.3l0,0.1c0.1,0.9,0.2,1.8,0,2.8c-0.1,0.6-0.3,1.1-0.5,1.5C96.1,42.8,96,43,96,43.2l0,0
							c-0.1,0.3-0.2,0.5-0.4,0.8c-0.4,0.9-0.6,1.7-0.7,2.6c-0.1,0.8-0.1,1.8,0,2.7c0,0.2,0,0.4,0.1,0.6c0,0.3,0.1,0.6,0.1,0.8
							c0,0.6,0.1,1.1,0,1.6c0,0,0,0.1,0,0.1l0,1l9.3-19.4c0.1-0.1,0.1-0.1,0.2-0.1c0,0,0.1,0.1,0.1,0.2L97,55.4l0,0l0.2,0.1
							c0.2,0.1,0.3,0.2,0.5,0.3l0.1,0.1l0.1-0.1c0.1-0.1,0.1-0.1,0.2-0.2c0.2-0.3,0.5-0.7,0.7-1.1c0.2-0.3,0.4-0.7,0.6-1.2
							c0.1-0.2,0.2-0.4,0.3-0.7l0-0.1c0.1-0.2,0.1-0.4,0.2-0.6c0.4-1,0.9-2,1.5-2.8c0.6-0.8,1.3-1.6,2.1-2.3
							c0.3-0.2,0.5-0.4,0.8-0.6l0,0c0.5-0.4,1-0.8,1.3-1.2c0.1-0.1,0.1-0.1,0.2-0.2l0-0.1c0-0.1,0.1-0.1,0.2-0.3
							c0.1-0.2,0.2-0.4,0.3-0.6l0,0c0.2-0.4,0.3-0.9,0.5-1.3c0.3-0.9,0.7-1.9,1.2-2.8c0.5-0.9,1.3-1.7,2.1-2.3
							c0.1-0.1,0.2-0.1,0.3-0.1c0.1,0,0.2,0.1,0.3,0.2c0.1,0.2,0.1,0.4-0.1,0.6c-0.7,0.6-1.3,1.3-1.8,2.1c-0.4,0.8-0.7,1.8-0.9,2.7
							c0,0.1-0.1,0.2-0.1,0.3l0,0c-0.2,0.8-0.5,1.7-1.1,2.6c-0.3,0.5-0.7,0.8-1.1,1.2c-0.1,0.1-0.2,0.2-0.3,0.3l-0.1,0.1
							c-0.2,0.2-0.4,0.4-0.7,0.6c-0.7,0.7-1.3,1.3-1.7,2.1c-0.4,0.7-0.8,1.6-1.1,2.5c-0.1,0.2-0.1,0.4-0.2,0.6l0,0.1
							c-0.1,0.3-0.2,0.5-0.3,0.8c-0.2,0.6-0.4,1-0.6,1.5c-0.2,0.5-0.5,1-0.8,1.5c0,0,0,0,0,0l-0.1,0.2l0.4,0.3l16.2-15.3
							c0.1-0.1,0.2,0,0.2,0c0,0,0.1,0.1,0,0.2L102,59.2l0,0l0.1,0.1c0.1,0.1,0.2,0.2,0.3,0.4l0.1,0.1l0.1-0.1c0,0,0.1,0,0.1-0.1
							c0.4-0.2,0.7-0.4,1-0.7c0.3-0.2,0.6-0.5,1-0.9c0.2-0.2,0.4-0.4,0.5-0.5c0.2-0.2,0.3-0.3,0.5-0.5c0.8-0.8,1.6-1.5,2.4-2
							c0.8-0.6,1.8-1,2.9-1.3c0.3-0.1,0.7-0.2,1-0.3c0.6-0.2,1.2-0.3,1.7-0.6c0.1,0,0.2-0.1,0.2-0.1l0.1,0c0.1,0,0.2-0.1,0.2-0.2
							c0.2-0.1,0.3-0.3,0.5-0.4c0.3-0.3,0.7-0.7,1-1c0.7-0.7,1.4-1.5,2.2-2.1c0.8-0.6,1.8-1,2.8-1.3c0.1,0,0.2,0,0.3,0.1
							c0.1,0.1,0.2,0.2,0.2,0.3c0,0.2-0.1,0.4-0.3,0.5c-0.9,0.3-1.7,0.7-2.4,1.3c-0.7,0.6-1.3,1.4-1.9,2.1c-0.1,0.1-0.1,0.1-0.2,0.2
							l-0.1,0.1c-0.5,0.7-1.1,1.4-2,1.9c-0.5,0.3-1,0.5-1.5,0.7c-0.2,0.1-0.4,0.1-0.5,0.2c-0.3,0.1-0.6,0.2-0.8,0.3
							c-0.9,0.3-1.7,0.8-2.4,1.3c-0.7,0.5-1.4,1.1-2,1.9c-0.1,0.1-0.2,0.3-0.4,0.4l0,0.1c-0.2,0.2-0.4,0.4-0.6,0.6
							c-0.4,0.5-0.8,0.8-1.1,1.1c-0.4,0.4-0.8,0.7-1.3,1l-0.2,0.1l0.2,0.4l20.8-7.7c0.1,0,0.2,0,0.2,0.1c0,0,0,0.1-0.1,0.2L105,64.6
							l0,0l0.1,0.2c0.1,0.2,0.1,0.3,0.1,0.5l0,0.2l0.2,0c0.4,0,0.8-0.1,1.2-0.2c0.4-0.1,0.8-0.2,1.3-0.4c0.2-0.1,0.4-0.2,0.7-0.3
							l0,0c0.2-0.1,0.4-0.2,0.6-0.3c1-0.4,2-0.7,3-0.9c1-0.2,2.1-0.2,3.2-0.1c0.3,0,0.7,0.1,1,0.1l0,0c0.6,0.1,1.3,0.2,1.8,0.1
							c0.1,0,0.2,0,0.3,0l0.1,0c0.1,0,0.2,0,0.3-0.1c0.2-0.1,0.4-0.1,0.6-0.2c0.4-0.2,0.9-0.4,1.3-0.6c0.9-0.4,1.8-0.8,2.9-1.1
							c1-0.2,2.1-0.2,3.1,0c0.1,0,0.2,0.1,0.3,0.2c0.1,0.1,0.1,0.2,0.1,0.3c0,0.2-0.3,0.4-0.5,0.3c-0.9-0.1-1.8,0-2.7,0.2
							c-0.9,0.3-1.8,0.7-2.6,1.2c-0.1,0-0.2,0.1-0.3,0.1l0,0c-0.8,0.4-1.6,0.8-2.6,1c-0.6,0.1-1.1,0.1-1.6,0c-0.2,0-0.4,0-0.6,0
							c-0.3,0-0.6,0-0.9-0.1c-1,0-1.8,0-2.7,0.2c-0.8,0.2-1.7,0.5-2.6,0.9c-0.2,0.1-0.4,0.2-0.5,0.3l-0.1,0
							c-0.2,0.1-0.5,0.2-0.7,0.4c-0.6,0.3-1,0.4-1.5,0.6c-0.5,0.2-0.9,0.3-1.4,0.4l-0.2,0l0,0.4l22.2,1.5c0.1,0,0.1,0.1,0.1,0.1
							c0,0,0,0.1-0.1,0.1l-22.2,0.9l0,0.2c0,0.3-0.1,0.5-0.1,0.8l0,0.2l0.2,0.1c0.1,0,0.1,0,0.2,0c0.4,0.1,0.8,0.2,1.2,0.2
							c0.4,0,0.8,0.1,1.4,0.1c0.3,0,0.5,0,0.8,0l0.1,0c0.2,0,0.4,0,0.6,0c1.1,0,2.2,0,3.1,0.2c1,0.2,2,0.6,3,1.1
							c0.3,0.2,0.6,0.3,0.9,0.5c0.6,0.3,1.1,0.6,1.6,0.8c0.1,0,0.2,0,0.2,0.1l0.1,0c0.1,0,0.2,0,0.3,0c0.2,0,0.5,0,0.7,0l0,0
							c0.5,0,1,0,1.4-0.1c1-0.1,2-0.1,3.1,0c1,0.2,2,0.5,2.9,1.1c0.1,0.1,0.2,0.2,0.2,0.3c0,0.1,0,0.2-0.1,0.3
							c-0.1,0.2-0.4,0.3-0.6,0.2c-0.8-0.4-1.7-0.7-2.6-0.8c-0.9-0.1-1.9,0-2.8,0.2c-0.1,0-0.2,0-0.3,0l0,0c-0.9,0.1-1.8,0.2-2.8,0
							c-0.6-0.1-1.1-0.3-1.5-0.5c-0.2-0.1-0.4-0.2-0.5-0.2c-0.3-0.1-0.5-0.3-0.8-0.4c-0.9-0.4-1.7-0.6-2.6-0.7
							c-0.8-0.1-1.8-0.1-2.7,0c-0.2,0-0.4,0-0.6,0.1l0,0c-0.3,0-0.6,0.1-0.8,0.1c-0.6,0-1.1,0-1.6,0c0,0-0.1,0-0.1,0l-1,0l11.1,5.3
							l0.1,0v-0.1c0,0,0-0.1,0.1-0.2c0,0,0.1,0,0.1-0.1l0.1,0l-9.5-4.5l0,0c0.2,0,0.5,0,0.8,0c0.3,0,0.6,0,0.8-0.1l0,0
							c0.2,0,0.4,0,0.6-0.1c0.9-0.1,1.8-0.1,2.6,0c0.8,0.1,1.7,0.3,2.5,0.7c0.3,0.1,0.5,0.2,0.8,0.4l0.1,0c0.2,0.1,0.3,0.1,0.5,0.2
							c0.5,0.2,1,0.4,1.6,0.6c1.1,0.2,2,0.1,2.9,0c0.1,0,0.2,0,0.4,0c0.9-0.1,1.8-0.2,2.7-0.2c0.9,0.1,1.7,0.3,2.5,0.7
							c0.4,0.2,0.9,0.1,1.1-0.3c0.1-0.2,0.2-0.4,0.1-0.6c-0.1-0.2-0.2-0.4-0.4-0.5c-0.9-0.6-2-1-3.1-1.1c-1.1-0.2-2.1-0.1-3.1,0
							c-0.4,0-0.9,0.1-1.4,0.1h0c-0.2,0-0.4,0-0.6,0l0,0c-0.1,0-0.2,0-0.2,0l-0.1,0c-0.1,0-0.1,0-0.2,0l0,0c-0.5-0.1-1-0.4-1.5-0.7
							l0,0c-0.3-0.2-0.6-0.3-0.9-0.5c-1-0.5-2.1-0.9-3.1-1.1c-1-0.2-2.1-0.3-3.2-0.3c-0.3,0-0.5,0-0.7,0l0,0c-0.2,0-0.5,0-0.7,0
							c-0.5,0-1,0-1.3-0.1c-0.4,0-0.8-0.1-1.1-0.2l0,0l0,0c0-0.1,0-0.3,0-0.4l21.9-0.9c0.3,0,0.5-0.3,0.5-0.5
							C128.5,69.4,128.3,69.1,128,69.1z M104,45.8L104,45.8L104,45.8L104,45.8z"/>
						<path class="st0" d="M62.7,81.5L62.7,81.5c-0.1,0.2-0.2,0.3-0.2,0.4l-0.1,0.1l10.4-3.9c0.6-0.3,1.1-0.6,1.5-0.9l1-0.5
							L62.7,81.5z"/>
					</g>
					<g>
						<path class="st0" d="M94.7,63.6c-1,0.3-1.5,1-1.5,1l-0.1,0.1l0.1,0.1c0.7,0.8,1.6,1.1,2.5,1.1c1.6,0,3.1-1,3.1-1l0.2-0.2
							l-0.2-0.2C97,63.2,95.5,63.3,94.7,63.6z M94.8,64c-0.1,0.4-0.2,1.1,0.1,1.5c-0.5-0.1-0.9-0.3-1.3-0.8
							C93.8,64.5,94.2,64.2,94.8,64z M96.5,65.4c0.4-0.4,0.3-1.1,0.2-1.5c0.5,0.1,1,0.4,1.6,0.8C97.9,64.9,97.3,65.3,96.5,65.4z"/>
						<path class="st0" d="M95.8,62.6C95.8,62.6,95.8,62.6,95.8,62.6c-1.4,0-2.7,0.6-3.9,1.8l-0.1,0.1l0.1,0.1
							c0,0.1,0.7,1.6,2.4,2.1c0.4,0.1,0.8,0.2,1.2,0.2c1.1,0,2.4-0.4,3.7-1.3L99,65.3c-1.7,1.1-3.3,1.4-4.5,1
							c-1.3-0.4-1.9-1.4-2.1-1.8c1.1-1,2.2-1.6,3.5-1.5c2.3,0,4,1.8,4,1.8l0.3-0.3C100,64.5,98.2,62.6,95.8,62.6z"/>
						<path class="st0" d="M84.5,65.9c0.9,0,1.7-0.3,2.5-1.1l0.1-0.1L87,64.6c0,0-0.5-0.7-1.5-1c-0.9-0.3-2.3-0.4-4.1,1l-0.2,0.2
							l0.2,0.2C81.4,65,82.9,65.9,84.5,65.9z M86.6,64.7c-0.4,0.4-0.9,0.6-1.3,0.8c0.3-0.4,0.2-1.1,0.1-1.5
							C86,64.2,86.4,64.5,86.6,64.7z M83.5,64c-0.1,0.4-0.2,1.1,0.2,1.5c-0.8-0.2-1.4-0.5-1.8-0.7C82.5,64.3,83,64.1,83.5,64z"/>
						<path class="st0" d="M95.6,60.6c-3.3,0-5.2,1.8-5.2,4.9c0,3.3,1.2,3.6,1.9,3.8c0.1,0,0.2,0,0.3,0.1c0.6,0.1,0.9,0.2,0.9,0.8
							c0,0.3-0.1,0.4-0.4,0.5c-0.4,0.2-1.1,0-1.4-0.3l-0.2-0.1l-0.1,0.2c0,0-0.4,0.4-1.3,0.4c-0.9,0-1.3-0.4-1.3-0.4l-0.1-0.2
							l-0.2,0.2c-0.4,0.4-1,0.5-1.4,0.3c-0.2-0.1-0.4-0.3-0.4-0.5c0-0.6,0.3-0.7,0.9-0.8c0.1,0,0.2,0,0.3-0.1
							c0.6-0.2,1.8-0.5,1.8-3.8c0-3.1-1.9-4.9-5.2-4.9c-3,0-5,2.5-5.1,2.6l0.3,0.3c0,0,1.9-2.4,4.7-2.4c3.1,0,4.8,1.6,4.8,4.5
							c0,3-1,3.3-1.5,3.4l-0.1,0c-0.1,0-0.2,0-0.2,0.1c-0.5,0.1-1.2,0.3-1.2,1.3c0,0.4,0.2,0.8,0.6,0.9c0.5,0.2,1.3,0.1,1.8-0.3
							c0.2,0.2,0.7,0.4,1.4,0.4c0,0,0,0,0,0c0.7,0,1.2-0.2,1.4-0.4c0.3,0.3,0.8,0.4,1.2,0.4c0.2,0,0.4,0,0.6-0.1
							c0.4-0.2,0.6-0.5,0.6-0.9c0-1-0.7-1.2-1.2-1.3c-0.1,0-0.2,0-0.2-0.1l-0.1,0l0,0c-0.5-0.1-1.5-0.4-1.5-3.4
							c0-2.9,1.7-4.5,4.8-4.5c2.8,0,4.7,2.4,4.7,2.4l0.3-0.3C100.6,63.1,98.6,60.6,95.6,60.6z"/>
						<path class="st0" d="M88.3,64.6l0.1-0.1l-0.1-0.1c-1.2-1.2-2.5-1.8-3.8-1.8c0,0,0,0,0,0c-2.4,0-4.2,1.8-4.3,1.9l0.3,0.3
							c0,0,1.8-1.8,4-1.8c0,0,0,0,0,0c1.2,0,2.4,0.5,3.4,1.5c-0.2,0.4-0.9,1.4-2.1,1.8c-1.3,0.4-2.8,0-4.5-1L81,65.7
							c1.3,0.8,2.6,1.3,3.7,1.3c0.4,0,0.8-0.1,1.2-0.2C87.6,66.2,88.3,64.7,88.3,64.6z"/>
					</g>
				</g>
			</g>
		</g>
		<path class="st0" d="M90.3,195.2c-23.9,0-43.4-27.4-43.4-61.1C47,100.4,66.4,73,90.3,73s43.4,27.4,43.4,61.1
			C133.7,167.8,114.3,195.2,90.3,195.2z M90.3,74.2c-23.3,0-42.2,26.9-42.2,59.9c0,33,18.9,59.9,42.2,59.9s42.2-26.9,42.2-59.9
			C132.6,101.1,113.6,74.2,90.3,74.2z"/>
		<g>
			<path class="st1" d="M51.9,106.3"/>
		</g>
		<g>
			<path class="st0" d="M147.2,131.2c-0.1-0.1-0.3,0-0.4,0.1c-0.3,0.2-0.6,0.5-0.9,0.8l-0.1,0.1c-0.6,0.5-1.3,1.2-2,1.8
				c-0.3-0.9-0.6-1.7-0.9-2.5l0,0c-0.1-0.3-0.2-0.5-0.3-0.7c0.2-0.1,0.4-0.3,0.6-0.4c1.2-0.9,2.3-1.7,2.9-3.3
				c0.1-0.2,0.1-0.4,0.2-0.6c0.5-1.8,0.2-4.6-0.1-6.7c0-0.4-0.1-0.8-0.1-1.1c0-0.1-0.1-0.3-0.3-0.3c-0.1,0-0.3,0-0.4,0.1
				c-0.2,0.3-0.5,0.6-0.8,1c-0.5,0.6-1.1,1.4-1.7,2.1c-0.4-0.8-0.9-1.6-1.3-2.3l0,0c-0.2-0.3-0.4-0.6-0.5-0.9
				c0.2-0.2,0.4-0.4,0.6-0.6c1.1-1.1,2-2,2.4-3.7c0-0.2,0.1-0.4,0.1-0.6c0.3-1.8-0.5-4.6-1-6.6c-0.1-0.4-0.2-0.7-0.3-1.1
				c0-0.1-0.2-0.2-0.3-0.3c-0.1,0-0.3,0-0.4,0.2c-0.2,0.3-0.4,0.7-0.7,1.1c-0.4,0.7-0.9,1.5-1.4,2.3c-0.5-0.7-1.1-1.5-1.6-2.1l0,0
				c-0.2-0.2-0.3-0.4-0.5-0.6c0.1-0.2,0.3-0.4,0.4-0.6c0.9-1.2,1.7-2.3,1.8-4c0-0.2,0-0.4,0-0.6c0-1.8-1.2-4.4-2.1-6.4
				c-0.2-0.4-0.3-0.7-0.5-1c-0.1-0.1-0.2-0.2-0.3-0.2c-0.1,0-0.3,0.1-0.3,0.2c-0.1,0.4-0.3,0.8-0.5,1.2l0,0c-0.3,0.8-0.7,1.6-1,2.5
				c-0.6-0.6-1.3-1.3-2-1.8c-0.2-0.2-0.4-0.4-0.6-0.6c0-0.2,0.1-0.3,0.1-0.5l0,0c0.4-1.6,0.7-3.1-0.2-5c-0.7-1.6-2.7-3.4-4.2-4.8
				l0,0c-0.3-0.3-0.6-0.6-0.9-0.8c-0.1-0.1-0.3-0.1-0.4-0.1c-0.1,0.1-0.2,0.2-0.2,0.3c0,0.4,0,0.8,0,1.2c0,1.2,0.1,2.7,0.2,4
				c-1.2-0.3-2.6-0.6-3.8-0.8c-0.4-0.1-0.9-0.2-1.2-0.2c-0.1,0-0.3,0-0.4,0.2c-0.1,0.1-0.1,0.3,0,0.4c0.2,0.3,0.4,0.6,0.7,1
				c1.2,1.8,2.7,4,4.2,5c1.2,0.8,2.3,1,3.4,1c0.5,0,1,0,1.5-0.1c0.1,0,0.2,0,0.3,0c0,0.2,0,0.3,0,0.5c0,0.9,0,1.9,0.1,2.8
				c-0.9-0.4-1.8-0.7-2.6-1c-0.4-0.2-0.9-0.3-1.2-0.4c-0.1-0.1-0.3,0-0.4,0.1c-0.1,0.1-0.1,0.3-0.1,0.4c0.1,0.3,0.3,0.6,0.5,1
				c0.9,1.9,2.1,4.5,3.4,5.8c1.6,1.4,3,1.6,4.7,1.7l0,0c0.2,0,0.3,0,0.5,0.1c0,0.2-0.1,0.4-0.1,0.6c-0.1,0.9-0.3,1.8-0.4,2.8
				c-0.8-0.5-1.7-1-2.4-1.4c-0.4-0.2-0.8-0.4-1.1-0.6c-0.1-0.1-0.3-0.1-0.4,0c-0.1,0.1-0.2,0.2-0.1,0.4c0.1,0.3,0.2,0.7,0.3,1l0,0
				c0.5,2,1.3,4.8,2.4,6.3c1.3,1.6,2.7,2,4.4,2.5l0,0c0.2,0.1,0.4,0.1,0.6,0.2c-0.1,0.3-0.2,0.6-0.3,0.9c-0.3,0.9-0.5,1.8-0.8,2.7
				c-0.7-0.6-1.5-1.2-2.2-1.7l0,0c-0.4-0.3-0.7-0.5-1-0.8c-0.1-0.1-0.3-0.1-0.4,0c-0.1,0.1-0.2,0.2-0.2,0.4c0,0.3,0.1,0.7,0.1,1
				l0,0.1c0.3,2.1,0.6,4.9,1.5,6.5c1.1,1.8,2.4,2.4,4,3.1c0.1,0.1,0.3,0.1,0.5,0.2c-0.1,0.2-0.2,0.4-0.3,0.6l0,0
				c-0.4,0.8-0.8,1.7-1.2,2.6c-0.6-0.7-1.3-1.4-1.9-2c-0.3-0.4-0.6-0.7-0.9-0.9c-0.1-0.1-0.3-0.1-0.4-0.1c-0.1,0-0.2,0.2-0.2,0.3
				c0,0.3,0,0.7,0,1.1c-0.1,2.1-0.2,5,0.4,6.7c0.7,2,2,2.8,3.4,3.7c0.2,0.1,0.4,0.3,0.6,0.4c-0.1,0.2-0.3,0.5-0.4,0.8l0,0
				c-0.5,0.8-1,1.6-1.4,2.5c-0.6-0.8-1.2-1.5-1.7-2.2c-0.3-0.4-0.6-0.7-0.8-1c-0.1-0.1-0.2-0.2-0.4-0.1c-0.1,0-0.2,0.2-0.3,0.3
				c0,0.3-0.1,0.6-0.1,1l0,0.1c-0.3,2.1-0.7,4.9-0.2,6.7c0.6,2,1.7,2.9,3.1,4c0.1,0.1,0.3,0.2,0.5,0.4c-0.1,0.2-0.3,0.3-0.4,0.5
				c-0.6,0.7-1.2,1.4-1.8,2.2c-0.4-0.8-0.9-1.7-1.3-2.4c-0.2-0.4-0.4-0.8-0.6-1.1c-0.1-0.1-0.2-0.2-0.3-0.2c0,0,0,0,0,0
				c-0.1,0-0.3,0.1-0.3,0.3c-0.1,0.3-0.2,0.6-0.3,1c-0.6,2-1.5,4.8-1.3,6.6c0.2,2.1,1.2,3.2,2.4,4.4c0.1,0.1,0.3,0.3,0.4,0.4
				c-0.2,0.1-0.3,0.3-0.5,0.4l0,0c-0.7,0.6-1.4,1.2-2.1,1.9c-0.3-0.9-0.6-1.8-0.9-2.6c-0.2-0.4-0.3-0.8-0.5-1.2
				c0-0.1-0.2-0.2-0.3-0.2c-0.1,0-0.3,0.1-0.3,0.2c-0.1,0.3-0.3,0.6-0.4,0.9l0,0.1c-0.9,1.9-2.2,4.5-2.2,6.3
				c-0.1,2.1,0.7,3.3,1.7,4.7c0.1,0.2,0.3,0.4,0.4,0.6c-0.2,0.1-0.5,0.3-0.8,0.4c-0.8,0.4-1.6,0.9-2.5,1.4c-0.1-0.9-0.2-1.9-0.4-2.7
				c-0.1-0.5-0.1-0.9-0.2-1.3c0-0.1-0.1-0.3-0.3-0.3c-0.1,0-0.3,0-0.4,0.1c-0.2,0.3-0.4,0.6-0.7,0.9c-1.3,1.7-3,4-3.5,5.7
				c-0.5,2,0,3.4,0.7,5c0.1,0.2,0.2,0.5,0.3,0.8c-0.3,0.1-0.6,0.2-1,0.3l0,0c-0.9,0.2-1.8,0.5-2.7,0.8c0.1-0.9,0.2-1.9,0.3-2.7
				c0-0.5,0.1-0.9,0.1-1.3c0-0.1-0.1-0.3-0.2-0.4c-0.1-0.1-0.3-0.1-0.4,0c-0.2,0.2-0.5,0.4-0.8,0.7l0,0c-1.6,1.3-3.9,3.1-4.8,4.7
				c-1,1.9-0.8,3.3-0.5,5c0,0.2,0.1,0.5,0.1,0.7c-0.3,0-0.6,0-0.9,0h-0.1c-0.9,0-1.9,0-2.8,0.1c0.4-0.9,0.7-1.8,1-2.6
				c0.2-0.4,0.3-0.8,0.5-1.2c0.1-0.1,0-0.3-0.1-0.4c-0.1-0.1-0.3-0.1-0.4-0.1c-0.3,0.1-0.6,0.3-0.9,0.4l-0.1,0
				c-1.9,0.8-4.6,2-5.9,3.3c-1.4,1.5-1.6,3-1.8,4.7c0,0.3-0.1,0.6-0.1,0.9c0,0.1,0,0.2,0,0.2c0,0.1,0.1,0.1,0.1,0.2
				c0.3,0.2,0.5,0.4,0.7,0.5l0,0c1.2,0.9,2.3,1.7,4,1.9c0.2,0,0.4,0,0.6,0c1.8,0,4.5-1.1,6.4-2c0.4-0.2,0.7-0.3,1-0.4
				c0.1-0.1,0.2-0.2,0.2-0.3s-0.1-0.3-0.2-0.3c-0.3-0.1-0.7-0.3-1.1-0.5l-0.1,0c-0.8-0.3-1.6-0.7-2.5-1c0.7-0.6,1.3-1.3,1.9-1.9
				c0.3-0.3,0.6-0.6,0.9-0.9c0.2,0.1,0.5,0.2,0.7,0.3c1.1,0.4,2.1,0.8,3.3,0.8c0.3,0,0.7,0,1.1-0.1c0.2,0,0.4-0.1,0.6-0.1
				c1.8-0.5,4-2.3,5.7-3.6l0,0c0.3-0.2,0.6-0.5,0.8-0.7c0.1-0.1,0.2-0.2,0.1-0.4c0-0.1-0.2-0.2-0.3-0.3c-0.4,0-0.8-0.1-1.3-0.2
				c-0.8-0.1-1.7-0.2-2.7-0.3c0.5-0.8,0.9-1.6,1.3-2.4l0-0.1c0.2-0.4,0.4-0.7,0.6-1.1c0,0,0,0,0-0.1c0.3,0,0.5,0.1,0.8,0.1l0,0
				c0.7,0.1,1.3,0.2,2,0.2c0.8,0,1.6-0.1,2.4-0.5c0.2-0.1,0.4-0.2,0.6-0.3c1.6-0.9,3.4-3.2,4.6-4.9c0.2-0.3,0.5-0.6,0.7-0.9
				c0.1-0.1,0.1-0.3,0-0.4c-0.1-0.1-0.2-0.2-0.4-0.2c-0.4,0-0.8,0.1-1.3,0.1c-0.8,0.1-1.8,0.2-2.7,0.3c0.3-0.9,0.5-1.8,0.7-2.6
				l0-0.1c0.1-0.4,0.2-0.8,0.3-1.1c0.2,0,0.5,0,0.7-0.1c1.5-0.1,2.9-0.2,4.3-1.2c0.2-0.1,0.3-0.2,0.5-0.4c1.4-1.2,2.6-3.8,3.5-5.7
				c0.2-0.4,0.3-0.7,0.5-1c0.1-0.1,0-0.3-0.1-0.4c-0.1-0.1-0.3-0.1-0.4-0.1c-0.4,0.1-0.8,0.3-1.2,0.4c-0.8,0.3-1.7,0.5-2.5,0.9
				c0.1-0.9,0.1-1.8,0.2-2.7l0-0.1c0-0.3,0-0.6,0-0.8c0.2-0.1,0.4-0.1,0.6-0.1l0,0c1.5-0.3,2.8-0.6,4-1.8c0.1-0.1,0.3-0.3,0.4-0.5
				c1.2-1.4,2-4.1,2.7-6.2c0.1-0.4,0.2-0.7,0.3-1c0-0.1,0-0.3-0.1-0.4c-0.1-0.1-0.3-0.1-0.4,0c-0.3,0.2-0.7,0.4-1.2,0.6
				c-0.7,0.4-1.6,0.8-2.4,1.2c-0.1-0.9-0.2-1.8-0.2-2.7c0-0.3-0.1-0.6-0.1-0.9c0.2-0.1,0.4-0.2,0.6-0.2c1.4-0.6,2.6-1.1,3.7-2.5
				c0.1-0.2,0.2-0.3,0.3-0.5c0.9-1.6,1.3-4.4,1.6-6.5l0-0.1c0-0.4,0.1-0.7,0.1-1c0-0.1,0-0.3-0.2-0.4c-0.1-0.1-0.3-0.1-0.4,0
				c-0.3,0.2-0.7,0.5-1,0.8c-0.7,0.5-1.4,1-2.1,1.6c-0.2-0.9-0.5-1.8-0.7-2.6l0-0.1c-0.1-0.4-0.2-0.7-0.3-1c0.2-0.1,0.4-0.2,0.6-0.3
				l0,0c1.4-0.7,2.5-1.3,3.4-2.8c0.1-0.2,0.2-0.4,0.3-0.5c0.8-1.6,0.9-4.5,1-6.6l0-0.1c0-0.4,0-0.7,0.1-1
				C147.4,131.4,147.3,131.2,147.2,131.2z M134.9,174.2c-0.8,1.7-2,2.3-3.4,3c-0.1,0.1-0.2,0.1-0.4,0.2c0-0.1-0.1-0.2-0.1-0.4
				c-0.3-1.6-0.6-2.9,0.2-4.6c0.3-0.6,0.8-1.2,1.4-1.9c0.2,0.8,0.3,1.5,0.3,2.1c0,0.1,0.1,0.3,0.2,0.3c0.1,0.1,0.3,0,0.4,0
				c0.5-0.4,1.2-0.8,1.9-1.1C135.4,172.7,135.2,173.5,134.9,174.2z M130.7,172.1c-0.8,1.6-0.7,2.9-0.4,4.3c-0.7-1.1-1.3-2.2-1.2-3.8
				c0.1-1.7,1.3-4.2,2.2-6l0.1-0.2c0.1,0.1,0.1,0.3,0.2,0.4c0.3,0.9,0.7,1.9,1,2.9C131.7,170.5,131,171.3,130.7,172.1z M133.7,176.8
				c0.8-0.6,1.5-1.3,1.9-2.3c0.4-0.8,0.6-1.8,0.7-3c0.9-0.4,1.9-0.7,2.8-1l0,0c0.1,0,0.3-0.1,0.4-0.1l-0.1,0.2
				c-0.9,1.8-2.1,4.4-3.4,5.5c-1.2,1-2.3,1.3-3.6,1.4C133,177.2,133.3,177,133.7,176.8z M133.7,172c-0.1-0.6-0.2-1.3-0.4-2.1
				c0.8-0.8,1.6-1.5,2.3-2.1c0.1-0.1,0.2-0.2,0.3-0.2c0,0.1,0,0.2,0,0.3l0,0.2c0,0.9-0.1,2-0.2,3C135,171.3,134.3,171.6,133.7,172z
				 M139.7,162.5c-0.6,1.8-1.6,2.6-2.9,3.5l-0.1,0.1c-0.1,0.1-0.1,0.1-0.2,0.2c0-0.1-0.1-0.2-0.1-0.3l0-0.1c-0.6-1.6-1-2.8-0.5-4.6
				c0.2-0.6,0.6-1.3,1.1-2.1c0.3,0.7,0.6,1.4,0.7,2.1c0,0.1,0.1,0.2,0.2,0.3c0.1,0,0.3,0,0.4-0.1c0.4-0.5,1.1-0.9,1.8-1.4
				C140,161,139.9,161.9,139.7,162.5z M135.1,161.1c-0.5,1.7-0.2,3,0.2,4.3c-0.9-1-1.6-1.9-1.8-3.6c-0.2-1.7,0.6-4.3,1.2-6.3
				l0.1-0.2c0.1,0.1,0.1,0.3,0.2,0.4c0.5,0.8,1,1.8,1.5,2.7C135.9,159.4,135.4,160.3,135.1,161.1z M138.8,165.3
				c0.7-0.7,1.2-1.5,1.6-2.6c0.3-0.8,0.3-1.9,0.3-3c0.9-0.5,1.8-1,2.6-1.4l0,0c0.1-0.1,0.3-0.1,0.4-0.2l-0.1,0.2
				c-0.6,1.9-1.4,4.6-2.5,5.9c-1,1.2-2.1,1.6-3.3,1.9C138.2,165.8,138.5,165.6,138.8,165.3z M138.2,160.5c-0.2-0.6-0.4-1.3-0.7-2
				c0.6-0.9,1.4-1.7,2-2.4l0.2-0.3c0,0.1,0,0.2,0,0.3l0,0.1c0.1,0.9,0.2,2,0.3,3C139.3,159.7,138.7,160.1,138.2,160.5z M142.6,150.3
				c-0.2,1.9-1.2,2.8-2.3,4c-0.1,0.1-0.2,0.2-0.3,0.3c-0.1-0.1-0.1-0.2-0.2-0.3c-0.8-1.4-1.5-2.6-1.2-4.5c0.1-0.7,0.4-1.4,0.7-2.2
				c0.4,0.7,0.8,1.3,1,1.9c0,0.1,0.2,0.2,0.3,0.2c0.1,0,0.3,0,0.3-0.2c0.4-0.5,0.9-1.1,1.5-1.6C142.6,148.7,142.6,149.6,142.6,150.3
				z M137.8,149.6c-0.2,1.8,0.3,3,0.9,4.2c-1.1-0.8-1.9-1.7-2.3-3.2c-0.5-1.6-0.1-4.4,0.2-6.4l0-0.2c0.1,0.1,0.2,0.2,0.3,0.4
				c0.6,0.8,1.3,1.6,1.9,2.5C138.3,147.8,137.9,148.8,137.8,149.6z M142.2,153.1c0.6-0.8,1-1.7,1.1-2.8c0.1-0.9,0-1.9-0.2-3
				c0.8-0.6,1.6-1.2,2.4-1.8l0,0c0.1-0.1,0.2-0.2,0.4-0.3l0,0.2c-0.3,2-0.6,4.8-1.5,6.2c-0.8,1.3-1.8,1.9-3,2.4
				C141.6,153.8,141.9,153.5,142.2,153.1z M140.7,148.6c-0.3-0.6-0.6-1.2-1.1-1.8c0.5-1,1.1-1.9,1.6-2.7l0.2-0.3
				c0,0.1,0.1,0.2,0.1,0.3l0,0.1c0.2,0.9,0.5,1.9,0.7,2.9C141.7,147.5,141.1,148.1,140.7,148.6z M137.3,111.1
				c0.7,0.5,1.2,0.9,1.6,1.4c0.1,0.1,0.2,0.1,0.4,0.1c0.1,0,0.2-0.1,0.3-0.3c0.1-0.6,0.4-1.4,0.8-2.1c0.5,0.8,0.9,1.5,1.1,2.2
				c0.5,1.8,0,3-0.6,4.5l0,0.1c0,0.1-0.1,0.2-0.1,0.3c-0.1-0.1-0.2-0.1-0.2-0.2l-0.1,0c-1.3-1-2.4-1.8-2.8-3.6
				C137.3,112.8,137.3,112,137.3,111.1z M142.1,115.2c0.2-1,0.2-2,0-3c-0.2-0.8-0.7-1.8-1.4-2.7c0.5-0.9,1-1.8,1.5-2.6l0.1-0.1
				c0.1-0.1,0.1-0.2,0.2-0.3l0.1,0.2c0.5,2,1.3,4.7,1,6.3c-0.2,1.5-0.9,2.4-1.8,3.3C141.9,116,142,115.6,142.1,115.2z M139,111.5
				c-0.5-0.4-1.1-0.9-1.7-1.3c0.1-1.1,0.3-2.2,0.4-3.1l0.1-0.3l0.3,0.3c0.6,0.7,1.2,1.6,1.8,2.4C139.5,110.2,139.2,110.9,139,111.5z
				 M136.8,113.6c0.5,1.7,1.4,2.7,2.5,3.6c-1.3-0.4-2.4-0.8-3.4-2.1c-1-1.3-1.8-4-2.3-6l-0.1-0.2c0.1,0.1,0.3,0.1,0.4,0.2
				c0.9,0.5,1.8,1,2.7,1.5C136.5,111.7,136.6,112.8,136.8,113.6z M142,131.3c0-0.1,0.1-0.1,0.1-0.2l0.2,0.4c0.3,0.9,0.7,1.9,1,2.8
				c-0.5,0.5-1,1.1-1.4,1.7c-0.3-0.6-0.7-1.2-1.2-1.7c0.4-1,0.9-2,1.3-2.9L142,131.3z M141.7,137.2c0.1,0,0.3-0.1,0.3-0.2
				c0.3-0.6,0.8-1.2,1.4-1.8c0.2,0.9,0.4,1.7,0.3,2.4c-0.1,1.9-0.9,2.9-2,4.1l-0.1,0.1c-0.1,0.1-0.1,0.1-0.2,0.2
				c-0.1-0.1-0.1-0.2-0.2-0.3l0,0c-0.9-1.4-1.7-2.5-1.6-4.3c0-0.7,0.2-1.4,0.5-2.3c0.5,0.6,0.9,1.3,1.1,1.8
				C141.5,137.1,141.6,137.2,141.7,137.2z M139,137.3c-0.1,1.8,0.5,3,1.3,4.1c-1.1-0.8-2-1.5-2.6-3c-0.6-1.6-0.5-4.4-0.4-6.4l0-0.2
				c0.1,0.1,0.2,0.2,0.3,0.3c0.7,0.7,1.4,1.5,2.1,2.3C139.4,135.5,139.1,136.5,139,137.3z M143.6,140.5c0.5-0.9,0.8-1.8,0.9-2.9
				c0-0.9-0.2-1.9-0.5-3c0.7-0.7,1.5-1.4,2.2-2l0,0c0.1-0.1,0.2-0.2,0.3-0.3l0,0.2c-0.1,2-0.2,4.8-1,6.3c-0.7,1.4-1.6,2-2.7,2.6
				C143.2,141.2,143.4,140.9,143.6,140.5z M141.1,124.8c0.1,0.1,0.2,0.2,0.3,0.2c0.1,0,0.3-0.1,0.3-0.2c0.2-0.6,0.6-1.3,1.1-2
				c0.4,0.8,0.7,1.6,0.7,2.3c0.2,1.9-0.4,3-1.3,4.4l0,0.1c-0.1,0.1-0.1,0.2-0.2,0.3c-0.1-0.1-0.2-0.2-0.3-0.3l0,0
				c-1.2-1.2-2.1-2.1-2.3-4c-0.1-0.7,0-1.5,0.2-2.3C140.3,123.7,140.8,124.3,141.1,124.8z M143.9,127.9c0.4-1,0.5-1.9,0.4-3
				c-0.1-0.9-0.5-1.9-1-2.9c0.6-0.8,1.3-1.6,1.9-2.3l0.1-0.1c0.1-0.1,0.1-0.2,0.2-0.3l0,0.2c0.2,2,0.6,4.8,0.1,6.4
				c-0.4,1.5-1.2,2.3-2.3,3.1C143.6,128.7,143.8,128.3,143.9,127.9z M141.4,123.9c-0.4-0.5-0.9-1-1.5-1.5c0.2-1.1,0.6-2.1,0.8-3.1
				l0-0.1c0-0.1,0-0.2,0.1-0.2l0.2,0.4c0.5,0.8,1,1.7,1.5,2.6C142,122.6,141.6,123.3,141.4,123.9z M138.8,125.6c0.2,1.8,1,2.8,2,3.9
				c-1.2-0.6-2.3-1.1-3.1-2.5c-0.8-1.5-1.2-4.2-1.4-6.3l0-0.2c0.1,0.1,0.2,0.2,0.4,0.3c0.8,0.6,1.7,1.2,2.4,1.9
				C138.9,123.7,138.7,124.7,138.8,125.6z M135.4,101c0.1-0.1,0.2-0.2,0.2-0.3c0-0.7,0.2-1.4,0.4-2.2c0.6,0.7,1.1,1.3,1.4,2
				c0.8,1.7,0.5,3,0.1,4.6c0,0.1-0.1,0.3-0.1,0.4c-0.1-0.1-0.2-0.1-0.3-0.2c-1.5-0.8-2.6-1.4-3.4-3.1c-0.3-0.6-0.4-1.4-0.6-2.3
				c0.7,0.3,1.4,0.7,1.9,1.1C135.1,101.1,135.2,101.1,135.4,101z M138.6,103.1c0.1-1-0.1-2-0.5-3c-0.4-0.8-1-1.6-1.8-2.5
				c0.3-0.9,0.7-1.9,1.1-2.8l0-0.1c0.1-0.1,0.1-0.2,0.1-0.4l0.1,0.2c0.9,1.9,2,4.4,2.1,6.1c0,1.6-0.5,2.5-1.2,3.6
				C138.5,104,138.5,103.6,138.6,103.1z M134.9,100c-0.5-0.4-1.2-0.7-1.9-1c-0.1-1.1-0.1-2.2-0.1-3.2l0-0.1c0-0.1,0-0.2,0-0.2
				c0.1,0.1,0.1,0.1,0.2,0.2l0.1,0.1c0.7,0.6,1.5,1.3,2.2,2.1C135.2,98.7,135,99.4,134.9,100z M133,102.4c0.8,1.6,1.8,2.4,3.1,3.1
				c-1.4-0.2-2.5-0.4-3.7-1.5c-1.2-1.1-2.4-3.7-3.3-5.5l-0.1-0.2c0.1,0,0.3,0.1,0.4,0.1c0.9,0.3,1.9,0.7,2.9,1.1
				C132.5,100.6,132.7,101.7,133,102.4z M132,94.3c-1.4-0.8-2.5-1.4-3.3-3.1c-0.1-0.3-0.3-0.7-0.4-1.1c0.4,0.2,0.8,0.3,1.1,0.5
				C131,91.6,131.5,92.8,132,94.3z M132.5,93.7c-0.5-1.4-1.1-2.7-2.7-3.7c-0.5-0.3-1-0.5-1.6-0.8c-0.2-1.4-0.2-2.9-0.3-4.2l0-0.3
				c0.1,0.1,0.2,0.2,0.3,0.3c1.4,1.3,3.4,3.1,4.1,4.6C133,91.1,132.8,92.3,132.5,93.7z M128.1,91.5c0.8,1.8,2,2.5,3.3,3.2
				c-1.4,0.1-2.6,0.1-4.1-0.8c-1.4-0.9-2.9-3.1-4-4.8l-0.2-0.3c0.1,0,0.3,0,0.4,0.1c1.2,0.2,2.7,0.5,4,0.9
				C127.7,90.4,127.9,91,128.1,91.5z M128,185.1c-1.1,1.5-2.4,1.8-4,2.3c-0.1,0-0.3,0.1-0.4,0.1c0-0.1,0-0.2,0-0.4
				c0-1.7,0-3,1.2-4.5c0.4-0.5,1-1.1,1.7-1.6c0,0.8,0,1.5-0.1,2.2c0,0.1,0,0.3,0.1,0.4c0.1,0.1,0.3,0.1,0.4,0
				c0.6-0.3,1.3-0.5,2.1-0.7C128.8,183.8,128.4,184.6,128,185.1z M124.2,182.2c-1.1,1.4-1.3,2.7-1.3,4.1c-0.5-1.3-0.8-2.4-0.4-4
				c0.4-1.6,2.1-3.8,3.4-5.5l0.1-0.2c0,0.1,0,0.3,0.1,0.4c0.1,1,0.3,2,0.4,3.1C125.6,180.8,124.8,181.5,124.2,182.2z M126.2,187.4
				c1-0.4,1.7-1,2.4-1.9c0.5-0.7,1-1.7,1.3-2.7c1-0.2,2-0.3,3-0.4l0,0c0.2,0,0.3,0,0.4,0l-0.1,0.2c-1.2,1.6-3,3.8-4.4,4.7
				c-1.4,0.8-2.5,0.8-3.8,0.6C125.4,187.7,125.8,187.6,126.2,187.4z M127.2,182.7c0.1-0.6,0.1-1.4,0-2.1c0.9-0.6,1.9-1.1,2.7-1.6
				l0.3-0.2c0,0.1-0.1,0.3-0.1,0.4c-0.2,0.9-0.5,1.9-0.8,2.9C128.6,182.3,127.9,182.5,127.2,182.7z M118.6,194.4
				c-1.5,1.2-2.8,1.2-4.4,1.3c-0.1,0-0.3,0-0.4,0c0-0.1,0.1-0.2,0.1-0.4c0.4-1.6,0.7-2.9,2.2-4.1c0.5-0.4,1.2-0.8,2.1-1.1
				c-0.2,0.8-0.3,1.5-0.6,2.1c-0.1,0.1,0,0.3,0,0.4c0.1,0.1,0.2,0.2,0.4,0.1c0.6-0.1,1.4-0.2,2.2-0.2
				C119.7,193.3,119.2,194,118.6,194.4z M115.6,190.7c-1.4,1.1-1.9,2.4-2.2,3.7c-0.2-1.3-0.2-2.5,0.5-3.9c0.8-1.5,3-3.2,4.6-4.5
				l0.2-0.2c0,0.1,0,0.3,0,0.4c-0.1,1-0.2,2-0.3,3.1C117.3,189.7,116.3,190.1,115.6,190.7z M116.3,196.2c1-0.2,1.9-0.6,2.7-1.3
				c0.7-0.5,1.3-1.4,1.9-2.4c1,0.1,2,0.2,3,0.3l0.2,0c0.1,0,0.2,0,0.3,0l-0.2,0.2c-1.6,1.3-3.8,3-5.4,3.5c-1.5,0.4-2.6,0.2-3.8-0.3
				C115.5,196.3,115.9,196.3,116.3,196.2z M118.5,191.9c0.2-0.6,0.4-1.3,0.5-2.1c1-0.4,2.1-0.7,3-0.9l0.3-0.1
				c-0.1,0.1-0.1,0.3-0.2,0.4c-0.4,0.8-0.9,1.7-1.5,2.6C119.9,191.8,119.1,191.8,118.5,191.9z M107.2,201c-1.7,0.7-3,0.4-4.6,0
				l-0.1,0c-0.1,0-0.2-0.1-0.3-0.1c0.1-0.1,0.1-0.2,0.2-0.3l0,0c0.8-1.4,1.5-2.6,3.2-3.3c0.6-0.3,1.4-0.4,2.3-0.5
				c-0.4,0.7-0.7,1.3-1.1,1.8c-0.1,0.1-0.1,0.2-0.1,0.4c0.1,0.1,0.2,0.2,0.3,0.2c0.7,0,1.4,0.2,2.2,0.4
				C108.5,200.2,107.8,200.7,107.2,201z M105.4,196.6c-1.7,0.7-2.4,1.8-3.2,3c0.2-1.3,0.4-2.5,1.6-3.7c1.2-1.2,3.7-2.3,5.6-3.1
				l0.2-0.1c-0.1,0.1-0.1,0.3-0.2,0.4c-0.3,0.9-0.7,1.9-1.1,2.9C107.2,196.1,106.1,196.2,105.4,196.6z M104.5,202.1
				c0.2,0,0.4,0,0.6,0c0.8,0,1.6-0.2,2.4-0.5c0.8-0.3,1.7-1,2.5-1.7c0.9,0.3,1.9,0.7,2.8,1.1l0,0c0.1,0.1,0.3,0.1,0.4,0.2l-0.2,0.1
				c-1.9,0.8-4.5,1.9-6.1,1.9c-1.6,0-2.5-0.5-3.6-1.3C103.7,202,104.1,202.1,104.5,202.1z M107.7,198.5c0.4-0.5,0.7-1.2,1-1.8
				c1.1-0.1,2.2-0.1,3.2-0.1l0.4,0c-0.1,0.1-0.1,0.1-0.2,0.2l-0.1,0.1c-0.6,0.7-1.4,1.4-2.1,2.1
				C109.1,198.8,108.4,198.6,107.7,198.5z"/>
			<path class="st0" d="M117.5,80.6c0.9,1.9,2,4.2,3.3,5.3c1.5,1.3,2.9,1.4,4.5,1.5l0,0c0.3,0,0.5,0,0.8,0.1c0,0,0,0,0,0
				c0,0,0,0,0.1,0l0,0c0.1,0,0.1-0.1,0.2-0.1c0.1-0.1,0.1-0.2,0.1-0.3c-0.1-0.3-0.1-0.5-0.2-0.8c-0.3-1.6-0.6-2.9-2.1-4.2
				c-1.3-1.1-3.7-1.9-5.6-2.5c-0.4-0.1-0.8-0.3-1.2-0.4c-0.1,0-0.3,0-0.4,0.1c-0.1,0.1-0.1,0.3,0,0.4
				C117.1,79.9,117.3,80.3,117.5,80.6z M118,80l0.4,0.1c1.8,0.6,4.2,1.4,5.4,2.4c1.3,1.2,1.6,2.4,1.9,3.9l0,0c0,0.1,0,0.2,0.1,0.3
				c-0.1,0-0.2,0-0.3,0l-0.1,0c-1.6-0.1-2.8-0.2-4.1-1.4c-1.2-1-2.3-3.4-3.1-5.1C118,80.2,118,80.1,118,80z"/>
			<path class="st0" d="M77.3,195.4c-1.3-1.3-3.9-2.5-5.9-3.3l0,0c-0.3-0.1-0.7-0.3-1-0.4c-0.1-0.1-0.3,0-0.4,0.1
				c-0.1,0.1-0.1,0.3-0.1,0.4c0.1,0.4,0.3,0.8,0.4,1.2l0,0c0.3,0.8,0.6,1.7,1,2.6c-1,0-1.9,0-2.8-0.1h-0.1c-0.3,0-0.6,0-0.9,0
				c0-0.2,0.1-0.5,0.1-0.7l0,0c0.3-1.7,0.5-3.1-0.5-5c-0.9-1.6-3.1-3.4-4.8-4.7l0,0c-0.3-0.2-0.6-0.5-0.8-0.7
				c-0.1-0.1-0.3-0.1-0.4,0c-0.1,0.1-0.2,0.2-0.2,0.4c0,0.4,0.1,0.9,0.1,1.3c0.1,0.9,0.2,1.8,0.3,2.7c-0.9-0.3-1.9-0.6-2.7-0.8l0,0
				c-0.4-0.1-0.7-0.2-1-0.3c0.1-0.3,0.2-0.5,0.3-0.8c0.6-1.6,1.2-2.9,0.7-5c-0.5-1.8-2.2-4.1-3.5-5.7c-0.2-0.3-0.5-0.6-0.7-0.9
				c-0.1-0.1-0.2-0.2-0.4-0.1c-0.1,0-0.2,0.2-0.3,0.3c-0.1,0.4-0.1,0.8-0.2,1.3c-0.1,0.8-0.3,1.8-0.4,2.7c-0.8-0.5-1.7-1-2.5-1.4
				c-0.3-0.2-0.5-0.3-0.8-0.4c0.1-0.2,0.3-0.4,0.4-0.6c1-1.4,1.8-2.6,1.7-4.7c-0.1-1.8-1.3-4.4-2.2-6.3l0-0.1
				c-0.2-0.3-0.3-0.7-0.4-0.9c-0.1-0.1-0.2-0.2-0.3-0.2c-0.1,0-0.3,0.1-0.3,0.2c-0.1,0.4-0.3,0.8-0.4,1.2l0,0
				c-0.3,0.8-0.6,1.7-0.9,2.6c-0.7-0.7-1.4-1.3-2.1-1.9l0,0c-0.2-0.2-0.3-0.3-0.5-0.4c0.1-0.1,0.3-0.3,0.4-0.4
				c1.2-1.3,2.2-2.3,2.4-4.4c0.2-1.8-0.7-4.6-1.3-6.6c-0.1-0.4-0.2-0.7-0.3-1c0-0.1-0.2-0.2-0.3-0.3c-0.1,0-0.3,0.1-0.4,0.2
				c-0.2,0.3-0.4,0.7-0.6,1.1c-0.4,0.8-0.9,1.6-1.3,2.4c-0.6-0.8-1.2-1.5-1.8-2.2l0,0c-0.1-0.2-0.3-0.3-0.4-0.5
				c0.1-0.1,0.3-0.2,0.4-0.4l0,0c1.3-1,2.5-1.9,3.1-4c0.5-1.8,0.1-4.6-0.2-6.7c-0.1-0.4-0.1-0.8-0.1-1.1c0-0.1-0.1-0.3-0.3-0.3
				c-0.1,0-0.3,0-0.4,0.1c-0.2,0.3-0.5,0.6-0.8,1c-0.5,0.7-1.1,1.4-1.7,2.2c-0.5-0.8-1-1.7-1.4-2.5l0,0c-0.2-0.3-0.3-0.5-0.5-0.8
				c0.2-0.1,0.4-0.3,0.6-0.4c1.4-0.9,2.7-1.7,3.4-3.7c0.6-1.7,0.5-4.6,0.4-6.7l0,0c0-0.4,0-0.7,0-1.1c0-0.1-0.1-0.3-0.2-0.3
				c-0.1-0.1-0.3,0-0.4,0.1c-0.3,0.3-0.6,0.6-0.9,0.9c-0.6,0.6-1.3,1.3-1.9,2c-0.4-0.9-0.8-1.8-1.2-2.6c-0.1-0.2-0.2-0.4-0.3-0.6
				c0.1-0.1,0.3-0.1,0.4-0.2l0,0c1.6-0.7,2.9-1.3,4-3.1c0.9-1.6,1.3-4.4,1.5-6.5l0,0c0-0.4,0.1-0.7,0.1-1.1c0-0.1-0.1-0.3-0.2-0.4
				c-0.1-0.1-0.3-0.1-0.4,0c-0.3,0.2-0.7,0.5-1,0.8c-0.7,0.5-1.5,1.1-2.2,1.7c-0.2-0.9-0.5-1.9-0.8-2.7l0,0
				c-0.1-0.3-0.2-0.6-0.3-0.9c0.2-0.1,0.4-0.1,0.6-0.2l0,0c1.6-0.5,3.1-0.8,4.4-2.5c1.1-1.4,1.9-4.2,2.4-6.3l0,0
				c0.1-0.4,0.2-0.7,0.3-1c0-0.1,0-0.3-0.1-0.4c-0.1-0.1-0.3-0.1-0.4,0c-0.3,0.2-0.8,0.4-1.1,0.6c-0.8,0.4-1.6,0.9-2.4,1.4
				c-0.1-1-0.2-1.9-0.4-2.8l0,0c0-0.2-0.1-0.4-0.1-0.6c0.2,0,0.3,0,0.5-0.1l0,0c1.7-0.2,3.2-0.3,4.7-1.7c1.4-1.2,2.6-3.8,3.4-5.8
				c0.2-0.4,0.3-0.7,0.5-1c0.1-0.1,0-0.3-0.1-0.4c-0.1-0.1-0.3-0.1-0.4-0.1c-0.4,0.1-0.8,0.3-1.2,0.4c-0.8,0.3-1.7,0.6-2.6,1
				c0.1-1,0.1-1.9,0.1-2.8l0,0c0-0.2,0-0.3,0-0.5c0.1,0,0.2,0,0.3,0c0.5,0,1,0.1,1.5,0.1c1.1,0,2.2-0.2,3.4-1c1.5-1,3-3.2,4.2-5l0,0
				c0.2-0.3,0.5-0.7,0.7-1c0.1-0.1,0.1-0.3,0-0.4C58.4,88,58.2,88,58.1,88c-0.4,0.1-0.8,0.2-1.3,0.2c-1.2,0.2-2.6,0.4-3.8,0.8
				c0.2-1.3,0.2-2.7,0.2-4l0,0c0-0.4,0-0.8,0-1.1c0-0.1-0.1-0.3-0.2-0.3c-0.1-0.1-0.3,0-0.4,0.1c-0.3,0.3-0.6,0.6-0.9,0.9
				c-1.6,1.4-3.5,3.2-4.2,4.8c-0.9,1.9-0.5,3.3-0.2,5c0,0.1,0.1,0.3,0.1,0.5c-0.2,0.2-0.4,0.4-0.6,0.6l0,0c-0.6,0.6-1.3,1.2-2,1.8
				c-0.3-0.9-0.6-1.7-1-2.5l0,0c-0.2-0.4-0.3-0.8-0.5-1.2c-0.1-0.1-0.2-0.2-0.3-0.2c0,0,0,0,0,0c-0.1,0-0.3,0.1-0.3,0.2
				c-0.1,0.3-0.3,0.6-0.5,1c-0.9,1.9-2.1,4.5-2.1,6.4c0,0.2,0,0.4,0,0.6c0.1,1.7,0.9,2.8,1.8,4c0.1,0.2,0.3,0.4,0.4,0.6
				c-0.2,0.2-0.3,0.4-0.5,0.6l0,0c-0.5,0.7-1.1,1.4-1.6,2.1c-0.4-0.8-0.9-1.6-1.4-2.3l0,0c-0.2-0.4-0.5-0.8-0.7-1.1
				c-0.1-0.1-0.2-0.2-0.4-0.2c-0.1,0-0.3,0.1-0.3,0.3c-0.1,0.3-0.2,0.7-0.3,1.1c-0.5,2-1.3,4.8-1,6.6c0,0.2,0.1,0.4,0.1,0.6
				c0.4,1.7,1.4,2.6,2.4,3.7c0.2,0.2,0.4,0.4,0.6,0.6c-0.2,0.3-0.3,0.6-0.5,0.9l0,0c-0.4,0.7-0.9,1.5-1.3,2.3
				c-0.6-0.7-1.1-1.4-1.7-2.1l0,0c-0.3-0.4-0.6-0.7-0.8-1c-0.1-0.1-0.2-0.2-0.4-0.1c-0.1,0-0.2,0.2-0.3,0.3c0,0.3-0.1,0.7-0.1,1.1
				l0,0c-0.3,2.1-0.6,4.9-0.1,6.7c0.1,0.2,0.1,0.4,0.2,0.6c0.6,1.6,1.7,2.4,2.9,3.3c0.2,0.1,0.4,0.3,0.6,0.4
				c-0.1,0.2-0.2,0.5-0.3,0.7l0,0c-0.3,0.8-0.6,1.7-0.9,2.5c-0.7-0.6-1.4-1.2-2-1.8l0,0c-0.3-0.3-0.7-0.6-0.9-0.8
				c-0.1-0.1-0.3-0.1-0.4-0.1c-0.1,0.1-0.2,0.2-0.2,0.3c0,0.3,0,0.7,0.1,1.1l0,0c0.1,2.1,0.2,5,1,6.6c0.1,0.2,0.2,0.4,0.3,0.5
				c0.9,1.5,2.1,2.1,3.4,2.8l0,0c0.2,0.1,0.4,0.2,0.6,0.3c-0.1,0.3-0.2,0.6-0.3,1l0,0.1c-0.2,0.8-0.5,1.7-0.7,2.6
				c-0.7-0.6-1.5-1.1-2.1-1.6l0,0c-0.4-0.3-0.7-0.5-1-0.8c-0.1-0.1-0.3-0.1-0.4,0c-0.1,0.1-0.2,0.2-0.2,0.4c0,0.3,0.1,0.7,0.1,1l0,0
				c0.3,2.1,0.7,4.9,1.6,6.5c0.1,0.2,0.2,0.4,0.3,0.5c1,1.4,2.2,1.9,3.7,2.5c0.2,0.1,0.4,0.2,0.6,0.2c0,0.3-0.1,0.6-0.1,0.9
				c-0.1,0.8-0.2,1.8-0.2,2.7c-0.8-0.4-1.6-0.9-2.4-1.2c-0.4-0.2-0.8-0.4-1.2-0.6c-0.1-0.1-0.3-0.1-0.4,0c-0.1,0.1-0.2,0.2-0.1,0.4
				c0.1,0.3,0.2,0.7,0.3,1c0.6,2,1.5,4.8,2.7,6.2c0.1,0.2,0.3,0.3,0.4,0.5c1.2,1.2,2.5,1.5,4,1.8l0,0c0.2,0,0.4,0.1,0.6,0.1
				c0,0.3,0,0.6,0,0.9l0,0c0,0.8,0.1,1.8,0.2,2.7c-0.9-0.3-1.7-0.6-2.5-0.9l0,0c-0.4-0.1-0.8-0.3-1.2-0.4c-0.1,0-0.3,0-0.4,0.1
				c-0.1,0.1-0.1,0.3-0.1,0.4c0.1,0.3,0.3,0.6,0.5,1c0.9,1.9,2.2,4.5,3.5,5.7c0.2,0.1,0.3,0.3,0.5,0.4c1.4,1,2.7,1.1,4.3,1.2
				c0.2,0,0.5,0,0.7,0.1c0.1,0.3,0.2,0.7,0.3,1.1c0.2,0.8,0.4,1.7,0.7,2.6c-0.9-0.1-1.8-0.2-2.7-0.3c-0.5,0-0.9-0.1-1.3-0.1
				c-0.1,0-0.3,0.1-0.4,0.2c-0.1,0.1-0.1,0.3,0,0.4c0.2,0.3,0.4,0.6,0.7,0.9c1.3,1.7,3,4,4.6,4.8c0.2,0.1,0.4,0.2,0.6,0.3
				c0.9,0.4,1.6,0.5,2.4,0.5c0.7,0,1.3-0.1,2-0.2l0,0c0.2,0,0.5-0.1,0.7-0.1c0,0,0,0,0,0.1c0.2,0.3,0.4,0.7,0.6,1.1l0,0
				c0.4,0.7,0.8,1.6,1.3,2.3c-0.9,0.1-1.8,0.2-2.7,0.3c-0.5,0.1-0.9,0.1-1.3,0.2c-0.1,0-0.3,0.1-0.3,0.3c0,0.1,0,0.3,0.1,0.4
				c0.2,0.2,0.5,0.4,0.8,0.6l0.1,0.1c1.6,1.3,3.9,3.1,5.7,3.6c0.2,0.1,0.4,0.1,0.6,0.1h0c0.4,0.1,0.7,0.1,1.1,0.1
				c1.2,0,2.2-0.4,3.3-0.8c0.2-0.1,0.5-0.2,0.7-0.3c0.3,0.3,0.6,0.6,0.9,0.9l0,0c0.6,0.6,1.2,1.3,1.9,1.9c-0.9,0.3-1.7,0.7-2.5,1
				l-0.1,0c-0.4,0.2-0.8,0.3-1.1,0.5c-0.1,0.1-0.2,0.2-0.2,0.3c0,0.1,0.1,0.3,0.2,0.3c0.3,0.1,0.6,0.3,1,0.4c1.9,0.8,4.6,2,6.4,2
				c0.2,0,0.4,0,0.6,0c1.7-0.2,2.8-0.9,4-1.9l0,0c0.2-0.2,0.5-0.4,0.7-0.5c0.1,0,0.1-0.1,0.1-0.2c0-0.1,0.1-0.2,0-0.2
				c0-0.3-0.1-0.6-0.1-0.9C78.9,198.4,78.7,196.9,77.3,195.4z M73.5,199.2c0.1,0,0.3-0.1,0.3-0.2c0.1-0.1,0-0.3-0.1-0.4
				c-0.4-0.5-0.8-1.1-1.1-1.8c0.9,0.1,1.7,0.3,2.3,0.5c1.7,0.7,2.4,1.9,3.2,3.3c0.1,0.1,0.1,0.2,0.2,0.3c-0.1,0-0.2,0.1-0.3,0.1
				l-0.1,0c-1.6,0.4-2.9,0.7-4.6,0c-0.6-0.3-1.3-0.8-2-1.4C72.1,199.4,72.8,199.2,73.5,199.2z M75.2,196.6c-0.8-0.3-1.8-0.5-2.9-0.6
				c-0.4-1-0.8-2-1.1-2.9c-0.1-0.1-0.1-0.3-0.2-0.4l0.2,0.1c1.9,0.8,4.5,1.9,5.6,3.1c1.1,1.2,1.4,2.3,1.6,3.7
				C77.6,198.3,76.8,197.3,75.2,196.6z M72.8,198.5c-0.7,0.1-1.4,0.3-2.1,0.5c-0.8-0.7-1.5-1.5-2.1-2.1l-0.1-0.1
				c-0.1-0.1-0.1-0.1-0.2-0.2l0.4,0c1,0,2.1,0,3.2,0.1C72.1,197.3,72.4,198,72.8,198.5z M73,201.6c0.8,0.3,1.6,0.5,2.4,0.5
				c0.2,0,0.4,0,0.6,0c0.4,0,0.8-0.1,1.3-0.2c-1,0.7-2,1.3-3.6,1.3c-1.7,0-4.3-1.1-6.1-1.9l-0.2-0.1c0.1-0.1,0.3-0.1,0.4-0.2l0,0
				c0.9-0.4,1.8-0.8,2.8-1.1C71.4,200.6,72.2,201.3,73,201.6z M62.6,192.7c0.1,0,0.3,0,0.4-0.1c0.1-0.1,0.1-0.3,0-0.4
				c-0.3-0.6-0.5-1.3-0.6-2.1c0.8,0.3,1.5,0.7,2.1,1.1c1.5,1.2,1.8,2.5,2.2,4.1c0,0.1,0.1,0.2,0.1,0.4c-0.1,0-0.3,0-0.4,0
				c-1.6-0.1-3-0.1-4.4-1.3c-0.5-0.4-1.1-1.1-1.6-1.8C61.2,192.5,61.9,192.6,62.6,192.7z M67.1,194.4c-0.4-1.4-0.8-2.6-2.2-3.7
				c-0.7-0.5-1.6-1-2.7-1.4c-0.2-1-0.2-2.1-0.3-3.1l0-0.1c0-0.1,0-0.2,0-0.4l0.2,0.2c1.6,1.3,3.8,3,4.6,4.5
				C67.4,191.9,67.3,193.1,67.1,194.4z M62.1,191.9c-0.7-0.1-1.4-0.1-2.2,0c-0.5-0.9-1-1.8-1.5-2.6l-0.1-0.1
				c-0.1-0.1-0.1-0.2-0.2-0.3l0.3,0.1c0.9,0.3,2,0.6,3,0.9C61.7,190.6,61.9,191.3,62.1,191.9z M61.4,195c0.8,0.7,1.7,1.1,2.7,1.3
				c0.4,0.1,0.8,0.1,1.3,0.1c-1.2,0.4-2.3,0.7-3.8,0.3c-1.6-0.5-3.8-2.2-5.4-3.5l-0.2-0.1c0.1,0,0.2,0,0.3,0l0.2,0
				c0.9-0.1,2-0.3,3-0.3C60.1,193.6,60.8,194.4,61.4,195z M53.9,183.6c0.1-0.1,0.2-0.2,0.1-0.4c-0.1-0.6-0.1-1.4-0.1-2.2
				c0.7,0.5,1.3,1,1.7,1.6c1.1,1.5,1.2,2.8,1.2,4.5c0,0.1,0,0.2,0,0.4c-0.1,0-0.3-0.1-0.4-0.1c-1.6-0.4-2.8-0.8-4-2.3
				c-0.4-0.5-0.8-1.3-1.1-2.2c0.8,0.2,1.5,0.4,2.1,0.7C53.7,183.7,53.8,183.7,53.9,183.6z M56.3,182.2c-0.5-0.7-1.3-1.3-2.3-2
				c0.1-1,0.3-2.1,0.4-3.1c0-0.2,0-0.3,0.1-0.4l0.1,0.2c1.2,1.6,2.9,3.8,3.4,5.5c0.4,1.6,0.1,2.7-0.4,4
				C57.6,184.9,57.4,183.6,56.3,182.2z M53.3,182.7c-0.6-0.2-1.4-0.4-2.1-0.6c-0.3-1-0.6-2-0.8-2.9l0-0.1c0-0.1-0.1-0.2-0.1-0.3
				l0.3,0.2c0.8,0.5,1.8,1,2.7,1.6C53.2,181.3,53.2,182.1,53.3,182.7z M51.9,185.5c0.7,0.9,1.4,1.4,2.4,1.9c0.4,0.2,0.8,0.3,1.2,0.4
				c-1.3,0.1-2.4,0.1-3.8-0.6c-1.5-0.8-3.2-3-4.4-4.7l-0.1-0.2c0.1,0,0.3,0,0.4,0l0,0c0.9,0.1,2,0.2,3,0.4
				C51,183.9,51.4,184.8,51.9,185.5z M45.2,101c0.1,0.1,0.3,0,0.4,0c0.5-0.4,1.1-0.8,1.9-1.1c-0.1,0.9-0.3,1.7-0.6,2.3
				c-0.8,1.7-1.9,2.3-3.4,3.1c-0.1,0.1-0.2,0.1-0.3,0.2c0-0.1-0.1-0.2-0.1-0.4l0,0c-0.4-1.6-0.6-2.9,0.1-4.6c0.3-0.6,0.8-1.3,1.4-2
				c0.2,0.8,0.4,1.5,0.4,2.2C45,100.9,45,101,45.2,101z M47.5,102.4c0.4-0.8,0.6-1.8,0.7-2.9c1-0.4,2-0.8,2.9-1.1
				c0.1-0.1,0.3-0.1,0.4-0.1l-0.1,0.2c-0.9,1.9-2,4.4-3.3,5.5c-1.2,1.1-2.3,1.3-3.7,1.5C45.7,104.8,46.8,104.1,47.5,102.4z
				 M45.6,100c-0.1-0.7-0.3-1.4-0.5-2.1c0.7-0.7,1.5-1.5,2.2-2.1l0.1-0.1c0.1-0.1,0.2-0.1,0.2-0.2l0,0.4c0,1,0,2.1-0.1,3.2
				C46.8,99.4,46.2,99.7,45.6,100z M42.5,100.2c-0.4,1-0.6,1.9-0.5,3c0,0.4,0.1,0.8,0.2,1.3c-0.7-1.1-1.3-2-1.2-3.6
				c0-1.7,1.2-4.2,2.1-6.1l0.1-0.2c0.1,0.1,0.1,0.3,0.2,0.4l0,0c0.3,0.9,0.7,1.8,1.1,2.8C43.5,98.6,42.9,99.4,42.5,100.2z
				 M51.8,91.2c-0.8,1.7-1.9,2.3-3.3,3.1c0.6-1.5,1-2.7,2.5-3.7c0.3-0.2,0.7-0.4,1.1-0.5C52.1,90.5,52,90.9,51.8,91.2z M52.5,91.5
				c0.2-0.5,0.4-1.1,0.5-1.7c1.3-0.4,2.8-0.7,4-0.9c0.1,0,0.3-0.1,0.4-0.1l-0.2,0.3c-1.1,1.6-2.6,3.9-4,4.8
				c-1.4,0.9-2.6,0.9-4.1,0.8C50.5,94,51.7,93.3,52.5,91.5z M50.7,90c-1.6,1-2.2,2.3-2.7,3.7c-0.3-1.4-0.5-2.6,0.2-4.1
				c0.7-1.5,2.6-3.3,4.1-4.6c0.1-0.1,0.2-0.2,0.3-0.3l0,0.3c0,1.3-0.1,2.9-0.3,4.2C51.7,89.5,51.1,89.7,50.7,90z M41.2,112.6
				c0.1,0,0.3,0,0.4-0.1c0.4-0.5,1-0.9,1.6-1.4c0,0.9,0,1.7-0.2,2.3c-0.5,1.8-1.5,2.6-2.8,3.6l-0.1,0.1c-0.1,0.1-0.1,0.1-0.2,0.2
				c0-0.1-0.1-0.2-0.1-0.4c-0.6-1.5-1.1-2.7-0.6-4.5c0.2-0.7,0.6-1.4,1.1-2.2c0.4,0.7,0.6,1.5,0.8,2.1
				C41,112.5,41.1,112.6,41.2,112.6z M43.8,113.6c0.2-0.8,0.2-1.9,0.2-3c0.9-0.6,1.8-1.1,2.7-1.6c0.1-0.1,0.3-0.1,0.4-0.2l-0.1,0.2
				c-0.5,2-1.3,4.7-2.3,6c-1,1.3-2.1,1.7-3.4,2.1C42.4,116.3,43.3,115.3,43.8,113.6z M41.5,111.5c-0.2-0.6-0.5-1.3-0.9-2
				c0.6-0.9,1.3-1.7,1.8-2.4c0.1-0.1,0.2-0.2,0.3-0.3l0.1,0.3c0.1,0.9,0.3,2.1,0.4,3.1C42.6,110.7,42,111.1,41.5,111.5z M38.4,112.2
				c-0.3,1-0.3,2,0,3c0.1,0.4,0.2,0.8,0.4,1.2c-0.9-0.9-1.6-1.8-1.8-3.3c-0.2-1.7,0.5-4.4,1-6.3l0.1-0.2c0.1,0.1,0.2,0.3,0.2,0.4
				l0,0c0.5,0.8,1,1.7,1.5,2.6C39.2,110.4,38.7,111.4,38.4,112.2z M38.4,131.4c0-0.1,0.1-0.2,0.1-0.3l0.2,0.3
				c0.4,0.9,0.9,1.9,1.3,2.9c-0.5,0.6-0.9,1.2-1.2,1.7c-0.4-0.5-0.9-1.1-1.4-1.7c0.3-1,0.7-2,1-2.8L38.4,131.4z M38.8,137.2
				C38.8,137.2,38.8,137.2,38.8,137.2c0.2,0,0.3-0.1,0.3-0.2c0.3-0.6,0.7-1.2,1.1-1.8c0.3,0.8,0.5,1.6,0.5,2.3
				c0.1,1.9-0.7,3-1.6,4.3c-0.1,0.1-0.1,0.2-0.2,0.3c-0.1-0.1-0.1-0.2-0.2-0.3l0,0c-1.1-1.3-1.9-2.3-2-4.1c0-0.7,0.1-1.5,0.3-2.4
				c0.6,0.6,1.1,1.2,1.4,1.8C38.5,137.1,38.6,137.2,38.8,137.2z M41.5,137.3c0-0.9-0.3-1.9-0.7-2.9c0.7-0.8,1.4-1.6,2.1-2.3
				c0.1-0.1,0.2-0.2,0.3-0.3l0,0.2c0.1,2,0.2,4.8-0.4,6.4c-0.6,1.5-1.5,2.3-2.6,3C41,140.3,41.6,139.2,41.5,137.3z M36,137.6
				c0.1,1.1,0.3,2,0.9,2.9c0.2,0.4,0.5,0.7,0.7,1c-1.1-0.6-2.1-1.3-2.7-2.6c-0.7-1.5-0.9-4.3-1-6.3l0-0.2l0.4,0.3
				c0.7,0.6,1.5,1.3,2.2,2C36.2,135.7,36,136.8,36,137.6z M39,124.9c0.1,0,0.3,0,0.3-0.2c0.3-0.5,0.9-1.1,1.4-1.6
				c0.2,0.9,0.2,1.7,0.2,2.3c-0.2,1.9-1.1,2.8-2.3,4c-0.1,0.1-0.2,0.2-0.3,0.3c-0.1-0.1-0.1-0.2-0.2-0.3c-0.8-1.4-1.5-2.5-1.3-4.4
				c0.1-0.7,0.4-1.5,0.7-2.3c0.5,0.7,0.8,1.4,1.1,2C38.8,124.8,38.9,124.9,39,124.9z M41.7,125.6c0.1-0.9,0-1.9-0.2-3
				c0.8-0.7,1.7-1.3,2.4-1.9c0.1-0.1,0.2-0.2,0.4-0.3l0,0.2c-0.2,2-0.6,4.8-1.4,6.3c-0.8,1.4-1.8,2-3.1,2.5
				C40.7,128.4,41.5,127.4,41.7,125.6z M39.2,123.9c-0.3-0.6-0.7-1.2-1.1-1.9c0.5-0.9,1-1.9,1.5-2.6l0.2-0.4c0,0.1,0.1,0.2,0.1,0.3
				l0,0.1c0.3,0.9,0.6,2,0.8,3C40.1,122.9,39.6,123.4,39.2,123.9z M36.2,125c-0.1,1.1,0,2,0.4,3c0.2,0.4,0.4,0.8,0.6,1.1
				c-1-0.8-1.8-1.6-2.3-3.1c-0.5-1.6-0.1-4.4,0.1-6.4l0-0.2c0.1,0.1,0.2,0.2,0.3,0.3l0,0c0.6,0.7,1.3,1.5,1.9,2.3
				C36.7,123.1,36.3,124.1,36.2,125z M39.6,149.5c0.1,0.1,0.2,0.2,0.3,0.2c0.1,0,0.3-0.1,0.3-0.2c0.2-0.6,0.6-1.3,1-1.9
				c0.4,0.8,0.6,1.6,0.7,2.2c0.2,1.9-0.4,3-1.2,4.5c-0.1,0.1-0.1,0.2-0.2,0.3c-0.1-0.1-0.2-0.2-0.2-0.2l0,0c-1.2-1.2-2.1-2.1-2.3-4
				c-0.1-0.7,0-1.5,0.1-2.4C38.7,148.4,39.3,149,39.6,149.5z M42.7,149.6c-0.1-0.9-0.5-1.8-1-2.8c0.6-0.9,1.3-1.7,1.9-2.5
				c0.1-0.1,0.2-0.2,0.3-0.4l0,0.2c0.3,2,0.6,4.8,0.2,6.4c-0.4,1.6-1.3,2.4-2.3,3.2C42.4,152.6,42.9,151.4,42.7,149.6z M39.8,148.6
				c-0.4-0.5-1-1-1.6-1.5c0.2-1,0.5-2,0.8-2.9l0-0.1c0-0.1,0.1-0.2,0.1-0.3l0.2,0.3c0.5,0.8,1.1,1.8,1.6,2.7
				C40.5,147.4,40.1,148,39.8,148.6z M37.3,150.4c0.1,1.1,0.5,2,1.1,2.8c0.3,0.3,0.5,0.7,0.8,1c-1.2-0.5-2.2-1.1-3-2.4
				c-0.9-1.4-1.2-4.2-1.5-6.2l0-0.2c0.1,0.1,0.2,0.2,0.4,0.3l0,0c0.8,0.5,1.6,1.2,2.4,1.8C37.3,148.4,37.1,149.5,37.3,150.4z
				 M40.9,155.8c0.1,0.1,0.1,0.1,0.2,0.2l0,0.1c0.6,0.7,1.4,1.6,2,2.4c-0.3,0.7-0.6,1.4-0.7,2c-0.5-0.4-1.1-0.9-1.8-1.2
				c0-1,0.2-2.1,0.3-3L40.9,155.8z M40.6,160.1c0.7,0.4,1.3,0.9,1.8,1.4c0.1,0.1,0.2,0.1,0.4,0.1c0.1,0,0.2-0.2,0.3-0.3
				c0.1-0.6,0.3-1.3,0.7-2.1c0.5,0.7,0.9,1.4,1.1,2.1c0.6,1.8,0.1,3-0.5,4.6l0,0.1c0,0.1-0.1,0.2-0.1,0.3c-0.1-0.1-0.2-0.1-0.2-0.2
				l-0.1-0.1c-1.3-1-2.4-1.7-2.9-3.5C40.6,161.9,40.6,161,40.6,160.1z M45.4,161.1c-0.3-0.8-0.8-1.7-1.4-2.6c0.4-0.9,1-1.9,1.5-2.7
				c0.1-0.1,0.1-0.3,0.2-0.4l0.1,0.2c0.6,2,1.4,4.6,1.3,6.3c-0.2,1.6-0.9,2.5-1.8,3.6C45.6,164.1,45.9,162.8,45.4,161.1z
				 M40.1,162.7c0.3,1,0.8,1.8,1.6,2.6c0.3,0.3,0.6,0.6,1,0.8c-1.3-0.3-2.3-0.7-3.3-1.9c-1.1-1.3-1.9-4-2.5-5.9l-0.1-0.2
				c0.1,0.1,0.3,0.1,0.4,0.2l0,0c0.8,0.4,1.8,0.9,2.6,1.4C39.8,160.8,39.9,161.9,40.1,162.7z M47.3,173c0.1-0.1,0.2-0.2,0.2-0.3
				c0-0.6,0.1-1.4,0.3-2.1c0.6,0.6,1.1,1.3,1.4,1.9c0.8,1.7,0.6,3,0.2,4.6l0,0.1c0,0.1,0,0.2-0.1,0.3c-0.1-0.1-0.2-0.1-0.4-0.2
				c-1.5-0.8-2.6-1.4-3.4-3c-0.3-0.6-0.5-1.4-0.6-2.3c0.8,0.3,1.4,0.7,1.9,1.1C47,173,47.2,173,47.3,173z M49.9,172.1
				c-0.4-0.8-1-1.6-1.8-2.4c0.3-1,0.7-2,1-2.9c0.1-0.1,0.1-0.3,0.2-0.4l0.1,0.2c0.9,1.8,2.1,4.4,2.2,6c0.1,1.6-0.5,2.6-1.2,3.8
				C50.6,175,50.7,173.7,49.9,172.1z M46.8,172c-0.6-0.4-1.2-0.7-2-1c-0.1-1-0.2-2.1-0.2-3l0-0.1c0-0.1,0-0.2,0-0.3
				c0.1,0.1,0.2,0.2,0.3,0.2c0.7,0.6,1.6,1.4,2.3,2.1C47.1,170.6,46.9,171.3,46.8,172z M44.9,174.5c0.5,1,1.1,1.7,1.9,2.3
				c0.3,0.2,0.7,0.5,1.1,0.7c-1.3-0.1-2.4-0.4-3.6-1.4c-1.3-1.1-2.5-3.6-3.4-5.5l-0.1-0.2c0.1,0,0.3,0.1,0.4,0.1l0,0
				c0.9,0.3,1.9,0.6,2.8,1C44.3,172.6,44.6,173.7,44.9,174.5z M45.4,167.3C45.4,167.3,45.4,167.3,45.4,167.3L45.4,167.3L45.4,167.3z
				"/>
			<path class="st0" d="M54.4,87.4C54.4,87.4,54.4,87.4,54.4,87.4C54.4,87.4,54.4,87.4,54.4,87.4c0.4,0,0.6,0,0.9,0
				c1.6-0.1,3-0.1,4.6-1.4c1.3-1.1,2.5-3.4,3.4-5.2l0,0c0.2-0.3,0.3-0.7,0.5-1c0.1-0.1,0.1-0.3,0-0.4c-0.1-0.1-0.2-0.1-0.4-0.1
				c-0.3,0.1-0.7,0.2-1.2,0.4c-1.9,0.6-4.4,1.3-5.7,2.4c-1.5,1.3-1.9,2.6-2.2,4.2l0,0c-0.1,0.3-0.1,0.5-0.2,0.8c0,0.1,0,0.2,0.1,0.3
				C54.2,87.4,54.3,87.4,54.4,87.4z M54.9,86.7c0-0.1,0.1-0.2,0.1-0.4c0.4-1.5,0.7-2.7,2-3.8c1.2-1,3.6-1.7,5.4-2.2l0.4-0.1
				l-0.1,0.3c-0.9,1.7-2.1,4-3.3,5c-1.4,1.1-2.6,1.2-4.2,1.3l0,0C55.1,86.7,55,86.7,54.9,86.7z"/>
		</g>
		<path class="st0" d="M106.4,154.5l-0.6,0.5c0.6,0.6,0.5,1.2,0.1,1.6c-0.5,0.5-1.5,0.6-2.5-0.2c-0.1-0.1-0.6-0.6-1.2-1.1
			c-1.9-1.7-2.8-2.5-3.2-2.9c-0.1-0.1-0.1-0.1-0.1-0.1l0,0c-0.3-0.2-0.4-0.2-0.6,0l-0.3,0.3l0.3,0.3c0.1,0.1,1,0.9,2.3,2.2
			c0.7,0.6,1.4,1.3,1.5,1.4c0.7,0.8,0.7,1.5,0.4,1.9c-0.4,0.4-1.2,0.7-2.4-0.1c-0.4-0.2-0.7-0.5-1.1-0.7l-0.2-0.2l0,0
			c-0.4-0.3-1.2-1.1-1.9-1.7c-1.2-1.1-1.8-1.6-2.1-1.8c0,0,0,0,0,0l0,0c-0.3-0.2-0.3-0.1-0.5-0.1c-0.2,0.1-0.3,0.4-0.1,0.6h0
			c0,0,0,0,2.7,2.5l1.4,1.4c0.7,0.8,0.7,1.5,0.4,1.9c-0.4,0.4-1.2,0.7-2.4-0.1c-0.3-0.2-0.5-0.2-1.9-1.3c-2.1-1.7-2.1-1.7-2.2-1.7h0
			c-0.4,0-0.6,0.4-0.3,0.7c0.1,0.1-0.9-0.8,1.1,1.1c0.8,0.7,0.9,0.9,1,1c0.7,0.7,0.5,1.4,0.2,1.7c-0.3,0.4-1.1,0.6-2.2-0.1
			c-0.2-0.1-0.6-0.4-1-0.7c0,0-0.1-0.1-0.1-0.1c0,0,0,0,0,0.1c0.4-0.5,0.6-1,0.6-1.5c0-0.4-0.2-0.9-1-1.3c-0.7-0.3-1.3-0.3-1.9,0
			c0-0.1,0-0.2,0-0.3c-0.1-0.4-0.3-1-1.3-1.4c-0.5-0.2-1.1-0.2-1.5-0.1c0,0,0,0,0,0c0-0.1,0-0.2,0-0.3c-0.1-0.5-0.4-1.2-1.4-1.6
			c-1-0.4-1.8-0.2-2.5,0.3c0-0.4-0.1-0.8-0.4-1.2c-0.5-0.8-1.2-1-1.6-1c-1.1,0.1-2.3,1.2-3.3,3.3c-0.3,0.7-0.4,1.3-0.4,1.8
			c0.1,0.7,0.4,1.1,0.8,1.4c0.4,0.3,1.1,0.4,1.7,0.1c0,0.6,0.2,1.1,0.6,1.4c0.4,0.4,1,0.6,1.7,0.6c0.4,0,0.8-0.2,1.3-0.4v0
			c0,0.5,0.2,0.9,0.5,1.1c0.3,0.3,0.9,0.6,1.5,0.5c0.4,0,0.9-0.2,1.5-0.6c0,0,0,0,0,0c0,0.3,0.2,0.5,0.3,0.7
			c0.3,0.3,0.7,0.6,1.3,0.6c0.4,0,0.9-0.1,1.5-0.5c0.1-0.1,0.2-0.1,0.3-0.2v18.9c0,0,0,0,0,0c0,0.7,0.6,1.3,1.3,1.3
			c0.7,0,1.3-0.6,1.3-1.3v-18.8c0.6,0.3,1.1,0.5,1.6,0.5c0.7,0,1.2-0.3,1.5-0.7c0.4-0.4,0.7-1.1,0.4-1.8c0,0,0.7,0.5,0.7,0.5
			c1.7,1,2.9,0.6,3.5-0.1c0.4-0.4,0.5-1.1,0.3-1.8c0,0,0,0,0,0c1.7,1.1,3,0.7,3.6,0c0.3-0.4,0.5-0.9,0.4-1.5c1.2,0.7,2.4,0.5,3-0.2
			C107.1,156.6,107.3,155.5,106.4,154.5z M90.4,161.1C90.4,161.1,90.4,161.1,90.4,161.1C90.4,161.1,90.4,161.1,90.4,161.1z
			 M78.7,157.9c-0.6,0.6-1.2,0.6-1.6,0.4c-0.4-0.3-0.7-1-0.1-2.2c1-2.1,2-2.8,2.6-2.9c0.3,0,0.6,0.2,0.9,0.6
			c0.1,0.2,0.2,0.5,0.2,0.7c0,0.3,0,0.6-0.1,0.9c-0.5,0.5-1,1.1-1.3,1.6c-0.1,0.1-0.2,0.3-0.3,0.4C79,157.6,78.8,157.7,78.7,157.9z
			 M82.3,159.3c-0.1,0.1-0.2,0.2-0.3,0.2c-1.2,0.9-2,0.7-2.4,0.3c-0.4-0.4-0.5-1.1,0.2-2c0.1-0.1,0.2-0.2,0.3-0.4
			c0.8-1.1,1.7-2.3,2.9-2.4c0.3,0,0.6,0,0.8,0.1c0.5,0.2,0.8,0.5,0.9,0.9c0,0.2,0,0.4-0.1,0.7c-0.8,0.6-1.4,1.4-1.7,1.9
			c-0.1,0.1-0.2,0.2-0.2,0.3C82.5,159.1,82.4,159.2,82.3,159.3z M85.7,160.6c-0.2,0.1-0.3,0.3-0.5,0.4c-1,0.8-1.8,0.6-2.2,0.3
			c-0.3-0.3-0.4-1,0.2-1.8c0.1-0.1,0.2-0.2,0.3-0.4c0.7-1,1.6-2.1,2.6-2.2c0.2,0,0.5,0,0.8,0.1c0.5,0.2,0.7,0.4,0.8,0.8
			c0,0.2,0,0.5-0.2,0.9c-0.4,0.3-0.7,0.7-1,1c-0.1,0.1-0.2,0.2-0.2,0.3C85.9,160.2,85.8,160.4,85.7,160.6z M88.2,161.9
			c-1,0.6-1.6,0.4-1.9,0.1c-0.3-0.3-0.3-0.9,0.3-1.5c0.1-0.1,0.2-0.2,0.3-0.3c0.7-0.8,1.5-1.7,2.4-1.7c0.2,0,0.4,0,0.6,0.2
			c0.4,0.2,0.6,0.4,0.6,0.7C90.5,159.9,90,160.9,88.2,161.9z"/>
		<path class="st0" d="M105.1,111.7c-0.2-1.6-0.6-3.1-1.3-4.4c-0.4-0.7-5-9.9-7.1-12.4c-0.8-1-4.5-4.7-8.3-4
			c-1.3,0.1-2.6,0.5-3.9,1.1c-2.7,1.2-5.2,2.9-7.6,4.8c-1.4,1.1-2,3.3-1.4,5.1c0.3,0.8,0.8,1.5,1.6,1.7c0.7,0.2,1.3,0,1.9-0.4
			c0.2-0.1,0.4-0.3,0.7-0.2c0,0.1-0.1,0.3-0.1,0.4c0,0.1-0.1,0.2-0.2,0.3c-0.8,1.4-1.6,2.7-2.3,4.1c-0.2,0.4-0.4,0.9-0.5,1.3
			c-0.3,1-0.3,2.1-0.2,3.2c0.1,0.8,0.2,1.6,0.4,2.4c0.3,0.8,0.7,1.3,1.4,1.5c0.1,0,0.3,0.1,0.4,0.1c2.7,1,5.5,1.6,8.4,1.9
			c0.6,0.1,1.2,0.1,1.9,0.1v25.1c0.9,0.2,1.8-0.5,2.7-0.1v-25c0.1,0,0.3,0,0.4,0c1.5-0.1,3-0.3,4.4-0.6c2.5-0.5,5-1.3,7.4-2.2
			c0.6-0.2,1-0.7,1.2-1.4C105.2,113.2,105.2,112.4,105.1,111.7z M80.6,115.6c2.8-1.2,5.6-1.9,8.4-2.2v3.4v0.3
			C86.2,117.1,83.5,116.6,80.6,115.6z M91.6,117.2v-3.9c3.5,0,7,0.5,10.4,1.6C98,116.3,94.7,117,91.6,117.2z M104.1,113.7
			c-0.2,0.6-0.6,0.7-1,0.5c-0.9-0.4-1.9-0.7-2.9-0.9c-1.3-0.3-3.1-0.7-4.4-0.9c-1.7-0.2-3.9-0.3-5.6-0.2c-2.8,0.1-4.2,0.4-6.9,1.3
			c-1.1,0.4-2.5,0.9-3.6,1.3c-0.3,0.1-0.6,0.2-1,0.2c-0.5-0.1-0.8-0.3-1-0.8c-0.2-0.5-0.3-1.1-0.4-1.7c-0.1-1-0.2-1.9,0-2.9
			c0.1-0.6,0.3-1.2,0.6-1.7c0.7-1.3,1.5-2.6,2.2-3.8c0.1-0.2,0.2-0.3,0.3-0.5c0.2-0.4,0.5-1.4,0.7-1.9c0.7-2.2,5.2-2.9,6.9-3.6
			c-0.2-0.2-6.4,0.9-7.8,2.6c-0.8,1-2.5,2.6-3.8,0.7c-0.4-1-0.3-2,0.1-2.9c0.2-0.5,0.5-0.9,1-1.3c1.9-1.5,3.9-2.9,6.1-4
			c1.3-0.7,2.7-1.2,4.1-1.5c3-0.6,6.5,0.6,10.9,8.1c0.9,1.6,1.7,3.7,2.3,4.6c0,0,0,0,0,0.1c-1.4-0.6-4.8-0.8-6.6-0.6
			c-2.8,0.3-5.4,1.7-8.3,2.7c-2,0.7-4.2,0.7-4,2.5c0.9-0.9,2.8-1.4,4-1.8c2.4-0.8,3.1-1.2,5.6-1.8c1.5-0.4,6.9-1.7,10.2,0.4
			c0.1,0,0.3,0.2,0.4,0.3c1.1,1.6,1.7,3.3,2,5.3C104.3,112.3,104.3,113,104.1,113.7z"/>
		<path class="st0" d="M108.2,216.6c-2.5-4.2-9.7-7.5-13-8.5c1.9-1.8,3.6-4.2,3.7-6.1c0,0,0,0,0-0.1c0,0,0,0,0,0
			c0-1.2-0.1-2.7-1-3.8c-0.3-0.3-1-0.5-1.4-0.4c-0.3,0.1-3.5,0.6-6.7,0.5c-3.6-0.1-5.9-0.5-6.2-0.5c-0.4-0.1-1.1,0-1.4,0.4
			c-0.8,1.1-1,2.6-1,3.8c0,0,0,0,0,0c0,0,0,0,0,0.1c0.2,1.9,1.8,4.2,3.7,6.1c-3.3,1-10.5,4.3-13,8.5c-0.1,0.1-0.1,0.3,0,0.4
			c0.1,0.1,0.3,0.1,0.4,0.1c1.3-0.6,2.5-0.7,3.5-0.3c1.1,0.4,2,1.4,2.5,2.8c0.1,0.1,0.2,0.2,0.3,0.2c0,0,0,0,0,0
			c0.1,0,0.3-0.1,0.3-0.2c1.4-3.9,6-8.4,8.1-9.8c0.1,0.5,0.6,0.8,1.1,0.9c0.5,0.1,1,0.1,1.6,0.1v0c0,0,0,0,0,0c0,0,0.1,0,0.1,0
			c0,0,0.1,0,0.1,0c0,0,0,0,0,0v0c0.5,0,1,0,1.6-0.1c0.6-0.1,1-0.4,1.1-0.9c2.1,1.4,6.6,5.8,8.1,9.8c0,0.1,0.2,0.2,0.3,0.2
			c0,0,0,0,0,0c0.1,0,0.3-0.1,0.3-0.2c0.6-1.4,1.4-2.4,2.5-2.8c1-0.4,2.3-0.3,3.5,0.3c0.1,0.1,0.3,0,0.4-0.1
			C108.3,216.9,108.3,216.7,108.2,216.6z M82.9,198.5c0.1-0.1,0.4-0.2,0.7-0.1c0.3,0.1,2.4,0.4,6.4,0.6c3.8,0.1,6.5-0.5,6.9-0.6
			c0.2-0.1,0.6,0.1,0.7,0.1c0.2,0.3,0.4,0.6,0.5,1c-5.3,1.2-10.2,1.3-15.6,0C82.5,199.1,82.7,198.8,82.9,198.5z M82.1,201.9
			c0-0.4,0-0.8,0.1-1.1c5.5,1.3,10.5,1.4,16.1,0c0,0.4,0.1,0.8,0.1,1.2c0,0,0,0,0,0.1C93.8,203.5,86.6,203.4,82.1,201.9
			C82.1,201.9,82.1,201.9,82.1,201.9z M93.2,207.1c0-0.1,0-0.2,0-0.4c0,0,0,0,0,0c0.5-0.9,0.8-2,0.8-2.9c0.1,0,0.1,0,0.2,0
			c0,0,0,0,0,0c0.4-0.1,0.7-0.1,1-0.2c0,0,0,0,0,0c0.1,0,0.2,0,0.3-0.1C95,204.8,94.2,206,93.2,207.1z M87.3,206.7
			c0,0.1,0,0.2,0,0.4c-1-1.1-1.8-2.3-2.3-3.6c0.1,0,0.2,0,0.3,0.1c0,0,0,0,0,0c0.3,0.1,0.7,0.1,1,0.2c0,0,0,0,0,0c0.1,0,0.1,0,0.2,0
			C86.5,204.6,86.8,205.7,87.3,206.7C87.3,206.7,87.3,206.7,87.3,206.7z M73.3,216c2.9-3.8,9.6-6.7,12.4-7.5
			c0.1,0.1,0.1,0.1,0.2,0.2c-3.5,1.9-7.5,4.3-10.5,7.2C74.7,215.8,74.1,215.8,73.3,216z M78.9,218.6c-0.4-0.9-1-1.5-1.7-2
			c1.8-2.6,6.5-5.9,9.1-7.5c0.1,0.1,0.2,0.2,0.4,0.3C84.7,210.9,80.6,214.9,78.9,218.6z M86.1,207.9C86,207.9,86,207.9,86.1,207.9
			c-1.8-1.6-3.3-3.5-3.8-5.2c0.1,0,0.3,0.1,0.4,0.1l0.1,0c0.2,0.1,0.4,0.1,0.6,0.2c1,1.9,2.2,3.6,3.8,5c0,0.2,0,0.4,0,0.6
			C86.7,208.4,86.4,208.2,86.1,207.9z M88,209.6c0-0.1,0-0.2,0-0.3c0,0,0,0,0,0c0,0,0-0.1,0-0.1c0-0.4-0.1-0.7-0.1-1.1c0,0,0,0,0,0
			c0-0.1,0-0.1,0-0.2c0-0.3,0-0.6,0.1-1.1c0,0,0-0.1,0-0.1c0.1-0.4,0.4-0.5,0.6-0.5c0.3,0,0.5-0.1,0.8-0.1v4.1c-0.3,0-0.5,0-0.8-0.1
			C88.2,210.1,88,209.9,88,209.6z M92.5,209.2c0,0,0,0.1,0,0.1c0,0,0,0,0,0c0,0.1,0,0.2,0,0.3c0,0.3-0.3,0.5-0.6,0.5
			c-0.3,0-0.5,0.1-0.8,0.1v-4.1c0.3,0,0.5,0.1,0.8,0.1c0.2,0,0.5,0.1,0.6,0.5c0,0,0,0.1,0,0.1c0.1,0.4,0.1,0.8,0.1,1.1
			c0,0.1,0,0.1,0,0.2c0,0,0,0,0,0C92.6,208.5,92.5,208.8,92.5,209.2z M92.7,205.9c-0.2-0.2-0.5-0.3-0.8-0.4c-0.5-0.1-2.9-0.1-3.5,0
			c-0.3,0.1-0.6,0.2-0.8,0.4c-0.3-0.7-0.5-1.4-0.5-2c1,0.1,5.1,0.1,6.1,0C93.2,204.5,93,205.2,92.7,205.9z M93.2,208.1
			c1.6-1.4,2.8-3.1,3.8-5c0.2-0.1,0.4-0.1,0.6-0.2l0.1,0c0.1,0,0.3-0.1,0.4-0.1c-0.5,1.6-2,3.6-3.7,5.1c0,0-0.1,0-0.1,0.1
			c-0.4,0.3-0.7,0.5-1.1,0.8C93.2,208.5,93.2,208.3,93.2,208.1z M101.4,218.6c-1.7-3.7-5.8-7.8-7.8-9.2c0.1-0.1,0.3-0.2,0.4-0.3
			c2.7,1.6,7.3,4.9,9.2,7.5C102.5,217.1,101.9,217.8,101.4,218.6z M105,215.9c-3-2.8-7-5.3-10.5-7.2c0.1,0,0.1-0.1,0.2-0.1
			c2.8,0.7,9.4,3.7,12.4,7.5C106.3,215.8,105.7,215.8,105,215.9z"/>
	</g>
</g>
</svg>
