<?xml version="1.0" encoding="utf-8"?>
<!-- Generator: Adobe Illustrator 25.2.0, SVG Export Plug-In . SVG Version: 6.00 Build 0)  -->
<svg version="1.1" id="Capa_3" xmlns="http://www.w3.org/2000/svg" xmlns:xlink="http://www.w3.org/1999/xlink" x="0px" y="0px"
	 viewBox="0 0 642.1 291" style="enable-background:new 0 0 642.1 291;" xml:space="preserve">
<style type="text/css">
	.st0{fill:#FFFFFF;}
	.st1{fill-rule:evenodd;clip-rule:evenodd;fill:#FFFFFF;}
</style>
<g>
	<g>
		<g>
			<g>
				<path class="st0" d="M184.9,131c-0.8-1.9-1.6-3.8-2.3-5.7c-0.8-1.9-1.6-3.8-2.3-5.7c-0.2-0.4-0.4-1.1-0.7-1.9s-0.6-1.7-0.9-2.8
					c-0.3-1-0.6-2.1-0.9-3.2c0,1.3,0.1,2.5,0.1,3.7c0,1.1,0,2.2,0,3.3c0,0.5,0,1,0,1.6c0,0.5,0,1.1,0,1.6s0,1,0,1.6c0,0.5,0,1,0,1.6
					s0,1.2-0.1,1.8c0,0.6-0.1,1-0.1,1.3c0.4,0,0.9-0.1,1.4-0.1c0.6,0,1,0,1.2,0v2.7h-7.9v-2.3c0.5,0,1-0.1,1.3-0.2
					c0.4-0.1,0.6-0.4,0.8-0.8s0.3-1.1,0.3-2l0.2-13.3c0-0.6,0-1.2,0.1-1.8c0-0.6,0-1,0.1-1.3c-0.4,0-0.8,0-1.4,0.1
					c-0.6,0-1,0-1.2,0.1v-2.7h7.7l5.2,13.4c0.2,0.5,0.4,1.2,0.7,1.9c0.3,0.7,0.5,1.4,0.7,2c0.2,0.7,0.4,1.2,0.5,1.6l0,0
					c0.3-0.8,0.6-1.6,0.8-2.4c0.3-0.8,0.5-1.5,0.8-2.2c0.9-2.4,1.8-4.8,2.7-7.2c0.9-2.4,1.8-4.8,2.7-7.2h8v2.3c-0.5,0-1,0.1-1.4,0.2
					s-0.7,0.4-0.9,0.8s-0.3,1.1-0.3,2l0.5,13.3c0,0.6,0,1.2,0,1.8c0,0.6-0.1,1-0.1,1.3c0.4,0,0.9-0.1,1.4-0.1c0.6,0,1,0,1.2,0v2.7
					h-9.7v-2.3c0.5,0,1-0.1,1.4-0.2c0.4-0.1,0.7-0.4,0.9-0.8s0.3-1.1,0.2-2l-0.3-7.4c0-0.3,0-0.8-0.1-1.4c0-0.7-0.1-1.4-0.1-2.3
					c0-0.8-0.1-1.6-0.1-2.3c-0.1,0.2-0.1,0.3-0.2,0.5c-0.1,0.2-0.1,0.3-0.2,0.5l-6.8,18.1h-2.9V131z"/>
				<path class="st0" d="M205.5,128.4c0.6,0,1.1-0.1,1.4-0.4c0.3-0.3,0.5-0.6,0.5-1.1c0.1-0.5,0.1-1,0.1-1.6v-5.8c0-0.4,0-0.9,0-1.4
					s0.1-1.1,0.1-1.6c-0.4,0-0.8,0-1.3,0.1c-0.5,0-0.9,0-1.1,0.1V114c1.1,0,2-0.1,2.7-0.2s1.3-0.3,1.8-0.4c0.4-0.2,0.7-0.3,0.9-0.5
					h1.9V125c0,0.3,0,0.8,0,1.4s-0.1,1.2-0.1,1.7c0.4,0,0.8-0.1,1.2-0.1c0.5,0,0.8,0,1,0v2.6h-9.1L205.5,128.4L205.5,128.4z
					 M209.8,110.2c-0.8,0-1.4-0.3-1.9-0.8c-0.5-0.6-0.8-1.2-0.8-2s0.3-1.5,0.8-2c0.5-0.6,1.2-0.8,1.9-0.8s1.4,0.3,1.9,0.8
					c0.5,0.6,0.7,1.2,0.7,2s-0.2,1.5-0.7,2C211.3,109.9,210.6,110.2,209.8,110.2z"/>
				<path class="st0" d="M216.6,130.7v-2.3c0.6,0,1.1-0.1,1.4-0.4c0.3-0.3,0.5-0.6,0.5-1.1c0.1-0.5,0.1-1,0.1-1.6v-5.8
					c0-0.4,0-0.9,0-1.4s0.1-1,0.1-1.5c-0.4,0-0.8,0-1.3,0.1c-0.5,0-0.9,0-1.1,0.1V114c1.1,0,2-0.1,2.7-0.2s1.3-0.3,1.8-0.4
					c0.4-0.2,0.7-0.3,0.9-0.5h1.7c0,0.3,0.1,0.5,0.1,0.7c0,0.1,0,0.3,0,0.4s0.1,0.4,0.1,0.7c0.5-0.4,1-0.7,1.6-1s1.2-0.5,1.8-0.7
					s1.1-0.3,1.6-0.3c2.1,0,3.6,0.6,4.5,1.8s1.3,3.2,1.3,5.9v4.7c0,0.3,0,0.8,0,1.4s-0.1,1.2-0.1,1.7c0.4,0,0.8-0.1,1.2-0.1
					s0.8,0,1,0v2.6h-9.1v-2.3c0.6,0,1.1-0.1,1.4-0.4c0.3-0.3,0.5-0.6,0.6-1.1s0.1-1,0.1-1.6v-4.9c0-1.5-0.2-2.6-0.6-3.4
					c-0.4-0.7-1.2-1.1-2.2-1.1c-0.6,0-1.2,0.1-1.7,0.4c-0.6,0.3-1,0.6-1.4,0.9c0,0.3,0,0.7,0,1s0,0.7,0,1v5.9c0,0.3,0,0.8,0,1.4
					s-0.1,1.2-0.1,1.7c0.4,0,0.8-0.1,1.2-0.1c0.5,0,0.8,0,1,0v2.6H216.6z"/>
				<path class="st0" d="M238.6,128.4c0.6,0,1.1-0.1,1.4-0.4c0.3-0.3,0.5-0.6,0.5-1.1c0.1-0.5,0.1-1,0.1-1.6v-5.8c0-0.4,0-0.9,0-1.4
					s0.1-1.1,0.1-1.6c-0.4,0-0.8,0-1.3,0.1c-0.5,0-0.9,0-1.1,0.1V114c1.1,0,2-0.1,2.7-0.2s1.3-0.3,1.8-0.4c0.4-0.2,0.7-0.3,0.9-0.5
					h1.9V125c0,0.3,0,0.8,0,1.4s-0.1,1.2-0.1,1.7c0.4,0,0.8-0.1,1.2-0.1c0.5,0,0.8,0,1,0v2.6h-9.1L238.6,128.4L238.6,128.4z
					 M243,110.2c-0.8,0-1.4-0.3-1.9-0.8c-0.5-0.6-0.8-1.2-0.8-2s0.3-1.5,0.8-2c0.5-0.6,1.2-0.8,1.9-0.8s1.4,0.3,1.9,0.8
					c0.5,0.6,0.7,1.2,0.7,2s-0.2,1.5-0.7,2C244.4,109.9,243.8,110.2,243,110.2z"/>
				<path class="st0" d="M257.7,131.2c-1,0-2-0.1-2.9-0.4c-1-0.3-1.7-0.6-2.2-1l0.1,1H250l-0.1-6h2.3c0.1,0.7,0.3,1.3,0.8,1.9
					s1.1,1,1.9,1.4c0.8,0.3,1.7,0.5,2.6,0.5c0.4,0,0.8-0.1,1.1-0.2c0.4-0.1,0.7-0.3,0.9-0.6c0.2-0.3,0.4-0.6,0.4-1s-0.2-0.8-0.5-1.1
					c-0.3-0.3-0.8-0.5-1.4-0.8s-1.3-0.5-2.2-0.9c-0.7-0.3-1.4-0.6-2.2-0.9c-0.7-0.3-1.4-0.7-2-1.1s-1.1-1-1.5-1.6s-0.6-1.4-0.6-2.3
					c0-0.7,0.1-1.3,0.4-2c0.3-0.7,0.6-1.3,1.2-1.8c0.5-0.5,1.2-1,2-1.3s1.8-0.5,2.9-0.5c0.6,0,1.3,0.1,2.1,0.3
					c0.8,0.2,1.5,0.5,2,0.9v-1h2.6v6.1h-2.3c-0.1-0.8-0.4-1.5-0.9-2.1c-0.4-0.6-1-1-1.6-1.3c-0.7-0.3-1.4-0.5-2.3-0.5
					c-0.6,0-1.1,0.1-1.6,0.4s-0.7,0.8-0.7,1.4c0,0.5,0.2,1,0.6,1.3c0.4,0.3,0.9,0.6,1.5,0.8c0.6,0.2,1.4,0.5,2.2,0.7
					c1.2,0.4,2.2,0.9,3.1,1.4s1.6,1.2,2.2,1.9c0.5,0.8,0.8,1.7,0.8,2.8c0,1.2-0.3,2.2-0.9,3c-0.6,0.8-1.4,1.4-2.3,1.8
					C259.8,131,258.8,131.2,257.7,131.2z"/>
				<path class="st0" d="M273,131.2c-0.7,0-1.4-0.1-2-0.2c-0.6-0.2-1.2-0.5-1.7-0.9c-0.5-0.5-0.9-1.1-1.2-2c-0.3-0.9-0.5-2-0.5-3.5
					l0.1-8.4h-2.4v-2.9c0.7,0,1.4-0.3,2.1-0.7c0.7-0.5,1.2-1.1,1.7-1.8c0.5-0.7,0.8-1.5,1-2.3h2.6v4.9h4.4v2.7l-4.4,0.1v8.5
					c0,0.5,0.1,1.1,0.2,1.6s0.3,0.9,0.6,1.3c0.3,0.3,0.7,0.5,1.3,0.5c0.3,0,0.8-0.1,1.3-0.3c0.6-0.2,1.2-0.8,1.8-1.7l1.7,1.6
					c-0.6,0.9-1.3,1.6-1.9,2.2c-0.7,0.5-1.3,0.9-1.9,1.1c-0.6,0.2-1.2,0.4-1.6,0.4C273.5,131.2,273.1,131.2,273,131.2z"/>
				<path class="st0" d="M288.7,131.2c-1.7,0-3.2-0.4-4.5-1.1c-1.3-0.8-2.3-1.8-3-3.2c-0.7-1.4-1.1-3-1.1-4.9c0-1.6,0.4-3.1,1.1-4.6
					c0.7-1.4,1.7-2.6,3-3.4c1.3-0.9,2.8-1.3,4.6-1.3c1,0,1.9,0.1,2.8,0.4s1.8,0.7,2.5,1.4c0.8,0.6,1.4,1.5,1.8,2.6
					c0.5,1.1,0.7,2.5,0.6,4.2l-11.4,0.2c0,1.3,0.2,2.4,0.5,3.4s0.8,1.8,1.5,2.4s1.7,0.9,2.9,0.9c0.5,0,1-0.1,1.6-0.2
					c0.6-0.2,1.2-0.4,1.8-0.8c0.6-0.4,1.2-0.9,1.7-1.5l1.6,1.5c-0.8,1.2-1.7,2.1-2.7,2.7c-1,0.6-1.9,1-2.8,1.2
					C290.4,131.1,289.5,131.2,288.7,131.2z M285.5,119.1h6.4c0-1-0.2-1.7-0.4-2.3c-0.2-0.6-0.6-1-1-1.2c-0.4-0.3-0.9-0.4-1.5-0.4
					c-1,0-1.8,0.4-2.4,1.1C286,117,285.6,117.9,285.5,119.1z"/>
				<path class="st0" d="M298.6,128.4c0.6,0,1.1-0.1,1.4-0.4c0.3-0.3,0.5-0.6,0.5-1.1c0.1-0.5,0.1-1,0.1-1.6v-5.8c0-0.4,0-0.9,0-1.4
					s0.1-1,0.1-1.5c-0.4,0-0.8,0-1.3,0.1c-0.5,0-0.9,0-1.1,0.1V114h1.4c0.9,0,1.7-0.1,2.5-0.3c0.8-0.2,1.2-0.5,1.5-0.7h1.7
					c0,0.2,0.1,0.7,0.1,1.3c0,0.6,0,1.2,0,1.7c0.6-0.8,1.2-1.4,1.8-1.8c0.6-0.5,1.1-0.8,1.7-1c0.5-0.2,1.1-0.3,1.7-0.3
					c0.8,0,1.5,0.2,2.1,0.7s0.9,1.2,0.9,2.2c0,0.3-0.1,0.7-0.2,1.1s-0.4,0.7-0.8,1c-0.3,0.3-0.8,0.4-1.4,0.4c-0.5,0-0.9-0.1-1.4-0.4
					s-0.8-0.8-0.8-1.6c-0.5,0-0.9,0.2-1.4,0.6s-0.9,0.8-1.2,1.4c-0.4,0.5-0.6,1-0.7,1.4v5.7c0,0.3,0,0.8,0,1.4s-0.1,1.2-0.1,1.7
					c0.4,0,0.8-0.1,1.2-0.1c0.5,0,0.8,0,1,0v2.6h-9.1v-2.6H298.6z"/>
				<path class="st0" d="M315.5,128.4c0.6,0,1.1-0.1,1.4-0.4c0.3-0.3,0.5-0.6,0.5-1.1c0.1-0.5,0.1-1,0.1-1.6v-5.8c0-0.4,0-0.9,0-1.4
					s0.1-1.1,0.1-1.6c-0.4,0-0.8,0-1.3,0.1c-0.5,0-0.9,0-1.1,0.1V114c1.1,0,2-0.1,2.7-0.2s1.3-0.3,1.8-0.4c0.4-0.2,0.7-0.3,0.9-0.5
					h1.9V125c0,0.3,0,0.8,0,1.4s-0.1,1.2-0.1,1.7c0.4,0,0.8-0.1,1.2-0.1c0.5,0,0.8,0,1,0v2.6h-9.1V128.4z M319.9,110.2
					c-0.8,0-1.4-0.3-1.9-0.8c-0.5-0.6-0.8-1.2-0.8-2s0.3-1.5,0.8-2c0.5-0.6,1.2-0.8,1.9-0.8c0.7,0,1.4,0.3,1.9,0.8
					c0.5,0.6,0.7,1.2,0.7,2s-0.2,1.5-0.7,2C321.3,109.9,320.7,110.2,319.9,110.2z"/>
				<path class="st0" d="M334.7,131.2c-1.7,0-3.2-0.4-4.5-1.1s-2.4-1.7-3.2-3.1s-1.2-2.9-1.2-4.7c0-1.9,0.4-3.6,1.2-5.1
					c0.8-1.4,1.9-2.6,3.2-3.4c1.3-0.8,2.8-1.2,4.4-1.2c1.7,0,3.2,0.4,4.5,1.1s2.4,1.7,3.1,3.1s1.1,2.9,1.1,4.8s-0.4,3.6-1.1,5.1
					c-0.7,1.4-1.8,2.5-3.1,3.3C337.9,130.8,336.4,131.2,334.7,131.2z M334.9,128.8c0.9,0,1.6-0.3,2.1-1c0.5-0.6,0.8-1.4,1-2.4
					c0.2-0.9,0.3-1.9,0.3-2.9c0-0.9-0.1-1.7-0.2-2.6s-0.3-1.7-0.6-2.4c-0.3-0.7-0.7-1.3-1.1-1.7c-0.5-0.4-1.1-0.6-1.8-0.6
					c-0.9,0-1.6,0.3-2.1,1c-0.5,0.6-0.9,1.4-1.1,2.3s-0.3,1.9-0.3,2.9c0,1.2,0.1,2.3,0.4,3.5c0.3,1.1,0.7,2.1,1.2,2.8
					C333.2,128.4,333.9,128.8,334.9,128.8z"/>
				<path class="st0" d="M361.7,131.2c-1.4,0-2.6-0.4-3.7-1.1s-1.9-1.7-2.5-3.1c-0.6-1.3-0.9-2.9-0.9-4.7c0-1.9,0.4-3.5,1.1-5
					s1.7-2.6,3-3.4s2.8-1.3,4.5-1.3c0.6,0,1.2,0.1,1.7,0.2s1,0.3,1.4,0.4v-2.3c0-0.3,0-0.8,0-1.4s0.1-1.2,0.1-1.7
					c-0.4,0-0.8,0-1.3,0.1c-0.5,0-0.9,0-1.1,0v-2.6c1.1,0,2-0.1,2.7-0.2s1.3-0.3,1.7-0.4c0.4-0.2,0.7-0.3,0.9-0.5h1.9v20.6
					c0,0.3,0,0.8,0,1.4s-0.1,1.2-0.1,1.7c0.4,0,0.8-0.1,1.2-0.1c0.4,0,0.8,0,1,0v2.6h-6.6c0-0.3-0.1-0.5-0.1-0.8s-0.1-0.5-0.1-0.8
					c-0.8,0.8-1.6,1.3-2.4,1.7C363.4,131.1,362.6,131.2,361.7,131.2z M363.5,128.1c0.6,0,1.2-0.2,1.7-0.5s0.9-0.7,1.2-1.2
					c0-0.3,0-0.7,0-1s0-0.7,0-1V116c-0.2-0.2-0.6-0.3-1-0.5c-0.5-0.1-0.9-0.2-1.4-0.2c-1.1,0-1.9,0.4-2.5,1s-1,1.5-1.3,2.5
					c-0.2,1-0.4,2-0.4,3.1c0,1,0.1,1.9,0.4,2.9c0.2,0.9,0.6,1.7,1.2,2.3C361.9,127.8,362.6,128.1,363.5,128.1z"/>
				<path class="st0" d="M383.3,131.2c-1.7,0-3.2-0.4-4.5-1.1c-1.3-0.8-2.3-1.8-3-3.2c-0.7-1.4-1.1-3-1.1-4.9c0-1.6,0.4-3.1,1.1-4.6
					c0.7-1.4,1.7-2.6,3-3.4c1.3-0.9,2.8-1.3,4.6-1.3c1,0,1.9,0.1,2.8,0.4s1.8,0.7,2.5,1.4c0.8,0.6,1.4,1.5,1.8,2.6
					c0.5,1.1,0.7,2.5,0.6,4.2l-11.4,0.2c0,1.3,0.2,2.4,0.5,3.4s0.8,1.8,1.5,2.4s1.7,0.9,2.9,0.9c0.5,0,1-0.1,1.6-0.2
					c0.6-0.2,1.2-0.4,1.8-0.8c0.6-0.4,1.2-0.9,1.7-1.5l1.6,1.5c-0.8,1.2-1.7,2.1-2.7,2.7c-1,0.6-1.9,1-2.8,1.2
					C384.9,131.1,384.1,131.2,383.3,131.2z M380,119.1h6.4c0-1-0.2-1.7-0.4-2.3c-0.2-0.6-0.6-1-1-1.2c-0.4-0.3-0.9-0.4-1.5-0.4
					c-1,0-1.8,0.4-2.4,1.1C380.6,117,380.2,117.9,380,119.1z"/>
				<path class="st0" d="M403.2,128.4c0.5,0,1-0.1,1.3-0.2c0.4-0.1,0.6-0.4,0.8-0.8c0.2-0.4,0.3-1.1,0.3-2V112c0-0.6,0-1.2,0.1-1.8
					c0-0.6,0.1-1,0.1-1.3c-0.4,0-0.8,0-1.4,0.1c-0.6,0-1,0-1.2,0.1v-2.7h10.1c2.3,0,4.3,0.3,6,1s3.1,1.6,4.1,2.8
					c1.1,1.2,1.9,2.4,2.4,3.9c0.5,1.4,0.8,2.9,0.8,4.3s-0.2,2.8-0.7,4.3s-1.3,2.8-2.3,4c-1.1,1.2-2.5,2.2-4.2,3s-3.8,1.1-6.2,1.1
					h-9.9L403.2,128.4L403.2,128.4z M410.7,125c0,0.6,0,1.2,0,1.8c0,0.6-0.1,1-0.1,1.3c0.2,0,0.6,0,1,0s0.8,0,1.3,0
					c0.4,0,0.8,0,1.1,0c1.3,0,2.4-0.3,3.3-0.8s1.7-1.2,2.3-2.1c0.6-0.9,1-1.8,1.3-2.9s0.4-2.2,0.4-3.4c0-2.4-0.3-4.3-1-5.8
					c-0.6-1.5-1.6-2.6-2.7-3.4c-1.2-0.7-2.6-1.1-4.2-1.2c-0.6,0-1,0-1.4,0.2c-0.4,0.1-0.7,0.4-0.9,0.8c-0.2,0.4-0.3,1.1-0.3,2
					L410.7,125L410.7,125z"/>
				<path class="st0" d="M437.2,131.2c-1.7,0-3.2-0.4-4.5-1.1c-1.3-0.8-2.3-1.8-3-3.2c-0.7-1.4-1.1-3-1.1-4.9c0-1.6,0.4-3.1,1.1-4.6
					c0.7-1.4,1.7-2.6,3-3.4c1.3-0.9,2.8-1.3,4.6-1.3c1,0,1.9,0.1,2.8,0.4s1.8,0.7,2.5,1.4c0.8,0.6,1.4,1.5,1.8,2.6
					c0.5,1.1,0.7,2.5,0.6,4.2l-11.4,0.2c0,1.3,0.2,2.4,0.5,3.4s0.8,1.8,1.5,2.4s1.7,0.9,2.9,0.9c0.5,0,1-0.1,1.6-0.2
					c0.6-0.2,1.2-0.4,1.8-0.8c0.6-0.4,1.2-0.9,1.7-1.5l1.6,1.5c-0.8,1.2-1.7,2.1-2.7,2.7c-1,0.6-1.9,1-2.8,1.2
					C438.9,131.1,438,131.2,437.2,131.2z M434,119.1h6.4c0-1-0.2-1.7-0.4-2.3c-0.2-0.6-0.6-1-1-1.2c-0.4-0.3-0.9-0.4-1.5-0.4
					c-1,0-1.8,0.4-2.4,1.1C434.5,117,434.2,117.9,434,119.1z"/>
				<path class="st0" d="M449.3,112.3c0-2.8,0.6-4.8,1.8-6c1.2-1.2,2.9-1.8,5-1.8c1.1,0,2,0.2,2.6,0.5s1.1,0.7,1.4,1.2
					s0.4,0.9,0.4,1.4c0,0.6-0.2,1.1-0.6,1.6s-0.9,0.7-1.6,0.7s-1.2-0.2-1.6-0.5c-0.4-0.4-0.6-0.9-0.6-1.4c0-0.1,0-0.2,0-0.3
					c0-0.1,0-0.2,0.1-0.3c-0.1-0.1-0.3-0.2-0.4-0.2c-0.2,0-0.3-0.1-0.4-0.1c-0.4,0-0.7,0.1-0.9,0.3c-0.2,0.2-0.3,0.5-0.4,0.8
					s-0.1,0.7-0.1,1v4.3h3.9v2.7l-3.9,0.1v8.9c0,0.3,0,0.8,0,1.4s-0.1,1.2-0.1,1.7c0.4,0,0.8-0.1,1.3-0.1s0.9,0,1.1,0v2.6H447v-2.3
					c0.6,0,1.1-0.1,1.4-0.4c0.3-0.3,0.5-0.6,0.6-1.1s0.1-1,0.1-1.6v-9.2h-2.5v-2.9h2.5v-1H449.3z"/>
				<path class="st0" d="M467.4,131.2c-1.7,0-3.2-0.4-4.5-1.1c-1.3-0.8-2.3-1.8-3-3.2c-0.7-1.4-1.1-3-1.1-4.9c0-1.6,0.4-3.1,1.1-4.6
					c0.7-1.4,1.7-2.6,3-3.4c1.3-0.9,2.8-1.3,4.6-1.3c1,0,1.9,0.1,2.8,0.4s1.8,0.7,2.5,1.4c0.8,0.6,1.4,1.5,1.8,2.6
					c0.5,1.1,0.7,2.5,0.6,4.2l-11.4,0.2c0,1.3,0.2,2.4,0.5,3.4s0.8,1.8,1.5,2.4s1.7,0.9,2.9,0.9c0.5,0,1-0.1,1.6-0.2
					c0.6-0.2,1.2-0.4,1.8-0.8c0.6-0.4,1.2-0.9,1.7-1.5l1.6,1.5c-0.8,1.2-1.7,2.1-2.7,2.7c-1,0.6-1.9,1-2.8,1.2
					C469.1,131.1,468.2,131.2,467.4,131.2z M464.2,119.1h6.4c0-1-0.2-1.7-0.4-2.3c-0.2-0.6-0.6-1-1-1.2c-0.4-0.3-0.9-0.4-1.5-0.4
					c-1,0-1.8,0.4-2.4,1.1C464.7,117,464.4,117.9,464.2,119.1z"/>
				<path class="st0" d="M477.3,130.7v-2.3c0.6,0,1.1-0.1,1.4-0.4c0.3-0.3,0.5-0.6,0.5-1.1c0.1-0.5,0.1-1,0.1-1.6v-5.8
					c0-0.4,0-0.9,0-1.4s0.1-1,0.1-1.5c-0.4,0-0.8,0-1.3,0.1c-0.5,0-0.9,0-1.1,0.1V114c1.1,0,2-0.1,2.7-0.2s1.3-0.3,1.8-0.4
					c0.4-0.2,0.7-0.3,0.9-0.5h1.7c0,0.3,0.1,0.5,0.1,0.7c0,0.1,0,0.3,0,0.4s0.1,0.4,0.1,0.7c0.5-0.4,1-0.7,1.6-1s1.2-0.5,1.8-0.7
					c0.6-0.2,1.1-0.3,1.6-0.3c2.1,0,3.6,0.6,4.5,1.8c0.9,1.2,1.3,3.2,1.3,5.9v4.7c0,0.3,0,0.8,0,1.4s-0.1,1.2-0.1,1.7
					c0.4,0,0.8-0.1,1.2-0.1c0.4,0,0.8,0,1,0v2.6h-9.1v-2.3c0.6,0,1.1-0.1,1.4-0.4c0.3-0.3,0.5-0.6,0.6-1.1s0.1-1,0.1-1.6v-4.9
					c0-1.5-0.2-2.6-0.6-3.4c-0.4-0.7-1.2-1.1-2.2-1.1c-0.6,0-1.2,0.1-1.7,0.4c-0.6,0.3-1,0.6-1.4,0.9c0,0.3,0,0.7,0,1s0,0.7,0,1v5.9
					c0,0.3,0,0.8,0,1.4s-0.1,1.2-0.1,1.7c0.4,0,0.8-0.1,1.2-0.1c0.5,0,0.8,0,1,0v2.6H477.3z"/>
				<path class="st0" d="M507.2,131.2c-1,0-2-0.1-2.9-0.4c-1-0.3-1.7-0.6-2.2-1l0.1,1h-2.6l-0.1-6h2.3c0.1,0.7,0.3,1.3,0.8,1.9
					s1.1,1,1.9,1.4c0.8,0.3,1.7,0.5,2.6,0.5c0.4,0,0.8-0.1,1.1-0.2c0.4-0.1,0.7-0.3,0.9-0.6c0.2-0.3,0.4-0.6,0.4-1s-0.2-0.8-0.5-1.1
					c-0.3-0.3-0.8-0.5-1.4-0.8s-1.3-0.5-2.2-0.9c-0.7-0.3-1.4-0.6-2.2-0.9c-0.7-0.3-1.4-0.7-2-1.1s-1.1-1-1.5-1.6s-0.6-1.4-0.6-2.3
					c0-0.7,0.1-1.3,0.4-2s0.6-1.3,1.2-1.8c0.5-0.5,1.2-1,2-1.3s1.8-0.5,2.9-0.5c0.6,0,1.3,0.1,2.1,0.3c0.8,0.2,1.5,0.5,2,0.9v-1h2.6
					v6.1H510c-0.1-0.8-0.4-1.5-0.9-2.1c-0.4-0.6-1-1-1.6-1.3c-0.7-0.3-1.4-0.5-2.3-0.5c-0.6,0-1.1,0.1-1.6,0.4s-0.7,0.8-0.7,1.4
					c0,0.5,0.2,1,0.6,1.3s0.9,0.6,1.5,0.8c0.6,0.2,1.4,0.5,2.2,0.7c1.2,0.4,2.2,0.9,3.1,1.4s1.6,1.2,2.2,1.9
					c0.5,0.8,0.8,1.7,0.8,2.8c0,1.2-0.3,2.2-0.9,3c-0.6,0.8-1.4,1.4-2.3,1.8C509.3,131,508.3,131.2,507.2,131.2z"/>
				<path class="st0" d="M525.6,130.7c0-0.3-0.1-0.6-0.1-0.8s0-0.5-0.1-0.8c-0.8,0.8-1.6,1.3-2.5,1.7c-0.9,0.3-1.8,0.5-2.7,0.5
					c-1.5,0-2.6-0.4-3.5-1.3c-0.8-0.9-1.2-2-1.2-3.3c0-1.1,0.3-2.1,0.9-2.8c0.6-0.8,1.3-1.4,2.3-1.9c0.9-0.5,2-0.9,3.1-1.1
					c1.1-0.3,2.3-0.4,3.5-0.5v-1.8c0-0.6-0.1-1.1-0.2-1.6c-0.2-0.5-0.4-0.9-0.8-1.1c-0.4-0.3-0.9-0.4-1.5-0.4
					c-0.4,0-0.9,0.1-1.3,0.3c-0.4,0.2-0.8,0.4-1.1,0.7c0.2,0.2,0.3,0.4,0.3,0.7c0,0.2,0.1,0.5,0.1,0.6c0,0.5-0.2,0.9-0.6,1.4
					c-0.4,0.5-1,0.7-1.8,0.7c-0.7,0-1.2-0.3-1.6-0.7c-0.4-0.5-0.6-1-0.6-1.6c0-0.9,0.3-1.7,1-2.4c0.7-0.7,1.5-1.2,2.7-1.6
					c1.1-0.4,2.3-0.6,3.7-0.6c2,0,3.6,0.5,4.7,1.6c1.1,1.1,1.7,2.7,1.7,5.1c0,0.8,0,1.5,0,2c0,0.6,0,1.1,0,1.7s0,1.2,0,2
					c0,0.3,0,0.8,0,1.4s-0.1,1.2-0.1,1.7c0.4,0,0.8-0.1,1.2-0.1s0.8,0,1,0v2.6h-6.5V130.7z M525.2,122.7c-0.6,0.1-1.3,0.2-1.8,0.3
					c-0.6,0.2-1.1,0.4-1.5,0.7c-0.4,0.3-0.8,0.6-1,1s-0.4,0.8-0.4,1.3c0,0.6,0.2,1.1,0.6,1.4c0.4,0.3,0.8,0.4,1.4,0.4
					c0.5,0,1-0.1,1.5-0.3c0.5-0.2,0.9-0.5,1.3-0.9c0-0.2,0-0.5,0-0.7s0-0.4,0-0.7c0-0.4,0-0.8,0-1.3
					C525.2,123.5,525.2,123.1,525.2,122.7z"/>
				<path class="st0" d="M172.3,166.6v-1.3c0.6,0,1.1-0.2,1.4-0.4c0.3-0.2,0.5-0.6,0.5-1.1c0.1-0.5,0.1-1.1,0.1-1.8v-12.2
					c0-0.4,0-0.8,0-1.2s0-0.7,0.1-1c-0.3,0-0.7,0-1.1,0.1c-0.4,0-0.7,0-1.1,0.1V146c1.2,0,2.4,0,3.6,0c1.2,0,2.4,0,3.7,0
					c1.8,0,3.4,0.2,4.5,0.6c1.2,0.4,2.1,1,2.7,1.9c0.6,0.8,0.9,1.9,0.9,3.1c0,0.8-0.1,1.6-0.5,2.3c-0.3,0.8-0.9,1.5-1.7,2.1
					s-1.9,1.1-3.2,1.4c0.4,0.2,0.7,0.6,1.1,1s0.6,0.9,1,1.4l1.8,2.8c0.4,0.6,0.7,1.1,1,1.5s0.7,0.7,1.1,1c0.4,0.2,0.9,0.3,1.4,0.3
					v1.3h-4.1c-0.5-0.4-0.9-0.9-1.3-1.4s-0.7-1.1-1.2-1.7l-2-3.3c-0.3-0.4-0.5-0.8-0.8-1.3c-0.3-0.4-0.6-0.8-0.9-1.1
					c-0.3,0-0.6,0-0.9,0c-0.3,0-0.6,0-0.9,0v4.8c0,0.5,0,1,0,1.4s0,0.8-0.1,1c0.2,0,0.5,0,0.7,0c0.3,0,0.5,0,0.8,0s0.5,0,0.7,0v1.6
					h-7.3V166.6z M179.2,156.4c1.1,0,2-0.2,2.8-0.5s1.3-0.8,1.8-1.5s0.6-1.5,0.6-2.6c0-0.8-0.1-1.5-0.4-2c-0.2-0.5-0.6-1-1-1.3
					s-0.9-0.6-1.5-0.7c-0.6-0.1-1.2-0.2-1.9-0.2c-0.6,0-1.1,0.1-1.4,0.4c-0.3,0.2-0.5,0.6-0.5,1c-0.1,0.4-0.1,1-0.1,1.7v5.7
					c0.3,0,0.6,0,0.8,0.1C178.6,156.4,178.9,156.4,179.2,156.4z"/>
				<path class="st0" d="M197.5,167c-1.4,0-2.6-0.3-3.7-1c-1.1-0.6-1.9-1.5-2.6-2.7c-0.6-1.2-0.9-2.5-0.9-4.1c0-1.4,0.3-2.6,0.9-3.8
					c0.6-1.2,1.5-2.2,2.6-2.9s2.4-1.1,3.9-1.1c0.8,0,1.6,0.1,2.3,0.4c0.7,0.3,1.4,0.7,2,1.2s1,1.2,1.4,2.1c0.3,0.9,0.5,1.9,0.5,3.1
					l-10.1,0.2c0,1.3,0.2,2.5,0.5,3.5s0.8,1.8,1.5,2.4c0.7,0.6,1.6,0.9,2.7,0.9c0.5,0,1.1-0.1,1.7-0.3c0.6-0.2,1.2-0.5,1.7-0.8
					c0.5-0.4,1-0.8,1.4-1.3l0.9,0.8c-0.6,0.9-1.3,1.6-2,2.1s-1.5,0.9-2.3,1.1C198.9,166.9,198.2,167,197.5,167z M193.9,156.8h6.8
					c0-0.7-0.1-1.4-0.3-2s-0.5-1.1-1-1.4c-0.4-0.4-1-0.5-1.6-0.5c-1,0-1.9,0.3-2.6,1C194.6,154.5,194.1,155.5,193.9,156.8z"/>
				<path class="st0" d="M205.7,174v-1.2c0.6,0,1-0.1,1.2-0.4c0.2-0.3,0.4-0.7,0.4-1.1c0-0.5,0.1-1.1,0.1-1.7V156c0-0.3,0-0.7,0-1
					c0-0.4,0-0.7,0.1-1.1c-0.3,0-0.7,0-1.1,0c-0.4,0-0.7,0-1,0v-1.6c0.9,0,1.6,0,2.1-0.1s0.9-0.2,1.1-0.3c0.3-0.1,0.5-0.2,0.6-0.4
					h1.1c0,0.2,0,0.4,0.1,0.7c0,0.3,0,0.5,0.1,0.8c0.6-0.5,1.3-1,2.1-1.3s1.5-0.4,2.3-0.4c1.1,0,2.2,0.3,3.1,0.9
					c0.9,0.6,1.7,1.4,2.3,2.5s0.9,2.4,0.9,3.9c0,1.6-0.3,3.1-1,4.3c-0.7,1.3-1.6,2.2-2.7,2.9c-1.1,0.7-2.4,1-3.7,1
					c-0.6,0-1.2-0.1-1.7-0.2c-0.5-0.1-1-0.3-1.5-0.6v4.2c0,0.4,0,0.7,0,1.1c0,0.4,0,0.7-0.1,1.1c0.3,0,0.6,0,1,0c0.3,0,0.6,0,0.9,0
					v1.6L205.7,174L205.7,174z M213.5,165.5c0.9,0,1.7-0.3,2.3-0.8c0.6-0.6,1.1-1.3,1.4-2.3c0.3-0.9,0.5-2,0.5-3.2
					c0-1-0.1-2-0.4-2.9c-0.3-0.9-0.7-1.7-1.3-2.2c-0.6-0.6-1.4-0.9-2.3-0.8c-0.6,0-1.2,0.1-1.7,0.4c-0.5,0.3-1,0.7-1.4,1.1
					c0,0.3,0,0.5,0,0.8s0,0.7,0,1.1c0,0.4,0,1,0,1.7s0,1.5,0,2.5s0,2.2,0,3.7c0.4,0.3,0.8,0.5,1.4,0.7
					C212.4,165.4,212.9,165.5,213.5,165.5z"/>
				<path class="st0" d="M229.3,167c-1.1,0-2-0.2-2.7-0.6c-0.7-0.4-1.2-1.1-1.6-2c-0.4-0.9-0.5-2.2-0.5-3.8V156c0-0.3,0-0.7,0-1
					c0-0.4,0-0.7,0.1-1.1c-0.3,0-0.7,0-1.1,0c-0.4,0-0.7,0-1,0v-1.6h0.7c1,0,1.7-0.1,2.2-0.3s0.8-0.4,1-0.6h1.1v8.9
					c0,1.5,0.2,2.7,0.6,3.5c0.4,0.8,1.2,1.1,2.2,1.1c0.7,0,1.3-0.2,1.9-0.6c0.6-0.4,1.1-0.9,1.5-1.4v-7c0-0.4,0-0.8,0-1.2
					s0.1-0.7,0.1-1.1c-0.4,0-0.7,0-1.1,0c-0.4,0-0.7,0-1,0V152h0.8c0.9,0,1.5-0.1,2-0.3s0.8-0.4,1.1-0.6h1.1v10.8c0,0.3,0,0.7,0,1.3
					c0,0.5,0,1-0.1,1.4c0.3,0,0.7,0,1-0.1c0.4,0,0.7,0,1,0v1.6h-4.7c0-0.3-0.1-0.6-0.1-0.9c0-0.3-0.1-0.5-0.1-0.8
					c-0.6,0.6-1.3,1.1-2.1,1.5C231,166.8,230.2,167,229.3,167z M229.2,149.7l-1-0.9l2.4-4c0.3-0.4,0.6-0.6,0.8-0.7
					c0.3-0.1,0.5-0.1,0.8-0.1c0.2,0,0.4,0.1,0.6,0.2c0.2,0.1,0.3,0.3,0.4,0.6c0.1,0.3,0.1,0.5,0,0.8s-0.3,0.6-0.6,1L229.2,149.7z"/>
				<path class="st0" d="M241.3,148.8c0-0.3,0-0.7,0-1s0-0.7,0.1-1.1c-0.4,0-0.7,0-1.1,0c-0.4,0-0.7,0-1,0v-1.6c0.9,0,1.6,0,2.1-0.1
					s0.9-0.2,1.2-0.3s0.5-0.2,0.6-0.4h1.1v8.7c0.6-0.5,1.2-1,2-1.2c0.7-0.3,1.5-0.4,2.3-0.4c1.2,0,2.3,0.3,3.3,0.9
					c1,0.6,1.7,1.5,2.3,2.6s0.8,2.4,0.8,4s-0.3,3.1-1,4.3s-1.6,2.2-2.7,2.9c-1.1,0.7-2.4,1-3.8,1c-0.6,0-1.3-0.1-2.1-0.4
					c-0.8-0.2-1.5-0.7-2.2-1.4l-0.8,1.3h-1.3L241.3,148.8z M244.4,162c0,0.9,0.1,1.6,0.4,2.1c0.3,0.5,0.7,0.9,1.1,1.1
					s0.9,0.3,1.5,0.3c0.9,0,1.7-0.2,2.3-0.8s1.1-1.2,1.4-2.2c0.3-0.9,0.5-1.9,0.5-3.1c0-1.2-0.1-2.2-0.4-3.2
					c-0.3-0.9-0.7-1.7-1.3-2.2c-0.6-0.6-1.4-0.8-2.3-0.8c-0.6,0-1.2,0.1-1.7,0.4c-0.6,0.3-1,0.6-1.4,1.1v7.3H244.4z"/>
				<path class="st0" d="M256.7,165.3c0.6,0,1-0.1,1.2-0.4c0.2-0.3,0.4-0.7,0.4-1.1c0-0.5,0.1-1.1,0.1-1.7v-13.3c0-0.3,0-0.7,0-1
					s0-0.7,0.1-1.1c-0.3,0-0.7,0-1.1,0s-0.7,0-1,0v-1.6c0.9,0,1.6,0,2.1-0.1s0.9-0.2,1.2-0.3c0.3-0.1,0.5-0.2,0.6-0.4h1.1v18.5
					c0,0.4,0,0.7,0,1.1c0,0.4,0,0.7-0.1,1.1c0.3,0,0.6,0,1,0c0.3,0,0.6,0,0.9,0v1.6h-6.5L256.7,165.3L256.7,165.3z"/>
				<path class="st0" d="M265.3,165.3c0.6,0,1-0.1,1.2-0.4c0.2-0.3,0.4-0.7,0.4-1.1c0-0.5,0.1-1.1,0.1-1.7V156c0-0.3,0-0.7,0-1
					s0-0.7,0.1-1.1c-0.3,0-0.7,0-1.1,0s-0.7,0-1,0v-1.6c0.9,0,1.6,0,2.1-0.1s0.9-0.2,1.2-0.3c0.3-0.1,0.5-0.2,0.6-0.4h1.1v11.3
					c0,0.4,0,0.7,0,1.1c0,0.4,0,0.7-0.1,1.1c0.3,0,0.6,0,1,0c0.3,0,0.6,0,0.9,0v1.6h-6.5L265.3,165.3L265.3,165.3z M268.4,148.9
					c-0.5,0-0.9-0.2-1.3-0.6c-0.4-0.4-0.5-0.8-0.5-1.4c0-0.5,0.2-1,0.6-1.4s0.8-0.6,1.3-0.6s0.9,0.2,1.3,0.6
					c0.3,0.4,0.5,0.8,0.5,1.4c0,0.5-0.2,1-0.5,1.4C269.3,148.7,268.9,148.9,268.4,148.9z"/>
				<path class="st0" d="M280.6,167c-1.3,0-2.5-0.3-3.6-0.9c-1.1-0.6-2-1.5-2.6-2.6c-0.7-1.1-1-2.5-1-4c0-1.1,0.2-2.1,0.6-3
					s0.9-1.8,1.6-2.6s1.5-1.4,2.4-1.8c0.9-0.4,2-0.7,3.1-0.7c1.2,0,2.1,0.2,3,0.5c0.8,0.4,1.5,0.8,1.9,1.4c0.4,0.6,0.7,1.2,0.7,1.8
					c0,0.5-0.1,0.9-0.4,1.2c-0.3,0.4-0.7,0.5-1.2,0.5c-0.6,0-1-0.2-1.2-0.5c-0.2-0.4-0.4-0.7-0.4-1c0-0.2,0-0.4,0.1-0.6
					c0.1-0.2,0.2-0.4,0.3-0.6c-0.2-0.4-0.4-0.7-0.8-0.9s-0.7-0.3-1.1-0.4c-0.4-0.1-0.7-0.1-0.9-0.1c-1.2,0-2.2,0.5-3,1.5
					s-1.2,2.5-1.2,4.4c0,1.2,0.2,2.3,0.5,3.3c0.4,1,0.9,1.7,1.6,2.3s1.5,0.9,2.5,0.9c0.9,0,1.7-0.2,2.6-0.7c0.8-0.5,1.5-1,2-1.7
					l0.9,0.8c-0.6,0.9-1.2,1.6-2,2.1c-0.7,0.5-1.5,0.9-2.2,1.1S281.3,167,280.6,167z"/>
				<path class="st0" d="M297.8,166.6c0-0.3-0.1-0.6-0.1-0.8s0-0.5-0.1-0.7c-0.7,0.7-1.4,1.2-2.1,1.5c-0.8,0.3-1.6,0.5-2.4,0.5
					c-1.4,0-2.5-0.3-3.2-1s-1.1-1.6-1.1-2.6c0-0.9,0.3-1.7,0.8-2.3c0.5-0.7,1.2-1.2,2.1-1.6c0.9-0.4,1.8-0.7,2.8-0.9s2-0.3,3-0.3
					v-1.7c0-0.6-0.1-1.2-0.2-1.7s-0.4-1-0.7-1.3c-0.4-0.3-0.9-0.5-1.7-0.5c-0.5,0-1,0.1-1.5,0.3s-0.9,0.5-1.2,1
					c0.2,0.2,0.3,0.3,0.3,0.5s0.1,0.4,0.1,0.6c0,0.3-0.1,0.6-0.4,0.9c-0.2,0.3-0.6,0.5-1.2,0.5c-0.5,0-0.8-0.2-1.1-0.5
					c-0.2-0.3-0.4-0.7-0.4-1.1c0-0.7,0.3-1.3,0.8-1.9c0.5-0.5,1.2-1,2.1-1.3s1.9-0.5,3-0.5c1.7,0,2.9,0.4,3.8,1.3
					c0.8,0.9,1.2,2.3,1.2,4.2c0,0.7,0,1.4,0,2s0,1.3,0,1.9c0,0.6,0,1.3,0,2.1c0,0.3,0,0.6,0,1s0,0.8-0.1,1.2c0.3,0,0.7,0,1-0.1
					c0.4,0,0.7,0,1,0v1.6h-4.5V166.6z M297.5,159.5c-0.6,0-1.3,0.1-1.9,0.3c-0.7,0.1-1.2,0.3-1.8,0.6c-0.5,0.3-1,0.6-1.3,1.1
					c-0.3,0.4-0.5,0.9-0.5,1.6c0,0.7,0.3,1.2,0.7,1.5c0.4,0.3,0.9,0.5,1.4,0.5c0.7,0,1.3-0.1,1.8-0.4c0.5-0.3,1-0.6,1.6-1.1
					c0-0.2,0-0.4,0-0.7c0-0.2,0-0.5,0-0.7s0-0.5,0-1C297.5,160.6,297.5,160.1,297.5,159.5z"/>
				<path class="st0" d="M310.7,166.6v-1.3c0.6,0,1-0.2,1.3-0.5s0.6-0.7,0.8-1.3c0.2-0.5,0.4-1.1,0.7-1.8l5.9-16.2h1.2L327,162
					c0.2,0.4,0.3,0.9,0.5,1.5s0.3,1.2,0.3,1.6c0.3,0,0.7-0.1,1-0.1s0.6,0,0.9,0v1.6h-7.1v-1.3c0.7,0,1.1-0.2,1.4-0.5
					c0.2-0.3,0.3-0.6,0.3-1s-0.2-0.8-0.3-1.2l-0.9-2.4l-7.2,0.2L315,163c-0.1,0.4-0.2,0.8-0.4,1.1c-0.1,0.4-0.3,0.7-0.4,1
					c0.4,0,0.7-0.1,1.1-0.1s0.8,0,1.1,0v1.6L310.7,166.6L310.7,166.6z M316.4,158.8h6.2l-1.8-5c-0.2-0.6-0.5-1.3-0.7-1.9
					c-0.2-0.6-0.4-1.2-0.6-1.8l0,0c-0.2,0.5-0.3,1-0.5,1.6s-0.4,1.2-0.7,1.9L316.4,158.8z"/>
				<path class="st0" d="M331.4,165.3c0.6,0,1-0.1,1.2-0.4c0.2-0.3,0.4-0.7,0.4-1.1c0-0.5,0.1-1.1,0.1-1.7V156c0-0.3,0-0.7,0-1
					c0-0.4,0-0.7,0.1-1.1c-0.3,0-0.7,0-1.1,0s-0.7,0-1,0v-1.6h1c0.8,0,1.4-0.1,1.9-0.3c0.4-0.2,0.7-0.4,0.9-0.6h1.1
					c0,0.3,0.1,0.7,0.1,1.1c0,0.5,0,1,0.1,1.6c0.4-0.5,0.8-1,1.3-1.5c0.5-0.4,1-0.8,1.6-1.1s1.2-0.4,1.8-0.4c0.6,0,1.1,0.2,1.6,0.5
					c0.4,0.3,0.7,0.8,0.7,1.6c0,0.2-0.1,0.4-0.2,0.7s-0.3,0.5-0.5,0.7s-0.6,0.3-1,0.3s-0.8-0.2-1.1-0.5c-0.3-0.3-0.4-0.7-0.4-1.2
					c-0.5,0-0.9,0.1-1.4,0.4c-0.5,0.3-0.9,0.7-1.3,1.1c-0.4,0.5-0.7,1-1,1.5v6.4c0,0.4,0,0.7,0,1.1c0,0.4,0,0.7-0.1,1.1
					c0.3,0,0.6,0,1,0c0.3,0,0.6,0,0.9,0v1.6h-6.6v-1.1H331.4z"/>
				<path class="st0" d="M351.1,174.5c-1.7,0-3.1-0.2-4.2-0.6c-1-0.4-1.8-0.9-2.3-1.5s-0.7-1.2-0.7-1.9c0-0.5,0.1-1,0.4-1.5
					c0.2-0.5,0.6-0.8,1-1.2c0.4-0.3,0.9-0.6,1.4-0.8c-0.7-0.2-1.2-0.5-1.6-0.9s-0.5-0.9-0.5-1.5s0.3-1.2,0.7-1.8
					c0.5-0.6,1.2-1,2.2-1.2c-0.9-0.4-1.6-1-2.1-1.7s-0.8-1.6-0.8-2.6c0-1.2,0.3-2.2,0.9-3.1c0.6-0.9,1.4-1.6,2.4-2.1s2-0.7,3-0.7
					c0.6,0,1.2,0.1,1.9,0.2c0.6,0.2,1.2,0.4,1.8,0.8c0.2-0.6,0.5-1.1,0.8-1.6c0.4-0.5,0.8-0.8,1.2-1.1c0.5-0.3,1-0.4,1.5-0.4
					c0.6,0,1,0.1,1.3,0.4c0.3,0.3,0.4,0.7,0.4,1.2c0,0.2,0,0.3-0.1,0.6c-0.1,0.2-0.2,0.4-0.5,0.6c-0.2,0.2-0.5,0.2-0.9,0.2
					c-0.3,0-0.6-0.1-0.8-0.3c-0.2-0.2-0.4-0.5-0.5-0.7c-0.4,0.1-0.7,0.3-1,0.7s-0.4,0.8-0.5,1.2c0.5,0.4,0.9,1,1.2,1.6
					c0.3,0.6,0.4,1.3,0.4,2c0,1.1-0.3,2.1-0.9,3s-1.4,1.5-2.3,2c-1,0.5-2,0.7-3.1,0.7c-0.3,0-0.6,0-0.9-0.1c-0.3,0-0.6-0.1-1-0.1
					c-0.6,0-1.1,0.1-1.5,0.4c-0.4,0.3-0.6,0.6-0.5,1.1c0.1,0.4,0.5,0.7,1.2,0.9c0.7,0.1,1.8,0.2,3.1,0.3c1.5,0.1,2.8,0.2,3.9,0.5
					s1.9,0.8,2.5,1.4c0.6,0.6,0.9,1.5,0.9,2.6c0,0.8-0.2,1.5-0.7,2.1c-0.4,0.6-1,1.1-1.8,1.6c-0.7,0.4-1.6,0.7-2.4,1
					C352.9,174.4,352,174.5,351.1,174.5z M351.4,173.1c1.6,0,2.8-0.3,3.7-0.9c0.9-0.6,1.3-1.3,1.3-2c0-0.6-0.2-1.1-0.6-1.5
					c-0.4-0.3-1-0.6-1.8-0.7c-0.8-0.1-1.7-0.2-2.7-0.2c-0.5,0-1-0.1-1.6-0.1c-0.5,0-1-0.1-1.5-0.1c-0.4,0.3-0.8,0.7-1,1.1
					c-0.2,0.4-0.4,0.9-0.4,1.4c0,0.9,0.4,1.6,1.3,2.2C348.8,172.8,350,173.1,351.4,173.1z M351,161.2c0.7,0,1.2-0.2,1.7-0.5
					c0.4-0.3,0.8-0.8,1-1.4c0.2-0.6,0.3-1.2,0.3-1.9c0-0.8-0.1-1.6-0.4-2.3c-0.2-0.7-0.6-1.3-1-1.7s-1-0.6-1.7-0.6
					c-1,0-1.7,0.4-2.2,1.1c-0.5,0.8-0.8,1.7-0.8,2.8c0,0.9,0.1,1.6,0.4,2.3c0.2,0.7,0.6,1.2,1.1,1.6
					C349.8,161,350.3,161.2,351,161.2z"/>
				<path class="st0" d="M367,167c-1.4,0-2.6-0.3-3.7-1c-1.1-0.6-1.9-1.5-2.6-2.7c-0.6-1.2-0.9-2.5-0.9-4.1c0-1.4,0.3-2.6,0.9-3.8
					s1.5-2.2,2.6-2.9s2.4-1.1,3.9-1.1c0.8,0,1.6,0.1,2.3,0.4c0.7,0.3,1.4,0.7,2,1.2s1,1.2,1.4,2.1c0.3,0.9,0.5,1.9,0.5,3.1
					l-10.1,0.2c0,1.3,0.2,2.5,0.5,3.5s0.8,1.8,1.5,2.4c0.7,0.6,1.6,0.9,2.7,0.9c0.5,0,1.1-0.1,1.7-0.3s1.2-0.5,1.7-0.8
					c0.5-0.4,1-0.8,1.4-1.3l0.9,0.8c-0.6,0.9-1.3,1.6-2,2.1c-0.8,0.5-1.5,0.9-2.3,1.1C368.4,166.9,367.6,167,367,167z M363.4,156.8
					h6.8c0-0.7-0.1-1.4-0.3-2c-0.2-0.6-0.5-1.1-1-1.4c-0.4-0.4-1-0.5-1.6-0.5c-1,0-1.9,0.3-2.6,1C364,154.5,363.6,155.5,363.4,156.8
					z"/>
				<path class="st0" d="M375.3,166.6v-1.2c0.6,0,1-0.1,1.2-0.4c0.2-0.3,0.4-0.7,0.4-1.1c0-0.5,0.1-1.1,0.1-1.7v-6.1
					c0-0.3,0-0.7,0-1c0-0.4,0-0.7,0.1-1.1c-0.4,0-0.7,0-1.1,0s-0.7,0-1,0v-1.6c0.9,0,1.6,0,2.1-0.1s0.9-0.2,1.1-0.3
					c0.3-0.1,0.5-0.2,0.6-0.4h1.1c0,0.2,0,0.3,0,0.5s0,0.3,0,0.5s0,0.4,0,0.7c0.4-0.4,0.9-0.7,1.4-0.9c0.5-0.3,1-0.5,1.6-0.7
					s1.1-0.2,1.6-0.2c1.7,0,3,0.5,3.8,1.6s1.2,2.7,1.2,5v5c0,0.4,0,0.7,0,1.1c0,0.4,0,0.7-0.1,1.1c0.3,0,0.6,0,1,0
					c0.3,0,0.6,0,0.9,0v1.6h-6.5v-1.2c0.6,0,1-0.1,1.2-0.4c0.2-0.3,0.4-0.7,0.4-1.1c0-0.5,0.1-1.1,0.1-1.7V158
					c0-1.5-0.3-2.7-0.7-3.5c-0.5-0.8-1.2-1.2-2.3-1.1c-0.6,0-1.2,0.2-1.8,0.5c-0.6,0.3-1.1,0.7-1.5,1.1c0,0.2,0,0.4,0,0.6
					c0,0.2,0,0.5,0,0.7v6.7c0,0.4,0,0.7,0,1.1c0,0.4,0,0.7-0.1,1.1c0.3,0,0.6,0,1,0c0.3,0,0.6,0,0.9,0v1.6h-6.7V166.6z"/>
				<path class="st0" d="M398.3,167c-0.5,0-1-0.1-1.5-0.2c-0.5-0.1-1-0.4-1.4-0.8c-0.4-0.4-0.7-0.9-1-1.7c-0.2-0.7-0.4-1.7-0.4-2.9
					l0.1-8H392v-1.6c0.5,0,1.1-0.2,1.6-0.6c0.5-0.4,1-0.9,1.4-1.5s0.7-1.3,0.8-2h1.4v4.1h4.5v1.5l-4.5,0.1l-0.1,7.8
					c0,0.7,0.1,1.4,0.2,2s0.3,1,0.6,1.3c0.3,0.3,0.7,0.5,1.2,0.5c0.4,0,0.9-0.1,1.4-0.4c0.5-0.3,0.9-0.7,1.4-1.3l1,0.9
					c-0.5,0.7-0.9,1.2-1.4,1.6c-0.5,0.4-0.9,0.7-1.3,0.9s-0.8,0.3-1.2,0.4C398.8,167,398.5,167,398.3,167z"/>
				<path class="st0" d="M404.5,165.3c0.6,0,1-0.1,1.2-0.4c0.2-0.3,0.4-0.7,0.4-1.1c0-0.5,0.1-1.1,0.1-1.7V156c0-0.3,0-0.7,0-1
					s0-0.7,0.1-1.1c-0.3,0-0.7,0-1.1,0s-0.7,0-1,0v-1.6c0.9,0,1.6,0,2.1-0.1s0.9-0.2,1.2-0.3c0.3-0.1,0.5-0.2,0.6-0.4h1.1v11.3
					c0,0.4,0,0.7,0,1.1c0,0.4,0,0.7-0.1,1.1c0.3,0,0.6,0,1,0c0.3,0,0.6,0,0.9,0v1.6h-6.5L404.5,165.3L404.5,165.3z M407.6,148.9
					c-0.5,0-0.9-0.2-1.3-0.6c-0.4-0.4-0.5-0.8-0.5-1.4c0-0.5,0.2-1,0.6-1.4s0.8-0.6,1.3-0.6s0.9,0.2,1.3,0.6
					c0.3,0.4,0.5,0.8,0.5,1.4c0,0.5-0.2,1-0.5,1.4C408.5,148.7,408.1,148.9,407.6,148.9z"/>
				<path class="st0" d="M413.1,166.6v-1.2c0.6,0,1-0.1,1.2-0.4c0.2-0.3,0.4-0.7,0.4-1.1c0-0.5,0.1-1.1,0.1-1.7v-6.1
					c0-0.3,0-0.7,0-1c0-0.4,0-0.7,0.1-1.1c-0.4,0-0.7,0-1.1,0s-0.7,0-1,0v-1.6c0.9,0,1.6,0,2.1-0.1s0.9-0.2,1.1-0.3
					c0.3-0.1,0.5-0.2,0.6-0.4h1.1c0,0.2,0,0.3,0,0.5s0,0.3,0,0.5s0,0.4,0,0.7c0.4-0.4,0.9-0.7,1.4-0.9c0.5-0.3,1-0.5,1.6-0.7
					s1.1-0.2,1.6-0.2c1.7,0,3,0.5,3.8,1.6s1.2,2.7,1.2,5v5c0,0.4,0,0.7,0,1.1c0,0.4,0,0.7-0.1,1.1c0.3,0,0.6,0,1,0
					c0.3,0,0.6,0,0.9,0v1.6h-6.5v-1.2c0.6,0,1-0.1,1.2-0.4c0.2-0.3,0.4-0.7,0.4-1.1c0-0.5,0.1-1.1,0.1-1.7V158
					c0-1.5-0.3-2.7-0.7-3.5c-0.5-0.8-1.2-1.2-2.3-1.1c-0.6,0-1.2,0.2-1.8,0.5c-0.6,0.3-1.1,0.7-1.5,1.1c0,0.2,0,0.4,0,0.6
					c0,0.2,0,0.5,0,0.7v6.7c0,0.4,0,0.7,0,1.1c0,0.4,0,0.7-0.1,1.1c0.3,0,0.6,0,1,0c0.3,0,0.6,0,0.9,0v1.6h-6.7V166.6z"/>
				<path class="st0" d="M439.9,166.6c0-0.3-0.1-0.6-0.1-0.8s0-0.5-0.1-0.7c-0.7,0.7-1.4,1.2-2.1,1.5c-0.8,0.3-1.6,0.5-2.4,0.5
					c-1.4,0-2.5-0.3-3.2-1s-1.1-1.6-1.1-2.6c0-0.9,0.3-1.7,0.8-2.3c0.5-0.7,1.2-1.2,2.1-1.6c0.9-0.4,1.8-0.7,2.8-0.9s2-0.3,3-0.3
					v-1.7c0-0.6-0.1-1.2-0.2-1.7s-0.4-1-0.7-1.3c-0.4-0.3-0.9-0.5-1.7-0.5c-0.5,0-1,0.1-1.5,0.3s-0.9,0.5-1.2,1
					c0.2,0.2,0.3,0.3,0.3,0.5s0.1,0.4,0.1,0.6c0,0.3-0.1,0.6-0.4,0.9c-0.2,0.3-0.6,0.5-1.2,0.5c-0.5,0-0.8-0.2-1.1-0.5
					c-0.2-0.3-0.4-0.7-0.4-1.1c0-0.7,0.3-1.3,0.8-1.9c0.5-0.5,1.2-1,2.1-1.3s1.9-0.5,3-0.5c1.7,0,2.9,0.4,3.8,1.3
					c0.8,0.9,1.2,2.3,1.2,4.2c0,0.7,0,1.4,0,2s0,1.3,0,1.9c0,0.6,0,1.3,0,2.1c0,0.3,0,0.6,0,1s0,0.8-0.1,1.2c0.3,0,0.7,0,1-0.1
					c0.4,0,0.7,0,1,0v1.6h-4.5V166.6z M439.7,159.5c-0.6,0-1.3,0.1-1.9,0.3c-0.7,0.1-1.2,0.3-1.8,0.6c-0.5,0.3-1,0.6-1.3,1.1
					c-0.3,0.4-0.5,0.9-0.5,1.6c0,0.7,0.3,1.2,0.7,1.5c0.4,0.3,0.9,0.5,1.4,0.5c0.7,0,1.3-0.1,1.8-0.4c0.5-0.3,1-0.6,1.6-1.1
					c0-0.2,0-0.4,0-0.7c0-0.2,0-0.5,0-0.7s0-0.5,0-1C439.7,160.6,439.7,160.1,439.7,159.5z"/>
			</g>
		</g>
	</g>
</g>
<g>
	<g>
		<path class="st1" d="M43.8,94"/>
	</g>
	<g>
		<path class="st1" d="M41.2,93.5"/>
	</g>
	<g>
		<path class="st1" d="M43.9,94"/>
	</g>
	<path class="st0" d="M83.9,192.4c-26.6,0-48.3-30.5-48.3-68c0.1-37.5,21.7-68,48.3-68s48.3,30.5,48.3,68
		C132.2,161.9,110.6,192.4,83.9,192.4z M83.9,57.8c-25.9,0-47,29.9-47,66.7s21,66.7,47,66.7s47-29.9,47-66.7
		C130.9,87.7,109.8,57.8,83.9,57.8z"/>
	<rect x="35.9" y="122.3" class="st0" width="96.3" height="0.7"/>
	<rect x="36.5" y="112.4" class="st0" width="94.9" height="0.7"/>
	<g>
		<path class="st0" d="M68.9,102.5C68.8,102.5,68.8,102.5,68.9,102.5H38.8v0.7h30.5C69.1,102.9,68.9,102.7,68.9,102.5z"/>
		<path class="st0" d="M100,102.5c-0.1,0.2-0.3,0.4-0.6,0.7h29.7v-0.7H100z"/>
	</g>
	<g>
		<path class="st0" d="M98,92.7c0.1,0.2,0.2,0.4,0.3,0.7h27.5v-0.7H98z"/>
		<path class="st0" d="M70.5,92.7H42.1v0.7h27.9C70.3,93,70.4,92.8,70.5,92.7z"/>
	</g>
	<g>
		<path class="st0" d="M92.4,82.7c0.1,0.2,0.2,0.4,0.4,0.7h28.6v-0.7H92.4z"/>
		<path class="st0" d="M69.1,82.7H46.4v0.7h22C68.6,83.1,68.8,82.9,69.1,82.7z"/>
	</g>
	<rect x="53.6" y="72.8" class="st0" width="60.9" height="0.7"/>
	<rect x="63.3" y="63" class="st0" width="41.3" height="0.7"/>
	<g>
		<path class="st0" d="M125.5,158.1c0.4-1,0.9-2.6,1.4-4.5C126.3,155.7,125.8,157.1,125.5,158.1z"/>
		<path class="st0" d="M124.7,159.4c-1.9-0.2-14.9-5.8-18-8.1c-0.6-0.4-1.1-0.9-1.8-1.4c-2.3-2-4.9-4.3-6.3-5.8
			c-0.4-0.4-0.8-0.8-1-1c-1.2-1.1-7.1-4.1-9.7-4.1c-0.1,0-0.2,0-0.3,0c-1.3,0.2-2.4,0.8-3.5,1.4c-0.8,0.4-1.4,0.9-2.2,1.1
			c-1.9,0.6-4.5,0.6-4.8,0.3c-0.2-0.1-0.8-0.6-0.6-1c0.2-0.6,2-1.3,2.9-1.8c0.9-0.3,2.1-1.3,3.3-2.3c1-0.8,2.1-1.6,2.6-1.8
			c1.1-0.4,3.5-0.4,4.8-0.3c1.8,0.1,12.1,2.9,17.4,4.6c4.8,1.6,19.3,2.7,22.3,2.9c-0.9,4.5-1.9,8.6-2.8,11.7c0.3-0.9,0.7-1.9,1-3
			c1.4-4.5,2.3-9.6,2.3-9.6c-0.2,0-17.5-1.2-22.6-2.9c-5.3-1.8-15.6-4.5-17.5-4.7c-1.3-0.1-3.9-0.1-5.1,0.4c-0.1,0-0.2,0.1-0.4,0.2
			c-1.4-0.4-4.9-0.8-6.1-0.7c-1.9,0.2-12.2,2.9-17.5,4.7c-5.2,1.7-22.5,2.9-22.6,2.9h-0.6l0.1,0.6c0,0,0.8,5.1,2.3,9.7
			c2.8,8.7,3.3,9.8,4,9.8c0.1,0,10-4.5,15.9-7.8c2.3-1.3,6.8-3.7,8.1-3.9l0.7-1.3c-1.6,0.3-8.8,4-9,4.1c-7.8,3.8-13.2,6.7-15.7,7.6
			c-1.4,0.6-5.6-17.8-5.2-17.8c0,0,17.5-1.3,22.3-2.9c5.1-1.7,15.5-4.5,17.4-4.6c1-0.1,3.6,0.1,5.1,0.4c-0.4,0.3-0.9,0.7-1.4,1.1
			c-1.1,0.9-2.4,1.9-3.2,2.2c-1.9,0.8-3,1.4-3.3,2.2c-0.3,0.7,0,1.4,0.9,2.1c0.7,0.6,3.8,0.3,5.6-0.2c0.9-0.2,1.7-0.7,2.4-1.1
			c1-0.6,2-1.2,3.1-1.3c1.9-0.2,8,2.7,9.2,3.9c0.2,0.2,0.6,0.6,1,1c1.4,1.4,4,3.8,6.5,5.9c0.7,0.6,1.2,1,1.9,1.4
			c3,2.3,16.4,8.5,18.6,8.8c0,0,0.1-0.6,0.8-2.4C125.2,158.9,124.9,159.4,124.7,159.4z"/>
	</g>
	<g>
		<path class="st1" d="M41.2,93.5"/>
	</g>
	<g>
		<path class="st1" d="M43.8,94"/>
	</g>
	<g>
		<path class="st1" d="M41.1,93.5"/>
	</g>
	<g>
		<path class="st1" d="M43.8,94"/>
	</g>
	<g>
		<g>
			<g>
				<g>
					<path class="st0" d="M114.5,65.4L114.5,65.4l-14.2-5v0.1c0.6,0.3,1.2,0.7,1.9,1l12.5,4.5h0.1l-0.1-0.1
						C114.7,65.8,114.6,65.7,114.5,65.4z"/>
					<path class="st0" d="M125.8,52.1l-23.1-1.6l0,0c0.1,0,0.2-0.1,0.3-0.1c0.4-0.2,1-0.3,1.7-0.7c0.3-0.1,0.7-0.3,0.9-0.4l0,0
						c0.2-0.1,0.4-0.2,0.7-0.3c0.9-0.4,1.9-0.8,2.8-1c0.9-0.2,1.9-0.3,2.9-0.2c0.3,0,0.7,0,1,0.1l0,0c0.2,0,0.4,0,0.7,0
						c0.6,0,1.2,0.1,1.9,0c1.2-0.2,2.1-0.7,3-1.2l0,0c0.1-0.1,0.2-0.1,0.3-0.2c0.9-0.4,1.8-1,2.8-1.2c0.9-0.2,1.9-0.3,2.9-0.2
						c0.4,0.1,0.9-0.2,1-0.8c0-0.2,0-0.4-0.1-0.7c-0.1-0.2-0.3-0.3-0.6-0.4c-1.2-0.2-2.4-0.2-3.7,0c-1.2,0.2-2.2,0.8-3.2,1.2
						c-0.4,0.2-0.9,0.4-1.4,0.7c-0.2,0.1-0.4,0.1-0.7,0.2l0,0c-0.1,0-0.2,0-0.2,0.1h-0.1c-0.1,0-0.1,0-0.2,0l0,0
						c-0.6,0-1.2,0-1.9-0.1c-0.3,0-0.8-0.1-1.1-0.1c-1.2-0.1-2.4-0.1-3.7,0.1c-1.1,0.2-2.2,0.6-3.5,1c-0.2,0.1-0.4,0.2-0.7,0.3l0,0
						c-0.2,0.1-0.4,0.2-0.8,0.3c-0.6,0.2-1,0.3-1.4,0.4c-0.3,0.1-0.7,0.2-1,0.2l0,0l-0.1-0.2l21.7-10.8c0.3-0.2,0.4-0.6,0.3-0.8
						c-0.1-0.2-0.4-0.4-0.8-0.3l-22.1,8l0,0c0.1-0.1,0.3-0.3,0.4-0.4c0.4-0.3,0.8-0.8,1.2-1.2c0.2-0.2,0.4-0.4,0.7-0.7l0,0
						c0.1-0.2,0.3-0.3,0.4-0.6c0.7-0.8,1.4-1.4,2.1-2c0.8-0.6,1.6-1,2.6-1.3c0.3-0.1,0.6-0.2,0.9-0.3l0,0c0.2-0.1,0.3-0.1,0.6-0.2
						c0.6-0.2,1.1-0.4,1.8-0.8c1-0.7,1.7-1.4,2.3-2.2l0,0c0.1-0.1,0.1-0.2,0.2-0.2c0.7-0.8,1.3-1.6,2-2.2c0.8-0.6,1.6-1,2.6-1.3
						c0.4-0.1,0.8-0.7,0.7-1.1c0-0.2-0.2-0.4-0.4-0.6c-0.2-0.1-0.4-0.2-0.7-0.1c-1.2,0.2-2.3,0.8-3.3,1.4c-1,0.7-1.8,1.6-2.6,2.4
						c-0.3,0.3-0.7,0.8-1.1,1.1c-0.2,0.2-0.3,0.3-0.6,0.4l0,0c-0.1,0.1-0.1,0.1-0.2,0.1l0,0c0,0,0,0-0.1,0s-0.1,0.1-0.2,0.1l0,0
						c-0.4,0.2-1.1,0.4-1.8,0.7c-0.3,0.1-0.7,0.2-1.1,0.3c-1.2,0.3-2.3,0.9-3.3,1.6c-1,0.6-1.9,1.3-2.8,2.3
						c-0.2,0.2-0.3,0.3-0.6,0.6c-0.2,0.2-0.3,0.4-0.6,0.6c-0.4,0.4-0.8,0.8-1.1,1c-0.3,0.2-0.7,0.6-1,0.7l0,0l-0.1-0.1L113,22.7
						c0.2-0.3,0.1-0.7,0-0.9c-0.2-0.2-0.6-0.2-0.9,0l-16.9,16l0,0c0.1-0.2,0.2-0.4,0.3-0.6c0.2-0.4,0.4-1,0.7-1.7
						c0.1-0.3,0.2-0.6,0.3-0.9l0,0c0.1-0.2,0.1-0.4,0.2-0.7c0.3-1,0.7-1.9,1.2-2.7c0.4-0.8,1.1-1.6,1.8-2.2c0.2-0.2,0.4-0.4,0.7-0.7
						h0.1c0.1-0.1,0.2-0.2,0.4-0.3c0.4-0.4,0.9-0.9,1.3-1.4c0.7-1,1-2,1.2-3c0-0.1,0.1-0.2,0.1-0.4c0.2-1,0.6-2,1-2.9
						c0.4-0.9,1.1-1.6,1.8-2.2c0.3-0.3,0.4-0.9,0.2-1.2c-0.1-0.2-0.3-0.3-0.6-0.3c-0.2,0-0.4,0-0.7,0.1c-1,0.7-1.9,1.7-2.4,2.7
						c-0.7,1-1,2.1-1.4,3.2c-0.1,0.4-0.3,1-0.6,1.4c-0.1,0.2-0.2,0.4-0.3,0.7l0,0c0,0.1-0.1,0.1-0.1,0.2V25c0,0-0.1,0.1-0.1,0.2l0,0
						c-0.3,0.4-0.9,0.8-1.4,1.2l0,0c-0.2,0.2-0.6,0.4-0.9,0.7c-1,0.8-1.8,1.7-2.4,2.7c-0.7,0.9-1.2,2-1.7,3.2
						c-0.1,0.2-0.2,0.4-0.3,0.7v0.1c-0.1,0.2-0.2,0.4-0.3,0.7c-0.2,0.6-0.4,1-0.7,1.3c-0.2,0.4-0.4,0.8-0.7,1.1l0,0l0,0l0,0
						c-0.1,0-0.1-0.1-0.2-0.1l0,0l8.2-23.3c0.1-0.3-0.1-0.7-0.3-0.8c-0.2-0.1-0.7,0-0.8,0.3l-9.3,19.7l0,0c0-0.3,0-0.6,0-0.9
						s0-0.6-0.1-0.9l0,0c0-0.2,0-0.4-0.1-0.7c-0.1-1-0.1-2,0-2.9c0.1-0.9,0.3-1.9,0.8-2.8c0.1-0.3,0.2-0.6,0.4-0.9
						c0.1-0.2,0.2-0.3,0.2-0.6c0.2-0.6,0.4-1.1,0.7-1.8c0.2-1.2,0.1-2.2,0-3.2l0,0c0-0.1,0-0.2,0-0.3c-0.1-1-0.2-2-0.2-3
						c0.1-1,0.3-1.9,0.8-2.8c0.2-0.4,0.1-1-0.3-1.2c-0.2-0.1-0.4-0.2-0.7-0.1c-0.2,0.1-0.4,0.2-0.6,0.4c-0.7,1-1.1,2.2-1.2,3.5
						c-0.2,1.2-0.1,2.3,0,3.5c0,0.6,0.1,1,0.1,1.6c0,0.2,0,0.4,0,0.7l0,0c0,0.1,0,0.2,0,0.2l0,0c0,0,0,0,0,0.1c0,0.1,0,0.1,0,0.2
						l0,0c-0.1,0.6-0.4,1.1-0.8,1.7c-0.1,0.3-0.3,0.7-0.6,1c-0.6,1.1-1,2.3-1.2,3.5c-0.2,1.1-0.3,2.3-0.3,3.6c0,0.2,0,0.4,0,0.7v0.2
						c0,0.2,0,0.6,0,0.8c0,0.6,0,1.1-0.1,1.4c0,0.4-0.1,0.9-0.2,1.3c0,0.1,0,0.1-0.1,0.2l0,0l0,0c-0.1,0-0.2,0-0.2,0l-1.4-24.4
						c0-0.3-0.3-0.6-0.6-0.6c-0.3,0-0.6,0.2-0.7,0.6L82,34.2l0,0c-0.1-0.2-0.1-0.4-0.2-0.7c-0.2-0.4-0.3-1-0.7-1.7
						c-0.1-0.2-0.2-0.6-0.4-0.8v-0.1c-0.1-0.2-0.2-0.4-0.3-0.6c-0.4-0.9-0.8-1.9-1-2.8c-0.2-0.9-0.3-1.9-0.2-2.9c0-0.3,0-0.6,0-0.9
						v-0.1c0-0.2,0-0.3,0-0.6c0-0.6,0.1-1.2,0-1.9c-0.2-1.2-0.7-2.1-1.2-3c-0.1-0.1-0.1-0.2-0.2-0.3c-0.4-0.9-1-1.8-1.2-2.8
						c-0.2-0.9-0.3-1.9-0.2-2.9c0.1-0.4-0.2-0.9-0.8-1c-0.2,0-0.4,0-0.7,0.1c-0.2,0.1-0.3,0.3-0.4,0.6c-0.2,1.2-0.2,2.4,0,3.7
						c0.2,1.2,0.8,2.2,1.2,3.2c0.2,0.4,0.4,0.9,0.7,1.4c0.1,0.2,0.1,0.4,0.2,0.7l0,0c0,0.1,0,0.1,0,0.2v0.1c0,0.1,0,0.1,0,0.2l0,0
						c0,0.6,0,1.2-0.1,1.9c0,0.3-0.1,0.8-0.1,1.1c-0.1,1.2-0.1,2.4,0.1,3.7c0.2,1.1,0.6,2.3,1,3.5c0.1,0.2,0.2,0.4,0.3,0.7l0,0
						c0.1,0.2,0.2,0.6,0.3,0.8c0.2,0.6,0.3,1,0.4,1.4c0.1,0.4,0.2,0.9,0.2,1.3l0,0h-0.1l-10.9-22c-0.2-0.3-0.6-0.4-0.8-0.3
						c-0.2,0.1-0.4,0.4-0.3,0.8l8.1,21.9l0,0c-0.1-0.2-0.3-0.3-0.4-0.4c-0.3-0.3-0.8-0.8-1.2-1.2c-0.2-0.2-0.4-0.4-0.7-0.6l-0.1-0.1
						c-0.2-0.1-0.3-0.3-0.4-0.4c-0.8-0.7-1.4-1.4-2-2.1c-0.6-0.8-1-1.6-1.3-2.6c-0.1-0.3-0.2-0.6-0.3-0.9c-0.1-0.2-0.1-0.4-0.2-0.6
						c-0.2-0.6-0.4-1.1-0.8-1.8c-0.7-1-1.4-1.7-2.2-2.3c-0.1-0.1-0.2-0.2-0.3-0.2c-0.8-0.7-1.6-1.3-2.2-2c-0.6-0.8-1-1.6-1.3-2.6
						c-0.1-0.4-0.7-0.8-1.1-0.7c-0.2,0-0.4,0.2-0.6,0.4c-0.1,0.2-0.2,0.4-0.1,0.7c0.2,1.2,0.8,2.3,1.4,3.3c0.7,1,1.6,1.8,2.4,2.6
						c0.3,0.3,0.8,0.7,1.1,1.1c0.2,0.2,0.3,0.3,0.4,0.6l0,0c0.1,0.1,0.1,0.1,0.1,0.2l0.1,0.1c0,0.1,0.1,0.1,0.1,0.2l0,0
						c0.2,0.4,0.4,1.1,0.7,1.8l0,0c0.1,0.3,0.2,0.7,0.3,1.1c0.3,1.2,0.9,2.3,1.6,3.3c0.6,1,1.3,1.9,2.3,2.8c0.2,0.2,0.3,0.3,0.6,0.6
						l0,0c0.2,0.2,0.4,0.3,0.6,0.6c0.4,0.4,0.8,0.8,1,1.1c0.3,0.3,0.6,0.8,0.8,1.1c0,0,0,0.1,0.1,0.1l0,0l0,0l-19-16.8
						c-0.3-0.2-0.7-0.1-0.9,0c-0.2,0.2-0.2,0.6,0,0.9l16,17l0,0c-0.2-0.1-0.4-0.2-0.6-0.3c-0.4-0.2-1-0.4-1.7-0.7
						c-0.2-0.1-0.6-0.2-0.9-0.3h-0.1c-0.2-0.1-0.4-0.1-0.7-0.2c-1-0.3-1.9-0.7-2.7-1.2c-0.8-0.4-1.6-1.1-2.2-1.8
						c-0.2-0.2-0.4-0.4-0.7-0.7c-0.1-0.1-0.3-0.3-0.4-0.4c-0.4-0.4-0.9-0.9-1.4-1.3c-1-0.7-2-1-3-1.2l0,0c-0.1,0-0.2-0.1-0.3-0.1
						c-1-0.2-2-0.6-2.9-1c-0.9-0.4-1.6-1.1-2.2-1.8c-0.3-0.3-0.9-0.4-1.2-0.2c-0.4,0.3-0.6,0.9-0.2,1.3c0.7,1,1.7,1.9,2.7,2.4
						c1,0.7,2.1,1,3.2,1.4c0.4,0.1,1,0.3,1.4,0.6c0.2,0.1,0.4,0.2,0.7,0.3l0,0c0.1,0,0.1,0.1,0.2,0.1H56c0.1,0,0.1,0.1,0.2,0.1l0,0
						c0.4,0.3,0.8,0.9,1.2,1.4c0.2,0.2,0.4,0.6,0.7,0.9c0.8,1,1.7,1.8,2.7,2.4c0.9,0.7,2,1.2,3.2,1.7c0.2,0.1,0.6,0.2,0.8,0.3
						c0.2,0.1,0.6,0.2,0.8,0.3c0.6,0.2,1,0.4,1.3,0.7c0.4,0.2,0.8,0.4,1.1,0.7l0.1,0.1l0,0l-0.1,0.2L44.7,36
						c-0.3-0.1-0.7,0.1-0.8,0.3c-0.1,0.2,0,0.7,0.3,0.8l19.7,9.2l0,0c-0.2,0-0.6,0-0.9,0s-0.6,0-0.9,0.1H62c-0.2,0-0.4,0-0.7,0.1
						c-1,0.1-2,0.1-2.9,0c-0.9-0.1-1.9-0.3-2.8-0.8c-0.3-0.1-0.6-0.2-0.9-0.4l0,0c-0.2-0.1-0.3-0.2-0.6-0.2
						c-0.6-0.2-1.1-0.4-1.8-0.7c-1.2-0.2-2.2-0.1-3.2,0h-0.1c-0.1,0-0.2,0-0.3,0c-1,0.1-2,0.2-3,0.2c-1-0.1-1.9-0.3-2.8-0.8
						c-0.4-0.2-1-0.1-1.2,0.3c-0.1,0.2-0.2,0.4-0.1,0.7c0.1,0.2,0.2,0.4,0.4,0.6c1,0.7,2.2,1.1,3.5,1.2c1.2,0.2,2.3,0.1,3.5,0
						c0.4,0,1-0.1,1.6-0.1l0,0c0.2,0,0.4,0,0.7,0l0,0c0.1,0,0.2,0,0.2,0h0.1c0.1,0,0.1,0,0.2,0l0,0c0.6,0.1,1.1,0.4,1.7,0.8l0,0
						c0.3,0.2,0.7,0.3,1,0.6c1.1,0.6,2.3,1,3.5,1.2c1.1,0.2,2.3,0.3,3.6,0.3c0.3,0,0.6,0,0.8,0c0.3,0,0.6,0,0.8,0
						c0.6,0,1.1,0,1.4,0.1c0.4,0,0.9,0.1,1.3,0.2c0.1,0,0.1,0,0.2,0.1l0,0l0,0c0,0.1,0,0.2,0,0.2l-24.4,1.4c-0.3,0-0.6,0.3-0.6,0.7
						c0,0.3,0.2,0.6,0.6,0.6L64.9,54l0,0c-0.2,0.1-0.4,0.1-0.7,0.2c-0.6,0.2-1,0.3-1.7,0.7c-0.3,0.1-0.6,0.3-0.9,0.4l0,0
						c-0.2,0.1-0.4,0.2-0.7,0.3c-0.9,0.4-1.9,0.8-2.8,1c-0.9,0.2-1.9,0.3-2.9,0.2c-0.3,0-0.7,0-1-0.1h-0.1c-0.2,0-0.3,0-0.6,0
						c-0.6,0-1.2-0.1-1.9,0c-1.2,0.2-2.1,0.7-3,1.2c-0.1,0.1-0.2,0.1-0.3,0.2c-0.9,0.4-1.8,1-2.8,1.2c-0.9,0.2-1.9,0.3-2.9,0.2
						c-0.4-0.1-0.9,0.2-1,0.8c0,0.2,0,0.4,0.1,0.7s0.3,0.3,0.6,0.4c1.2,0.2,2.4,0.2,3.7,0c1.2-0.2,2.2-0.8,3.2-1.2
						c0.4-0.2,0.9-0.4,1.4-0.7c0.2-0.1,0.4-0.1,0.7-0.2l0,0c0.1,0,0.2,0,0.2-0.1l0,0c0,0,0,0,0.1,0c0.1,0,0.1,0,0.2,0l0,0
						c0.6,0,1.2,0,1.9,0.1l0,0c0.3,0,0.8,0.1,1.1,0.1c1.2,0.1,2.4,0.1,3.7-0.1c1.1-0.2,2.2-0.6,3.5-1c0.2-0.1,0.4-0.2,0.7-0.2l0,0
						c0.2-0.1,0.6-0.2,0.8-0.3c0.6-0.2,1-0.3,1.4-0.4c0.4-0.1,0.9-0.2,1.2-0.2l0,0l0,0v0.1l0,0l-12.6,6.2h-0.1l0,0l0,0
						c0.1,0.1,0.1,0.2,0,0.3L53.5,64l13.7-6.5l0,0v-0.2c0-0.1-0.1-0.3-0.1-0.4v-0.2h-0.2h-0.1c-0.4,0-0.9,0.1-1.3,0.2
						c-0.4,0.1-0.9,0.2-1.4,0.4c-0.2,0.1-0.6,0.2-0.8,0.3l0,0c-0.2,0.1-0.4,0.2-0.7,0.3c-1.1,0.4-2.2,0.8-3.3,1
						c-1.1,0.2-2.3,0.2-3.6,0.1c-0.3,0-0.8-0.1-1.1-0.1l0,0c-0.7-0.1-1.3-0.2-2-0.1c-0.1,0-0.2,0-0.3,0H52c-0.1,0-0.2,0-0.3,0.1
						c-0.2,0.1-0.6,0.1-0.7,0.2c-0.4,0.2-1,0.4-1.4,0.7c-1,0.4-2,0.9-3.2,1.2c-1.1,0.2-2.3,0.2-3.5,0c-0.1,0-0.2-0.1-0.3-0.2
						c-0.1-0.1-0.1-0.2-0.1-0.3c0-0.2,0.2-0.4,0.6-0.3c1,0.1,2,0,3-0.2c1-0.3,2-0.8,2.9-1.3c0.1,0,0.2-0.1,0.3-0.1h0.1
						c0.9-0.4,1.8-0.9,2.9-1.1c0.7-0.1,1.2-0.1,1.8,0c0.2,0,0.4,0,0.7,0l0,0c0.3,0,0.7,0,1,0.1c1.1,0,2,0,3-0.2
						c0.9-0.2,1.9-0.6,2.9-1c0.2-0.1,0.4-0.2,0.7-0.3l0,0c0.2-0.1,0.6-0.3,0.9-0.4c0.7-0.3,1.1-0.4,1.7-0.7c0.6-0.2,1.2-0.3,1.8-0.4
						h0.2v-0.6l-24.7-1.1c-0.1,0-0.1-0.1-0.1-0.1s0-0.1,0.1-0.1l24.7-1.4l0,0v-0.2c0-0.2,0-0.4,0.1-0.6v-0.1l-0.4-0.4h-0.1
						c-0.1-0.1-0.2-0.1-0.4-0.2c-0.4-0.1-0.9-0.2-1.3-0.2c-0.4,0-0.9-0.1-1.6-0.1c-0.3,0-0.6,0-0.8,0s-0.6,0-0.8,0
						c-1.2,0-2.4,0-3.5-0.2c-1.1-0.2-2.2-0.7-3.3-1.2c-0.3-0.2-0.7-0.3-1-0.6c-0.7-0.3-1.2-0.7-1.8-0.9c-0.1,0-0.2,0-0.2-0.1h-0.1
						c-0.1,0-0.2,0-0.3,0c-0.2,0-0.4,0-0.8,0l0,0c-0.6,0-1.1,0-1.6,0.1c-1.1,0.1-2.2,0.1-3.5,0c-1.1-0.2-2.2-0.6-3.2-1.2
						C42.1,45,42,44.8,42,44.7c0-0.1,0-0.2,0.1-0.3c0.1-0.2,0.4-0.3,0.7-0.2c0.9,0.4,1.9,0.8,2.9,0.9c1,0.1,2.1,0,3.1-0.2
						c0.1,0,0.2,0,0.2,0h0.1c1-0.1,2-0.2,3.1,0c0.7,0.1,1.2,0.3,1.7,0.6c0.2,0.1,0.3,0.2,0.6,0.2l0,0c0.3,0.1,0.6,0.2,0.9,0.4
						c1,0.4,1.9,0.7,2.9,0.8c0.9,0.1,2,0.1,3,0c0.2,0,0.4,0,0.7-0.1c0.3,0,0.7-0.1,0.9-0.1c0.7,0,1.2-0.1,1.8,0h0.1h1.1L44.2,36.3
						c-0.1-0.1-0.1-0.1-0.1-0.2c0,0,0.1-0.1,0.2-0.1l23.7,8.3l0,0l0.1-0.2c0,0,0.2-0.3,0.2-0.4l0.1-0.1l-0.1-0.1
						c-0.1-0.1-0.2-0.2-0.3-0.3c-0.3-0.3-0.8-0.6-1.2-0.8c-0.3-0.2-0.8-0.4-1.3-0.7c-0.2-0.1-0.6-0.2-0.8-0.3l0,0
						c-0.2-0.1-0.4-0.2-0.7-0.3c-1.1-0.4-2.2-1-3.1-1.7c-0.9-0.7-1.8-1.4-2.6-2.3c-0.2-0.3-0.4-0.6-0.7-0.9
						c-0.4-0.6-0.9-1.1-1.3-1.4c-0.1-0.1-0.1-0.1-0.2-0.2H56c-0.1,0-0.1-0.1-0.2-0.2c-0.2-0.1-0.4-0.2-0.7-0.3
						c-0.4-0.2-1-0.4-1.4-0.6c-1-0.3-2.1-0.8-3.1-1.3c-1-0.6-1.9-1.4-2.6-2.3c-0.1-0.2-0.1-0.6,0.1-0.7c0.2-0.1,0.4-0.1,0.7,0.1
						c0.7,0.8,1.4,1.4,2.3,2c0.9,0.4,2,0.8,2.9,1c0.1,0,0.2,0.1,0.3,0.1l0,0c0.9,0.2,1.9,0.6,2.9,1.2c0.6,0.3,0.9,0.8,1.3,1.2
						c0.1,0.1,0.3,0.3,0.4,0.4c0.2,0.2,0.4,0.6,0.7,0.8c0.8,0.8,1.4,1.4,2.3,1.9c0.8,0.4,1.8,0.9,2.8,1.2c0.2,0.1,0.4,0.1,0.7,0.2
						l0,0c0.2,0.1,0.6,0.2,0.9,0.3c0.7,0.2,1.1,0.4,1.7,0.7c0.6,0.2,1.1,0.6,1.7,0.9c0,0,0.1,0.1,0.2,0.1l0.2,0.1l0.3-0.3L53.3,23.1
						c-0.1-0.1,0-0.2,0-0.2s0.1-0.1,0.2,0l19,16.2l0,0l0.1-0.1c0.1-0.1,0.2-0.2,0.3-0.2l0.1-0.1v-0.1c0-0.1-0.1-0.2-0.1-0.3
						c-0.2-0.4-0.4-0.8-0.8-1.1c-0.2-0.3-0.6-0.7-1-1.1c-0.2-0.2-0.4-0.4-0.6-0.6l0,0c-0.2-0.2-0.3-0.3-0.6-0.6
						c-0.9-0.9-1.7-1.8-2.2-2.7c-0.7-0.9-1.1-2-1.4-3.2c-0.1-0.3-0.2-0.8-0.3-1l0,0c-0.2-0.7-0.3-1.3-0.7-1.9c0-0.1-0.1-0.2-0.1-0.2
						v-0.1c0-0.1-0.1-0.2-0.2-0.2c-0.1-0.2-0.3-0.4-0.4-0.6c-0.3-0.3-0.8-0.8-1.1-1.1c-0.8-0.8-1.7-1.6-2.3-2.4
						c-0.7-0.9-1.1-2-1.4-3.2c0-0.1,0-0.2,0.1-0.3c0.1-0.1,0.2-0.2,0.3-0.2c0.2,0,0.4,0.1,0.6,0.3c0.3,1,0.8,1.9,1.4,2.7
						c0.7,0.8,1.6,1.4,2.3,2.1c0.1,0.1,0.2,0.2,0.3,0.2c0.8,0.6,1.6,1.2,2.1,2.2c0.3,0.6,0.6,1.1,0.8,1.7c0.1,0.2,0.1,0.4,0.2,0.6
						l0,0c0.1,0.3,0.2,0.7,0.3,0.9c0.3,1,0.8,1.9,1.4,2.7c0.6,0.8,1.2,1.6,2.1,2.2c0.2,0.1,0.3,0.3,0.6,0.4l0,0
						c0.2,0.2,0.4,0.4,0.7,0.6c0.6,0.4,0.9,0.9,1.2,1.2c0.4,0.4,0.8,1,1.1,1.4c0,0,0,0.1,0.1,0.1l0.1,0.2l0.4-0.2l-8.7-23.4
						c0-0.1,0-0.2,0.1-0.2c0,0,0.1,0,0.2,0.1l11,22.4l0,0l0.2-0.1c0.1,0,0.3-0.1,0.4-0.1h0.2v-0.2c0-0.1,0-0.1,0-0.2
						c0-0.4-0.1-0.9-0.2-1.3S79.2,33,79,32.5c-0.1-0.2-0.2-0.4-0.3-0.7l-0.1-0.1c-0.1-0.2-0.2-0.4-0.2-0.7c-0.4-1.1-0.8-2.2-1-3.3
						c-0.2-1.1-0.2-2.3-0.1-3.6c0-0.3,0.1-0.8,0.1-1.1c0.1-0.7,0.2-1.4,0.1-2c0-0.1,0-0.2,0-0.3c0,0,0,0,0-0.1l0,0
						c0-0.1,0-0.2-0.1-0.3c-0.1-0.2-0.1-0.4-0.2-0.7c-0.2-0.4-0.4-1-0.7-1.4c-0.4-1-0.9-2-1.2-3.2c-0.2-1.1-0.2-2.3,0-3.5
						c0-0.1,0.1-0.2,0.2-0.3c0.1-0.1,0.2-0.1,0.3-0.1c0.2,0,0.4,0.2,0.3,0.6c-0.1,1,0,2,0.2,3c0.3,1,0.8,2,1.3,2.9
						c0.1,0.1,0.1,0.2,0.2,0.3c0.4,0.9,0.9,1.8,1.1,2.9c0.1,0.7,0.1,1.2,0,1.8c0,0.2,0,0.4,0,0.7c0,0.3,0,0.7-0.1,1c0,1.1,0,2,0.2,3
						c0.2,0.9,0.6,1.9,1,2.9c0.1,0.2,0.2,0.4,0.3,0.7c0.1,0.2,0.2,0.6,0.4,0.9c0.3,0.7,0.4,1.1,0.7,1.7c0.2,0.6,0.3,1.2,0.4,1.8v0.2
						h0.6l1.1-24.7c0-0.1,0.1-0.1,0.1-0.1s0.1,0,0.1,0.1l1.4,24.7l0,0h0.2c0.2,0,0.4,0,0.7,0.1h0.1l0.1-0.1c0-0.1,0.1-0.2,0.2-0.4
						c0.1-0.4,0.2-0.9,0.2-1.3c0-0.4,0.1-0.9,0.1-1.6c0-0.2,0-0.6,0-0.9l0,0c0-0.2,0-0.4,0-0.8c0-1.2,0-2.4,0.2-3.5
						c0.2-1.1,0.7-2.2,1.2-3.3c0.2-0.3,0.3-0.7,0.6-1c0.3-0.7,0.7-1.2,0.9-1.8c0-0.1,0-0.2,0.1-0.2v-0.1c0-0.1,0-0.2,0-0.3
						c0-0.2,0-0.4,0-0.8c0-0.6,0-1.1-0.1-1.6c-0.1-1.1-0.1-2.2,0-3.5c0.2-1.1,0.6-2.2,1.2-3.2c0.1-0.1,0.2-0.2,0.3-0.2
						c0.1,0,0.2,0,0.3,0.1c0.2,0.1,0.3,0.4,0.2,0.7c-0.4,0.9-0.8,1.9-0.9,2.9c-0.1,1,0,2.1,0.2,3.1c0,0.1,0,0.2,0,0.3V18
						c0.1,1,0.2,2,0,3.1c-0.1,0.7-0.3,1.2-0.6,1.7c-0.4,0-0.6,0.2-0.6,0.4l0,0c-0.1,0.3-0.2,0.6-0.4,0.9c-0.4,1-0.7,1.9-0.8,2.9
						c-0.1,0.9-0.1,2,0,3c0,0.2,0,0.4,0.1,0.7c0,0.3,0.1,0.7,0.1,0.9c0,0.7,0.1,1.2,0,1.8v0.1v1.1L99.6,13c0.1-0.1,0.1-0.1,0.2-0.1
						c0,0,0.1,0.1,0.1,0.2l-8.6,23.7l0,0l0.2,0.1c0.2,0.1,0.3,0.2,0.6,0.3l0.1,0.1l0.1-0.1c0.1-0.1,0.1-0.1,0.2-0.2
						c0.2-0.3,0.6-0.8,0.8-1.2c0.2-0.3,0.4-0.8,0.7-1.3c0.1-0.2,0.2-0.4,0.3-0.8v-0.1c0.1-0.2,0.1-0.4,0.2-0.7
						c0.4-1.1,1-2.2,1.7-3.1c0.7-0.9,1.4-1.8,2.3-2.6c0.3-0.2,0.6-0.4,0.9-0.7l0,0c0.6-0.4,1.1-0.9,1.4-1.3c0.1-0.1,0.1-0.1,0.2-0.2
						v-0.1c0-0.1,0.1-0.1,0.2-0.3c0.1-0.2,0.2-0.4,0.3-0.7l0,0c0.2-0.4,0.3-1,0.6-1.4c0.3-1,0.8-2.1,1.3-3.1c0.6-1,1.4-1.9,2.3-2.6
						c0.1-0.1,0.2-0.1,0.3-0.1c0.1,0,0.2,0.1,0.3,0.2c0.1,0.2,0.1,0.4-0.1,0.7c-0.8,0.7-1.4,1.4-2,2.3c-0.4,0.9-0.8,2-1,3
						c0,0.1-0.1,0.2-0.1,0.3l0,0c-0.2,0.9-0.6,1.9-1.2,2.9c-0.3,0.6-0.8,0.9-1.2,1.3c-0.1,0.1-0.2,0.2-0.3,0.3l-0.1,0.1
						c-0.2,0.2-0.4,0.4-0.8,0.7c-0.8,0.8-1.4,1.4-1.9,2.3c-0.4,0.8-0.9,1.8-1.2,2.8c-0.1,0.2-0.1,0.4-0.2,0.7v0.1
						c-0.1,0.3-0.2,0.6-0.3,0.9c-0.2,0.7-0.4,1.1-0.7,1.7c-0.2,0.6-0.6,1.1-0.9,1.7l0,0l-0.1,0.2l0.4,0.3l18-17c0.1-0.1,0.2,0,0.2,0
						s0.1,0.1,0,0.2L96.9,41.1l0,0l0.1,0.1c0.1,0.1,0.2,0.2,0.3,0.4l0.1,0.1l0.1-0.1c0,0,0.1,0,0.1-0.1c0.4-0.2,0.8-0.4,1.1-0.8
						c0.3-0.2,0.7-0.6,1.1-1c0.2-0.2,0.4-0.4,0.6-0.6c0.2-0.2,0.3-0.3,0.6-0.6c0.9-0.9,1.8-1.7,2.7-2.2c0.9-0.7,2-1.1,3.2-1.4
						c0.3-0.1,0.8-0.2,1.1-0.3c0.7-0.2,1.3-0.3,1.9-0.7c0.1,0,0.2-0.1,0.2-0.1h0.1c0.1,0,0.2-0.1,0.2-0.2c0.2-0.1,0.3-0.3,0.6-0.4
						c0.3-0.3,0.8-0.8,1.1-1.1c0.8-0.8,1.6-1.7,2.4-2.3s2-1.1,3.1-1.4c0.1,0,0.2,0,0.3,0.1c0.1,0.1,0.2,0.2,0.2,0.3
						c0,0.2-0.1,0.4-0.3,0.6c-1,0.3-1.9,0.8-2.7,1.4s-1.4,1.6-2.1,2.3c-0.1,0.1-0.1,0.1-0.2,0.2l-0.1,0.1c-0.6,0.8-1.2,1.6-2.2,2.1
						c-0.6,0.3-1.1,0.6-1.7,0.8c-0.2,0.1-0.4,0.1-0.6,0.2c-0.3,0.1-0.7,0.2-0.9,0.3c-1,0.3-1.9,0.9-2.7,1.4
						c-0.8,0.6-1.6,1.2-2.2,2.1c-0.1,0.1-0.2,0.3-0.4,0.4v0.1c-0.2,0.2-0.4,0.4-0.7,0.7c-0.4,0.6-0.9,0.9-1.2,1.2
						c-0.4,0.4-0.9,0.8-1.4,1.1l-0.2,0.1l0.2,0.4l23.1-8.6c0.1,0,0.2,0,0.2,0.1c0,0,0,0.1-0.1,0.2l-21.8,10.8l0,0l0.1,0.2
						c0.1,0.2,0.1,0.3,0.1,0.6v0.2h0.2c0.4,0,0.9-0.1,1.3-0.2c0.4-0.1,0.9-0.2,1.4-0.4c0.2-0.1,0.4-0.2,0.8-0.3l0,0
						c0.2-0.1,0.4-0.2,0.7-0.3c1.1-0.4,2.2-0.8,3.3-1c1.1-0.2,2.3-0.2,3.6-0.1c0.3,0,0.8,0.1,1.1,0.1l0,0c0.7,0.1,1.4,0.2,2,0.1
						c0.1,0,0.2,0,0.3,0h0.1c0.1,0,0.2,0,0.3-0.1c0.2-0.1,0.4-0.1,0.7-0.2c0.4-0.2,1-0.4,1.4-0.7c1-0.4,2-0.9,3.2-1.2
						c1.1-0.2,2.3-0.2,3.5,0c0.1,0,0.2,0.1,0.3,0.2c0.1,0.1,0.1,0.2,0.1,0.3c0,0.2-0.3,0.4-0.6,0.3c-1-0.1-2,0-3,0.2
						c-1,0.3-2,0.8-2.9,1.3c-0.1,0-0.2,0.1-0.3,0.1l0,0c-0.9,0.4-1.8,0.9-2.9,1.1c-0.7,0.1-1.2,0.1-1.8,0c-0.2,0-0.4,0-0.7,0
						c-0.3,0-0.7,0-1-0.1c-1.1,0-2,0-3,0.2c-0.9,0.2-1.9,0.6-2.9,1c-0.2,0.1-0.4,0.2-0.6,0.3h-0.1c-0.2,0.1-0.6,0.2-0.8,0.4
						c-0.7,0.3-1.1,0.4-1.7,0.7c-0.6,0.2-1,0.3-1.6,0.4H101v0.4l24.7,1.7c0.1,0,0.1,0.1,0.1,0.1s0,0.1-0.1,0.1l-24.7,1v0.2
						c0,0.3-0.1,0.6-0.1,0.9V55l0.2,0.1c0.1,0,0.1,0,0.2,0c0.4,0.1,0.9,0.2,1.3,0.2c0.4,0,0.9,0.1,1.6,0.1c0.3,0,0.6,0,0.9,0h0.1
						c0.2,0,0.4,0,0.7,0c1.2,0,2.4,0,3.5,0.2c1.1,0.2,2.2,0.7,3.3,1.2c0.3,0.2,0.7,0.3,1,0.6c0.7,0.3,1.2,0.7,1.8,0.9
						c0.1,0,0.2,0,0.2,0.1h0.1c0.1,0,0.2,0,0.3,0c0.2,0,0.6,0,0.8,0l0,0c0.6,0,1.1,0,1.6-0.1c1.1-0.1,2.2-0.1,3.5,0
						c1.1,0.2,2.2,0.6,3.2,1.2c0.1,0.1,0.2,0.2,0.2,0.3c0,0.1,0,0.2-0.1,0.3c-0.1,0.2-0.4,0.3-0.7,0.2c-0.9-0.4-1.9-0.8-2.9-0.9
						c-1-0.1-2.1,0-3.1,0.2c-0.1,0-0.2,0-0.3,0l0,0c-1,0.1-2,0.2-3.1,0c-0.7-0.1-1.2-0.3-1.7-0.6c-0.2-0.1-0.4-0.2-0.6-0.2
						c-0.3-0.1-0.6-0.3-0.9-0.4c-1-0.4-1.9-0.7-2.9-0.8c-0.9-0.1-2-0.1-3,0c-0.2,0-0.4,0-0.7,0.1l0,0c-0.3,0-0.7,0.1-0.9,0.1
						c-0.7,0-1.2,0-1.8,0h-0.1h-1.1l12.4,5.9h0.1v-0.1c0,0,0-0.1,0.1-0.2c0,0,0.1,0,0.1-0.1h0.1l-10.6-5l0,0c0.2,0,0.6,0,0.9,0
						c0.3,0,0.7,0,0.9-0.1l0,0c0.2,0,0.4,0,0.7-0.1c1-0.1,2-0.1,2.9,0s1.9,0.3,2.8,0.8c0.3,0.1,0.6,0.2,0.9,0.4h0.1
						c0.2,0.1,0.3,0.1,0.6,0.2c0.6,0.2,1.1,0.4,1.8,0.7c1.2,0.2,2.2,0.1,3.2,0c0.1,0,0.2,0,0.4,0c1-0.1,2-0.2,3-0.2
						c1,0.1,1.9,0.3,2.8,0.8c0.4,0.2,1,0.1,1.2-0.3c0.1-0.2,0.2-0.4,0.1-0.7c-0.1-0.2-0.2-0.4-0.4-0.6c-1-0.7-2.2-1.1-3.5-1.2
						c-1.2-0.2-2.3-0.1-3.5,0c-0.4,0-1,0.1-1.6,0.1l0,0c-0.2,0-0.4,0-0.7,0l0,0c-0.1,0-0.2,0-0.2,0h-0.1c-0.1,0-0.1,0-0.2,0l0,0
						c-0.6-0.1-1.1-0.4-1.7-0.8l0,0c-0.3-0.2-0.7-0.3-1-0.6c-1.1-0.6-2.3-1-3.5-1.2c-1.1-0.2-2.3-0.3-3.6-0.3c-0.3,0-0.6,0-0.8,0
						l0,0c-0.2,0-0.6,0-0.8,0c-0.6,0-1.1,0-1.4-0.1c-0.4,0-0.9-0.1-1.2-0.2l0,0l0,0c0-0.1,0-0.3,0-0.4l24.4-1c0.3,0,0.6-0.3,0.6-0.6
						C126.4,52.4,126.2,52.1,125.8,52.1z M99.1,26.1L99.1,26.1L99.1,26.1L99.1,26.1z"/>
					<path class="st0" d="M53.1,65.9L53.1,65.9c-0.1,0.2-0.2,0.3-0.2,0.4l-0.1,0.1l11.6-4.3c0.7-0.3,1.2-0.7,1.7-1l1.1-0.6
						L53.1,65.9z"/>
				</g>
				<g>
					<path class="st0" d="M88.8,46c-1.1,0.3-1.7,1.1-1.7,1.1L87,47.2l0.1,0.1c0.8,0.9,1.8,1.2,2.8,1.2c1.8,0,3.5-1.1,3.5-1.1
						l0.2-0.2L93.3,47C91.3,45.5,89.7,45.6,88.8,46z M88.9,46.4c-0.1,0.4-0.2,1.2,0.1,1.7c-0.6-0.1-1-0.3-1.4-0.9
						C87.8,47,88.2,46.6,88.9,46.4z M90.8,48c0.4-0.4,0.3-1.2,0.2-1.7c0.6,0.1,1.1,0.4,1.8,0.9C92.3,47.4,91.7,47.8,90.8,48z"/>
					<path class="st0" d="M90,44.8L90,44.8c-1.6,0-3,0.7-4.3,2L85.5,47l0.1,0.1c0,0.1,0.8,1.8,2.7,2.3c0.4,0.1,0.9,0.2,1.3,0.2
						c1.2,0,2.7-0.4,4.1-1.4l-0.2-0.3c-1.9,1.2-3.7,1.6-5,1.1c-1.4-0.4-2.1-1.6-2.3-2c1.2-1.1,2.4-1.8,3.9-1.7c2.6,0,4.5,2,4.5,2
						l0.3-0.3C94.7,47,92.7,44.8,90,44.8z"/>
					<path class="st0" d="M77.4,48.5c1,0,1.9-0.3,2.8-1.2l0.1-0.1l-0.1-0.1c0,0-0.6-0.8-1.7-1.1c-1-0.3-2.6-0.4-4.6,1.1l-0.2,0.2
						l0.2,0.2C74,47.5,75.6,48.5,77.4,48.5z M79.7,47.2c-0.4,0.4-1,0.7-1.4,0.9c0.3-0.4,0.2-1.2,0.1-1.7
						C79.1,46.6,79.5,47,79.7,47.2z M76.3,46.4c-0.1,0.4-0.2,1.2,0.2,1.7c-0.9-0.2-1.6-0.6-2-0.8C75.2,46.7,75.7,46.5,76.3,46.4z"/>
					<path class="st0" d="M89.8,42.6c-3.7,0-5.8,2-5.8,5.5c0,3.7,1.3,4,2.1,4.2c0.1,0,0.2,0,0.3,0.1c0.7,0.1,1,0.2,1,0.9
						c0,0.3-0.1,0.4-0.4,0.6c-0.4,0.2-1.2,0-1.6-0.3l-0.2-0.1l-0.1,0.2c0,0-0.4,0.4-1.4,0.4c-1,0-1.4-0.4-1.4-0.4l-0.1-0.2l-0.2,0.2
						c-0.4,0.4-1.1,0.6-1.6,0.3c-0.2-0.1-0.4-0.3-0.4-0.6c0-0.7,0.3-0.8,1-0.9c0.1,0,0.2,0,0.3-0.1c0.7-0.2,2-0.6,2-4.2
						c0-3.5-2.1-5.5-5.8-5.5c-3.3,0-5.6,2.8-5.7,2.9l0.3,0.3c0,0,2.1-2.7,5.2-2.7c3.5,0,5.3,1.8,5.3,5c0,3.3-1.1,3.7-1.7,3.8h-0.1
						c-0.1,0-0.2,0-0.2,0.1c-0.6,0.1-1.3,0.3-1.3,1.4c0,0.4,0.2,0.9,0.7,1c0.6,0.2,1.4,0.1,2-0.3c0.2,0.2,0.8,0.4,1.6,0.4l0,0
						c0.8,0,1.3-0.2,1.6-0.4c0.3,0.3,0.9,0.4,1.3,0.4c0.2,0,0.4,0,0.7-0.1c0.4-0.2,0.7-0.6,0.7-1c0-1.1-0.8-1.3-1.3-1.4
						c-0.1,0-0.2,0-0.2-0.1h-0.1l0,0c-0.6-0.1-1.7-0.4-1.7-3.8c0-3.2,1.9-5,5.3-5c3.1,0,5.2,2.7,5.2,2.7l0.3-0.3
						C95.3,45.4,93.1,42.6,89.8,42.6z"/>
					<path class="st0" d="M81.6,47.1l0.1-0.1l-0.1-0.1c-1.3-1.3-2.8-2-4.2-2l0,0c-2.7,0-4.7,2-4.8,2.1l0.3,0.3c0,0,2-2,4.5-2l0,0
						c1.3,0,2.7,0.6,3.8,1.7c-0.2,0.4-1,1.6-2.3,2c-1.4,0.4-3.1,0-5-1.1l-0.3,0.4c1.4,0.9,2.9,1.4,4.1,1.4c0.4,0,0.9-0.1,1.3-0.2
						C80.9,48.8,81.6,47.2,81.6,47.1z"/>
				</g>
			</g>
		</g>
	</g>
	<path class="st0" d="M83.9,192.4c-26.6,0-48.3-30.5-48.3-68c0.1-37.5,21.7-68,48.3-68s48.3,30.5,48.3,68
		C132.2,161.9,110.6,192.4,83.9,192.4z M83.9,57.8c-25.9,0-47,29.9-47,66.7s21,66.7,47,66.7s47-29.9,47-66.7
		C130.9,87.7,109.8,57.8,83.9,57.8z"/>
	<g>
		<path class="st1" d="M41.1,93.5"/>
	</g>
	<g>
		<path class="st0" d="M147.2,121.2c-0.1-0.1-0.3,0-0.4,0.1c-0.3,0.2-0.7,0.6-1,0.9l-0.1,0.1c-0.7,0.6-1.4,1.3-2.2,2
			c-0.3-1-0.7-1.9-1-2.8l0,0c-0.1-0.3-0.2-0.6-0.3-0.8c0.2-0.1,0.4-0.3,0.7-0.4c1.3-1,2.6-1.9,3.2-3.7c0.1-0.2,0.1-0.4,0.2-0.7
			c0.6-2,0.2-5.1-0.1-7.5c0-0.4-0.1-0.9-0.1-1.2c0-0.1-0.1-0.3-0.3-0.3c-0.1,0-0.3,0-0.4,0.1c-0.2,0.3-0.6,0.7-0.9,1.1
			c-0.6,0.7-1.2,1.6-1.9,2.3c-0.4-0.9-1-1.8-1.4-2.6l0,0c-0.2-0.3-0.4-0.7-0.6-1c0.2-0.2,0.4-0.4,0.7-0.7c1.2-1.2,2.2-2.2,2.7-4.1
			c0-0.2,0.1-0.4,0.1-0.7c0.3-2-0.6-5.1-1.1-7.3c-0.1-0.4-0.2-0.8-0.3-1.2c0-0.1-0.2-0.2-0.3-0.3c-0.1,0-0.3,0-0.4,0.2
			c-0.2,0.3-0.4,0.8-0.8,1.2c-0.4,0.8-1,1.7-1.6,2.6c-0.6-0.8-1.2-1.7-1.8-2.3l0,0c-0.2-0.2-0.3-0.4-0.6-0.7
			c0.1-0.2,0.3-0.4,0.4-0.7c1-1.3,1.9-2.6,2-4.5c0-0.2,0-0.4,0-0.7c0-2-1.3-4.9-2.3-7.1c-0.2-0.4-0.3-0.8-0.6-1.1
			c-0.1-0.1-0.2-0.2-0.3-0.2c-0.1,0-0.3,0.1-0.3,0.2c-0.1,0.4-0.3,0.9-0.6,1.3l0,0c-0.3,0.9-0.8,1.8-1.1,2.8c-0.7-0.7-1.4-1.4-2.2-2
			c-0.2-0.2-0.4-0.4-0.7-0.7c0-0.2,0.1-0.3,0.1-0.6l0,0c0.4-1.8,0.8-3.5-0.2-5.6c-0.8-1.8-3-3.8-4.7-5.3l0,0c-0.3-0.3-0.7-0.7-1-0.9
			c-0.1-0.1-0.3-0.1-0.4-0.1c-0.1,0.1-0.2,0.2-0.2,0.3c0,0.4,0,0.9,0,1.3c0,1.3,0.1,3,0.2,4.5c-1.3-0.3-2.9-0.7-4.2-0.9
			c-0.4-0.1-1-0.2-1.3-0.2c-0.1,0-0.3,0-0.4,0.2c-0.1,0.1-0.1,0.3,0,0.4c0.2,0.3,0.4,0.7,0.8,1.1c1.3,2,3,4.5,4.7,5.6
			c1.3,0.9,2.6,1.1,3.8,1.1c0.6,0,1.1,0,1.7-0.1c0.1,0,0.2,0,0.3,0c0,0.2,0,0.3,0,0.6c0,1,0,2.1,0.1,3.1c-1-0.4-2-0.8-2.9-1.1
			c-0.4-0.2-1-0.3-1.3-0.4c-0.1-0.1-0.3,0-0.4,0.1c-0.1,0.1-0.1,0.3-0.1,0.4c0.1,0.3,0.3,0.7,0.6,1.1c1,2.1,2.3,5,3.8,6.5
			c1.8,1.6,3.3,1.8,5.2,1.9l0,0c0.2,0,0.3,0,0.6,0.1c0,0.2-0.1,0.4-0.1,0.7c-0.1,1-0.3,2-0.4,3.1c-0.9-0.6-1.9-1.1-2.7-1.6
			c-0.4-0.2-0.9-0.4-1.2-0.7c-0.1-0.1-0.3-0.1-0.4,0c-0.1,0.1-0.2,0.2-0.1,0.4c0.1,0.3,0.2,0.8,0.3,1.1l0,0c0.6,2.2,1.4,5.3,2.7,7
			c1.4,1.8,3,2.2,4.9,2.8l0,0c0.2,0.1,0.4,0.1,0.7,0.2c-0.1,0.3-0.2,0.7-0.3,1c-0.3,1-0.6,2-0.9,3c-0.8-0.7-1.7-1.3-2.4-1.9l0,0
			c-0.4-0.3-0.8-0.6-1.1-0.9c-0.1-0.1-0.3-0.1-0.4,0c-0.1,0.1-0.2,0.2-0.2,0.4c0,0.3,0.1,0.8,0.1,1.1v0.1c0.3,2.3,0.7,5.5,1.7,7.2
			c1.2,2,2.7,2.7,4.5,3.5c0.1,0.1,0.3,0.1,0.6,0.2c-0.1,0.2-0.2,0.4-0.3,0.7l0,0c-0.4,0.9-0.9,1.9-1.3,2.9c-0.7-0.8-1.4-1.6-2.1-2.2
			c-0.3-0.4-0.7-0.8-1-1c-0.1-0.1-0.3-0.1-0.4-0.1c-0.1,0-0.2,0.2-0.2,0.3c0,0.3,0,0.8,0,1.2c-0.1,2.3-0.2,5.6,0.4,7.5
			c0.8,2.2,2.2,3.1,3.8,4.1c0.2,0.1,0.4,0.3,0.7,0.4c-0.1,0.2-0.3,0.6-0.4,0.9l0,0c-0.6,0.9-1.1,1.8-1.6,2.8
			c-0.7-0.9-1.3-1.7-1.9-2.4c-0.3-0.4-0.7-0.8-0.9-1.1c-0.1-0.1-0.2-0.2-0.4-0.1c-0.1,0-0.2,0.2-0.3,0.3c0,0.3-0.1,0.7-0.1,1.1v0.1
			c-0.3,2.3-0.8,5.5-0.2,7.5c0.7,2.2,1.9,3.2,3.5,4.5c0.1,0.1,0.3,0.2,0.6,0.4c-0.1,0.2-0.3,0.3-0.4,0.6c-0.7,0.8-1.3,1.6-2,2.4
			c-0.4-0.9-1-1.9-1.4-2.7c-0.2-0.4-0.4-0.9-0.7-1.2c-0.1-0.1-0.2-0.2-0.3-0.2l0,0c-0.1,0-0.3,0.1-0.3,0.3c-0.1,0.3-0.2,0.7-0.3,1.1
			c-0.7,2.2-1.7,5.3-1.4,7.3c0.2,2.3,1.3,3.6,2.7,4.9c0.1,0.1,0.3,0.3,0.4,0.4c-0.2,0.1-0.3,0.3-0.6,0.4l0,0
			c-0.8,0.7-1.6,1.3-2.3,2.1c-0.3-1-0.7-2-1-2.9c-0.2-0.4-0.3-0.9-0.6-1.3c0-0.1-0.2-0.2-0.3-0.2c-0.1,0-0.3,0.1-0.3,0.2
			c-0.1,0.3-0.3,0.7-0.4,1v0.1c-1,2.1-2.4,5-2.4,7c-0.1,2.3,0.8,3.7,1.9,5.2c0.1,0.2,0.3,0.4,0.4,0.7c-0.2,0.1-0.6,0.3-0.9,0.4
			c-0.9,0.4-1.8,1-2.8,1.6c-0.1-1-0.2-2.1-0.4-3c-0.1-0.6-0.1-1-0.2-1.4c0-0.1-0.1-0.3-0.3-0.3c-0.1,0-0.3,0-0.4,0.1
			c-0.2,0.3-0.4,0.7-0.8,1c-1.4,1.9-3.3,4.5-3.9,6.3c-0.6,2.2,0,3.8,0.8,5.6c0.1,0.2,0.2,0.6,0.3,0.9c-0.3,0.1-0.7,0.2-1.1,0.3l0,0
			c-1,0.2-2,0.6-3,0.9c0.1-1,0.2-2.1,0.3-3c0-0.6,0.1-1,0.1-1.4c0-0.1-0.1-0.3-0.2-0.4c-0.1-0.1-0.3-0.1-0.4,0
			c-0.2,0.2-0.6,0.4-0.9,0.8l0,0c-1.8,1.4-4.3,3.5-5.3,5.2c-1.1,2.1-0.9,3.7-0.6,5.6c0,0.2,0.1,0.6,0.1,0.8c-0.3,0-0.7,0-1,0h-0.1
			c-1,0-2.1,0-3.1,0.1c0.4-1,0.8-2,1.1-2.9c0.2-0.4,0.3-0.9,0.6-1.3c0.1-0.1,0-0.3-0.1-0.4c-0.1-0.1-0.3-0.1-0.4-0.1
			c-0.3,0.1-0.7,0.3-1,0.4h-0.1c-2.1,0.9-5.1,2.2-6.6,3.7c-1.6,1.7-1.8,3.3-2,5.2c0,0.3-0.1,0.7-0.1,1c0,0.1,0,0.2,0,0.2
			c0,0.1,0.1,0.1,0.1,0.2c0.3,0.2,0.6,0.4,0.8,0.6l0,0c1.3,1,2.6,1.9,4.5,2.1c0.2,0,0.4,0,0.7,0c2,0,5-1.2,7.1-2.2
			c0.4-0.2,0.8-0.3,1.1-0.4c0.1-0.1,0.2-0.2,0.2-0.3c0-0.1-0.1-0.3-0.2-0.3c-0.3-0.1-0.8-0.3-1.2-0.6h-0.1c-0.9-0.3-1.8-0.8-2.8-1.1
			c0.8-0.7,1.4-1.4,2.1-2.1c0.3-0.3,0.7-0.7,1-1c0.2,0.1,0.6,0.2,0.8,0.3c1.2,0.4,2.3,0.9,3.7,0.9c0.3,0,0.8,0,1.2-0.1
			c0.2,0,0.4-0.1,0.7-0.1c2-0.6,4.5-2.6,6.3-4l0,0c0.3-0.2,0.7-0.6,0.9-0.8c0.1-0.1,0.2-0.2,0.1-0.4c0-0.1-0.2-0.2-0.3-0.3
			c-0.4,0-0.9-0.1-1.4-0.2c-0.9-0.1-1.9-0.2-3-0.3c0.6-0.9,1-1.8,1.4-2.7v-0.1c0.2-0.4,0.4-0.8,0.7-1.2c0,0,0,0,0-0.1
			c0.3,0,0.6,0.1,0.9,0.1l0,0c0.8,0.1,1.4,0.2,2.2,0.2c0.9,0,1.8-0.1,2.7-0.6c0.2-0.1,0.4-0.2,0.7-0.3c1.8-1,3.8-3.6,5.1-5.5
			c0.2-0.3,0.6-0.7,0.8-1c0.1-0.1,0.1-0.3,0-0.4c-0.1-0.1-0.2-0.2-0.4-0.2c-0.4,0-0.9,0.1-1.4,0.1c-0.9,0.1-2,0.2-3,0.3
			c0.3-1,0.6-2,0.8-2.9v-0.1c0.1-0.4,0.2-0.9,0.3-1.2c0.2,0,0.6,0,0.8-0.1c1.7-0.1,3.2-0.2,4.8-1.3c0.2-0.1,0.3-0.2,0.6-0.4
			c1.6-1.3,2.9-4.2,3.9-6.3c0.2-0.4,0.3-0.8,0.6-1.1c0.1-0.1,0-0.3-0.1-0.4c-0.1-0.1-0.3-0.1-0.4-0.1c-0.4,0.1-0.9,0.3-1.3,0.4
			c-0.9,0.3-1.9,0.6-2.8,1c0.1-1,0.1-2,0.2-3v-0.1c0-0.3,0-0.7,0-0.9c0.2-0.1,0.4-0.1,0.7-0.1l0,0c1.7-0.3,3.1-0.7,4.5-2
			c0.1-0.1,0.3-0.3,0.4-0.6c1.3-1.6,2.2-4.6,3-6.9c0.1-0.4,0.2-0.8,0.3-1.1c0-0.1,0-0.3-0.1-0.4c-0.1-0.1-0.3-0.1-0.4,0
			c-0.3,0.2-0.8,0.4-1.3,0.7c-0.8,0.4-1.8,0.9-2.7,1.3c-0.1-1-0.2-2-0.2-3c0-0.3-0.1-0.7-0.1-1c0.2-0.1,0.4-0.2,0.7-0.2
			c1.6-0.7,2.9-1.2,4.1-2.8c0.1-0.2,0.2-0.3,0.3-0.6c1-1.8,1.4-4.9,1.8-7.2v-0.1c0-0.4,0.1-0.8,0.1-1.1c0-0.1,0-0.3-0.2-0.4
			c-0.1-0.1-0.3-0.1-0.4,0c-0.3,0.2-0.8,0.6-1.1,0.9c-0.8,0.6-1.6,1.1-2.3,1.8c-0.2-1-0.6-2-0.8-2.9v-0.1c-0.1-0.4-0.2-0.8-0.3-1.1
			c0.2-0.1,0.4-0.2,0.7-0.3l0,0c1.6-0.8,2.8-1.4,3.8-3.1c0.1-0.2,0.2-0.4,0.3-0.6c0.9-1.8,1-5,1.1-7.3V123c0-0.4,0-0.8,0.1-1.1
			C147.4,121.4,147.3,121.2,147.2,121.2z M133.5,169c-0.9,1.9-2.2,2.6-3.8,3.3c-0.1,0.1-0.2,0.1-0.4,0.2c0-0.1-0.1-0.2-0.1-0.4
			c-0.3-1.8-0.7-3.2,0.2-5.1c0.3-0.7,0.9-1.3,1.6-2.1c0.2,0.9,0.3,1.7,0.3,2.3c0,0.1,0.1,0.3,0.2,0.3c0.1,0.1,0.3,0,0.4,0
			c0.6-0.4,1.3-0.9,2.1-1.2C134.1,167.4,133.8,168.3,133.5,169z M128.8,166.7c-0.9,1.8-0.8,3.2-0.4,4.8c-0.8-1.2-1.4-2.4-1.3-4.2
			c0.1-1.9,1.4-4.7,2.4-6.7l0.1-0.2c0.1,0.1,0.1,0.3,0.2,0.4c0.3,1,0.8,2.1,1.1,3.2C129.9,164.9,129.2,165.8,128.8,166.7z
			 M132.2,171.9c0.9-0.7,1.7-1.4,2.1-2.6c0.4-0.9,0.7-2,0.8-3.3c1-0.4,2.1-0.8,3.1-1.1l0,0c0.1,0,0.3-0.1,0.4-0.1l-0.1,0.2
			c-1,2-2.3,4.9-3.8,6.1c-1.3,1.1-2.6,1.4-4,1.6C131.4,172.4,131.7,172.2,132.2,171.9z M132.2,166.6c-0.1-0.7-0.2-1.4-0.4-2.3
			c0.9-0.9,1.8-1.7,2.6-2.3c0.1-0.1,0.2-0.2,0.3-0.2c0,0.1,0,0.2,0,0.3v0.2c0,1-0.1,2.2-0.2,3.3
			C133.6,165.8,132.8,166.2,132.2,166.6z M138.8,156c-0.7,2-1.8,2.9-3.2,3.9l-0.1,0.1c-0.1,0.1-0.1,0.1-0.2,0.2
			c0-0.1-0.1-0.2-0.1-0.3v-0.1c-0.7-1.8-1.1-3.1-0.6-5.1c0.2-0.7,0.7-1.4,1.2-2.3c0.3,0.8,0.7,1.6,0.8,2.3c0,0.1,0.1,0.2,0.2,0.3
			c0.1,0,0.3,0,0.4-0.1c0.4-0.6,1.2-1,2-1.6C139.2,154.4,139.1,155.4,138.8,156z M133.7,154.5c-0.6,1.9-0.2,3.3,0.2,4.8
			c-1-1.1-1.8-2.1-2-4c-0.2-1.9,0.7-4.8,1.3-7l0.1-0.2c0.1,0.1,0.1,0.3,0.2,0.4c0.6,0.9,1.1,2,1.7,3
			C134.6,152.6,134.1,153.6,133.7,154.5z M137.8,159.1c0.8-0.8,1.3-1.7,1.8-2.9c0.3-0.9,0.3-2.1,0.3-3.3c1-0.6,2-1.1,2.9-1.6l0,0
			c0.1-0.1,0.3-0.1,0.4-0.2l-0.1,0.2c-0.7,2.1-1.6,5.1-2.8,6.6c-1.1,1.3-2.3,1.8-3.7,2.1C137.2,159.7,137.5,159.5,137.8,159.1z
			 M137.2,153.8c-0.2-0.7-0.4-1.4-0.8-2.2c0.7-1,1.6-1.9,2.2-2.7l0.2-0.3c0,0.1,0,0.2,0,0.3v0.1c0.1,1,0.2,2.2,0.3,3.3
			C138.4,152.9,137.7,153.4,137.2,153.8z M142.1,142.4c-0.2,2.1-1.3,3.1-2.6,4.5c-0.1,0.1-0.2,0.2-0.3,0.3c-0.1-0.1-0.1-0.2-0.2-0.3
			c-0.9-1.6-1.7-2.9-1.3-5c0.1-0.8,0.4-1.6,0.8-2.4c0.4,0.8,0.9,1.4,1.1,2.1c0,0.1,0.2,0.2,0.3,0.2c0.1,0,0.3,0,0.3-0.2
			c0.4-0.6,1-1.2,1.7-1.8C142.1,140.7,142.1,141.7,142.1,142.4z M136.7,141.7c-0.2,2,0.3,3.3,1,4.7c-1.2-0.9-2.1-1.9-2.6-3.6
			c-0.6-1.8-0.1-4.9,0.2-7.1v-0.2c0.1,0.1,0.2,0.2,0.3,0.4c0.7,0.9,1.4,1.8,2.1,2.8C137.3,139.7,136.8,140.8,136.7,141.7z
			 M141.6,145.6c0.7-0.9,1.1-1.9,1.2-3.1c0.1-1,0-2.1-0.2-3.3c0.9-0.7,1.8-1.3,2.7-2l0,0c0.1-0.1,0.2-0.2,0.4-0.3v0.2
			c-0.3,2.2-0.7,5.3-1.7,6.9c-0.9,1.4-2,2.1-3.3,2.7C141,146.3,141.3,146,141.6,145.6z M140,140.6c-0.3-0.7-0.7-1.3-1.2-2
			c0.6-1.1,1.2-2.1,1.8-3l0.2-0.3c0,0.1,0.1,0.2,0.1,0.3v0.1c0.2,1,0.6,2.1,0.8,3.2C141.1,139.3,140.4,140,140,140.6z M136.2,98.8
			c0.8,0.6,1.3,1,1.8,1.6c0.1,0.1,0.2,0.1,0.4,0.1c0.1,0,0.2-0.1,0.3-0.3c0.1-0.7,0.4-1.6,0.9-2.3c0.6,0.9,1,1.7,1.2,2.4
			c0.6,2,0,3.3-0.7,5v0.1c0,0.1-0.1,0.2-0.1,0.3c-0.1-0.1-0.2-0.1-0.2-0.2h-0.1c-1.4-1.1-2.7-2-3.1-4
			C136.2,100.7,136.2,99.8,136.2,98.8z M141.5,103.4c0.2-1.1,0.2-2.2,0-3.3c-0.2-0.9-0.8-2-1.6-3c0.6-1,1.1-2,1.7-2.9l0.1-0.1
			c0.1-0.1,0.1-0.2,0.2-0.3l0.1,0.2c0.6,2.2,1.4,5.2,1.1,7c-0.2,1.7-1,2.7-2,3.7C141.3,104.3,141.4,103.8,141.5,103.4z M138.1,99.3
			c-0.6-0.4-1.2-1-1.9-1.4c0.1-1.2,0.3-2.4,0.4-3.5l0.1-0.3l0.3,0.3c0.7,0.8,1.3,1.8,2,2.7C138.6,97.8,138.3,98.6,138.1,99.3z
			 M135.6,101.6c0.6,1.9,1.6,3,2.8,4c-1.4-0.4-2.7-0.9-3.8-2.3c-1.1-1.4-2-4.5-2.6-6.7l-0.1-0.2c0.1,0.1,0.3,0.1,0.4,0.2
			c1,0.6,2,1.1,3,1.7C135.3,99.5,135.4,100.7,135.6,101.6z M141.4,121.3c0-0.1,0.1-0.1,0.1-0.2l0.2,0.4c0.3,1,0.8,2.1,1.1,3.1
			c-0.6,0.6-1.1,1.2-1.6,1.9c-0.3-0.7-0.8-1.3-1.3-1.9c0.4-1.1,1-2.2,1.4-3.2L141.4,121.3z M141.1,127.9c0.1,0,0.3-0.1,0.3-0.2
			c0.3-0.7,0.9-1.3,1.6-2c0.2,1,0.4,1.9,0.3,2.7c-0.1,2.1-1,3.2-2.2,4.6L141,133c-0.1,0.1-0.1,0.1-0.2,0.2c-0.1-0.1-0.1-0.2-0.2-0.3
			l0,0c-1-1.6-1.9-2.8-1.8-4.8c0-0.8,0.2-1.6,0.6-2.6c0.6,0.7,1,1.4,1.2,2C140.8,127.8,141,127.9,141.1,127.9z M138.1,128
			c-0.1,2,0.6,3.3,1.4,4.6c-1.2-0.9-2.2-1.7-2.9-3.3c-0.7-1.8-0.6-4.9-0.4-7.1v-0.2c0.1,0.1,0.2,0.2,0.3,0.3
			c0.8,0.8,1.6,1.7,2.3,2.6C138.5,126,138.2,127.1,138.1,128z M143.2,131.5c0.6-1,0.9-2,1-3.2c0-1-0.2-2.1-0.6-3.3
			c0.8-0.8,1.7-1.6,2.4-2.2l0,0c0.1-0.1,0.2-0.2,0.3-0.3v0.2c-0.1,2.2-0.2,5.3-1.1,7c-0.8,1.6-1.8,2.2-3,2.9
			C142.7,132.3,143,132,143.2,131.5z M140.4,114.1c0.1,0.1,0.2,0.2,0.3,0.2c0.1,0,0.3-0.1,0.3-0.2c0.2-0.7,0.7-1.4,1.2-2.2
			c0.4,0.9,0.8,1.8,0.8,2.6c0.2,2.1-0.4,3.3-1.4,4.9v0.1c-0.1,0.1-0.1,0.2-0.2,0.3c-0.1-0.1-0.2-0.2-0.3-0.3l0,0
			c-1.3-1.3-2.3-2.3-2.6-4.5c-0.1-0.8,0-1.7,0.2-2.6C139.5,112.8,140.1,113.5,140.4,114.1z M143.5,117.5c0.4-1.1,0.6-2.1,0.4-3.3
			c-0.1-1-0.6-2.1-1.1-3.2c0.7-0.9,1.4-1.8,2.1-2.6l0.1-0.1c0.1-0.1,0.1-0.2,0.2-0.3v0.2c0.2,2.2,0.7,5.3,0.1,7.1
			c-0.4,1.7-1.3,2.6-2.6,3.5C143.2,118.4,143.4,118,143.5,117.5z M140.7,113.1c-0.4-0.6-1-1.1-1.7-1.7c0.2-1.2,0.7-2.3,0.9-3.5v-0.1
			c0-0.1,0-0.2,0.1-0.2l0.2,0.4c0.6,0.9,1.1,1.9,1.7,2.9C141.4,111.6,141,112.4,140.7,113.1z M137.8,115c0.2,2,1.1,3.1,2.2,4.3
			c-1.3-0.7-2.6-1.2-3.5-2.8c-0.9-1.7-1.3-4.7-1.6-7v-0.2c0.1,0.1,0.2,0.2,0.4,0.3c0.9,0.7,1.9,1.3,2.7,2.1
			C138,112.8,137.7,114,137.8,115z M134.1,87.6c0.1-0.1,0.2-0.2,0.2-0.3c0-0.8,0.2-1.6,0.4-2.4c0.7,0.8,1.2,1.4,1.6,2.2
			c0.9,1.9,0.6,3.3,0.1,5.1c0,0.1-0.1,0.3-0.1,0.4c-0.1-0.1-0.2-0.1-0.3-0.2c-1.7-0.9-2.9-1.6-3.8-3.5c-0.3-0.7-0.4-1.6-0.7-2.6
			c0.8,0.3,1.6,0.8,2.1,1.2C133.7,87.7,133.8,87.7,134.1,87.6z M137.6,89.9c0.1-1.1-0.1-2.2-0.6-3.3c-0.4-0.9-1.1-1.8-2-2.8
			c0.3-1,0.8-2.1,1.2-3.1v-0.1c0.1-0.1,0.1-0.2,0.1-0.4l0.1,0.2c1,2.1,2.2,4.9,2.3,6.8c0,1.8-0.6,2.8-1.3,4
			C137.5,90.9,137.5,90.5,137.6,89.9z M133.5,86.5c-0.6-0.4-1.3-0.8-2.1-1.1c-0.1-1.2-0.1-2.4-0.1-3.6v-0.1c0-0.1,0-0.2,0-0.2
			c0.1,0.1,0.1,0.1,0.2,0.2l0.1,0.1c0.8,0.7,1.7,1.4,2.4,2.3C133.8,85,133.6,85.8,133.5,86.5z M131.4,89.1c0.9,1.8,2,2.7,3.5,3.5
			c-1.6-0.2-2.8-0.4-4.1-1.7s-2.7-4.1-3.7-6.1l-0.1-0.2c0.1,0,0.3,0.1,0.4,0.1c1,0.3,2.1,0.8,3.2,1.2
			C130.8,87.1,131.1,88.4,131.4,89.1z M130.3,80.1c-1.6-0.9-2.8-1.6-3.7-3.5c-0.1-0.3-0.3-0.8-0.4-1.2c0.4,0.2,0.9,0.3,1.2,0.6
			C129.2,77.1,129.7,78.5,130.3,80.1z M130.8,79.5c-0.6-1.6-1.2-3-3-4.1c-0.6-0.3-1.1-0.6-1.8-0.9c-0.2-1.6-0.2-3.2-0.3-4.7v-0.3
			c0.1,0.1,0.2,0.2,0.3,0.3c1.6,1.4,3.8,3.5,4.6,5.1C131.4,76.6,131.2,77.9,130.8,79.5z M125.9,77c0.9,2,2.2,2.8,3.7,3.6
			c-1.6,0.1-2.9,0.1-4.6-0.9c-1.6-1-3.2-3.5-4.5-5.3l-0.2-0.3c0.1,0,0.3,0,0.4,0.1c1.3,0.2,3,0.6,4.5,1
			C125.5,75.8,125.7,76.4,125.9,77z M125.8,181.2c-1.2,1.7-2.7,2-4.5,2.6c-0.1,0-0.3,0.1-0.4,0.1c0-0.1,0-0.2,0-0.4
			c0-1.9,0-3.3,1.3-5c0.4-0.6,1.1-1.2,1.9-1.8c0,0.9,0,1.7-0.1,2.4c0,0.1,0,0.3,0.1,0.4c0.1,0.1,0.3,0.1,0.4,0
			c0.7-0.3,1.4-0.6,2.3-0.8C126.7,179.7,126.3,180.6,125.8,181.2z M121.6,178c-1.2,1.6-1.4,3-1.4,4.6c-0.6-1.4-0.9-2.7-0.4-4.5
			c0.4-1.8,2.3-4.2,3.8-6.1l0.1-0.2c0,0.1,0,0.3,0.1,0.4c0.1,1.1,0.3,2.2,0.4,3.5C123.2,176.4,122.3,177.2,121.6,178z M123.8,183.7
			c1.1-0.4,1.9-1.1,2.7-2.1c0.6-0.8,1.1-1.9,1.4-3c1.1-0.2,2.2-0.3,3.3-0.4l0,0c0.2,0,0.3,0,0.4,0l-0.1,0.2
			c-1.3,1.8-3.3,4.2-4.9,5.2c-1.6,0.9-2.8,0.9-4.2,0.7C122.9,184.1,123.4,184,123.8,183.7z M124.9,178.5c0.1-0.7,0.1-1.6,0-2.3
			c1-0.7,2.1-1.2,3-1.8l0.3-0.2c0,0.1-0.1,0.3-0.1,0.4c-0.2,1-0.6,2.1-0.9,3.2C126.5,178.1,125.7,178.3,124.9,178.5z M115.4,191.5
			c-1.7,1.3-3.1,1.3-4.9,1.4c-0.1,0-0.3,0-0.4,0c0-0.1,0.1-0.2,0.1-0.4c0.4-1.8,0.8-3.2,2.4-4.6c0.6-0.4,1.3-0.9,2.3-1.2
			c-0.2,0.9-0.3,1.7-0.7,2.3c-0.1,0.1,0,0.3,0,0.4c0.1,0.1,0.2,0.2,0.4,0.1c0.7-0.1,1.6-0.2,2.4-0.2
			C116.6,190.3,116,191.1,115.4,191.5z M112,187.4c-1.6,1.2-2.1,2.7-2.4,4.1c-0.2-1.4-0.2-2.8,0.6-4.3c0.9-1.7,3.3-3.6,5.1-5
			l0.2-0.2c0,0.1,0,0.3,0,0.4c-0.1,1.1-0.2,2.2-0.3,3.5C113.9,186.3,112.8,186.7,112,187.4z M112.8,193.5c1.1-0.2,2.1-0.7,3-1.4
			c0.8-0.6,1.4-1.6,2.1-2.7c1.1,0.1,2.2,0.2,3.3,0.3h0.2c0.1,0,0.2,0,0.3,0l-0.2,0.2c-1.8,1.4-4.2,3.3-6,3.9
			c-1.7,0.4-2.9,0.2-4.2-0.3C111.9,193.6,112.4,193.6,112.8,193.5z M115.2,188.7c0.2-0.7,0.4-1.4,0.6-2.3c1.1-0.4,2.3-0.8,3.3-1
			l0.3-0.1c-0.1,0.1-0.1,0.3-0.2,0.4c-0.4,0.9-1,1.9-1.7,2.9C116.8,188.6,115.9,188.6,115.2,188.7z M102.7,198.9
			c-1.9,0.8-3.3,0.4-5.1,0h-0.1c-0.1,0-0.2-0.1-0.3-0.1c0.1-0.1,0.1-0.2,0.2-0.3l0,0c0.9-1.6,1.7-2.9,3.6-3.7
			c0.7-0.3,1.6-0.4,2.6-0.6c-0.4,0.8-0.8,1.4-1.2,2c-0.1,0.1-0.1,0.2-0.1,0.4c0.1,0.1,0.2,0.2,0.3,0.2c0.8,0,1.6,0.2,2.4,0.4
			C104.1,198,103.3,198.5,102.7,198.9z M100.7,194c-1.9,0.8-2.7,2-3.6,3.3c0.2-1.4,0.4-2.8,1.8-4.1s4.1-2.6,6.2-3.5l0.2-0.1
			c-0.1,0.1-0.1,0.3-0.2,0.4c-0.3,1-0.8,2.1-1.2,3.2C102.7,193.4,101.4,193.5,100.7,194z M99.7,200.1c0.2,0,0.4,0,0.7,0
			c0.9,0,1.8-0.2,2.7-0.6s1.9-1.1,2.8-1.9c1,0.3,2.1,0.8,3.1,1.2l0,0c0.1,0.1,0.3,0.1,0.4,0.2l-0.2,0.1c-2.1,0.9-5,2.1-6.8,2.1
			s-2.8-0.6-4-1.4C98.8,200,99.2,200.1,99.7,200.1z M103.2,196.1c0.4-0.6,0.8-1.3,1.1-2c1.2-0.1,2.4-0.1,3.6-0.1h0.4
			c-0.1,0.1-0.1,0.1-0.2,0.2l-0.1,0.1c-0.7,0.8-1.6,1.6-2.3,2.3C104.8,196.4,104,196.2,103.2,196.1z"/>
		<path class="st0" d="M114.1,64.9c1,2.1,2.2,4.7,3.7,5.9c1.7,1.4,3.2,1.6,5,1.7l0,0c0.3,0,0.6,0,0.9,0.1l0,0c0,0,0,0,0.1,0l0,0
			c0.1,0,0.1-0.1,0.2-0.1c0.1-0.1,0.1-0.2,0.1-0.3c-0.1-0.3-0.1-0.6-0.2-0.9c-0.3-1.8-0.7-3.2-2.3-4.7c-1.4-1.2-4.1-2.1-6.2-2.8
			c-0.4-0.1-0.9-0.3-1.3-0.4c-0.1,0-0.3,0-0.4,0.1c-0.1,0.1-0.1,0.3,0,0.4C113.7,64.1,113.9,64.5,114.1,64.9z M114.7,64.2l0.4,0.1
			c2,0.7,4.7,1.6,6,2.7c1.4,1.3,1.8,2.7,2.1,4.3l0,0c0,0.1,0,0.2,0.1,0.3c-0.1,0-0.2,0-0.3,0h-0.1c-1.8-0.1-3.1-0.2-4.6-1.6
			c-1.3-1.1-2.6-3.8-3.5-5.7C114.7,64.4,114.7,64.3,114.7,64.2z"/>
		<path class="st0" d="M69.4,192.6c-1.4-1.4-4.3-2.8-6.6-3.7l0,0c-0.3-0.1-0.8-0.3-1.1-0.4c-0.1-0.1-0.3,0-0.4,0.1
			c-0.1,0.1-0.1,0.3-0.1,0.4c0.1,0.4,0.3,0.9,0.4,1.3l0,0c0.3,0.9,0.7,1.9,1.1,2.9c-1.1,0-2.1,0-3.1-0.1h-0.1c-0.3,0-0.7,0-1,0
			c0-0.2,0.1-0.6,0.1-0.8l0,0c0.3-1.9,0.6-3.5-0.6-5.6c-1-1.8-3.5-3.8-5.3-5.2l0,0c-0.3-0.2-0.7-0.6-0.9-0.8c-0.1-0.1-0.3-0.1-0.4,0
			c-0.1,0.1-0.2,0.2-0.2,0.4c0,0.4,0.1,1,0.1,1.4c0.1,1,0.2,2,0.3,3c-1-0.3-2.1-0.7-3-0.9l0,0c-0.4-0.1-0.8-0.2-1.1-0.3
			c0.1-0.3,0.2-0.6,0.3-0.9c0.7-1.8,1.3-3.2,0.8-5.6c-0.6-2-2.4-4.6-3.9-6.3c-0.2-0.3-0.6-0.7-0.8-1c-0.1-0.1-0.2-0.2-0.4-0.1
			c-0.1,0-0.2,0.2-0.3,0.3c-0.1,0.4-0.1,0.9-0.2,1.4c-0.1,0.9-0.3,2-0.4,3c-0.9-0.6-1.9-1.1-2.8-1.6c-0.3-0.2-0.6-0.3-0.9-0.4
			c0.1-0.2,0.3-0.4,0.4-0.7c1.1-1.6,2-2.9,1.9-5.2c-0.1-2-1.4-4.9-2.4-7v-0.1c-0.2-0.3-0.3-0.8-0.4-1c-0.1-0.1-0.2-0.2-0.3-0.2
			s-0.3,0.1-0.3,0.2c-0.1,0.4-0.3,0.9-0.4,1.3l0,0c-0.3,0.9-0.7,1.9-1,2.9c-0.8-0.8-1.6-1.4-2.3-2.1l0,0c-0.2-0.2-0.3-0.3-0.6-0.4
			c0.1-0.1,0.3-0.3,0.4-0.4c1.3-1.4,2.4-2.6,2.7-4.9c0.2-2-0.8-5.1-1.4-7.3c-0.1-0.4-0.2-0.8-0.3-1.1c0-0.1-0.2-0.2-0.3-0.3
			c-0.1,0-0.3,0.1-0.4,0.2c-0.2,0.3-0.4,0.8-0.7,1.2c-0.4,0.9-1,1.8-1.4,2.7c-0.7-0.9-1.3-1.7-2-2.4l0,0c-0.1-0.2-0.3-0.3-0.4-0.6
			c0.1-0.1,0.3-0.2,0.4-0.4l0,0c1.4-1.1,2.8-2.1,3.5-4.5c0.6-2,0.1-5.1-0.2-7.5c-0.1-0.4-0.1-0.9-0.1-1.2c0-0.1-0.1-0.3-0.3-0.3
			c-0.1,0-0.3,0-0.4,0.1c-0.2,0.3-0.6,0.7-0.9,1.1c-0.6,0.8-1.2,1.6-1.9,2.4c-0.6-0.9-1.1-1.9-1.6-2.8l0,0c-0.2-0.3-0.3-0.6-0.6-0.9
			c0.2-0.1,0.4-0.3,0.7-0.4c1.6-1,3-1.9,3.8-4.1c0.7-1.9,0.6-5.1,0.4-7.5l0,0c0-0.4,0-0.8,0-1.2c0-0.1-0.1-0.3-0.2-0.3
			c-0.1-0.1-0.3,0-0.4,0.1c-0.3,0.3-0.7,0.7-1,1c-0.7,0.7-1.4,1.4-2.1,2.2c-0.4-1-0.9-2-1.3-2.9c-0.1-0.2-0.2-0.4-0.3-0.7
			c0.1-0.1,0.3-0.1,0.4-0.2l0,0c1.8-0.8,3.2-1.4,4.5-3.5c1-1.8,1.4-4.9,1.7-7.2l0,0c0-0.4,0.1-0.8,0.1-1.2c0-0.1-0.1-0.3-0.2-0.4
			c-0.1-0.1-0.3-0.1-0.4,0c-0.3,0.2-0.8,0.6-1.1,0.9c-0.8,0.6-1.7,1.2-2.4,1.9c-0.2-1-0.6-2.1-0.9-3l0,0c-0.1-0.3-0.2-0.7-0.3-1
			c0.2-0.1,0.4-0.1,0.7-0.2l0,0c1.8-0.6,3.5-0.9,4.9-2.8c1.2-1.6,2.1-4.7,2.7-7l0,0c0.1-0.4,0.2-0.8,0.3-1.1c0-0.1,0-0.3-0.1-0.4
			c-0.1-0.1-0.3-0.1-0.4,0c-0.3,0.2-0.9,0.4-1.2,0.7c-0.9,0.4-1.8,1-2.7,1.6C31.8,96,31.7,95,31.4,94l0,0c0-0.2-0.1-0.4-0.1-0.7
			c0.2,0,0.3,0,0.6-0.1l0,0c1.9-0.2,3.6-0.3,5.2-1.9c1.6-1.3,2.9-4.2,3.8-6.5c0.2-0.4,0.3-0.8,0.6-1.1c0.1-0.1,0-0.3-0.1-0.4
			c-0.1-0.1-0.3-0.1-0.4-0.1c-0.4,0.1-0.9,0.3-1.3,0.4c-0.9,0.3-1.9,0.7-2.9,1.1c0.1-1.1,0.1-2.1,0.1-3.1l0,0c0-0.2,0-0.3,0-0.6
			c0.1,0,0.2,0,0.3,0c0.6,0,1.1,0.1,1.7,0.1c1.2,0,2.4-0.2,3.8-1.1c1.7-1.1,3.3-3.6,4.7-5.6l0,0c0.2-0.3,0.6-0.8,0.8-1.1
			c0.1-0.1,0.1-0.3,0-0.4c0.3,0.1,0.1,0.1,0,0.1c-0.4,0.1-0.9,0.2-1.4,0.2c-1.3,0.2-2.9,0.4-4.2,0.9c0.2-1.4,0.2-3,0.2-4.5l0,0
			c0-0.4,0-0.9,0-1.2c0-0.1-0.1-0.3-0.2-0.3c-0.1-0.1-0.3,0-0.4,0.1c-0.3,0.3-0.7,0.7-1,1c-1.8,1.6-3.9,3.6-4.7,5.3
			c-1,2.1-0.6,3.7-0.2,5.6c0,0.1,0.1,0.3,0.1,0.6c-0.2,0.2-0.4,0.4-0.7,0.7l0,0c-0.7,0.7-1.4,1.3-2.2,2c-0.3-1-0.7-1.9-1.1-2.8l0,0
			c-0.2-0.4-0.3-0.9-0.6-1.3c-0.1-0.1-0.2-0.2-0.3-0.2l0,0c-0.1,0-0.3,0.1-0.3,0.2c-0.1,0.3-0.3,0.7-0.6,1.1c-1,2.1-2.3,5-2.3,7.1
			c0,0.2,0,0.4,0,0.7c0.1,1.9,1,3.1,2,4.5c0.1,0.2,0.3,0.4,0.4,0.7c-0.2,0.2-0.3,0.4-0.6,0.7l0,0c-0.6,0.8-1.2,1.6-1.8,2.3
			c-0.4-0.9-1-1.8-1.6-2.6l0,0c-0.2-0.4-0.6-0.9-0.8-1.2c-0.1-0.1-0.2-0.2-0.4-0.2c-0.1,0-0.3,0.1-0.3,0.3c-0.1,0.3-0.2,0.8-0.3,1.2
			c-0.6,2.2-1.4,5.3-1.1,7.3c0,0.2,0.1,0.4,0.1,0.7c0.4,1.9,1.6,2.9,2.7,4.1c0.2,0.2,0.4,0.4,0.7,0.7c-0.2,0.3-0.3,0.7-0.6,1l0,0
			c-0.4,0.8-1,1.7-1.4,2.6c-0.7-0.8-1.2-1.6-1.9-2.3l0,0c-0.3-0.4-0.7-0.8-0.9-1.1c-0.1-0.1-0.2-0.2-0.4-0.1c-0.1,0-0.2,0.2-0.3,0.3
			c0,0.3-0.1,0.8-0.1,1.2l0,0c-0.3,2.3-0.7,5.5-0.1,7.5c0.1,0.2,0.1,0.4,0.2,0.7c0.7,1.8,1.9,2.7,3.2,3.7c0.2,0.1,0.4,0.3,0.7,0.4
			c-0.1,0.2-0.2,0.6-0.3,0.8l0,0c-0.3,0.9-0.7,1.9-1,2.8c-0.8-0.7-1.6-1.3-2.2-2l0,0c-0.3-0.3-0.8-0.7-1-0.9
			c-0.1-0.1-0.3-0.1-0.4-0.1c-0.1,0.1-0.2,0.2-0.2,0.3c0,0.3,0,0.8,0.1,1.2l0,0c0.1,2.3,0.2,5.6,1.1,7.3c0.1,0.2,0.2,0.4,0.3,0.6
			c1,1.7,2.3,2.3,3.8,3.1l0,0c0.2,0.1,0.4,0.2,0.7,0.3c-0.1,0.3-0.2,0.7-0.3,1.1v0.1c-0.2,0.9-0.6,1.9-0.8,2.9
			c-0.8-0.7-1.7-1.2-2.3-1.8l0,0c-0.4-0.3-0.8-0.6-1.1-0.9c-0.1-0.1-0.3-0.1-0.4,0c-0.1,0.1-0.2,0.2-0.2,0.4c0,0.3,0.1,0.8,0.1,1.1
			l0,0c0.3,2.3,0.8,5.5,1.8,7.2c0.1,0.2,0.2,0.4,0.3,0.6c1.1,1.6,2.4,2.1,4.1,2.8c0.2,0.1,0.4,0.2,0.7,0.2c0,0.3-0.1,0.7-0.1,1
			c-0.1,0.9-0.2,2-0.2,3c-0.9-0.4-1.8-1-2.7-1.3c-0.4-0.2-0.9-0.4-1.3-0.7c-0.1-0.1-0.3-0.1-0.4,0c-0.1,0.1-0.2,0.2-0.1,0.4
			c0.1,0.3,0.2,0.8,0.3,1.1c0.7,2.2,1.7,5.3,3,6.9c0.1,0.2,0.3,0.3,0.4,0.6c1.3,1.3,2.8,1.7,4.5,2l0,0c0.2,0,0.4,0.1,0.7,0.1
			c0,0.3,0,0.7,0,1l0,0c0,0.9,0.1,2,0.2,3c-1-0.3-1.9-0.7-2.8-1l0,0c-0.4-0.1-0.9-0.3-1.3-0.4c-0.1,0-0.3,0-0.4,0.1
			c-0.1,0.1-0.1,0.3-0.1,0.4c0.1,0.3,0.3,0.7,0.6,1.1c1,2.1,2.4,5,3.9,6.3c0.2,0.1,0.3,0.3,0.6,0.4c1.6,1.1,3,1.2,4.8,1.3
			c0.2,0,0.6,0,0.8,0.1c0.1,0.3,0.2,0.8,0.3,1.2c0.2,0.9,0.4,1.9,0.8,2.9c-1-0.1-2-0.2-3-0.3c-0.6,0-1-0.1-1.4-0.1
			c-0.1,0-0.3,0.1-0.4,0.2c-0.1,0.1-0.1,0.3,0,0.4c0.2,0.3,0.4,0.7,0.8,1c1.4,1.9,3.3,4.5,5.1,5.3c0.2,0.1,0.4,0.2,0.7,0.3
			c1,0.4,1.8,0.6,2.7,0.6c0.8,0,1.4-0.1,2.2-0.2l0,0c0.2,0,0.6-0.1,0.8-0.1c0,0,0,0,0,0.1c0.2,0.3,0.4,0.8,0.7,1.2l0,0
			c0.4,0.8,0.9,1.8,1.4,2.6c-1,0.1-2,0.2-3,0.3c-0.6,0.1-1,0.1-1.4,0.2c-0.1,0-0.3,0.1-0.3,0.3c0,0.1,0,0.3,0.1,0.4
			c0.2,0.2,0.6,0.4,0.9,0.7l0.1,0.1c1.8,1.4,4.3,3.5,6.3,4c0.2,0.1,0.4,0.1,0.7,0.1l0,0c0.4,0.1,0.8,0.1,1.2,0.1
			c1.3,0,2.4-0.4,3.7-0.9c0.2-0.1,0.6-0.2,0.8-0.3c0.3,0.3,0.7,0.7,1,1l0,0c0.7,0.7,1.3,1.4,2.1,2.1c-1,0.3-1.9,0.8-2.8,1.1h-0.1
			c-0.4,0.2-0.9,0.3-1.2,0.6c-0.1,0.1-0.2,0.2-0.2,0.3c0,0.1,0.1,0.3,0.2,0.3c0.3,0.1,0.7,0.3,1.1,0.4c2.1,0.9,5.1,2.2,7.1,2.2
			c0.2,0,0.4,0,0.7,0c1.9-0.2,3.1-1,4.5-2.1l0,0c0.2-0.2,0.6-0.4,0.8-0.6c0.1,0,0.1-0.1,0.1-0.2s0.1-0.2,0-0.2c0-0.3-0.1-0.7-0.1-1
			C71.2,196,71,194.3,69.4,192.6z M65.2,196.9c0.1,0,0.3-0.1,0.3-0.2c0.1-0.1,0-0.3-0.1-0.4c-0.4-0.6-0.9-1.2-1.2-2
			c1,0.1,1.9,0.3,2.6,0.6c1.9,0.8,2.7,2.1,3.6,3.7c0.1,0.1,0.1,0.2,0.2,0.3c-0.1,0-0.2,0.1-0.3,0.1h-0.1c-1.8,0.4-3.2,0.8-5.1,0
			c-0.7-0.3-1.4-0.9-2.2-1.6C63.6,197.1,64.4,196.9,65.2,196.9z M67.1,194c-0.9-0.3-2-0.6-3.2-0.7c-0.4-1.1-0.9-2.2-1.2-3.2
			c-0.1-0.1-0.1-0.3-0.2-0.4l0.2,0.1c2.1,0.9,5,2.1,6.2,3.5c1.2,1.3,1.6,2.6,1.8,4.1C69.7,195.9,68.8,194.8,67.1,194z M64.4,196.1
			c-0.8,0.1-1.6,0.3-2.3,0.6c-0.9-0.8-1.7-1.7-2.3-2.3l-0.1-0.1c-0.1-0.1-0.1-0.1-0.2-0.2h0.4c1.1,0,2.3,0,3.6,0.1
			C63.6,194.8,63.9,195.5,64.4,196.1z M64.6,199.5c0.9,0.3,1.8,0.6,2.7,0.6c0.2,0,0.4,0,0.7,0c0.4,0,0.9-0.1,1.4-0.2
			c-1.1,0.8-2.2,1.4-4,1.4c-1.9,0-4.8-1.2-6.8-2.1l-0.2-0.1c0.1-0.1,0.3-0.1,0.4-0.2l0,0c1-0.4,2-0.9,3.1-1.2
			C62.8,198.4,63.7,199.2,64.6,199.5z M53,189.6c0.1,0,0.3,0,0.4-0.1c0.1-0.1,0.1-0.3,0-0.4c-0.3-0.7-0.6-1.4-0.7-2.3
			c0.9,0.3,1.7,0.8,2.3,1.2c1.7,1.3,2,2.8,2.4,4.6c0,0.1,0.1,0.2,0.1,0.4c-0.1,0-0.3,0-0.4,0c-1.8-0.1-3.3-0.1-4.9-1.4
			c-0.6-0.4-1.2-1.2-1.8-2C51.5,189.4,52.3,189.5,53,189.6z M58,191.5c-0.4-1.6-0.9-2.9-2.4-4.1c-0.8-0.6-1.8-1.1-3-1.6
			c-0.2-1.1-0.2-2.3-0.3-3.5v-0.1c0-0.1,0-0.2,0-0.4l0.2,0.2c1.8,1.4,4.2,3.3,5.1,5C58.4,188.7,58.3,190.1,58,191.5z M52.5,188.7
			c-0.8-0.1-1.6-0.1-2.4,0c-0.6-1-1.1-2-1.7-2.9l-0.1-0.1c-0.1-0.1-0.1-0.2-0.2-0.3l0.3,0.1c1,0.3,2.2,0.7,3.3,1
			C52,187.3,52.3,188.1,52.5,188.7z M51.7,192.2c0.9,0.8,1.9,1.2,3,1.4c0.4,0.1,0.9,0.1,1.4,0.1c-1.3,0.4-2.6,0.8-4.2,0.3
			c-1.8-0.6-4.2-2.4-6-3.9l-0.2-0.1c0.1,0,0.2,0,0.3,0h0.2c1-0.1,2.2-0.3,3.3-0.3C50.3,190.6,51,191.5,51.7,192.2z M43.4,179.5
			c0.1-0.1,0.2-0.2,0.1-0.4c-0.1-0.7-0.1-1.6-0.1-2.4c0.8,0.6,1.4,1.1,1.9,1.8c1.2,1.7,1.3,3.1,1.3,5c0,0.1,0,0.2,0,0.4
			c-0.1,0-0.3-0.1-0.4-0.1c-1.8-0.4-3.1-0.9-4.5-2.6c-0.4-0.6-0.9-1.4-1.2-2.4c0.9,0.2,1.7,0.4,2.3,0.8
			C43.1,179.6,43.2,179.6,43.4,179.5z M46,178c-0.6-0.8-1.4-1.4-2.6-2.2c0.1-1.1,0.3-2.3,0.4-3.5c0-0.2,0-0.3,0.1-0.4l0.1,0.2
			c1.3,1.8,3.2,4.2,3.8,6.1c0.4,1.8,0.1,3-0.4,4.5C47.5,181,47.2,179.5,46,178z M42.7,178.5c-0.7-0.2-1.6-0.4-2.3-0.7
			c-0.3-1.1-0.7-2.2-0.9-3.2v-0.1c0-0.1-0.1-0.2-0.1-0.3l0.3,0.2c0.9,0.6,2,1.1,3,1.8C42.6,177,42.6,177.8,42.7,178.5z M41.1,181.6
			c0.8,1,1.6,1.6,2.7,2.1c0.4,0.2,0.9,0.3,1.3,0.4c-1.4,0.1-2.7,0.1-4.2-0.7c-1.7-0.9-3.6-3.3-4.9-5.2l-0.1-0.2c0.1,0,0.3,0,0.4,0
			l0,0c1,0.1,2.2,0.2,3.3,0.4C40.1,179.8,40.6,180.8,41.1,181.6z M33.7,87.6c0.1,0.1,0.3,0,0.4,0c0.6-0.4,1.2-0.9,2.1-1.2
			c-0.1,1-0.3,1.9-0.7,2.6c-0.9,1.9-2.1,2.6-3.8,3.5c-0.1,0.1-0.2,0.1-0.3,0.2c0-0.1-0.1-0.2-0.1-0.4l0,0c-0.4-1.8-0.7-3.2,0.1-5.1
			c0.3-0.7,0.9-1.4,1.6-2.2c0.2,0.9,0.4,1.7,0.4,2.4C33.4,87.5,33.4,87.6,33.7,87.6z M36.2,89.1c0.4-0.9,0.7-2,0.8-3.2
			c1.1-0.4,2.2-0.9,3.2-1.2c0.1-0.1,0.3-0.1,0.4-0.1l-0.1,0.2c-1,2.1-2.2,4.9-3.7,6.1c-1.3,1.2-2.6,1.4-4.1,1.7
			C34.2,91.8,35.4,91,36.2,89.1z M34.1,86.5c-0.1-0.8-0.3-1.6-0.6-2.3c0.8-0.8,1.7-1.7,2.4-2.3l0.1-0.1c0.1-0.1,0.2-0.1,0.2-0.2v0.4
			c0,1.1,0,2.3-0.1,3.6C35.4,85.8,34.8,86.1,34.1,86.5z M30.7,86.7c-0.4,1.1-0.7,2.1-0.6,3.3c0,0.4,0.1,0.9,0.2,1.4
			c-0.8-1.2-1.4-2.2-1.3-4c0-1.9,1.3-4.7,2.3-6.8l0.1-0.2c0.1,0.1,0.1,0.3,0.2,0.4l0,0c0.3,1,0.8,2,1.2,3.1
			C31.8,84.9,31.1,85.8,30.7,86.7z M41,76.7c-0.9,1.9-2.1,2.6-3.7,3.5c0.7-1.7,1.1-3,2.8-4.1c0.3-0.2,0.8-0.4,1.2-0.6
			C41.3,75.9,41.2,76.3,41,76.7z M41.8,77c0.2-0.6,0.4-1.2,0.6-1.9c1.4-0.4,3.1-0.8,4.5-1c0.1,0,0.3-0.1,0.4-0.1L47,74.3
			c-1.2,1.8-2.9,4.3-4.5,5.3c-1.6,1-2.9,1-4.6,0.9C39.6,79.8,40.9,79,41.8,77z M39.8,75.3c-1.8,1.1-2.4,2.6-3,4.1
			c-0.3-1.6-0.6-2.9,0.2-4.6c0.8-1.7,2.9-3.7,4.6-5.1c0.1-0.1,0.2-0.2,0.3-0.3v0.3c0,1.4-0.1,3.2-0.3,4.7
			C40.9,74.8,40.2,75,39.8,75.3z M29.2,100.5c0.1,0,0.3,0,0.4-0.1c0.4-0.6,1.1-1,1.8-1.6c0,1,0,1.9-0.2,2.6c-0.6,2-1.7,2.9-3.1,4
			l-0.1,0.1c-0.1,0.1-0.1,0.1-0.2,0.2c0-0.1-0.1-0.2-0.1-0.4c-0.7-1.7-1.2-3-0.7-5c0.2-0.8,0.7-1.6,1.2-2.4c0.4,0.8,0.7,1.7,0.9,2.3
			C29,100.4,29.1,100.5,29.2,100.5z M32.1,101.6c0.2-0.9,0.2-2.1,0.2-3.3c1-0.7,2-1.2,3-1.8c0.1-0.1,0.3-0.1,0.4-0.2l-0.1,0.2
			c-0.6,2.2-1.4,5.2-2.6,6.7c-1.1,1.4-2.3,1.9-3.8,2.3C30.6,104.6,31.6,103.5,32.1,101.6z M29.5,99.3c-0.2-0.7-0.6-1.4-1-2.2
			c0.7-1,1.4-1.9,2-2.7c0.1-0.1,0.2-0.2,0.3-0.3l0.1,0.3c0.1,1,0.3,2.3,0.4,3.5C30.8,98.4,30.1,98.8,29.5,99.3z M26.1,100
			c-0.3,1.1-0.3,2.2,0,3.3c0.1,0.4,0.2,0.9,0.4,1.3c-1-1-1.8-2-2-3.7c-0.2-1.9,0.6-4.9,1.1-7l0.1-0.2c0.1,0.1,0.2,0.3,0.2,0.4l0,0
			c0.6,0.9,1.1,1.9,1.7,2.9C27,98,26.4,99.2,26.1,100z M26.1,121.4c0-0.1,0.1-0.2,0.1-0.3l0.2,0.3c0.4,1,1,2.1,1.4,3.2
			c-0.6,0.7-1,1.3-1.3,1.9c-0.4-0.6-1-1.2-1.6-1.9c0.3-1.1,0.8-2.2,1.1-3.1L26.1,121.4z M26.5,127.9L26.5,127.9
			c0.2,0,0.3-0.1,0.3-0.2c0.3-0.7,0.8-1.3,1.2-2c0.3,0.9,0.6,1.8,0.6,2.6c0.1,2.1-0.8,3.3-1.8,4.8c-0.1,0.1-0.1,0.2-0.2,0.3
			c-0.1-0.1-0.1-0.2-0.2-0.3l0,0c-1.2-1.4-2.1-2.6-2.2-4.6c0-0.8,0.1-1.7,0.3-2.7c0.7,0.7,1.2,1.3,1.6,2
			C26.2,127.8,26.3,127.9,26.5,127.9z M29.5,128c0-1-0.3-2.1-0.8-3.2c0.8-0.9,1.6-1.8,2.3-2.6c0.1-0.1,0.2-0.2,0.3-0.3v0.2
			c0.1,2.2,0.2,5.3-0.4,7.1c-0.7,1.7-1.7,2.6-2.9,3.3C29,131.3,29.7,130.1,29.5,128z M23.4,128.3c0.1,1.2,0.3,2.2,1,3.2
			c0.2,0.4,0.6,0.8,0.8,1.1c-1.2-0.7-2.3-1.4-3-2.9c-0.8-1.7-1-4.8-1.1-7v-0.2l0.4,0.3c0.8,0.7,1.7,1.4,2.4,2.2
			C23.7,126.2,23.4,127.4,23.4,128.3z M26.8,114.2c0.1,0,0.3,0,0.3-0.2c0.3-0.6,1-1.2,1.6-1.8c0.2,1,0.2,1.9,0.2,2.6
			c-0.2,2.1-1.2,3.1-2.6,4.5c-0.1,0.1-0.2,0.2-0.3,0.3c-0.1-0.1-0.1-0.2-0.2-0.3c-0.9-1.6-1.7-2.8-1.4-4.9c0.1-0.8,0.4-1.7,0.8-2.6
			c0.6,0.8,0.9,1.6,1.2,2.2C26.5,114.1,26.7,114.2,26.8,114.2z M29.8,115c0.1-1,0-2.1-0.2-3.3c0.9-0.8,1.9-1.4,2.7-2.1
			c0.1-0.1,0.2-0.2,0.4-0.3v0.2c-0.2,2.2-0.7,5.3-1.6,7c-0.9,1.6-2,2.2-3.5,2.8C28.7,118.1,29.5,117,29.8,115z M27,113.1
			c-0.3-0.7-0.8-1.3-1.2-2.1c0.6-1,1.1-2.1,1.7-2.9l0.2-0.4c0,0.1,0.1,0.2,0.1,0.3v0.1c0.3,1,0.7,2.2,0.9,3.3
			C28,112,27.4,112.5,27,113.1z M23.7,114.3c-0.1,1.2,0,2.2,0.4,3.3c0.2,0.4,0.4,0.9,0.7,1.2c-1.1-0.9-2-1.8-2.6-3.5
			c-0.6-1.8-0.1-4.9,0.1-7.1v-0.2c0.1,0.1,0.2,0.2,0.3,0.3l0,0c0.7,0.8,1.4,1.7,2.1,2.6C24.2,112.2,23.8,113.3,23.7,114.3z
			 M27.4,141.6c0.1,0.1,0.2,0.2,0.3,0.2s0.3-0.1,0.3-0.2c0.2-0.7,0.7-1.4,1.1-2.1c0.4,0.9,0.7,1.8,0.8,2.4c0.2,2.1-0.4,3.3-1.3,5
			c-0.1,0.1-0.1,0.2-0.2,0.3c-0.1-0.1-0.2-0.2-0.2-0.2l0,0c-1.3-1.3-2.3-2.3-2.6-4.5c-0.1-0.8,0-1.7,0.1-2.7
			C26.4,140.3,27.1,141,27.4,141.6z M30.9,141.7c-0.1-1-0.6-2-1.1-3.1c0.7-1,1.4-1.9,2.1-2.8c0.1-0.1,0.2-0.2,0.3-0.4v0.2
			c0.3,2.2,0.7,5.3,0.2,7.1c-0.4,1.8-1.4,2.7-2.6,3.6C30.6,145,31.1,143.7,30.9,141.7z M27.7,140.6c-0.4-0.6-1.1-1.1-1.8-1.7
			c0.2-1.1,0.6-2.2,0.9-3.2v-0.1c0-0.1,0.1-0.2,0.1-0.3l0.2,0.3c0.6,0.9,1.2,2,1.8,3C28.4,139.2,28,139.9,27.7,140.6z M24.9,142.6
			c0.1,1.2,0.6,2.2,1.2,3.1c0.3,0.3,0.6,0.8,0.9,1.1c-1.3-0.6-2.4-1.2-3.3-2.7c-1-1.6-1.3-4.7-1.7-6.9V137c0.1,0.1,0.2,0.2,0.4,0.3
			l0,0c0.9,0.6,1.8,1.3,2.7,2C24.9,140.3,24.7,141.6,24.9,142.6z M28.9,148.6c0.1,0.1,0.1,0.1,0.2,0.2v0.1c0.7,0.8,1.6,1.8,2.2,2.7
			c-0.3,0.8-0.7,1.6-0.8,2.2c-0.6-0.4-1.2-1-2-1.3c0-1.1,0.2-2.3,0.3-3.3V148.6z M28.5,153.4c0.8,0.4,1.4,1,2,1.6
			c0.1,0.1,0.2,0.1,0.4,0.1c0.1,0,0.2-0.2,0.3-0.3c0.1-0.7,0.3-1.4,0.8-2.3c0.6,0.8,1,1.6,1.2,2.3c0.7,2,0.1,3.3-0.6,5.1v0.1
			c0,0.1-0.1,0.2-0.1,0.3c-0.1-0.1-0.2-0.1-0.2-0.2l-0.1-0.1c-1.4-1.1-2.7-1.9-3.2-3.9C28.5,155.4,28.5,154.4,28.5,153.4z
			 M33.9,154.5c-0.3-0.9-0.9-1.9-1.6-2.9c0.4-1,1.1-2.1,1.7-3c0.1-0.1,0.1-0.3,0.2-0.4l0.1,0.2c0.7,2.2,1.6,5.1,1.4,7
			c-0.2,1.8-1,2.8-2,4C34.1,157.8,34.4,156.4,33.9,154.5z M28,156.2c0.3,1.1,0.9,2,1.8,2.9c0.3,0.3,0.7,0.7,1.1,0.9
			c-1.4-0.3-2.6-0.8-3.7-2.1c-1.2-1.4-2.1-4.5-2.8-6.6l-0.1-0.2c0.1,0.1,0.3,0.1,0.4,0.2l0,0c0.9,0.4,2,1,2.9,1.6
			C27.7,154.1,27.8,155.4,28,156.2z M36,167.7c0.1-0.1,0.2-0.2,0.2-0.3c0-0.7,0.1-1.6,0.3-2.3c0.7,0.7,1.2,1.4,1.6,2.1
			c0.9,1.9,0.7,3.3,0.2,5.1v0.1c0,0.1,0,0.2-0.1,0.3c-0.1-0.1-0.2-0.1-0.4-0.2c-1.7-0.9-2.9-1.6-3.8-3.3c-0.3-0.7-0.6-1.6-0.7-2.6
			c0.9,0.3,1.6,0.8,2.1,1.2C35.7,167.7,35.9,167.7,36,167.7z M38.9,166.7c-0.4-0.9-1.1-1.8-2-2.7c0.3-1.1,0.8-2.2,1.1-3.2
			c0.1-0.1,0.1-0.3,0.2-0.4l0.1,0.2c1,2,2.3,4.9,2.4,6.7c0.1,1.8-0.6,2.9-1.3,4.2C39.7,169.9,39.8,168.5,38.9,166.7z M35.4,166.6
			c-0.7-0.4-1.3-0.8-2.2-1.1c-0.1-1.1-0.2-2.3-0.2-3.3V162c0-0.1,0-0.2,0-0.3c0.1,0.1,0.2,0.2,0.3,0.2c0.8,0.7,1.8,1.6,2.6,2.3
			C35.8,165,35.6,165.8,35.4,166.6z M33.3,169.4c0.6,1.1,1.2,1.9,2.1,2.6c0.3,0.2,0.8,0.6,1.2,0.8c-1.4-0.1-2.7-0.4-4-1.6
			c-1.4-1.2-2.8-4-3.8-6.1l-0.1-0.2c0.1,0,0.3,0.1,0.4,0.1l0,0c1,0.3,2.1,0.7,3.1,1.1C32.7,167.3,33,168.5,33.3,169.4z M33.9,161.4
			L33.9,161.4L33.9,161.4L33.9,161.4z"/>
		<path class="st0" d="M43.9,72.4L43.9,72.4L43.9,72.4c0.4,0,0.7,0,1,0c1.8-0.1,3.3-0.1,5.1-1.6c1.4-1.2,2.8-3.8,3.8-5.8l0,0
			c0.2-0.3,0.3-0.8,0.6-1.1c0.1-0.1,0.1-0.3,0-0.4c-0.1-0.1-0.2-0.1-0.4-0.1c-0.3,0.1-0.8,0.2-1.3,0.4c-2.1,0.7-4.9,1.4-6.3,2.7
			c-1.7,1.4-2.1,2.9-2.4,4.7l0,0c-0.1,0.3-0.1,0.6-0.2,0.9c0,0.1,0,0.2,0.1,0.3C43.7,72.4,43.8,72.4,43.9,72.4z M44.5,71.7
			c0-0.1,0.1-0.2,0.1-0.4c0.4-1.7,0.8-3,2.2-4.2c1.3-1.1,4-1.9,6-2.4l0.4-0.1l-0.1,0.3c-1,1.9-2.3,4.5-3.7,5.6
			c-1.6,1.2-2.9,1.3-4.7,1.4l0,0C44.7,71.7,44.6,71.7,44.5,71.7z"/>
	</g>
	<path class="st0" d="M101.8,147.1l-0.7,0.6c0.7,0.7,0.6,1.3,0.1,1.8c-0.6,0.6-1.7,0.7-2.8-0.2c-0.1-0.1-0.7-0.7-1.3-1.2
		c-2.1-1.9-3.1-2.8-3.6-3.2c-0.1-0.1-0.1-0.1-0.1-0.1l0,0c-0.3-0.2-0.4-0.2-0.7,0l-0.3,0.3l0.3,0.3c0.1,0.1,1.1,1,2.6,2.4
		c0.8,0.7,1.6,1.4,1.7,1.6c0.8,0.9,0.8,1.7,0.4,2.1c-0.4,0.4-1.3,0.8-2.7-0.1c-0.4-0.2-0.8-0.6-1.2-0.8l-0.2-0.2l0,0
		c-0.4-0.3-1.3-1.2-2.1-1.9c-1.3-1.2-2-1.8-2.3-2l0,0l0,0c-0.3-0.2-0.3-0.1-0.6-0.1c-0.2,0.1-0.3,0.4-0.1,0.7l0,0c0,0,0,0,3,2.8
		l1.6,1.6c0.8,0.9,0.8,1.7,0.4,2.1c-0.4,0.4-1.3,0.8-2.7-0.1c-0.3-0.2-0.6-0.2-2.1-1.4c-2.3-1.9-2.3-1.9-2.4-1.9l0,0
		c-0.4,0-0.7,0.4-0.3,0.8c0.1,0.1-1-0.9,1.2,1.2c0.9,0.8,1,1,1.1,1.1c0.8,0.8,0.6,1.6,0.2,1.9c-0.3,0.4-1.2,0.7-2.4-0.1
		c-0.2-0.1-0.7-0.4-1.1-0.8l-0.1-0.1c0,0,0,0,0,0.1c0.4-0.6,0.7-1.1,0.7-1.7c0-0.4-0.2-1-1.1-1.4c-0.8-0.3-1.4-0.3-2.1,0
		c0-0.1,0-0.2,0-0.3c-0.1-0.4-0.3-1.1-1.4-1.6c-0.6-0.2-1.2-0.2-1.7-0.1l0,0c0-0.1,0-0.2,0-0.3c-0.1-0.6-0.4-1.3-1.6-1.8
		c-1.1-0.4-2-0.2-2.8,0.3c0-0.4-0.1-0.9-0.4-1.3c-0.6-0.9-1.3-1.1-1.8-1.1c-1.2,0.1-2.6,1.3-3.7,3.7c-0.3,0.8-0.4,1.4-0.4,2
		c0.1,0.8,0.4,1.2,0.9,1.6c0.4,0.3,1.2,0.4,1.9,0.1c0,0.7,0.2,1.2,0.7,1.6c0.4,0.4,1.1,0.7,1.9,0.7c0.4,0,0.9-0.2,1.4-0.4l0,0
		c0,0.6,0.2,1,0.6,1.2c0.3,0.3,1,0.7,1.7,0.6c0.4,0,1-0.2,1.7-0.7l0,0c0,0.3,0.2,0.6,0.3,0.8c0.3,0.3,0.8,0.7,1.4,0.7
		c0.4,0,1-0.1,1.7-0.6c0.1-0.1,0.2-0.1,0.3-0.2v21l0,0c0,0.8,0.7,1.4,1.4,1.4c0.8,0,1.4-0.7,1.4-1.4v-20.9c0.7,0.3,1.2,0.6,1.8,0.6
		c0.8,0,1.3-0.3,1.7-0.8c0.4-0.4,0.8-1.2,0.4-2l0.8,0.6c1.9,1.1,3.2,0.7,3.9-0.1c0.4-0.4,0.6-1.2,0.3-2l0,0c1.9,1.2,3.3,0.8,4,0
		c0.3-0.4,0.6-1,0.4-1.7c1.3,0.8,2.7,0.6,3.3-0.2C102.6,149.5,102.8,148.2,101.8,147.1z M84,154.5L84,154.5L84,154.5z M71,150.9
		c-0.7,0.7-1.3,0.7-1.8,0.4c-0.4-0.3-0.8-1.1-0.1-2.4c1.1-2.3,2.2-3.1,2.9-3.2c0.3,0,0.7,0.2,1,0.7c0.1,0.2,0.2,0.6,0.2,0.8
		c0,0.3,0,0.7-0.1,1c-0.6,0.6-1.1,1.2-1.4,1.8c-0.1,0.1-0.2,0.3-0.3,0.4C71.3,150.6,71.1,150.7,71,150.9z M75,152.5
		c-0.1,0.1-0.2,0.2-0.3,0.2c-1.3,1-2.2,0.8-2.7,0.3c-0.4-0.4-0.6-1.2,0.2-2.2c0.1-0.1,0.2-0.2,0.3-0.4c0.9-1.2,1.9-2.6,3.2-2.7
		c0.3,0,0.7,0,0.9,0.1c0.6,0.2,0.9,0.6,1,1c0,0.2,0,0.4-0.1,0.8c-0.9,0.7-1.6,1.6-1.9,2.1c-0.1,0.1-0.2,0.2-0.2,0.3
		C75.2,152.2,75.1,152.4,75,152.5z M78.7,153.9c-0.2,0.1-0.3,0.3-0.6,0.4c-1.1,0.9-2,0.7-2.4,0.3c-0.3-0.3-0.4-1.1,0.2-2
		c0.1-0.1,0.2-0.2,0.3-0.4c0.8-1.1,1.8-2.3,2.9-2.4c0.2,0,0.6,0,0.9,0.1c0.6,0.2,0.8,0.4,0.9,0.9c0,0.2,0,0.6-0.2,1
		c-0.4,0.3-0.8,0.8-1.1,1.1c-0.1,0.1-0.2,0.2-0.2,0.3C79,153.5,78.9,153.7,78.7,153.9z M81.5,155.4c-1.1,0.7-1.8,0.4-2.1,0.1
		c-0.3-0.3-0.3-1,0.3-1.7c0.1-0.1,0.2-0.2,0.3-0.3c0.8-0.9,1.7-1.9,2.7-1.9c0.2,0,0.4,0,0.7,0.2c0.4,0.2,0.7,0.4,0.7,0.8
		C84.1,153.1,83.5,154.2,81.5,155.4z"/>
	<path class="st0" d="M100.3,99.5c-0.2-1.8-0.7-3.5-1.4-4.9c-0.4-0.8-5.6-11-7.9-13.8c-0.9-1.1-5-5.2-9.2-4.5
		c-1.4,0.1-2.9,0.6-4.3,1.2c-3,1.3-5.8,3.2-8.5,5.3c-1.6,1.2-2.2,3.7-1.6,5.7c0.3,0.9,0.9,1.7,1.8,1.9c0.8,0.2,1.4,0,2.1-0.4
		c0.2-0.1,0.4-0.3,0.8-0.2c0,0.1-0.1,0.3-0.1,0.4s-0.1,0.2-0.2,0.3c-0.9,1.6-1.8,3-2.6,4.6c-0.2,0.4-0.4,1-0.6,1.4
		c-0.3,1.1-0.3,2.3-0.2,3.6c0.1,0.9,0.2,1.8,0.4,2.7c0.3,0.9,0.8,1.4,1.6,1.7c0.1,0,0.3,0.1,0.4,0.1c3,1.1,6.1,1.8,9.3,2.1
		c0.7,0.1,1.3,0.1,2.1,0.1v27.9c1,0.2,2-0.6,3-0.1v-27.8c0.1,0,0.3,0,0.4,0c1.7-0.1,3.3-0.3,4.9-0.7c2.8-0.6,5.6-1.4,8.2-2.4
		c0.7-0.2,1.1-0.8,1.3-1.6C100.4,101.2,100.4,100.3,100.3,99.5z M73.1,103.8c3.1-1.3,6.2-2.1,9.3-2.4v3.8v0.3
		C79.3,105.5,76.3,104.9,73.1,103.8z M85.3,105.6v-4.3c3.9,0,7.8,0.6,11.6,1.8C92.4,104.6,88.8,105.4,85.3,105.6z M99.2,101.7
		c-0.2,0.7-0.7,0.8-1.1,0.6c-1-0.4-2.1-0.8-3.2-1c-1.4-0.3-3.5-0.8-4.9-1c-1.9-0.2-4.3-0.3-6.2-0.2c-3.1,0.1-4.7,0.4-7.7,1.4
		c-1.2,0.4-2.8,1-4,1.4c-0.3,0.1-0.7,0.2-1.1,0.2c-0.6-0.1-0.9-0.3-1.1-0.9c-0.2-0.6-0.3-1.2-0.4-1.9c-0.1-1.1-0.2-2.1,0-3.2
		c0.1-0.7,0.3-1.3,0.7-1.9c0.8-1.4,1.7-2.9,2.4-4.2c0.1-0.2,0.2-0.3,0.3-0.6c0.2-0.4,0.6-1.6,0.8-2.1c0.8-2.4,5.8-3.2,7.7-4
		c-0.2-0.2-7.1,1-8.7,2.9c-0.9,1.1-2.8,2.9-4.2,0.8c-0.4-1.1-0.3-2.2,0.1-3.2c0.2-0.6,0.6-1,1.1-1.4c2.1-1.7,4.3-3.2,6.8-4.5
		c1.4-0.8,3-1.3,4.6-1.7c3.3-0.7,7.2,0.7,12.1,9c1,1.8,1.9,4.1,2.6,5.1c0,0,0,0,0,0.1c-1.6-0.7-5.3-0.9-7.3-0.7
		c-3.1,0.3-6,1.9-9.2,3c-2.2,0.8-4.7,0.8-4.5,2.8c1-1,3.1-1.6,4.5-2c2.7-0.9,3.5-1.3,6.2-2C87,92.1,93,90.7,96.7,93
		c0.1,0,0.3,0.2,0.4,0.3c1.2,1.8,1.9,3.7,2.2,5.9C99.4,100.2,99.4,100.9,99.2,101.7z"/>
	<path class="st0" d="M103.8,216.2c-2.8-4.7-10.8-8.3-14.5-9.5c2.1-2,4-4.7,4.1-6.8c0,0,0,0,0-0.1l0,0c0-1.3-0.1-3-1.1-4.2
		c-0.3-0.3-1.1-0.6-1.6-0.4c-0.3,0.1-3.9,0.7-7.5,0.6c-4-0.1-6.6-0.6-6.9-0.6c-0.4-0.1-1.2,0-1.6,0.4c-0.9,1.2-1.1,2.9-1.1,4.2l0,0
		c0,0,0,0,0,0.1c0.2,2.1,2,4.7,4.1,6.8c-3.7,1.1-11.7,4.8-14.5,9.5c-0.1,0.1-0.1,0.3,0,0.4c0.1,0.1,0.3,0.1,0.4,0.1
		c1.4-0.7,2.8-0.8,3.9-0.3c1.2,0.4,2.2,1.6,2.8,3.1c0.1,0.1,0.2,0.2,0.3,0.2l0,0c0.1,0,0.3-0.1,0.3-0.2c1.6-4.3,6.7-9.3,9-10.9
		c0.1,0.6,0.7,0.9,1.2,1c0.6,0.1,1.1,0.1,1.8,0.1l0,0l0,0h0.1h0.1l0,0l0,0c0.6,0,1.1,0,1.8-0.1c0.7-0.1,1.1-0.4,1.2-1
		c2.3,1.6,7.3,6.5,9,10.9c0,0.1,0.2,0.2,0.3,0.2l0,0c0.1,0,0.3-0.1,0.3-0.2c0.7-1.6,1.6-2.7,2.8-3.1c1.1-0.4,2.6-0.3,3.9,0.3
		c0.1,0.1,0.3,0,0.4-0.1C103.9,216.6,103.9,216.3,103.8,216.2z M75.6,196.1c0.1-0.1,0.4-0.2,0.8-0.1c0.3,0.1,2.7,0.4,7.1,0.7
		c4.2,0.1,7.2-0.6,7.7-0.7c0.2-0.1,0.7,0.1,0.8,0.1c0.2,0.3,0.4,0.7,0.6,1.1c-5.9,1.3-11.4,1.4-17.4,0
		C75.2,196.8,75.4,196.4,75.6,196.1z M74.7,199.9c0-0.4,0-0.9,0.1-1.2c6.1,1.4,11.7,1.6,17.9,0c0,0.4,0.1,0.9,0.1,1.3c0,0,0,0,0,0.1
		C87.8,201.7,79.7,201.5,74.7,199.9L74.7,199.9z M87.1,205.7c0-0.1,0-0.2,0-0.4l0,0c0.6-1,0.9-2.2,0.9-3.2c0.1,0,0.1,0,0.2,0l0,0
		c0.4-0.1,0.8-0.1,1.1-0.2l0,0c0.1,0,0.2,0,0.3-0.1C89.1,203.1,88.2,204.4,87.1,205.7z M80.5,205.2c0,0.1,0,0.2,0,0.4
		c-1.1-1.2-2-2.6-2.6-4c0.1,0,0.2,0,0.3,0.1l0,0c0.3,0.1,0.8,0.1,1.1,0.2l0,0c0.1,0,0.1,0,0.2,0C79.6,202.9,80,204.1,80.5,205.2
		L80.5,205.2z M64.9,215.6c3.2-4.2,10.7-7.5,13.8-8.3c0.1,0.1,0.1,0.1,0.2,0.2c-3.9,2.1-8.3,4.8-11.7,8
		C66.5,215.3,65.8,215.3,64.9,215.6z M71.2,218.5c-0.4-1-1.1-1.7-1.9-2.2c2-2.9,7.2-6.6,10.1-8.3c0.1,0.1,0.2,0.2,0.4,0.3
		C77.6,209.9,73.1,214.3,71.2,218.5z M79.2,206.6C79.1,206.6,79.1,206.6,79.2,206.6c-2-1.8-3.7-3.9-4.2-5.8c0.1,0,0.3,0.1,0.4,0.1
		h0.1c0.2,0.1,0.4,0.1,0.7,0.2c1.1,2.1,2.4,4,4.2,5.6c0,0.2,0,0.4,0,0.7C79.9,207.1,79.5,206.9,79.2,206.6z M81.3,208.4
		c0-0.1,0-0.2,0-0.3l0,0V208c0-0.4-0.1-0.8-0.1-1.2l0,0c0-0.1,0-0.1,0-0.2c0-0.3,0-0.7,0.1-1.2v-0.1c0.1-0.4,0.4-0.6,0.7-0.6
		c0.3,0,0.6-0.1,0.9-0.1v4.6c-0.3,0-0.6,0-0.9-0.1C81.5,209,81.3,208.8,81.3,208.4z M86.3,208v0.1l0,0c0,0.1,0,0.2,0,0.3
		c0,0.3-0.3,0.6-0.7,0.6c-0.3,0-0.6,0.1-0.9,0.1v-4.6c0.3,0,0.6,0.1,0.9,0.1c0.2,0,0.6,0.1,0.7,0.6v0.1c0.1,0.4,0.1,0.9,0.1,1.2
		c0,0.1,0,0.1,0,0.2l0,0C86.4,207.2,86.3,207.6,86.3,208z M86.5,204.3c-0.2-0.2-0.6-0.3-0.9-0.4c-0.6-0.1-3.2-0.1-3.9,0
		c-0.3,0.1-0.7,0.2-0.9,0.4c-0.3-0.8-0.6-1.6-0.6-2.2c1.1,0.1,5.7,0.1,6.8,0C87.1,202.8,86.9,203.6,86.5,204.3z M87.1,206.8
		c1.8-1.6,3.1-3.5,4.2-5.6c0.2-0.1,0.4-0.1,0.7-0.2h0.1c0.1,0,0.3-0.1,0.4-0.1c-0.6,1.8-2.2,4-4.1,5.7c0,0-0.1,0-0.1,0.1
		c-0.4,0.3-0.8,0.6-1.2,0.9C87.1,207.2,87.1,207,87.1,206.8z M96.2,218.5c-1.9-4.1-6.5-8.7-8.7-10.2c0.1-0.1,0.3-0.2,0.4-0.3
		c3,1.8,8.1,5.5,10.2,8.3C97.4,216.8,96.8,217.6,96.2,218.5z M100.2,215.5c-3.3-3.1-7.8-5.9-11.7-8c0.1,0,0.1-0.1,0.2-0.1
		c3.1,0.8,10.5,4.1,13.8,8.3C101.7,215.3,101,215.3,100.2,215.5z"/>
</g>
</svg>
