<?xml version="1.0" encoding="utf-8"?>
<!-- Generator: Adobe Illustrator 25.2.0, SVG Export Plug-In . SVG Version: 6.00 Build 0)  -->
<svg version="1.1" id="Capa_3" xmlns="http://www.w3.org/2000/svg" xmlns:xlink="http://www.w3.org/1999/xlink" x="0px" y="0px"
	 viewBox="0 0 642.1 291" style="enable-background:new 0 0 642.1 291;" xml:space="preserve">
<style type="text/css">
	.st0{fill:#1FA6D5;}
	.st1{fill:#FFFFFF;}
	.st2{fill:#211C1E;}
	.st3{fill:#F2BC21;}
	.st4{fill:#569F46;}
	.st5{fill:#DF4326;}
	.st6{fill:#F2B57D;}
</style>
<path class="st0" d="M108,112.5H97.1c-2.3,0-3.7-1-4.4-1.8c-0.5-0.7-1-1.6-1.1-2.7c0-0.1,0-0.1,0-0.3c-0.1-1-0.1-2,0.1-3.3
	c1.4-7.1,4.2-11.9,6.5-14.9c-0.3-0.1-0.5-0.1-0.7-0.3c-1.5-0.8-2.2-2.6-1.9-4.5c0.4-2.3,2.6-4.8,3-5.2c3.7-4.4,9.3-4.6,10-4.6
	c0.8,0,8.2-0.4,12.1,7.4c4.8,9.1,5.9,16.8,6.7,22.9v0.3c0.1,1.1,0.1,1.9-0.1,2.7c0,0.1,0,0.1-0.1,0.3c-0.3,0.8-0.7,1.5-1.1,1.9
	c-1,1.1-2.5,1.8-4.2,2c-0.8,0.1-1.5,0.1-1.9,0.1c-0.3,0-0.4,0-0.4,0h-3.1l0,0l0,0h-5.2v15.4h48.6c0-9-1.4-17.7-4-25.9
	c-2.6-7.9-6.1-15-10.8-21.1c-4.6-6.1-10-10.9-16-14.2c-6.1-3.4-12.7-5.2-19.4-5.2s-13.2,1.8-19.4,5.2c-6,3.3-11.3,8-16,14.2
	c-4.6,6.1-8.3,13.2-10.8,21.1c-2.6,8.2-4,16.9-4,25.9h48.6v-15.5L108,112.5L108,112.5z"/>
<path class="st1" d="M59.5,128c0,6.8,0.8,13.5,2.3,19.9c21.7-2.5,34.6-5,38.5-7.6c2.7-1.9,4.9-3,7.8-2.9V128
	C108,128,59.5,128,59.5,128z"/>
<path class="st1" d="M111.3,137.8c1.9,0.4,3.4,1,4.9,1.6c0.1,0,0.3,0,0.5,0c2.7-0.1,5.2,0.7,8.5,1.9c1,0.3,1.9,0.7,3,1.1
	c0.4,0.1,16.1,5,29.3,5.9c1.6-6.5,2.3-13.2,2.3-20.2h-48.6L111.3,137.8L111.3,137.8z"/>
<path class="st2" d="M106.4,53.1L106.4,53.1L106.4,53.1z"/>
<polyline class="st2" points="96.3,54.6 96.3,54.6 96.3,54.6 96.3,54.6 "/>
<path class="st1" d="M130.9,158.9c-0.1,0.4-0.5,0.8-1,1.2c-0.8,0.8-1.9,1.2-3.3,1.2c-0.1,0.4-0.4,0.8-0.8,1.2
	c-0.7,0.8-2,1.8-4.2,1.6c-0.1,0.4-0.5,0.8-0.8,1.1c-1.1,1.1-2.6,1.5-4.1,1.2c-0.4,0.3-1,0.7-1.6,1c-1,0.4-2.2,0.7-4,0.3v12.8
	c0,1-0.7,1.6-1.6,1.6c-1,0-1.6-0.7-1.6-1.6v-12.3c-0.7,0.3-1.4,0.4-2,0.4c-0.3,0-0.5,0-0.8-0.1c-1-0.1-1.6-0.7-2.3-1.4
	c-1.1,0.1-3,0.3-4.4-0.7c-0.5-0.4-1-1-1.2-1.5c-0.4,0-1-0.1-1.5-0.3c-1.4-0.4-2.5-1.2-2.9-2.5c-0.3,0-0.7,0-1.1-0.1
	c-1.2-0.1-2.7-0.7-3.3-2c-0.1-0.3-0.3-0.5-0.3-1c-7,3.5-14.9,7.1-18.4,8.7c1.4,2.3,2.9,4.6,4.5,6.7c4.6,6.1,10,10.9,16,14.2
	c2.7,1.5,5.6,2.7,8.6,3.7c0.3-0.5,0.7-1.1,1.2-1.4c2.7-1.8,8-0.5,9.5,0c1.5-0.4,6.8-1.8,9.5,0c0.5,0.4,1,0.8,1.2,1.4
	c2.9-0.8,5.9-2,8.6-3.7c6-3.3,11.3-8,16-14.2c1.5-2,2.9-4.1,4.2-6.3C145.2,167.1,136.5,163.3,130.9,158.9"/>
<path class="st0" d="M114,203c0.1-0.4,0.1-0.7,0.1-1.1s0-0.7-0.1-1c1.6-0.3,4.2-1.1,5.7-2.9c0.8-1.1,1.2-2.3,1.1-3.7
	c-0.1-1.2-0.7-2.2-1.8-2.9c-2.7-1.8-8-0.5-9.5,0c-1.5-0.4-6.8-1.8-9.5,0c-1,0.7-1.6,1.6-1.8,2.9c-0.1,1.4,0.1,2.6,1.1,3.7
	c1.5,1.8,4.1,2.6,5.7,2.9c-0.1,0.3-0.1,0.7-0.1,1c0,0.4,0,0.7,0.1,1.1c-1.2,1.2-5,4.5-10.5,5.2l0,0c0.1,0.3,0.7,1.1,1.6,1.9
	c4.9-1,8.5-3.7,10-5c0.1,0.1,0.3,0.3,0.5,0.5c-0.4,1.4-1.8,4.9-7.8,6.4c1,0.4,2.2,0.8,3.7,1.1c4.2-1.9,5.7-4.8,6.1-6.4
	c0.3,0,0.5,0.1,1,0.1c0.3,0,0.5,0,0.8-0.1c0.5,1.6,2,4.5,6.1,6.4c1.4-0.3,2.6-0.5,3.5-1.1c-6-1.5-7.5-4.9-7.8-6.3
	c0.1-0.1,0.4-0.3,0.5-0.5c1.6,1.5,5,4.2,10,5c1-0.8,1.5-1.6,1.6-1.9C119.1,207.5,115.2,204.2,114,203"/>
<path class="st1" d="M118,193.3c0.4,0.3,0.7,0.7,0.8,1.2c0.1,0.8-0.1,1.5-0.5,2c-0.7,0.8-1.8,1.4-2.7,1.6c0.5-1.1,0.5-2.2,0.3-3.3
	c-0.4-1.1-1-1.8-1.8-2.3C115.5,192.6,117.1,192.6,118,193.3"/>
<path class="st1" d="M105.6,195.7c0.8-2.2,3.8-2.2,4-2.2c0,0,0.8,0,1.8,0.3c1.1,0.4,1.9,1,2.2,1.9c0.4,1-0.3,2-1,2.6
	c-0.8-0.7-1.9-1.1-3-1.1c-1.2,0-2.2,0.4-3,1.2C106,197.8,105.3,196.8,105.6,195.7"/>
<path class="st1" d="M103.8,198.3c-1.1-0.4-2.2-1-2.7-1.6c-0.5-0.5-0.7-1.2-0.5-2c0-0.5,0.3-1,0.7-1.2c0.7-0.4,1.6-0.5,2.7-0.5
	c0.4,0,1,0,1.4,0.1c-0.7,0.5-1.4,1.2-1.8,2.3C103.1,196.3,103.4,197.4,103.8,198.3"/>
<path class="st1" d="M107.2,201.9c0-1.4,1.1-2.5,2.5-2.5s2.5,1.1,2.5,2.5s-1.1,2.5-2.5,2.5S107.2,203.2,107.2,201.9"/>
<path class="st1" d="M123,210.1c-4.9-1-8.5-3.5-10-5c-0.1,0.1-0.3,0.4-0.5,0.5c0.4,1.4,1.9,4.8,7.8,6.3
	C121.4,211.3,122.3,210.6,123,210.1"/>
<path class="st1" d="M106.2,204.9c-1.6,1.5-5,4.2-10,5c0.7,0.5,1.5,1.2,2.7,1.8c6-1.5,7.5-5,7.8-6.4
	C106.5,205.3,106.4,205.1,106.2,204.9"/>
<path class="st2" d="M170.3,140.9c0-0.4-0.1-0.7-0.4-1c-0.1-0.1-0.4-0.3-0.7-0.3c0.3-0.4,0.4-1,0.5-1.4c0.8-2,1.1-4.5,1.2-7.1
	c0-0.4-0.1-0.7-0.4-0.8s-0.4-0.1-0.7-0.1c0.1-0.4,0.3-0.8,0.4-1.4c0.5-2.2,0.7-4.5,0.4-7.1c0-0.4-0.3-0.7-0.5-0.8s-0.5-0.1-0.7-0.1
	c0.1-0.5,0.3-1.1,0.3-1.6c0.3-2.2,0.3-4.6-0.3-7.1c0-0.4-0.3-0.7-0.7-0.8c-0.1-0.1-0.4-0.1-0.5,0c0-0.4,0.1-0.7,0.1-1.1
	c0.3-2.2,0-4.6-0.5-7.1c-0.1-0.4-0.3-0.7-0.7-0.7c-0.3-0.1-0.7,0-1,0.1l0,0c0-0.5,0-1.1,0-1.8c0-2.2-0.5-4.5-1.5-7
	c-0.1-0.3-0.4-0.5-0.8-0.7c-0.3,0-0.5,0-0.8,0.1c0-0.5,0-1.1-0.1-1.6c-0.3-2.2-1.1-4.5-2.3-6.8c-0.1-0.3-0.4-0.5-0.8-0.5
	c-0.3,0-0.5,0-0.8,0.3c-0.1-0.5-0.1-1-0.3-1.5c-0.5-2.2-1.5-4.4-3-6.5c-0.1-0.3-0.5-0.4-0.8-0.4c-0.4,0-0.7,0.1-0.8,0.4
	c-0.1-0.5-0.4-1.1-0.7-1.8c-0.8-2-2.2-4-4.1-5.9c-0.3-0.3-0.7-0.4-1-0.3c-0.3,0-0.5,0.1-0.7,0.4c-0.3-0.5-0.5-1.1-1-1.6
	c-1.2-1.8-2.9-3.5-4.9-5.2c-0.3-0.3-0.7-0.3-1-0.1s-0.5,0.3-0.5,0.5c-1.4-1.8-3.3-3.1-5.7-4.1c0.4,0,0.8,0.1,1.4,0.1
	c2.9,0.1,4.9-0.4,5-0.4c0.5-0.1,1-0.8,1-1.4c-0.1-0.7-0.5-1.1-1.2-1.1c-3.1-0.1-4.4-0.8-5.9-1.6c-0.3-0.1-0.5-0.3-1-0.4l7.4-1.1
	c0.7-0.1,1.1-0.7,1.1-1.4c0-0.7-0.5-1.2-1.1-1.4l-7.4-1.1c0.8-0.3,1.8-0.5,2.9-0.8c2.7-1,4.4-2.3,4.5-2.3c0.5-0.4,0.7-1.1,0.3-1.6
	c-0.3-0.5-1-0.8-1.6-0.5c-3,1.1-4.4,1-6,0.7c-0.3,0-0.7,0-1-0.1l6.4-3.8c0.5-0.3,0.8-1.1,0.5-1.6c-0.3-0.5-1-1-1.5-0.8l-7.2,1.8
	c0.7-0.5,1.5-1.2,2.3-1.9c2.2-1.9,3.1-3.8,3.3-3.8c0.3-0.5,0.1-1.2-0.4-1.6c-0.5-0.4-1.2-0.4-1.6,0c-2.3,2.2-3.7,2.5-5.3,3
	c-0.3,0.1-0.5,0.1-1,0.3l4.4-6c0.4-0.5,0.3-1.2-0.1-1.8c-0.4-0.4-1.2-0.5-1.8-0.1l-6,4.5c0.4-0.8,1-1.6,1.4-2.7
	c1.2-2.6,1.5-4.8,1.5-4.8c0-0.7-0.4-1.2-1-1.4c-0.7-0.1-1.2,0.1-1.5,0.7c-1.4,2.9-2.3,3.7-3.7,4.8c-0.3,0.1-0.5,0.4-0.7,0.7l1.8-7.2
	c0.1-0.7-0.1-1.2-0.8-1.5c-0.5-0.3-1.4,0-1.6,0.5l-3.8,6.4c0.1-0.8,0.3-1.9,0.3-3c0.1-2.9-0.4-4.9-0.4-5c-0.1-0.5-0.8-1-1.4-1
	c-0.7,0.1-1.1,0.5-1.1,1.2c-0.1,3.1-0.8,4.4-1.6,5.9c-0.1,0.3-0.3,0.5-0.4,0.8l-1.1-7.4c-0.1-0.7-0.7-1.1-1.4-1.1l0,0
	c-0.7,0-1.2,0.5-1.4,1.1l-1.1,7.2c-0.3-0.8-0.5-1.8-0.8-2.9c-1-2.7-2.3-4.4-2.3-4.5c-0.4-0.5-1.1-0.7-1.6-0.3
	c-0.5,0.3-0.8,1-0.5,1.6c1.1,3,1,4.4,0.7,6c0,0.3-0.1,0.7-0.1,1l-3.8-6.4c-0.3-0.5-1.1-0.8-1.6-0.5c-0.5,0.3-1,1-0.8,1.5l1.8,7.1
	c-0.5-0.7-1.2-1.5-1.9-2.3c-1.9-2.2-3.8-3.1-3.8-3.3c-0.5-0.3-1.2-0.1-1.6,0.4c-0.4,0.5-0.4,1.2,0,1.6c2.2,2.3,2.5,3.7,3,5.3
	c0.1,0.3,0.1,0.7,0.3,1l-6-4.5c-0.5-0.4-1.2-0.3-1.8,0.1c-0.4,0.4-0.5,1.2-0.1,1.8l4.5,6c-0.8-0.4-1.6-1-2.6-1.4
	c-2.6-1.2-4.8-1.5-4.8-1.5c-0.7,0-1.2,0.4-1.4,1c-0.1,0.7,0.1,1.2,0.7,1.5c2.9,1.4,3.7,2.5,4.8,3.7c0.1,0.3,0.4,0.5,0.7,0.8
	l-7.2-1.8c-0.7-0.1-1.2,0.1-1.5,0.8c-0.3,0.5,0,1.4,0.5,1.6l6.4,3.8c-0.8-0.1-1.9-0.3-3-0.3c-2.9-0.1-4.9,0.4-5,0.4
	c-0.5,0.1-1,0.8-1,1.4c0.1,0.7,0.5,1.1,1.2,1.1c3.1,0.1,4.4,0.8,5.9,1.6c0.3,0.1,0.5,0.3,0.8,0.4l-7.4,1.1c-0.7,0.1-1.1,0.7-1.1,1.4
	s0.5,1.2,1.1,1.4l7.4,1.1c-0.8,0.3-1.9,0.5-2.9,1c-2.7,1-4.4,2.3-4.5,2.3c-0.5,0.4-0.7,1.1-0.3,1.6c0.3,0.5,1,0.8,1.6,0.5
	c1.8-0.7,2.9-0.8,4-0.8c-1.6,1.4-2.7,2.5-3.3,3.3c-0.3,0.4-0.5,0.8-0.8,1.1c-0.1-0.3-0.3-0.4-0.5-0.4c-0.3-0.1-0.7,0-1,0.1
	c-2,1.6-3.8,3.4-4.9,5.2c-0.4,0.5-0.7,1.1-1,1.6c-0.1-0.3-0.4-0.4-0.7-0.4c-0.4,0-0.7,0-1,0.3c-1.8,1.9-3.1,4-4.1,5.9
	c-0.3,0.5-0.4,1.1-0.5,1.6c-0.1-0.1-0.4-0.3-0.7-0.3c-0.4,0-0.7,0.1-1,0.4c-1.5,2.2-2.7,4.2-3.3,6.4c-0.1,0.5-0.3,1.1-0.4,1.6
	c-0.3-0.3-0.5-0.4-0.8-0.4c-0.4,0-0.7,0.3-0.8,0.5c-1.2,2.3-2,4.6-2.3,6.8c-0.1,0.5-0.1,1.1-0.1,1.6c-0.3-0.1-0.5-0.3-1-0.3
	c-0.4,0.1-0.7,0.3-0.7,0.7c-1,2.5-1.4,4.8-1.5,7c0,0.5,0,1.1,0,1.6c-0.3-0.1-0.5-0.1-0.8-0.1c-0.3,0.1-0.5,0.4-0.7,0.7
	c-0.5,2.6-0.8,4.9-0.5,7.1c0,0.4,0.1,0.8,0.1,1.2c-0.1,0-0.3,0-0.4,0.1c-0.3,0.1-0.5,0.4-0.7,0.8c-0.5,2.6-0.5,5-0.3,7.1
	c0.1,0.5,0.3,1.1,0.4,1.6c-0.1,0-0.3,0-0.4,0.1c-0.3,0.1-0.5,0.4-0.5,0.8c-0.3,2.6-0.3,5,0.3,7.1c0.1,0.4,0.3,1,0.4,1.4
	c-0.3,0-0.4,0-0.7,0.1c-0.3,0.1-0.5,0.5-0.5,0.8c0,2.6,0.3,5,1,7.1c0.1,0.5,0.4,1.2,0.7,1.8h-0.1c-0.4-0.1-0.7,0-1,0.3
	c-0.3,0.3-0.4,0.5-0.3,1c0.4,2.6,1.1,4.9,2.2,6.8c0.1,0.4,0.4,0.7,0.7,1.1c-0.1,0-0.4,0.1-0.5,0.3c-0.3,0.3-0.4,0.7-0.3,1
	c0.5,2.6,1.5,4.8,2.7,6.7c0.3,0.4,0.5,0.8,1,1.2c-0.3,0-0.5,0.1-0.7,0.4c-0.3,0.3-0.3,0.7-0.1,1c1,2.5,2,4.6,3.4,6.3
	c0.3,0.4,0.7,0.7,1,1.1c-0.3,0.1-0.4,0.3-0.5,0.4c-0.1,0.3-0.1,0.7,0,1c1.2,2.3,2.6,4.4,4.2,5.9c0.3,0.3,0.7,0.7,1.1,1
	c-0.3,0.1-0.4,0.3-0.5,0.5s-0.1,0.7,0.1,1c1.4,2.2,3,4,4.8,5.3c0.5,0.4,1.1,0.8,1.6,1.1c-0.1,0-0.1,0-0.3,0.1
	c-0.3,0.1-0.5,0.4-0.7,0.7c-0.1,0.4,0,0.7,0.3,1c1.8,1.9,3.7,3.4,5.6,4.5c1.5,0.8,3.1,1.5,4.6,1.8c1.4,0.3,2.6,0.3,3.7,0
	c0.1,0,0.1,0,0.3,0c3.3,2.3,6.7,4.2,10.2,5.7c3,1.2,6,2.2,9,2.9c0.7,0.1,1.2,0.3,1.8,0.4c-1.2-0.4-2.6-1.2-3.4-2.3
	c-0.1-0.1-0.3-0.4-0.4-0.5c-2-0.5-4.2-1.2-6.3-2.2c-3.4-1.4-6.7-3.3-9.8-5.5v-0.1c0-1.1-0.1-2.2-0.4-3.1c2.2,1.8,4.2,3.3,6.4,4.5
	c3,1.6,6,3,9.3,3.8c0-0.1,0-0.4,0-0.5c0-0.5,0.3-1,0.4-1.5c-2.9-0.8-5.7-2-8.6-3.7c-6-3.3-11.3-8-16-14.2c-1.6-2.2-3.1-4.4-4.5-6.7
	c3.5-1.5,11.5-5.2,18.4-8.7c0,0.3,0.1,0.5,0.3,1c0.5,1.4,2.2,1.9,3.3,2c0.4,0,0.8,0.1,1.1,0.1c0.4,1.1,1.4,1.9,2.9,2.5
	c0.5,0.1,1.1,0.3,1.5,0.3c0.3,0.7,0.7,1.1,1.2,1.5c1.4,1,3.3,0.8,4.4,0.7c0.5,0.7,1.4,1.2,2.3,1.4c0.3,0,0.5,0.1,0.8,0.1
	c0.7,0,1.5-0.1,2-0.4v12.3c0,1,0.7,1.6,1.6,1.6s1.6-0.7,1.6-1.6v-12.8c1.6,0.3,3,0,4-0.3c0.7-0.3,1.4-0.7,1.6-1
	c1.6,0.3,3-0.1,4.1-1.2c0.4-0.4,0.7-0.8,0.8-1.1c2.2,0.1,3.5-0.8,4.2-1.6c0.4-0.4,0.7-1,0.8-1.2c1.4,0,2.5-0.5,3.3-1.2
	c0.4-0.4,0.7-0.8,1-1.2c5.6,4.4,14.3,8.2,18.3,9.8c-1.4,2.2-2.7,4.4-4.2,6.3c-4.6,6.1-10,10.9-16,14.2c-2.7,1.5-5.6,2.7-8.6,3.7
	c0.3,0.4,0.4,1,0.4,1.5c0,0.1,0,0.4,0,0.5c3.1-1,6.3-2.2,9.3-3.8c2.3-1.4,4.5-3,6.5-4.5c-0.3,1.1-0.4,2.2-0.4,3.1v0.1
	c-1,0.7-3.5,2.6-7.2,4.4c-2.7,1.4-5.6,2.5-8.6,3.3c-0.1,0-0.3,0-0.4,0.1c-0.1,0.1-0.3,0.3-0.4,0.5c-1,1.1-2.3,1.8-3.5,2.3
	c1.6-0.3,3.3-0.5,4.8-1c3-0.8,6-1.9,8.9-3.4c4-1.9,6.5-3.8,7.5-4.5h0.1c1.1,0.3,2.5,0.1,3.7,0c1.5-0.3,3-0.8,4.6-1.8
	c1.9-1.1,3.7-2.6,5.6-4.5c0.3-0.3,0.4-0.7,0.3-1c-0.1-0.4-0.3-0.7-0.7-0.7h-0.1c0.5-0.3,1.1-0.7,1.6-1.1c1.8-1.4,3.4-3.1,4.8-5.3
	c0.1-0.3,0.3-0.7,0.1-1c-0.1-0.3-0.3-0.4-0.5-0.5c0.4-0.3,0.7-0.5,1.1-1c1.6-1.5,3-3.5,4.2-5.9c0.1-0.3,0.1-0.7,0-1
	c-0.1-0.3-0.4-0.4-0.8-0.5c0.4-0.4,0.7-0.7,1.1-1.1c1.4-1.6,2.6-3.8,3.4-6.3c0.1-0.3,0.1-0.7-0.1-1c-0.1-0.3-0.5-0.4-0.8-0.4l0,0
	c0.3-0.4,0.5-0.8,0.8-1.2c1.2-1.8,2.2-4.1,2.9-6.5c0.1-0.4,0-0.7-0.3-1c-0.3-0.3-0.5-0.4-0.8-0.3c0.3-0.4,0.5-1,0.8-1.4
	C169.4,145.8,169.9,143.5,170.3,140.9 M169.1,132.7L169.1,132.7c-0.1,1.8-0.4,3.5-1,4.9c-0.5,1.5-1.2,2.7-2.2,3.8
	c-1.1,1.2-2.2,1.9-2.6,2.2l0,0l0,0c-1.5-1.9-2.2-4.4-2-7.1c0-0.8,0.1-1.8,0.3-2.7l0,0l0,0c1.2,1.6,2,3.7,2,3.7
	c0.1,0.3,0.4,0.5,0.7,0.5s0.5-0.1,0.7-0.4C166.2,135,167.9,133.5,169.1,132.7C169,132.7,169.1,132.7,169.1,132.7 M168.8,123.3
	C168.8,123.3,169,123.3,168.8,123.3C169,123.3,169,123.5,168.8,123.3c0.1,1.8,0,3.5-0.4,5c-0.4,1.5-1,2.9-1.8,4
	c-1,1.4-1.9,2.2-2.3,2.5l0,0l0,0c-2.6-2.9-2.7-7.1-2.7-9.4l0,0l0,0c1.4,1.5,2.3,3.3,2.3,3.3c0.1,0.3,0.4,0.4,0.7,0.4
	s0.5-0.3,0.7-0.5C166.2,125.9,167.7,124.3,168.8,123.3 M167.9,113.9L167.9,113.9C167.9,113.9,168,113.9,167.9,113.9
	c0.3,1.8,0.3,3.5,0.1,5c-0.3,1.5-0.7,3-1.4,4.2c-0.8,1.5-1.8,2.3-2.2,2.6l0,0l0,0c-2.5-2-3.3-6.5-3.5-9.1l0,0l0,0
	c1.5,1.4,2.5,3,2.6,3c0.1,0.3,0.4,0.4,0.8,0.4c0.3,0,0.5-0.3,0.7-0.5C165.6,116.8,166.9,115,167.9,113.9 M166.4,104.9L166.4,104.9
	C166.5,104.9,166.5,104.9,166.4,104.9c0.4,1.8,0.5,3.4,0.3,5c-0.1,1.5-0.5,3-1.2,4.2c-0.7,1.5-1.6,2.3-2,2.7l0,0l0,0
	c-2-1.8-3.1-4.4-3.5-6.3c-0.3-0.8-0.4-1.8-0.4-2.6l0,0l0,0c1.6,1.2,2.7,3,2.7,3c0.1,0.3,0.5,0.4,0.8,0.3c0.3,0,0.5-0.3,0.5-0.5
	C164.2,107.8,165.4,106,166.4,104.9 M94.4,105.4c0-0.1,0-0.3,0-0.4c1.2-6.1,3.7-10.4,5.5-13c1.4-1.9,2.6-3,3.3-3.5
	c0.1-0.1,0.4-0.3,0.5-0.4c0.5-0.5,0.7-1.4,0.3-2c-0.5-0.7-1.4-0.8-2-0.3c0,0-0.3,0.1-0.7,0.5c-1.4,1-2.2,0.7-2.3,0.5
	c-0.4-0.3-0.7-0.8-0.5-1.6c0.3-1.4,1.8-3.1,2.3-3.7c0,0,0,0,0.1-0.1c3-3.5,7.9-3.7,7.9-3.7h0.1c0,0,1.5-0.1,3.4,0.5
	c2.6,0.8,4.6,2.6,6,5.3c1.9,3.7,3.4,7.5,4.5,11.5c-2.7-1-4.9-2.7-4.9-2.7c-0.7-0.5-1.5-0.4-2,0.1c-0.3,0.3-0.4,0.7-0.3,1.1
	c0,0.4,0.3,0.7,0.5,1c0.1,0.1,3.5,2.9,7.5,3.8c0.3,1.4,0.5,2.7,0.8,4.5c-1.4-0.7-2.9-1.1-4.1-1.4c-0.8-0.3-1.6-0.4-2.3-0.7
	c-2.7-1.1-5.2-3-5.2-3c-0.7-0.5-1.5-0.4-2,0.3c-0.5,0.7-0.4,1.6,0.3,2c0.1,0.1,2.7,2.2,5.9,3.4c0.8,0.3,1.6,0.5,2.6,0.8
	c3.5,1,5,1.6,5.2,3.4c-0.1,0.3-0.3,0.5-0.4,0.7c-1.1,1.2-3.5,1.4-4.4,1.2c0,0,0,0-0.1,0h-3.3c-0.7,0-4.1-0.1-7-2
	C102,102.9,98.6,103.7,94.4,105.4 M107.2,109.8H97.1c-1.1,0-1.8-0.3-2.2-0.8c-0.1-0.1-0.1-0.3-0.3-0.4
	C98.9,106.7,101.1,106,107.2,109.8 M111.3,128v-15.4h5.2l0,0l0,0h3.1c0.1,0,0.3,0,0.4,0c0.4,0,1.1,0,1.9-0.1c1.9-0.3,3.3-1,4.2-2
	c0.4-0.4,0.8-1.1,1.1-1.9c0-0.1,0-0.1,0.1-0.3c0.1-0.7,0.3-1.6,0.1-2.7v-0.3c-1-6.1-2-13.6-6.7-22.9c-4-7.6-11.3-7.4-12.1-7.4
	c-0.7,0-6.3,0.3-10,4.6c-0.4,0.4-2.6,2.9-3,5.2c-0.3,1.9,0.4,3.7,1.9,4.5c0.3,0.1,0.5,0.3,0.7,0.3c-2.3,3-5.2,7.8-6.5,14.9
	c-0.3,1.2-0.3,2.3-0.1,3.3c0,0.1,0,0.1,0,0.3c0.1,1.1,0.5,1.9,1.1,2.7c0.7,0.8,2,1.8,4.4,1.8H108v15.4v9.4c-2.9-0.1-5,1-7.8,2.9
	c-3.8,2.6-16.8,5.2-38.5,7.6c-1.5-6.4-2.3-13.1-2.3-19.9c0-9,1.4-17.7,4-25.9c2.6-7.9,6.1-15,10.8-21.1c4.6-6.1,10-10.9,16-14.2
	c6.1-3.4,12.7-5.2,19.4-5.2s13.2,1.8,19.4,5.2c6,3.3,11.3,8,16,14.2c4.6,6.1,8.3,13.2,10.8,21.1c2.6,8.2,4,16.9,4,25.9
	c0,7-0.8,13.6-2.3,20.2c-13.2-0.8-28.8-5.6-29.3-5.9c-1.1-0.4-2.2-0.7-3-1.1c-3.3-1.2-5.6-2-8.5-1.9c-0.1,0-0.3,0-0.5,0
	c-1.6-0.8-3-1.4-4.9-1.6V128L111.3,128L111.3,128z M131.7,58.5c-0.8,0.3-2,0.7-3.4,1c-1,0.1-1.8,0.3-2.6,0.3c-1.9,0-3.5-0.4-4.9-1.4
	l0,0l0,0c0.5-0.4,1.6-0.8,2.9-1.1c1.4-0.3,2.7-0.4,4.1-0.1C129.1,57.2,130.5,57.7,131.7,58.5C131.7,58.4,131.7,58.4,131.7,58.5
	C131.7,58.4,131.7,58.4,131.7,58.5 M133.7,63.9L133.7,63.9L133.7,63.9c-0.5,0.3-1.5,0.5-2.5,0.5c-0.1,0-0.3,0-0.4,0
	c-2.2,0-4.5-0.8-6.5-2.5l0,0l0,0c1-0.3,1.9-0.5,2.9-0.5C129.7,61.1,131.9,61.9,133.7,63.9 M123.3,55.5c-0.8,0.4-2.5,1-4.8,1.2
	c-0.3,0-0.5,0.3-0.7,0.5c-0.1,0.3,0,0.7,0.3,0.8c0,0,1.8,1.2,3.1,2.9l0,0l0,0l0,0c-2.2,0-6.3-0.7-9.1-4.2c0,0,0,0,0-0.1
	c0.4-0.4,1.2-1.1,2.5-1.5C116.9,54.4,119.9,54.4,123.3,55.5C123.3,55.4,123.3,55.4,123.3,55.5L123.3,55.5 M113.6,53.9
	c-0.8,0.5-2.2,1.5-4.4,2.2c-0.3,0.1-0.5,0.4-0.5,0.7c0,0.3,0.1,0.7,0.5,0.8c0,0,1.9,0.7,3.5,2l0,0l0,0c-0.5,0-1.2,0.1-1.9,0.1
	c-2.3,0-5.5-0.4-7.8-2.2c0,0,0,0,0-0.1c0.4-0.5,1-1.2,2.2-2C107.1,54.2,110.1,53.6,113.6,53.9C113.6,53.8,113.6,53.9,113.6,53.9
	L113.6,53.9 M103.5,54c-0.5,0.8-1.8,1.9-4,3c-0.3,0.1-0.4,0.4-0.4,0.8c0,0.3,0.3,0.5,0.7,0.7c0,0,2,0.4,3.8,1.4l0,0l0,0
	c-0.8,0.3-1.8,0.5-2.6,0.7c-0.8,0.1-1.6,0.3-2.7,0.3c-1.5,0-3.1-0.3-4.6-1c0,0,0,0,0-0.1c0.3-0.5,0.7-1.5,1.6-2.3
	C97.1,55.7,100,54.4,103.5,54L103.5,54C103.6,54,103.6,54,103.5,54 M90.7,60.2c-0.3,0.3-0.3,0.5-0.3,0.8c0.1,0.3,0.4,0.5,0.7,0.5
	l0,0c0,0,0.8,0,2,0.1c0.8,0.1,1.5,0.3,2,0.4l0,0l0,0c-0.8,0.4-1.6,0.8-2.5,1.1C91,63.9,89.3,64,88.1,64c-1.1,0-2-0.1-2.7-0.4l0,0
	c0.3-1.6,1.9-5.7,8.7-8l0,0l0,0C93.8,56.8,92.9,58.4,90.7,60.2 M161.6,101.8c0.1-2.7,1.1-4.8,1.9-6l0,0l0,0c0.5,1.8,0.8,3.4,1,4.9
	c0,1.5-0.1,3-0.5,4.4c-0.5,1.5-1.2,2.6-1.6,3l0,0l0,0c-1.9-1.2-3.4-3.1-4.5-5.9c-0.3-0.8-0.5-1.6-0.8-2.6l0,0l0,0
	c1.8,1.1,3.1,2.6,3.1,2.6c0.3,0.3,0.5,0.3,0.8,0.3C161.3,102.3,161.6,102,161.6,101.8 M158.5,93.2c-0.1-2.7,0.7-4.8,1.2-6.1l0,0l0,0
	c0.7,1.6,1.2,3.3,1.4,4.8c0.3,1.5,0.1,3-0.1,4.4c-0.4,1.6-1,2.7-1.2,3.1l0,0l0,0c-2-1-3.8-2.9-5-5.3c-0.4-0.8-0.7-1.6-1.1-2.5l0,0
	l0,0c1.8,0.8,3.4,2.2,3.4,2.3c0.3,0.3,0.5,0.3,0.8,0.1C158.3,93.7,158.5,93.4,158.5,93.2 M154.1,85.8L154.1,85.8
	c0.3-0.1,0.4-0.5,0.4-0.8c-0.4-2.7,0-4.9,0.5-6.1l0,0l0,0c1,1.5,1.6,3.1,1.9,4.6c0.4,1.5,0.5,3,0.4,4.4c-0.1,1.6-0.7,2.9-1,3.3l0,0
	l0,0c-2.3-0.8-4.4-2.5-5.9-4.8c-0.5-0.7-1-1.5-1.2-2.5l0,0l0,0c2,0.5,3.7,1.9,3.8,1.9C153.6,85.9,153.8,85.9,154.1,85.8 M148.4,78.3
	c0.3,0.1,0.7,0.1,1,0s0.4-0.5,0.3-0.8c-0.7-2.5-0.7-4.6-0.4-6.1l0,0l0,0c1.1,1.4,2,2.7,2.6,4.1c0.7,1.4,1,2.9,1.1,4.2
	c0.1,1.6-0.1,2.7-0.4,3.3l0,0l0,0c-2.3-0.4-4.4-1.6-6.4-3.7c-0.7-0.7-1.2-1.5-1.8-2.2l0,0l0,0C146.6,77.2,148.4,78.3,148.4,78.3
	 M142.5,71.8c0.3,0.1,0.7,0,0.8-0.1c0.3-0.3,0.3-0.5,0.1-0.8c-1.2-2.5-1.5-4.6-1.5-6l0,0l0,0c1.4,1.2,2.5,2.5,3.3,3.7
	c0.8,1.4,1.5,2.7,1.8,4.1c0.4,1.6,0.3,2.9,0.3,3.4l0,0h-0.1c-2.6,0-4.9-1.4-6.5-2.6c-0.8-0.5-1.5-1.2-2.2-2l0,0l0,0
	c0.1,0,0.1,0,0.3,0C140.7,71.1,142.5,71.8,142.5,71.8 M140.2,65.6c0.7,1.6,0.7,3,0.7,3.8l0,0c-0.1,0-0.3,0-0.4,0
	c-3.1,0-7-2.2-8.9-3.4l0,0l0,0c2-0.4,4,0,4,0c0.3,0.1,0.7,0,0.8-0.3c0.1-0.3,0.1-0.7,0-1c-1.2-1.6-2-3.4-2.5-4.6l0,0l0,0
	C137.1,61.1,139.2,63,140.2,65.6 M82.4,56.2c0.1,0,0.3-0.1,0.4-0.1c1.9-0.7,3.7-1.1,4.5-1.2c2-0.4,3.5-1.4,3.5-1.4
	c0.1-0.1,0.3-0.4,0.3-0.5c0-0.3-0.3-0.4-0.4-0.4l-9.1-1.4l9.1-1.4c0.3,0,0.4-0.3,0.4-0.5c0-0.3-0.1-0.5-0.4-0.5c0,0-2-0.3-4.1-1.2
	c-0.5-0.3-1.1-0.5-1.6-0.8c-0.8-0.4-1.6-0.8-2.6-1.2c0.1,0,0.3,0,0.5,0c2,0.1,3.8,0.4,4.8,0.5c2,0.4,3.8,0.1,3.8,0
	c0.3,0,0.4-0.3,0.4-0.4c0-0.3,0-0.4-0.3-0.5l-8-4.8l9,2.3c0.3,0,0.5,0,0.7-0.3c0.1-0.3,0-0.5-0.3-0.7c0,0-1.8-1.1-3.3-2.7
	c-0.4-0.4-0.8-1-1.2-1.4c-0.5-0.7-1.1-1.4-1.9-2.2c0.1,0,0.3,0.1,0.4,0.3c1.8,0.8,3.4,1.8,4.1,2.3c1.8,1.1,3.4,1.5,3.5,1.5
	c0.3,0,0.4,0,0.5-0.3c0.1-0.1,0.1-0.4,0-0.5l-5.6-7.4l7.5,5.6c0.3,0.1,0.5,0.1,0.7,0c0.1-0.1,0.3-0.5,0-0.7c-0.1-0.1-1.2-1.8-2-3.8
	c-0.3-0.7-0.4-1.2-0.5-1.8c-0.3-0.8-0.5-1.8-1-2.7c0.1,0.1,0.3,0.3,0.3,0.4c1.4,1.5,2.5,3,3,3.7c1.2,1.6,2.6,2.7,2.7,2.7
	c0.1,0.1,0.4,0.1,0.5,0c0.1-0.1,0.3-0.4,0.3-0.5l-2.3-9l4.8,7.9c0.1,0.3,0.4,0.3,0.7,0.3c0.3-0.1,0.4-0.4,0.3-0.7
	c0-0.1-0.4-2-0.4-4.2c0-0.7,0.1-1.2,0.1-1.8c0.1-1,0.1-1.8,0.1-2.9c0,0.1,0.1,0.3,0.1,0.4c0.7,1.9,1.1,3.7,1.2,4.5
	c0.4,2,1.4,3.4,1.4,3.5c0.1,0.1,0.4,0.3,0.5,0.3c0.3,0,0.4-0.3,0.4-0.4l1.2-9.1l1.4,9.1c0,0.3,0.3,0.4,0.5,0.4
	c0.3,0,0.5-0.1,0.5-0.4c0-0.1,0.3-2,1.2-4.1c0.3-0.5,0.5-1.1,0.8-1.6c0.4-0.8,0.8-1.6,1.2-2.6c0,0.1,0,0.3,0,0.5
	c-0.1,2-0.4,3.8-0.5,4.8c-0.4,2-0.1,3.8-0.1,3.8c0,0.3,0.3,0.4,0.4,0.4c0.3,0,0.4,0,0.5-0.3l4.8-7.9l-2.3,9c0,0.3,0.1,0.5,0.3,0.7
	c0.3,0.1,0.5,0,0.7-0.3c0.1-0.1,1.1-1.8,2.7-3.3c0.4-0.4,1-0.8,1.4-1.2c0.7-0.5,1.4-1.1,2-2c0,0.1-0.1,0.3-0.1,0.4
	c-0.8,1.8-1.8,3.4-2.3,4.1c-1.1,1.8-1.5,3.4-1.5,3.5c0,0.3,0,0.4,0.3,0.5c0.1,0.1,0.4,0.1,0.5,0l7.5-5.6l-5.6,7.5
	c-0.1,0.3-0.1,0.5,0,0.7s0.4,0.3,0.7,0c0,0,1.6-1.2,3.8-2c0.7-0.3,1.2-0.4,1.8-0.5c0.8-0.3,1.8-0.5,2.7-1c-0.1,0.1-0.3,0.3-0.4,0.3
	c-1.5,1.4-3,2.5-3.7,3c-1.8,1.2-2.7,2.6-2.7,2.7c-0.1,0.1-0.1,0.4,0,0.5c0.1,0.1,0.4,0.3,0.5,0.3l9-2.3l-7.9,4.8
	c-0.3,0.1-0.3,0.4-0.3,0.7c0.1,0.3,0.4,0.4,0.7,0.3c0.3,0,2-0.4,4.2-0.4c0.7,0,1.2,0.1,1.8,0.1c1,0.1,1.8,0.1,2.9,0.1
	c-0.1,0-0.3,0.1-0.4,0.1c-1.9,0.7-3.7,1.1-4.5,1.2c-2,0.4-3.5,1.4-3.5,1.4c-0.1,0.1-0.3,0.4-0.3,0.5c0,0.3,0.3,0.4,0.4,0.4l9.1,1.4
	l-9.1,1.4c-0.3,0-0.4,0.3-0.4,0.5s0.1,0.5,0.4,0.5s2,0.4,4.1,1.2c0.5,0.3,1.1,0.5,1.6,0.8c0.8,0.4,1.6,0.8,2.6,1.2
	c-0.1,0-0.3,0-0.5,0c-2-0.1-3.8-0.4-4.8-0.5h-0.3c-1.6-0.7-3.4-1.1-5-1.1l0,0c-0.1-0.4-0.3-0.7-0.7-0.8c-2.5-0.8-4.8-1.4-7-1.4
	c-0.8,0-1.5,0-2.2,0.1c0-0.1,0-0.1-0.1-0.3c-0.1-0.3-0.4-0.5-0.8-0.5c-2.6-0.4-5-0.3-7.1,0.1c-0.8,0.1-1.6,0.4-2.3,0.7
	c0-0.3-0.1-0.4-0.3-0.5c-0.3-0.3-0.5-0.4-0.8-0.3c-2.6,0.3-4.9,0.8-7,1.6c-0.5,0.3-1,0.5-1.5,0.7c0-0.3-0.1-0.5-0.4-0.7
	c-0.3-0.3-0.7-0.3-1-0.1c-2.6,0.7-4.8,1.6-6.5,2.9l-0.1,0.1c-0.5,0-1,0-1.4,0c-0.4,0-1.6-0.1-1.8-0.1C84.3,56.2,83.5,56.2,82.4,56.2
	 M84.8,58.9L84.8,58.9C85,58.9,85,58.9,84.8,58.9c0,1.5-0.4,3.7-1.9,6c-0.1,0.3-0.1,0.5,0,0.8c0.1,0.3,0.5,0.4,0.8,0.3
	c0,0,2-0.4,4-0.3l0,0l0,0c-1.8,1.4-5.2,3.7-8.7,3.7c-0.1,0-0.3,0-0.4,0l0,0C78.4,67.7,78.8,63.2,84.8,58.9 M72.1,72.3
	c0.3-1.4,1-2.7,1.8-4.1c0.8-1.4,1.9-2.6,3.3-3.8l0,0l0,0c0,1.4-0.1,3.5-1.5,6c-0.1,0.3-0.1,0.7,0.1,0.8c0.3,0.3,0.5,0.3,0.8,0.3
	c0,0,1.9-0.7,4-0.7l0,0l0,0c-0.7,0.7-1.5,1.4-2.3,2c-1.6,1.2-4,2.6-6.1,2.6c-0.1,0-0.1,0-0.3,0l0,0C72,75.2,71.9,73.9,72.1,72.3
	 M70.1,71.2C70.1,71.2,70.2,71.2,70.1,71.2C70.2,71.2,70.2,71.2,70.1,71.2c0.4,1.4,0.5,3.7-0.4,6.3c-0.1,0.3,0,0.7,0.3,0.8
	c0.3,0.1,0.7,0.1,1,0c0,0,1.8-1.2,3.8-1.4l0,0l0,0c-1.4,1.9-4.4,5.3-8,6l0,0l0,0C66.1,81.4,65.5,76.9,70.1,71.2 M62,83.4
	c0.4-1.5,1.2-3,2.2-4.5l0,0l0,0c0.4,1.4,0.8,3.5,0.3,6.3c0,0.3,0.1,0.7,0.4,0.8c0.3,0.1,0.7,0.1,1-0.1c0,0,1.6-1.5,3.8-1.9l0,0l0,0
	c-0.3,0.7-0.8,1.5-1.5,2.6c-1.6,2.3-3.7,3.8-5.9,4.5l0,0l0,0c-0.1-0.4-0.7-1.6-0.8-3.3C61.4,86.4,61.5,84.9,62,83.4 M57.7,91.8
	c0.3-1.5,0.7-3.1,1.5-4.8l0,0l0,0l0,0c0.7,1.2,1.4,3.4,1.2,6.1c0,0.3,0.1,0.5,0.4,0.7c0.3,0.1,0.5,0.1,0.8-0.1
	c0.1,0,1.8-1.5,3.7-2.3l0,0l0,0c-0.1,0.8-0.5,1.5-0.8,2.3c-1.2,2.5-3,4.2-5.6,5.5l0,0l0,0c-0.3-0.5-1-1.5-1.2-3.1
	C57.4,94.8,57.4,93.3,57.7,91.8 M55.2,95.6C55.2,95.6,55.4,95.6,55.2,95.6C55.4,95.6,55.4,95.6,55.2,95.6c1,1.2,1.9,3.1,2,5.9
	c0,0.3,0.3,0.5,0.5,0.7c0.3,0.1,0.7,0,0.8-0.3c0,0,1.4-1.6,3.3-2.7l0,0l0,0c-0.1,0.8-0.3,1.6-0.5,2.5c-0.8,2.6-2.5,4.6-4.8,6.1l0,0
	l0,0c-0.3-0.4-1.1-1.4-1.6-3c-0.4-1.4-0.7-2.7-0.7-4.4C54.4,99,54.8,97.4,55.2,95.6 M52.6,104.8L52.6,104.8L52.6,104.8
	c1.1,1.1,2.3,2.9,2.9,5.6c0,0.3,0.3,0.5,0.5,0.5c0.3,0,0.7,0,0.8-0.3c0-0.1,1.2-1.8,2.9-3l0,0l0,0c0,0.8-0.1,1.6-0.3,2.5
	c-0.5,2.6-1.9,4.9-3.8,6.5l0,0l0,0c-0.4-0.4-1.2-1.2-1.9-2.7c-0.7-1.2-1-2.7-1.2-4.2C52.2,108.2,52.2,106.5,52.6,104.8 M51.3,113.9
	L51.3,113.9L51.3,113.9c1.1,1,2.5,2.9,3.1,5.5c0.1,0.3,0.4,0.5,0.7,0.5s0.7-0.1,0.8-0.4c0,0,0.8-1.8,2.5-3.1l0,0l0,0
	c0,1-0.1,1.9-0.3,2.7c-0.4,2.7-1.5,5-3.3,6.5l0,0l0,0c-0.4-0.3-1.4-1.2-2.2-2.6c-0.7-1.2-1.1-2.6-1.4-4.2
	C51,117.3,51,115.7,51.3,113.9 M50.5,123.6C50.5,123.5,50.5,123.5,50.5,123.6C50.6,123.5,50.6,123.5,50.5,123.6
	c0.3,0.1,0.5,0.3,0.7,0.5c0.8,1,2,2.5,2.7,4.8c0.1,0.3,0.4,0.5,0.8,0.5c0.4,0,0.7-0.3,0.7-0.7l0,0c0,0,0.4-1.9,2-3.4l0,0l0,0
	c0.1,1.1,0.3,2.7,0,4.5c-0.4,2.2-1.2,4-2.7,5.3l0,0l0,0C53.3,134.1,50,130.8,50.5,123.6 M50,132.9C50.2,132.9,50.2,132.9,50,132.9
	c0.3,0.1,0.5,0.3,0.7,0.5c1,0.8,2.3,2.2,3.3,4.4c0.1,0.3,0.4,0.4,0.7,0.4l0,0l0,0c0.3,0,0.5-0.1,0.7-0.5c0,0,0.8-2,2.2-3.7l0,0l0,0
	c0.4,1.9,0.7,5.9-2.2,9.8l0,0l0,0C54,143,50.5,140.1,50,132.9L50,132.9 M50.6,142.5L50.6,142.5C50.6,142.4,50.6,142.4,50.6,142.5
	c1.4,0.5,3.1,1.8,4.8,4.1c0.1,0.3,0.5,0.4,0.8,0.3c0.3,0,0.5-0.3,0.5-0.5l0,0l0,0l0,0c0-0.1,0.5-2.3,1.6-4.1l0,0l0,0
	c0.4,0.8,0.7,1.6,0.8,2.5c0.5,2.6,0.1,5.2-1.4,7.6l0,0l0,0c-0.4-0.1-1.6-0.7-2.9-1.8c-1.1-1-1.9-2-2.7-3.4
	C51.5,145.8,51,144.3,50.6,142.5 M52.8,151.5C52.8,151.5,52.8,151.4,52.8,151.5C52.8,151.4,52.8,151.4,52.8,151.5
	c0.3,0,0.5,0.1,0.8,0.3c1.1,0.5,2.7,1.6,4.2,3.5c0.1,0.3,0.5,0.4,0.8,0.3c0.3-0.1,0.5-0.3,0.5-0.7c0,0,0.3-2.2,1.2-4l0,0l0,0
	c1,2,2.2,6,0.4,10l0,0l0,0C59,160.4,55,158.5,52.8,151.5 M58.2,164.8c-1-1.2-1.8-2.6-2.6-4.2l0,0l0,0c0.3,0.1,0.5,0.1,0.8,0.3
	c1.2,0.4,2.9,1.4,4.6,3c0.3,0.3,0.5,0.3,0.8,0.1c0.3-0.1,0.5-0.4,0.5-0.7c0,0,0-2.2,0.7-4.1l0,0l0,0c0.4,0.8,0.8,1.6,1.1,2.3
	c1,2.6,1.1,5,0.4,7.4l0,0l0,0c-0.5-0.1-1.8-0.4-3.1-1.2C60.3,167.1,59.2,166,58.2,164.8 M59.5,169.1C59.5,169.1,59.5,169,59.5,169.1
	C59.6,169,59.6,169,59.5,169.1c1.5,0.1,3.5,0.8,5.7,2.6c0.3,0.1,0.5,0.3,0.8,0.1c0.3-0.1,0.4-0.4,0.4-0.8c0-0.1-0.3-2,0.3-4l0,0l0,0
	c0.5,0.8,1,1.5,1.4,2.3c0.8,1.8,1.8,4.4,1.4,7.1l0,0l0,0c-0.5,0-1.8-0.1-3.3-0.8c-1.2-0.5-2.5-1.4-3.7-2.5
	C61.5,172,60.4,170.6,59.5,169.1 M77.3,184.7c0,0-0.8-1.9-1-4l0,0l0,0c1.8,1.5,4.8,4.6,4.6,8.9l0,0c-0.3,0-0.7,0.1-1.2,0.1
	c-0.5,0-1.1,0-1.9-0.1c-2.6-0.5-5.3-2-7.9-4.5l0,0l0,0c1.4-0.1,3.7-0.1,6.3,0.8c0.3,0.1,0.7,0,0.8-0.1
	C77.5,185.2,77.5,185,77.3,184.7 M70.4,179.1c0.3,0.1,0.5,0.1,0.8,0c0.3-0.1,0.4-0.5,0.3-0.8c0,0-0.5-1.9-0.3-4l0,0l0,0
	c1.5,1.8,4,5.3,3.7,9.1l0,0c-0.1,0-0.3,0-0.4,0c-0.7,0-1.8-0.1-3-0.5c-1.4-0.4-2.6-1.1-4-2.2c-1.2-1-2.3-2.2-3.4-3.7l0,0l0,0
	C65.7,177.2,68,177.6,70.4,179.1 M100.6,158.6c-0.3,0.1-0.5,0.3-0.7,0.5c-1.6,1.2-2.7,2.5-3,3.7c-0.3,0-0.4-0.1-0.5-0.1
	c-1.2-0.4-1.4-1.1-1.4-1.2c0-0.7,0.3-1.2,1.2-2.2c1.1-1.1,2-1.6,2.9-1.6c0.3,0,0.5,0,0.8,0.1c0.4,0.1,0.7,0.4,0.7,0.7
	C100.6,158.5,100.8,158.6,100.6,158.6 M102.3,165c-0.5,0.1-1.9,0.3-2.6-0.3c-0.1-0.1-0.3-0.3-0.4-0.7c-0.1-1.1,1.2-2.2,2.2-2.9
	c1.4-1,2.2-1.5,3-1.5c0.4,0,0.7,0.1,1.1,0.4c0.3,0.3,0.4,0.4,0.4,0.5c0,0.4-0.4,0.8-0.8,1.2C103.6,163,102.8,164,102.3,165
	 M108.8,165.3c-0.5,0.4-2.2,1.5-3.4,1.2c-0.1,0-0.5-0.1-0.8-0.4c0.5-1.2,1.8-1.9,2.9-2.6c1.5-0.8,2-0.4,2-0.4
	c0.4,0.4,0.4,0.7,0.4,0.7C110.1,164.4,109.4,165,108.8,165.3C109,165.3,109,165.3,108.8,165.3 M95.1,156.9c-0.1,0.1-0.4,0.4-0.5,0.5
	c-0.8,0.7-1.6,1.6-1.9,2.9c-0.1,0-0.4,0-0.5,0c-0.8-0.1-1.2-0.4-1.4-0.5c0-0.1-0.3-0.5,0.3-1.1c0.7-1,2.2-1.6,3.3-1.6
	c0.1,0,0.1,0,0.3,0h0.1C94.6,156.7,94.9,156.7,95.1,156.9 M128.3,158.4c-0.4,0.4-1,0.5-1.8,0.5c-1.1-1.5-4-4.9-7.5-6.7
	c-0.3-0.1-0.7-0.1-1,0c-0.3,0.1-0.5,0.4-0.7,0.7c-0.1,0.3-0.1,0.7,0,1c0.1,0.3,0.4,0.5,0.7,0.7c3,1.5,5.5,4.5,6.5,5.9
	c-0.1,0.3-0.3,0.4-0.4,0.5c-0.5,0.5-1.2,0.8-2.2,0.8c-0.3-0.7-1-1.5-1.8-2.5c-1.1-1.2-3.3-2.9-3.4-2.9c-0.3-0.1-0.7-0.3-1-0.3
	s-0.7,0.3-0.8,0.5s-0.3,0.7-0.3,1s0.3,0.7,0.5,0.8c0.5,0.4,2.2,1.6,3,2.5c0.8,1,1.2,1.6,1.4,1.9c-0.1,0.3-0.3,0.5-0.5,0.8
	c-0.4,0.4-1.1,0.7-1.8,0.5c-0.3-0.7-1.1-2-2.3-3.5c-0.4-0.5-1.4-0.5-1.8-0.1c-0.3,0.3-0.4,0.5-0.4,1s0.1,0.7,0.3,1
	c1,1,1.5,1.9,1.8,2.6c-0.3,0.1-0.4,0.3-0.7,0.4c-0.7,0.3-1.4,0.4-2,0.3c0.3-0.5,0.5-1.1,0.5-1.5c0.1-0.7,0-1.8-1.1-2.9
	c-0.5-0.5-1.6-1.1-3.1-0.8c-0.1-0.8-0.5-1.5-1.2-2.2c-1.2-1-2.6-1.4-4.1-0.8l0,0c-0.3-0.5-0.8-1.4-1.9-2c-1.1-0.5-2.3-0.7-3.4-0.3
	c-1.1-1-2.5-1.1-2.9-1.1c-1.8-0.3-4,0.5-5.5,1.9c-7.4,4-16.9,8.2-20.7,10c-2-3.8-3.8-7.9-5.2-12.3c-0.4-1.2-0.7-2.3-1.1-3.5
	c10.9-1.2,19.6-2.5,25.9-3.8c6.7-1.4,11-2.7,13.2-4.2c2.6-1.8,4.2-2.7,6.7-2.5c0.5,0,1.1,0.1,1.6,0.1c-0.4,0.1-1,0.4-1.4,0.7
	c-1,0.7-1.6,1.2-2.2,1.6c-0.5,0.4-1,0.8-1.8,1.2c-0.5,0.3-1.1,0.7-1.8,1c-1.5,0.7-2.7,1.4-3.1,2.3c-0.4,1.1-0.3,2,0.5,3.1
	c1.2,1.6,3,1.5,4.5,1.5c1.6-0.1,3.8-0.7,5.3-1.6c0.5-0.3,1-0.7,1.5-1c0.7-0.4,1.2-0.8,1.6-0.8c0,0,0,0,0.1,0
	c1.4-0.4,2.7-0.3,4.5,0.4c1.6,0.5,3.1,1.5,4.5,2.5c3.4,2.2,5.9,5.2,6.7,6.1C128.9,157.5,128.7,158.1,128.3,158.4 M133.1,157.4
	c-1.1-0.8-1.9-1.6-2.3-2l0,0l0,0c-0.1-0.1-0.1-0.1-0.1-0.3c-1.2-1.4-3.5-4.1-6.8-6.1c-2.3-1.5-6.8-4.5-11.2-3.3
	c-0.8,0.1-1.6,0.7-2.5,1.2c-0.4,0.3-0.8,0.5-1.4,0.8c-1.4,0.8-3,1.2-4.1,1.2c-1.2,0.1-2,0.1-2.3-0.4c-0.3-0.4-0.3-0.5-0.3-0.7
	c0.3-0.3,1.2-0.8,1.8-1c0.7-0.4,1.5-0.7,2-1.1c0.8-0.5,1.4-1,1.9-1.5c0.5-0.4,1.1-1,2-1.5c1.2-1,2.7-1,4.8-1l0,0c0.3,0,0.7,0,1,0
	s0.5,0,0.8,0c2.3-0.1,4.4,0.7,7.5,1.8c1,0.3,1.9,0.7,3.1,1.1c0.1,0,4.4,1.4,10.1,2.7c4.9,1.2,12.3,2.7,19.2,3.1
	c-0.3,1.1-0.7,2.2-1,3.3c-1.5,4.5-3.3,8.7-5.3,12.7C146.9,165,138.6,161.5,133.1,157.4 M149.1,185c-3.3,3.1-6.1,4.2-7.9,4.5
	c-0.7,0.1-1.4,0.1-1.9,0.1s-1,0-1.2-0.1l0,0c-0.1-2.3,0.8-4.6,2.7-6.8c0.5-0.7,1.2-1.4,2-1.9l0,0l0,0c-0.3,2-1,3.8-1,3.8
	c-0.1,0.3,0,0.7,0.1,0.8c0.3,0.3,0.5,0.3,0.8,0.1C145.4,184.7,147.7,184.7,149.1,185C149.1,184.8,149.1,184.8,149.1,185
	C149.2,185,149.1,185,149.1,185 M154.9,177.2c-1.1,1.5-2.2,2.7-3.4,3.7s-2.6,1.6-4,2.2c-1.2,0.4-2.3,0.5-3,0.5c-0.1,0-0.3,0-0.4,0
	l0,0c-0.1-2.3,0.5-4.6,2-7c0.4-0.7,1-1.5,1.6-2.2l0,0l0,0c0.1,2-0.3,4.1-0.3,4.1c0,0.3,0,0.7,0.3,0.8s0.5,0.1,0.8,0
	C151.2,177.6,153.6,177.2,154.9,177.2C154.9,177.1,154.9,177.1,154.9,177.2C154.9,177.1,154.9,177.2,154.9,177.2 M156.7,173.1
	c-1.1,1.1-2.3,1.9-3.7,2.5c-1.5,0.7-2.9,0.8-3.3,0.8l0,0l0,0c-0.4-2.3,0-4.6,1.4-7.2c0.4-0.8,0.8-1.5,1.4-2.3l0,0l0,0
	c0.4,1.9,0.3,4.1,0.3,4.1c0,0.3,0.1,0.5,0.4,0.8c0.3,0.1,0.5,0.1,0.8-0.1c2.2-1.8,4.4-2.3,5.7-2.6l0,0l0,0
	C158.9,170.6,157.9,172,156.7,173.1 M161.1,164.8c-1,1.2-2,2.2-3.3,2.9c-1.4,0.8-2.6,1.1-3.1,1.2l0,0l0,0c-0.7-2.3-0.5-4.8,0.4-7.4
	c0.3-0.8,0.7-1.5,1.1-2.3l0,0l0,0c0.7,1.9,0.7,4,0.7,4.1c0,0.3,0.3,0.5,0.5,0.7s0.7,0,0.8-0.1c1.8-1.9,3.4-2.7,4.6-3.1
	c0.3-0.1,0.5-0.1,0.8-0.3l0,0l0,0C163,162,162,163.5,161.1,164.8 M164.3,156c-0.8,1.4-1.9,2.5-3,3.3c-1.4,1-2.6,1.4-3,1.5l0,0l0,0
	c-1.1-2.7-0.8-5.5-0.3-7.5c0.3-0.8,0.5-1.8,0.8-2.6l0,0l0,0c0.8,1.9,1.1,4.1,1.1,4.1c0,0.3,0.3,0.5,0.5,0.7c0.3,0.1,0.7,0,0.8-0.3
	c1.8-2.2,3.7-3.3,5-3.8l0,0l0,0C165.8,153.2,165.2,154.7,164.3,156 M166.8,146.9c-0.7,1.4-1.5,2.6-2.6,3.5c-1.1,1.1-2.3,1.6-2.9,1.9
	l0,0l0,0c-1.2-2.2-1.6-4.6-1.2-7.5c0.1-0.8,0.3-1.8,0.5-2.6l0,0l0,0c1.1,1.8,1.6,4.1,1.6,4.1c0.1,0.3,0.3,0.5,0.7,0.5
	c0.3,0,0.7-0.1,0.8-0.4c1.5-2.3,3.3-3.7,4.5-4.4l0,0l0,0C167.9,143.9,167.5,145.5,166.8,146.9"/>
<path class="st3" d="M126.3,55c1.8,0,3.4,0.4,5,1.1h0.3c1,0.1,2.7,0.4,4.8,0.5c0.1,0,0.3,0,0.5,0c-1.1-0.3-1.8-0.8-2.6-1.2
	c-0.5-0.3-1-0.5-1.6-0.8c-2-1-3.8-1.2-4.1-1.2c-0.3,0-0.4-0.3-0.4-0.5c0-0.3,0.1-0.5,0.4-0.5l9.1-1.4l-9.1-1.4
	c-0.3,0-0.4-0.1-0.4-0.4s0-0.4,0.3-0.5c0,0,1.5-1,3.5-1.4c1-0.1,2.7-0.7,4.5-1.2c0.1,0,0.3-0.1,0.4-0.1c-1.1,0.1-1.9,0-2.9-0.1
	c-0.5,0-1.1-0.1-1.8-0.1c-2.2-0.1-4,0.4-4.2,0.4c-0.3,0-0.5,0-0.7-0.3c-0.1-0.3,0-0.5,0.3-0.7l7.9-4.8l-9,2.3c-0.3,0-0.4,0-0.5-0.3
	c-0.1-0.1-0.1-0.4,0-0.5c0,0,1.1-1.5,2.7-2.7c0.8-0.5,2.2-1.6,3.7-2.9c0.1-0.1,0.3-0.3,0.4-0.3c-1,0.5-1.8,0.8-2.7,1
	c-0.5,0.1-1.1,0.3-1.8,0.5c-2.2,0.8-3.7,2-3.8,2c-0.3,0.1-0.5,0.1-0.7,0c-0.1-0.1-0.3-0.5,0-0.7l5.6-7.5l-7.5,5.6
	c-0.1,0.1-0.4,0.1-0.5,0c-0.1-0.1-0.3-0.4-0.3-0.5c0-0.1,0.4-1.8,1.5-3.5c0.5-0.8,1.5-2.3,2.3-4.1c0.1-0.1,0.1-0.3,0.3-0.4
	c-0.7,0.8-1.4,1.4-2.2,2c-0.4,0.4-1,0.7-1.4,1.2c-1.6,1.5-2.6,3.1-2.7,3.3c-0.1,0.3-0.4,0.3-0.7,0.3c-0.3-0.1-0.4-0.4-0.3-0.7l2.3-9
	l-4.8,7.9c-0.1,0.1-0.3,0.3-0.5,0.3s-0.4-0.3-0.4-0.4c0-0.1-0.3-1.8,0-3.8c0.1-1,0.4-2.7,0.5-4.8c0-0.1,0-0.3,0-0.5
	c-0.3,1.1-0.8,1.8-1.2,2.6c-0.3,0.5-0.5,1-0.8,1.6c-1,2-1.2,4-1.2,4.1c0,0.3-0.3,0.4-0.5,0.4s-0.5-0.1-0.5-0.4l-1.4-9.1l-1.2,9.1
	c0,0.3-0.1,0.4-0.4,0.4s-0.4,0-0.5-0.3c-0.1-0.1-1-1.6-1.4-3.5c-0.1-1-0.7-2.7-1.2-4.5c0-0.1-0.1-0.3-0.1-0.4c0.1,1.1,0,1.9-0.1,2.9
	c0,0.5-0.1,1.1-0.1,1.8c-0.1,2.2,0.4,4.1,0.4,4.2c0,0.3,0,0.5-0.3,0.7c-0.3,0.1-0.5,0-0.7-0.3l-4.8-7.9l2.3,9c0,0.3,0,0.4-0.3,0.5
	c-0.1,0.1-0.4,0.1-0.5,0c-0.1-0.1-1.5-1.1-2.7-2.7c-0.5-0.8-1.6-2.2-3-3.7c-0.1-0.1-0.3-0.3-0.3-0.4c0.5,1,0.8,1.8,1,2.7
	c0.1,0.5,0.3,1.1,0.5,1.8c0.8,2,1.9,3.5,2,3.8c0.1,0.3,0.1,0.5,0,0.7c-0.1,0.1-0.5,0.3-0.7,0l-7.5-5.6l5.6,7.4
	c0.1,0.1,0.1,0.4,0,0.5c-0.1,0.1-0.4,0.3-0.5,0.3c-0.1,0-1.8-0.4-3.5-1.5c-0.8-0.5-2.3-1.5-4.1-2.3c-0.1-0.1-0.3-0.1-0.4-0.3
	c0.8,0.7,1.4,1.4,1.9,2.2c0.4,0.4,0.7,1,1.2,1.4c1.5,1.6,3.3,2.7,3.3,2.7c0.3,0.1,0.3,0.4,0.3,0.7c-0.1,0.3-0.4,0.4-0.7,0.3l-9-2.3
	l8,4.8c0.1,0.1,0.3,0.3,0.3,0.5s-0.3,0.4-0.4,0.4c-0.1,0-1.8,0.3-3.8,0c-1-0.1-2.7-0.4-4.8-0.5c-0.1,0-0.3,0-0.5,0
	c1.1,0.3,1.8,0.8,2.6,1.2c0.4,0.3,1,0.5,1.6,0.8c2,1,4.1,1.2,4.1,1.2c0.3,0,0.4,0.3,0.4,0.5s-0.1,0.5-0.4,0.5l-9.1,1.4l9.1,1.4
	c0.3,0,0.4,0.1,0.4,0.4c0,0.3,0,0.4-0.3,0.5c0,0-1.5,1-3.5,1.4c-1,0.1-2.7,0.7-4.5,1.2c-0.1,0-0.3,0.1-0.4,0.1
	c1.1-0.1,1.9,0,2.9,0.1c0.1,0,1.4,0.1,1.8,0.1c0.4,0,1,0,1.4,0l0.1-0.1c1.8-1.2,4-2.2,6.5-3c0.3-0.1,0.7,0,1,0.1s0.4,0.4,0.4,0.7
	c0.4-0.3,1-0.5,1.5-0.7c1.9-0.8,4.2-1.4,7-1.6c0.3,0,0.7,0.1,0.8,0.3c0.1,0.1,0.3,0.4,0.3,0.5c0.7-0.3,1.5-0.5,2.3-0.7
	c2-0.4,4.5-0.4,7.1-0.1c0.4,0,0.7,0.3,0.8,0.5c0,0.1,0.1,0.1,0.1,0.3c0.7-0.1,1.5-0.1,2.2-0.1c2.2,0,4.5,0.4,7,1.4
	C125.9,54.3,126.1,54.6,126.3,55L126.3,55"/>
<path class="st2" d="M112.8,43.4c9-1.4,10,1.1,10,1.1s0.3,0.5,1,0.4c0,0,0.5,0,0.3-0.8c0,0-1-2.9-5.7-3.4c0,0-2.5-0.3-5.2,0.1
	c-0.8,0.1-1,1.9-1,1.9C112.1,43.5,112.8,43.4,112.8,43.4"/>
<path class="st2" d="M105.3,45.2c-1.1-0.5-3.5-0.4-3.5-0.4c-4.1,0.1-5,2.6-5,2.6c-0.4,0.8,0.4,1,0.4,1c0.8,0.3,1.1-0.4,1.1-0.4
	s0.3-0.7,1.9-1.1c-0.1,0.3-0.1,0.5-0.1,0.8c0,1.1,1,2,2,2c1.1,0,2-1,2-2c0-0.3,0-0.5-0.1-0.8c0.5,0.3,1.1,0.7,1.5,1.4
	c0.1,0.3,0.4,0.4,1.2,0.4c0.8,0,0.7-0.5,0.7-0.5C106.5,45.7,105.3,45.2,105.3,45.2"/>
<path class="st2" d="M112.6,48.4c0.8,0,1.1-0.1,1.2-0.4c0.4-0.7,1-1.1,1.5-1.4c-0.1,0.3-0.1,0.5-0.1,0.8c0,1.1,1,2,2,2
	c1.1,0,2-1,2-2c0-0.3,0-0.5-0.1-0.8c1.6,0.4,1.9,1.1,1.9,1.1s0.3,0.7,1.1,0.4c0,0,0.7-0.1,0.4-1c0,0-1.1-2.5-5-2.6
	c0,0-2.5-0.1-3.5,0.4c0,0-1.4,0.7-1.8,2.7C112.1,47.9,111.8,48.4,112.6,48.4"/>
<path class="st2" d="M95.3,44.9c0.7,0.1,1-0.4,1-0.4s1-2.6,10-1.1c0,0,0.8,0.1,0.7-0.7c0,0-0.3-1.8-1-1.9c-2.7-0.4-5.2-0.1-5.2-0.1
	c-4.8,0.5-5.7,3.4-5.7,3.4C94.8,44.9,95.3,44.9,95.3,44.9"/>
<path class="st4" d="M149.1,184.8c-1.4-0.1-3.7-0.1-6.3,0.8c-0.3,0.1-0.7,0-0.8-0.1c-0.3-0.3-0.3-0.5-0.1-0.8c0,0,0.8-1.9,1-3.8l0,0
	l0,0c-0.7,0.5-1.4,1.2-2,1.9c-1.9,2.2-2.9,4.5-2.7,6.8l0,0c0.3,0,0.7,0.1,1.2,0.1c0.5,0,1.1,0,1.9-0.1
	C142.9,189.2,145.8,188.1,149.1,184.8C149.1,185,149.2,185,149.1,184.8L149.1,184.8"/>
<path class="st4" d="M76.5,180.7C76.5,180.6,76.5,180.6,76.5,180.7L76.5,180.7c0.1,2,0.8,4,0.8,4c0.1,0.3,0,0.7-0.1,0.8
	c-0.3,0.3-0.5,0.3-0.8,0.1c-2.6-1-4.8-1-6.3-0.8l0,0l0,0c2.7,2.5,5.3,4.1,7.9,4.5c0.7,0.1,1.4,0.1,1.9,0.1c0.5,0,1,0,1.2-0.1l0,0
	C81.3,185.4,78.3,182.2,76.5,180.7"/>
<path class="st4" d="M154.9,177.1c-1.5,0.1-3.7,0.5-6,2c-0.3,0.1-0.5,0.1-0.8,0c-0.3-0.1-0.4-0.5-0.3-0.8c0,0,0.4-2,0.3-4.1l0,0l0,0
	c-0.5,0.7-1.1,1.4-1.6,2.2c-1.5,2.3-2.2,4.8-2,7l0,0c0.1,0,0.3,0,0.4,0c0.7,0,1.8-0.1,3-0.5c1.4-0.4,2.6-1.1,3.8-2.2
	C152.7,179.8,154,178.6,154.9,177.1C154.9,177.2,154.9,177.1,154.9,177.1L154.9,177.1"/>
<path class="st4" d="M159.7,169c-1.4,0.3-3.5,1-5.7,2.6c-0.3,0.1-0.5,0.3-0.8,0.1c-0.3-0.1-0.4-0.4-0.4-0.8c0,0,0.1-2-0.3-4.1l0,0
	l0,0c-0.5,0.7-1,1.5-1.4,2.3c-1.2,2.5-1.6,4.9-1.4,7.2l0,0l0,0c0.5,0,1.8-0.1,3.3-0.8c1.2-0.5,2.5-1.4,3.7-2.5
	C157.9,172,158.9,170.6,159.7,169C159.8,169.1,159.8,169,159.7,169C159.8,169,159.7,169,159.7,169"/>
<path class="st4" d="M163.7,160.3c-0.3,0-0.5,0.1-0.8,0.3c-1.1,0.4-2.9,1.2-4.6,3.1c-0.3,0.3-0.5,0.3-0.8,0.1
	c-0.3-0.1-0.5-0.4-0.5-0.7c0,0-0.1-2-0.7-4.1l0,0l0,0c-0.4,0.7-0.8,1.5-1.1,2.3c-1,2.6-1.1,5-0.4,7.4l0,0l0,0
	c0.5-0.1,1.8-0.4,3.1-1.2c1.2-0.7,2.3-1.6,3.3-2.9C162,163.5,163,162,163.7,160.3L163.7,160.3L163.7,160.3"/>
<path class="st4" d="M166.4,151.4c-1.4,0.5-3.3,1.6-5,3.8c-0.1,0.3-0.5,0.3-0.8,0.3c-0.3-0.1-0.5-0.3-0.5-0.7c0-0.1-0.3-2.2-1.1-4.1
	l0,0l0,0c-0.4,0.8-0.7,1.8-0.8,2.6c-0.4,1.9-0.8,4.8,0.3,7.5l0,0l0,0c0.4-0.1,1.6-0.5,3-1.5c1.1-0.8,2.2-1.9,3-3.3
	C165.2,154.7,165.8,153.2,166.4,151.4C166.5,151.4,166.4,151.4,166.4,151.4L166.4,151.4"/>
<path class="st4" d="M168.2,142.1c-1.2,0.7-3,2-4.5,4.4c-0.1,0.3-0.4,0.4-0.8,0.4c-0.3,0-0.5-0.3-0.7-0.5c0,0-0.5-2.3-1.6-4.1l0,0
	l0,0c-0.3,0.8-0.4,1.8-0.5,2.6c-0.3,2.9,0.1,5.3,1.2,7.5l0,0l0,0c0.5-0.3,1.6-0.8,2.9-1.9c1.1-1,1.9-2.2,2.6-3.5
	C167.5,145.5,167.9,143.9,168.2,142.1C168.3,142.1,168.3,142.1,168.2,142.1C168.3,142.1,168.2,142.1,168.2,142.1"/>
<path class="st4" d="M165,137.5c-0.1,0.3-0.4,0.4-0.7,0.4s-0.5-0.3-0.7-0.5c0,0-0.7-2-2-3.7l0,0l0,0c-0.1,1-0.3,1.8-0.3,2.7
	c0,2.7,0.7,5.2,2,7.1l0,0l0,0c0.4-0.3,1.5-1,2.6-2.2c1-1.1,1.6-2.3,2.2-3.8c0.5-1.5,0.8-3.1,1-4.9l0,0l0,0
	C167.9,133.5,166.2,135,165,137.5"/>
<path class="st4" d="M164.7,129c-0.3,0-0.5-0.1-0.7-0.4c0,0-1-1.8-2.3-3.3l0,0l0,0c-0.1,2.3,0.1,6.5,2.7,9.4l0,0l0,0
	c0.4-0.3,1.4-1.1,2.3-2.5c0.8-1.1,1.4-2.5,1.8-4s0.5-3.1,0.5-4.9l0,0l0,0c-1.1,1-2.6,2.6-3.5,5.2C165.3,128.9,165,129,164.7,129"/>
<path class="st4" d="M164.2,119.9c-0.3,0-0.5-0.1-0.8-0.4c0,0-1.1-1.6-2.6-3l0,0l0,0c0.3,2.5,1,7,3.5,9.1l0,0l0,0
	c0.4-0.3,1.4-1.2,2.2-2.6c0.7-1.2,1.1-2.6,1.4-4.2c0.3-1.5,0.3-3.1,0-5l0,0l0,0c-1,1.1-2.3,2.9-3,5.5
	C164.7,119.6,164.6,119.9,164.2,119.9"/>
<path class="st4" d="M163.1,111.2c-0.3,0-0.7,0-0.8-0.3c0,0-1.2-1.6-2.7-3l0,0l0,0c0.1,1,0.3,1.8,0.4,2.6c0.4,1.9,1.5,4.5,3.5,6.3
	l0,0l0,0c0.4-0.3,1.2-1.2,2-2.7c0.7-1.2,1-2.7,1.2-4.2c0.1-1.5,0.1-3.3-0.3-4.9l0,0l0,0c-1,1.1-2.2,3-2.7,5.6
	C163.7,110.8,163.4,111,163.1,111.2"/>
<path class="st4" d="M161.1,102.4c-0.3,0.1-0.7,0-0.8-0.3c0,0-1.5-1.5-3.1-2.6l0,0l0,0c0.1,0.8,0.4,1.8,0.8,2.6
	c1.1,2.6,2.6,4.6,4.5,5.9l0,0l0,0c0.3-0.4,1.1-1.4,1.6-3c0.4-1.4,0.7-2.7,0.5-4.4c0-1.5-0.4-3.1-1-4.9l0,0l0,0
	c-0.8,1.2-1.8,3.1-1.9,6C161.6,102,161.3,102.3,161.1,102.4"/>
<path class="st4" d="M157.2,93.7c0,0-1.6-1.4-3.4-2.3l0,0l0,0c0.3,0.8,0.7,1.6,1.1,2.5c1.2,2.5,3,4.2,5,5.3l0,0l0,0
	c0.3-0.4,1-1.5,1.2-3.1c0.3-1.4,0.4-2.9,0.1-4.4c-0.3-1.5-0.7-3.1-1.4-4.8l0,0l0,0c-0.7,1.2-1.4,3.4-1.2,6.1c0,0.3-0.1,0.5-0.4,0.7
	C157.8,94,157.4,94,157.2,93.7"/>
<path class="st4" d="M149.5,83.8C149.5,83.9,149.5,83.9,149.5,83.8c0.4,1,0.8,1.6,1.2,2.5c1.5,2.3,3.5,4,5.9,4.8l0,0l0,0
	c0.3-0.4,0.7-1.6,1-3.3c0.1-1.4,0-2.9-0.4-4.4c-0.4-1.5-1.1-3-1.9-4.6l0,0l0,0c-0.5,1.4-1,3.5-0.5,6.3c0,0.3-0.1,0.7-0.4,0.8
	c-0.3,0.1-0.7,0.1-0.8,0C153.3,85.7,151.5,84.3,149.5,83.8L149.5,83.8"/>
<path class="st4" d="M144.4,77.1C144.3,77.1,144.3,77.1,144.4,77.1c0.5,0.8,1.1,1.6,1.8,2.3c1.9,2,4.1,3.3,6.4,3.7l0,0l0,0
	c0.1-0.5,0.4-1.8,0.4-3.3c-0.1-1.4-0.4-2.9-1.1-4.2c-0.7-1.4-1.5-2.7-2.6-4.1l0,0l0,0c-0.3,1.5-0.4,3.7,0.4,6.1
	c0.1,0.3,0,0.7-0.3,0.8c-0.3,0.1-0.7,0.1-1,0C148.4,78.3,146.6,77.2,144.4,77.1C144.4,76.9,144.4,77.1,144.4,77.1"/>
<path class="st4" d="M143.3,71.5c-0.3,0.3-0.5,0.3-0.8,0.3c0,0-1.8-0.7-3.8-0.7c-0.1,0-0.1,0-0.3,0l0,0l0,0c0.7,0.7,1.5,1.4,2.2,2
	c1.5,1.2,4,2.6,6.5,2.6h0.1l0,0c0-0.5,0.1-1.8-0.3-3.4c-0.3-1.4-1-2.7-1.8-4.1c-0.8-1.2-1.9-2.5-3.3-3.7l0,0l0,0
	c0,1.4,0.1,3.7,1.5,6C143.6,70.9,143.6,71.2,143.3,71.5"/>
<path class="st4" d="M74.6,183.3c0.1,0,0.3,0,0.4,0l0,0c0.3-3.8-2.2-7.4-3.7-9.1l0,0l0,0c-0.3,2,0.3,4,0.3,4c0.1,0.3,0,0.7-0.3,0.8
	c-0.3,0.1-0.5,0.1-0.8,0c-2.3-1.5-4.5-1.9-6-2l0,0l0,0c1.1,1.5,2.2,2.7,3.4,3.7c1.2,1,2.6,1.6,4,2.2C73,183.3,73.9,183.3,74.6,183.3
	"/>
<path class="st4" d="M69.4,176.4L69.4,176.4C69.5,176.4,69.5,176.4,69.4,176.4c0.5-2.7-0.4-5.5-1.2-7.2c-0.4-0.8-0.8-1.5-1.4-2.3
	l0,0l0,0c-0.4,2-0.3,4-0.3,4c0,0.3-0.1,0.7-0.4,0.8c-0.3,0.1-0.5,0.1-0.8-0.1c-2.2-1.8-4.4-2.3-5.7-2.6l0,0l0,0c1,1.5,1.9,2.9,3,4
	c1.1,1.1,2.3,1.9,3.7,2.5C67.6,176.2,68.9,176.4,69.4,176.4"/>
<path class="st4" d="M64.6,169L64.6,169C64.8,169,64.8,168.9,64.6,169c0.8-2.3,0.7-4.8-0.4-7.4c-0.3-0.8-0.7-1.6-1.1-2.5l0,0l0,0
	c-0.7,1.9-0.7,4.1-0.7,4.1c0,0.3-0.1,0.5-0.5,0.7c-0.3,0.1-0.7,0-0.8-0.1c-1.6-1.6-3.4-2.6-4.6-3c-0.3-0.1-0.5-0.1-0.8-0.3l0,0l0,0
	c0.7,1.6,1.6,3.1,2.6,4.2c1,1.2,2,2.2,3.3,2.9C63,168.6,64.2,168.9,64.6,169"/>
<path class="st4" d="M60.8,160.8L60.8,160.8L60.8,160.8c1.9-4.1,0.5-7.9-0.3-10l0,0l0,0l0,0c-0.8,1.9-1.2,4-1.2,4
	c0,0.3-0.3,0.5-0.5,0.7c-0.3,0.1-0.7,0-0.8-0.3c-1.5-1.9-3.1-3-4.2-3.5c-0.3-0.1-0.5-0.3-0.7-0.4l0,0l0,0
	C55,158.5,59,160.4,60.8,160.8"/>
<path class="st4" d="M55,150.7c1.2,1.1,2.5,1.6,2.9,1.8l0,0l0,0c1.4-2.5,1.9-5,1.4-7.6c-0.1-0.8-0.4-1.6-0.8-2.5l0,0l0,0
	c-1.1,1.8-1.5,4-1.6,4.1l0,0l0,0c0,0.3-0.3,0.5-0.5,0.5c-0.3,0-0.5-0.1-0.8-0.3c-1.5-2.3-3.4-3.5-4.6-4.2l0,0l0,0
	c0.4,1.8,1,3.3,1.6,4.6C53,148.5,53.9,149.8,55,150.7"/>
<path class="st4" d="M55.5,143.9L55.5,143.9L55.5,143.9c3-4,2.7-7.8,2.3-9.8l0,0l0,0c-1.4,1.6-2.2,3.7-2.2,3.7
	c-0.1,0.3-0.4,0.4-0.7,0.5l0,0c-0.3,0-0.5-0.1-0.7-0.4c-1-2.2-2.3-3.5-3.3-4.4c-0.3-0.1-0.4-0.4-0.7-0.5l0,0l0,0
	C50.3,140.1,54,143,55.5,143.9"/>
<path class="st4" d="M54.7,135C54.7,135,54.8,135,54.7,135C54.8,135,54.8,135,54.7,135c1.5-1.4,2.3-3.1,2.7-5.3
	c0.3-1.8,0.1-3.4,0-4.5l0,0l0,0c-1.6,1.5-2,3.4-2,3.4c0,0.4-0.4,0.7-0.7,0.7c-0.4,0-0.7-0.1-0.8-0.5c-0.7-2.3-1.9-3.8-2.7-4.8
	c-0.1-0.1-0.4-0.4-0.5-0.5l0,0l0,0C50,130.8,53.3,134.1,54.7,135"/>
<path class="st4" d="M52.6,123c0.8,1.5,1.8,2.3,2.2,2.6l0,0l0,0c1.6-1.5,2.7-3.8,3.3-6.5c0.1-0.8,0.3-1.8,0.3-2.7l0,0l0,0
	c-1.5,1.4-2.5,3.1-2.5,3.1c-0.1,0.3-0.4,0.4-0.8,0.4c-0.3,0-0.5-0.3-0.7-0.5c-0.7-2.7-2-4.5-3-5.5l0,0l0,0c-0.3,1.8-0.3,3.4,0,5
	C51.4,120.5,52,121.8,52.6,123"/>
<path class="st4" d="M53.6,114c0.7,1.4,1.5,2.3,1.9,2.7l0,0l0,0c1.9-1.8,3.3-4,3.8-6.5c0.1-0.8,0.3-1.6,0.3-2.5l0,0l0,0
	c-1.6,1.2-2.9,3-2.9,3c-0.1,0.3-0.5,0.4-0.8,0.3c-0.3,0-0.5-0.3-0.5-0.5c-0.5-2.7-1.8-4.5-2.7-5.6l0,0l0,0c-0.3,1.8-0.4,3.4-0.3,4.9
	C52.5,111.3,52.9,112.7,53.6,114"/>
<path class="st4" d="M56.7,107.9L56.7,107.9L56.7,107.9c2.5-1.5,4.1-3.5,4.9-6.1c0.3-0.8,0.4-1.6,0.5-2.5l0,0l0,0
	c-1.9,1.1-3.3,2.7-3.3,2.7c-0.3,0.3-0.5,0.3-0.8,0.3c-0.3-0.1-0.5-0.4-0.5-0.7c-0.3-2.7-1.2-4.8-2-5.9l0,0l0,0
	c-0.5,1.8-0.8,3.4-0.8,4.9s0.1,3,0.7,4.4C55.6,106.5,56.5,107.5,56.7,107.9"/>
<path class="st4" d="M59,99.2C59,99.3,59,99.3,59,99.2C59,99.3,59,99.3,59,99.2c2.6-1.2,4.5-3.1,5.6-5.5c0.4-0.7,0.7-1.5,0.8-2.3
	l0,0l0,0c-1.9,0.8-3.5,2.2-3.7,2.3c-0.3,0.1-0.5,0.3-0.8,0.1s-0.4-0.4-0.4-0.7c0.1-2.7-0.5-4.9-1.2-6.1l0,0l0,0l0,0
	c-0.7,1.6-1.2,3.3-1.5,4.8c-0.3,1.5-0.1,3,0.1,4.4C58.1,97.7,58.6,98.8,59,99.2"/>
<path class="st4" d="M62.2,91C62.3,91,62.3,91,62.2,91C62.3,91,62.3,91,62.2,91c2.3-0.7,4.4-2.2,6-4.4c0.7-1,1.2-1.9,1.5-2.6l0,0
	l0,0c-2.2,0.3-3.8,1.8-3.8,1.9c-0.3,0.3-0.5,0.3-1,0.1c-0.3-0.1-0.4-0.5-0.4-0.8c0.5-2.7,0.1-4.9-0.3-6.3l0,0l0,0
	c-1,1.5-1.8,3-2.2,4.5c-0.4,1.5-0.7,3-0.5,4.4C61.5,89.4,62,90.6,62.2,91"/>
<path class="st4" d="M66.8,83.1L66.8,83.1c3.8-0.7,6.7-4,8-6l0,0l0,0c-2.2,0.1-3.8,1.4-3.8,1.4c-0.3,0.1-0.7,0.1-1,0
	s-0.4-0.5-0.3-0.8c0.8-2.6,0.7-4.8,0.4-6.3l0,0l0,0C65.5,76.9,66.1,81.4,66.8,83.1C66.7,83.1,66.8,83.1,66.8,83.1"/>
<path class="st4" d="M72.1,75.7c0.1,0,0.1,0,0.3,0c2.2,0,4.5-1.4,6.1-2.6c0.8-0.5,1.5-1.2,2.3-2l0,0l0,0c-2,0-3.8,0.7-4,0.7
	c-0.3,0.1-0.7,0-0.8-0.3c-0.3-0.3-0.3-0.5-0.1-0.8c1.2-2.5,1.5-4.6,1.5-6l0,0l0,0c-1.4,1.2-2.5,2.5-3.3,3.8
	c-0.8,1.4-1.5,2.7-1.8,4.1C71.9,73.9,72,75.2,72.1,75.7C72,75.7,72,75.7,72.1,75.7"/>
<path class="st4" d="M87.7,65.8c-2-0.1-4,0.3-4,0.3c-0.3,0-0.7,0-0.8-0.3c-0.1-0.3-0.1-0.5,0-0.8c1.5-2.3,1.9-4.5,2-5.9l0,0l0,0
	c-6,4.4-6.4,8.9-6.3,10.5l0,0c0.1,0,0.3,0,0.4,0C82.6,69.6,86.1,67.3,87.7,65.8C87.7,65.9,87.7,65.9,87.7,65.8L87.7,65.8"/>
<path class="st4" d="M95.3,62.1c-0.7-0.1-1.4-0.3-2-0.4c-1.1-0.1-1.9-0.1-2-0.1l0,0c-0.3,0-0.7-0.1-0.7-0.5c-0.1-0.3,0-0.7,0.3-0.8
	c2-1.8,3-3.4,3.5-4.5l0,0l0,0c-7,2.3-8.5,6.4-8.7,8l0,0c0.7,0.1,1.6,0.4,2.7,0.4c1.2,0,2.9-0.3,4.6-0.8C93.7,63,94.5,62.6,95.3,62.1
	C95.3,62.2,95.3,62.2,95.3,62.1C95.3,62.2,95.3,62.1,95.3,62.1"/>
<path class="st4" d="M103.6,59.9c-1.8-1-3.8-1.2-3.8-1.4c-0.3,0-0.5-0.3-0.7-0.7c0-0.3,0.1-0.7,0.4-0.8c2.3-1.1,3.4-2.3,4-3l0,0l0,0
	c-3.5,0.5-6.4,1.6-8.2,3.5c-1,1-1.4,1.8-1.6,2.3l0,0c1.5,0.7,3.1,1,4.6,1c1,0,1.9-0.1,2.7-0.3C101.9,60.4,102.8,60.3,103.6,59.9
	C103.6,60,103.6,59.9,103.6,59.9L103.6,59.9"/>
<path class="st4" d="M109.1,57.6c-0.3-0.1-0.5-0.4-0.5-0.8c0-0.3,0.3-0.7,0.5-0.7c2.3-0.7,3.7-1.5,4.4-2.2l0,0l0,0
	c-3.5-0.3-6.4,0.4-8.6,1.6c-1.1,0.7-1.8,1.5-2.2,2c0,0,0,0,0,0.1c2.3,1.8,5.5,2.2,7.8,2.2c0.7,0,1.4,0,1.9-0.1l0,0l0,0
	C111,58.3,109.1,57.6,109.1,57.6"/>
<path class="st4" d="M118.2,58.1c-0.3-0.1-0.4-0.5-0.3-0.8c0.1-0.3,0.4-0.5,0.7-0.5c2.3-0.3,3.8-0.8,4.8-1.2l0,0l0,0
	c-3.3-1-6.3-1-8.6,0c-1.2,0.4-2,1.1-2.5,1.5c0,0,0,0,0,0.1c2.9,3.4,7,4.1,9.1,4.2l0,0l0,0l0,0C120,59.4,118.2,58.1,118.2,58.1"/>
<path class="st4" d="M140.9,69.4L140.9,69.4c0-0.8,0-2.3-0.7-3.8c-1.1-2.7-3.1-4.5-6.3-5.6l0,0l0,0c0.4,1.2,1.2,3.1,2.5,4.6
	c0.3,0.3,0.3,0.7,0,1c-0.1,0.3-0.5,0.4-0.8,0.3c0,0-1.9-0.4-4,0l0,0l0,0c1.9,1.4,5.7,3.4,8.9,3.4C140.6,69.6,140.7,69.6,140.9,69.4"
	/>
<path class="st4" d="M133.7,63.9L133.7,63.9c-1.8-1.9-4-2.7-6.5-2.6c-1,0-1.9,0.3-2.9,0.5l0,0l0,0c2,1.6,4.4,2.5,6.5,2.5
	c0.1,0,0.3,0,0.4,0C132.2,64.4,133.1,64.1,133.7,63.9L133.7,63.9"/>
<path class="st4" d="M120.8,58.3L120.8,58.3c1.4,1,3,1.5,4.9,1.5c0.8,0,1.6-0.1,2.6-0.3c1.4-0.3,2.6-0.7,3.4-1l0,0l0,0
	c-1.2-0.7-2.6-1.2-3.8-1.4c-1.4-0.3-2.7-0.1-4.1,0.1C122.5,57.4,121.5,57.8,120.8,58.3L120.8,58.3"/>
<path class="st5" d="M94.9,109c0.4,0.5,1.1,0.8,2.2,0.8h10.1c-6-3.8-8.3-3.1-12.5-1.1C94.8,108.7,94.8,108.9,94.9,109"/>
<path class="st5" d="M119.5,104.4c-1-0.3-1.8-0.5-2.6-0.8c-3.1-1.2-5.7-3.3-5.9-3.4c-0.7-0.5-0.7-1.5-0.3-2c0.5-0.7,1.5-0.7,2-0.3
	c0,0,2.3,1.9,5.2,3c0.7,0.3,1.4,0.4,2.3,0.7c1.2,0.3,2.7,0.7,4.1,1.4c-0.3-1.6-0.5-3.1-0.8-4.5c-4.1-1-7.4-3.7-7.5-3.8
	c-0.3-0.3-0.5-0.5-0.5-1c0-0.4,0.1-0.8,0.3-1.1c0.5-0.7,1.5-0.7,2-0.1c0,0,2.2,1.8,4.9,2.7c-1.1-4-2.5-7.8-4.5-11.5
	c-1.4-2.6-3.4-4.5-6-5.3c-1.9-0.7-3.4-0.5-3.4-0.5h-0.1c0,0-4.9,0.1-7.9,3.7c0,0,0,0-0.1,0.1c-0.5,0.5-2,2.3-2.3,3.7
	c-0.1,0.7,0,1.4,0.5,1.6c0.3,0.1,1,0.4,2.3-0.5c0.3-0.3,0.5-0.4,0.7-0.5c0.7-0.4,1.5-0.3,2,0.3c0.5,0.7,0.4,1.5-0.3,2
	c-0.1,0.1-0.4,0.3-0.5,0.4c-0.5,0.5-1.9,1.6-3.3,3.5c-1.8,2.5-4.2,6.7-5.5,13c0,0.1,0,0.3,0,0.4c4.2-1.8,7.6-2.6,15,2.2
	c2.9,1.9,6.3,2,7,2h3.3c0,0,0,0,0.1,0c0.8,0,3.3-0.1,4.4-1.2c0.1-0.3,0.4-0.4,0.4-0.7C124.6,106,123,105.3,119.5,104.4"/>
<path class="st6" d="M105,162c0.4-0.3,0.8-0.8,0.8-1.2c0-0.1-0.1-0.4-0.4-0.7c-0.3-0.3-0.7-0.4-1.1-0.4c-0.7,0-1.6,0.5-3,1.5
	c-0.8,0.5-2.2,1.8-2.2,2.9c0,0.4,0.3,0.7,0.4,0.7c0.7,0.4,2,0.3,2.6,0.3C102.8,164,103.6,163,105,162"/>
<path class="st6" d="M110.1,163.8c0-0.1,0-0.3-0.4-0.7c0,0-0.7-0.5-2,0.4c-1.1,0.7-2.3,1.5-2.9,2.6c0.3,0.3,0.5,0.4,0.8,0.4
	c1.2,0.3,2.9-0.8,3.4-1.2c0,0,0,0,0.1-0.1C109.4,165,110.1,164.4,110.1,163.8"/>
<path class="st6" d="M94.5,156.7c-0.1,0-0.1,0-0.3,0c-1.1,0-2.6,0.7-3.3,1.6c-0.5,0.7-0.3,1-0.3,1.1c0.1,0.1,0.5,0.4,1.4,0.5
	c0.1,0,0.4,0,0.5,0c0.3-1.2,1.1-2,1.9-2.9c0.3-0.3,0.4-0.4,0.5-0.5C94.9,156.7,94.6,156.7,94.5,156.7L94.5,156.7"/>
<path class="st6" d="M94.9,161.4c0,0.3,0.1,0.8,1.4,1.4c0.1,0,0.4,0.1,0.5,0.1c0.4-1.2,1.4-2.5,3-3.7c0.3-0.1,0.4-0.3,0.7-0.5
	c0-0.1,0-0.1,0-0.3c0-0.3-0.3-0.4-0.7-0.7c-0.3-0.1-0.5-0.1-0.8-0.1c-0.8,0-1.8,0.5-2.9,1.6C95.3,160.1,94.9,160.7,94.9,161.4"/>
<path class="st6" d="M126.7,159c0.8,0,1.4-0.3,1.8-0.5c0.4-0.4,0.5-0.8,0.5-1.2c-0.7-1-3.3-4-6.7-6.1c-1.4-1-3-1.9-4.5-2.5
	c-1.8-0.7-3.3-0.8-4.5-0.4c0,0,0,0-0.1,0c-0.4,0.1-1,0.4-1.6,0.8c-0.4,0.3-1,0.5-1.5,1c-1.5,0.8-3.5,1.5-5.3,1.6
	c-1.5,0.1-3.4,0.1-4.5-1.5c-0.8-1.1-1-2-0.5-3.1c0.4-1.1,1.6-1.6,3.1-2.3c0.7-0.3,1.4-0.7,1.8-1c0.7-0.4,1.1-0.8,1.8-1.2
	c0.5-0.4,1.2-1,2.2-1.6c0.4-0.3,0.8-0.5,1.4-0.7c-0.5,0-1-0.1-1.6-0.1c-2.5-0.1-4.2,0.7-6.7,2.5c-2.2,1.5-6.5,2.9-13.2,4.2
	c-6.4,1.2-15.1,2.6-25.9,3.8c0.3,1.2,0.7,2.5,1.1,3.5c1.4,4.4,3.1,8.5,5.2,12.3c3.8-1.8,13.4-6,20.7-10c1.5-1.4,3.7-2.2,5.5-1.9
	c0.4,0,1.8,0.1,2.9,1.1c1.2-0.4,2.5-0.3,3.4,0.3c1.2,0.5,1.8,1.4,1.9,2l0,0c1.5-0.4,2.9-0.1,4.1,0.8c0.7,0.7,1.1,1.4,1.2,2.2
	c1.5-0.3,2.6,0.3,3.1,0.8c1.1,1.1,1.2,2.2,1.1,2.9c0,0.5-0.3,1.1-0.5,1.5c0.7,0.1,1.5,0,2-0.3c0.3-0.1,0.4-0.3,0.7-0.4
	c-0.3-0.7-0.8-1.6-1.8-2.6c-0.3-0.3-0.4-0.5-0.3-1c0-0.4,0.1-0.7,0.4-1c0.5-0.4,1.4-0.4,1.8,0.1c1.4,1.5,2,2.9,2.3,3.5
	c0.7,0.1,1.2-0.1,1.8-0.5c0.3-0.3,0.4-0.5,0.5-0.8c-0.1-0.3-0.5-1-1.4-1.9c-0.7-0.8-2.3-2-3-2.5c-0.3-0.1-0.4-0.5-0.5-0.8
	c0-0.4,0-0.7,0.3-1c0.1-0.3,0.5-0.4,0.8-0.5c0.3,0,0.7,0,1,0.3c0.1,0,2.3,1.6,3.4,2.9c0.8,1,1.4,1.8,1.8,2.5c1,0,1.6-0.3,2.2-0.8
	c0.1-0.1,0.3-0.4,0.4-0.5c-1-1.4-3.5-4.4-6.5-5.9c-0.3-0.1-0.5-0.4-0.7-0.7c-0.1-0.3-0.1-0.7,0-1c0.1-0.3,0.4-0.5,0.7-0.7
	c0.3-0.1,0.7-0.1,1,0C122.7,154.1,125.6,157.5,126.7,159"/>
<path class="st6" d="M110.2,146.9c0.8-0.5,1.6-1.1,2.5-1.2c4.4-1.2,8.7,1.8,11.2,3.3c3.3,2,5.7,4.8,6.8,6.1c0,0,0.1,0.1,0.1,0.3l0,0
	l0,0c0.4,0.4,1.1,1.2,2.3,2c5.5,4.1,13.8,7.6,17.2,9.1c2.2-4,4-8.2,5.3-12.7c0.4-1.1,0.7-2.2,1-3.3c-6.8-0.4-14.2-1.9-19.2-3.1
	c-5.7-1.4-10-2.7-10.1-2.7c-1.2-0.4-2.2-0.8-3.1-1.1c-3.1-1.1-5.2-1.9-7.5-1.8c-0.3,0-0.5,0-0.8,0c-0.4,0-0.7,0-1,0l0,0
	c-2.2,0-3.5,0.1-4.8,1c-1,0.7-1.5,1.1-2,1.6c-0.5,0.4-1.1,1-1.9,1.5c-0.5,0.4-1.4,0.8-2,1.1c-0.5,0.3-1.5,0.8-1.8,1
	c0,0.1,0,0.3,0.3,0.7c0.3,0.4,1.1,0.4,2.3,0.4c1.1,0,2.7-0.4,4.1-1.2C109.4,147.5,109.8,147.2,110.2,146.9"/>
<path class="st1" d="M237.7,169.3l-3.4-10.2c-0.1-0.4-0.4-0.5-0.8-0.5h-14.3c-0.4,0-0.7,0.3-0.8,0.5l-3.4,10.2
	c-0.1,0.4-0.4,0.5-0.8,0.5h-5c-0.5,0-1-0.5-0.8-1.1l12.8-38.1c0.1-0.4,0.4-0.5,0.8-0.5h9.1c0.4,0,0.7,0.3,0.8,0.5l12.8,38.1
	c0.1,0.5-0.3,1.1-0.8,1.1h-5.3C238.1,169.8,237.8,169.7,237.7,169.3 M221.6,152.6h9.4c0.5,0,1-0.5,0.8-1.1l-4.8-14.5
	c-0.3-0.8-1.4-0.8-1.6,0l-4.8,14.5C220.7,152.1,221.1,152.6,221.6,152.6"/>
<path class="st1" d="M249.9,140.5h4.2c0.4,0,0.8,0.3,0.8,0.7l0.4,3.1h0.4c0.8-1.4,2-2.5,3.4-3.1s3-1.1,4.6-1.1c0.5,0,1.1,0,1.6,0.1
	c0.4,0,0.8,0.4,0.8,0.8v4.6c0,0.5-0.4,1-1,0.8c-0.5,0-1.1-0.1-1.8-0.1c-1.4,0-2.7,0.3-4.1,0.8c-1.2,0.5-2.3,1.2-3,2.2
	c-0.1,0.1-0.1,0.4-0.1,0.5v18.8c0,0.4-0.4,0.8-0.8,0.8h-5.3c-0.4,0-0.8-0.4-0.8-0.8V141C249,140.9,249.4,140.5,249.9,140.5"/>
<path class="st1" d="M274.7,182c-1.4-0.1-2.7-0.4-4-0.8c-0.4-0.1-0.7-0.4-0.7-0.8v-3.8c0-0.5,0.5-1,1.1-0.8c2.7,0.7,5.3,1.1,7.8,1.1
	c2,0,3.7-0.3,4.9-0.8c1.2-0.5,2.2-1.4,2.7-2.5s1-2.6,1-4.5v-2.3h-0.4c-1,1.1-2,1.9-3.4,2.5c-1.4,0.5-2.9,1-4.5,1c-2,0-4-0.5-5.7-1.5
	c-1.8-1-3-2.6-4.1-4.8c-1-2.2-1.5-4.8-1.5-8c0-5.2,1.4-9.1,4.1-11.7c2.7-2.6,6.7-4,12-4c1.8,0,3.5,0.1,5.5,0.4
	c1.6,0.3,3.1,0.5,4.4,1c0.4,0.1,0.5,0.4,0.5,0.8v25.5c0,3.4-0.5,6.1-1.6,8.3c-1.1,2.2-2.7,3.7-5,4.6c-2.2,1-5,1.5-8.5,1.5
	C277.9,182.2,276.3,182.1,274.7,182 M285,163.8c0.8-0.4,1.6-0.8,2.3-1.5c0.1-0.1,0.3-0.4,0.3-0.5v-15c0-0.4-0.3-0.8-0.7-0.8
	c-1.1-0.3-2.2-0.3-3.3-0.3c-2.7,0-4.9,0.8-6.3,2.3c-1.4,1.5-2,4-2,7.4c0,3.4,0.5,5.7,1.8,7.1c1.2,1.4,2.9,2,5,2
	C283,164.4,284.1,164.1,285,163.8"/>
<path class="st1" d="M324.6,157.3h-16.4c-0.5,0-1,0.4-0.8,1c0.1,1.5,0.5,2.6,1,3.5c0.7,1.1,1.6,1.9,2.9,2.5c1.4,0.5,3,0.8,5.2,0.8
	c1.9,0,4-0.3,6.3-0.8c0.5-0.1,1.1,0.3,1.1,0.8v3.5c0,0.4-0.3,0.8-0.7,0.8c-2.6,0.5-5.2,1-7.6,1c-3.5,0-6.4-0.5-8.6-1.6
	c-2.2-1.1-4-2.7-5-4.9c-1.1-2.2-1.6-5.2-1.6-8.7c0-3.3,0.5-6,1.5-8.3c1-2.3,2.5-4,4.5-5c1.9-1.1,4.2-1.8,7-1.8c4,0,7.1,1.2,9.1,3.8
	c2,2.6,3.1,6.4,3.1,11.5v1.1C325.4,157,325,157.3,324.6,157.3 M308.8,146.6c-0.8,1.1-1.4,3-1.5,5.6c0,0.5,0.4,1,0.8,1h9.8
	c0.5,0,0.8-0.4,0.8-1c-0.1-2.6-0.7-4.4-1.5-5.6c-1-1.2-2.3-1.9-4.2-1.9C311.2,144.7,309.9,145.3,308.8,146.6"/>
<path class="st1" d="M331.5,140.5h4.2c0.4,0,0.8,0.3,0.8,0.7l0.4,2.3h0.4c1.1-1.1,2.5-2,4-2.6c1.5-0.5,3.1-1,4.9-1
	c3,0,5.5,1,7.2,2.7c1.8,1.8,2.6,4.6,2.6,8.5V169c0,0.4-0.4,0.8-0.8,0.8H350c-0.4,0-0.8-0.4-0.8-0.8v-17.5c0-1.9-0.4-3.4-1.2-4.2
	c-0.8-0.8-2-1.2-3.5-1.2c-1.2,0-2.3,0.3-3.5,0.7c-1.1,0.4-1.9,1.1-2.7,1.9c-0.1,0.1-0.1,0.4-0.1,0.5v19.5c0,0.4-0.4,0.8-0.8,0.8
	h-5.3c-0.4,0-0.8-0.4-0.8-0.8V141C330.7,140.9,331,140.5,331.5,140.5"/>
<path class="st1" d="M380.2,165.2v4c0,0.4-0.3,0.8-0.7,0.8c-1.5,0.3-3,0.4-4.4,0.4c-7,0-10.5-3.5-10.5-10.5v-13
	c0-0.4-0.4-0.8-0.8-0.8h-3.4c-0.4,0-0.8-0.4-0.8-0.8v-4c0-0.4,0.4-0.8,0.8-0.8h3.4c0.4,0,0.8-0.3,0.8-0.8l1.1-9
	c0-0.4,0.4-0.8,0.8-0.8h4.2c0.4,0,0.8,0.4,0.8,0.8v8.7c0,0.4,0.4,0.8,0.8,0.8h6.5c0.4,0,0.8,0.4,0.8,0.8v4c0,0.4-0.4,0.8-0.8,0.8
	h-6.5c-0.4,0-0.8,0.4-0.8,0.8v11.7c0,1.5,0.1,2.6,0.5,3.4c0.4,0.8,1,1.5,1.6,1.8c0.8,0.4,1.8,0.5,3,0.5c0.7,0,1.4,0,2.3-0.3
	C379.8,164.2,380.2,164.6,380.2,165.2"/>
<path class="st1" d="M385.4,134.5c-0.7-0.7-1.1-1.6-1.1-2.9s0.4-2.2,1.1-2.9c0.7-0.7,1.9-1,3.4-1s2.6,0.3,3.4,1
	c0.7,0.7,1.1,1.6,1.1,2.9s-0.4,2.2-1.1,2.9c-0.7,0.7-1.9,1-3.4,1C387.2,135.5,386.1,135.2,385.4,134.5 M385.1,169v-27.7
	c0-0.4,0.4-0.8,0.8-0.8h5.3c0.4,0,0.8,0.4,0.8,0.8V169c0,0.4-0.4,0.8-0.8,0.8H386C385.6,169.8,385.1,169.6,385.1,169"/>
<path class="st1" d="M398.9,140.5h4.2c0.4,0,0.8,0.3,0.8,0.7l0.4,2.3h0.4c1.1-1.1,2.5-2,4-2.6s3.1-1,4.9-1c3,0,5.5,1,7.2,2.7
	c1.8,1.8,2.6,4.6,2.6,8.5V169c0,0.4-0.4,0.8-0.8,0.8h-5.3c-0.4,0-0.8-0.4-0.8-0.8v-17.5c0-1.9-0.4-3.4-1.2-4.2
	c-0.8-0.8-2-1.2-3.5-1.2c-1.2,0-2.3,0.3-3.5,0.7c-1.1,0.4-1.9,1.1-2.7,1.9c-0.1,0.1-0.1,0.4-0.1,0.5v19.5c0,0.4-0.4,0.8-0.8,0.8
	h-5.3c-0.4,0-0.8-0.4-0.8-0.8V141C398.1,140.9,398.4,140.5,398.9,140.5"/>
<path class="st1" d="M447.1,141.2c1.9,0.7,3.3,1.9,4.1,3.7c1,1.8,1.4,4,1.4,7V169c0,0.4-0.4,0.8-0.8,0.8h-4.2
	c-0.4,0-0.8-0.3-0.8-0.7l-0.4-2.3h-0.4c-0.8,1.2-2,2-3.4,2.6c-1.4,0.5-2.9,1-4.6,1c-1.9,0-3.5-0.3-4.9-1c-1.4-0.7-2.5-1.6-3.3-2.9
	c-0.7-1.2-1.1-2.7-1.1-4.4c0-2.7,1-4.8,2.9-6.3c1.9-1.5,4.8-2.5,8.9-2.7l5.5-0.5v-1.1c0-1.5-0.3-2.6-0.7-3.5
	c-0.5-0.8-1.2-1.5-2.2-1.8c-1-0.4-2.3-0.5-4.1-0.5c-1.2,0-2.5,0.1-4,0.3c-1,0.1-2,0.4-3,0.5c-0.5,0.1-1.1-0.3-1.1-0.8V142
	c0-0.4,0.3-0.7,0.7-0.8c1.2-0.3,2.5-0.5,3.8-0.8c1.6-0.3,3.1-0.3,4.6-0.3C442.8,140.1,445.3,140.5,447.1,141.2 M443.1,164.8
	c0.8-0.4,1.6-1,2.3-1.6c0.1-0.1,0.3-0.4,0.3-0.7v-4.9c0-0.5-0.4-1-1-0.8l-3.8,0.4c-1.9,0.1-3.1,0.7-4.1,1.4c-0.8,0.7-1.2,1.6-1.2,3
	c0,1.2,0.4,2.3,1.1,3c0.8,0.7,1.9,1.1,3.4,1.1C441.1,165.5,442.2,165.2,443.1,164.8"/>
<polygon class="st1" points="234.8,78.3 241.3,78.3 241.3,107.5 236.3,107.5 236.3,85.5 228.3,103.4 223.8,103.4 215.9,85.9 
	215.9,107.5 211,107.5 211,78.3 217.3,78.3 226.1,98.1 "/>
<path class="st1" d="M246.9,81.6c-0.5-0.5-0.8-1.2-0.8-2c0-1,0.3-1.6,0.8-2c0.5-0.5,1.4-0.7,2.5-0.7c1.1,0,1.9,0.3,2.5,0.7
	c0.5,0.5,0.8,1.2,0.8,2c0,1-0.3,1.6-0.8,2c-0.5,0.5-1.4,0.7-2.5,0.7C248.2,82.4,247.4,82.1,246.9,81.6 M246.7,86.1h5.2v21.5h-5.2
	V86.1z"/>
<path class="st1" d="M257.1,86.1h4.2l0.4,2.3h0.3c0.8-0.8,1.8-1.5,2.9-1.9c1.1-0.4,2.3-0.7,3.5-0.7c2.2,0,4,0.7,5.3,1.9
	c1.2,1.4,1.9,3.4,1.9,6.1v13.6h-5.2V94.1c0-1.5-0.3-2.5-1-3c-0.5-0.5-1.5-1-2.6-1c-0.8,0-1.8,0.1-2.6,0.5c-0.8,0.4-1.5,1-2,1.6v15.1
	h-5.2V86.1z"/>
<path class="st1" d="M280.7,81.6c-0.5-0.5-0.8-1.2-0.8-2c0-1,0.3-1.6,0.8-2c0.5-0.5,1.4-0.7,2.5-0.7s1.9,0.3,2.5,0.7
	c0.5,0.5,0.8,1.2,0.8,2c0,1-0.3,1.6-0.8,2c-0.5,0.5-1.4,0.7-2.5,0.7C282,82.4,281.2,82.1,280.7,81.6 M280.5,86.1h5.2v21.5h-5.2V86.1
	z"/>
<path class="st1" d="M290.2,107.1v-3.8c2,0.7,4.2,1,6.5,1c1.5,0,2.6-0.3,3.4-0.7c0.7-0.4,1.1-1.1,1.1-2c0-0.7-0.1-1.2-0.5-1.6
	c-0.4-0.4-1-0.7-1.9-0.8l-3.3-0.5c-2-0.4-3.4-1.1-4.4-2s-1.4-2.3-1.4-4c0-1.4,0.4-2.5,1.1-3.5c0.7-1,1.8-1.8,3.3-2.3
	c1.5-0.5,3.3-0.8,5.3-0.8c2,0,3.8,0.3,5.5,0.7v3.8c-1.6-0.4-3.5-0.7-5.3-0.7c-3.3,0-4.9,1-4.9,2.7c0,0.7,0.1,1.1,0.5,1.5
	c0.4,0.4,1,0.7,1.9,0.8l3.3,0.5c1.9,0.4,3.4,1.1,4.4,2c1,1,1.4,2.3,1.4,4.1c0,1.4-0.4,2.6-1.1,3.5c-0.7,1-1.8,1.8-3.1,2.3
	s-3,0.8-5,0.8C294.3,107.9,292.1,107.6,290.2,107.1"/>
<path class="st1" d="M322.3,103.4v4.1c-1.2,0.3-2.5,0.4-3.7,0.4c-5,0-7.6-2.6-7.6-7.8v-10h-3.7v-4.1h3.7l1-7.6h4.2v7.6h6v4.1h-6v9.3
	c0,1.1,0.1,1.9,0.4,2.5c0.3,0.7,0.7,1.1,1.2,1.4s1.2,0.4,2.2,0.4C320.5,103.7,321.3,103.5,322.3,103.4"/>
<path class="st1" d="M342.6,98.4h-13.4c0,1.4,0.3,2.5,0.8,3.3c0.4,0.8,1.2,1.4,2.2,1.8s2.2,0.5,3.8,0.5c1.6,0,3.4-0.3,5.5-0.7v4
	c-2,0.5-4.1,0.8-6.1,0.8c-2.6,0-4.6-0.4-6.3-1.2c-1.6-0.8-2.9-2-3.7-3.7s-1.2-3.8-1.2-6.4c0-2.5,0.4-4.5,1.1-6.1
	c0.7-1.6,1.8-2.9,3.3-3.7c1.4-0.8,3.1-1.2,5.2-1.2c2.9,0,5.2,1,6.7,2.9s2.3,4.6,2.3,8.5L342.6,98.4L342.6,98.4z M330.5,90.4
	c-0.7,1-1.1,2.6-1.1,4.8h8.5c0-2.2-0.4-3.8-1.1-4.8c-0.7-1-1.8-1.4-3.1-1.4C332.2,89.1,331.1,89.5,330.5,90.4"/>
<path class="st1" d="M346.4,86.1h4.2l0.4,2.9h0.3c0.7-1,1.5-1.8,2.5-2.3c1.1-0.5,2.2-0.8,3.4-0.8c0.5,0,1.1,0,1.8,0.1v4.6
	c-0.5-0.1-1.2-0.1-2-0.1c-1.1,0-2,0.3-3,0.7s-1.8,1-2.3,1.8v14.6h-5.2L346.4,86.1L346.4,86.1z"/>
<path class="st1" d="M362.2,81.6c-0.5-0.5-0.8-1.2-0.8-2c0-1,0.3-1.6,0.8-2c0.5-0.5,1.4-0.7,2.5-0.7s1.9,0.3,2.5,0.7
	c0.5,0.5,0.8,1.2,0.8,2c0,1-0.3,1.6-0.8,2c-0.5,0.5-1.4,0.7-2.5,0.7C363.6,82.4,362.8,82.1,362.2,81.6 M362,86.1h5.2v21.5H362V86.1z
	"/>
<path class="st1" d="M374,105.2c-1.8-1.9-2.6-4.6-2.6-8.3c0-3.7,0.8-6.5,2.6-8.3c1.8-1.9,4.2-2.7,7.4-2.7s5.7,1,7.4,2.7
	c1.8,1.9,2.6,4.6,2.6,8.3c0,2.5-0.4,4.5-1.2,6.1c-0.8,1.6-1.9,2.9-3.4,3.7c-1.5,0.8-3.3,1.2-5.3,1.2
	C378.2,107.9,375.7,106.9,374,105.2 M384.9,102.3c0.8-1.1,1.2-2.9,1.2-5.5s-0.4-4.5-1.2-5.6c-0.8-1.1-2-1.6-3.5-1.6
	s-2.7,0.5-3.5,1.6c-0.8,1.1-1.2,2.9-1.2,5.5c0,1.8,0.1,3.1,0.5,4.2c0.4,1.1,1,1.8,1.6,2.3c0.7,0.4,1.6,0.7,2.6,0.7
	C383,103.9,384.1,103.4,384.9,102.3"/>
<path class="st1" d="M408.5,106.8c-1.4-0.7-2.3-1.9-3.1-3.5c-0.8-1.6-1.1-3.7-1.1-6.1c0-3.8,1-6.7,2.9-8.6c1.9-1.9,4.8-3,8.5-3
	c0.8,0,1.8,0.1,2.9,0.3V75.6h5.2v31.9h-4.4l-0.3-2.3h-0.3c-0.7,0.8-1.5,1.5-2.5,1.9c-1,0.4-2,0.7-3.3,0.7
	C411.3,107.9,409.8,107.5,408.5,106.8 M416.7,103.1c0.7-0.3,1.4-0.8,1.8-1.4V90c-0.8-0.1-1.9-0.3-2.9-0.3c-2,0-3.7,0.5-4.6,1.6
	c-1,1.1-1.5,3-1.5,5.5s0.4,4.2,1.2,5.3c0.8,1.1,2,1.5,3.7,1.5C415.2,103.7,416,103.5,416.7,103.1"/>
<path class="st1" d="M446.2,98.4h-13.4c0,1.4,0.3,2.5,0.8,3.3c0.4,0.8,1.2,1.4,2.2,1.8c1,0.4,2.2,0.5,3.8,0.5c1.6,0,3.4-0.3,5.5-0.7
	v4c-2,0.5-4.1,0.8-6.1,0.8c-2.6,0-4.6-0.4-6.3-1.2c-1.6-0.8-2.9-2-3.7-3.7c-0.8-1.6-1.2-3.8-1.2-6.4c0-2.5,0.4-4.5,1.1-6.1
	c0.7-1.6,1.8-2.9,3.3-3.7c1.4-0.8,3.1-1.2,5.2-1.2c3,0,5.2,1,6.7,2.9s2.3,4.6,2.3,8.5L446.2,98.4L446.2,98.4z M434.1,90.4
	c-0.7,1-1.1,2.6-1.1,4.8h8.5c0-2.2-0.4-3.8-1.1-4.8c-0.7-1-1.8-1.4-3.1-1.4C435.9,89.1,434.8,89.5,434.1,90.4"/>
<path class="st1" d="M460.3,107.4V79c1.4-0.3,2.7-0.5,4.2-0.7c1.5-0.1,3-0.3,4.4-0.3c5.2,0,9,1.2,11.6,3.7c2.6,2.5,4,6.1,4,11.2
	c0,3.4-0.5,6.3-1.8,8.5c-1.2,2.2-3,3.8-5.5,4.8c-2.5,1.1-5.6,1.5-9.3,1.5C465.3,107.8,462.7,107.6,460.3,107.4 M474.8,102.4
	c1.5-0.7,2.6-1.9,3.3-3.4c0.7-1.5,1.1-3.5,1.1-6.1c0-2.5-0.4-4.5-1.1-6c-0.7-1.5-1.8-2.7-3.3-3.4c-1.5-0.7-3.3-1.1-5.5-1.1
	c-1.1,0-2.3,0.1-3.7,0.3v20.6c1,0.1,2.2,0.1,3.7,0.1C471.5,103.5,473.3,103.1,474.8,102.4"/>
<path class="st1" d="M506.3,98.4h-13.4c0,1.4,0.3,2.5,0.8,3.3c0.4,0.8,1.2,1.4,2.2,1.8s2.2,0.5,3.8,0.5c1.6,0,3.4-0.3,5.5-0.7v4
	c-2,0.5-4.1,0.8-6.1,0.8c-2.6,0-4.6-0.4-6.3-1.2s-2.9-2-3.7-3.7s-1.2-3.8-1.2-6.4c0-2.5,0.4-4.5,1.1-6.1c0.7-1.6,1.8-2.9,3.3-3.7
	c1.4-0.8,3.1-1.2,5.2-1.2c3,0,5.2,1,6.7,2.9c1.5,1.9,2.3,4.6,2.3,8.5L506.3,98.4L506.3,98.4z M494.1,90.4c-0.7,1-1.1,2.6-1.1,4.8
	h8.5c0-2.2-0.4-3.8-1.1-4.8c-0.7-1-1.8-1.4-3.1-1.4C495.9,89.1,494.8,89.5,494.1,90.4"/>
<path class="st1" d="M517.7,80.5c-0.7,0.7-1.1,1.8-1.1,3.1v2.5h6v4.1h-6v17.5h-5.2V90.2h-3.7v-4.1h3.7v-2.2c0-2.7,0.8-4.9,2.3-6.3
	c1.5-1.5,3.8-2.2,6.7-2.2c1.1,0,2,0.1,3,0.3v4.1c-1-0.1-1.6-0.1-2.3-0.1C519.6,79.4,518.5,79.8,517.7,80.5"/>
<path class="st1" d="M542.4,98.4H529c0,1.4,0.3,2.5,0.8,3.3c0.4,0.8,1.2,1.4,2.2,1.8s2.2,0.5,3.8,0.5c1.6,0,3.4-0.3,5.5-0.7v4
	c-2,0.5-4.1,0.8-6.1,0.8c-2.6,0-4.6-0.4-6.3-1.2s-2.9-2-3.7-3.7c-0.8-1.6-1.2-3.8-1.2-6.4c0-2.5,0.4-4.5,1.1-6.1
	c0.7-1.6,1.8-2.9,3.3-3.7c1.4-0.8,3.1-1.2,5.2-1.2c2.9,0,5.2,1,6.7,2.9c1.5,1.9,2.3,4.6,2.3,8.5L542.4,98.4L542.4,98.4z M530.3,90.4
	c-0.7,1-1.1,2.6-1.1,4.8h8.5c0-2.2-0.4-3.8-1.1-4.8c-0.7-1-1.8-1.4-3.1-1.4C532,89.1,530.9,89.5,530.3,90.4"/>
<path class="st1" d="M546.2,86.1h4.2l0.4,2.3h0.3c0.8-0.8,1.8-1.5,2.9-1.9c1.1-0.4,2.3-0.7,3.5-0.7c2.2,0,4,0.7,5.3,1.9
	c1.2,1.4,1.9,3.4,1.9,6.1v13.6h-5.2V94.1c0-1.5-0.3-2.5-1-3c-0.5-0.5-1.5-1-2.6-1c-0.8,0-1.8,0.1-2.6,0.5c-0.8,0.4-1.5,1-2,1.6v15.1
	h-5.2V86.1L546.2,86.1z"/>
<path class="st1" d="M569.1,107.1v-3.8c2,0.7,4.2,1,6.5,1c1.5,0,2.6-0.3,3.4-0.7c0.7-0.4,1.1-1.1,1.1-2c0-0.7-0.1-1.2-0.5-1.6
	s-1-0.7-1.9-0.8l-3.3-0.5c-2-0.4-3.4-1.1-4.4-2s-1.4-2.3-1.4-4c0-1.4,0.4-2.5,1.1-3.5c0.7-1,1.8-1.8,3.3-2.3
	c1.4-0.5,3.1-0.8,5.3-0.8c2,0,3.8,0.3,5.5,0.7v3.8c-1.6-0.4-3.5-0.7-5.3-0.7c-3.3,0-4.9,1-4.9,2.7c0,0.7,0.1,1.1,0.5,1.5
	c0.4,0.4,1,0.7,1.9,0.8l3.3,0.5c1.9,0.4,3.4,1.1,4.4,2c1,1,1.4,2.3,1.4,4.1c0,1.4-0.4,2.6-1.1,3.5s-1.8,1.8-3.1,2.3
	c-1.4,0.5-3,0.8-5,0.8C573.2,107.9,571,107.6,569.1,107.1"/>
<path class="st1" d="M601,86.5c1.4,0.5,2.3,1.5,3,2.7c0.7,1.2,1,3,1,5v13.2h-4.2l-0.4-2.2h-0.3c-0.7,0.8-1.5,1.5-2.5,1.9
	c-1,0.4-2.2,0.7-3.4,0.7c-1.4,0-2.6-0.3-3.7-0.7c-1.1-0.5-1.8-1.2-2.3-2.2c-0.5-1-0.8-2-0.8-3.3c0-2,0.7-3.5,2-4.6
	c1.4-1.1,3.5-1.8,6.5-2l4.1-0.4v-0.8c0-1.1-0.1-1.9-0.5-2.6c-0.4-0.7-1-1.1-1.6-1.4c-0.7-0.3-1.8-0.4-3-0.4c-0.8,0-1.8,0.1-2.9,0.3
	c-1.1,0.1-2,0.4-3,0.7v-4c1-0.3,2-0.5,3.3-0.7c1.2-0.1,2.3-0.3,3.4-0.3C597.9,85.7,599.7,85.9,601,86.5 M598,103.8
	c0.7-0.3,1.4-0.7,1.9-1.4v-4.6l-3.5,0.3c-1.4,0.1-2.3,0.4-3,1c-0.7,0.5-1,1.2-1,2.2s0.3,1.6,0.8,2.2c0.5,0.5,1.4,0.7,2.5,0.7
	C596.5,104.2,597.4,104.1,598,103.8"/>
</svg>
