<?xml version="1.0" encoding="utf-8"?>
<!-- Generator: Adobe Illustrator 24.0.2, SVG Export Plug-In . SVG Version: 6.00 Build 0)  -->
<svg version="1.1" id="Capa_3" xmlns="http://www.w3.org/2000/svg" xmlns:xlink="http://www.w3.org/1999/xlink" x="0px" y="0px"
	 viewBox="0 0 642.1 291" style="enable-background:new 0 0 642.1 291;" xml:space="preserve">
<style type="text/css">
	.st0{fill:#1FA6D5;}
	.st1{fill:#FFFFFF;}
	.st2{fill:#211C1E;}
	.st3{fill:#F2BC21;}
	.st4{fill:#569F46;}
	.st5{fill:#DF4326;}
	.st6{fill:#F2B57D;}
</style>
<path class="st0" d="M157.9,110.4h-8c-1.7,0-2.7-0.7-3.2-1.3c-0.4-0.5-0.7-1.2-0.8-2c0-0.1,0-0.1,0-0.2c-0.1-0.7-0.1-1.5,0.1-2.4
	c1-5.2,3.1-8.7,4.8-10.9c-0.2-0.1-0.4-0.1-0.5-0.2c-1.1-0.6-1.6-1.9-1.4-3.3c0.3-1.7,1.9-3.5,2.2-3.8c2.7-3.2,6.8-3.4,7.3-3.4
	c0.6,0,6-0.3,8.9,5.4c3.5,6.7,4.3,12.3,4.9,16.8v0.2c0.1,0.8,0.1,1.4-0.1,2c0,0.1,0,0.1-0.1,0.2c-0.2,0.6-0.5,1.1-0.8,1.4
	c-0.7,0.8-1.8,1.3-3.1,1.5c-0.6,0.1-1.1,0.1-1.4,0.1c-0.2,0-0.3,0-0.3,0h-2.3l0,0l0,0h-3.8v11.3h35.6c0-6.6-1-13-2.9-19
	c-1.9-5.8-4.5-11-7.9-15.5s-7.3-8-11.7-10.4c-4.5-2.5-9.3-3.8-14.2-3.8s-9.7,1.3-14.2,3.8c-4.4,2.4-8.3,5.9-11.7,10.4
	s-6.1,9.7-7.9,15.5c-1.9,6-2.9,12.4-2.9,19h35.6v-11.4H157.9z"/>
<path class="st1" d="M122.3,121.7c0,5,0.6,9.9,1.7,14.6c15.9-1.8,25.4-3.7,28.2-5.6c2-1.4,3.6-2.2,5.7-2.1v-6.9H122.3z"/>
<path class="st1" d="M160.3,128.9c1.4,0.3,2.5,0.7,3.6,1.2c0.1,0,0.2,0,0.4,0c2-0.1,3.8,0.5,6.2,1.4c0.7,0.2,1.4,0.5,2.2,0.8
	c0.3,0.1,11.8,3.7,21.5,4.3c1.2-4.8,1.7-9.7,1.7-14.8h-35.6L160.3,128.9L160.3,128.9z"/>
<path class="st2" d="M156.7,66.8L156.7,66.8L156.7,66.8z"/>
<polyline class="st2" points="149.3,67.9 149.3,67.9 149.3,67.9 149.3,67.9 "/>
<path class="st1" d="M174.7,144.4c-0.1,0.3-0.4,0.6-0.7,0.9c-0.6,0.6-1.4,0.9-2.4,0.9c-0.1,0.3-0.3,0.6-0.6,0.9
	c-0.5,0.6-1.5,1.3-3.1,1.2c-0.1,0.3-0.4,0.6-0.6,0.8c-0.8,0.8-1.9,1.1-3,0.9c-0.3,0.2-0.7,0.5-1.2,0.7c-0.7,0.3-1.6,0.5-2.9,0.2v9.4
	c0,0.7-0.5,1.2-1.2,1.2s-1.2-0.5-1.2-1.2v-9c-0.5,0.2-1,0.3-1.5,0.3c-0.2,0-0.4,0-0.6-0.1c-0.7-0.1-1.2-0.5-1.7-1
	c-0.8,0.1-2.2,0.2-3.2-0.5c-0.4-0.3-0.7-0.7-0.9-1.1c-0.3,0-0.7-0.1-1.1-0.2c-1-0.3-1.8-0.9-2.1-1.8c-0.2,0-0.5,0-0.8-0.1
	c-0.9-0.1-2-0.5-2.4-1.5c-0.1-0.2-0.2-0.4-0.2-0.7c-5.1,2.6-10.9,5.2-13.5,6.4c1,1.7,2.1,3.4,3.3,4.9c3.4,4.5,7.3,8,11.7,10.4
	c2,1.1,4.1,2,6.3,2.7c0.2-0.4,0.5-0.8,0.9-1c2-1.3,5.9-0.4,7,0c1.1-0.3,5-1.3,7,0c0.4,0.3,0.7,0.6,0.9,1c2.1-0.6,4.3-1.5,6.3-2.7
	c4.4-2.4,8.3-5.9,11.7-10.4c1.1-1.5,2.1-3,3.1-4.6C185.2,150.4,178.8,147.6,174.7,144.4"/>
<path class="st0" d="M162.3,176.7c0.1-0.3,0.1-0.5,0.1-0.8s0-0.5-0.1-0.7c1.2-0.2,3.1-0.8,4.2-2.1c0.6-0.8,0.9-1.7,0.8-2.7
	c-0.1-0.9-0.5-1.6-1.3-2.1c-2-1.3-5.9-0.4-7,0c-1.1-0.3-5-1.3-7,0c-0.7,0.5-1.2,1.2-1.3,2.1c-0.1,1,0.1,1.9,0.8,2.7
	c1.1,1.3,3,1.9,4.2,2.1c-0.1,0.2-0.1,0.5-0.1,0.7c0,0.3,0,0.5,0.1,0.8c-0.9,0.9-3.7,3.3-7.7,3.8l0,0c0.1,0.2,0.5,0.8,1.2,1.4
	c3.6-0.7,6.2-2.7,7.3-3.7c0.1,0.1,0.2,0.2,0.4,0.4c-0.3,1-1.3,3.6-5.7,4.7c0.7,0.3,1.6,0.6,2.7,0.8c3.1-1.4,4.2-3.5,4.5-4.7
	c0.2,0,0.4,0.1,0.7,0.1c0.2,0,0.4,0,0.6-0.1c0.4,1.2,1.5,3.3,4.5,4.7c1-0.2,1.9-0.4,2.6-0.8c-4.4-1.1-5.5-3.6-5.7-4.6
	c0.1-0.1,0.3-0.2,0.4-0.4c1.2,1.1,3.7,3.1,7.3,3.7c0.7-0.6,1.1-1.2,1.2-1.4C166,180,163.2,177.6,162.3,176.7"/>
<path class="st1" d="M165.2,169.6c0.3,0.2,0.5,0.5,0.6,0.9c0.1,0.6-0.1,1.1-0.4,1.5c-0.5,0.6-1.3,1-2,1.2c0.4-0.8,0.4-1.6,0.2-2.4
	c-0.3-0.8-0.7-1.3-1.3-1.7C163.4,169.1,164.6,169.1,165.2,169.6"/>
<path class="st1" d="M156.1,171.4c0.6-1.6,2.8-1.6,2.9-1.6c0,0,0.6,0,1.3,0.2c0.8,0.3,1.4,0.7,1.6,1.4c0.3,0.7-0.2,1.5-0.7,1.9
	c-0.6-0.5-1.4-0.8-2.2-0.8c-0.9,0-1.6,0.3-2.2,0.9C156.4,172.9,155.9,172.2,156.1,171.4"/>
<path class="st1" d="M154.8,173.3c-0.8-0.3-1.6-0.7-2-1.2c-0.4-0.4-0.5-0.9-0.4-1.5c0-0.4,0.2-0.7,0.5-0.9c0.5-0.3,1.2-0.4,2-0.4
	c0.3,0,0.7,0,1,0.1c-0.5,0.4-1,0.9-1.3,1.7C154.3,171.8,154.5,172.6,154.8,173.3"/>
<path class="st1" d="M157.3,175.9c0-1,0.8-1.8,1.8-1.8s1.8,0.8,1.8,1.8s-0.8,1.8-1.8,1.8S157.3,176.9,157.3,175.9"/>
<path class="st1" d="M168.9,181.9c-3.6-0.7-6.2-2.6-7.3-3.7c-0.1,0.1-0.2,0.3-0.4,0.4c0.3,1,1.4,3.5,5.7,4.6
	C167.7,182.8,168.4,182.3,168.9,181.9"/>
<path class="st1" d="M156.6,178.1c-1.2,1.1-3.7,3.1-7.3,3.7c0.5,0.4,1.1,0.9,2,1.3c4.4-1.1,5.5-3.7,5.7-4.7
	C156.8,178.4,156.7,178.3,156.6,178.1"/>
<path class="st2" d="M203.6,131.2c0-0.3-0.1-0.5-0.3-0.7c-0.1-0.1-0.3-0.2-0.5-0.2c0.2-0.3,0.3-0.7,0.4-1c0.6-1.5,0.8-3.3,0.9-5.2
	c0-0.3-0.1-0.5-0.3-0.6s-0.3-0.1-0.5-0.1c0.1-0.3,0.2-0.6,0.3-1c0.4-1.6,0.5-3.3,0.3-5.2c0-0.3-0.2-0.5-0.4-0.6s-0.4-0.1-0.5-0.1
	c0.1-0.4,0.2-0.8,0.2-1.2c0.2-1.6,0.2-3.4-0.2-5.2c0-0.3-0.2-0.5-0.5-0.6c-0.1-0.1-0.3-0.1-0.4,0c0-0.3,0.1-0.5,0.1-0.8
	c0.2-1.6,0-3.4-0.4-5.2c-0.1-0.3-0.2-0.5-0.5-0.5c-0.2-0.1-0.5,0-0.7,0.1l0,0c0-0.4,0-0.8,0-1.3c0-1.6-0.4-3.3-1.1-5.1
	c-0.1-0.2-0.3-0.4-0.6-0.5c-0.2,0-0.4,0-0.6,0.1c0-0.4,0-0.8-0.1-1.2c-0.2-1.6-0.8-3.3-1.7-5c-0.1-0.2-0.3-0.4-0.6-0.4
	c-0.2,0-0.4,0-0.6,0.2c-0.1-0.4-0.1-0.7-0.2-1.1c-0.4-1.6-1.1-3.2-2.2-4.8c-0.1-0.2-0.4-0.3-0.6-0.3c-0.3,0-0.5,0.1-0.6,0.3
	c-0.1-0.4-0.3-0.8-0.5-1.3c-0.6-1.5-1.6-2.9-3-4.3c-0.2-0.2-0.5-0.3-0.7-0.2c-0.2,0-0.4,0.1-0.5,0.3c-0.2-0.4-0.4-0.8-0.7-1.2
	c-0.9-1.3-2.1-2.6-3.6-3.8c-0.2-0.2-0.5-0.2-0.7-0.1s-0.4,0.2-0.4,0.4c-1-1.3-2.4-2.3-4.2-3c0.3,0,0.6,0.1,1,0.1
	c2.1,0.1,3.6-0.3,3.7-0.3c0.4-0.1,0.7-0.6,0.7-1c-0.1-0.5-0.4-0.8-0.9-0.8c-2.3-0.1-3.2-0.6-4.3-1.2c-0.2-0.1-0.4-0.2-0.7-0.3
	l5.4-0.8c0.5-0.1,0.8-0.5,0.8-1s-0.4-0.9-0.8-1l-5.4-0.8c0.6-0.2,1.3-0.4,2.1-0.6c2-0.7,3.2-1.7,3.3-1.7c0.4-0.3,0.5-0.8,0.2-1.2
	c-0.2-0.4-0.7-0.6-1.2-0.4c-2.2,0.8-3.2,0.7-4.4,0.5c-0.2,0-0.5,0-0.7-0.1l4.7-2.8c0.4-0.2,0.6-0.8,0.4-1.2
	c-0.2-0.4-0.7-0.7-1.1-0.6l-5.3,1.3c0.5-0.4,1.1-0.9,1.7-1.4c1.6-1.4,2.3-2.8,2.4-2.8c0.2-0.4,0.1-0.9-0.3-1.2
	c-0.4-0.3-0.9-0.3-1.2,0c-1.7,1.6-2.7,1.8-3.9,2.2c-0.2,0.1-0.4,0.1-0.7,0.2l3.2-4.4c0.3-0.4,0.2-0.9-0.1-1.3
	c-0.3-0.3-0.9-0.4-1.3-0.1l-4.4,3.3c0.3-0.6,0.7-1.2,1-2c0.9-1.9,1.1-3.5,1.1-3.5c0-0.5-0.3-0.9-0.7-1c-0.5-0.1-0.9,0.1-1.1,0.5
	c-1,2.1-1.7,2.7-2.7,3.5c-0.2,0.1-0.4,0.3-0.5,0.5l1.3-5.3c0.1-0.5-0.1-0.9-0.6-1.1c-0.4-0.2-1,0-1.2,0.4l-2.8,4.7
	c0.1-0.6,0.2-1.4,0.2-2.2c0.1-2.1-0.3-3.6-0.3-3.7c-0.1-0.4-0.6-0.7-1-0.7c-0.5,0.1-0.8,0.4-0.8,0.9c-0.1,2.3-0.6,3.2-1.2,4.3
	c-0.1,0.2-0.2,0.4-0.3,0.6l-0.8-5.4c-0.1-0.5-0.5-0.8-1-0.8l0,0c-0.5,0-0.9,0.4-1,0.8l-0.8,5.3c-0.2-0.6-0.4-1.3-0.6-2.1
	c-0.7-2-1.7-3.2-1.7-3.3c-0.3-0.4-0.8-0.5-1.2-0.2c-0.4,0.2-0.6,0.7-0.4,1.2c0.8,2.2,0.7,3.2,0.5,4.4c0,0.2-0.1,0.5-0.1,0.7
	l-2.8-4.7c-0.2-0.4-0.8-0.6-1.2-0.4c-0.4,0.2-0.7,0.7-0.6,1.1l1.3,5.2c-0.4-0.5-0.9-1.1-1.4-1.7c-1.4-1.6-2.8-2.3-2.8-2.4
	c-0.4-0.2-0.9-0.1-1.2,0.3c-0.3,0.4-0.3,0.9,0,1.2c1.6,1.7,1.8,2.7,2.2,3.9c0.1,0.2,0.1,0.5,0.2,0.7l-4.4-3.3
	c-0.4-0.3-0.9-0.2-1.3,0.1c-0.3,0.3-0.4,0.9-0.1,1.3l3.3,4.4c-0.6-0.3-1.2-0.7-1.9-1c-1.9-0.9-3.5-1.1-3.5-1.1c-0.5,0-0.9,0.3-1,0.7
	c-0.1,0.5,0.1,0.9,0.5,1.1c2.1,1,2.7,1.8,3.5,2.7c0.1,0.2,0.3,0.4,0.5,0.6l-5.3-1.3c-0.5-0.1-0.9,0.1-1.1,0.6c-0.2,0.4,0,1,0.4,1.2
	l4.7,2.8c-0.6-0.1-1.4-0.2-2.2-0.2c-2.1-0.1-3.6,0.3-3.7,0.3c-0.4,0.1-0.7,0.6-0.7,1c0.1,0.5,0.4,0.8,0.9,0.8
	c2.3,0.1,3.2,0.6,4.3,1.2c0.2,0.1,0.4,0.2,0.6,0.3l-5.4,0.8c-0.5,0.1-0.8,0.5-0.8,1s0.4,0.9,0.8,1l5.4,0.8c-0.6,0.2-1.4,0.4-2.1,0.7
	c-2,0.7-3.2,1.7-3.3,1.7c-0.4,0.3-0.5,0.8-0.2,1.2c0.2,0.4,0.7,0.6,1.2,0.4c1.3-0.5,2.1-0.6,2.9-0.6c-1.2,1-2,1.8-2.4,2.4
	c-0.2,0.3-0.4,0.6-0.6,0.8c-0.1-0.2-0.2-0.3-0.4-0.3c-0.2-0.1-0.5,0-0.7,0.1c-1.5,1.2-2.8,2.5-3.6,3.8c-0.3,0.4-0.5,0.8-0.7,1.2
	c-0.1-0.2-0.3-0.3-0.5-0.3c-0.3,0-0.5,0-0.7,0.2c-1.3,1.4-2.3,2.9-3,4.3c-0.2,0.4-0.3,0.8-0.4,1.2c-0.1-0.1-0.3-0.2-0.5-0.2
	c-0.3,0-0.5,0.1-0.7,0.3c-1.1,1.6-2,3.1-2.4,4.7c-0.1,0.4-0.2,0.8-0.3,1.2c-0.2-0.2-0.4-0.3-0.6-0.3c-0.3,0-0.5,0.2-0.6,0.4
	c-0.9,1.7-1.5,3.4-1.7,5c-0.1,0.4-0.1,0.8-0.1,1.2c-0.2-0.1-0.4-0.2-0.7-0.2c-0.3,0.1-0.5,0.2-0.5,0.5c-0.7,1.8-1,3.5-1.1,5.1
	c0,0.4,0,0.8,0,1.2c-0.2-0.1-0.4-0.1-0.6-0.1c-0.2,0.1-0.4,0.3-0.5,0.5c-0.4,1.9-0.6,3.6-0.4,5.2c0,0.3,0.1,0.6,0.1,0.9
	c-0.1,0-0.2,0-0.3,0.1c-0.2,0.1-0.4,0.3-0.5,0.6c-0.4,1.9-0.4,3.7-0.2,5.2c0.1,0.4,0.2,0.8,0.3,1.2c-0.1,0-0.2,0-0.3,0.1
	c-0.2,0.1-0.4,0.3-0.4,0.6c-0.2,1.9-0.2,3.7,0.2,5.2c0.1,0.3,0.2,0.7,0.3,1c-0.2,0-0.3,0-0.5,0.1s-0.4,0.4-0.4,0.6
	c0,1.9,0.2,3.7,0.7,5.2c0.1,0.4,0.3,0.9,0.5,1.3H115c-0.3-0.1-0.5,0-0.7,0.2s-0.3,0.4-0.2,0.7c0.3,1.9,0.8,3.6,1.6,5
	c0.1,0.3,0.3,0.5,0.5,0.8c-0.1,0-0.3,0.1-0.4,0.2c-0.2,0.2-0.3,0.5-0.2,0.7c0.4,1.9,1.1,3.5,2,4.9c0.2,0.3,0.4,0.6,0.7,0.9
	c-0.2,0-0.4,0.1-0.5,0.3c-0.2,0.2-0.2,0.5-0.1,0.7c0.7,1.8,1.5,3.4,2.5,4.6c0.2,0.3,0.5,0.5,0.7,0.8c-0.2,0.1-0.3,0.2-0.4,0.3
	c-0.1,0.2-0.1,0.5,0,0.7c0.9,1.7,1.9,3.2,3.1,4.3c0.2,0.2,0.5,0.5,0.8,0.7c-0.2,0.1-0.3,0.2-0.4,0.4s-0.1,0.5,0.1,0.7
	c1,1.6,2.2,2.9,3.5,3.9c0.4,0.3,0.8,0.6,1.2,0.8c-0.1,0-0.1,0-0.2,0.1c-0.2,0.1-0.4,0.3-0.5,0.5c-0.1,0.3,0,0.5,0.2,0.7
	c1.3,1.4,2.7,2.5,4.1,3.3c1.1,0.6,2.3,1.1,3.4,1.3c1,0.2,1.9,0.2,2.7,0c0.1,0,0.1,0,0.2,0c2.4,1.7,4.9,3.1,7.5,4.2
	c2.2,0.9,4.4,1.6,6.6,2.1c0.5,0.1,0.9,0.2,1.3,0.3c-0.9-0.3-1.9-0.9-2.5-1.7c-0.1-0.1-0.2-0.3-0.3-0.4c-1.5-0.4-3.1-0.9-4.6-1.6
	c-2.5-1-4.9-2.4-7.2-4v-0.1c0-0.8-0.1-1.6-0.3-2.3c1.6,1.3,3.1,2.4,4.7,3.3c2.2,1.2,4.4,2.2,6.8,2.8c0-0.1,0-0.3,0-0.4
	c0-0.4,0.2-0.7,0.3-1.1c-2.1-0.6-4.2-1.5-6.3-2.7c-4.4-2.4-8.3-5.9-11.7-10.4c-1.2-1.6-2.3-3.2-3.3-4.9c2.6-1.1,8.4-3.8,13.5-6.4
	c0,0.2,0.1,0.4,0.2,0.7c0.4,1,1.6,1.4,2.4,1.5c0.3,0,0.6,0.1,0.8,0.1c0.3,0.8,1,1.4,2.1,1.8c0.4,0.1,0.8,0.2,1.1,0.2
	c0.2,0.5,0.5,0.8,0.9,1.1c1,0.7,2.4,0.6,3.2,0.5c0.4,0.5,1,0.9,1.7,1c0.2,0,0.4,0.1,0.6,0.1c0.5,0,1.1-0.1,1.5-0.3v9
	c0,0.7,0.5,1.2,1.2,1.2s1.2-0.5,1.2-1.2v-9.4c1.2,0.2,2.2,0,2.9-0.2c0.5-0.2,1-0.5,1.2-0.7c1.2,0.2,2.2-0.1,3-0.9
	c0.3-0.3,0.5-0.6,0.6-0.8c1.6,0.1,2.6-0.6,3.1-1.2c0.3-0.3,0.5-0.7,0.6-0.9c1,0,1.8-0.4,2.4-0.9c0.3-0.3,0.5-0.6,0.7-0.9
	c4.1,3.2,10.5,6,13.4,7.2c-1,1.6-2,3.2-3.1,4.6c-3.4,4.5-7.3,8-11.7,10.4c-2,1.1-4.1,2-6.3,2.7c0.2,0.3,0.3,0.7,0.3,1.1
	c0,0.1,0,0.3,0,0.4c2.3-0.7,4.6-1.6,6.8-2.8c1.7-1,3.3-2.2,4.8-3.3c-0.2,0.8-0.3,1.6-0.3,2.3v0.1c-0.7,0.5-2.6,1.9-5.3,3.2
	c-2,1-4.1,1.8-6.3,2.4c-0.1,0-0.2,0-0.3,0.1s-0.2,0.2-0.3,0.4c-0.7,0.8-1.7,1.3-2.6,1.7c1.2-0.2,2.4-0.4,3.5-0.7
	c2.2-0.6,4.4-1.4,6.5-2.5c2.9-1.4,4.8-2.8,5.5-3.3h0.1c0.8,0.2,1.8,0.1,2.7,0c1.1-0.2,2.2-0.6,3.4-1.3c1.4-0.8,2.7-1.9,4.1-3.3
	c0.2-0.2,0.3-0.5,0.2-0.7c-0.1-0.3-0.2-0.5-0.5-0.5h-0.1c0.4-0.2,0.8-0.5,1.2-0.8c1.3-1,2.5-2.3,3.5-3.9c0.1-0.2,0.2-0.5,0.1-0.7
	c-0.1-0.2-0.2-0.3-0.4-0.4c0.3-0.2,0.5-0.4,0.8-0.7c1.2-1.1,2.2-2.6,3.1-4.3c0.1-0.2,0.1-0.5,0-0.7s-0.3-0.3-0.6-0.4
	c0.3-0.3,0.5-0.5,0.8-0.8c1-1.2,1.9-2.8,2.5-4.6c0.1-0.2,0.1-0.5-0.1-0.7c-0.1-0.2-0.4-0.3-0.6-0.3l0,0c0.2-0.3,0.4-0.6,0.6-0.9
	c0.9-1.3,1.6-3,2.1-4.8c0.1-0.3,0-0.5-0.2-0.7s-0.4-0.3-0.6-0.2c0.2-0.3,0.4-0.7,0.6-1C202.9,134.8,203.3,133.1,203.6,131.2
	 M202.7,125.2L202.7,125.2c-0.1,1.3-0.3,2.6-0.7,3.6c-0.4,1.1-0.9,2-1.6,2.8c-0.8,0.9-1.6,1.4-1.9,1.6l0,0l0,0
	c-1.1-1.4-1.6-3.2-1.5-5.2c0-0.6,0.1-1.3,0.2-2l0,0l0,0c0.9,1.2,1.5,2.7,1.5,2.7c0.1,0.2,0.3,0.4,0.5,0.4s0.4-0.1,0.5-0.3
	C200.6,126.9,201.8,125.8,202.7,125.2C202.6,125.2,202.7,125.2,202.7,125.2 M202.5,118.3C202.5,118.3,202.6,118.3,202.5,118.3
	C202.6,118.3,202.6,118.4,202.5,118.3c0.1,1.3,0,2.6-0.3,3.7c-0.3,1.1-0.7,2.1-1.3,2.9c-0.7,1-1.4,1.6-1.7,1.8l0,0l0,0
	c-1.9-2.1-2-5.2-2-6.9l0,0l0,0c1,1.1,1.7,2.4,1.7,2.4c0.1,0.2,0.3,0.3,0.5,0.3s0.4-0.2,0.5-0.4C200.6,120.2,201.7,119,202.5,118.3
	 M201.8,111.4L201.8,111.4C201.8,111.4,201.9,111.4,201.8,111.4c0.2,1.3,0.2,2.6,0.1,3.7c-0.2,1.1-0.5,2.2-1,3.1
	c-0.6,1.1-1.3,1.7-1.6,1.9l0,0l0,0c-1.8-1.5-2.4-4.8-2.6-6.7l0,0l0,0c1.1,1,1.8,2.2,1.9,2.2c0.1,0.2,0.3,0.3,0.6,0.3
	c0.2,0,0.4-0.2,0.5-0.4C200.1,113.5,201.1,112.2,201.8,111.4 M200.7,104.8L200.7,104.8C200.8,104.8,200.8,104.8,200.7,104.8
	c0.3,1.3,0.4,2.5,0.2,3.7c-0.1,1.1-0.4,2.2-0.9,3.1c-0.5,1.1-1.2,1.7-1.5,2l0,0l0,0c-1.5-1.3-2.3-3.2-2.6-4.6
	c-0.2-0.6-0.3-1.3-0.3-1.9l0,0l0,0c1.2,0.9,2,2.2,2,2.2c0.1,0.2,0.4,0.3,0.6,0.2c0.2,0,0.4-0.2,0.4-0.4
	C199.1,106.9,200,105.6,200.7,104.8 M147.9,105.2c0-0.1,0-0.2,0-0.3c0.9-4.5,2.7-7.6,4-9.5c1-1.4,1.9-2.2,2.4-2.6
	c0.1-0.1,0.3-0.2,0.4-0.3c0.4-0.4,0.5-1,0.2-1.5c-0.4-0.5-1-0.6-1.5-0.2c0,0-0.2,0.1-0.5,0.4c-1,0.7-1.6,0.5-1.7,0.4
	c-0.3-0.2-0.5-0.6-0.4-1.2c0.2-1,1.3-2.3,1.7-2.7c0,0,0,0,0.1-0.1c2.2-2.6,5.8-2.7,5.8-2.7h0.1c0,0,1.1-0.1,2.5,0.4
	c1.9,0.6,3.4,1.9,4.4,3.9c1.4,2.7,2.5,5.5,3.3,8.4c-2-0.7-3.6-2-3.6-2c-0.5-0.4-1.1-0.3-1.5,0.1c-0.2,0.2-0.3,0.5-0.2,0.8
	c0,0.3,0.2,0.5,0.4,0.7c0.1,0.1,2.6,2.1,5.5,2.8c0.2,1,0.4,2,0.6,3.3c-1-0.5-2.1-0.8-3-1c-0.6-0.2-1.2-0.3-1.7-0.5
	c-2-0.8-3.8-2.2-3.8-2.2c-0.5-0.4-1.1-0.3-1.5,0.2s-0.3,1.2,0.2,1.5c0.1,0.1,2,1.6,4.3,2.5c0.6,0.2,1.2,0.4,1.9,0.6
	c2.6,0.7,3.7,1.2,3.8,2.5c-0.1,0.2-0.2,0.4-0.3,0.5c-0.8,0.9-2.6,1-3.2,0.9c0,0,0,0-0.1,0h-2.4c-0.5,0-3-0.1-5.1-1.5
	C153.5,103.3,151,103.9,147.9,105.2 M157.3,108.4h-7.4c-0.8,0-1.3-0.2-1.6-0.6c-0.1-0.1-0.1-0.2-0.2-0.3
	C151.2,106.1,152.8,105.6,157.3,108.4 M160.3,121.7v-11.3h3.8l0,0l0,0h2.3c0.1,0,0.2,0,0.3,0c0.3,0,0.8,0,1.4-0.1
	c1.4-0.2,2.4-0.7,3.1-1.5c0.3-0.3,0.6-0.8,0.8-1.4c0-0.1,0-0.1,0.1-0.2c0.1-0.5,0.2-1.2,0.1-2V105c-0.7-4.5-1.5-10-4.9-16.8
	c-2.9-5.6-8.3-5.4-8.9-5.4c-0.5,0-4.6,0.2-7.3,3.4c-0.3,0.3-1.9,2.1-2.2,3.8c-0.2,1.4,0.3,2.7,1.4,3.3c0.2,0.1,0.4,0.2,0.5,0.2
	c-1.7,2.2-3.8,5.7-4.8,10.9c-0.2,0.9-0.2,1.7-0.1,2.4c0,0.1,0,0.1,0,0.2c0.1,0.8,0.4,1.4,0.8,2c0.5,0.6,1.5,1.3,3.2,1.3h8v11.3v6.9
	c-2.1-0.1-3.7,0.7-5.7,2.1c-2.8,1.9-12.3,3.8-28.2,5.6c-1.1-4.7-1.7-9.6-1.7-14.6c0-6.6,1-13,2.9-19c1.9-5.8,4.5-11,7.9-15.5
	s7.3-8,11.7-10.4c4.5-2.5,9.3-3.8,14.2-3.8s9.7,1.3,14.2,3.8c4.4,2.4,8.3,5.9,11.7,10.4s6.1,9.7,7.9,15.5c1.9,6,2.9,12.4,2.9,19
	c0,5.1-0.6,10-1.7,14.8c-9.7-0.6-21.1-4.1-21.5-4.3c-0.8-0.3-1.6-0.5-2.2-0.8c-2.4-0.9-4.1-1.5-6.2-1.4c-0.1,0-0.2,0-0.4,0
	c-1.2-0.6-2.2-1-3.6-1.2v-7H160.3z M175.3,70.8c-0.6,0.2-1.5,0.5-2.5,0.7c-0.7,0.1-1.3,0.2-1.9,0.2c-1.4,0-2.6-0.3-3.6-1l0,0l0,0
	c0.4-0.3,1.2-0.6,2.1-0.8c1-0.2,2-0.3,3-0.1C173.4,69.8,174.4,70.2,175.3,70.8C175.3,70.7,175.3,70.7,175.3,70.8
	C175.3,70.7,175.3,70.7,175.3,70.8 M176.7,74.7L176.7,74.7L176.7,74.7c-0.4,0.2-1.1,0.4-1.8,0.4c-0.1,0-0.2,0-0.3,0
	c-1.6,0-3.3-0.6-4.8-1.8l0,0l0,0c0.7-0.2,1.4-0.4,2.1-0.4C173.8,72.7,175.4,73.3,176.7,74.7 M169.1,68.6c-0.6,0.3-1.8,0.7-3.5,0.9
	c-0.2,0-0.4,0.2-0.5,0.4c-0.1,0.2,0,0.5,0.2,0.6c0,0,1.3,0.9,2.3,2.1l0,0l0,0l0,0c-1.6,0-4.6-0.5-6.7-3.1c0,0,0,0,0-0.1
	c0.3-0.3,0.9-0.8,1.8-1.1C164.4,67.8,166.6,67.8,169.1,68.6C169.1,68.5,169.1,68.5,169.1,68.6L169.1,68.6 M162,67.4
	c-0.6,0.4-1.6,1.1-3.2,1.6c-0.2,0.1-0.4,0.3-0.4,0.5s0.1,0.5,0.4,0.6c0,0,1.4,0.5,2.6,1.5l0,0l0,0c-0.4,0-0.9,0.1-1.4,0.1
	c-1.7,0-4-0.3-5.7-1.6c0,0,0,0,0-0.1c0.3-0.4,0.7-0.9,1.6-1.5C157.2,67.6,159.4,67.2,162,67.4C162,67.3,162,67.4,162,67.4L162,67.4
	 M154.6,67.5c-0.4,0.6-1.3,1.4-2.9,2.2c-0.2,0.1-0.3,0.3-0.3,0.6c0,0.2,0.2,0.4,0.5,0.5c0,0,1.5,0.3,2.8,1l0,0l0,0
	c-0.6,0.2-1.3,0.4-1.9,0.5c-0.6,0.1-1.2,0.2-2,0.2c-1.1,0-2.3-0.2-3.4-0.7c0,0,0,0,0-0.1c0.2-0.4,0.5-1.1,1.2-1.7
	C149.9,68.7,152,67.8,154.6,67.5L154.6,67.5C154.7,67.5,154.7,67.5,154.6,67.5 M145.2,72c-0.2,0.2-0.2,0.4-0.2,0.6
	c0.1,0.2,0.3,0.4,0.5,0.4l0,0c0,0,0.6,0,1.5,0.1c0.6,0.1,1.1,0.2,1.5,0.3l0,0l0,0c-0.6,0.3-1.2,0.6-1.8,0.8
	c-1.3,0.5-2.5,0.6-3.4,0.6c-0.8,0-1.5-0.1-2-0.3l0,0c0.2-1.2,1.4-4.2,6.4-5.9l0,0l0,0C147.5,69.5,146.8,70.7,145.2,72 M197.2,102.5
	c0.1-2,0.8-3.5,1.4-4.4l0,0l0,0c0.4,1.3,0.6,2.5,0.7,3.6c0,1.1-0.1,2.2-0.4,3.2c-0.4,1.1-0.9,1.9-1.2,2.2l0,0l0,0
	c-1.4-0.9-2.5-2.3-3.3-4.3c-0.2-0.6-0.4-1.2-0.6-1.9l0,0l0,0c1.3,0.8,2.3,1.9,2.3,1.9c0.2,0.2,0.4,0.2,0.6,0.2
	C197,102.9,197.2,102.7,197.2,102.5 M194.9,96.2c-0.1-2,0.5-3.5,0.9-4.5l0,0l0,0c0.5,1.2,0.9,2.4,1,3.5c0.2,1.1,0.1,2.2-0.1,3.2
	c-0.3,1.2-0.7,2-0.9,2.3l0,0l0,0c-1.5-0.7-2.8-2.1-3.7-3.9c-0.3-0.6-0.5-1.2-0.8-1.8l0,0l0,0c1.3,0.6,2.5,1.6,2.5,1.7
	c0.2,0.2,0.4,0.2,0.6,0.1C194.8,96.6,194.9,96.4,194.9,96.2 M191.7,90.8L191.7,90.8c0.2-0.1,0.3-0.4,0.3-0.6c-0.3-2,0-3.6,0.4-4.5
	l0,0l0,0c0.7,1.1,1.2,2.3,1.4,3.4c0.3,1.1,0.4,2.2,0.3,3.2c-0.1,1.2-0.5,2.1-0.7,2.4l0,0l0,0c-1.7-0.6-3.2-1.8-4.3-3.5
	c-0.4-0.5-0.7-1.1-0.9-1.8l0,0l0,0c1.5,0.4,2.7,1.4,2.8,1.4C191.3,90.9,191.5,90.9,191.7,90.8 M187.5,85.3c0.2,0.1,0.5,0.1,0.7,0
	s0.3-0.4,0.2-0.6c-0.5-1.8-0.5-3.4-0.3-4.5l0,0l0,0c0.8,1,1.5,2,1.9,3c0.5,1,0.7,2.1,0.8,3.1c0.1,1.2-0.1,2-0.3,2.4l0,0l0,0
	c-1.7-0.3-3.2-1.2-4.7-2.7c-0.5-0.5-0.9-1.1-1.3-1.6l0,0l0,0C186.2,84.5,187.5,85.3,187.5,85.3 M183.2,80.5c0.2,0.1,0.5,0,0.6-0.1
	c0.2-0.2,0.2-0.4,0.1-0.6c-0.9-1.8-1.1-3.4-1.1-4.4l0,0l0,0c1,0.9,1.8,1.8,2.4,2.7c0.6,1,1.1,2,1.3,3c0.3,1.2,0.2,2.1,0.2,2.5l0,0
	h-0.1c-1.9,0-3.6-1-4.8-1.9c-0.6-0.4-1.1-0.9-1.6-1.5l0,0l0,0c0.1,0,0.1,0,0.2,0C181.9,80,183.2,80.5,183.2,80.5 M181.5,76
	c0.5,1.2,0.5,2.2,0.5,2.8l0,0c-0.1,0-0.2,0-0.3,0c-2.3,0-5.1-1.6-6.5-2.5l0,0l0,0c1.5-0.3,2.9,0,2.9,0c0.2,0.1,0.5,0,0.6-0.2
	s0.1-0.5,0-0.7c-0.9-1.2-1.5-2.5-1.8-3.4l0,0l0,0C179.2,72.7,180.8,74.1,181.5,76 M139.1,69.1c0.1,0,0.2-0.1,0.3-0.1
	c1.4-0.5,2.7-0.8,3.3-0.9c1.5-0.3,2.6-1,2.6-1c0.1-0.1,0.2-0.3,0.2-0.4c0-0.2-0.2-0.3-0.3-0.3l-6.7-1l6.7-1c0.2,0,0.3-0.2,0.3-0.4
	c0-0.2-0.1-0.4-0.3-0.4c0,0-1.5-0.2-3-0.9c-0.4-0.2-0.8-0.4-1.2-0.6c-0.6-0.3-1.2-0.6-1.9-0.9c0.1,0,0.2,0,0.4,0
	c1.5,0.1,2.8,0.3,3.5,0.4c1.5,0.3,2.8,0.1,2.8,0c0.2,0,0.3-0.2,0.3-0.3c0-0.2,0-0.3-0.2-0.4l-5.9-3.5l6.6,1.7c0.2,0,0.4,0,0.5-0.2
	s0-0.4-0.2-0.5c0,0-1.3-0.8-2.4-2c-0.3-0.3-0.6-0.7-0.9-1c-0.4-0.5-0.8-1-1.4-1.6c0.1,0,0.2,0.1,0.3,0.2c1.3,0.6,2.5,1.3,3,1.7
	c1.3,0.8,2.5,1.1,2.6,1.1c0.2,0,0.3,0,0.4-0.2c0.1-0.1,0.1-0.3,0-0.4l-4.1-5.4l5.5,4.1c0.2,0.1,0.4,0.1,0.5,0s0.2-0.4,0-0.5
	c-0.1-0.1-0.9-1.3-1.5-2.8c-0.2-0.5-0.3-0.9-0.4-1.3c-0.2-0.6-0.4-1.3-0.7-2c0.1,0.1,0.2,0.2,0.2,0.3c1,1.1,1.8,2.2,2.2,2.7
	c0.9,1.2,1.9,2,2,2c0.1,0.1,0.3,0.1,0.4,0c0.1-0.1,0.2-0.3,0.2-0.4l-1.7-6.6l3.5,5.8c0.1,0.2,0.3,0.2,0.5,0.2
	c0.2-0.1,0.3-0.3,0.2-0.5c0-0.1-0.3-1.5-0.3-3.1c0-0.5,0.1-0.9,0.1-1.3c0.1-0.7,0.1-1.3,0.1-2.1c0,0.1,0.1,0.2,0.1,0.3
	c0.5,1.4,0.8,2.7,0.9,3.3c0.3,1.5,1,2.5,1,2.6c0.1,0.1,0.3,0.2,0.4,0.2c0.2,0,0.3-0.2,0.3-0.3l0.9-6.7l1,6.7c0,0.2,0.2,0.3,0.4,0.3
	s0.4-0.1,0.4-0.3c0-0.1,0.2-1.5,0.9-3c0.2-0.4,0.4-0.8,0.6-1.2c0.3-0.6,0.6-1.2,0.9-1.9c0,0.1,0,0.2,0,0.4c-0.1,1.5-0.3,2.8-0.4,3.5
	c-0.3,1.5-0.1,2.8-0.1,2.8c0,0.2,0.2,0.3,0.3,0.3c0.2,0,0.3,0,0.4-0.2l3.5-5.8l-1.7,6.6c0,0.2,0.1,0.4,0.2,0.5
	c0.2,0.1,0.4,0,0.5-0.2c0.1-0.1,0.8-1.3,2-2.4c0.3-0.3,0.7-0.6,1-0.9c0.5-0.4,1-0.8,1.5-1.5c0,0.1-0.1,0.2-0.1,0.3
	c-0.6,1.3-1.3,2.5-1.7,3c-0.8,1.3-1.1,2.5-1.1,2.6c0,0.2,0,0.3,0.2,0.4c0.1,0.1,0.3,0.1,0.4,0l5.5-4.1l-4.1,5.5
	c-0.1,0.2-0.1,0.4,0,0.5s0.3,0.2,0.5,0c0,0,1.2-0.9,2.8-1.5c0.5-0.2,0.9-0.3,1.3-0.4c0.6-0.2,1.3-0.4,2-0.7
	c-0.1,0.1-0.2,0.2-0.3,0.2c-1.1,1-2.2,1.8-2.7,2.2c-1.3,0.9-2,1.9-2,2c-0.1,0.1-0.1,0.3,0,0.4s0.3,0.2,0.4,0.2l6.6-1.7l-5.8,3.5
	c-0.2,0.1-0.2,0.3-0.2,0.5c0.1,0.2,0.3,0.3,0.5,0.2c0.2,0,1.5-0.3,3.1-0.3c0.5,0,0.9,0.1,1.3,0.1c0.7,0.1,1.3,0.1,2.1,0.1
	c-0.1,0-0.2,0.1-0.3,0.1c-1.4,0.5-2.7,0.8-3.3,0.9c-1.5,0.3-2.6,1-2.6,1c-0.1,0.1-0.2,0.3-0.2,0.4c0,0.2,0.2,0.3,0.3,0.3l6.7,1
	l-6.7,1c-0.2,0-0.3,0.2-0.3,0.4s0.1,0.4,0.3,0.4s1.5,0.3,3,0.9c0.4,0.2,0.8,0.4,1.2,0.6c0.6,0.3,1.2,0.6,1.9,0.9c-0.1,0-0.2,0-0.4,0
	c-1.5-0.1-2.8-0.3-3.5-0.4h-0.2c-1.2-0.5-2.5-0.8-3.7-0.8l0,0c-0.1-0.3-0.2-0.5-0.5-0.6c-1.8-0.6-3.5-1-5.1-1c-0.6,0-1.1,0-1.6,0.1
	c0-0.1,0-0.1-0.1-0.2c-0.1-0.2-0.3-0.4-0.6-0.4c-1.9-0.3-3.7-0.2-5.2,0.1c-0.6,0.1-1.2,0.3-1.7,0.5c0-0.2-0.1-0.3-0.2-0.4
	c-0.2-0.2-0.4-0.3-0.6-0.2c-1.9,0.2-3.6,0.6-5.1,1.2c-0.4,0.2-0.7,0.4-1.1,0.5c0-0.2-0.1-0.4-0.3-0.5c-0.2-0.2-0.5-0.2-0.7-0.1
	c-1.9,0.5-3.5,1.2-4.8,2.1l-0.1,0.1c-0.4,0-0.7,0-1,0s-1.2-0.1-1.3-0.1C140.5,69.1,139.9,69.1,139.1,69.1 M140.9,71.1L140.9,71.1
	C141,71.1,141,71.1,140.9,71.1c0,1.1-0.3,2.7-1.4,4.4c-0.1,0.2-0.1,0.4,0,0.6s0.4,0.3,0.6,0.2c0,0,1.5-0.3,2.9-0.2l0,0l0,0
	c-1.3,1-3.8,2.7-6.4,2.7c-0.1,0-0.2,0-0.3,0l0,0C136.2,77.5,136.5,74.2,140.9,71.1 M131.6,80.9c0.2-1,0.7-2,1.3-3s1.4-1.9,2.4-2.8
	l0,0l0,0c0,1-0.1,2.6-1.1,4.4c-0.1,0.2-0.1,0.5,0.1,0.6c0.2,0.2,0.4,0.2,0.6,0.2c0,0,1.4-0.5,2.9-0.5l0,0l0,0
	c-0.5,0.5-1.1,1-1.7,1.5c-1.2,0.9-2.9,1.9-4.5,1.9c-0.1,0-0.1,0-0.2,0l0,0C131.5,83,131.4,82.1,131.6,80.9 M130.1,80.1
	C130.1,80.1,130.2,80.1,130.1,80.1C130.2,80.1,130.2,80.1,130.1,80.1c0.3,1,0.4,2.7-0.3,4.6c-0.1,0.2,0,0.5,0.2,0.6s0.5,0.1,0.7,0
	c0,0,1.3-0.9,2.8-1l0,0l0,0c-1,1.4-3.2,3.9-5.9,4.4l0,0l0,0C127.2,87.6,126.7,84.3,130.1,80.1 M124.2,89c0.3-1.1,0.9-2.2,1.6-3.3
	l0,0l0,0c0.3,1,0.6,2.6,0.2,4.6c0,0.2,0.1,0.5,0.3,0.6c0.2,0.1,0.5,0.1,0.7-0.1c0,0,1.2-1.1,2.8-1.4l0,0l0,0
	c-0.2,0.5-0.6,1.1-1.1,1.9c-1.2,1.7-2.7,2.8-4.3,3.3l0,0l0,0c-0.1-0.3-0.5-1.2-0.6-2.4C123.7,91.2,123.8,90.1,124.2,89 M121,95.2
	c0.2-1.1,0.5-2.3,1.1-3.5l0,0l0,0l0,0c0.5,0.9,1,2.5,0.9,4.5c0,0.2,0.1,0.4,0.3,0.5c0.2,0.1,0.4,0.1,0.6-0.1c0.1,0,1.3-1.1,2.7-1.7
	l0,0l0,0c-0.1,0.6-0.4,1.1-0.6,1.7c-0.9,1.8-2.2,3.1-4.1,4l0,0l0,0c-0.2-0.4-0.7-1.1-0.9-2.3C120.8,97.4,120.8,96.3,121,95.2
	 M119.2,98C119.2,98,119.3,98,119.2,98C119.3,98,119.3,98,119.2,98c0.7,0.9,1.4,2.3,1.5,4.3c0,0.2,0.2,0.4,0.4,0.5
	c0.2,0.1,0.5,0,0.6-0.2c0,0,1-1.2,2.4-2l0,0l0,0c-0.1,0.6-0.2,1.2-0.4,1.8c-0.6,1.9-1.8,3.4-3.5,4.5l0,0l0,0c-0.2-0.3-0.8-1-1.2-2.2
	c-0.3-1-0.5-2-0.5-3.2C118.6,100.5,118.9,99.3,119.2,98 M117.3,104.7L117.3,104.7L117.3,104.7c0.8,0.8,1.7,2.1,2.1,4.1
	c0,0.2,0.2,0.4,0.4,0.4c0.2,0,0.5,0,0.6-0.2c0-0.1,0.9-1.3,2.1-2.2l0,0l0,0c0,0.6-0.1,1.2-0.2,1.8c-0.4,1.9-1.4,3.6-2.8,4.8l0,0l0,0
	c-0.3-0.3-0.9-0.9-1.4-2c-0.5-0.9-0.7-2-0.9-3.1C117,107.2,117,106,117.3,104.7 M116.3,111.4L116.3,111.4L116.3,111.4
	c0.8,0.7,1.8,2.1,2.3,4c0.1,0.2,0.3,0.4,0.5,0.4s0.5-0.1,0.6-0.3c0,0,0.6-1.3,1.8-2.3l0,0l0,0c0,0.7-0.1,1.4-0.2,2
	c-0.3,2-1.1,3.7-2.4,4.8l0,0l0,0c-0.3-0.2-1-0.9-1.6-1.9c-0.5-0.9-0.8-1.9-1-3.1C116.1,113.9,116.1,112.7,116.3,111.4 M115.7,118.5
	C115.7,118.4,115.7,118.4,115.7,118.5C115.8,118.4,115.8,118.4,115.7,118.5c0.2,0.1,0.4,0.2,0.5,0.4c0.6,0.7,1.5,1.8,2,3.5
	c0.1,0.2,0.3,0.4,0.6,0.4c0.3,0,0.5-0.2,0.5-0.5l0,0c0,0,0.3-1.4,1.5-2.5l0,0l0,0c0.1,0.8,0.2,2,0,3.3c-0.3,1.6-0.9,2.9-2,3.9l0,0
	l0,0C117.8,126.2,115.4,123.8,115.7,118.5 M115.4,125.3C115.5,125.3,115.5,125.3,115.4,125.3c0.2,0.1,0.4,0.2,0.5,0.4
	c0.7,0.6,1.7,1.6,2.4,3.2c0.1,0.2,0.3,0.3,0.5,0.3l0,0l0,0c0.2,0,0.4-0.1,0.5-0.4c0,0,0.6-1.5,1.6-2.7l0,0l0,0
	c0.3,1.4,0.5,4.3-1.6,7.2l0,0l0,0C118.3,132.7,115.7,130.6,115.4,125.3L115.4,125.3 M115.8,132.4L115.8,132.4
	C115.8,132.3,115.8,132.3,115.8,132.4c1,0.4,2.3,1.3,3.5,3c0.1,0.2,0.4,0.3,0.6,0.2c0.2,0,0.4-0.2,0.4-0.4l0,0l0,0l0,0
	c0-0.1,0.4-1.7,1.2-3l0,0l0,0c0.3,0.6,0.5,1.2,0.6,1.8c0.4,1.9,0.1,3.8-1,5.6l0,0l0,0c-0.3-0.1-1.2-0.5-2.1-1.3
	c-0.8-0.7-1.4-1.5-2-2.5C116.5,134.8,116.1,133.7,115.8,132.4 M117.4,139C117.4,139,117.4,138.9,117.4,139
	C117.4,138.9,117.4,138.9,117.4,139c0.2,0,0.4,0.1,0.6,0.2c0.8,0.4,2,1.2,3.1,2.6c0.1,0.2,0.4,0.3,0.6,0.2s0.4-0.2,0.4-0.5
	c0,0,0.2-1.6,0.9-2.9l0,0l0,0c0.7,1.5,1.6,4.4,0.3,7.3l0,0l0,0C122,145.5,119,144.1,117.4,139 M121.4,148.7
	c-0.7-0.9-1.3-1.9-1.9-3.1l0,0l0,0c0.2,0.1,0.4,0.1,0.6,0.2c0.9,0.3,2.1,1,3.4,2.2c0.2,0.2,0.4,0.2,0.6,0.1c0.2-0.1,0.4-0.3,0.4-0.5
	c0,0,0-1.6,0.5-3l0,0l0,0c0.3,0.6,0.6,1.2,0.8,1.7c0.7,1.9,0.8,3.7,0.3,5.4l0,0l0,0c-0.4-0.1-1.3-0.3-2.3-0.9
	C122.9,150.4,122.1,149.6,121.4,148.7 M122.3,151.9C122.3,151.9,122.3,151.8,122.3,151.9C122.4,151.8,122.4,151.8,122.3,151.9
	c1.1,0.1,2.6,0.6,4.2,1.9c0.2,0.1,0.4,0.2,0.6,0.1c0.2-0.1,0.3-0.3,0.3-0.6c0-0.1-0.2-1.5,0.2-2.9l0,0l0,0c0.4,0.6,0.7,1.1,1,1.7
	c0.6,1.3,1.3,3.2,1,5.2l0,0l0,0c-0.4,0-1.3-0.1-2.4-0.6c-0.9-0.4-1.8-1-2.7-1.8C123.8,154,123,153,122.3,151.9 M135.4,163.3
	c0,0-0.6-1.4-0.7-2.9l0,0l0,0c1.3,1.1,3.5,3.4,3.4,6.5l0,0c-0.2,0-0.5,0.1-0.9,0.1s-0.8,0-1.4-0.1c-1.9-0.4-3.9-1.5-5.8-3.3l0,0l0,0
	c1-0.1,2.7-0.1,4.6,0.6c0.2,0.1,0.5,0,0.6-0.1C135.5,163.7,135.5,163.5,135.4,163.3 M130.3,159.2c0.2,0.1,0.4,0.1,0.6,0
	c0.2-0.1,0.3-0.4,0.2-0.6c0,0-0.4-1.4-0.2-2.9l0,0l0,0c1.1,1.3,2.9,3.9,2.7,6.7l0,0c-0.1,0-0.2,0-0.3,0c-0.5,0-1.3-0.1-2.2-0.4
	c-1-0.3-1.9-0.8-2.9-1.6c-0.9-0.7-1.7-1.6-2.5-2.7l0,0l0,0C126.9,157.8,128.6,158.1,130.3,159.2 M152.5,144.2
	c-0.2,0.1-0.4,0.2-0.5,0.4c-1.2,0.9-2,1.8-2.2,2.7c-0.2,0-0.3-0.1-0.4-0.1c-0.9-0.3-1-0.8-1-0.9c0-0.5,0.2-0.9,0.9-1.6
	c0.8-0.8,1.5-1.2,2.1-1.2c0.2,0,0.4,0,0.6,0.1c0.3,0.1,0.5,0.3,0.5,0.5C152.5,144.1,152.6,144.2,152.5,144.2 M153.7,148.9
	c-0.4,0.1-1.4,0.2-1.9-0.2c-0.1-0.1-0.2-0.2-0.3-0.5c-0.1-0.8,0.9-1.6,1.6-2.1c1-0.7,1.6-1.1,2.2-1.1c0.3,0,0.5,0.1,0.8,0.3
	c0.2,0.2,0.3,0.3,0.3,0.4c0,0.3-0.3,0.6-0.6,0.9C154.7,147.4,154.1,148.1,153.7,148.9 M158.5,149.1c-0.4,0.3-1.6,1.1-2.5,0.9
	c-0.1,0-0.4-0.1-0.6-0.3c0.4-0.9,1.3-1.4,2.1-1.9c1.1-0.6,1.5-0.3,1.5-0.3c0.3,0.3,0.3,0.5,0.3,0.5
	C159.4,148.4,158.9,148.9,158.5,149.1C158.6,149.1,158.6,149.1,158.5,149.1 M148.4,142.9c-0.1,0.1-0.3,0.3-0.4,0.4
	c-0.6,0.5-1.2,1.2-1.4,2.1c-0.1,0-0.3,0-0.4,0c-0.6-0.1-0.9-0.3-1-0.4c0-0.1-0.2-0.4,0.2-0.8c0.5-0.7,1.6-1.2,2.4-1.2
	c0.1,0,0.1,0,0.2,0h0.1C148.1,142.8,148.3,142.8,148.4,142.9 M172.8,144c-0.3,0.3-0.7,0.4-1.3,0.4c-0.8-1.1-2.9-3.6-5.5-4.9
	c-0.2-0.1-0.5-0.1-0.7,0s-0.4,0.3-0.5,0.5s-0.1,0.5,0,0.7s0.3,0.4,0.5,0.5c2.2,1.1,4,3.3,4.8,4.3c-0.1,0.2-0.2,0.3-0.3,0.4
	c-0.4,0.4-0.9,0.6-1.6,0.6c-0.2-0.5-0.7-1.1-1.3-1.8c-0.8-0.9-2.4-2.1-2.5-2.1c-0.2-0.1-0.5-0.2-0.7-0.2s-0.5,0.2-0.6,0.4
	s-0.2,0.5-0.2,0.7s0.2,0.5,0.4,0.6c0.4,0.3,1.6,1.2,2.2,1.8c0.6,0.7,0.9,1.2,1,1.4c-0.1,0.2-0.2,0.4-0.4,0.6
	c-0.3,0.3-0.8,0.5-1.3,0.4c-0.2-0.5-0.8-1.5-1.7-2.6c-0.3-0.4-1-0.4-1.3-0.1c-0.2,0.2-0.3,0.4-0.3,0.7s0.1,0.5,0.2,0.7
	c0.7,0.7,1.1,1.4,1.3,1.9c-0.2,0.1-0.3,0.2-0.5,0.3c-0.5,0.2-1,0.3-1.5,0.2c0.2-0.4,0.4-0.8,0.4-1.1c0.1-0.5,0-1.3-0.8-2.1
	c-0.4-0.4-1.2-0.8-2.3-0.6c-0.1-0.6-0.4-1.1-0.9-1.6c-0.9-0.7-1.9-1-3-0.6l0,0c-0.2-0.4-0.6-1-1.4-1.5c-0.8-0.4-1.7-0.5-2.5-0.2
	c-0.8-0.7-1.8-0.8-2.1-0.8c-1.3-0.2-2.9,0.4-4,1.4c-5.4,2.9-12.4,6-15.2,7.3c-1.5-2.8-2.8-5.8-3.8-9c-0.3-0.9-0.5-1.7-0.8-2.6
	c8-0.9,14.4-1.8,19-2.8c4.9-1,8.1-2,9.7-3.1c1.9-1.3,3.1-2,4.9-1.8c0.4,0,0.8,0.1,1.2,0.1c-0.3,0.1-0.7,0.3-1,0.5
	c-0.7,0.5-1.2,0.9-1.6,1.2c-0.4,0.3-0.7,0.6-1.3,0.9c-0.4,0.2-0.8,0.5-1.3,0.7c-1.1,0.5-2,1-2.3,1.7c-0.3,0.8-0.2,1.5,0.4,2.3
	c0.9,1.2,2.2,1.1,3.3,1.1c1.2-0.1,2.8-0.5,3.9-1.2c0.4-0.2,0.7-0.5,1.1-0.7c0.5-0.3,0.9-0.6,1.2-0.6c0,0,0,0,0.1,0
	c1-0.3,2-0.2,3.3,0.3c1.2,0.4,2.3,1.1,3.3,1.8c2.5,1.6,4.3,3.8,4.9,4.5C173.2,143.4,173.1,143.8,172.8,144 M176.3,143.3
	c-0.8-0.6-1.4-1.2-1.7-1.5l0,0l0,0c-0.1-0.1-0.1-0.1-0.1-0.2c-0.9-1-2.6-3-5-4.5c-1.7-1.1-5-3.3-8.2-2.4c-0.6,0.1-1.2,0.5-1.8,0.9
	c-0.3,0.2-0.6,0.4-1,0.6c-1,0.6-2.2,0.9-3,0.9c-0.9,0.1-1.5,0.1-1.7-0.3c-0.2-0.3-0.2-0.4-0.2-0.5c0.2-0.2,0.9-0.6,1.3-0.7
	c0.5-0.3,1.1-0.5,1.5-0.8c0.6-0.4,1-0.7,1.4-1.1c0.4-0.3,0.8-0.7,1.5-1.1c0.9-0.7,2-0.7,3.5-0.7l0,0c0.2,0,0.5,0,0.7,0s0.4,0,0.6,0
	c1.7-0.1,3.2,0.5,5.5,1.3c0.7,0.2,1.4,0.5,2.3,0.8c0.1,0,3.2,1,7.4,2c3.6,0.9,9,2,14.1,2.3c-0.2,0.8-0.5,1.6-0.7,2.4
	c-1.1,3.3-2.4,6.4-3.9,9.3C186.4,148.9,180.3,146.3,176.3,143.3 M188,163.5c-2.4,2.3-4.5,3.1-5.8,3.3c-0.5,0.1-1,0.1-1.4,0.1
	s-0.7,0-0.9-0.1l0,0c-0.1-1.7,0.6-3.4,2-5c0.4-0.5,0.9-1,1.5-1.4l0,0l0,0c-0.2,1.5-0.7,2.8-0.7,2.8c-0.1,0.2,0,0.5,0.1,0.6
	c0.2,0.2,0.4,0.2,0.6,0.1C185.3,163.3,187,163.3,188,163.5C188,163.4,188,163.4,188,163.5C188.1,163.5,188,163.5,188,163.5
	 M192.3,157.8c-0.8,1.1-1.6,2-2.5,2.7s-1.9,1.2-2.9,1.6c-0.9,0.3-1.7,0.4-2.2,0.4c-0.1,0-0.2,0-0.3,0l0,0c-0.1-1.7,0.4-3.4,1.5-5.1
	c0.3-0.5,0.7-1.1,1.2-1.6l0,0l0,0c0.1,1.5-0.2,3-0.2,3c0,0.2,0,0.5,0.2,0.6s0.4,0.1,0.6,0C189.6,158.1,191.3,157.8,192.3,157.8
	C192.3,157.7,192.3,157.7,192.3,157.8C192.3,157.7,192.3,157.8,192.3,157.8 M193.6,154.8c-0.8,0.8-1.7,1.4-2.7,1.8
	c-1.1,0.5-2.1,0.6-2.4,0.6l0,0l0,0c-0.3-1.7,0-3.4,1-5.3c0.3-0.6,0.6-1.1,1-1.7l0,0l0,0c0.3,1.4,0.2,3,0.2,3c0,0.2,0.1,0.4,0.3,0.6
	c0.2,0.1,0.4,0.1,0.6-0.1c1.6-1.3,3.2-1.7,4.2-1.9l0,0l0,0C195.2,153,194.5,154,193.6,154.8 M196.8,148.7c-0.7,0.9-1.5,1.6-2.4,2.1
	c-1,0.6-1.9,0.8-2.3,0.9l0,0l0,0c-0.5-1.7-0.4-3.5,0.3-5.4c0.2-0.6,0.5-1.1,0.8-1.7l0,0l0,0c0.5,1.4,0.5,2.9,0.5,3
	c0,0.2,0.2,0.4,0.4,0.5s0.5,0,0.6-0.1c1.3-1.4,2.5-2,3.4-2.3c0.2-0.1,0.4-0.1,0.6-0.2l0,0l0,0C198.2,146.7,197.5,147.8,196.8,148.7
	 M199.2,142.3c-0.6,1-1.4,1.8-2.2,2.4c-1,0.7-1.9,1-2.2,1.1l0,0l0,0c-0.8-2-0.6-4-0.2-5.5c0.2-0.6,0.4-1.3,0.6-1.9l0,0l0,0
	c0.6,1.4,0.8,3,0.8,3c0,0.2,0.2,0.4,0.4,0.5s0.5,0,0.6-0.2c1.3-1.6,2.7-2.4,3.7-2.8l0,0l0,0C200.3,140.2,199.8,141.3,199.2,142.3
	 M201,135.6c-0.5,1-1.1,1.9-1.9,2.6c-0.8,0.8-1.7,1.2-2.1,1.4l0,0l0,0c-0.9-1.6-1.2-3.4-0.9-5.5c0.1-0.6,0.2-1.3,0.4-1.9l0,0l0,0
	c0.8,1.3,1.2,3,1.2,3c0.1,0.2,0.2,0.4,0.5,0.4c0.2,0,0.5-0.1,0.6-0.3c1.1-1.7,2.4-2.7,3.3-3.2l0,0l0,0
	C201.8,133.4,201.5,134.6,201,135.6"/>
<path class="st3" d="M171.3,68.2c1.3,0,2.5,0.3,3.7,0.8h0.2c0.7,0.1,2,0.3,3.5,0.4c0.1,0,0.2,0,0.4,0c-0.8-0.2-1.3-0.6-1.9-0.9
	c-0.4-0.2-0.7-0.4-1.2-0.6c-1.5-0.7-2.8-0.9-3-0.9s-0.3-0.2-0.3-0.4c0-0.2,0.1-0.4,0.3-0.4l6.7-1l-6.7-1c-0.2,0-0.3-0.1-0.3-0.3
	c0-0.2,0-0.3,0.2-0.4c0,0,1.1-0.7,2.6-1c0.7-0.1,2-0.5,3.3-0.9c0.1,0,0.2-0.1,0.3-0.1c-0.8,0.1-1.4,0-2.1-0.1
	c-0.4,0-0.8-0.1-1.3-0.1c-1.6-0.1-2.9,0.3-3.1,0.3c-0.2,0-0.4,0-0.5-0.2s0-0.4,0.2-0.5l5.8-3.5l-6.6,1.7c-0.2,0-0.3,0-0.4-0.2
	c-0.1-0.1-0.1-0.3,0-0.4c0,0,0.8-1.1,2-2c0.6-0.4,1.6-1.2,2.7-2.1c0.1-0.1,0.2-0.2,0.3-0.2c-0.7,0.4-1.3,0.6-2,0.7
	c-0.4,0.1-0.8,0.2-1.3,0.4c-1.6,0.6-2.7,1.5-2.8,1.5c-0.2,0.1-0.4,0.1-0.5,0s-0.2-0.4,0-0.5l4.1-5.5l-5.5,4.1
	c-0.1,0.1-0.3,0.1-0.4,0c-0.1-0.1-0.2-0.3-0.2-0.4s0.3-1.3,1.1-2.6c0.4-0.6,1.1-1.7,1.7-3c0.1-0.1,0.1-0.2,0.2-0.3
	c-0.5,0.6-1,1-1.6,1.5c-0.3,0.3-0.7,0.5-1,0.9c-1.2,1.1-1.9,2.3-2,2.4c-0.1,0.2-0.3,0.2-0.5,0.2c-0.2-0.1-0.3-0.3-0.2-0.5l1.7-6.6
	l-3.5,5.8c-0.1,0.1-0.2,0.2-0.4,0.2s-0.3-0.2-0.3-0.3c0-0.1-0.2-1.3,0-2.8c0.1-0.7,0.3-2,0.4-3.5c0-0.1,0-0.2,0-0.4
	c-0.2,0.8-0.6,1.3-0.9,1.9c-0.2,0.4-0.4,0.7-0.6,1.2c-0.7,1.5-0.9,2.9-0.9,3c0,0.2-0.2,0.3-0.4,0.3s-0.4-0.1-0.4-0.3l-1-6.7
	l-0.9,6.7c0,0.2-0.1,0.3-0.3,0.3s-0.3,0-0.4-0.2c-0.1-0.1-0.7-1.2-1-2.6c-0.1-0.7-0.5-2-0.9-3.3c0-0.1-0.1-0.2-0.1-0.3
	c0.1,0.8,0,1.4-0.1,2.1c0,0.4-0.1,0.8-0.1,1.3c-0.1,1.6,0.3,3,0.3,3.1c0,0.2,0,0.4-0.2,0.5s-0.4,0-0.5-0.2l-3.5-5.8l1.7,6.6
	c0,0.2,0,0.3-0.2,0.4c-0.1,0.1-0.3,0.1-0.4,0c-0.1-0.1-1.1-0.8-2-2c-0.4-0.6-1.2-1.6-2.2-2.7c-0.1-0.1-0.2-0.2-0.2-0.3
	c0.4,0.7,0.6,1.3,0.7,2c0.1,0.4,0.2,0.8,0.4,1.3c0.6,1.5,1.4,2.6,1.5,2.8c0.1,0.2,0.1,0.4,0,0.5s-0.4,0.2-0.5,0l-5.5-4.1l4.1,5.4
	c0.1,0.1,0.1,0.3,0,0.4s-0.3,0.2-0.4,0.2c-0.1,0-1.3-0.3-2.6-1.1c-0.6-0.4-1.7-1.1-3-1.7c-0.1-0.1-0.2-0.1-0.3-0.2
	c0.6,0.5,1,1,1.4,1.6c0.3,0.3,0.5,0.7,0.9,1c1.1,1.2,2.4,2,2.4,2c0.2,0.1,0.2,0.3,0.2,0.5c-0.1,0.2-0.3,0.3-0.5,0.2l-6.6-1.7
	l5.9,3.5c0.1,0.1,0.2,0.2,0.2,0.4c0,0.2-0.2,0.3-0.3,0.3s-1.3,0.2-2.8,0c-0.7-0.1-2-0.3-3.5-0.4c-0.1,0-0.2,0-0.4,0
	c0.8,0.2,1.3,0.6,1.9,0.9c0.3,0.2,0.7,0.4,1.2,0.6c1.5,0.7,3,0.9,3,0.9c0.2,0,0.3,0.2,0.3,0.4c0,0.2-0.1,0.4-0.3,0.4l-6.7,1l6.7,1
	c0.2,0,0.3,0.1,0.3,0.3c0,0.2,0,0.3-0.2,0.4c0,0-1.1,0.7-2.6,1c-0.7,0.1-2,0.5-3.3,0.9c-0.1,0-0.2,0.1-0.3,0.1
	c0.8-0.1,1.4,0,2.1,0.1c0.1,0,1,0.1,1.3,0.1s0.7,0,1,0l0.1-0.1c1.3-0.9,2.9-1.6,4.8-2.2c0.2-0.1,0.5,0,0.7,0.1s0.3,0.3,0.3,0.5
	c0.3-0.2,0.7-0.4,1.1-0.5c1.4-0.6,3.1-1,5.1-1.2c0.2,0,0.5,0.1,0.6,0.2s0.2,0.3,0.2,0.4c0.5-0.2,1.1-0.4,1.7-0.5
	c1.5-0.3,3.3-0.3,5.2-0.1c0.3,0,0.5,0.2,0.6,0.4c0,0.1,0.1,0.1,0.1,0.2c0.5-0.1,1.1-0.1,1.6-0.1c1.6,0,3.3,0.3,5.1,1
	C171,67.7,171.2,67.9,171.3,68.2L171.3,68.2"/>
<path class="st2" d="M161.4,59.7c6.6-1,7.3,0.8,7.3,0.8s0.2,0.4,0.7,0.3c0,0,0.4,0,0.2-0.6c0,0-0.7-2.1-4.2-2.5c0,0-1.8-0.2-3.8,0.1
	c-0.6,0.1-0.7,1.4-0.7,1.4C160.9,59.8,161.4,59.7,161.4,59.7"/>
<path class="st2" d="M155.9,61c-0.8-0.4-2.6-0.3-2.6-0.3c-3,0.1-3.7,1.9-3.7,1.9c-0.3,0.6,0.3,0.7,0.3,0.7c0.6,0.2,0.8-0.3,0.8-0.3
	s0.2-0.5,1.4-0.8c-0.1,0.2-0.1,0.4-0.1,0.6c0,0.8,0.7,1.5,1.5,1.5s1.5-0.7,1.5-1.5c0-0.2,0-0.4-0.1-0.6c0.4,0.2,0.8,0.5,1.1,1
	c0.1,0.2,0.3,0.3,0.9,0.3c0.6,0,0.5-0.4,0.5-0.4C156.8,61.4,155.9,61,155.9,61"/>
<path class="st2" d="M161.3,63.4c0.6,0,0.8-0.1,0.9-0.3c0.3-0.5,0.7-0.8,1.1-1c-0.1,0.2-0.1,0.4-0.1,0.6c0,0.8,0.7,1.5,1.5,1.5
	s1.5-0.7,1.5-1.5c0-0.2,0-0.4-0.1-0.6c1.2,0.3,1.4,0.8,1.4,0.8s0.2,0.5,0.8,0.3c0,0,0.5-0.1,0.3-0.7c0,0-0.8-1.8-3.7-1.9
	c0,0-1.8-0.1-2.6,0.3c0,0-1,0.5-1.3,2C160.9,63,160.7,63.4,161.3,63.4"/>
<path class="st2" d="M148.6,60.8c0.5,0.1,0.7-0.3,0.7-0.3s0.7-1.9,7.3-0.8c0,0,0.6,0.1,0.5-0.5c0,0-0.2-1.3-0.7-1.4
	c-2-0.3-3.8-0.1-3.8-0.1c-3.5,0.4-4.2,2.5-4.2,2.5C148.2,60.8,148.6,60.8,148.6,60.8"/>
<path class="st4" d="M188,163.4c-1-0.1-2.7-0.1-4.6,0.6c-0.2,0.1-0.5,0-0.6-0.1c-0.2-0.2-0.2-0.4-0.1-0.6c0,0,0.6-1.4,0.7-2.8l0,0
	l0,0c-0.5,0.4-1,0.9-1.5,1.4c-1.4,1.6-2.1,3.3-2,5l0,0c0.2,0,0.5,0.1,0.9,0.1s0.8,0,1.4-0.1C183.5,166.6,185.6,165.8,188,163.4
	C188,163.5,188.1,163.5,188,163.4L188,163.4"/>
<path class="st4" d="M134.8,160.4C134.8,160.3,134.8,160.3,134.8,160.4L134.8,160.4c0.1,1.5,0.6,2.9,0.6,2.9c0.1,0.2,0,0.5-0.1,0.6
	c-0.2,0.2-0.4,0.2-0.6,0.1c-1.9-0.7-3.5-0.7-4.6-0.6l0,0l0,0c2,1.8,3.9,3,5.8,3.3c0.5,0.1,1,0.1,1.4,0.1s0.7,0,0.9-0.1l0,0
	C138.3,163.8,136.1,161.5,134.8,160.4"/>
<path class="st4" d="M192.3,157.7c-1.1,0.1-2.7,0.4-4.4,1.5c-0.2,0.1-0.4,0.1-0.6,0c-0.2-0.1-0.3-0.4-0.2-0.6c0,0,0.3-1.5,0.2-3l0,0
	l0,0c-0.4,0.5-0.8,1-1.2,1.6c-1.1,1.7-1.6,3.5-1.5,5.1l0,0c0.1,0,0.2,0,0.3,0c0.5,0,1.3-0.1,2.2-0.4c1-0.3,1.9-0.8,2.8-1.6
	C190.7,159.7,191.6,158.8,192.3,157.7C192.3,157.8,192.3,157.7,192.3,157.7L192.3,157.7"/>
<path class="st4" d="M195.8,151.8c-1,0.2-2.6,0.7-4.2,1.9c-0.2,0.1-0.4,0.2-0.6,0.1c-0.2-0.1-0.3-0.3-0.3-0.6c0,0,0.1-1.5-0.2-3l0,0
	l0,0c-0.4,0.5-0.7,1.1-1,1.7c-0.9,1.8-1.2,3.6-1,5.3l0,0l0,0c0.4,0,1.3-0.1,2.4-0.6c0.9-0.4,1.8-1,2.7-1.8
	C194.5,154,195.2,153,195.8,151.8C195.9,151.9,195.9,151.8,195.8,151.8C195.9,151.8,195.8,151.8,195.8,151.8"/>
<path class="st4" d="M198.7,145.4c-0.2,0-0.4,0.1-0.6,0.2c-0.8,0.3-2.1,0.9-3.4,2.3c-0.2,0.2-0.4,0.2-0.6,0.1
	c-0.2-0.1-0.4-0.3-0.4-0.5c0,0-0.1-1.5-0.5-3l0,0l0,0c-0.3,0.5-0.6,1.1-0.8,1.7c-0.7,1.9-0.8,3.7-0.3,5.4l0,0l0,0
	c0.4-0.1,1.3-0.3,2.3-0.9c0.9-0.5,1.7-1.2,2.4-2.1C197.5,147.8,198.2,146.7,198.7,145.4L198.7,145.4L198.7,145.4"/>
<path class="st4" d="M200.7,138.9c-1,0.4-2.4,1.2-3.7,2.8c-0.1,0.2-0.4,0.2-0.6,0.2c-0.2-0.1-0.4-0.2-0.4-0.5c0-0.1-0.2-1.6-0.8-3
	l0,0l0,0c-0.3,0.6-0.5,1.3-0.6,1.9c-0.3,1.4-0.6,3.5,0.2,5.5l0,0l0,0c0.3-0.1,1.2-0.4,2.2-1.1c0.8-0.6,1.6-1.4,2.2-2.4
	C199.8,141.3,200.3,140.2,200.7,138.9C200.8,138.9,200.7,138.9,200.7,138.9L200.7,138.9"/>
<path class="st4" d="M202,132.1c-0.9,0.5-2.2,1.5-3.3,3.2c-0.1,0.2-0.3,0.3-0.6,0.3c-0.2,0-0.4-0.2-0.5-0.4c0,0-0.4-1.7-1.2-3l0,0
	l0,0c-0.2,0.6-0.3,1.3-0.4,1.9c-0.2,2.1,0.1,3.9,0.9,5.5l0,0l0,0c0.4-0.2,1.2-0.6,2.1-1.4c0.8-0.7,1.4-1.6,1.9-2.6
	C201.5,134.6,201.8,133.4,202,132.1C202.1,132.1,202.1,132.1,202,132.1C202.1,132.1,202,132.1,202,132.1"/>
<path class="st4" d="M199.7,128.7c-0.1,0.2-0.3,0.3-0.5,0.3s-0.4-0.2-0.5-0.4c0,0-0.5-1.5-1.5-2.7l0,0l0,0c-0.1,0.7-0.2,1.3-0.2,2
	c0,2,0.5,3.8,1.5,5.2l0,0l0,0c0.3-0.2,1.1-0.7,1.9-1.6c0.7-0.8,1.2-1.7,1.6-2.8c0.4-1.1,0.6-2.3,0.7-3.6l0,0l0,0
	C201.8,125.8,200.6,126.9,199.7,128.7"/>
<path class="st4" d="M199.5,122.5c-0.2,0-0.4-0.1-0.5-0.3c0,0-0.7-1.3-1.7-2.4l0,0l0,0c-0.1,1.7,0.1,4.8,2,6.9l0,0l0,0
	c0.3-0.2,1-0.8,1.7-1.8c0.6-0.8,1-1.8,1.3-2.9c0.3-1.1,0.4-2.3,0.4-3.6l0,0l0,0c-0.8,0.7-1.9,1.9-2.6,3.8
	C199.9,122.4,199.7,122.5,199.5,122.5"/>
<path class="st4" d="M199.1,115.8c-0.2,0-0.4-0.1-0.6-0.3c0,0-0.8-1.2-1.9-2.2l0,0l0,0c0.2,1.8,0.7,5.1,2.6,6.7l0,0l0,0
	c0.3-0.2,1-0.9,1.6-1.9c0.5-0.9,0.8-1.9,1-3.1c0.2-1.1,0.2-2.3,0-3.7l0,0l0,0c-0.7,0.8-1.7,2.1-2.2,4
	C199.5,115.6,199.4,115.8,199.1,115.8"/>
<path class="st4" d="M198.3,109.4c-0.2,0-0.5,0-0.6-0.2c0,0-0.9-1.2-2-2.2l0,0l0,0c0.1,0.7,0.2,1.3,0.3,1.9c0.3,1.4,1.1,3.3,2.6,4.6
	l0,0l0,0c0.3-0.2,0.9-0.9,1.5-2c0.5-0.9,0.7-2,0.9-3.1c0.1-1.1,0.1-2.4-0.2-3.6l0,0l0,0c-0.7,0.8-1.6,2.2-2,4.1
	C198.7,109.1,198.5,109.3,198.3,109.4"/>
<path class="st4" d="M196.8,103c-0.2,0.1-0.5,0-0.6-0.2c0,0-1.1-1.1-2.3-1.9l0,0l0,0c0.1,0.6,0.3,1.3,0.6,1.9
	c0.8,1.9,1.9,3.4,3.3,4.3l0,0l0,0c0.2-0.3,0.8-1,1.2-2.2c0.3-1,0.5-2,0.4-3.2c0-1.1-0.3-2.3-0.7-3.6l0,0l0,0
	c-0.6,0.9-1.3,2.3-1.4,4.4C197.2,102.7,197,102.9,196.8,103"/>
<path class="st4" d="M194,96.6c0,0-1.2-1-2.5-1.7l0,0l0,0c0.2,0.6,0.5,1.2,0.8,1.8c0.9,1.8,2.2,3.1,3.7,3.9l0,0l0,0
	c0.2-0.3,0.7-1.1,0.9-2.3c0.2-1,0.3-2.1,0.1-3.2s-0.5-2.3-1-3.5l0,0l0,0c-0.5,0.9-1,2.5-0.9,4.5c0,0.2-0.1,0.4-0.3,0.5
	C194.4,96.8,194.1,96.8,194,96.6"/>
<path class="st4" d="M188.3,89.3C188.3,89.4,188.3,89.4,188.3,89.3c0.3,0.7,0.6,1.2,0.9,1.8c1.1,1.7,2.6,2.9,4.3,3.5l0,0l0,0
	c0.2-0.3,0.5-1.2,0.7-2.4c0.1-1,0-2.1-0.3-3.2s-0.8-2.2-1.4-3.4l0,0l0,0c-0.4,1-0.7,2.6-0.4,4.6c0,0.2-0.1,0.5-0.3,0.6
	s-0.5,0.1-0.6,0C191.1,90.7,189.8,89.7,188.3,89.3L188.3,89.3"/>
<path class="st4" d="M184.6,84.4C184.5,84.4,184.5,84.4,184.6,84.4c0.4,0.6,0.8,1.2,1.3,1.7c1.4,1.5,3,2.4,4.7,2.7l0,0l0,0
	c0.1-0.4,0.3-1.3,0.3-2.4c-0.1-1-0.3-2.1-0.8-3.1s-1.1-2-1.9-3l0,0l0,0c-0.2,1.1-0.3,2.7,0.3,4.5c0.1,0.2,0,0.5-0.2,0.6
	s-0.5,0.1-0.7,0C187.5,85.3,186.2,84.5,184.6,84.4C184.6,84.3,184.6,84.4,184.6,84.4"/>
<path class="st4" d="M183.8,80.3c-0.2,0.2-0.4,0.2-0.6,0.2c0,0-1.3-0.5-2.8-0.5c-0.1,0-0.1,0-0.2,0l0,0l0,0c0.5,0.5,1.1,1,1.6,1.5
	c1.1,0.9,2.9,1.9,4.8,1.9h0.1l0,0c0-0.4,0.1-1.3-0.2-2.5c-0.2-1-0.7-2-1.3-3c-0.6-0.9-1.4-1.8-2.4-2.7l0,0l0,0c0,1,0.1,2.7,1.1,4.4
	C184,79.9,184,80.1,183.8,80.3"/>
<path class="st4" d="M133.4,162.3c0.1,0,0.2,0,0.3,0l0,0c0.2-2.8-1.6-5.4-2.7-6.7l0,0l0,0c-0.2,1.5,0.2,2.9,0.2,2.9
	c0.1,0.2,0,0.5-0.2,0.6s-0.4,0.1-0.6,0c-1.7-1.1-3.3-1.4-4.4-1.5l0,0l0,0c0.8,1.1,1.6,2,2.5,2.7c0.9,0.7,1.9,1.2,2.9,1.6
	C132.2,162.3,132.9,162.3,133.4,162.3"/>
<path class="st4" d="M129.6,157.2L129.6,157.2C129.7,157.2,129.7,157.2,129.6,157.2c0.4-2-0.3-4-0.9-5.3c-0.3-0.6-0.6-1.1-1-1.7l0,0
	l0,0c-0.3,1.5-0.2,2.9-0.2,2.9c0,0.2-0.1,0.5-0.3,0.6c-0.2,0.1-0.4,0.1-0.6-0.1c-1.6-1.3-3.2-1.7-4.2-1.9l0,0l0,0
	c0.7,1.1,1.4,2.1,2.2,2.9c0.8,0.8,1.7,1.4,2.7,1.8C128.3,157.1,129.2,157.2,129.6,157.2"/>
<path class="st4" d="M126.1,151.8L126.1,151.8C126.2,151.8,126.2,151.7,126.1,151.8c0.6-1.7,0.5-3.5-0.3-5.4
	c-0.2-0.6-0.5-1.2-0.8-1.8l0,0l0,0c-0.5,1.4-0.5,3-0.5,3c0,0.2-0.1,0.4-0.4,0.5c-0.2,0.1-0.5,0-0.6-0.1c-1.2-1.2-2.5-1.9-3.4-2.2
	c-0.2-0.1-0.4-0.1-0.6-0.2l0,0l0,0c0.5,1.2,1.2,2.3,1.9,3.1c0.7,0.9,1.5,1.6,2.4,2.1C124.9,151.5,125.8,151.7,126.1,151.8"/>
<path class="st4" d="M123.3,145.8L123.3,145.8L123.3,145.8c1.4-3,0.4-5.8-0.2-7.3l0,0l0,0l0,0c-0.6,1.4-0.9,2.9-0.9,2.9
	c0,0.2-0.2,0.4-0.4,0.5c-0.2,0.1-0.5,0-0.6-0.2c-1.1-1.4-2.3-2.2-3.1-2.6c-0.2-0.1-0.4-0.2-0.5-0.3l0,0l0,0
	C119,144.1,122,145.5,123.3,145.8"/>
<path class="st4" d="M119,138.4c0.9,0.8,1.8,1.2,2.1,1.3l0,0l0,0c1-1.8,1.4-3.7,1-5.6c-0.1-0.6-0.3-1.2-0.6-1.8l0,0l0,0
	c-0.8,1.3-1.1,2.9-1.2,3l0,0l0,0c0,0.2-0.2,0.4-0.4,0.4c-0.2,0-0.4-0.1-0.6-0.2c-1.1-1.7-2.5-2.6-3.4-3.1l0,0l0,0
	c0.3,1.3,0.7,2.4,1.2,3.4C117.6,136.8,118.2,137.7,119,138.4"/>
<path class="st4" d="M119.4,133.4L119.4,133.4L119.4,133.4c2.2-2.9,2-5.7,1.7-7.2l0,0l0,0c-1,1.2-1.6,2.7-1.6,2.7
	c-0.1,0.2-0.3,0.3-0.5,0.4l0,0c-0.2,0-0.4-0.1-0.5-0.3c-0.7-1.6-1.7-2.6-2.4-3.2c-0.2-0.1-0.3-0.3-0.5-0.4l0,0l0,0
	C115.6,130.6,118.3,132.7,119.4,133.4"/>
<path class="st4" d="M118.8,126.9C118.8,126.9,118.9,126.9,118.8,126.9C118.9,126.9,118.9,126.9,118.8,126.9c1.1-1,1.7-2.3,2-3.9
	c0.2-1.3,0.1-2.5,0-3.3l0,0l0,0c-1.2,1.1-1.5,2.5-1.5,2.5c0,0.3-0.3,0.5-0.5,0.5c-0.3,0-0.5-0.1-0.6-0.4c-0.5-1.7-1.4-2.8-2-3.5
	c-0.1-0.1-0.3-0.3-0.4-0.4l0,0l0,0C115.4,123.8,117.8,126.2,118.8,126.9"/>
<path class="st4" d="M117.3,118.1c0.6,1.1,1.3,1.7,1.6,1.9l0,0l0,0c1.2-1.1,2-2.8,2.4-4.8c0.1-0.6,0.2-1.3,0.2-2l0,0l0,0
	c-1.1,1-1.8,2.3-1.8,2.3c-0.1,0.2-0.3,0.3-0.6,0.3c-0.2,0-0.4-0.2-0.5-0.4c-0.5-2-1.5-3.3-2.2-4l0,0l0,0c-0.2,1.3-0.2,2.5,0,3.7
	C116.4,116.2,116.8,117.2,117.3,118.1"/>
<path class="st4" d="M118,111.5c0.5,1,1.1,1.7,1.4,2l0,0l0,0c1.4-1.3,2.4-2.9,2.8-4.8c0.1-0.6,0.2-1.2,0.2-1.8l0,0l0,0
	c-1.2,0.9-2.1,2.2-2.1,2.2c-0.1,0.2-0.4,0.3-0.6,0.2c-0.2,0-0.4-0.2-0.4-0.4c-0.4-2-1.3-3.3-2-4.1l0,0l0,0c-0.2,1.3-0.3,2.5-0.2,3.6
	C117.2,109.5,117.5,110.5,118,111.5"/>
<path class="st4" d="M120.3,107L120.3,107L120.3,107c1.8-1.1,3-2.6,3.6-4.5c0.2-0.6,0.3-1.2,0.4-1.8l0,0l0,0c-1.4,0.8-2.4,2-2.4,2
	c-0.2,0.2-0.4,0.2-0.6,0.2c-0.2-0.1-0.4-0.3-0.4-0.5c-0.2-2-0.9-3.5-1.5-4.3l0,0l0,0c-0.4,1.3-0.6,2.5-0.6,3.6s0.1,2.2,0.5,3.2
	C119.5,106,120.1,106.7,120.3,107"/>
<path class="st4" d="M122,100.6C122,100.7,122,100.7,122,100.6C122,100.7,122,100.7,122,100.6c1.9-0.9,3.3-2.3,4.1-4
	c0.3-0.5,0.5-1.1,0.6-1.7l0,0l0,0c-1.4,0.6-2.6,1.6-2.7,1.7c-0.2,0.1-0.4,0.2-0.6,0.1s-0.3-0.3-0.3-0.5c0.1-2-0.4-3.6-0.9-4.5l0,0
	l0,0l0,0c-0.5,1.2-0.9,2.4-1.1,3.5s-0.1,2.2,0.1,3.2C121.3,99.5,121.7,100.3,122,100.6"/>
<path class="st4" d="M124.3,94.6C124.4,94.6,124.4,94.6,124.3,94.6C124.4,94.6,124.4,94.6,124.3,94.6c1.7-0.5,3.2-1.6,4.4-3.2
	c0.5-0.7,0.9-1.4,1.1-1.9l0,0l0,0c-1.6,0.2-2.8,1.3-2.8,1.4c-0.2,0.2-0.4,0.2-0.7,0.1c-0.2-0.1-0.3-0.4-0.3-0.6
	c0.4-2,0.1-3.6-0.2-4.6l0,0l0,0c-0.7,1.1-1.3,2.2-1.6,3.3c-0.3,1.1-0.5,2.2-0.4,3.2C123.8,93.4,124.2,94.3,124.3,94.6"/>
<path class="st4" d="M127.7,88.8L127.7,88.8c2.8-0.5,4.9-2.9,5.9-4.4l0,0l0,0c-1.6,0.1-2.8,1-2.8,1c-0.2,0.1-0.5,0.1-0.7,0
	s-0.3-0.4-0.2-0.6c0.6-1.9,0.5-3.5,0.3-4.6l0,0l0,0C126.7,84.3,127.2,87.6,127.7,88.8C127.6,88.8,127.7,88.8,127.7,88.8"/>
<path class="st4" d="M131.6,83.4c0.1,0,0.1,0,0.2,0c1.6,0,3.3-1,4.5-1.9c0.6-0.4,1.1-0.9,1.7-1.5l0,0l0,0c-1.5,0-2.8,0.5-2.9,0.5
	c-0.2,0.1-0.5,0-0.6-0.2c-0.2-0.2-0.2-0.4-0.1-0.6c0.9-1.8,1.1-3.4,1.1-4.4l0,0l0,0c-1,0.9-1.8,1.8-2.4,2.8c-0.6,1-1.1,2-1.3,3
	C131.4,82.1,131.5,83,131.6,83.4C131.5,83.4,131.5,83.4,131.6,83.4"/>
<path class="st4" d="M143,76.1c-1.5-0.1-2.9,0.2-2.9,0.2c-0.2,0-0.5,0-0.6-0.2s-0.1-0.4,0-0.6c1.1-1.7,1.4-3.3,1.5-4.3l0,0l0,0
	c-4.4,3.2-4.7,6.5-4.6,7.7l0,0c0.1,0,0.2,0,0.3,0C139.3,78.9,141.8,77.2,143,76.1C143,76.2,143,76.2,143,76.1L143,76.1"/>
<path class="st4" d="M148.6,73.4c-0.5-0.1-1-0.2-1.5-0.3c-0.8-0.1-1.4-0.1-1.5-0.1l0,0c-0.2,0-0.5-0.1-0.5-0.4
	c-0.1-0.2,0-0.5,0.2-0.6c1.5-1.3,2.2-2.5,2.6-3.3l0,0l0,0c-5.1,1.7-6.2,4.7-6.4,5.9l0,0c0.5,0.1,1.2,0.3,2,0.3
	c0.9,0,2.1-0.2,3.4-0.6C147.4,74.1,148,73.8,148.6,73.4C148.6,73.5,148.6,73.5,148.6,73.4C148.6,73.5,148.6,73.4,148.6,73.4"/>
<path class="st4" d="M154.7,71.8c-1.3-0.7-2.8-0.9-2.8-1c-0.2,0-0.4-0.2-0.5-0.5c0-0.2,0.1-0.5,0.3-0.6c1.7-0.8,2.5-1.7,2.9-2.2l0,0
	l0,0c-2.6,0.4-4.7,1.2-6,2.6c-0.7,0.7-1,1.3-1.2,1.7l0,0c1.1,0.5,2.3,0.7,3.4,0.7c0.7,0,1.4-0.1,2-0.2
	C153.4,72.2,154.1,72.1,154.7,71.8C154.7,71.9,154.7,71.8,154.7,71.8L154.7,71.8"/>
<path class="st4" d="M158.7,70.1c-0.2-0.1-0.4-0.3-0.4-0.6c0-0.2,0.2-0.5,0.4-0.5c1.7-0.5,2.7-1.1,3.2-1.6l0,0l0,0
	c-2.6-0.2-4.7,0.3-6.3,1.2c-0.8,0.5-1.3,1.1-1.6,1.5c0,0,0,0,0,0.1c1.7,1.3,4,1.6,5.7,1.6c0.5,0,1,0,1.4-0.1l0,0l0,0
	C160.1,70.6,158.7,70.1,158.7,70.1"/>
<path class="st4" d="M165.4,70.5c-0.2-0.1-0.3-0.4-0.2-0.6s0.3-0.4,0.5-0.4c1.7-0.2,2.8-0.6,3.5-0.9l0,0l0,0c-2.4-0.7-4.6-0.7-6.3,0
	c-0.9,0.3-1.5,0.8-1.8,1.1c0,0,0,0,0,0.1c2.1,2.5,5.1,3,6.7,3.1l0,0l0,0l0,0C166.7,71.4,165.4,70.5,165.4,70.5"/>
<path class="st4" d="M182,78.8L182,78.8c0-0.6,0-1.7-0.5-2.8c-0.8-2-2.3-3.3-4.6-4.1l0,0l0,0c0.3,0.9,0.9,2.3,1.8,3.4
	c0.2,0.2,0.2,0.5,0,0.7c-0.1,0.2-0.4,0.3-0.6,0.2c0,0-1.4-0.3-2.9,0l0,0l0,0c1.4,1,4.2,2.5,6.5,2.5C181.8,78.9,181.9,78.9,182,78.8"
	/>
<path class="st4" d="M176.7,74.7L176.7,74.7c-1.3-1.4-2.9-2-4.8-1.9c-0.7,0-1.4,0.2-2.1,0.4l0,0l0,0c1.5,1.2,3.2,1.8,4.8,1.8
	c0.1,0,0.2,0,0.3,0C175.6,75.1,176.3,74.9,176.7,74.7L176.7,74.7"/>
<path class="st4" d="M167.3,70.6L167.3,70.6c1,0.7,2.2,1.1,3.6,1.1c0.6,0,1.2-0.1,1.9-0.2c1-0.2,1.9-0.5,2.5-0.7l0,0l0,0
	c-0.9-0.5-1.9-0.9-2.8-1c-1-0.2-2-0.1-3,0.1C168.5,70,167.8,70.3,167.3,70.6L167.3,70.6"/>
<path class="st5" d="M148.3,107.8c0.3,0.4,0.8,0.6,1.6,0.6h7.4c-4.4-2.8-6.1-2.3-9.2-0.8C148.2,107.6,148.2,107.7,148.3,107.8"/>
<path class="st5" d="M166.3,104.4c-0.7-0.2-1.3-0.4-1.9-0.6c-2.3-0.9-4.2-2.4-4.3-2.5c-0.5-0.4-0.5-1.1-0.2-1.5
	c0.4-0.5,1.1-0.5,1.5-0.2c0,0,1.7,1.4,3.8,2.2c0.5,0.2,1,0.3,1.7,0.5c0.9,0.2,2,0.5,3,1c-0.2-1.2-0.4-2.3-0.6-3.3
	c-3-0.7-5.4-2.7-5.5-2.8c-0.2-0.2-0.4-0.4-0.4-0.7c0-0.3,0.1-0.6,0.2-0.8c0.4-0.5,1.1-0.5,1.5-0.1c0,0,1.6,1.3,3.6,2
	c-0.8-2.9-1.8-5.7-3.3-8.4c-1-1.9-2.5-3.3-4.4-3.9c-1.4-0.5-2.5-0.4-2.5-0.4h-0.1c0,0-3.6,0.1-5.8,2.7c0,0,0,0-0.1,0.1
	c-0.4,0.4-1.5,1.7-1.7,2.7c-0.1,0.5,0,1,0.4,1.2c0.2,0.1,0.7,0.3,1.7-0.4c0.2-0.2,0.4-0.3,0.5-0.4c0.5-0.3,1.1-0.2,1.5,0.2
	c0.4,0.5,0.3,1.1-0.2,1.5c-0.1,0.1-0.3,0.2-0.4,0.3c-0.4,0.4-1.4,1.2-2.4,2.6c-1.3,1.8-3.1,4.9-4,9.5c0,0.1,0,0.2,0,0.3
	c3.1-1.3,5.6-1.9,11,1.6c2.1,1.4,4.6,1.5,5.1,1.5h2.4c0,0,0,0,0.1,0c0.6,0,2.4-0.1,3.2-0.9c0.1-0.2,0.3-0.3,0.3-0.5
	C170.1,105.6,168.9,105.1,166.3,104.4"/>
<path class="st6" d="M155.7,146.7c0.3-0.2,0.6-0.6,0.6-0.9c0-0.1-0.1-0.3-0.3-0.5s-0.5-0.3-0.8-0.3c-0.5,0-1.2,0.4-2.2,1.1
	c-0.6,0.4-1.6,1.3-1.6,2.1c0,0.3,0.2,0.5,0.3,0.5c0.5,0.3,1.5,0.2,1.9,0.2C154.1,148.1,154.7,147.4,155.7,146.7"/>
<path class="st6" d="M159.4,148c0-0.1,0-0.2-0.3-0.5c0,0-0.5-0.4-1.5,0.3c-0.8,0.5-1.7,1.1-2.1,1.9c0.2,0.2,0.4,0.3,0.6,0.3
	c0.9,0.2,2.1-0.6,2.5-0.9c0,0,0,0,0.1-0.1C158.9,148.9,159.4,148.4,159.4,148"/>
<path class="st6" d="M148,142.8c-0.1,0-0.1,0-0.2,0c-0.8,0-1.9,0.5-2.4,1.2c-0.4,0.5-0.2,0.7-0.2,0.8c0.1,0.1,0.4,0.3,1,0.4
	c0.1,0,0.3,0,0.4,0c0.2-0.9,0.8-1.5,1.4-2.1c0.2-0.2,0.3-0.3,0.4-0.4C148.3,142.8,148.1,142.8,148,142.8L148,142.8"/>
<path class="st6" d="M148.3,146.2c0,0.2,0.1,0.6,1,1c0.1,0,0.3,0.1,0.4,0.1c0.3-0.9,1-1.8,2.2-2.7c0.2-0.1,0.3-0.2,0.5-0.4
	c0-0.1,0-0.1,0-0.2c0-0.2-0.2-0.3-0.5-0.5c-0.2-0.1-0.4-0.1-0.6-0.1c-0.6,0-1.3,0.4-2.1,1.2C148.6,145.3,148.3,145.7,148.3,146.2"/>
<path class="st6" d="M171.6,144.5c0.6,0,1-0.2,1.3-0.4c0.3-0.3,0.4-0.6,0.4-0.9c-0.5-0.7-2.4-2.9-4.9-4.5c-1-0.7-2.2-1.4-3.3-1.8
	c-1.3-0.5-2.4-0.6-3.3-0.3c0,0,0,0-0.1,0c-0.3,0.1-0.7,0.3-1.2,0.6c-0.3,0.2-0.7,0.4-1.1,0.7c-1.1,0.6-2.6,1.1-3.9,1.2
	c-1.1,0.1-2.5,0.1-3.3-1.1c-0.6-0.8-0.7-1.5-0.4-2.3s1.2-1.2,2.3-1.7c0.5-0.2,1-0.5,1.3-0.7c0.5-0.3,0.8-0.6,1.3-0.9
	c0.4-0.3,0.9-0.7,1.6-1.2c0.3-0.2,0.6-0.4,1-0.5c-0.4,0-0.7-0.1-1.2-0.1c-1.8-0.1-3.1,0.5-4.9,1.8c-1.6,1.1-4.8,2.1-9.7,3.1
	c-4.7,0.9-11.1,1.9-19,2.8c0.2,0.9,0.5,1.8,0.8,2.6c1,3.2,2.3,6.2,3.8,9c2.8-1.3,9.8-4.4,15.2-7.3c1.1-1,2.7-1.6,4-1.4
	c0.3,0,1.3,0.1,2.1,0.8c0.9-0.3,1.8-0.2,2.5,0.2c0.9,0.4,1.3,1,1.4,1.5l0,0c1.1-0.3,2.1-0.1,3,0.6c0.5,0.5,0.8,1,0.9,1.6
	c1.1-0.2,1.9,0.2,2.3,0.6c0.8,0.8,0.9,1.6,0.8,2.1c0,0.4-0.2,0.8-0.4,1.1c0.5,0.1,1.1,0,1.5-0.2c0.2-0.1,0.3-0.2,0.5-0.3
	c-0.2-0.5-0.6-1.2-1.3-1.9c-0.2-0.2-0.3-0.4-0.2-0.7c0-0.3,0.1-0.5,0.3-0.7c0.4-0.3,1-0.3,1.3,0.1c1,1.1,1.5,2.1,1.7,2.6
	c0.5,0.1,0.9-0.1,1.3-0.4c0.2-0.2,0.3-0.4,0.4-0.6c-0.1-0.2-0.4-0.7-1-1.4c-0.5-0.6-1.7-1.5-2.2-1.8c-0.2-0.1-0.3-0.4-0.4-0.6
	c0-0.3,0-0.5,0.2-0.7c0.1-0.2,0.4-0.3,0.6-0.4c0.2,0,0.5,0,0.7,0.2c0.1,0,1.7,1.2,2.5,2.1c0.6,0.7,1,1.3,1.3,1.8
	c0.7,0,1.2-0.2,1.6-0.6c0.1-0.1,0.2-0.3,0.3-0.4c-0.7-1-2.6-3.2-4.8-4.3c-0.2-0.1-0.4-0.3-0.5-0.5s-0.1-0.5,0-0.7s0.3-0.4,0.5-0.5
	s0.5-0.1,0.7,0C168.7,140.9,170.8,143.4,171.6,144.5"/>
<path class="st6" d="M159.5,135.6c0.6-0.4,1.2-0.8,1.8-0.9c3.2-0.9,6.4,1.3,8.2,2.4c2.4,1.5,4.2,3.5,5,4.5c0,0,0.1,0.1,0.1,0.2l0,0
	l0,0c0.3,0.3,0.8,0.9,1.7,1.5c4,3,10.1,5.6,12.6,6.7c1.6-2.9,2.9-6,3.9-9.3c0.3-0.8,0.5-1.6,0.7-2.4c-5-0.3-10.4-1.4-14.1-2.3
	c-4.2-1-7.3-2-7.4-2c-0.9-0.3-1.6-0.6-2.3-0.8c-2.3-0.8-3.8-1.4-5.5-1.3c-0.2,0-0.4,0-0.6,0c-0.3,0-0.5,0-0.7,0l0,0
	c-1.6,0-2.6,0.1-3.5,0.7c-0.7,0.5-1.1,0.8-1.5,1.2c-0.4,0.3-0.8,0.7-1.4,1.1c-0.4,0.3-1,0.6-1.5,0.8c-0.4,0.2-1.1,0.6-1.3,0.7
	c0,0.1,0,0.2,0.2,0.5s0.8,0.3,1.7,0.3c0.8,0,2-0.3,3-0.9C158.9,136,159.2,135.8,159.5,135.6"/>
<path class="st1" d="M253,152l-2.5-7.5c-0.1-0.3-0.3-0.4-0.6-0.4h-10.5c-0.3,0-0.5,0.2-0.6,0.4l-2.5,7.5c-0.1,0.3-0.3,0.4-0.6,0.4
	H232c-0.4,0-0.7-0.4-0.6-0.8l9.4-27.9c0.1-0.3,0.3-0.4,0.6-0.4h6.7c0.3,0,0.5,0.2,0.6,0.4l9.4,27.9c0.1,0.4-0.2,0.8-0.6,0.8h-3.9
	C253.3,152.4,253.1,152.3,253,152 M241.2,139.8h6.9c0.4,0,0.7-0.4,0.6-0.8l-3.5-10.6c-0.2-0.6-1-0.6-1.2,0l-3.5,10.6
	C240.5,139.4,240.8,139.8,241.2,139.8"/>
<path class="st1" d="M261.9,130.9h3.1c0.3,0,0.6,0.2,0.6,0.5l0.3,2.3h0.3c0.6-1,1.5-1.8,2.5-2.3s2.2-0.8,3.4-0.8
	c0.4,0,0.8,0,1.2,0.1c0.3,0,0.6,0.3,0.6,0.6v3.4c0,0.4-0.3,0.7-0.7,0.6c-0.4,0-0.8-0.1-1.3-0.1c-1,0-2,0.2-3,0.6
	c-0.9,0.4-1.7,0.9-2.2,1.6c-0.1,0.1-0.1,0.3-0.1,0.4v13.8c0,0.3-0.3,0.6-0.6,0.6h-3.9c-0.3,0-0.6-0.3-0.6-0.6v-20.3
	C261.3,131.2,261.6,130.9,261.9,130.9"/>
<path class="st1" d="M280.1,161.3c-1-0.1-2-0.3-2.9-0.6c-0.3-0.1-0.5-0.3-0.5-0.6v-2.8c0-0.4,0.4-0.7,0.8-0.6c2,0.5,3.9,0.8,5.7,0.8
	c1.5,0,2.7-0.2,3.6-0.6c0.9-0.4,1.6-1,2-1.8s0.7-1.9,0.7-3.3v-1.7h-0.3c-0.7,0.8-1.5,1.4-2.5,1.8c-1,0.4-2.1,0.7-3.3,0.7
	c-1.5,0-2.9-0.4-4.2-1.1c-1.3-0.7-2.2-1.9-3-3.5c-0.7-1.6-1.1-3.5-1.1-5.9c0-3.8,1-6.7,3-8.6c2-1.9,4.9-2.9,8.8-2.9
	c1.3,0,2.6,0.1,4,0.3c1.2,0.2,2.3,0.4,3.2,0.7c0.3,0.1,0.4,0.3,0.4,0.6v18.7c0,2.5-0.4,4.5-1.2,6.1c-0.8,1.6-2,2.7-3.7,3.4
	c-1.6,0.7-3.7,1.1-6.2,1.1C282.5,161.5,281.3,161.4,280.1,161.3 M287.7,148c0.6-0.3,1.2-0.6,1.7-1.1c0.1-0.1,0.2-0.3,0.2-0.4v-11
	c0-0.3-0.2-0.6-0.5-0.6c-0.8-0.2-1.6-0.2-2.4-0.2c-2,0-3.6,0.6-4.6,1.7c-1,1.1-1.5,2.9-1.5,5.4s0.4,4.2,1.3,5.2s2.1,1.5,3.7,1.5
	C286.2,148.4,287,148.2,287.7,148"/>
<path class="st1" d="M316.7,143.2h-12c-0.4,0-0.7,0.3-0.6,0.7c0.1,1.1,0.4,1.9,0.7,2.6c0.5,0.8,1.2,1.4,2.1,1.8
	c1,0.4,2.2,0.6,3.8,0.6c1.4,0,2.9-0.2,4.6-0.6c0.4-0.1,0.8,0.2,0.8,0.6v2.6c0,0.3-0.2,0.6-0.5,0.6c-1.9,0.4-3.8,0.7-5.6,0.7
	c-2.6,0-4.7-0.4-6.3-1.2c-1.6-0.8-2.9-2-3.7-3.6c-0.8-1.6-1.2-3.8-1.2-6.4c0-2.4,0.4-4.4,1.1-6.1c0.7-1.7,1.8-2.9,3.3-3.7
	c1.4-0.8,3.1-1.3,5.1-1.3c2.9,0,5.2,0.9,6.7,2.8c1.5,1.9,2.3,4.7,2.3,8.4v0.8C317.3,143,317,143.2,316.7,143.2 M305.1,135.4
	c-0.6,0.8-1,2.2-1.1,4.1c0,0.4,0.3,0.7,0.6,0.7h7.2c0.4,0,0.6-0.3,0.6-0.7c-0.1-1.9-0.5-3.2-1.1-4.1c-0.7-0.9-1.7-1.4-3.1-1.4
	C306.9,134,305.9,134.4,305.1,135.4"/>
<path class="st1" d="M321.8,130.9h3.1c0.3,0,0.6,0.2,0.6,0.5l0.3,1.7h0.3c0.8-0.8,1.8-1.5,2.9-1.9s2.3-0.7,3.6-0.7
	c2.2,0,4,0.7,5.3,2s1.9,3.4,1.9,6.2v13.1c0,0.3-0.3,0.6-0.6,0.6h-3.9c-0.3,0-0.6-0.3-0.6-0.6V139c0-1.4-0.3-2.5-0.9-3.1
	s-1.5-0.9-2.6-0.9c-0.9,0-1.7,0.2-2.6,0.5c-0.8,0.3-1.4,0.8-2,1.4c-0.1,0.1-0.1,0.3-0.1,0.4v14.3c0,0.3-0.3,0.6-0.6,0.6H322
	c-0.3,0-0.6-0.3-0.6-0.6v-20.3C321.2,131.2,321.4,130.9,321.8,130.9"/>
<path class="st1" d="M357.5,149v2.9c0,0.3-0.2,0.6-0.5,0.6c-1.1,0.2-2.2,0.3-3.2,0.3c-5.1,0-7.7-2.6-7.7-7.7v-9.5
	c0-0.3-0.3-0.6-0.6-0.6H343c-0.3,0-0.6-0.3-0.6-0.6v-2.9c0-0.3,0.3-0.6,0.6-0.6h2.5c0.3,0,0.6-0.2,0.6-0.6l0.8-6.6
	c0-0.3,0.3-0.6,0.6-0.6h3.1c0.3,0,0.6,0.3,0.6,0.6v6.4c0,0.3,0.3,0.6,0.6,0.6h4.8c0.3,0,0.6,0.3,0.6,0.6v2.9c0,0.3-0.3,0.6-0.6,0.6
	h-4.8c-0.3,0-0.6,0.3-0.6,0.6v8.6c0,1.1,0.1,1.9,0.4,2.5s0.7,1.1,1.2,1.3c0.6,0.3,1.3,0.4,2.2,0.4c0.5,0,1,0,1.7-0.2
	C357.2,148.3,357.5,148.6,357.5,149"/>
<path class="st1" d="M361.3,126.5c-0.5-0.5-0.8-1.2-0.8-2.1c0-0.9,0.3-1.6,0.8-2.1s1.4-0.7,2.5-0.7s1.9,0.2,2.5,0.7
	c0.5,0.5,0.8,1.2,0.8,2.1c0,0.9-0.3,1.6-0.8,2.1s-1.4,0.7-2.5,0.7C362.6,127.2,361.8,127,361.3,126.5 M361.1,151.8v-20.3
	c0-0.3,0.3-0.6,0.6-0.6h3.9c0.3,0,0.6,0.3,0.6,0.6v20.3c0,0.3-0.3,0.6-0.6,0.6h-3.9C361.4,152.4,361.1,152.2,361.1,151.8"/>
<path class="st1" d="M371.2,130.9h3.1c0.3,0,0.6,0.2,0.6,0.5l0.3,1.7h0.3c0.8-0.8,1.8-1.5,2.9-1.9s2.3-0.7,3.6-0.7
	c2.2,0,4,0.7,5.3,2s1.9,3.4,1.9,6.2v13.1c0,0.3-0.3,0.6-0.6,0.6h-3.9c-0.3,0-0.6-0.3-0.6-0.6V139c0-1.4-0.3-2.5-0.9-3.1
	s-1.5-0.9-2.6-0.9c-0.9,0-1.7,0.2-2.6,0.5c-0.8,0.3-1.4,0.8-2,1.4c-0.1,0.1-0.1,0.3-0.1,0.4v14.3c0,0.3-0.3,0.6-0.6,0.6h-3.9
	c-0.3,0-0.6-0.3-0.6-0.6v-20.3C370.6,131.2,370.8,130.9,371.2,130.9"/>
<path class="st1" d="M406.5,131.4c1.4,0.5,2.4,1.4,3,2.7c0.7,1.3,1,2.9,1,5.1v12.6c0,0.3-0.3,0.6-0.6,0.6h-3.1
	c-0.3,0-0.6-0.2-0.6-0.5l-0.3-1.7h-0.3c-0.6,0.9-1.5,1.5-2.5,1.9s-2.1,0.7-3.4,0.7c-1.4,0-2.6-0.2-3.6-0.7s-1.8-1.2-2.4-2.1
	c-0.5-0.9-0.8-2-0.8-3.2c0-2,0.7-3.5,2.1-4.6s3.5-1.8,6.5-2l4-0.4V139c0-1.1-0.2-1.9-0.5-2.6c-0.4-0.6-0.9-1.1-1.6-1.3
	c-0.7-0.3-1.7-0.4-3-0.4c-0.9,0-1.8,0.1-2.9,0.2c-0.7,0.1-1.5,0.3-2.2,0.4c-0.4,0.1-0.8-0.2-0.8-0.6V132c0-0.3,0.2-0.5,0.5-0.6
	c0.9-0.2,1.8-0.4,2.8-0.6c1.2-0.2,2.3-0.2,3.4-0.2C403.4,130.6,405.2,130.9,406.5,131.4 M403.6,148.7c0.6-0.3,1.2-0.7,1.7-1.2
	c0.1-0.1,0.2-0.3,0.2-0.5v-3.6c0-0.4-0.3-0.7-0.7-0.6l-2.8,0.3c-1.4,0.1-2.3,0.5-3,1c-0.6,0.5-0.9,1.2-0.9,2.2
	c0,0.9,0.3,1.7,0.8,2.2c0.6,0.5,1.4,0.8,2.5,0.8C402.1,149.2,402.9,149,403.6,148.7"/>
<polygon class="st1" points="250.9,85.3 255.6,85.3 255.6,106.7 252,106.7 252,90.6 246.1,103.7 242.8,103.7 237,90.9 237,106.7 
	233.4,106.7 233.4,85.3 238,85.3 244.5,99.8 "/>
<path class="st1" d="M259.7,87.7c-0.4-0.4-0.6-0.9-0.6-1.5c0-0.7,0.2-1.2,0.6-1.5c0.4-0.4,1-0.5,1.8-0.5s1.4,0.2,1.8,0.5
	c0.4,0.4,0.6,0.9,0.6,1.5c0,0.7-0.2,1.2-0.6,1.5c-0.4,0.4-1,0.5-1.8,0.5C260.7,88.3,260.1,88.1,259.7,87.7 M259.6,91h3.8v15.8h-3.8
	V91z"/>
<path class="st1" d="M267.2,91h3.1l0.3,1.7h0.2c0.6-0.6,1.3-1.1,2.1-1.4c0.8-0.3,1.7-0.5,2.6-0.5c1.6,0,2.9,0.5,3.9,1.4
	c0.9,1,1.4,2.5,1.4,4.5v10H277v-9.8c0-1.1-0.2-1.8-0.7-2.2c-0.4-0.4-1.1-0.7-1.9-0.7c-0.6,0-1.3,0.1-1.9,0.4s-1.1,0.7-1.5,1.2v11.1
	h-3.8V91z"/>
<path class="st1" d="M284.5,87.7c-0.4-0.4-0.6-0.9-0.6-1.5c0-0.7,0.2-1.2,0.6-1.5c0.4-0.4,1-0.5,1.8-0.5s1.4,0.2,1.8,0.5
	c0.4,0.4,0.6,0.9,0.6,1.5c0,0.7-0.2,1.2-0.6,1.5c-0.4,0.4-1,0.5-1.8,0.5C285.5,88.3,284.9,88.1,284.5,87.7 M284.4,91h3.8v15.8h-3.8
	V91z"/>
<path class="st1" d="M291.5,106.4v-2.8c1.5,0.5,3.1,0.7,4.8,0.7c1.1,0,1.9-0.2,2.5-0.5c0.5-0.3,0.8-0.8,0.8-1.5
	c0-0.5-0.1-0.9-0.4-1.2c-0.3-0.3-0.7-0.5-1.4-0.6l-2.4-0.4c-1.5-0.3-2.5-0.8-3.2-1.5s-1-1.7-1-2.9c0-1,0.3-1.8,0.8-2.6
	c0.5-0.7,1.3-1.3,2.4-1.7c1.1-0.4,2.4-0.6,3.9-0.6s2.8,0.2,4,0.5v2.8c-1.2-0.3-2.6-0.5-3.9-0.5c-2.4,0-3.6,0.7-3.6,2
	c0,0.5,0.1,0.8,0.4,1.1c0.3,0.3,0.7,0.5,1.4,0.6l2.4,0.4c1.4,0.3,2.5,0.8,3.2,1.5s1,1.7,1,3c0,1-0.3,1.9-0.8,2.6s-1.3,1.3-2.3,1.7
	c-1,0.4-2.2,0.6-3.7,0.6C294.5,107,292.9,106.8,291.5,106.4"/>
<path class="st1" d="M315,103.7v3c-0.9,0.2-1.8,0.3-2.7,0.3c-3.7,0-5.6-1.9-5.6-5.7V94H304v-3h2.7l0.7-5.6h3.1V91h4.4v3h-4.4v6.8
	c0,0.8,0.1,1.4,0.3,1.8c0.2,0.5,0.5,0.8,0.9,1s0.9,0.3,1.6,0.3C313.7,103.9,314.3,103.8,315,103.7"/>
<path class="st1" d="M329.9,100h-9.8c0,1,0.2,1.8,0.6,2.4c0.3,0.6,0.9,1,1.6,1.3s1.6,0.4,2.8,0.4c1.2,0,2.5-0.2,4-0.5v2.9
	c-1.5,0.4-3,0.6-4.5,0.6c-1.9,0-3.4-0.3-4.6-0.9s-2.1-1.5-2.7-2.7s-0.9-2.8-0.9-4.7c0-1.8,0.3-3.3,0.8-4.5s1.3-2.1,2.4-2.7
	c1-0.6,2.3-0.9,3.8-0.9c2.1,0,3.8,0.7,4.9,2.1s1.7,3.4,1.7,6.2L329.9,100L329.9,100z M321,94.2c-0.5,0.7-0.8,1.9-0.8,3.5h6.2
	c0-1.6-0.3-2.8-0.8-3.5s-1.3-1-2.3-1C322.3,93.2,321.5,93.5,321,94.2"/>
<path class="st1" d="M332.7,91h3.1l0.3,2.1h0.2c0.5-0.7,1.1-1.3,1.8-1.7c0.8-0.4,1.6-0.6,2.5-0.6c0.4,0,0.8,0,1.3,0.1v3.4
	c-0.4-0.1-0.9-0.1-1.5-0.1c-0.8,0-1.5,0.2-2.2,0.5s-1.3,0.7-1.7,1.3v10.7h-3.8L332.7,91L332.7,91z"/>
<path class="st1" d="M344.3,87.7c-0.4-0.4-0.6-0.9-0.6-1.5c0-0.7,0.2-1.2,0.6-1.5c0.4-0.4,1-0.5,1.8-0.5s1.4,0.2,1.8,0.5
	c0.4,0.4,0.6,0.9,0.6,1.5c0,0.7-0.2,1.2-0.6,1.5c-0.4,0.4-1,0.5-1.8,0.5C345.3,88.3,344.7,88.1,344.3,87.7 M344.1,91h3.8v15.8h-3.8
	V91z"/>
<path class="st1" d="M352.9,105c-1.3-1.4-1.9-3.4-1.9-6.1s0.6-4.8,1.9-6.1c1.3-1.4,3.1-2,5.4-2s4.2,0.7,5.4,2
	c1.3,1.4,1.9,3.4,1.9,6.1c0,1.8-0.3,3.3-0.9,4.5s-1.4,2.1-2.5,2.7s-2.4,0.9-3.9,0.9C356,107,354.2,106.3,352.9,105 M360.9,102.9
	c0.6-0.8,0.9-2.1,0.9-4s-0.3-3.3-0.9-4.1c-0.6-0.8-1.5-1.2-2.6-1.2s-2,0.4-2.6,1.2c-0.6,0.8-0.9,2.1-0.9,4c0,1.3,0.1,2.3,0.4,3.1
	c0.3,0.8,0.7,1.3,1.2,1.7c0.5,0.3,1.2,0.5,1.9,0.5C359.5,104.1,360.3,103.7,360.9,102.9"/>
<path class="st1" d="M378.2,106.2c-1-0.5-1.7-1.4-2.3-2.6c-0.6-1.2-0.8-2.7-0.8-4.5c0-2.8,0.7-4.9,2.1-6.3s3.5-2.2,6.2-2.2
	c0.6,0,1.3,0.1,2.1,0.2v-7.5h3.8v23.4h-3.2l-0.2-1.7h-0.2c-0.5,0.6-1.1,1.1-1.8,1.4c-0.7,0.3-1.5,0.5-2.4,0.5
	C380.3,107,379.2,106.7,378.2,106.2 M384.2,103.5c0.5-0.2,1-0.6,1.3-1v-8.6c-0.6-0.1-1.4-0.2-2.1-0.2c-1.5,0-2.7,0.4-3.4,1.2
	c-0.7,0.8-1.1,2.2-1.1,4s0.3,3.1,0.9,3.9s1.5,1.1,2.7,1.1C383.1,103.9,383.7,103.8,384.2,103.5"/>
<path class="st1" d="M405.9,100h-9.8c0,1,0.2,1.8,0.6,2.4c0.3,0.6,0.9,1,1.6,1.3s1.6,0.4,2.8,0.4c1.2,0,2.5-0.2,4-0.5v2.9
	c-1.5,0.4-3,0.6-4.5,0.6c-1.9,0-3.4-0.3-4.6-0.9s-2.1-1.5-2.7-2.7s-0.9-2.8-0.9-4.7c0-1.8,0.3-3.3,0.8-4.5s1.3-2.1,2.4-2.7
	c1-0.6,2.3-0.9,3.8-0.9c2.2,0,3.8,0.7,4.9,2.1s1.7,3.4,1.7,6.2L405.9,100L405.9,100z M397,94.2c-0.5,0.7-0.8,1.9-0.8,3.5h6.2
	c0-1.6-0.3-2.8-0.8-3.5s-1.3-1-2.3-1C398.3,93.2,397.5,93.5,397,94.2"/>
<path class="st1" d="M416.2,106.6V85.8c1-0.2,2-0.4,3.1-0.5s2.2-0.2,3.2-0.2c3.8,0,6.6,0.9,8.5,2.7c1.9,1.8,2.9,4.5,2.9,8.2
	c0,2.5-0.4,4.6-1.3,6.2s-2.2,2.8-4,3.5c-1.8,0.8-4.1,1.1-6.8,1.1C419.9,106.9,418,106.8,416.2,106.6 M426.8,103
	c1.1-0.5,1.9-1.4,2.4-2.5s0.8-2.6,0.8-4.5c0-1.8-0.3-3.3-0.8-4.4s-1.3-2-2.4-2.5s-2.4-0.8-4-0.8c-0.8,0-1.7,0.1-2.7,0.2v15.1
	c0.7,0.1,1.6,0.1,2.7,0.1C424.4,103.8,425.7,103.5,426.8,103"/>
<path class="st1" d="M449.9,100h-9.8c0,1,0.2,1.8,0.6,2.4c0.3,0.6,0.9,1,1.6,1.3s1.6,0.4,2.8,0.4c1.2,0,2.5-0.2,4-0.5v2.9
	c-1.5,0.4-3,0.6-4.5,0.6c-1.9,0-3.4-0.3-4.6-0.9s-2.1-1.5-2.7-2.7s-0.9-2.8-0.9-4.7c0-1.8,0.3-3.3,0.8-4.5s1.3-2.1,2.4-2.7
	c1-0.6,2.3-0.9,3.8-0.9c2.2,0,3.8,0.7,4.9,2.1s1.7,3.4,1.7,6.2L449.9,100L449.9,100z M441,94.2c-0.5,0.7-0.8,1.9-0.8,3.5h6.2
	c0-1.6-0.3-2.8-0.8-3.5s-1.3-1-2.3-1C442.3,93.2,441.5,93.5,441,94.2"/>
<path class="st1" d="M458.3,86.9c-0.5,0.5-0.8,1.3-0.8,2.3V91h4.4v3h-4.4v12.8h-3.8V94H451v-3h2.7v-1.6c0-2,0.6-3.6,1.7-4.6
	c1.1-1.1,2.8-1.6,4.9-1.6c0.8,0,1.5,0.1,2.2,0.2v3c-0.7-0.1-1.2-0.1-1.7-0.1C459.7,86.1,458.9,86.4,458.3,86.9"/>
<path class="st1" d="M476.4,100h-9.8c0,1,0.2,1.8,0.6,2.4c0.3,0.6,0.9,1,1.6,1.3s1.6,0.4,2.8,0.4c1.2,0,2.5-0.2,4-0.5v2.9
	c-1.5,0.4-3,0.6-4.5,0.6c-1.9,0-3.4-0.3-4.6-0.9s-2.1-1.5-2.7-2.7s-0.9-2.8-0.9-4.7c0-1.8,0.3-3.3,0.8-4.5s1.3-2.1,2.4-2.7
	c1-0.6,2.3-0.9,3.8-0.9c2.1,0,3.8,0.7,4.9,2.1s1.7,3.4,1.7,6.2L476.4,100L476.4,100z M467.5,94.2c-0.5,0.7-0.8,1.9-0.8,3.5h6.2
	c0-1.6-0.3-2.8-0.8-3.5s-1.3-1-2.3-1C468.8,93.2,468,93.5,467.5,94.2"/>
<path class="st1" d="M479.2,91h3.1l0.3,1.7h0.2c0.6-0.6,1.3-1.1,2.1-1.4c0.8-0.3,1.7-0.5,2.6-0.5c1.6,0,2.9,0.5,3.9,1.4
	c0.9,1,1.4,2.5,1.4,4.5v10H489v-9.8c0-1.1-0.2-1.8-0.7-2.2c-0.4-0.4-1.1-0.7-1.9-0.7c-0.6,0-1.3,0.1-1.9,0.4s-1.1,0.7-1.5,1.2v11.1
	h-3.8L479.2,91L479.2,91z"/>
<path class="st1" d="M496,106.4v-2.8c1.5,0.5,3.1,0.7,4.8,0.7c1.1,0,1.9-0.2,2.5-0.5c0.5-0.3,0.8-0.8,0.8-1.5c0-0.5-0.1-0.9-0.4-1.2
	c-0.3-0.3-0.7-0.5-1.4-0.6l-2.4-0.4c-1.5-0.3-2.5-0.8-3.2-1.5s-1-1.7-1-2.9c0-1,0.3-1.8,0.8-2.6c0.5-0.7,1.3-1.3,2.4-1.7
	c1-0.4,2.3-0.6,3.9-0.6c1.5,0,2.8,0.2,4,0.5v2.8c-1.2-0.3-2.6-0.5-3.9-0.5c-2.4,0-3.6,0.7-3.6,2c0,0.5,0.1,0.8,0.4,1.1
	c0.3,0.3,0.7,0.5,1.4,0.6l2.4,0.4c1.4,0.3,2.5,0.8,3.2,1.5s1,1.7,1,3c0,1-0.3,1.9-0.8,2.6s-1.3,1.3-2.3,1.7c-1,0.4-2.2,0.6-3.7,0.6
	C499,107,497.4,106.8,496,106.4"/>
<path class="st1" d="M519.4,91.3c1,0.4,1.7,1.1,2.2,2s0.7,2.2,0.7,3.7v9.7h-3.1l-0.3-1.6h-0.2c-0.5,0.6-1.1,1.1-1.8,1.4
	s-1.6,0.5-2.5,0.5c-1,0-1.9-0.2-2.7-0.5c-0.8-0.4-1.3-0.9-1.7-1.6c-0.4-0.7-0.6-1.5-0.6-2.4c0-1.5,0.5-2.6,1.5-3.4s2.6-1.3,4.8-1.5
	l3-0.3v-0.6c0-0.8-0.1-1.4-0.4-1.9c-0.3-0.5-0.7-0.8-1.2-1s-1.3-0.3-2.2-0.3c-0.6,0-1.3,0.1-2.1,0.2s-1.5,0.3-2.2,0.5v-2.9
	c0.7-0.2,1.5-0.4,2.4-0.5s1.7-0.2,2.5-0.2C517.1,90.7,518.4,90.9,519.4,91.3 M517.2,104c0.5-0.2,1-0.5,1.4-1v-3.4l-2.6,0.2
	c-1,0.1-1.7,0.3-2.2,0.7c-0.5,0.4-0.7,0.9-0.7,1.6s0.2,1.2,0.6,1.6c0.4,0.4,1,0.5,1.8,0.5C516.1,104.3,516.7,104.2,517.2,104"/>
</svg>
