<?xml version="1.0" encoding="utf-8"?>
<!-- Generator: Adobe Illustrator 25.2.0, SVG Export Plug-In . SVG Version: 6.00 Build 0)  -->
<svg version="1.1"
	 id="svg51" sodipodi:docname="geoservicios.svg" xmlns:cc="http://creativecommons.org/ns#" xmlns:dc="http://purl.org/dc/elements/1.1/" xmlns:inkscape="http://www.inkscape.org/namespaces/inkscape" xmlns:rdf="http://www.w3.org/1999/02/22-rdf-syntax-ns#" xmlns:sodipodi="http://sodipodi.sourceforge.net/DTD/sodipodi-0.dtd" xmlns:svg="http://www.w3.org/2000/svg"
	 xmlns="http://www.w3.org/2000/svg" xmlns:xlink="http://www.w3.org/1999/xlink" x="0px" y="0px" viewBox="0 0 500 500"
	 style="enable-background:new 0 0 500 500;" xml:space="preserve">
<style type="text/css">
	.st0{fill:#074775;stroke:#FFDF38;stroke-width:0.2457;}
	.st1{fill:#FFFFFF;}
</style>
<sodipodi:namedview  bordercolor="#666666" borderopacity="1" gridtolerance="10" guidetolerance="10" id="namedview53" inkscape:current-layer="svg51" inkscape:cx="329.63352" inkscape:cy="233.04749" inkscape:pageopacity="0" inkscape:pageshadow="2" inkscape:window-height="705" inkscape:window-maximized="1" inkscape:window-width="1366" inkscape:window-x="-8" inkscape:window-y="-8" inkscape:zoom="1.076" objecttolerance="10" pagecolor="#ffffff" showgrid="false">
	</sodipodi:namedview>
<ellipse id="path862" class="st0" cx="245.7" cy="246.2" rx="184.7" ry="182.8"/>
<g>
	<g id="g1083">
		<polygon id="polygon1081" class="st1" points="196.5,207.7 268.3,207.7 295,197.2 223.2,197.2 		"/>
	</g>
	<g id="g1087">
		<polygon id="polygon1085" class="st1" points="196.5,226.7 268.3,226.7 295,216.1 223.2,216.1 		"/>
	</g>
	<g id="g1091">
		<polygon id="polygon1089" class="st1" points="196.5,246.2 268.3,246.2 295,235.7 223.2,235.7 		"/>
	</g>
	<g id="g1095">
		<polygon id="polygon1093" class="st1" points="196.5,265.2 268.3,265.2 295,254.6 223.2,254.6 		"/>
	</g>
	<path class="st1" d="M245.8,144L245.8,144c-49.1-0.7-89.5,38.5-90.2,87.6c0,0.4,0,0.8,0,1.2c0,27.1,11.4,48,30.9,67.3
		c25.8,25.4,50.4,48.6,50.4,48.6c2.7,2.6,6.4,3.9,10.1,3.6v-3.6l0,0v3.7c3.2-0.7,6.2-2,8.8-3.9c0,0,23.8-23.8,49.4-49
		c19.6-19.3,30.8-39.3,30.8-66.6c-0.2-49.2-40.3-88.9-89.5-88.6C246.3,144,246.1,144,245.8,144z M245.8,308.9
		c-42.9,0-77.7-34.7-77.7-77.6s34.7-77.7,77.6-77.7s77.7,34.7,77.7,77.6c0,0,0,0.1,0,0.1C323.4,274.1,288.6,308.9,245.8,308.9
		L245.8,308.9z"/>
</g>
</svg>
