<?xml version="1.0" encoding="utf-8"?>
<!-- Generator: Adobe Illustrator 25.2.0, SVG Export Plug-In . SVG Version: 6.00 Build 0)  -->
<svg version="1.1"
	 id="svg51" sodipodi:docname="iconos_descarga.svg" xmlns:cc="http://creativecommons.org/ns#" xmlns:dc="http://purl.org/dc/elements/1.1/" xmlns:inkscape="http://www.inkscape.org/namespaces/inkscape" xmlns:rdf="http://www.w3.org/1999/02/22-rdf-syntax-ns#" xmlns:sodipodi="http://sodipodi.sourceforge.net/DTD/sodipodi-0.dtd" xmlns:svg="http://www.w3.org/2000/svg"
	 xmlns="http://www.w3.org/2000/svg" xmlns:xlink="http://www.w3.org/1999/xlink" x="0px" y="0px" viewBox="0 0 500 500"
	 style="enable-background:new 0 0 500 500;" xml:space="preserve">
<style type="text/css">
	.st0{fill:#074775;stroke:#FFDF38;stroke-width:0.2457;}
	.st1{fill:#FFFFFF;stroke:#FFFFFF;}
</style>
<ellipse id="path862" class="st0" cx="250" cy="250.4" rx="184.7" ry="182.8"/>
<sodipodi:namedview  bordercolor="#666666" borderopacity="1" gridtolerance="10" guidetolerance="10" id="namedview53" inkscape:current-layer="svg51" inkscape:cx="329.63352" inkscape:cy="239.21204" inkscape:pageopacity="0" inkscape:pageshadow="2" inkscape:window-height="705" inkscape:window-maximized="1" inkscape:window-width="1366" inkscape:window-x="-8" inkscape:window-y="-8" inkscape:zoom="1.076" objecttolerance="10" pagecolor="#ffffff" showgrid="false">
	</sodipodi:namedview>
<g id="g893" transform="matrix(6.89054,0,0,6.8161401,73.54436,82.33521)">
	<path id="path889" inkscape:connector-curvature="0" class="st1" d="M29.2,33.1l-2.7,2.7V25.1c0-0.5-0.4-0.8-0.8-0.8
		s-0.8,0.4-0.8,0.8v10.6l-2.7-2.7c-0.2-0.2-0.4-0.2-0.5-0.2c-0.2,0-0.5,0.1-0.6,0.2c-0.2,0.2-0.2,0.4-0.2,0.5c0,0.2,0.2,0.3,0.2,0.3
		l4.1,4.3c0.2,0.2,0.4,0.2,0.6,0.2s0.4-0.1,0.6-0.2l4-4c0.3-0.3,0.3-0.8,0-1.1C30,32.8,29.5,32.8,29.2,33.1z"/>
	<path id="path891" inkscape:connector-curvature="0" class="st1" d="M40.8,19.9c-1.2-1.2-2.9-2-4.6-2c-0.1-3-2.5-5.4-5.5-5.4
		c-1.5,0-2.9,0.6-4,1.7c-2.7-3.6-7.8-4.3-11.4-1.7c-2.4,1.7-3.7,4.6-3.4,7.6c-2,1-3.3,3-3.3,5.2c0.1,3.3,2.7,5.9,5.9,6h7.8
		c0.5,0,0.8-0.4,0.8-0.8c0-0.5-0.4-0.8-0.8-0.8h-7.8c-2.4,0-4.3-1.9-4.3-4.3c0-1.7,1.1-3.3,2.8-4c0.4-0.2,0.6-0.5,0.5-0.9
		c-0.7-3.6,1.6-7.2,5.2-7.8c2.9-0.6,5.9,0.8,7.2,3.4c0.2,0.2,0.4,0.4,0.7,0.4c0.3,0,0.5-0.2,0.7-0.4c1.1-1.8,3.6-2.4,5.4-1.2
		c1.1,0.7,1.8,1.9,1.8,3.3c0,0.2,0,0.4-0.1,0.6c0,0.2,0,0.5,0.2,0.7c0.2,0.2,0.4,0.3,0.6,0.3h0.8c2.7,0,4.9,2.2,4.9,4.9
		c-0.1,2.8-2.4,5-5.2,5h-7.1c-0.5,0-0.8,0.4-0.8,0.8s0.4,0.8,0.8,0.8H36c3.7,0,6.7-3,6.8-6.7C42.8,22.8,42.1,21.1,40.8,19.9
		L40.8,19.9z"/>
</g>
</svg>
