<?xml version="1.0" encoding="utf-8"?>
<!-- Generator: Adobe Illustrator 25.2.0, SVG Export Plug-In . SVG Version: 6.00 Build 0)  -->
<svg version="1.1" id="Capa_1" xmlns="http://www.w3.org/2000/svg" xmlns:xlink="http://www.w3.org/1999/xlink" x="0px" y="0px"
	 viewBox="0 0 276 200" style="enable-background:new 0 0 276 200;" xml:space="preserve">
<style type="text/css">
	.st0{fill:#FFFFFF;}
</style>
<g>
	<path class="st0" d="M111.1,181.5c-45.4,13.4-85.4,5.9-98.4-19.8c-6.3-12.4-5-27.6,2.5-43.2c-10.2,17.4-13,34.3-6.2,47.8
		C21.7,191.5,64,196.4,111.1,181.5"/>
	<path class="st0" d="M75.1,43l0-0.5H51.9L47,68.4C54.8,59.6,64.2,51,75.1,43z"/>
	<path class="st0" d="M197.5,118.4l-3,14h21.4l7.6-38.8C216.3,102.2,207.6,110.5,197.5,118.4z"/>
	<g>
		<g>
			<path class="st0" d="M115.6,82.5l-2.9,15.5h14.1l-3.4,17.5c-2.3,0.6-4.6,1.1-6.8,1.4c-2.2,0.3-4.5,0.5-6.7,0.5
				c-6.9,0-12.3-2-16-6c-3.8-4-5.7-9.6-5.7-16.7c0-10.8,3.3-19.7,9.8-26.6c6.5-6.9,14.9-10.3,25.3-10.3c4.7,0,9.4,0.7,14.1,2.1
				c4.7,1.4,9.5,3.5,14.4,6.4l3.5-18.6c-5.3-2.2-10.7-3.9-16.1-5c-5.5-1.1-10.9-1.7-16.3-1.7c-9.7,0-18.3,1.6-25.8,4.8
				c-7.5,3.2-14.1,8-19.6,14.4c-3.2,3.8-5.9,7.8-8,12.1l5.2-26.8c-10.9,8-20.4,16.5-28.1,25.3l-12,61.7h23.2l6.2-31.6
				c0.6,9.8,4.2,17.7,10.9,23.6c7.3,6.5,17.3,9.7,30.1,9.7c7.2,0,13.9-0.7,20.2-2.1c6.3-1.4,12.4-3.5,18.2-6.4l8.4-43.2L115.6,82.5
				L115.6,82.5z M211.4,42.5l-6.2,39.7l-18.9-39.7h-25.1l-17.5,89.9h22l12-59.8l20.6,41.4l-0.5,2.3c10.1-7.9,18.9-16.3,26-24.7
				l9.6-49.1L211.4,42.5L211.4,42.5z"/>
		</g>
	</g>
	<path class="st0" d="M105.6,26.9c58.1-29.5,115.8-25.5,132,6.3c6.3,12.4,5,27.6-2.5,43.2c10.2-17.4,13-34.3,6.2-47.8
		C225.6-2.4,164.8-3.1,105.6,26.9L105.6,26.9z"/>
	<g>
		<path class="st0" d="M36.9,141.9h1.4l-2,11.2h-1.4L36.9,141.9z"/>
		<path class="st0" d="M45.6,148.1l-0.9,5.1h-1.3l0.9-5c0-0.2,0.1-0.4,0.1-0.6c0-0.2,0-0.3,0-0.4c0-0.4-0.1-0.8-0.4-1
			c-0.2-0.2-0.6-0.4-1-0.4c-0.7,0-1.3,0.2-1.7,0.7c-0.5,0.5-0.8,1.2-1,2l-0.8,4.7h-1.2l1.5-8.4H41l-0.3,1.3c0.4-0.5,0.8-0.9,1.3-1.1
			c0.5-0.3,1-0.4,1.5-0.4c0.7,0,1.2,0.2,1.6,0.6c0.4,0.4,0.6,1,0.6,1.7c0,0.2,0,0.4,0,0.6C45.6,147.6,45.6,147.9,45.6,148.1z"/>
		<path class="st0" d="M52.8,145l-0.2,1.3c-0.3-0.2-0.7-0.4-1-0.5c-0.4-0.1-0.7-0.2-1.1-0.2c-0.7,0-1.2,0.1-1.5,0.4
			c-0.4,0.2-0.6,0.6-0.6,1c0,0.5,0.4,0.9,1.3,1.1c0.1,0,0.1,0,0.1,0l0.4,0.1c0.8,0.3,1.4,0.5,1.7,0.8c0.3,0.3,0.4,0.7,0.4,1.2
			c0,0.9-0.3,1.6-1,2.2c-0.6,0.6-1.5,0.8-2.5,0.8c-0.4,0-0.8,0-1.3-0.1c-0.4-0.1-0.9-0.2-1.5-0.4l0.2-1.4c0.5,0.3,0.9,0.5,1.3,0.6
			c0.4,0.1,0.9,0.2,1.3,0.2c0.6,0,1.1-0.1,1.5-0.4c0.4-0.3,0.6-0.7,0.6-1.1c0-0.5-0.5-0.9-1.5-1.2l-0.1,0l-0.4-0.1
			c-0.6-0.2-1.1-0.4-1.4-0.7c-0.3-0.3-0.4-0.7-0.4-1.2c0-0.9,0.3-1.6,0.9-2.1c0.6-0.5,1.4-0.8,2.5-0.8c0.4,0,0.8,0,1.2,0.1
			C52,144.7,52.4,144.9,52.8,145z"/>
		<path class="st0" d="M58.2,144.8l-0.2,1.1h-2.5l-0.8,4.6c0,0.2-0.1,0.3-0.1,0.4c0,0.1,0,0.2,0,0.3c0,0.3,0.1,0.6,0.3,0.7
			c0.2,0.1,0.5,0.2,0.8,0.2H57l-0.2,1.2h-1.2c-0.7,0-1.3-0.2-1.7-0.5c-0.4-0.3-0.5-0.8-0.5-1.5c0-0.1,0-0.2,0-0.4
			c0-0.1,0-0.3,0.1-0.5l0.8-4.6h-1.1l0.2-1.1h1l0.4-2.4h1.2l-0.4,2.4H58.2z"/>
		<path class="st0" d="M59,144.8h1.3l-1.5,8.4h-1.2L59,144.8z M59.5,141.5h1.2l-0.3,1.8h-1.3L59.5,141.5z"/>
		<path class="st0" d="M65.9,144.8l-0.2,1.1h-2.5l-0.8,4.6c0,0.2-0.1,0.3-0.1,0.4c0,0.1,0,0.2,0,0.3c0,0.3,0.1,0.6,0.3,0.7
			c0.2,0.1,0.5,0.2,0.8,0.2h1.3l-0.2,1.2h-1.2c-0.7,0-1.3-0.2-1.7-0.5c-0.4-0.3-0.5-0.8-0.5-1.5c0-0.1,0-0.2,0-0.4
			c0-0.1,0-0.3,0.1-0.5l0.8-4.6H61l0.2-1.1h1l0.4-2.4h1.2l-0.4,2.4H65.9z"/>
		<path class="st0" d="M65.7,149.8l0.9-5.1h1.3l-0.9,5c0,0.2-0.1,0.5-0.1,0.6c0,0.2,0,0.3,0,0.4c0,0.4,0.1,0.8,0.3,1
			c0.2,0.2,0.6,0.4,1,0.4c0.7,0,1.2-0.3,1.7-0.8c0.5-0.5,0.8-1.2,1-2l0.8-4.7h1.2l-1.5,8.4h-1.3l0.3-1.3c-0.4,0.5-0.8,0.9-1.3,1.1
			c-0.5,0.3-1,0.4-1.6,0.4c-0.7,0-1.2-0.2-1.6-0.6c-0.4-0.4-0.6-1-0.6-1.7c0-0.2,0-0.3,0-0.6C65.6,150.3,65.6,150.1,65.7,149.8z"/>
		<path class="st0" d="M78.6,144.8l-0.2,1.1H76l-0.8,4.6c0,0.2-0.1,0.3-0.1,0.4c0,0.1,0,0.2,0,0.3c0,0.3,0.1,0.6,0.3,0.7
			c0.2,0.1,0.5,0.2,0.8,0.2h1.3l-0.2,1.2H76c-0.7,0-1.3-0.2-1.7-0.5c-0.4-0.3-0.5-0.8-0.5-1.5c0-0.1,0-0.2,0-0.4
			c0-0.1,0-0.3,0.1-0.5l0.8-4.6h-1.1l0.2-1.1h1l0.4-2.4h1.2l-0.4,2.4H78.6z"/>
		<path class="st0" d="M81,153.4c-0.9,0-1.6-0.3-2.1-0.9c-0.5-0.6-0.8-1.4-0.8-2.5c0-0.6,0.1-1.2,0.3-1.9c0.2-0.6,0.4-1.2,0.7-1.6
			c0.5-0.7,1-1.2,1.5-1.5c0.6-0.3,1.2-0.5,1.9-0.5c0.9,0,1.6,0.3,2.1,0.9c0.5,0.6,0.8,1.4,0.8,2.3c0,0.7-0.1,1.3-0.3,2
			c-0.2,0.7-0.4,1.2-0.7,1.6c-0.4,0.7-0.9,1.2-1.5,1.5C82.3,153.2,81.7,153.4,81,153.4z M79.4,150c0,0.8,0.1,1.3,0.4,1.7
			s0.7,0.6,1.3,0.6c0.8,0,1.5-0.4,2.1-1.2c0.5-0.8,0.8-1.8,0.8-3.1c0-0.7-0.1-1.3-0.4-1.6c-0.3-0.4-0.7-0.6-1.3-0.6
			c-0.5,0-0.9,0.1-1.3,0.4c-0.4,0.2-0.7,0.6-1,1.1c-0.2,0.4-0.4,0.8-0.5,1.3C79.4,149,79.4,149.4,79.4,150z"/>
		<path class="st0" d="M96.4,151.5l0.5-2.9h-2.2l0.2-1.2h3.6l-0.9,4.9c-0.6,0.4-1.3,0.6-2,0.8c-0.7,0.2-1.4,0.3-2.1,0.3
			c-1.3,0-2.3-0.4-3-1.2c-0.7-0.8-1.1-1.9-1.1-3.3c0-1.2,0.2-2.3,0.7-3.3c0.4-1,1-1.9,1.8-2.6c0.5-0.4,1-0.8,1.6-1
			c0.6-0.2,1.2-0.3,1.9-0.3c0.6,0,1.2,0.1,1.8,0.3c0.6,0.2,1.1,0.4,1.7,0.8l-0.3,1.6c-0.4-0.5-0.9-0.8-1.4-1.1
			c-0.5-0.2-1.1-0.4-1.7-0.4c-0.7,0-1.4,0.2-1.9,0.5c-0.5,0.3-1,0.8-1.5,1.4c-0.4,0.5-0.7,1.2-0.9,1.9c-0.2,0.7-0.3,1.5-0.3,2.2
			c0,1,0.2,1.8,0.7,2.4c0.5,0.5,1.2,0.8,2.2,0.8c0.5,0,0.9-0.1,1.4-0.2C95.6,151.9,96,151.7,96.4,151.5z"/>
		<path class="st0" d="M106.5,149.3h-5.8c0,0.2,0,0.3-0.1,0.5c0,0.1,0,0.2,0,0.3c0,0.7,0.2,1.2,0.6,1.6c0.4,0.4,0.9,0.6,1.6,0.6
			c0.5,0,1.1-0.1,1.5-0.2c0.5-0.1,0.9-0.3,1.4-0.6l-0.2,1.4c-0.4,0.2-0.9,0.4-1.4,0.5c-0.5,0.1-1,0.2-1.5,0.2
			c-1.1,0-1.9-0.3-2.4-0.8c-0.6-0.6-0.8-1.4-0.8-2.4c0-0.9,0.1-1.7,0.4-2.5c0.3-0.8,0.7-1.4,1.2-2c0.4-0.4,0.8-0.7,1.3-0.9
			s1-0.3,1.6-0.3c0.9,0,1.5,0.3,2,0.9c0.5,0.6,0.8,1.3,0.8,2.3c0,0.2,0,0.5,0,0.7C106.6,148.7,106.6,149,106.5,149.3z M105.4,148.2
			c0-0.1,0-0.2,0-0.2c0-0.1,0-0.2,0-0.3c0-0.6-0.2-1.1-0.5-1.5c-0.3-0.4-0.8-0.5-1.3-0.5c-0.6,0-1.2,0.2-1.6,0.7
			c-0.5,0.4-0.8,1.1-1.1,1.8L105.4,148.2z"/>
		<path class="st0" d="M110.1,153.4c-0.9,0-1.6-0.3-2.1-0.9c-0.5-0.6-0.8-1.4-0.8-2.5c0-0.6,0.1-1.2,0.3-1.9
			c0.2-0.6,0.4-1.2,0.7-1.6c0.5-0.7,1-1.2,1.5-1.5c0.5-0.3,1.2-0.5,1.9-0.5c0.9,0,1.6,0.3,2.1,0.9c0.5,0.6,0.8,1.4,0.8,2.3
			c0,0.7-0.1,1.3-0.3,2c-0.2,0.7-0.4,1.2-0.7,1.6c-0.4,0.7-0.9,1.2-1.5,1.5C111.4,153.2,110.8,153.4,110.1,153.4z M108.5,150
			c0,0.8,0.1,1.3,0.4,1.7c0.3,0.4,0.7,0.6,1.3,0.6c0.8,0,1.5-0.4,2.1-1.2c0.6-0.8,0.8-1.8,0.8-3.1c0-0.7-0.1-1.3-0.4-1.6
			c-0.3-0.4-0.7-0.6-1.3-0.6c-0.5,0-0.9,0.1-1.3,0.4c-0.4,0.2-0.7,0.6-1,1.1c-0.2,0.4-0.4,0.8-0.5,1.3
			C108.5,149,108.5,149.4,108.5,150z"/>
		<path class="st0" d="M122.5,144.8l-1.3,7.4c-0.2,1.4-0.7,2.5-1.4,3.2c-0.7,0.7-1.6,1.1-2.8,1.1c-0.4,0-0.8,0-1.2-0.1
			c-0.4-0.1-0.7-0.2-1.1-0.3l0.2-1.3c0.3,0.2,0.6,0.4,1,0.5s0.7,0.2,1.1,0.2c0.8,0,1.4-0.2,2-0.7c0.5-0.5,0.8-1.2,1-2.1l0.1-0.6
			c-0.3,0.4-0.8,0.8-1.2,1c-0.5,0.2-1,0.3-1.5,0.3c-0.8,0-1.4-0.3-1.8-0.8c-0.4-0.6-0.7-1.3-0.7-2.3c0-0.8,0.1-1.5,0.4-2.3
			c0.3-0.7,0.6-1.4,1.1-2c0.3-0.4,0.7-0.7,1.1-0.9c0.4-0.2,0.9-0.3,1.3-0.3c0.5,0,1,0.1,1.3,0.4c0.4,0.3,0.7,0.6,0.8,1.1l0.2-1.3
			L122.5,144.8L122.5,144.8z M120.7,147.9c0-0.7-0.1-1.2-0.4-1.6c-0.3-0.4-0.7-0.6-1.2-0.6c-0.3,0-0.6,0.1-0.9,0.2
			c-0.3,0.1-0.6,0.3-0.8,0.6c-0.3,0.4-0.6,0.9-0.8,1.5c-0.2,0.6-0.3,1.2-0.3,1.8c0,0.7,0.1,1.2,0.4,1.6c0.3,0.4,0.7,0.6,1.3,0.6
			c0.8,0,1.4-0.4,2-1.2C120.4,150,120.7,149,120.7,147.9z"/>
		<path class="st0" d="M128.5,146c-0.1-0.1-0.3-0.1-0.4-0.2c-0.2,0-0.3-0.1-0.5-0.1c-0.7,0-1.2,0.3-1.7,0.8c-0.5,0.6-0.8,1.3-1,2.2
			l-0.8,4.3h-1.2l1.5-8.4h1.3l-0.2,1.3c0.3-0.5,0.7-0.9,1.2-1.1c0.5-0.3,0.9-0.4,1.5-0.4c0.1,0,0.3,0,0.4,0c0.1,0,0.3,0,0.4,0.1
			L128.5,146z"/>
		<path class="st0" d="M134.7,148.4l-0.8,4.8h-1.3l0.2-1.3c-0.4,0.5-0.8,0.9-1.2,1.1c-0.5,0.3-1,0.4-1.6,0.4c-0.6,0-1.2-0.2-1.6-0.7
			c-0.4-0.4-0.6-1-0.6-1.7c0-1,0.4-1.8,1.1-2.3c0.7-0.6,1.7-0.9,2.9-0.9h1.7l0.1-0.4c0,0,0-0.1,0-0.1c0,0,0-0.1,0-0.2
			c0-0.4-0.2-0.8-0.5-1c-0.3-0.2-0.8-0.4-1.4-0.4c-0.4,0-0.8,0.1-1.2,0.2c-0.4,0.1-0.9,0.3-1.3,0.5l0.2-1.3c0.5-0.2,0.9-0.3,1.4-0.4
			c0.4-0.1,0.9-0.1,1.3-0.1c0.9,0,1.6,0.2,2,0.6c0.5,0.4,0.7,1.1,0.7,1.9c0,0.2,0,0.4,0,0.6S134.7,148.1,134.7,148.4z M133.3,148.9
			h-1.2c-1,0-1.8,0.2-2.3,0.5c-0.5,0.3-0.7,0.8-0.7,1.4c0,0.4,0.1,0.8,0.4,1c0.3,0.3,0.6,0.4,1,0.4c0.7,0,1.3-0.3,1.8-0.8
			c0.5-0.5,0.8-1.3,1-2.2L133.3,148.9z M133.8,140.9h1.3l-2.7,2.8h-1L133.8,140.9z"/>
		<path class="st0" d="M141.6,141.5l-0.2,1.2h-1.2c-0.5,0-0.8,0.1-1,0.3c-0.2,0.2-0.4,0.6-0.5,1.1l-0.1,0.7h2.1l-0.2,1.1h-2
			l-1.3,7.4h-1.3l1.3-7.4H136l0.2-1.1h1.2l0.1-0.6c0.2-1,0.5-1.7,0.9-2.1c0.4-0.4,1.1-0.6,2-0.6L141.6,141.5L141.6,141.5z"/>
		<path class="st0" d="M141,144.8h1.3l-1.5,8.4h-1.2L141,144.8z M141.6,141.5h1.2l-0.3,1.8h-1.2L141.6,141.5z"/>
		<path class="st0" d="M149.6,145.1l-0.2,1.4c-0.3-0.2-0.6-0.4-1-0.5c-0.3-0.1-0.7-0.2-1.1-0.2c-0.4,0-0.8,0.1-1.1,0.2
			c-0.4,0.2-0.7,0.4-0.9,0.7c-0.4,0.4-0.7,0.9-0.9,1.5c-0.2,0.6-0.3,1.2-0.3,1.8c0,0.8,0.2,1.3,0.5,1.7c0.3,0.4,0.9,0.6,1.6,0.6
			c0.3,0,0.7-0.1,1.1-0.2c0.4-0.1,0.8-0.3,1.2-0.5l-0.2,1.4c-0.4,0.2-0.7,0.3-1.1,0.4c-0.4,0.1-0.8,0.1-1.2,0.1
			c-1,0-1.8-0.3-2.3-0.8c-0.5-0.6-0.8-1.4-0.8-2.4c0-0.9,0.1-1.7,0.4-2.4c0.3-0.7,0.7-1.4,1.3-2c0.4-0.4,0.8-0.7,1.3-0.9
			c0.5-0.2,1.1-0.3,1.7-0.3c0.4,0,0.7,0,1.1,0.1C148.9,144.8,149.2,144.9,149.6,145.1z"/>
		<path class="st0" d="M152.5,153.4c-0.9,0-1.6-0.3-2.1-0.9c-0.5-0.6-0.8-1.4-0.8-2.5c0-0.6,0.1-1.2,0.3-1.9
			c0.2-0.6,0.4-1.2,0.7-1.6c0.5-0.7,1-1.2,1.5-1.5c0.5-0.3,1.2-0.5,1.9-0.5c0.9,0,1.6,0.3,2.1,0.9c0.5,0.6,0.8,1.4,0.8,2.3
			c0,0.7-0.1,1.3-0.3,2c-0.2,0.7-0.4,1.2-0.7,1.6c-0.4,0.7-0.9,1.2-1.5,1.5C153.9,153.2,153.2,153.4,152.5,153.4z M150.9,150
			c0,0.8,0.1,1.3,0.4,1.7c0.3,0.4,0.7,0.6,1.3,0.6c0.8,0,1.5-0.4,2.1-1.2c0.6-0.8,0.8-1.8,0.8-3.1c0-0.7-0.1-1.3-0.4-1.6
			c-0.3-0.4-0.7-0.6-1.3-0.6c-0.5,0-0.9,0.1-1.3,0.4c-0.4,0.2-0.7,0.6-1,1.1c-0.2,0.4-0.4,0.8-0.5,1.3
			C151,149,150.9,149.4,150.9,150z"/>
		<path class="st0" d="M162.7,141.9h1.8l2.8,9.6l1.7-9.6h1.3l-2,11.2h-1.8l-2.8-9.7l-1.7,9.7h-1.3L162.7,141.9z"/>
		<path class="st0" d="M177.4,148.4l-0.8,4.8h-1.3l0.2-1.3c-0.4,0.5-0.8,0.9-1.2,1.1c-0.5,0.3-1,0.4-1.6,0.4c-0.6,0-1.2-0.2-1.6-0.7
			c-0.4-0.4-0.6-1-0.6-1.7c0-1,0.4-1.8,1.1-2.3c0.7-0.6,1.7-0.9,2.9-0.9h1.7l0.1-0.4c0,0,0-0.1,0-0.1c0,0,0-0.1,0-0.2
			c0-0.4-0.2-0.8-0.5-1c-0.3-0.2-0.8-0.4-1.4-0.4c-0.4,0-0.8,0.1-1.2,0.2c-0.4,0.1-0.9,0.3-1.3,0.5l0.2-1.3c0.5-0.2,0.9-0.3,1.4-0.4
			c0.4-0.1,0.9-0.1,1.3-0.1c0.9,0,1.6,0.2,2,0.6c0.5,0.4,0.7,1.1,0.7,1.9c0,0.2,0,0.4,0,0.6S177.5,148.1,177.4,148.4z M176.1,148.9
			h-1.3c-1,0-1.8,0.2-2.3,0.5c-0.5,0.3-0.7,0.8-0.7,1.4c0,0.4,0.1,0.8,0.4,1c0.3,0.3,0.6,0.4,1,0.4c0.7,0,1.3-0.3,1.8-0.8
			c0.5-0.5,0.8-1.3,1-2.2L176.1,148.9z"/>
		<path class="st0" d="M185.2,145.1l-0.3,1.4c-0.3-0.2-0.6-0.4-1-0.5c-0.3-0.1-0.7-0.2-1.1-0.2c-0.4,0-0.8,0.1-1.1,0.2
			c-0.4,0.2-0.7,0.4-0.9,0.7c-0.4,0.4-0.7,0.9-0.9,1.5c-0.2,0.6-0.3,1.2-0.3,1.8c0,0.8,0.2,1.3,0.5,1.7c0.3,0.4,0.9,0.6,1.6,0.6
			c0.3,0,0.7-0.1,1.1-0.2c0.4-0.1,0.8-0.3,1.2-0.5l-0.2,1.4c-0.4,0.2-0.7,0.3-1.1,0.4c-0.4,0.1-0.8,0.1-1.2,0.1
			c-1,0-1.8-0.3-2.3-0.8c-0.5-0.6-0.8-1.4-0.8-2.4c0-0.9,0.1-1.7,0.4-2.4c0.3-0.7,0.7-1.4,1.3-2c0.4-0.4,0.8-0.7,1.3-0.9
			c0.5-0.2,1.1-0.3,1.7-0.3c0.4,0,0.7,0,1.1,0.1C184.4,144.8,184.8,144.9,185.2,145.1z"/>
		<path class="st0" d="M186.5,144.8h1.3l-1.5,8.4h-1.2L186.5,144.8z M187.1,141.5h1.2l-0.3,1.8h-1.2L187.1,141.5z"/>
		<path class="st0" d="M191.2,153.4c-0.9,0-1.6-0.3-2.1-0.9c-0.5-0.6-0.8-1.4-0.8-2.5c0-0.6,0.1-1.2,0.3-1.9
			c0.2-0.6,0.4-1.2,0.7-1.6c0.5-0.7,1-1.2,1.5-1.5c0.6-0.3,1.2-0.5,1.9-0.5c0.9,0,1.6,0.3,2.1,0.9c0.5,0.6,0.8,1.4,0.8,2.3
			c0,0.7-0.1,1.3-0.3,2c-0.2,0.7-0.4,1.2-0.7,1.6c-0.4,0.7-0.9,1.2-1.5,1.5C192.5,153.2,191.9,153.4,191.2,153.4z M189.6,150
			c0,0.8,0.1,1.3,0.4,1.7s0.7,0.6,1.3,0.6c0.8,0,1.5-0.4,2.1-1.2c0.6-0.8,0.8-1.8,0.8-3.1c0-0.7-0.1-1.3-0.4-1.6
			c-0.3-0.4-0.7-0.6-1.3-0.6c-0.5,0-0.9,0.1-1.3,0.4c-0.4,0.2-0.7,0.6-1,1.1c-0.2,0.4-0.4,0.8-0.5,1.3
			C189.6,149,189.6,149.4,189.6,150z"/>
		<path class="st0" d="M203.1,148.1l-0.9,5.1H201l0.9-5c0-0.2,0.1-0.4,0.1-0.6c0-0.2,0-0.3,0-0.4c0-0.4-0.1-0.8-0.4-1
			c-0.2-0.2-0.6-0.4-1-0.4c-0.7,0-1.2,0.2-1.7,0.7c-0.5,0.5-0.8,1.2-0.9,2l-0.8,4.7h-1.2l1.5-8.4h1.2l-0.3,1.3
			c0.4-0.5,0.8-0.9,1.3-1.1s1-0.4,1.5-0.4c0.7,0,1.2,0.2,1.6,0.6c0.4,0.4,0.6,1,0.6,1.7c0,0.2,0,0.4,0,0.6
			C203.2,147.6,203.1,147.9,203.1,148.1z"/>
		<path class="st0" d="M210.9,148.4l-0.8,4.8h-1.3l0.2-1.3c-0.4,0.5-0.8,0.9-1.2,1.1c-0.5,0.3-1,0.4-1.6,0.4c-0.6,0-1.2-0.2-1.6-0.7
			c-0.4-0.4-0.6-1-0.6-1.7c0-1,0.4-1.8,1.1-2.3c0.7-0.6,1.7-0.9,2.9-0.9h1.7l0.1-0.4c0,0,0-0.1,0-0.1c0,0,0-0.1,0-0.2
			c0-0.4-0.2-0.8-0.5-1c-0.3-0.2-0.8-0.4-1.4-0.4c-0.4,0-0.8,0.1-1.2,0.2c-0.4,0.1-0.9,0.3-1.3,0.5l0.2-1.3c0.5-0.2,0.9-0.3,1.4-0.4
			c0.4-0.1,0.9-0.1,1.3-0.1c0.9,0,1.6,0.2,2,0.6c0.5,0.4,0.7,1.1,0.7,1.9c0,0.2,0,0.4,0,0.6S210.9,148.1,210.9,148.4z M209.5,148.9
			h-1.3c-1,0-1.8,0.2-2.3,0.5c-0.5,0.3-0.7,0.8-0.7,1.4c0,0.4,0.1,0.8,0.4,1c0.3,0.3,0.6,0.4,1,0.4c0.7,0,1.3-0.3,1.8-0.8
			c0.5-0.5,0.8-1.3,1-2.2L209.5,148.9z"/>
		<path class="st0" d="M213.7,141.5h1.2l-2.1,11.7h-1.2L213.7,141.5z"/>
		<path class="st0" d="M66.4,164.5l-0.7,3.4h-2.3l1.7-8.9h3.4c1,0,1.7,0.2,2.2,0.6c0.5,0.4,0.8,0.9,0.8,1.6c0,0.7-0.2,1.3-0.6,1.8
			c-0.4,0.5-0.9,0.7-1.6,0.8c0.3,0.1,0.6,0.2,0.8,0.5c0.2,0.3,0.4,0.6,0.5,1.2l0.8,2.5h-2.3l-0.7-2.2c-0.1-0.4-0.3-0.7-0.5-0.9
			c-0.2-0.2-0.5-0.2-0.8-0.2L66.4,164.5L66.4,164.5z M67.7,162.9c0.5,0,0.9-0.1,1.2-0.4c0.3-0.2,0.4-0.6,0.4-1.1
			c0-0.3-0.1-0.5-0.3-0.6c-0.2-0.1-0.5-0.2-0.9-0.2h-1l-0.5,2.3L67.7,162.9L67.7,162.9z"/>
		<path class="st0" d="M74.1,159h6.2l-0.3,1.7H76l-0.3,1.7h3.7l-0.3,1.7h-3.7l-0.4,2h4l-0.3,1.7h-6.3L74.1,159z"/>
		<path class="st0" d="M81.9,159h3.8c0.9,0,1.7,0.2,2.2,0.6c0.5,0.4,0.8,1,0.8,1.8c0,0.5-0.1,0.9-0.3,1.3c-0.2,0.4-0.4,0.8-0.8,1.1
			c-0.4,0.3-0.8,0.6-1.3,0.7c-0.5,0.2-1.1,0.2-1.8,0.2H83l-0.6,3.1h-2.3L81.9,159z M83.9,160.6l-0.5,2.5h1.3c0.5,0,1-0.1,1.2-0.4
			c0.3-0.3,0.4-0.6,0.4-1.1c0-0.3-0.1-0.6-0.3-0.7c-0.2-0.2-0.5-0.3-0.9-0.3H83.9z"/>
		<path class="st0" d="M90.3,159h2.3l-1,5.3c0,0.2-0.1,0.4-0.1,0.5s0,0.3,0,0.4c0,0.4,0.1,0.7,0.3,0.9c0.2,0.2,0.5,0.3,0.9,0.3
			c0.6,0,1-0.2,1.3-0.5c0.3-0.3,0.5-0.8,0.7-1.6l1-5.4H98l-1,5.4c-0.3,1.3-0.8,2.3-1.5,2.9c-0.7,0.6-1.8,0.9-3.1,0.9
			c-1.1,0-1.9-0.2-2.4-0.7c-0.6-0.5-0.8-1.1-0.8-2c0-0.1,0-0.3,0-0.5c0-0.2,0.1-0.4,0.1-0.6L90.3,159z M94.8,156.5h1.7l-1.9,1.6
			h-1.2L94.8,156.5z"/>
		<path class="st0" d="M104.7,163.1c0.4,0.1,0.7,0.3,0.9,0.6c0.2,0.3,0.3,0.7,0.3,1.1c0,1-0.4,1.7-1.1,2.3c-0.7,0.5-1.7,0.8-3,0.8
			H98l1.7-8.9h3.4c1.1,0,1.8,0.2,2.4,0.5c0.5,0.3,0.8,0.8,0.8,1.4c0,0.5-0.1,1-0.5,1.4C105.6,162.7,105.2,163,104.7,163.1z
			 M102,166.3c0.5,0,0.9-0.1,1.2-0.4c0.3-0.3,0.4-0.6,0.4-1.1c0-0.3-0.1-0.5-0.3-0.7c-0.2-0.1-0.5-0.2-0.9-0.2h-1.4l-0.5,2.3H102z
			 M102.7,162.4c0.4,0,0.7-0.1,1-0.3c0.2-0.2,0.3-0.5,0.3-0.9c0-0.2-0.1-0.4-0.2-0.5c-0.2-0.1-0.4-0.2-0.7-0.2h-1.3l-0.4,1.9
			L102.7,162.4L102.7,162.4z"/>
		<path class="st0" d="M108.6,159h2.3l-1.4,7.2h4l-0.3,1.7h-6.3L108.6,159z"/>
		<path class="st0" d="M115.8,159h2.3l-1.7,8.9h-2.3L115.8,159z"/>
		<path class="st0" d="M125.3,167.5c-0.6,0.2-1.1,0.3-1.6,0.4c-0.5,0.1-1,0.1-1.4,0.1c-1.2,0-2.2-0.3-2.9-1
			c-0.7-0.7-1.1-1.5-1.1-2.6c0-0.7,0.1-1.4,0.3-2c0.2-0.6,0.6-1.2,1-1.7c0.5-0.6,1.2-1.1,1.9-1.4c0.7-0.3,1.5-0.5,2.4-0.5
			c0.5,0,0.9,0.1,1.4,0.2c0.5,0.1,0.9,0.3,1.4,0.5l-0.4,1.8c-0.4-0.3-0.8-0.5-1.2-0.6c-0.4-0.1-0.8-0.2-1.2-0.2
			c-0.9,0-1.7,0.4-2.3,1.1c-0.6,0.7-0.9,1.6-0.9,2.7c0,0.7,0.2,1.2,0.6,1.6c0.4,0.4,0.9,0.6,1.6,0.6c0.4,0,0.8-0.1,1.3-0.2
			c0.5-0.1,1-0.4,1.5-0.7L125.3,167.5z"/>
		<path class="st0" d="M132.3,166.3h-3.6l-0.9,1.6h-2.4l5-8.9h2.6l1.6,8.9h-2.2L132.3,166.3z M129.6,164.6h2.4l-0.5-3.4L129.6,164.6
			z"/>
		<path class="st0" d="M145,166.3h-3.6l-0.9,1.6h-2.4l5-8.9h2.6l1.6,8.9h-2.2L145,166.3z M142.3,164.6h2.4l-0.5-3.4L142.3,164.6z"/>
		<path class="st0" d="M151.2,164.5l-0.7,3.4h-2.3l1.7-8.9h3.4c1,0,1.7,0.2,2.2,0.6c0.5,0.4,0.8,0.9,0.8,1.6c0,0.7-0.2,1.3-0.6,1.8
			c-0.4,0.5-0.9,0.7-1.6,0.8c0.3,0.1,0.6,0.2,0.8,0.5c0.2,0.3,0.4,0.6,0.5,1.2l0.8,2.5h-2.3l-0.7-2.2c-0.1-0.4-0.3-0.7-0.5-0.9
			c-0.2-0.2-0.5-0.2-0.8-0.2L151.2,164.5L151.2,164.5z M152.5,162.9c0.5,0,0.9-0.1,1.2-0.4c0.3-0.2,0.4-0.6,0.4-1.1
			c0-0.3-0.1-0.5-0.3-0.6c-0.2-0.1-0.5-0.2-0.9-0.2h-1l-0.5,2.3L152.5,162.9L152.5,162.9z"/>
		<path class="st0" d="M165.2,167.2c-0.6,0.3-1.2,0.5-1.8,0.6c-0.6,0.1-1.3,0.2-2,0.2c-1.3,0-2.3-0.3-3-1c-0.7-0.6-1.1-1.5-1.1-2.6
			c0-0.7,0.1-1.4,0.3-2c0.2-0.6,0.6-1.2,1-1.7c0.6-0.6,1.2-1.1,1.9-1.4c0.7-0.3,1.6-0.5,2.6-0.5c0.5,0,1.1,0.1,1.6,0.2
			c0.5,0.1,1.1,0.3,1.6,0.5l-0.4,1.8c-0.5-0.3-1-0.5-1.4-0.6c-0.5-0.1-0.9-0.2-1.4-0.2c-1,0-1.9,0.3-2.5,1c-0.6,0.7-1,1.6-1,2.6
			c0,0.7,0.2,1.3,0.6,1.7c0.4,0.4,0.9,0.6,1.6,0.6c0.2,0,0.4,0,0.7,0c0.2,0,0.4-0.1,0.7-0.1l0.3-1.7h-1.4l0.3-1.5h3.6L165.2,167.2z"
			/>
		<path class="st0" d="M168.4,159h6.2l-0.3,1.7h-3.9l-0.3,1.7h3.7l-0.3,1.7h-3.7l-0.4,2h4l-0.3,1.7h-6.3L168.4,159z"/>
		<path class="st0" d="M176.2,159h2.6l2,6.2l1.2-6.2h2.2l-1.7,8.9h-2.6l-2-6.2l-1.2,6.2h-2.2L176.2,159z"/>
		<path class="st0" d="M184.9,159h8.2l-0.3,1.7h-3l-1.4,7.2h-2.3l1.4-7.2h-3L184.9,159z"/>
		<path class="st0" d="M193.8,159h2.3l-1.7,8.9H192L193.8,159z"/>
		<path class="st0" d="M197.8,159h2.6l2,6.2l1.2-6.2h2.2l-1.7,8.9h-2.6l-2-6.2l-1.2,6.2H196L197.8,159z"/>
		<path class="st0" d="M211.5,166.3H208l-0.9,1.6h-2.4l5-8.9h2.6l1.6,8.9h-2.2L211.5,166.3z M208.8,164.6h2.4l-0.5-3.4L208.8,164.6z
			"/>
	</g>
</g>
</svg>
