<?xml version="1.0" encoding="utf-8"?>
<!-- Generator: Adobe Illustrator 25.2.0, SVG Export Plug-In . SVG Version: 6.00 Build 0)  -->
<svg version="1.1" id="Capa_1" xmlns="http://www.w3.org/2000/svg" xmlns:xlink="http://www.w3.org/1999/xlink" x="0px" y="0px"
	 viewBox="0 0 276 200" style="enable-background:new 0 0 276 200;" xml:space="preserve">
<style type="text/css">
	.st0{fill:#FFFFFF;}
</style>
<g>
	<path class="st0" d="M123.6,170.8c-38.4,11.3-72.3,5-83.3-16.8c-5.3-10.5-4.2-23.4,2.1-36.6c-8.6,14.7-11,29-5.3,40.5
		C47.9,179.3,83.7,183.4,123.6,170.8"/>
	<path class="st0" d="M93.1,53.5v-0.4H73.5L69.3,75C75.9,67.6,83.9,60.3,93.1,53.5z"/>
	<path class="st0" d="M196.8,117.3l-2.5,11.9h18.1l6.4-32.9C212.7,103.6,205.3,110.7,196.8,117.3z"/>
	<g>
		<g>
			<path class="st0" d="M127.4,86.9l-2.5,13.1h11.9l-2.9,14.8c-1.9,0.5-3.9,0.9-5.8,1.2c-1.9,0.3-3.8,0.4-5.7,0.4
				c-5.8,0-10.4-1.7-13.5-5.1c-3.2-3.4-4.8-8.1-4.8-14.1c0-9.1,2.8-16.7,8.3-22.5c5.5-5.8,12.6-8.7,21.4-8.7c4,0,8,0.6,11.9,1.8
				c4,1.2,8,3,12.2,5.4l3-15.8c-4.5-1.9-9.1-3.3-13.6-4.2c-4.7-0.9-9.2-1.4-13.8-1.4c-8.2,0-15.5,1.4-21.8,4.1
				c-6.4,2.7-11.9,6.8-16.6,12.2c-2.7,3.2-5,6.6-6.8,10.2l4.4-22.7C83.6,62.4,75.5,69.6,69,77l-10.2,52.3h19.6l5.3-26.8
				c0.5,8.3,3.6,15,9.2,20c6.2,5.5,14.7,8.2,25.5,8.2c6.1,0,11.8-0.6,17.1-1.8c5.3-1.2,10.5-3,15.4-5.4l7.1-36.6L127.4,86.9
				L127.4,86.9z M208.5,53.1l-5.3,33.6l-16-33.6H166l-14.8,76.1h18.6L180,78.6l17.4,35.1l-0.4,1.9c8.6-6.7,16-13.8,22-20.9l8.1-41.6
				L208.5,53.1L208.5,53.1z"/>
		</g>
	</g>
	<path class="st0" d="M119,39.9c49.2-25,98.1-21.6,111.8,5.3c5.3,10.5,4.2,23.4-2.1,36.6c8.6-14.7,11-29,5.3-40.5
		C220.6,15,169.1,14.5,119,39.9L119,39.9z"/>
	<g>
		<path class="st0" d="M60.8,137.2H62l-1.7,9.5h-1.2L60.8,137.2z"/>
		<path class="st0" d="M68.1,142.5l-0.8,4.3h-1.1l0.8-4.2c0-0.2,0.1-0.3,0.1-0.5s0-0.3,0-0.3c0-0.3-0.1-0.7-0.3-0.8
			c-0.2-0.2-0.5-0.3-0.8-0.3c-0.6,0-1.1,0.2-1.4,0.6c-0.4,0.4-0.7,1-0.8,1.7l-0.7,4h-1l1.3-7.1h1l-0.3,1.1c0.3-0.4,0.7-0.8,1.1-0.9
			c0.4-0.3,0.8-0.3,1.3-0.3c0.6,0,1,0.2,1.4,0.5c0.3,0.3,0.5,0.8,0.5,1.4c0,0.2,0,0.3,0,0.5C68.1,142.1,68.1,142.3,68.1,142.5z"/>
		<path class="st0" d="M74.2,139.9l-0.2,1.1c-0.3-0.2-0.6-0.3-0.8-0.4c-0.3-0.1-0.6-0.2-0.9-0.2c-0.6,0-1,0.1-1.3,0.3
			c-0.3,0.2-0.5,0.5-0.5,0.8c0,0.4,0.3,0.8,1.1,0.9c0.1,0,0.1,0,0.1,0l0.3,0.1c0.7,0.3,1.2,0.4,1.4,0.7s0.3,0.6,0.3,1
			c0,0.8-0.3,1.4-0.8,1.9c-0.5,0.5-1.3,0.7-2.1,0.7c-0.3,0-0.7,0-1.1-0.1c-0.3-0.1-0.8-0.2-1.3-0.3l0.2-1.2c0.4,0.3,0.8,0.4,1.1,0.5
			s0.8,0.2,1.1,0.2c0.5,0,0.9-0.1,1.3-0.3c0.3-0.3,0.5-0.6,0.5-0.9c0-0.4-0.4-0.8-1.3-1h-0.1l-0.3-0.1c-0.5-0.2-0.9-0.3-1.2-0.6
			c-0.3-0.3-0.3-0.6-0.3-1c0-0.8,0.3-1.4,0.8-1.8c0.5-0.4,1.2-0.7,2.1-0.7c0.3,0,0.7,0,1,0.1C73.6,139.6,73.9,139.8,74.2,139.9z"/>
		<path class="st0" d="M78.8,139.7l-0.2,0.9h-2.1l-0.7,3.9c0,0.2-0.1,0.3-0.1,0.3s0,0.2,0,0.3c0,0.3,0.1,0.5,0.3,0.6
			c0.2,0.1,0.4,0.2,0.7,0.2h1.1l-0.2,1h-1c-0.6,0-1.1-0.2-1.4-0.4s-0.4-0.7-0.4-1.3c0-0.1,0-0.2,0-0.3c0-0.1,0-0.3,0.1-0.4l0.7-3.9
			h-0.9l0.2-0.9h0.8l0.3-2h1l-0.3,2L78.8,139.7L78.8,139.7z"/>
		<path class="st0" d="M79.5,139.7h1.1l-1.3,7.1h-1L79.5,139.7z M79.9,136.9h1l-0.3,1.5h-1.1L79.9,136.9z"/>
		<path class="st0" d="M85.3,139.7l-0.2,0.9H83l-0.7,3.9c0,0.2-0.1,0.3-0.1,0.3s0,0.2,0,0.3c0,0.3,0.1,0.5,0.3,0.6
			c0.2,0.1,0.4,0.2,0.7,0.2h1.1l-0.2,1h-1c-0.6,0-1.1-0.2-1.4-0.4s-0.4-0.7-0.4-1.3c0-0.1,0-0.2,0-0.3c0-0.1,0-0.3,0.1-0.4l0.7-3.9
			h-0.8l0.2-0.9h0.8l0.3-2h1l-0.3,2L85.3,139.7L85.3,139.7z"/>
		<path class="st0" d="M85.2,143.9l0.8-4.3H87l-0.8,4.2c0,0.2-0.1,0.4-0.1,0.5c0,0.2,0,0.3,0,0.3c0,0.3,0.1,0.7,0.3,0.8
			c0.2,0.2,0.5,0.3,0.8,0.3c0.6,0,1-0.3,1.4-0.7c0.4-0.4,0.7-1,0.8-1.7l0.7-4h1l-1.3,7.1h-1.1l0.3-1.1c-0.3,0.4-0.7,0.8-1.1,0.9
			c-0.4,0.3-0.8,0.3-1.4,0.3c-0.6,0-1-0.2-1.4-0.5s-0.5-0.8-0.5-1.4c0-0.2,0-0.3,0-0.5C85.1,144.4,85.1,144.2,85.2,143.9z"/>
		<path class="st0" d="M96.1,139.7l-0.2,0.9h-2l-0.7,3.9c0,0.2-0.1,0.3-0.1,0.3s0,0.2,0,0.3c0,0.3,0.1,0.5,0.3,0.6
			c0.2,0.1,0.4,0.2,0.7,0.2h1.1l-0.2,1h-1.1c-0.6,0-1.1-0.2-1.4-0.4c-0.3-0.3-0.4-0.7-0.4-1.3c0-0.1,0-0.2,0-0.3
			c0-0.1,0-0.3,0.1-0.4l0.7-3.9h-0.9l0.2-0.9h0.8l0.3-2h1l-0.3,2L96.1,139.7L96.1,139.7z"/>
		<path class="st0" d="M98.1,147c-0.8,0-1.4-0.3-1.8-0.8c-0.4-0.5-0.7-1.2-0.7-2.1c0-0.5,0.1-1,0.3-1.6c0.2-0.5,0.3-1,0.6-1.4
			c0.4-0.6,0.8-1,1.3-1.3c0.5-0.3,1-0.4,1.6-0.4c0.8,0,1.4,0.3,1.8,0.8c0.4,0.5,0.7,1.2,0.7,1.9c0,0.6-0.1,1.1-0.3,1.7
			c-0.2,0.6-0.3,1-0.6,1.4c-0.3,0.6-0.8,1-1.3,1.3C99.2,146.8,98.7,147,98.1,147z M96.8,144.1c0,0.7,0.1,1.1,0.3,1.4
			c0.3,0.3,0.6,0.5,1.1,0.5c0.7,0,1.3-0.3,1.8-1c0.4-0.7,0.7-1.5,0.7-2.6c0-0.6-0.1-1.1-0.3-1.4c-0.3-0.3-0.6-0.5-1.1-0.5
			c-0.4,0-0.8,0.1-1.1,0.3c-0.3,0.2-0.6,0.5-0.8,0.9c-0.2,0.3-0.3,0.7-0.4,1.1C96.8,143.3,96.8,143.6,96.8,144.1z"/>
		<path class="st0" d="M111.2,145.4l0.4-2.5h-1.9l0.2-1h3l-0.8,4.1c-0.5,0.3-1.1,0.5-1.7,0.7c-0.6,0.2-1.2,0.3-1.8,0.3
			c-1.1,0-1.9-0.3-2.5-1s-0.9-1.6-0.9-2.8c0-1,0.2-1.9,0.6-2.8c0.3-0.8,0.8-1.6,1.5-2.2c0.4-0.3,0.8-0.7,1.4-0.8
			c0.5-0.2,1-0.3,1.6-0.3c0.5,0,1,0.1,1.5,0.3c0.5,0.2,0.9,0.3,1.4,0.7l-0.3,1.4c-0.3-0.4-0.8-0.7-1.2-0.9c-0.4-0.2-0.9-0.3-1.4-0.3
			c-0.6,0-1.2,0.2-1.6,0.4s-0.8,0.7-1.3,1.2c-0.3,0.4-0.6,1-0.8,1.6c-0.2,0.6-0.3,1.3-0.3,1.9c0,0.8,0.2,1.5,0.6,2
			c0.4,0.4,1,0.7,1.9,0.7c0.4,0,0.8-0.1,1.2-0.2C110.5,145.7,110.8,145.5,111.2,145.4z"/>
		<path class="st0" d="M119.7,143.5h-4.9c0,0.2,0,0.3-0.1,0.4c0,0.1,0,0.2,0,0.3c0,0.6,0.2,1,0.5,1.4c0.3,0.3,0.8,0.5,1.4,0.5
			c0.4,0,0.9-0.1,1.3-0.2c0.4-0.1,0.8-0.3,1.2-0.5l-0.2,1.2c-0.3,0.2-0.8,0.3-1.2,0.4c-0.4,0.1-0.8,0.2-1.3,0.2
			c-0.9,0-1.6-0.3-2-0.7c-0.5-0.5-0.7-1.2-0.7-2c0-0.8,0.1-1.4,0.3-2.1c0.3-0.7,0.6-1.2,1-1.7c0.3-0.3,0.7-0.6,1.1-0.8
			c0.4-0.2,0.8-0.3,1.4-0.3c0.8,0,1.3,0.3,1.7,0.8c0.4,0.5,0.7,1.1,0.7,1.9c0,0.2,0,0.4,0,0.6C119.8,143,119.8,143.3,119.7,143.5z
			 M118.8,142.6c0-0.1,0-0.2,0-0.2c0-0.1,0-0.2,0-0.3c0-0.5-0.2-0.9-0.4-1.3c-0.3-0.3-0.7-0.4-1.1-0.4c-0.5,0-1,0.2-1.4,0.6
			c-0.4,0.3-0.7,0.9-0.9,1.5H118.8z"/>
		<path class="st0" d="M122.8,147c-0.8,0-1.4-0.3-1.8-0.8c-0.4-0.5-0.7-1.2-0.7-2.1c0-0.5,0.1-1,0.3-1.6c0.2-0.5,0.3-1,0.6-1.4
			c0.4-0.6,0.8-1,1.3-1.3c0.4-0.3,1-0.4,1.6-0.4c0.8,0,1.4,0.3,1.8,0.8s0.7,1.2,0.7,1.9c0,0.6-0.1,1.1-0.3,1.7
			c-0.2,0.6-0.3,1-0.6,1.4c-0.3,0.6-0.8,1-1.3,1.3C123.9,146.8,123.4,147,122.8,147z M121.4,144.1c0,0.7,0.1,1.1,0.3,1.4
			c0.3,0.3,0.6,0.5,1.1,0.5c0.7,0,1.3-0.3,1.8-1c0.5-0.7,0.7-1.5,0.7-2.6c0-0.6-0.1-1.1-0.3-1.4c-0.3-0.3-0.6-0.5-1.1-0.5
			c-0.4,0-0.8,0.1-1.1,0.3c-0.3,0.2-0.6,0.5-0.8,0.9c-0.2,0.3-0.3,0.7-0.4,1.1C121.4,143.3,121.4,143.6,121.4,144.1z"/>
		<path class="st0" d="M133.3,139.7l-1.1,6.3c-0.2,1.2-0.6,2.1-1.2,2.7c-0.6,0.6-1.4,0.9-2.4,0.9c-0.3,0-0.7,0-1-0.1
			c-0.3-0.1-0.6-0.2-0.9-0.3l0.2-1.1c0.3,0.2,0.5,0.3,0.8,0.4c0.3,0.1,0.6,0.2,0.9,0.2c0.7,0,1.2-0.2,1.7-0.6c0.4-0.4,0.7-1,0.8-1.8
			l0.1-0.5c-0.3,0.3-0.7,0.7-1,0.8c-0.4,0.2-0.8,0.3-1.3,0.3c-0.7,0-1.2-0.3-1.5-0.7c-0.3-0.5-0.6-1.1-0.6-1.9
			c0-0.7,0.1-1.3,0.3-1.9c0.3-0.6,0.5-1.2,0.9-1.7c0.3-0.3,0.6-0.6,0.9-0.8s0.8-0.3,1.1-0.3c0.4,0,0.8,0.1,1.1,0.3
			c0.3,0.3,0.6,0.5,0.7,0.9l0.2-1.1L133.3,139.7L133.3,139.7z M131.7,142.3c0-0.6-0.1-1-0.3-1.4c-0.3-0.3-0.6-0.5-1-0.5
			c-0.3,0-0.5,0.1-0.8,0.2c-0.3,0.1-0.5,0.3-0.7,0.5c-0.3,0.3-0.5,0.8-0.7,1.3c-0.2,0.5-0.3,1-0.3,1.5c0,0.6,0.1,1,0.3,1.4
			c0.3,0.3,0.6,0.5,1.1,0.5c0.7,0,1.2-0.3,1.7-1C131.5,144.1,131.7,143.3,131.7,142.3z"/>
		<path class="st0" d="M138.3,140.7c-0.1-0.1-0.3-0.1-0.3-0.2c-0.2,0-0.3-0.1-0.4-0.1c-0.6,0-1,0.3-1.4,0.7
			c-0.4,0.5-0.7,1.1-0.8,1.9l-0.7,3.6h-1l1.3-7.1h1.1l-0.2,1.1c0.3-0.4,0.6-0.8,1-0.9c0.4-0.3,0.8-0.3,1.3-0.3c0.1,0,0.3,0,0.3,0
			s0.3,0,0.3,0.1L138.3,140.7z"/>
		<path class="st0" d="M143.6,142.8l-0.7,4.1h-1.1l0.2-1.1c-0.3,0.4-0.7,0.8-1,0.9c-0.4,0.3-0.8,0.3-1.4,0.3c-0.5,0-1-0.2-1.4-0.6
			c-0.3-0.3-0.5-0.8-0.5-1.4c0-0.8,0.3-1.5,0.9-1.9c0.6-0.5,1.4-0.8,2.5-0.8h1.4l0.1-0.3v-0.1c0,0,0-0.1,0-0.2
			c0-0.3-0.2-0.7-0.4-0.8c-0.3-0.2-0.7-0.3-1.2-0.3c-0.3,0-0.7,0.1-1,0.2s-0.8,0.3-1.1,0.4l0.2-1.1c0.4-0.2,0.8-0.3,1.2-0.3
			c0.3-0.1,0.8-0.1,1.1-0.1c0.8,0,1.4,0.2,1.7,0.5c0.4,0.3,0.6,0.9,0.6,1.6c0,0.2,0,0.3,0,0.5C143.7,142.3,143.6,142.5,143.6,142.8z
			 M142.4,143.2h-1c-0.8,0-1.5,0.2-1.9,0.4c-0.4,0.3-0.6,0.7-0.6,1.2c0,0.3,0.1,0.7,0.3,0.8c0.3,0.3,0.5,0.3,0.8,0.3
			c0.6,0,1.1-0.3,1.5-0.7c0.4-0.4,0.7-1.1,0.8-1.9V143.2z M142.8,136.4h1.1l-2.3,2.4h-0.8L142.8,136.4z"/>
		<path class="st0" d="M149.4,136.9l-0.2,1h-1c-0.4,0-0.7,0.1-0.8,0.3c-0.2,0.2-0.3,0.5-0.4,0.9l-0.1,0.6h1.8l-0.2,0.9h-1.7
			l-1.1,6.3h-1.1l1.1-6.3h-1l0.2-0.9h1l0.1-0.5c0.2-0.8,0.4-1.4,0.8-1.8s0.9-0.5,1.7-0.5L149.4,136.9L149.4,136.9z"/>
		<path class="st0" d="M148.9,139.7h1.1l-1.3,7.1h-1L148.9,139.7z M149.4,136.9h1l-0.3,1.5h-1L149.4,136.9z"/>
		<path class="st0" d="M156.2,140l-0.2,1.2c-0.3-0.2-0.5-0.3-0.8-0.4c-0.3-0.1-0.6-0.2-0.9-0.2c-0.3,0-0.7,0.1-0.9,0.2
			c-0.3,0.2-0.6,0.3-0.8,0.6c-0.3,0.3-0.6,0.8-0.8,1.3c-0.2,0.5-0.3,1-0.3,1.5c0,0.7,0.2,1.1,0.4,1.4c0.3,0.3,0.8,0.5,1.4,0.5
			c0.3,0,0.6-0.1,0.9-0.2c0.3-0.1,0.7-0.3,1-0.4l-0.2,1.2c-0.3,0.2-0.6,0.3-0.9,0.3c-0.3,0.1-0.7,0.1-1,0.1c-0.8,0-1.5-0.3-1.9-0.7
			c-0.4-0.5-0.7-1.2-0.7-2c0-0.8,0.1-1.4,0.3-2c0.3-0.6,0.6-1.2,1.1-1.7c0.3-0.3,0.7-0.6,1.1-0.8c0.4-0.2,0.9-0.3,1.4-0.3
			c0.3,0,0.6,0,0.9,0.1C155.6,139.7,155.9,139.8,156.2,140z"/>
		<path class="st0" d="M158.7,147c-0.8,0-1.4-0.3-1.8-0.8c-0.4-0.5-0.7-1.2-0.7-2.1c0-0.5,0.1-1,0.3-1.6c0.2-0.5,0.3-1,0.6-1.4
			c0.4-0.6,0.8-1,1.3-1.3c0.4-0.3,1-0.4,1.6-0.4c0.8,0,1.4,0.3,1.8,0.8c0.4,0.5,0.7,1.2,0.7,1.9c0,0.6-0.1,1.1-0.3,1.7
			c-0.2,0.6-0.3,1-0.6,1.4c-0.3,0.6-0.8,1-1.3,1.3C159.9,146.8,159.3,147,158.7,147z M157.3,144.1c0,0.7,0.1,1.1,0.3,1.4
			c0.3,0.3,0.6,0.5,1.1,0.5c0.7,0,1.3-0.3,1.8-1c0.5-0.7,0.7-1.5,0.7-2.6c0-0.6-0.1-1.1-0.3-1.4c-0.3-0.3-0.6-0.5-1.1-0.5
			c-0.4,0-0.8,0.1-1.1,0.3c-0.3,0.2-0.6,0.5-0.8,0.9c-0.2,0.3-0.3,0.7-0.4,1.1C157.4,143.3,157.3,143.6,157.3,144.1z"/>
		<path class="st0" d="M167.3,137.2h1.5l2.4,8.1l1.4-8.1h1.1l-1.7,9.5h-1.5l-2.4-8.2l-1.4,8.2h-1.1L167.3,137.2z"/>
		<path class="st0" d="M179.8,142.8l-0.7,4.1H178l0.2-1.1c-0.3,0.4-0.7,0.8-1,0.9c-0.4,0.3-0.8,0.3-1.4,0.3c-0.5,0-1-0.2-1.4-0.6
			c-0.3-0.3-0.5-0.8-0.5-1.4c0-0.8,0.3-1.5,0.9-1.9c0.6-0.5,1.4-0.8,2.5-0.8h1.4l0.1-0.3v-0.1c0,0,0-0.1,0-0.2
			c0-0.3-0.2-0.7-0.4-0.8c-0.3-0.2-0.7-0.3-1.2-0.3c-0.3,0-0.7,0.1-1,0.2s-0.8,0.3-1.1,0.4l0.2-1.1c0.4-0.2,0.8-0.3,1.2-0.3
			c0.3-0.1,0.8-0.1,1.1-0.1c0.8,0,1.4,0.2,1.7,0.5c0.4,0.3,0.6,0.9,0.6,1.6c0,0.2,0,0.3,0,0.5C179.8,142.3,179.8,142.5,179.8,142.8z
			 M178.7,143.2h-1.1c-0.8,0-1.5,0.2-1.9,0.4c-0.4,0.3-0.6,0.7-0.6,1.2c0,0.3,0.1,0.7,0.3,0.8c0.3,0.3,0.5,0.3,0.8,0.3
			c0.6,0,1.1-0.3,1.5-0.7c0.4-0.4,0.7-1.1,0.8-1.9L178.7,143.2z"/>
		<path class="st0" d="M186.4,140l-0.3,1.2c-0.3-0.2-0.5-0.3-0.8-0.4c-0.3-0.1-0.6-0.2-0.9-0.2c-0.3,0-0.7,0.1-0.9,0.2
			c-0.3,0.2-0.6,0.3-0.8,0.6c-0.3,0.3-0.6,0.8-0.8,1.3c-0.2,0.5-0.3,1-0.3,1.5c0,0.7,0.2,1.1,0.4,1.4s0.8,0.5,1.4,0.5
			c0.3,0,0.6-0.1,0.9-0.2c0.3-0.1,0.7-0.3,1-0.4l-0.2,1.2c-0.3,0.2-0.6,0.3-0.9,0.3c-0.3,0.1-0.7,0.1-1,0.1c-0.8,0-1.5-0.3-1.9-0.7
			c-0.4-0.5-0.7-1.2-0.7-2c0-0.8,0.1-1.4,0.3-2s0.6-1.2,1.1-1.7c0.3-0.3,0.7-0.6,1.1-0.8c0.4-0.2,0.9-0.3,1.4-0.3
			c0.3,0,0.6,0,0.9,0.1C185.7,139.7,186,139.8,186.4,140z"/>
		<path class="st0" d="M187.5,139.7h1.1l-1.3,7.1h-1L187.5,139.7z M188,136.9h1l-0.3,1.5h-1L188,136.9z"/>
		<path class="st0" d="M191.4,147c-0.8,0-1.4-0.3-1.8-0.8c-0.4-0.5-0.7-1.2-0.7-2.1c0-0.5,0.1-1,0.3-1.6c0.2-0.5,0.3-1,0.6-1.4
			c0.4-0.6,0.8-1,1.3-1.3c0.5-0.3,1-0.4,1.6-0.4c0.8,0,1.4,0.3,1.8,0.8c0.4,0.5,0.7,1.2,0.7,1.9c0,0.6-0.1,1.1-0.3,1.7
			c-0.2,0.6-0.3,1-0.6,1.4c-0.3,0.6-0.8,1-1.3,1.3C192.5,146.8,192,147,191.4,147z M190.1,144.1c0,0.7,0.1,1.1,0.3,1.4
			s0.6,0.5,1.1,0.5c0.7,0,1.3-0.3,1.8-1c0.5-0.7,0.7-1.5,0.7-2.6c0-0.6-0.1-1.1-0.3-1.4c-0.3-0.3-0.6-0.5-1.1-0.5
			c-0.4,0-0.8,0.1-1.1,0.3c-0.3,0.2-0.6,0.5-0.8,0.9c-0.2,0.3-0.3,0.7-0.4,1.1C190.1,143.3,190.1,143.6,190.1,144.1z"/>
		<path class="st0" d="M201.5,142.5l-0.8,4.3h-1l0.8-4.2c0-0.2,0.1-0.3,0.1-0.5s0-0.3,0-0.3c0-0.3-0.1-0.7-0.3-0.8
			c-0.2-0.2-0.5-0.3-0.8-0.3c-0.6,0-1,0.2-1.4,0.6c-0.4,0.4-0.7,1-0.8,1.7l-0.7,4h-1l1.3-7.1h1l-0.3,1.1c0.3-0.4,0.7-0.8,1.1-0.9
			c0.4-0.2,0.8-0.3,1.3-0.3c0.6,0,1,0.2,1.4,0.5c0.3,0.3,0.5,0.8,0.5,1.4c0,0.2,0,0.3,0,0.5C201.6,142.1,201.5,142.3,201.5,142.5z"
			/>
		<path class="st0" d="M208.1,142.8l-0.7,4.1h-1.1l0.2-1.1c-0.3,0.4-0.7,0.8-1,0.9c-0.4,0.3-0.8,0.3-1.4,0.3c-0.5,0-1-0.2-1.4-0.6
			c-0.3-0.3-0.5-0.8-0.5-1.4c0-0.8,0.3-1.5,0.9-1.9c0.6-0.5,1.4-0.8,2.5-0.8h1.4l0.1-0.3v-0.1c0,0,0-0.1,0-0.2
			c0-0.3-0.2-0.7-0.4-0.8c-0.3-0.2-0.7-0.3-1.2-0.3c-0.3,0-0.7,0.1-1,0.2s-0.8,0.3-1.1,0.4l0.2-1.1c0.4-0.2,0.8-0.3,1.2-0.3
			c0.3-0.1,0.8-0.1,1.1-0.1c0.8,0,1.4,0.2,1.7,0.5c0.4,0.3,0.6,0.9,0.6,1.6c0,0.2,0,0.3,0,0.5C208.2,142.3,208.1,142.5,208.1,142.8z
			 M206.9,143.2h-1.1c-0.8,0-1.5,0.2-1.9,0.4c-0.4,0.3-0.6,0.7-0.6,1.2c0,0.3,0.1,0.7,0.3,0.8c0.3,0.3,0.5,0.3,0.8,0.3
			c0.6,0,1.1-0.3,1.5-0.7c0.4-0.4,0.7-1.1,0.8-1.9L206.9,143.2z"/>
		<path class="st0" d="M210.5,136.9h1l-1.8,9.9h-1L210.5,136.9z"/>
		<path class="st0" d="M85.8,156.4l-0.6,2.9h-1.9l1.4-7.5h2.9c0.8,0,1.4,0.2,1.9,0.5s0.7,0.8,0.7,1.4c0,0.6-0.2,1.1-0.5,1.5
			c-0.3,0.4-0.8,0.6-1.4,0.7c0.3,0.1,0.5,0.2,0.7,0.4c0.2,0.3,0.3,0.5,0.4,1l0.7,2.1H88l-0.6-1.9c-0.1-0.3-0.3-0.6-0.4-0.8
			c-0.2-0.2-0.4-0.2-0.7-0.2L85.8,156.4L85.8,156.4z M86.9,155c0.4,0,0.8-0.1,1-0.3c0.3-0.2,0.3-0.5,0.3-0.9c0-0.3-0.1-0.4-0.3-0.5
			c-0.2-0.1-0.4-0.2-0.8-0.2h-0.8l-0.4,1.9H86.9L86.9,155z"/>
		<path class="st0" d="M92.3,151.7h5.3l-0.3,1.4h-3.4l-0.3,1.4h3.1l-0.3,1.4h-3.1l-0.3,1.7h3.4l-0.3,1.4h-5.3L92.3,151.7z"/>
		<path class="st0" d="M98.9,151.7h3.2c0.8,0,1.4,0.2,1.9,0.5c0.4,0.3,0.7,0.8,0.7,1.5c0,0.4-0.1,0.8-0.3,1.1
			c-0.2,0.3-0.3,0.7-0.7,0.9s-0.7,0.5-1.1,0.6c-0.4,0.2-0.9,0.2-1.5,0.2h-1.3l-0.5,2.6h-1.9L98.9,151.7z M100.6,153.1l-0.4,2.1h1.1
			c0.4,0,0.8-0.1,1-0.3c0.3-0.3,0.3-0.5,0.3-0.9c0-0.3-0.1-0.5-0.3-0.6c-0.2-0.2-0.4-0.3-0.8-0.3H100.6z"/>
		<path class="st0" d="M106,151.7h1.9l-0.8,4.5c0,0.2-0.1,0.3-0.1,0.4c0,0.1,0,0.3,0,0.3c0,0.3,0.1,0.6,0.3,0.8
			c0.2,0.2,0.4,0.3,0.8,0.3c0.5,0,0.8-0.2,1.1-0.4c0.3-0.3,0.4-0.7,0.6-1.4l0.8-4.6h1.9l-0.8,4.6c-0.3,1.1-0.7,1.9-1.3,2.5
			c-0.6,0.5-1.5,0.8-2.6,0.8c-0.9,0-1.6-0.2-2-0.6c-0.5-0.4-0.7-0.9-0.7-1.7c0-0.1,0-0.3,0-0.4c0-0.2,0.1-0.3,0.1-0.5L106,151.7z
			 M109.8,149.6h1.4l-1.6,1.4h-1L109.8,149.6z"/>
		<path class="st0" d="M118.2,155.2c0.3,0.1,0.6,0.3,0.8,0.5c0.2,0.3,0.3,0.6,0.3,0.9c0,0.8-0.3,1.4-0.9,1.9
			c-0.6,0.4-1.4,0.7-2.5,0.7h-3.2l1.4-7.5h2.9c0.9,0,1.5,0.2,2,0.4c0.4,0.3,0.7,0.7,0.7,1.2c0,0.4-0.1,0.8-0.4,1.2
			C119,154.9,118.6,155.1,118.2,155.2z M115.9,157.9c0.4,0,0.8-0.1,1-0.3c0.3-0.3,0.3-0.5,0.3-0.9c0-0.3-0.1-0.4-0.3-0.6
			c-0.2-0.1-0.4-0.2-0.8-0.2h-1.2l-0.4,1.9L115.9,157.9L115.9,157.9z M116.5,154.6c0.3,0,0.6-0.1,0.8-0.3c0.2-0.2,0.3-0.4,0.3-0.8
			c0-0.2-0.1-0.3-0.2-0.4c-0.2-0.1-0.3-0.2-0.6-0.2h-1.1l-0.3,1.6H116.5L116.5,154.6z"/>
		<path class="st0" d="M121.5,151.7h1.9l-1.2,6.1h3.4l-0.3,1.4h-5.3L121.5,151.7z"/>
		<path class="st0" d="M127.6,151.7h1.9l-1.4,7.5h-1.9L127.6,151.7z"/>
		<path class="st0" d="M135.6,158.9c-0.5,0.2-0.9,0.3-1.4,0.3c-0.4,0.1-0.8,0.1-1.2,0.1c-1,0-1.9-0.3-2.5-0.8s-0.9-1.3-0.9-2.2
			c0-0.6,0.1-1.2,0.3-1.7c0.2-0.5,0.5-1,0.8-1.4c0.4-0.5,1-0.9,1.6-1.2c0.6-0.3,1.3-0.4,2-0.4c0.4,0,0.8,0.1,1.2,0.2
			c0.4,0.1,0.8,0.3,1.2,0.4l-0.3,1.5c-0.3-0.3-0.7-0.4-1-0.5c-0.3-0.1-0.7-0.2-1-0.2c-0.8,0-1.4,0.3-1.9,0.9
			c-0.5,0.6-0.8,1.4-0.8,2.3c0,0.6,0.2,1,0.5,1.4c0.3,0.3,0.8,0.5,1.4,0.5c0.3,0,0.7-0.1,1.1-0.2c0.4-0.1,0.8-0.3,1.3-0.6
			L135.6,158.9z"/>
		<path class="st0" d="M141.6,157.9h-3l-0.8,1.4h-2l4.2-7.5h2.2l1.4,7.5h-1.9L141.6,157.9z M139.3,156.5h2l-0.4-2.9L139.3,156.5z"/>
		<path class="st0" d="M152.3,157.9h-3l-0.8,1.4h-2l4.2-7.5h2.2l1.4,7.5h-1.9L152.3,157.9z M150,156.5h2l-0.4-2.9L150,156.5z"/>
		<path class="st0" d="M157.6,156.4l-0.6,2.9H155l1.4-7.5h2.9c0.8,0,1.4,0.2,1.9,0.5c0.4,0.3,0.7,0.8,0.7,1.4c0,0.6-0.2,1.1-0.5,1.5
			c-0.3,0.4-0.8,0.6-1.4,0.7c0.3,0.1,0.5,0.2,0.7,0.4c0.2,0.3,0.3,0.5,0.4,1l0.7,2.1h-1.9l-0.6-1.9c-0.1-0.3-0.3-0.6-0.4-0.8
			c-0.2-0.2-0.4-0.2-0.7-0.2L157.6,156.4L157.6,156.4z M158.7,155c0.4,0,0.8-0.1,1-0.3c0.3-0.2,0.3-0.5,0.3-0.9
			c0-0.3-0.1-0.4-0.3-0.5s-0.4-0.2-0.8-0.2h-0.8l-0.4,1.9H158.7L158.7,155z"/>
		<path class="st0" d="M169.4,158.7c-0.5,0.3-1,0.4-1.5,0.5c-0.5,0.1-1.1,0.2-1.7,0.2c-1.1,0-1.9-0.3-2.5-0.8
			c-0.6-0.5-0.9-1.3-0.9-2.2c0-0.6,0.1-1.2,0.3-1.7c0.2-0.5,0.5-1,0.8-1.4c0.5-0.5,1-0.9,1.6-1.2c0.6-0.3,1.4-0.4,2.2-0.4
			c0.4,0,0.9,0.1,1.4,0.2c0.4,0.1,0.9,0.3,1.4,0.4l-0.3,1.5c-0.4-0.3-0.8-0.4-1.2-0.5c-0.4-0.1-0.8-0.2-1.2-0.2
			c-0.8,0-1.6,0.3-2.1,0.8c-0.5,0.6-0.8,1.4-0.8,2.2c0,0.6,0.2,1.1,0.5,1.4c0.3,0.3,0.8,0.5,1.4,0.5c0.2,0,0.3,0,0.6,0
			c0.2,0,0.3-0.1,0.6-0.1l0.3-1.4h-1.2l0.3-1.3h3L169.4,158.7z"/>
		<path class="st0" d="M172.1,151.7h5.3l-0.3,1.4h-3.3l-0.3,1.4h3.1l-0.3,1.4h-3.1l-0.3,1.7h3.4l-0.3,1.4h-5.3L172.1,151.7z"/>
		<path class="st0" d="M178.7,151.7h2.2l1.7,5.3l1-5.3h1.9l-1.4,7.5h-2.2l-1.7-5.3l-1,5.3h-1.9L178.7,151.7z"/>
		<path class="st0" d="M186.1,151.7h6.9l-0.3,1.4h-2.5l-1.2,6.1h-1.9l1.2-6.1h-2.5L186.1,151.7z"/>
		<path class="st0" d="M193.6,151.7h1.9l-1.4,7.5h-2L193.6,151.7z"/>
		<path class="st0" d="M197,151.7h2.2l1.7,5.3l1-5.3h1.9l-1.4,7.5h-2.2l-1.7-5.3l-1,5.3h-1.9L197,151.7z"/>
		<path class="st0" d="M208.6,157.9h-3l-0.8,1.4h-2l4.2-7.5h2.2l1.4,7.5h-1.9L208.6,157.9z M206.3,156.5h2l-0.4-2.9L206.3,156.5z"/>
	</g>
</g>
</svg>
