<?xml version="1.0" encoding="utf-8"?>
<!-- Generator: Adobe Illustrator 16.0.0, SVG Export Plug-In . SVG Version: 6.00 Build 0)  -->
<!DOCTYPE svg PUBLIC "-//W3C//DTD SVG 1.1//EN" "http://www.w3.org/Graphics/SVG/1.1/DTD/svg11.dtd">
<svg version="1.1" xmlns="http://www.w3.org/2000/svg" xmlns:xlink="http://www.w3.org/1999/xlink" x="0px" y="0px"
	 width="425.197px" height="425.197px" viewBox="0 0 425.197 425.197" enable-background="new 0 0 425.197 425.197"
	 xml:space="preserve">
<g id="Capa_1" display="none">
</g>
<g id="logo">
</g>
<g id="guias" display="none">
</g>
<g id="pruebas">
</g>
<g id="pruebas_guias" display="none">
</g>
<g id="logo2">
</g>
<g id="guias2" display="none">
</g>
<g id="Capa_8">
</g>
<g id="Capa_9">
</g>
<g id="Variantes1">
</g>
<g id="variantes1_guia" display="none">
</g>
<g id="Variantes2">
</g>
<g id="fondo">
</g>
<g id="seleccion1">
</g>
<g id="seleccion2">
</g>
<g id="seleccion3">
</g>
<g id="guias_1_" display="none">
</g>
<g id="para_web">
	<rect x="-0.001" y="0.1" display="none" fill="#0893D2" width="425.197" height="425.197"/>
	<g>
		<g>
			<path fill="#FFFFFF" d="M61.092,369.777h0.887l3.826,8.455h-1.02l-0.982-2.219h-4.57l-0.994,2.219h-0.973L61.092,369.777z
				 M63.432,375.162l-1.908-4.281l-1.918,4.281H63.432z"/>
			<path fill="#FFFFFF" d="M68.605,370.713h-2.818v-0.875h6.596v0.875h-2.818v7.52h-0.959V370.713z"/>
			<path fill="#FFFFFF" d="M74.162,369.838h0.947v7.52h4.725v0.875h-5.672V369.838z"/>
			<path fill="#FFFFFF" d="M84.695,369.777h0.887l3.826,8.455h-1.02l-0.982-2.219h-4.57l-0.994,2.219h-0.973L84.695,369.777z
				 M87.035,375.162l-1.908-4.281l-1.918,4.281H87.035z"/>
			<path fill="#FFFFFF" d="M90.35,377.01l0.588-0.695c0.875,0.791,1.715,1.188,2.879,1.188c1.127,0,1.871-0.6,1.871-1.428v-0.023
				c0-0.78-0.42-1.225-2.184-1.596c-1.93-0.42-2.818-1.043-2.818-2.423v-0.024c0-1.318,1.164-2.29,2.758-2.29
				c1.225,0,2.1,0.348,2.951,1.031l-0.551,0.731c-0.781-0.635-1.561-0.911-2.424-0.911c-1.092,0-1.787,0.6-1.787,1.354v0.024
				c0,0.792,0.432,1.235,2.279,1.632c1.871,0.407,2.734,1.091,2.734,2.374v0.024c0,1.439-1.199,2.375-2.867,2.375
				C92.449,378.354,91.357,377.909,90.35,377.01z"/>
			<path fill="#FFFFFF" d="M102.182,369.838h0.887l5.289,6.729v-6.729h0.924v8.395h-0.756l-5.422-6.884v6.884h-0.922V369.838z"/>
			<path fill="#FFFFFF" d="M114.768,369.777h0.887l3.826,8.455h-1.02l-0.982-2.219h-4.57l-0.994,2.219h-0.973L114.768,369.777z
				 M117.107,375.162l-1.908-4.281l-1.918,4.281H117.107z"/>
			<path fill="#FFFFFF" d="M120.277,374.059v-0.023c0-2.375,1.775-4.342,4.246-4.342c1.523,0,2.436,0.54,3.273,1.332l-0.646,0.695
				c-0.707-0.672-1.5-1.151-2.639-1.151c-1.859,0-3.25,1.511-3.25,3.442v0.023c0,1.943,1.402,3.467,3.25,3.467
				c1.15,0,1.906-0.444,2.711-1.212l0.623,0.612c-0.875,0.887-1.834,1.475-3.357,1.475
				C122.064,378.377,120.277,376.47,120.277,374.059z"/>
			<path fill="#FFFFFF" d="M129.59,369.838h0.947v8.395h-0.947V369.838z"/>
			<path fill="#FFFFFF" d="M132.625,374.059v-0.023c0-2.314,1.74-4.342,4.295-4.342s4.27,2.003,4.27,4.318v0.023
				c0,2.314-1.74,4.342-4.295,4.342S132.625,376.374,132.625,374.059z M140.205,374.059v-0.023c0-1.906-1.391-3.466-3.311-3.466
				c-1.918,0-3.285,1.535-3.285,3.442v0.023c0,1.907,1.391,3.467,3.311,3.467C138.838,377.502,140.205,375.967,140.205,374.059z"/>
			<path fill="#FFFFFF" d="M143.197,369.838h0.887l5.289,6.729v-6.729h0.924v8.395h-0.756l-5.422-6.884v6.884h-0.922V369.838z"/>
			<path fill="#FFFFFF" d="M155.783,369.777h0.887l3.826,8.455h-1.02l-0.982-2.219h-4.57l-0.994,2.219h-0.973L155.783,369.777z
				 M158.123,375.162l-1.908-4.281l-1.918,4.281H158.123z"/>
			<path fill="#FFFFFF" d="M162.156,369.838h0.947v7.52h4.727v0.875h-5.674V369.838z"/>
			<path fill="#FFFFFF" d="M173.27,369.838h0.947v8.395h-0.947V369.838z"/>
			<path fill="#FFFFFF" d="M176.676,369.838h0.889l5.289,6.729v-6.729h0.922v8.395h-0.754l-5.422-6.884v6.884h-0.924V369.838z"/>
			<path fill="#FFFFFF" d="M188.375,370.713h-2.818v-0.875h6.596v0.875h-2.818v7.52h-0.959V370.713z"/>
			<path fill="#FFFFFF" d="M193.932,369.838H200v0.863h-5.121v2.866h4.582v0.864h-4.582v2.938h5.182v0.863h-6.129V369.838z"/>
			<path fill="#FFFFFF" d="M201.973,369.838h3.609c1.031,0,1.859,0.312,2.387,0.84c0.408,0.407,0.648,0.994,0.648,1.654v0.023
				c0,1.393-0.961,2.207-2.279,2.447l2.578,3.43h-1.164l-2.434-3.262h-2.398v3.262h-0.947V369.838z M205.498,374.119
				c1.26,0,2.158-0.647,2.158-1.727v-0.024c0-1.031-0.791-1.655-2.146-1.655h-2.59v3.406H205.498z"/>
			<path fill="#FFFFFF" d="M213.754,369.777h0.887l3.826,8.455h-1.02l-0.982-2.219h-4.57l-0.994,2.219h-0.973L213.754,369.777z
				 M216.094,375.162l-1.908-4.281l-1.918,4.281H216.094z"/>
			<path fill="#FFFFFF" d="M219.264,374.059v-0.023c0-2.375,1.775-4.342,4.246-4.342c1.523,0,2.436,0.54,3.273,1.332l-0.646,0.695
				c-0.707-0.672-1.5-1.151-2.639-1.151c-1.859,0-3.25,1.511-3.25,3.442v0.023c0,1.943,1.402,3.467,3.25,3.467
				c1.15,0,1.906-0.444,2.711-1.212l0.623,0.612c-0.875,0.887-1.834,1.475-3.357,1.475
				C221.051,378.377,219.264,376.47,219.264,374.059z"/>
			<path fill="#FFFFFF" d="M230.711,370.713h-2.818v-0.875h6.596v0.875h-2.818v7.52h-0.959V370.713z"/>
			<path fill="#FFFFFF" d="M236.352,369.838h0.947v8.395h-0.947V369.838z"/>
			<path fill="#FFFFFF" d="M239.041,369.838h1.055l2.986,7.231l2.998-7.231h1.02l-3.609,8.455h-0.84L239.041,369.838z"/>
			<path fill="#FFFFFF" d="M247.896,374.059v-0.023c0-2.314,1.738-4.342,4.293-4.342s4.27,2.003,4.27,4.318v0.023
				c0,2.314-1.738,4.342-4.293,4.342S247.896,376.374,247.896,374.059z M255.477,374.059v-0.023c0-1.906-1.393-3.466-3.311-3.466
				c-1.92,0-3.287,1.535-3.287,3.442v0.023c0,1.907,1.393,3.467,3.311,3.467C254.109,377.502,255.477,375.967,255.477,374.059z"/>
			<path fill="#FFFFFF" d="M262.068,369.838h2.914c2.639,0,4.461,1.811,4.461,4.174v0.023c0,2.363-1.822,4.197-4.461,4.197h-2.914
				V369.838z M264.982,377.357c2.123,0,3.479-1.439,3.479-3.299v-0.023c0-1.859-1.355-3.322-3.479-3.322h-1.967v6.645H264.982z"/>
			<path fill="#FFFFFF" d="M271.451,369.838h6.068v0.863h-5.121v2.866h4.582v0.864h-4.582v2.938h5.182v0.863h-6.129V369.838z"/>
			<path fill="#FFFFFF" d="M286.197,369.777h0.887l3.826,8.455h-1.02l-0.982-2.219h-4.57l-0.994,2.219h-0.973L286.197,369.777z
				 M288.537,375.162l-1.908-4.281l-1.918,4.281H288.537z"/>
			<path fill="#FFFFFF" d="M292.572,369.838h3.609c1.031,0,1.859,0.312,2.387,0.84c0.408,0.407,0.648,0.994,0.648,1.654v0.023
				c0,1.393-0.961,2.207-2.279,2.447l2.578,3.43h-1.164l-2.434-3.262h-2.398v3.262h-0.947V369.838z M296.098,374.119
				c1.26,0,2.158-0.647,2.158-1.727v-0.024c0-1.031-0.791-1.655-2.146-1.655h-2.59v3.406H296.098z"/>
			<path fill="#FFFFFF" d="M300.875,374.059v-0.023c0-2.303,1.691-4.342,4.211-4.342c1.414,0,2.291,0.408,3.129,1.115l-0.611,0.721
				c-0.646-0.564-1.367-0.96-2.555-0.96c-1.859,0-3.189,1.571-3.189,3.442v0.023c0,2.003,1.283,3.49,3.322,3.49
				c0.959,0,1.846-0.372,2.422-0.84V374.6h-2.555v-0.852h3.467v3.346c-0.779,0.695-1.955,1.283-3.371,1.283
				C302.506,378.377,300.875,376.458,300.875,374.059z"/>
			<path fill="#FFFFFF" d="M310.656,369.838h6.068v0.863h-5.121v2.866h4.58v0.864h-4.58v2.938h5.182v0.863h-6.129V369.838z"/>
			<path fill="#FFFFFF" d="M318.695,369.838h0.889l5.289,6.729v-6.729h0.922v8.395h-0.754l-5.422-6.884v6.884h-0.924V369.838z"/>
			<path fill="#FFFFFF" d="M330.395,370.713h-2.818v-0.875h6.596v0.875h-2.818v7.52h-0.959V370.713z"/>
			<path fill="#FFFFFF" d="M336.035,369.838h0.947v8.395h-0.947V369.838z"/>
			<path fill="#FFFFFF" d="M339.443,369.838h0.887l5.289,6.729v-6.729h0.924v8.395h-0.756l-5.422-6.884v6.884h-0.922V369.838z"/>
			<path fill="#FFFFFF" d="M352.029,369.777h0.887l3.826,8.455h-1.02l-0.982-2.219h-4.57l-0.994,2.219h-0.973L352.029,369.777z
				 M354.369,375.162l-1.908-4.281l-1.918,4.281H354.369z"/>
		</g>
		<g>
			<path fill="#FFFFFF" d="M81.922,306.67h7.41l20.021,45.826h-8.45l-4.615-10.984H74.771l-4.68,10.984H61.9L81.922,306.67z
				 M93.361,334.426l-7.865-18.201l-7.8,18.201H93.361z"/>
			<path fill="#FFFFFF" d="M134.7,306.994h7.411l24.375,31.462v-31.462h7.865v45.502h-6.695l-25.091-32.371v32.371H134.7V306.994z"
				/>
			<path fill="#FFFFFF" d="M204.055,306.994h7.996v45.502h-7.996V306.994z"/>
			<path fill="#FFFFFF" d="M241.754,306.994h16.966c14.3,0,24.181,9.816,24.181,22.621v0.131c0,12.805-9.881,22.75-24.181,22.75
				h-16.966V306.994z M258.72,345.217c9.556,0,15.796-6.436,15.796-15.342v-0.129c0-8.906-6.24-15.471-15.796-15.471h-8.97v30.941
				H258.72z"/>
			<path fill="#FFFFFF" d="M323.135,306.67h7.41l20.021,45.826h-8.45l-4.615-10.984h-21.517l-4.68,10.984h-8.189L323.135,306.67z
				 M334.576,334.426l-7.865-18.201l-7.801,18.201H334.576z"/>
		</g>
		<path fill="#FFFFFF" d="M223.406,253.084l-14.834,34.615l-14.768-34.615C203.656,254.506,215.906,254.424,223.406,253.084z"/>
		<path fill="#FFFFFF" d="M208.518,37.635c-59.785,0-108.25,48.465-108.25,108.25c0,55.117,41.193,100.613,94.473,107.381
			c-0.301-0.063-0.596-0.125-0.92-0.191l-23.893-55.225h-0.045l-1.33-3.184l-0.075-0.174h0.003l-34.161-81.789h1.041
			c23.009,8.854,47.998,13.719,74.128,13.719c25.788,0,50.466-4.74,73.227-13.375l-35.629,84.99h-0.049l-23.641,55.025
			c-0.217,0.049-0.411,0.09-0.617,0.135c-2.229,0.295-4.479,0.516-6.746,0.674c56.275-3.861,100.699-50.729,100.699-107.986
			C316.732,86.1,268.303,37.635,208.518,37.635z"/>
	</g>
</g>
</svg>
