<?xml version="1.0" encoding="utf-8"?>
<!-- Generator: Adobe Illustrator 16.0.0, SVG Export Plug-In . SVG Version: 6.00 Build 0)  -->
<!DOCTYPE svg PUBLIC "-//W3C//DTD SVG 1.1//EN" "http://www.w3.org/Graphics/SVG/1.1/DTD/svg11.dtd">
<svg version="1.1" xmlns="http://www.w3.org/2000/svg" xmlns:xlink="http://www.w3.org/1999/xlink" x="0px" y="0px"
	 width="631.394px" height="425.197px" viewBox="0 0 631.394 425.197" enable-background="new 0 0 631.394 425.197"
	 xml:space="preserve">
<g id="Capa_1">
</g>
<g id="logo">
</g>
<g id="guias">
</g>
<g id="pruebas">
</g>
<g id="pruebas_guias">
</g>
<g id="logo2">
</g>
<g id="guias2">
</g>
<g id="Capa_8">
</g>
<g id="Capa_9">
</g>
<g id="Variantes1">
</g>
<g id="variantes1_guia">
</g>
<g id="Variantes2">
</g>
<g id="fondo">
</g>
<g id="seleccion1">
</g>
<g id="seleccion3">
</g>
<g id="guias_1_" display="none">
</g>
<g id="para_web">
	<rect x="-219" y="0.1" display="none" fill="#0893D2" width="850.394" height="425.197"/>
	<g display="none">
		<g display="inline">
			<path fill="#FFFFFF" d="M-52.787,95.586c-52.329,0-94.754,42.424-94.754,94.756c0,48.245,36.059,88.07,82.695,93.992
				c-0.264-0.052-0.523-0.107-0.807-0.168l-20.912-48.34h-0.04l-1.161-2.783l-0.068-0.156h0.004l-29.904-71.59h0.914
				c20.141,7.749,42.012,12.009,64.885,12.009c22.572,0,44.175-4.147,64.099-11.71l-31.188,74.397h-0.043L-39.76,284.16
				c-0.191,0.039-0.361,0.076-0.541,0.117c-1.952,0.256-3.92,0.448-5.906,0.587c49.259-3.377,88.146-44.401,88.146-94.522
				C41.939,138.01-0.457,95.586-52.787,95.586z"/>
		</g>
	</g>
	<g>
		<g>
			<path fill="#FFFFFF" d="M98.119,250.806h1.328l5.729,12.661h-1.526l-1.473-3.322h-6.842l-1.491,3.322H92.39L98.119,250.806z
				 M101.621,258.869l-2.855-6.41l-2.874,6.41H101.621z"/>
			<path fill="#FFFFFF" d="M109.366,252.206h-4.221v-1.311h9.878v1.311h-4.221v11.261h-1.437V252.206z"/>
			<path fill="#FFFFFF" d="M117.686,250.896h1.418v11.26h7.076v1.312h-8.494V250.896z"/>
			<path fill="#FFFFFF" d="M133.457,250.806h1.328l5.729,12.661h-1.525l-1.473-3.322h-6.843l-1.491,3.322h-1.454L133.457,250.806z
				 M136.959,258.869l-2.855-6.41l-2.874,6.41H136.959z"/>
			<path fill="#FFFFFF" d="M141.92,261.635l0.881-1.041c1.311,1.185,2.568,1.777,4.311,1.777c1.688,0,2.802-0.897,2.802-2.137
				v-0.036c0-1.167-0.63-1.832-3.27-2.389c-2.892-0.629-4.22-1.563-4.22-3.628v-0.036c0-1.976,1.742-3.43,4.129-3.43
				c1.832,0,3.145,0.521,4.42,1.544l-0.826,1.096c-1.168-0.952-2.335-1.365-3.629-1.365c-1.634,0-2.676,0.898-2.676,2.03v0.035
				c0,1.186,0.647,1.851,3.412,2.442c2.803,0.611,4.096,1.635,4.096,3.557v0.036c0,2.154-1.797,3.556-4.293,3.556
				C145.063,263.646,143.43,262.981,141.92,261.635z"/>
			<path fill="#FFFFFF" d="M159.633,250.896h1.33l7.92,10.075v-10.075h1.383v12.571h-1.133l-8.116-10.309v10.309h-1.384V250.896z"/>
			<path fill="#FFFFFF" d="M178.479,250.806h1.329l5.728,12.661h-1.525l-1.473-3.322h-6.843l-1.491,3.322h-1.453L178.479,250.806z
				 M181.98,258.869l-2.855-6.41l-2.873,6.41H181.98z"/>
			<path fill="#FFFFFF" d="M186.727,257.217v-0.036c0-3.556,2.657-6.501,6.357-6.501c2.279,0,3.646,0.808,4.902,1.993l-0.97,1.042
				c-1.06-1.006-2.244-1.725-3.951-1.725c-2.783,0-4.866,2.264-4.866,5.154v0.036c0,2.91,2.101,5.19,4.866,5.19
				c1.725,0,2.856-0.664,4.06-1.813l0.934,0.916c-1.311,1.329-2.748,2.209-5.028,2.209
				C189.402,263.683,186.727,260.827,186.727,257.217z"/>
			<path fill="#FFFFFF" d="M200.666,250.896h1.42v12.571h-1.42V250.896z"/>
			<path fill="#FFFFFF" d="M205.212,257.217v-0.036c0-3.466,2.603-6.501,6.429-6.501s6.394,2.999,6.394,6.465v0.036
				c0,3.467-2.604,6.502-6.429,6.502C207.779,263.683,205.212,260.683,205.212,257.217z M216.562,257.217v-0.036
				c0-2.855-2.083-5.19-4.956-5.19c-2.875,0-4.921,2.299-4.921,5.154v0.036c0,2.855,2.083,5.19,4.956,5.19
				S216.562,260.072,216.562,257.217z"/>
			<path fill="#FFFFFF" d="M221.039,250.896h1.328l7.92,10.075v-10.075h1.384v12.571h-1.132l-8.117-10.309v10.309h-1.383V250.896z"
				/>
			<path fill="#FFFFFF" d="M239.884,250.806h1.329l5.729,12.661h-1.525l-1.474-3.322H237.1l-1.49,3.322h-1.455L239.884,250.806z
				 M243.385,258.869l-2.854-6.41l-2.874,6.41H243.385z"/>
			<path fill="#FFFFFF" d="M249.425,250.896h1.419v11.26h7.075v1.312h-8.494V250.896z"/>
			<path fill="#FFFFFF" d="M266.059,250.896h1.42v12.571h-1.42V250.896z"/>
			<path fill="#FFFFFF" d="M271.162,250.896h1.329l7.92,10.075v-10.075h1.382v12.571h-1.131l-8.117-10.309v10.309h-1.383V250.896z"
				/>
			<path fill="#FFFFFF" d="M288.677,252.206h-4.221v-1.311h9.878v1.311h-4.221v11.261h-1.437V252.206z"/>
			<path fill="#FFFFFF" d="M296.996,250.896h9.088v1.293h-7.668v4.292h6.859v1.293h-6.859v4.4h7.757v1.293h-9.177V250.896z"/>
			<path fill="#FFFFFF" d="M309.033,250.896h5.404c1.545,0,2.785,0.467,3.575,1.257c0.61,0.61,0.97,1.49,0.97,2.479v0.037
				c0,2.082-1.438,3.303-3.412,3.662l3.861,5.137h-1.742l-3.646-4.885h-3.593v4.885h-1.418V250.896z M314.313,257.307
				c1.886,0,3.231-0.97,3.231-2.586v-0.036c0-1.545-1.186-2.479-3.214-2.479h-3.88v5.101H314.313z"/>
			<path fill="#FFFFFF" d="M326.674,250.806h1.329l5.728,12.661h-1.525l-1.473-3.322h-6.843l-1.491,3.322h-1.455L326.674,250.806z
				 M330.176,258.869l-2.855-6.41l-2.874,6.41H330.176z"/>
			<path fill="#FFFFFF" d="M334.922,257.217v-0.036c0-3.556,2.657-6.501,6.357-6.501c2.281,0,3.646,0.808,4.902,1.993l-0.97,1.042
				c-1.06-1.006-2.244-1.725-3.951-1.725c-2.783,0-4.866,2.264-4.866,5.154v0.036c0,2.91,2.101,5.19,4.866,5.19
				c1.725,0,2.856-0.664,4.06-1.813l0.934,0.916c-1.311,1.329-2.748,2.209-5.028,2.209
				C337.598,263.683,334.922,260.827,334.922,257.217z"/>
			<path fill="#FFFFFF" d="M352.059,252.206h-4.22v-1.311h9.878v1.311h-4.221v11.261h-1.438V252.206z"/>
			<path fill="#FFFFFF" d="M360.503,250.896h1.419v12.571h-1.419V250.896z"/>
			<path fill="#FFFFFF" d="M364.527,250.896h1.582l4.471,10.829l4.49-10.829h1.527l-5.406,12.661h-1.258L364.527,250.896z"/>
			<path fill="#FFFFFF" d="M377.787,257.217v-0.036c0-3.466,2.604-6.501,6.429-6.501c3.827,0,6.394,2.999,6.394,6.465v0.036
				c0,3.467-2.604,6.502-6.429,6.502C380.354,263.683,377.787,260.683,377.787,257.217z M389.137,257.217v-0.036
				c0-2.855-2.084-5.19-4.956-5.19c-2.874,0-4.921,2.299-4.921,5.154v0.036c0,2.855,2.082,5.19,4.956,5.19
				S389.137,260.072,389.137,257.217z"/>
			<path fill="#FFFFFF" d="M399.004,250.896h4.363c3.951,0,6.682,2.712,6.682,6.249v0.036c0,3.538-2.73,6.286-6.682,6.286h-4.363
				V250.896z M403.367,262.155c3.18,0,5.209-2.153,5.209-4.938v-0.036c0-2.783-2.029-4.975-5.209-4.975h-2.944v9.949H403.367z"/>
			<path fill="#FFFFFF" d="M413.053,250.896h9.086v1.293h-7.667v4.292h6.86v1.293h-6.86v4.4h7.758v1.293h-9.177V250.896z"/>
			<path fill="#FFFFFF" d="M435.131,250.806h1.329l5.729,12.661h-1.526l-1.473-3.322h-6.844l-1.49,3.322h-1.454L435.131,250.806z
				 M438.633,258.869l-2.855-6.41l-2.875,6.41H438.633z"/>
			<path fill="#FFFFFF" d="M444.672,250.896h5.404c1.546,0,2.785,0.467,3.574,1.257c0.611,0.61,0.971,1.49,0.971,2.479v0.037
				c0,2.082-1.437,3.303-3.412,3.662l3.861,5.137h-1.742l-3.646-4.885h-3.591v4.885h-1.419V250.896z M449.951,257.307
				c1.887,0,3.233-0.97,3.233-2.586v-0.036c0-1.545-1.185-2.479-3.216-2.479h-3.878v5.101H449.951z"/>
			<path fill="#FFFFFF" d="M457.104,257.217v-0.036c0-3.448,2.532-6.501,6.304-6.501c2.119,0,3.429,0.61,4.687,1.67l-0.916,1.078
				c-0.969-0.844-2.047-1.438-3.824-1.438c-2.784,0-4.777,2.354-4.777,5.154v0.036c0,3,1.92,5.227,4.975,5.227
				c1.436,0,2.766-0.557,3.627-1.257v-3.125h-3.824v-1.275h5.189v5.011c-1.166,1.042-2.928,1.922-5.047,1.922
				C459.545,263.683,457.104,260.809,457.104,257.217z"/>
			<path fill="#FFFFFF" d="M471.744,250.896h9.088v1.293h-7.668v4.292h6.859v1.293h-6.859v4.4h7.758v1.293h-9.178V250.896z"/>
			<path fill="#FFFFFF" d="M483.782,250.896h1.329l7.92,10.075v-10.075h1.383v12.571h-1.132l-8.116-10.309v10.309h-1.384V250.896z"
				/>
			<path fill="#FFFFFF" d="M501.297,252.206h-4.221v-1.311h9.878v1.311h-4.221v11.261h-1.437V252.206z"/>
			<path fill="#FFFFFF" d="M509.74,250.896h1.42v12.571h-1.42V250.896z"/>
			<path fill="#FFFFFF" d="M514.844,250.896h1.329l7.92,10.075v-10.075h1.382v12.571h-1.131l-8.117-10.309v10.309h-1.383V250.896z"
				/>
			<path fill="#FFFFFF" d="M533.688,250.806h1.329l5.729,12.661h-1.526l-1.473-3.322h-6.843l-1.49,3.322h-1.455L533.688,250.806z
				 M537.19,258.869l-2.854-6.41l-2.875,6.41H537.19z"/>
		</g>
		<g>
			<path fill="#FFFFFF" d="M129.305,156.318h11.094l29.977,68.611h-12.654l-6.908-16.447H118.6l-7.008,16.447H99.33L129.305,156.318
				z M146.433,197.875l-11.775-27.25l-11.679,27.25H146.433z"/>
			<path fill="#FFFFFF" d="M208.32,156.806h11.096l36.494,47.103v-47.103h11.775v68.124h-10.023l-37.566-48.466v48.466H208.32
				V156.806z"/>
			<path fill="#FFFFFF" d="M312.153,156.806h11.97v68.124h-11.97V156.806z"/>
			<path fill="#FFFFFF" d="M368.593,156.806h25.401c21.41,0,36.201,14.696,36.201,33.867v0.194
				c0,19.173-14.791,34.063-36.201,34.063h-25.401V156.806z M393.994,214.029c14.306,0,23.648-9.634,23.648-22.967v-0.195
				c0-13.333-9.343-23.162-23.648-23.162h-13.432v46.324H393.994z"/>
			<path fill="#FFFFFF" d="M490.432,156.318h11.095l29.976,68.611h-12.653l-6.909-16.447h-32.213l-7.008,16.447h-12.262
				L490.432,156.318z M507.561,197.875l-11.777-27.25l-11.678,27.25H507.561z"/>
		</g>
	</g>
</g>
<g id="seleccion2">
</g>
<g id="arge">
</g>
<g id="Capa_20">
</g>
<g id="Capa_21">
</g>
</svg>
