<?xml version="1.0" encoding="utf-8"?>
<!-- Generator: Adobe Illustrator 25.2.0, SVG Export Plug-In . SVG Version: 6.00 Build 0)  -->
<svg version="1.1" id="Capa_1" xmlns="http://www.w3.org/2000/svg" xmlns:xlink="http://www.w3.org/1999/xlink" x="0px" y="0px"
	 viewBox="0 0 276 200" style="enable-background:new 0 0 276 200;" xml:space="preserve">
<style type="text/css">
	.st0{fill:#FFFFFF;}
</style>
<g>
	<g>
		<g id="Capa_1_1_">
		</g>
		<g id="f_3_">
			<path class="st0" d="M201.7,40.9h-124c-4.7,0-8.5,3.8-8.5,8.5v124c0,4.7,3.8,8.5,8.5,8.5h66.2v-55h-18.3V105h18.3V85.4
				c-0.1-4.2,4.2-24,25-24h18.7v20.4c0,0-11.8-0.1-14,0c-4.5,0-7.1,4.2-7.1,6.6V105h21.1l-3.5,22.6h-18.3v54.3h35.9
				c4.7,0,8.5-3.8,8.5-8.5v-124C210.1,44.7,206.4,40.9,201.7,40.9z"/>
		</g>
		<g id="yt_3_">
		</g>
	</g>
</g>
</svg>
