<?xml version="1.0" encoding="utf-8"?>
<!-- Generator: Adobe Illustrator 25.2.0, SVG Export Plug-In . SVG Version: 6.00 Build 0)  -->
<svg version="1.1" id="Capa_1" xmlns="http://www.w3.org/2000/svg" xmlns:xlink="http://www.w3.org/1999/xlink" x="0px" y="0px"
	 viewBox="0 0 276 200" style="enable-background:new 0 0 276 200;" xml:space="preserve">
<style type="text/css">
	.st0{fill:#FAFAFA;}
</style>
<g>
	<g>
		<g id="Capa_1_2_">
			<g>
				<path class="st0" d="M195.5,40.9H89.4c-9.5,0-20.3,7.1-20.3,16.7v106.2c0,9.4,10.8,19,20.3,19h106c9.5,0,14.7-9.5,14.7-19V57.6
					C210.2,48,205,40.9,195.5,40.9z M189.8,86.3c0,1,0.1,2.1,0.1,3.1c0,32.3-24.6,69.5-69.5,69.5c-13.7,0-26.6-4-37.4-10.9
					c1.9,0.2,3.8,0.4,5.9,0.4c11.4,0,22-3.9,30.3-10.5c-10.7-0.2-19.7-7.2-22.8-16.9c1.5,0.3,3,0.4,4.6,0.4c2.2,0,3.3-0.3,5.3-0.9
					c-11.2-2.1-20.8-12.1-20.8-24v-0.4c0,1.8,8.2,3,12.2,3c-6.5-4.3-10.3-11.8-10.3-20.3c0-4.5,1.5-8.6,3.6-12.3
					c12,14.8,30.2,24.5,50.5,25.5c-0.4-1.8-0.6-3.7-0.6-5.5c0-13.5,11-24.4,24.5-24.4c7.1,0,13.4,2.9,17.9,7.7
					c5.6-1.1,10.8-3,15.5-5.9c-1.8,5.7-5.7,10.5-10.7,13.5c4.9-0.6,9.6-1.9,14-3.8C198.7,78.5,194.6,82.9,189.8,86.3z"/>
			</g>
		</g>
		<g id="f_1_">
		</g>
		<g id="yt_1_">
		</g>
	</g>
</g>
</svg>
