<?xml version="1.0" encoding="utf-8"?>
<!-- Generator: Adobe Illustrator 25.2.0, SVG Export Plug-In . SVG Version: 6.00 Build 0)  -->
<svg version="1.1" id="Capa_1" xmlns="http://www.w3.org/2000/svg" xmlns:xlink="http://www.w3.org/1999/xlink" x="0px" y="0px"
	 viewBox="0 0 276 200" style="enable-background:new 0 0 276 200;" xml:space="preserve">
<style type="text/css">
	.st0{fill:#FAFAFA;}
</style>
<g>
	<g>
		<path class="st0" d="M196.2,36.6H85.6c-9.9,0-19,11.7-19,21.7v110.6c0,9.9,9.1,15.1,19,15.1h110.6c9.9,0,17.8-5.2,17.8-15.1V58.2
			C214,48.3,206.1,36.6,196.2,36.6z M195.5,130.5c0,5.8-0.3,11.5-2.1,16.9c-3.8,10.9-11.4,17.5-22.6,19.6c-5,1-10.2,1.2-15,1.3
			c-4.6,0.1-9.4,0.1-14,0.1c-6,0-11.9,0-17.8-0.1c-5.7-0.1-11.4-0.2-16.9-2.1c-10.9-3.6-17.5-11.3-19.6-22.5c-1-4.6-1.1-9.3-1.3-15
			c-0.1-11.1-0.1-21.9,0-31.9c0.1-5.8,0.3-11.4,2.2-16.9c3.7-10.8,11.3-17.4,22.5-19.6c4.2-0.7,8.5-0.9,12.8-1.1h2.1
			c3.5-0.1,5.1-0.1,8.5-0.1c1.1,0,1.5,0,1.5,0l0,0L139,59c2.7,0.1,6.3,0.1,9.1,0.1c4.5,0.1,9.5,0.1,14.1,0.2
			c7.4,0.2,13.4,1.7,18.4,4.7c7.5,4.6,12.2,11.2,13.6,19.8c0.7,4.3,1.2,9,1.3,15C195.7,109.8,195.6,121,195.5,130.5z"/>
	</g>
	<g id="f_3_">
	</g>
	<g id="yt_3_">
	</g>
</g>
<g>
	<path class="st0" d="M133.9,121.7c-0.6,1.2-1,2-1.4,2.6c-7.4,8.7-14.9,17.3-22.1,26.2c-2.6,3.2-5.5,3.6-9.6,2.8
		c1-1.2,1.8-2.2,2.4-3.2c8.7-10.1,17.3-20.3,25.9-30.3c1.6-1.8,1.6-3,0.2-4.8c-9.6-13.4-19.1-26.9-28.5-40.4c-0.8-1-1.6-2-2.6-3.8
		c1.6,0,2.4-0.3,3.7-0.2c6.4,0,12.7,0,19.1,0c2.2-0.1,3.5,0.7,4.7,2.4c5.8,8.3,11.7,16.5,17.5,24.8c0.6,0.8,1.2,1.8,2.2,3
		c1-1,1.8-1.8,2.4-2.6c7.1-8,14-16.1,20.7-24.5c2.6-3.2,5.5-3.2,9.4-2.6c-1,1.2-1.6,2.2-2.4,3c-8.5,9.9-16.7,19.7-25.1,29.4
		c-1.4,1.6-1.6,2.8-0.2,4.6c10.3,14.3,20.3,28.5,30.6,42.9c0.4,0.8,1,1.4,1.6,2.6c-2.3,0-3.5,0.5-6.3-0.1c-4.6,0-9,0-13.5,0
		c-4,0.8-6.1,0.3-7.8-2.2c-6-8.5-12.1-16.9-18.1-25.5C136.2,124.7,135.6,123.7,133.9,121.7z M109.6,76.2c0.4,0.8,0.6,1.4,0.8,1.8
		c16.3,22.7,32.6,45.7,48.9,68.4c0.4,0.6,1.2,1.4,1.8,1.4c3.2,0.2,6.4,0,10.1,0c-0.4-0.8-0.6-1.4-0.8-1.6
		c-16.3-22.9-32.6-45.7-48.9-68.6c-0.4-0.6-1.4-1.4-2-1.4C116.3,76.2,113,76.2,109.6,76.2z"/>
</g>
</svg>
