<?xml version="1.0" encoding="utf-8"?>
<!-- Generator: Adobe Illustrator 25.2.0, SVG Export Plug-In . SVG Version: 6.00 Build 0)  -->
<svg version="1.1" id="Capa_1" xmlns="http://www.w3.org/2000/svg" xmlns:xlink="http://www.w3.org/1999/xlink" x="0px" y="0px"
	 viewBox="0 0 276 200" style="enable-background:new 0 0 276 200;" xml:space="preserve">
<style type="text/css">
	.st0{fill:#FFFFFF;}
</style>
<g>
	<path class="st0" d="M126.5,125.4c-0.9,1.9-1.6,3.1-2.2,4.1c-11.6,13.5-23.2,27-34.5,40.8c-4.1,5-8.5,5.6-15,4.4
		c1.6-1.9,2.8-3.4,3.8-5c13.5-15.7,27-31.7,40.4-47.3c2.5-2.8,2.5-4.7,0.3-7.5C104.3,94,89.6,73,74.8,52c-1.3-1.6-2.5-3.1-4.1-6
		c2.5,0,3.8-0.4,5.8-0.3c9.9,0,19.8,0,29.8,0c3.5-0.1,5.4,1.1,7.4,3.8c9.1,12.9,18.2,25.7,27.3,38.6c0.9,1.3,1.9,2.8,3.4,4.7
		c1.6-1.6,2.8-2.8,3.8-4.1c11-12.5,21.9-25.1,32.3-38.2c4.1-5,8.5-5,14.7-4.1c-1.6,1.9-2.5,3.4-3.8,4.7
		c-13.2,15.4-26,30.7-39.2,45.8c-2.2,2.5-2.5,4.4-0.3,7.2c16,22.3,31.7,44.5,47.7,66.8c0.6,1.3,1.6,2.2,2.5,4.1
		c-3.6,0-5.5,0.8-9.8-0.2c-7.1,0-14,0-21.1,0c-6.3,1.3-9.5,0.4-12.1-3.5c-9.4-13.2-18.8-26.3-28.2-39.8
		C130,130.1,129.1,128.5,126.5,125.4z M88.6,54.5c0.6,1.3,0.9,2.2,1.3,2.8c25.4,35.4,50.8,71.2,76.2,106.6c0.6,0.9,1.9,2.2,2.8,2.2
		c5,0.3,10,0,15.7,0c-0.6-1.3-0.9-2.2-1.3-2.5c-25.4-35.7-50.8-71.2-76.2-106.9c-0.6-0.9-2.2-2.2-3.1-2.2
		C99,54.5,93.9,54.5,88.6,54.5z"/>
</g>
</svg>
