<?xml version="1.0" encoding="utf-8"?>
<!-- Generator: Adobe Illustrator 25.2.0, SVG Export Plug-In . SVG Version: 6.00 Build 0)  -->
<svg version="1.1" id="Capa_1" xmlns="http://www.w3.org/2000/svg" xmlns:xlink="http://www.w3.org/1999/xlink" x="0px" y="0px"
	 viewBox="0 0 276 200" style="enable-background:new 0 0 276 200;" xml:space="preserve">
<style type="text/css">
	.st0{fill:#FFFFFF;}
</style>
<g>
	<g>
		<g id="Capa_1_2_">
		</g>
		<g id="f_1_">
		</g>
		<g id="yt_1_">
			<path class="st0" d="M198,36.6H87.6c-9.9,0-21,11.6-21,21.5v111.7c0,10,11.1,15.3,21,15.3H198c9.9,0,15.5-5.3,15.5-15.3V58.1
				C213.5,48.2,208,36.6,198,36.6z M188.4,133.5c-2.8,5.6-4.1,7.4-9.6,9.7c-5.5,2.3-66,2-76.3,0c-6.5-1.8-8.5-4.5-10-9.7
				c-1.6-5.3-1.9-41,0-46.2c1.9-5.1,2.5-7.4,10-9.7c7.5-2.4,67.8-2.4,76.3,0c4.8,1.1,8.4,4,9.6,9.7
				C189.7,93.1,191.3,127.9,188.4,133.5z"/>
			<polygon class="st0" points="130.9,95.6 130.9,126.1 155.7,110.7 			"/>
		</g>
	</g>
</g>
</svg>
