<?xml version="1.0" encoding="utf-8"?>
<!-- Generator: Adobe Illustrator 25.2.0, SVG Export Plug-In . SVG Version: 6.00 Build 0)  -->
<svg version="1.1" id="Capa_1" xmlns="http://www.w3.org/2000/svg" xmlns:xlink="http://www.w3.org/1999/xlink" x="0px" y="0px"
	 viewBox="0 0 276 200" style="enable-background:new 0 0 276 200;" xml:space="preserve">
<style type="text/css">
	.st0{fill:#FAFAFA;}
</style>
<g>
	<g>
		<g id="Capa_1_3_">
			<g>
				<path class="st0" d="M183.4,100.1c-0.1-3.9-0.2-8-0.7-12.1c-0.8-8.6-5.9-14.2-14.1-15.8c-4.8-0.9-9.7-1-14.4-1
					C149.6,71,145,71,140.4,71c-4.2,0-8.5,0-12.8,0.1c-4.2,0.1-9.1,0.2-13.7,0.9c-7.4,1.2-12.2,5.4-14.1,12.4
					c-0.7,2.4-1.1,4.9-1.1,7.3c-0.2,11.7-0.4,20.7-0.3,29c0,7.1,0.2,13,0.7,18.3c0.8,8.6,5.7,14.3,14.1,15.8c4.7,0.9,9.9,1,14.4,1.1
					c8.8,0.1,17.7,0.1,26.5,0c4.1,0,8.3-0.3,12.2-0.7c3.8-0.4,7.1-1.6,9.8-3.7c4.2-3.4,6.3-8.2,6.7-14.6c0.2-5.7,0.4-11.7,0.4-17.4
					l0.3-7.1c-0.1-1-0.2-2.6-0.2-5.5C183.5,104.7,183.5,101.9,183.4,100.1z M140.8,142.2c-7.7,0-15-2.9-20.3-8.5
					c-5.3-5.5-8.3-12.7-8.3-20.6c0-15.6,13-28.4,28.9-28.4c16,0.1,28.6,12.7,28.6,29C169.7,129.5,156.7,142.2,140.8,142.2z
					 M169.6,92.7h-0.1c-4.2,0-7.7-3.4-7.7-7.7c-0.1-2,0.7-4,2.2-5.4c2.9-2.9,8.1-2.9,11,0c1.4,1.4,2.2,3.4,2.2,5.5
					C177.1,89.3,173.7,92.7,169.6,92.7z"/>
				<path class="st0" d="M196.2,36.6H85.6c-9.9,0-19,11.7-19,21.7v110.6c0,9.9,9.1,15.1,19,15.1h110.6c9.9,0,17.8-5.2,17.8-15.1
					V58.2C214,48.3,206.1,36.6,196.2,36.6z M195.5,130.5c0,5.8-0.3,11.5-2.1,16.9c-3.8,10.9-11.4,17.5-22.6,19.6
					c-5,1-10.2,1.2-15,1.3c-4.6,0.1-9.4,0.1-14,0.1c-6,0-11.9,0-17.8-0.1c-5.7-0.1-11.4-0.2-16.9-2.1c-10.9-3.6-17.5-11.3-19.6-22.5
					c-1-4.6-1.1-9.3-1.3-15c-0.1-11.1-0.1-21.9,0-31.9c0.1-5.8,0.3-11.4,2.2-16.9c3.7-10.8,11.3-17.4,22.5-19.6
					c4.2-0.7,8.5-0.9,12.8-1.1h2.1c3.5-0.1,5.1-0.1,8.5-0.1c1.1,0,1.5,0,1.5,0l0,0l3.2-0.1c2.7,0.1,6.3,0.1,9.1,0.1
					c4.5,0.1,9.5,0.1,14.1,0.2c7.4,0.2,13.4,1.7,18.4,4.7c7.5,4.6,12.2,11.2,13.6,19.8c0.7,4.3,1.2,9,1.3,15
					C195.7,109.8,195.6,121,195.5,130.5z"/>
			</g>
			<path class="st0" d="M141.5,98.7c-3.1,0-6,1-8.3,2.5c-0.3,0.2-0.6,0.4-0.9,0.7l-0.1,0.1c-3.5,2.9-5.9,7.1-5.9,11.6
				c0,2.7,0.4,5.2,1.3,7.6c2.5,5.2,7.8,8.8,13.9,8.8c8.6,0,15.5-7,15.5-15.5S150.1,98.7,141.5,98.7z"/>
		</g>
		<g id="f_3_">
		</g>
		<g id="yt_3_">
		</g>
	</g>
</g>
</svg>
