<?xml version="1.0" encoding="UTF-8" standalone="no"?>
<svg
   xmlns:dc="http://purl.org/dc/elements/1.1/"
   xmlns:cc="http://creativecommons.org/ns#"
   xmlns:rdf="http://www.w3.org/1999/02/22-rdf-syntax-ns#"
   xmlns:svg="http://www.w3.org/2000/svg"
   xmlns="http://www.w3.org/2000/svg"
   xmlns:sodipodi="http://sodipodi.sourceforge.net/DTD/sodipodi-0.dtd"
   xmlns:inkscape="http://www.inkscape.org/namespaces/inkscape"
   viewBox="0 0 500 500"
   version="1.1"
   id="svg51"
   sodipodi:docname="visor.svg"
   inkscape:version="0.92.3 (2405546, 2018-03-11)">
  <metadata
     id="metadata55">
    <rdf:RDF>
      <cc:Work
         rdf:about="">
        <dc:format>image/svg+xml</dc:format>
        <dc:type
           rdf:resource="http://purl.org/dc/dcmitype/StillImage" />
        <dc:title></dc:title>
      </cc:Work>
    </rdf:RDF>
  </metadata>
  <sodipodi:namedview
     pagecolor="#ffffff"
     bordercolor="#666666"
     borderopacity="1"
     objecttolerance="10"
     gridtolerance="10"
     guidetolerance="10"
     inkscape:pageopacity="0"
     inkscape:pageshadow="2"
     inkscape:window-width="1366"
     inkscape:window-height="705"
     id="namedview53"
     showgrid="false"
     inkscape:zoom="1.076"
     inkscape:cx="329.63352"
     inkscape:cy="239.21204"
     inkscape:window-x="-8"
     inkscape:window-y="-8"
     inkscape:window-maximized="1"
     inkscape:current-layer="svg51" />
  <defs
     id="defs4"><style
   id="style2">.cls-1{fill:#cbe3e8;}.cls-2{fill:none;stroke:#51a2b3;stroke-linecap:round;stroke-linejoin:round;stroke-width:5px;}</style>
<style
   id="style906">.cls-1{fill:#12b5e1;}</style>
<style
   id="style929">.cls-1{fill:#65b4e1;}</style>
<style
   id="style949">.cls-1{fill:#12b5e1;}</style>

	
	
</defs>
  <ellipse
     style="fill:#074775;fill-opacity:1;stroke:#ffdf38;stroke-width:0.24566929;stroke-miterlimit:4;stroke-dasharray:none;stroke-dashoffset:0;stroke-opacity:1"
     id="path862"
     cx="245.81778"
     cy="248.1412"
     rx="222.58363"
     ry="220.26022" />
  <style
     id="style864"
     type="text/css">
	.st0{fill:#0EB5E3;}
</style>
  <style
     id="style885"
     type="text/css">
	.st0{fill:#0EB5E3;}
</style>
  <path
     style="fill:#ffffff;fill-opacity:1;stroke-width:4.80573368"
     inkscape:connector-curvature="0"
     class="cls-1"
     d="m 173.30566,56.133438 a 36.715804,36.715804 0 0 0 -26.86405,10.668728 35.7066,35.7066 0 0 0 -10.57262,25.614571 c 0,26.767943 32.05424,66.895813 33.64014,68.577813 l 1.15337,1.44173 a 1.2014334,1.2014334 0 0 0 0.91309,0.43251 v 0 a 1.2014334,1.2014334 0 0 0 0.91309,-0.43251 l 1.20144,-1.39367 c 1.48978,-1.73006 36.043,-42.14628 36.043,-67.520546 A 36.859976,36.859976 0 0 0 173.30566,56.133438 Z m 11.58182,49.595182 a 17.6851,17.6851 0 0 1 -12.35074,4.80573 h -0.14423 a 17.733745,17.733745 0 0 1 0.28835,-35.466313 h 0.28834 a 17.733156,17.733156 0 0 1 11.91822,30.660583 z"
     id="path937" />
  <path
     inkscape:connector-curvature="0"
     d="m 389.2534,272.08365 c -0.95065,0 -0.95065,0 -1.90134,0 -18.0629,4.75342 -31.37245,1.90138 -37.07653,-8.5561 -5.70409,-9.50681 -3.80271,-23.76701 2.85204,-37.07653 7.60545,-12.35886 19.01362,-19.96429 31.37245,-19.96429 0,0 0,0 0,0 h 0.95069 c 19.0136,-0.95069 22.81632,0 23.76698,0.95069 0,0 0,0.95067 0,2.85205 0,1.90135 0,4.75338 1.90136,6.65474 1.90138,2.85204 6.65476,3.80273 15.2109,4.75342 0,0 0.95068,0 0.95068,0 0.95066,0 1.90135,0 1.90135,0 0.95069,0 0.95069,-0.95069 0.95069,-1.90138 v -36.12584 c 0,-1.90135 -1.90138,-2.85204 -3.80272,-1.90135 0,0 -0.95069,0 -0.95069,0 -1.90136,0 -1.90136,-5.70409 -1.90136,-9.50681 0,-7.60543 1.90136,-19.0136 -8.55612,-19.0136 -0.95069,0 -3.80273,0 -6.65475,0.95069 -1.90137,0.95069 -4.75341,2.85203 -4.75341,5.70408 0,2.85204 2.85204,3.80271 4.75341,4.7534 2.85202,1.90134 7.60544,3.80272 8.55611,7.60543 0,1.90138 0.95067,4.75341 -0.95067,6.65476 -0.95069,1.90136 -5.70409,1.90136 -6.65478,1.90136 -5.70407,0 -5.70407,-0.95066 -6.65474,-1.90136 0,0 0.95067,-1.90135 3.80271,-2.85204 0.95069,0 0.95069,-0.95068 0.95069,-1.90134 0,-0.95069 0,-1.90138 -0.95069,-1.90138 -8.55612,-8.55612 -13.30952,-12.35883 -18.06291,-12.35883 -3.80273,0 -6.65478,2.85204 -12.35885,6.65474 -2.85205,1.90138 -6.65474,4.75342 -10.45748,7.60547 -6.65477,1.90134 -13.30952,0.95066 -16.16155,-0.95069 -0.95069,-1.90136 -1.90138,-3.80274 -1.90138,-6.65478 0,-5.70408 2.85204,-5.70408 4.75341,-5.70408 1.90136,0 4.7534,0.95069 6.65475,0.95069 4.75342,0.95069 8.55613,1.90136 10.45751,-0.95069 1.90134,-1.90135 0.95065,-4.75338 0.95065,-6.65474 -1.90134,-7.60543 7.60544,-11.40817 20.91498,-15.2109 7.60543,-1.90134 13.30952,-3.8027 15.21087,-7.60543 0,-0.95069 0.95069,-0.95069 0,-1.90136 0,-0.95069 -0.95066,-0.95069 -1.90135,-1.90138 -4.7534,-1.90134 -13.30952,-7.60543 -13.30952,-12.3588 0,-2.85205 4.75339,-3.80274 7.60543,-4.7534 0,0 0,0 0,0 0.95069,0 1.90135,0 2.85204,-0.95069 0,-0.95068 0,-1.90134 -0.95069,-2.85203 -4.75339,-2.85205 -8.55612,-5.70409 -13.30951,-8.55613 -2.85204,-1.90135 -4.7534,-2.85204 -7.60544,-3.80273 -24.71767,-12.358832 -50.38604,-19.013598 -78.90645,-19.013598 -30.42176,0 -59.89283,7.605457 -85.5612,22.816328 -0.95069,0 -0.95069,0.95069 -0.95069,1.90135 0,0.95069 0,1.90138 0.95069,1.90138 5.70408,5.70409 19.0136,10.45747 24.71768,10.45747 2.85204,0 3.80273,-1.90135 3.80273,-1.90135 0.95067,-1.90137 -0.95069,-3.80272 -9.50681,-9.50681 -0.95069,-1.90135 -1.90136,-3.80273 -0.95069,-4.75339 0.95069,-0.95069 2.85204,-0.95069 4.75341,-0.95069 6.65476,0 17.11226,2.85204 19.96429,4.75339 0.95066,0 1.90135,0.95069 2.85204,0.95069 -0.95069,0.95069 -3.80273,1.90135 -7.60545,3.80273 -1.90136,0.95066 -2.85205,0.95066 -2.85205,1.90136 -0.95066,1.90135 -1.90135,4.75338 -0.95066,6.65476 1.90135,2.85205 6.65474,4.7534 9.50678,4.7534 4.7534,0 7.60543,-1.90135 8.55612,-5.70409 0.95069,-5.70407 3.80274,-5.70407 4.7534,-5.70407 2.85204,0 5.70408,0.95069 7.60546,1.90135 3.80271,1.90137 7.60543,1.90137 13.30952,0.95068 2.85203,-0.95068 5.70408,-0.95068 8.55612,-0.95068 9.50679,0 16.16156,5.70408 16.16156,9.50681 0,2.85202 -2.85205,4.75338 -8.55613,5.70407 0,0 -0.95069,0 -0.95069,0 -2.85204,1.90135 -6.65474,3.80269 -9.50678,3.80269 -1.90136,0 -2.85205,-0.95065 -3.80274,-0.95065 0,-0.95069 0,-1.90138 0.95069,-1.90138 0.95069,-0.95066 0.95069,-2.85202 0,-4.7534 -0.95069,-0.95066 -1.90135,-1.90133 -3.80272,-1.90133 0,0 0,0 0,0 -19.96429,1.90133 -40.87924,4.75338 -46.58331,12.35881 -0.95069,1.90138 -0.95069,3.80273 -0.95069,5.70409 0.95069,1.90137 2.85203,3.80272 4.75341,4.75341 1.90135,0.95066 2.85204,2.85205 3.80271,5.70409 0.95069,2.85203 1.90138,5.70408 4.75341,5.70408 1.90135,0 2.85204,-0.95069 4.7534,-2.85205 8.55612,-0.95069 11.40816,-5.70407 13.30951,-10.4575 1.90135,-3.8027 3.80273,-5.70408 8.55612,-5.70408 h 0.95069 c 0.95066,0 1.90135,0 1.90135,0.95069 0.95069,0.95069 0,1.90136 0,3.80273 0,1.90135 0,4.75339 1.90136,5.70409 6.65476,-5.70409 7.60545,-5.70409 8.55612,-5.70409 1.90135,0 3.80273,-0.95068 5.70407,-0.95068 0,1.90134 0,3.80272 1.90136,6.65477 0,0 0.95069,0.95066 0.95069,0.95066 4.7534,1.90138 4.7534,3.80272 4.7534,3.80272 -0.95067,0.95069 -3.80271,1.90136 -10.45748,1.90136 -3.80271,0 -7.60543,-0.95067 -9.50678,-1.90136 -0.95069,0 -1.90138,0 -1.90138,0 -18.06291,9.50681 -44.68196,29.47107 -57.99149,45.63267 -3.80273,-8.55614 -10.45747,-10.45751 -15.21086,-10.45751 -12.35885,0 -26.61906,13.30951 -26.61906,20.91497 0,1.90135 0.95069,3.80271 2.85204,4.7534 3.80274,2.85204 19.0136,-2.85205 19.96429,-0.95069 0,0.95069 -0.95069,2.85204 -1.90136,3.80273 -1.90138,2.85203 -2.85203,4.75339 -1.90138,5.70408 0,0.95069 0.95069,0.95069 1.90138,1.90135 3.80271,1.90138 5.70409,5.70408 7.60543,10.45751 1.90136,4.75338 4.7534,10.45747 10.45748,10.45747 3.80273,0 8.55612,-2.85204 14.26021,-7.60547 3.80272,0.95069 3.80272,1.90138 4.75339,3.80274 0.95069,1.90135 1.90138,5.70407 8.55612,5.70407 1.90138,0 2.85204,0 5.70409,-0.95067 12.35885,5.70407 16.16155,13.30953 19.96429,19.96427 2.85203,4.75343 5.70407,9.50681 10.45747,13.30952 0,0 0.95069,0 0.95069,0.95069 11.40815,0.95069 19.96428,5.70408 21.86563,11.40817 0.95069,4.75338 -2.85203,9.50681 -7.60543,13.30951 0,0 -0.95069,0.95069 -0.95069,1.90138 -1.90136,15.21087 -4.75339,17.11221 -9.50679,19.01359 -5.70407,2.85205 -15.21088,6.65474 -28.52041,31.37243 -1.90138,2.85205 -4.75341,3.80272 -8.55612,3.80272 -1.90135,0 -2.85204,0 -4.75338,0 -4.75343,-0.95067 -5.70409,0.9507 -5.70409,1.90137 -0.95069,1.90138 0,2.85203 1.90135,4.75342 -1.90135,4.75339 -1.90135,7.60543 0,10.45747 0.95069,1.90134 1.90136,3.80273 0,9.50678 0,0.95069 0,1.90137 0.95069,1.90137 3.8027,4.7534 4.75339,7.60545 4.75339,7.60545 0,0 0,0 -0.95069,0 -2.85203,0 -9.50679,-3.80274 -12.35882,-10.45747 -9.50681,-19.9643 -10.4575,-40.87924 -3.80273,-73.20238 0,-0.95068 0,-1.90135 -0.95069,-1.90135 -19.96427,-20.91497 -23.76699,-33.2738 -15.21087,-54.18878 0.95069,-2.85204 0.95069,-6.65474 -0.95069,-8.55612 -0.95066,-2.85203 -3.80271,-3.8027 -6.65474,-4.75339 -5.70409,-0.95069 -8.55612,-5.70409 -11.40816,-10.45747 -2.85205,-3.80274 -4.75343,-8.55613 -10.45751,-11.40817 -0.95066,0 -1.90135,0 -1.90135,0 -1.90135,0.95069 -3.8027,1.90135 -5.70408,1.90135 -5.70409,0 -7.60543,-8.55612 -8.55612,-20.91495 -0.95066,-8.55612 -0.95066,-16.16155 -5.70409,-19.01359 -1.90135,-1.90139 -3.80269,-2.85205 -4.75338,-2.85205 -3.80274,0 -3.80274,3.80271 -4.7534,7.60544 -0.95069,5.70408 -1.90138,7.60544 -4.75342,7.60544 0,0 -0.95066,0 -0.95066,0 -3.80273,-1.90137 -3.80273,-4.7534 -0.95069,-10.45749 0.95069,-3.80274 2.85204,-6.65477 0.95069,-10.45748 0,-4.75342 -0.95069,-4.75342 -1.90138,-4.75342 -0.95066,0 -1.90135,0 -1.90135,0.95069 -11.40817,23.76703 -17.11225,48.48469 -17.11225,75.10372 0,94.11734 77.00511,171.12243 171.12243,171.12243 32.32312,0 63.69556,-8.55612 90.3146,-25.66836 l 1.90137,-0.95069 c 0.95066,-0.95069 0.95066,-1.90136 0.95066,-2.85204 -1.90135,-7.60544 -2.85203,-14.26021 -2.85203,-21.86564 0,-12.35885 2.85203,-24.71767 8.55612,-36.12583 0,0 0,-0.95069 0,-0.95069 0,-21.86564 1.90137,-45.63263 -17.11226,-53.2381 z"
     id="path1061"
     style="stroke-width:9.50680065;stroke:none;stroke-opacity:1;fill:#ffffff;fill-opacity:1" />
</svg>
