<?xml version="1.0" encoding="utf-8"?>
<!-- Generator: Adobe Illustrator 25.2.0, SVG Export Plug-In . SVG Version: 6.00 Build 0)  -->
<svg version="1.1"
	 id="svg51" sodipodi:docname="visor2.svg" xmlns:cc="http://creativecommons.org/ns#" xmlns:dc="http://purl.org/dc/elements/1.1/" xmlns:inkscape="http://www.inkscape.org/namespaces/inkscape" xmlns:rdf="http://www.w3.org/1999/02/22-rdf-syntax-ns#" xmlns:sodipodi="http://sodipodi.sourceforge.net/DTD/sodipodi-0.dtd" xmlns:svg="http://www.w3.org/2000/svg"
	 xmlns="http://www.w3.org/2000/svg" xmlns:xlink="http://www.w3.org/1999/xlink" x="0px" y="0px" viewBox="0 0 500 500"
	 style="enable-background:new 0 0 500 500;" xml:space="preserve">
<style type="text/css">
	.st0{fill:#074775;stroke:#FFDF38;stroke-width:0.2457;}
	.st1{fill:#FFFFFF;}
</style>
<ellipse id="path862" class="st0" cx="250" cy="250.4" rx="184.7" ry="182.8"/>
<sodipodi:namedview  bordercolor="#666666" borderopacity="1" gridtolerance="10" guidetolerance="10" id="namedview53" inkscape:current-layer="svg51" inkscape:cx="329.63352" inkscape:cy="233.04749" inkscape:pageopacity="0" inkscape:pageshadow="2" inkscape:window-height="705" inkscape:window-maximized="1" inkscape:window-width="1366" inkscape:window-x="-8" inkscape:window-y="-8" inkscape:zoom="1.076" objecttolerance="10" pagecolor="#ffffff" showgrid="false">
	</sodipodi:namedview>
<g id="g1137" transform="matrix(0.51865075,0,0,0.55532558,-118.34201,47.703153)">
	<g id="g1123">
		<path id="path1121" inkscape:connector-curvature="0" class="st1" d="M853.4,370c-12.3,0-22.3,9.3-22.3,20.7c0,2.5,0.3,5,1.4,7.2
			l15.9,31.3c0.9,1.8,2.9,2.9,5,2.9s4.1-1.1,5-2.9l15.9-31.3c1.1-2.2,1.4-4.8,1.4-7.2C875.7,379.3,865.7,370,853.4,370L853.4,370z
			 M853.4,401.1c-6.1,0-11.2-4.7-11.2-10.4s5-10.4,11.2-10.4c6.1,0,11.2,4.7,11.2,10.4C864.5,396.5,859.5,401.1,853.4,401.1z"/>
	</g>
	<g id="g1127">
		<path id="path1125" inkscape:connector-curvature="0" class="st1" d="M544.2,393.3V240.7c0-3.1,3-5.9,6.3-5.9h316.1
			c3.4,0,6.3,2.7,6.3,5.9v77h25.3v-77c0-16.1-14.2-29.4-31.6-29.4H550.5c-17.4,0-31.6,13.2-31.6,29.4v199.6
			c0,16.1,14.2,29.4,31.6,29.4H658c0,16-12.6,28.4-12.6,35.2c0,6.4,5.7,11.7,12.6,11.7h101.2c6.9,0,12.6-5.3,12.6-11.7
			c0-6.4-12.6-19.6-12.6-35.2h20.4v-70.4h-229C547.2,399.2,544.2,396.4,544.2,393.3L544.2,393.3z"/>
	</g>
	<g id="g1131">
		<path id="path1129" inkscape:connector-curvature="0" class="st1" d="M636.9,317c0,35.9,31.4,65.1,70.1,65.1s70.1-29.2,70.1-65.1
			s-31.4-65.1-70.1-65.1S636.9,281.1,636.9,317z M709.5,376.4c-9.5,0.1-13.2-2.3-14.9-2.4c0,0-4.1-1.8-2.1-2.4
			c2-0.6,7.6,0.6,9.6-0.3c2-0.9,2.3-0.6,3.6-1.6c1.2-1,2.5-1.3,4.5-2.1s3.7-1.4,3.7-1.4s-4.5,3.4-5.3,5c-0.8,1.6,2.7,2.8,4.1,2.8
			c1.4,0,3.3-1.1,4.4-1.1s8.7-0.4,8.7-0.4S720.9,376.2,709.5,376.4L709.5,376.4z M705.1,362.1l2.4-1.2l0.5,2.3L705.1,362.1z
			 M712.5,360.1l0.9-1.2l0.2,2.3L712.5,360.1z M713.8,358.6l1.2,1.1l-0.8,1.2L713.8,358.6z M759.9,285.6c0,0,6.9,11.1,8.9,19
			c0.5,2,1.3,5.9,1.4,11.1c0,1.7,0.2-6.7-6.3-8.3c-3.5-0.9-8.5-3.4-9.6-8.2c-1.1-4.8-1.2-11.6-0.6-12.7c0.6-1.1,4.4-2.5,4.4-2.5
			L759.9,285.6z M751.4,275.7c0,0,2.7,2.7,3.7,4.2c1,1.6,2.3,3.2,2.3,3.2s-2.3,0.2-3-0.6c-0.7-0.8-1.3-2.5-1.3-2.5l-1.1-1.3
			c0,0-0.8-0.6-0.8-1.4C751.1,276.5,751.4,275.7,751.4,275.7z M716,260.2c3.8,0.3,7,1.7,7,1.7s0.2,1-0.2,1.2
			c-0.4,0.2,1.3,0.6,1.4,1.6c0.2,1-2.9,1.8-3.2,2c-0.3,0.2-0.1,0.4-0.6,1.1c-0.5,0.7-0.4,0.2-1.5-0.1s-2.3-1.1-3.2-1.2
			c-0.9-0.1-1.6-2.2-2.9-3.9c-1.4-1.7-4.6-2.2-4.6-2.2S712.3,259.9,716,260.2L716,260.2z M709.7,268.3c2.5,1,3.8,1,4,2
			c0.2,1-0.8,0.4-3,1.2c-2.2,0.7,1.1,0.9,3,2.2s-1.4,0.9-4.1-0.3c-2.7-1.2-0.8,0.1-3,1.3c-2.2,1.2-4.6,1.8-6.2,3.8
			c-1.6,2-1.1,3.9-2.7,5.1c-1.6,1.2,0.9,5.4,0,5.8c-2.3,0.9-1.6-2.4-2.9-3.9c-1.3-1.5-3.2-0.4-7.6,0.6c-4.5,1-6.4,2.5-6.4,5.6
			c0,3.1,0.5,2.2,2.5,3.4c2.1,1.2,5.1-2.6,5.6-2.2s-0.3,3.2-0.3,4.5c0,1.3,1.4,1.5,4.5,2.2c3,0.7,0.2,2.3,1.3,3.4
			c1.1,1,0.5,0.4,2.9,0.4c2.4,0,3,2,3,2s0.8-2.6,2.7-3.5c1.9-0.9,2.4,0.1,3.7,0.4s0,0,1.6,0.3c1.6,0.3,3-0.1,6.4,0.1
			c3.3,0.3,3,2.2,4.1,3.2c1.1,1,1.1,0.7,4.1,1.6c3,0.9,4.1,3.1,4.5,4.4c0.3,1.3,0.3,1.2,2.5,1.9c2.2,0.7,0,0,1.4,2
			c1.4,2,1.6,0.6,4,0.3c2.4-0.3,1.7,0.1,3,1.3c1.3,1.2,2.9,2.3,2.9,3.8c0,1.5-3.3,4.7-4,5.3c-0.6,0.6-1.9,7.4-3.2,8.6
			s-2.2,1.5-4.1,1.6c-1.9,0.1-3.3,3.5-3.8,4.4c-0.5,0.9-1,1.6-1.9,1.8c-1,0.1-1.6,2.5-3.2,4.4c-1.6,1.9-3.5-1.6-3.5-1.6
			s0,0.9,0.3,1.3s-0.3,1.5-1.6,2.6c-1.3,1.2-3,0.7-3,0.7l-1.3,1.3l-1.7,1.2l-0.3,1.3l-2.1,0.9l0.5,1.9l-1.6,1.2l-0.2,2.3l-2.6,0.9
			l-0.6-1.8c0,0,0.2-1.5-0.3-1.9c-0.5-0.4-0.4,0.1-0.5-0.6c-0.2-0.7,1.7-3.4,1.7-4.1c0-0.7-0.2-2-0.3-3.2c-0.2-1.2,0.3-2.3,1-3.2
			c0.6-0.9,0.5-2.9,1.1-5s2.1-6,1.4-8.6c-0.6-2.6-4-3.5-5.6-4.7c-1.6-1.2-2.4-2.5-3.3-4.7c-1-2.2-0.5-2.8-1.4-3.4
			c-1-0.6-0.2-2.2-0.2-2.6s-0.3-1.3-1.4-2.2c-1.1-0.9,1.4-2.2,2.4-2.9c1-0.7,1.7-3.1,1.6-4.5c-0.2-1.5-0.5-2.6-1.9-3.2
			c-1.4-0.6-2.2,1.2-2.9,0s-1.7-0.4-3.3-1.2c-1.6-0.7-1.7-1.9-2.4-2.5c-0.6-0.6-2.2-0.6-2.7-0.7c-0.5-0.1-1.7-0.7-2.7-1.8
			c-1-1-1.6,0.1-2.5,0.3c-1,0.1-1.6,0.1-2.7-1.2c-1.1-1.3-2.9-0.1-4.3-1.2c-1.4-1-0.3-2.2-0.3-3.5c0-1.3-1.8-3.9-3-5.4
			c-1.3-1.5-1.3-2.5-1.9-2.5s1.4,2.7,1.4,3.9c0,1.2,2.3,3.7,1.5,4.4c-0.7,0.6-2.5-2.3-2.8-3.1c-0.3-0.9-1.6-2.2-1.6-4
			c0-1.8-0.8-2.2-1.9-4.2c-1.1-2-0.5-7-0.5-7l5.1-4l4.1-2.7c0,0,6.5-3.7,12.3-5.5c5.7-1.8,13.7-2.3,13.7-2.3s-2.1,2.3-2.4,2.7
			c-0.3,0.4-0.3,0.3-3,0.6c-2.7,0.3-1.6,1.6-1.1,2.9c0.5,1.3,1.1,0.7,2.9,1.3c1.7,0.6,3,2,4.5,1.6c1.4-0.4-0.5-2,0-4.1
			c0.5-2,2.2,0,3.5,0.7c1.3,0.7,1.1,0.6,2.9,0.9C708.9,267.6,707.2,267.3,709.7,268.3L709.7,268.3z M714.2,296.7l-5.4,0.4l0.6-1.9
			l3-0.1L714.2,296.7z M707,294.7l-2.5,0.2l-5.7-1.7l-5.7-1.5c0,0,4.5-1.2,7.5,0.3C703.5,293.5,707,294.7,707,294.7L707,294.7z"/>
	</g>
	<g id="g1135">
		<path id="path1133" inkscape:connector-curvature="0" class="st1" d="M898.7,324.3h-88.4c-13,0-23.6,9.9-23.6,21.9v149.1
			c0,12.1,10.6,21.9,23.6,21.9h88.4c13,0,23.6-9.9,23.6-21.9V346.2C922.3,334.1,911.7,324.3,898.7,324.3z M855.8,508.5
			c-5.2,0-9.5-4-9.5-8.8s4.3-8.8,9.5-8.8c5.2,0,9.5,4,9.5,8.8S861,508.5,855.8,508.5z M903.4,477.8c0,2.3-2.2,4.4-4.7,4.4h-88.4
			c-2.5,0-4.7-2.1-4.7-4.4V346.2c0-2.3,2.2-4.4,4.7-4.4h88.4c2.5,0,4.7,2.1,4.7,4.4L903.4,477.8L903.4,477.8z"/>
	</g>
</g>
</svg>
