<?xml version="1.0" encoding="utf-8"?>
<!-- Generator: Adobe Illustrator 25.2.0, SVG Export Plug-In . SVG Version: 6.00 Build 0)  -->
<svg version="1.1" id="Capa_1" xmlns="http://www.w3.org/2000/svg" xmlns:xlink="http://www.w3.org/1999/xlink" x="0px" y="0px"
	 viewBox="0 0 24 24" style="enable-background:new 0 0 24 24;" xml:space="preserve">
<style type="text/css">
	.st0{fill:#FFFFFF;stroke:#FFFFFF;stroke-miterlimit:10;}
	.st1{display:none;}
	.st2{display:inline;fill:#9A7D22;}
	.st3{fill:#FC8D59;}
</style>
<circle class="st0" cx="10.4" cy="10.2" r="9"/>
<g id="Capa_1_1_" class="st1">
	<circle class="st2" cx="12" cy="10.4" r="10"/>
</g>
<g id="Capa_3">
	<path class="st3" d="M17.3,2.6c-3-2.7-7.4-3.4-11.1-1.8C2.5,2.4,0.1,6.1,0,10.1v0.1c0,3.1,1.3,5.5,3.6,7.8c3,2.9,5.8,5.6,5.8,5.6
		c0.3,0.3,0.7,0.5,1.2,0.4c-0.1,0-0.2,0-0.4,0c0.1,0,0.2,0,0.4,0c0.4-0.1,0.7-0.2,1-0.5c0,0,2.7-2.7,5.7-5.7
		c1.4-1.3,2.3-2.6,2.9-4.2c0.1-0.4,0.6-1.8,0.6-3.5C20.7,6.1,18,3.3,17.3,2.6z M10.4,19c-4.9,0-9-4-9-8.9s4-9,8.9-9s9,4,9,8.9l0,0
		C19.3,15,15.3,19,10.4,19L10.4,19z"/>
</g>
<g>
	<path class="st3" d="M15.1,12.1c-0.1-0.1-0.2-0.2-0.3-0.2l-1.1-0.1l0.3-2.4c0-0.1,0-0.2-0.1-0.3C13.9,9.1,13.8,9,13.6,9l-1.1,0.2
		l0.2-2.3c0-0.1,0-0.2-0.1-0.2L11.6,5c-0.1-0.1-0.2-0.2-0.3-0.2C11.1,4.9,11,4.9,11,5l-0.5,0.7L9.9,3.2c0-0.2-0.2-0.3-0.3-0.3
		C9.5,2.9,9.3,3,9.2,3.1C3.4,15.3,3.4,15.3,3.4,15.3c0,0.2,0.2,0.4,0.4,0.4h13c0.2,0,0.4-0.2,0.4-0.4c0-0.1,0-0.1-0.1-0.2L15.1,12.1
		z M4.3,15L9.4,4.4l0.5,2.2c0,0.2,0.2,0.3,0.4,0.3c0.1,0,0.2-0.1,0.2-0.1l0.7-0.9L12,7l-0.3,2.6c0,0.1,0,0.2,0.1,0.3
		c0.1,0.1,0.2,0.1,0.3,0.1l1.1-0.2L13,12.1c0,0.2,0.1,0.4,0.3,0.4c0,0,0,0,0,0l1.3,0.1l1.5,2.4L4.3,15z"/>
	<path class="st3" d="M12.2,4.4c0,0.1,0,0.2,0,0.2l0.7,1.1c0,0.1,0.1,0.1,0.2,0.1h0c0.1,0,0.2-0.1,0.2-0.2l0.3-1.2
		c0-0.1,0-0.3-0.1-0.3c0,0-0.1,0-0.1,0l-1,0.1C12.3,4.3,12.2,4.3,12.2,4.4z M13.1,4.7L13.1,5l-0.2-0.2L13.1,4.7z"/>
	<path class="st3" d="M14.1,7.8h2.5c0.1,0,0.3-0.1,0.3-0.2l0,0l0-1.2c0-0.1,0-0.1-0.1-0.2c-0.1,0-0.1-0.1-0.2-0.1l-0.8,0.1l-0.1-1
		c0-0.1-0.1-0.2-0.3-0.2c0,0-0.1,0-0.1,0l-0.8,0.4c-0.1,0-0.1,0.1-0.1,0.2l-0.5,2C13.8,7.7,13.9,7.8,14.1,7.8
		C14,7.9,14,7.9,14.1,7.8L14.1,7.8z M14.8,5.8l0.3-0.1l0.1,0.9c0,0.1,0,0.1,0.1,0.2c0,0,0.1,0.1,0.2,0.1l0.8-0.1l0,0.6h-1.8
		L14.8,5.8z"/>
	<path class="st3" d="M16.4,9l-1.2,0.1c-0.1,0-0.2,0.1-0.2,0.2l-0.2,1.4c0,0.1,0.1,0.3,0.2,0.3h0h0l1.5-0.3c0.1,0,0.2-0.1,0.2-0.3
		V9.3c0-0.1,0-0.1-0.1-0.2C16.5,9.1,16.4,9,16.4,9z M15.2,10.4l0.1-0.8l0.8,0v0.6L15.2,10.4z"/>
	<path class="st3" d="M17.1,11.6c0,0-0.1,0-1.1,0.1c-0.1,0-0.2,0.1-0.2,0.3c0,0,0,0.1,0,0.1l0.8,1c0,0.1,0.1,0.1,0.2,0.1h0
		c0.1,0,0.2-0.1,0.2-0.2l0.3-1.1C17.4,11.8,17.3,11.7,17.1,11.6C17.2,11.6,17.1,11.6,17.1,11.6L17.1,11.6z M16.7,12.4l-0.2-0.2
		l0.2,0L16.7,12.4z"/>
	<circle class="st3" cx="16.6" cy="4.9" r="0.5"/>
	<circle class="st3" cx="17.9" cy="9.5" r="0.3"/>
	<circle class="st3" cx="12" cy="3.1" r="0.3"/>
	<circle class="st3" cx="11.5" cy="2.2" r="0.2"/>
	<circle class="st3" cx="18.1" cy="13.9" r="0.2"/>
</g>
</svg>
