<?xml version="1.0" encoding="utf-8"?>
<!-- Generator: Adobe Illustrator 25.2.0, SVG Export Plug-In . SVG Version: 6.00 Build 0)  -->
<svg version="1.1" id="Capa_1" xmlns="http://www.w3.org/2000/svg" xmlns:xlink="http://www.w3.org/1999/xlink" x="0px" y="0px"
	 viewBox="0 0 24 24" style="enable-background:new 0 0 24 24;" xml:space="preserve">
<style type="text/css">
	.st0{fill:#FFFFFF;stroke:#FFFFFF;stroke-miterlimit:10;}
	.st1{display:none;}
	.st2{display:inline;fill:#9A7D22;}
	.st3{fill:#E34A33;stroke:#706C66;stroke-width:0.25;stroke-miterlimit:10;}
</style>
<circle class="st0" cx="10.4" cy="10.2" r="9"/>
<g id="Capa_1_1_" class="st1">
	<circle class="st2" cx="12" cy="10.4" r="10"/>
</g>
<g id="Capa_3">
	<path class="st3" d="M17.3,2.6c-3-2.7-7.4-3.4-11.1-1.8C2.5,2.4,0.1,6.1,0,10.1v0.1c0,3.1,1.3,5.5,3.6,7.8c3,2.9,5.8,5.6,5.8,5.6
		c0.3,0.3,0.7,0.5,1.2,0.4c-0.1,0-0.2,0-0.4,0c0.1,0,0.2,0,0.4,0c0.4-0.1,0.7-0.2,1-0.5c0,0,2.7-2.7,5.7-5.7
		c1.4-1.3,2.3-2.6,2.9-4.2c0.1-0.4,0.6-1.8,0.6-3.5C20.7,6.1,18,3.3,17.3,2.6z M10.4,19c-4.9,0-9-4-9-8.9s4-9,8.9-9s9,4,9,8.9l0,0
		C19.3,15,15.3,19,10.4,19L10.4,19z"/>
</g>
<g>
	<path class="st3" d="M4.6,11.7c0,0,0.1,0.2,0.1,0.2C4.8,12,4.9,12.1,5,12c0.1-0.1,0.2-0.2,0.1-0.3l-0.1-0.1l0,0
		c-0.2-0.4,0-0.9,0.3-1.2c0.2-0.1,0.3-0.3,0.3-0.5c0-0.2,0-0.4-0.1-0.5l0-0.1C5.6,9.2,5.6,9,5.6,8.9c0-0.1,0.1-0.2,0.1-0.2
		c0.1-0.1,0.1-0.2,0-0.3c-0.1-0.1-0.2-0.1-0.3,0C5.3,8.5,5.2,8.6,5.2,8.7C5.1,9,5.1,9.2,5.2,9.4l0,0.1c0,0.1,0.1,0.2,0,0.3
		c0,0.1-0.1,0.2-0.2,0.3C4.6,10.5,4.4,11.1,4.6,11.7L4.6,11.7z"/>
	<path class="st3" d="M3.6,11.6c0.1,0.1,0.2,0.2,0.3,0.1C4,11.7,4,11.5,4,11.4c-0.1-0.2-0.1-0.4,0-0.6c0-0.2,0.2-0.4,0.3-0.5
		c0.2-0.1,0.3-0.3,0.3-0.5c0-0.2,0-0.4,0-0.5l0-0.1v0C4.5,9,4.5,8.9,4.5,8.7c0-0.1,0.1-0.2,0.1-0.2c0.1-0.1,0.1-0.2,0-0.3
		c-0.1-0.1-0.2-0.1-0.3,0C4.2,8.3,4.1,8.5,4.1,8.6C4,8.8,4,9.1,4.1,9.3v0l0,0.1c0,0.1,0.1,0.2,0,0.3c0,0.1-0.1,0.2-0.2,0.3
		c-0.2,0.2-0.4,0.5-0.5,0.8C3.4,11,3.4,11.3,3.6,11.6z"/>
	<path class="st3" d="M2.6,11.2c0.1,0,0.2,0,0.3-0.1c0-0.1,0-0.1,0-0.2c0-0.1,0-0.3,0-0.4c0-0.2,0.2-0.4,0.3-0.5l0,0
		c0.2-0.1,0.3-0.3,0.3-0.5c0-0.2,0-0.4,0-0.5l0-0.1v0c-0.1-0.1-0.1-0.3,0-0.4c0,0,0-0.1,0.1-0.1c0.1-0.1,0.1-0.2,0-0.3
		c0,0-0.1-0.1-0.2-0.1C3.3,8,3.3,8,3.3,8C3.2,8.1,3.1,8.2,3.1,8.3C3,8.5,3,8.8,3.1,9v0l0,0.1c0,0.1,0.1,0.2,0,0.3
		c0,0.1-0.1,0.2-0.2,0.3c-0.5,0.3-0.6,0.9-0.5,1.5C2.5,11.2,2.6,11.2,2.6,11.2z"/>
	<path class="st3" d="M15.8,9.6c-0.1,0-0.1,0-0.2,0c-0.1,0.1-0.2,0.2-0.1,0.3c0,0.1,0.1,0.2,0.1,0.3c0,0.1-0.1,0.3-0.2,0.4l0,0l0,0
		c-0.1,0.1-0.2,0.3-0.2,0.5c0,0.2,0.1,0.4,0.2,0.6c0.3,0.4,0.3,0.9,0,1.2L15.3,13c-0.1,0.1-0.1,0.2,0,0.3c0,0,0.1,0.1,0.1,0.1h0
		c0.1,0,0.1,0,0.2-0.1l0.1-0.1c0.4-0.5,0.4-1.2,0-1.7c-0.1-0.1-0.1-0.2-0.1-0.3c0-0.1,0-0.2,0.1-0.2l0-0.1l0,0
		c0.2-0.2,0.2-0.4,0.2-0.7c0-0.1-0.1-0.3-0.1-0.4C15.9,9.7,15.8,9.6,15.8,9.6z"/>
	<path class="st3" d="M16.7,12.5c0,0.2-0.1,0.4-0.2,0.6c-0.1,0.1,0,0.2,0.1,0.3c0.1,0,0.2,0,0.3,0c0.2-0.3,0.3-0.6,0.3-0.9
		c0-0.3-0.1-0.6-0.3-0.9c-0.1-0.1-0.1-0.2-0.1-0.3c0-0.1,0-0.2,0.1-0.2l0.1-0.1c0.2-0.2,0.2-0.4,0.2-0.7c0-0.1-0.1-0.3-0.1-0.4
		c-0.1-0.1-0.2-0.1-0.3-0.1c-0.1,0.1-0.1,0.2-0.1,0.3c0,0.1,0.1,0.2,0.1,0.3c0,0.1-0.1,0.3-0.2,0.4l0,0l0,0
		c-0.1,0.1-0.2,0.3-0.2,0.5c0,0.2,0.1,0.4,0.2,0.6C16.7,12,16.7,12.2,16.7,12.5z"/>
	<path class="st3" d="M17.6,11.8c0.1,0.2,0.2,0.4,0.2,0.6l0,0c0,0.1,0,0.3-0.1,0.4c-0.1,0.1-0.1,0.2,0,0.3c0,0,0.1,0.1,0.1,0.1h0
		c0.1,0,0.1,0,0.2-0.1c0.3-0.5,0.3-1.1-0.1-1.5c-0.1-0.1-0.1-0.2-0.1-0.3c0-0.1,0-0.2,0.1-0.2l0.1-0.1c0.2-0.2,0.2-0.4,0.2-0.7
		c0-0.1,0-0.2-0.1-0.3c-0.1-0.1-0.2-0.1-0.3-0.1c-0.1,0.1-0.1,0.2-0.1,0.3c0,0,0,0.1,0,0.1c0,0.1-0.1,0.3-0.2,0.4l0,0l0,0
		c-0.1,0.1-0.2,0.3-0.2,0.5C17.4,11.5,17.4,11.6,17.6,11.8L17.6,11.8z"/>
	<path class="st3" d="M6.2,7.5l5-2.8l4.2,3.9c0.1,0.1,0.3,0.1,0.4,0c0.1-0.1,0.1-0.3,0-0.4l0,0l-4.4-4.1c-0.1-0.1-0.2-0.1-0.3,0
		L8.7,5.5l0.2-1.4c0-0.2-0.1-0.3-0.2-0.3C8.4,3.8,8.3,3.9,8.3,4L8,5.9L5.9,7.1C5.8,7.1,5.7,7.3,5.8,7.4C5.9,7.6,6,7.6,6.2,7.5
		L6.2,7.5z"/>
	<path class="st3" d="M17.2,14.6h-3.1l0.7-5.5c0-0.1,0-0.2-0.1-0.2l-3.5-3.2c-0.1-0.1-0.2-0.1-0.3,0L6.8,7.9C6.7,7.9,6.7,8,6.7,8.1
		L6,13.7c0,0.1,0.1,0.3,0.2,0.3l5.6,0.7H3.6c-0.2,0-0.3,0.1-0.3,0.3c0,0.2,0.1,0.3,0.3,0.3h13.6c0.2,0,0.3-0.1,0.3-0.3
		C17.5,14.7,17.4,14.6,17.2,14.6L17.2,14.6z M9.1,13.8l0.4-3.5l2,0.2L11.1,14L9.1,13.8z M11.5,14.1l0.5-3.7c0-0.1-0.1-0.2-0.2-0.2
		L9.4,9.8c-0.1,0-0.2,0.1-0.2,0.2l-0.5,3.7l-2.2-0.3l0.6-5.2l3.9-2.2l3.3,3l-0.6,5.2L11.5,14.1z"/>
</g>
</svg>
