<svg id="Capa_1" data-name="Capa 1" xmlns="http://www.w3.org/2000/svg" viewBox="0 0 20.8 24.07"><defs><style>.cls-1{fill:#fff;stroke:#fff;stroke-miterlimit:10;}.cls-2{fill:#733c10;}</style></defs><circle class="cls-1" cx="10.4" cy="10.25" r="9"/><g id="Capa_3" data-name="Capa 3"><path class="cls-2" d="M17.3,2.6A10.49,10.49,0,0,0,6.2.8,10.44,10.44,0,0,0,0,10.1v.1c0,3.1,1.3,5.5,3.6,7.8l5.8,5.6a1.29,1.29,0,0,0,1.2.4h0a1.91,1.91,0,0,0,1-.5l5.7-5.7a10.62,10.62,0,0,0,2.9-4.2,12.34,12.34,0,0,0,.6-3.5A11.46,11.46,0,0,0,17.3,2.6ZM10.4,19a9,9,0,0,1-9-8.9,9,9,0,0,1,8.9-9,9,9,0,0,1,9,8.9h0a8.94,8.94,0,0,1-8.9,9Z" transform="translate(0 0.05)"/></g><path class="cls-2" d="M17.3,15.3,12,6.7c-.1-.1-.2-.2-.3-.2s-.3.1-.3.2L10.8,8l-.5-.6c-.1-.1-.4-.2-.5,0l-.1.1-.4.7L8.7,6.8a.32.32,0,0,0-.3-.3c-.1,0-.3.1-.3.2-4.6,8.7-4.6,8.7-4.6,8.8a.43.43,0,0,0,.4.4H17a.43.43,0,0,0,.4-.4A.31.31,0,0,1,17.3,15.3ZM4.4,15.1,8.3,7.7,9,9.2c0,.1.1.2.3.2s.3-.1.3-.2l.5-.9.5.6a.64.64,0,0,0,.6,0l.1-.1.5-1.1,4.6,7.5H4.4Z" transform="translate(0 0.05)"/><path class="cls-2" d="M8.1,5.9a1.42,1.42,0,0,1,.6.2.35.35,0,0,0,.2.1H9A.22.22,0,0,0,9.2,6a2.11,2.11,0,0,0-.5-1.3.91.91,0,0,0-1.1-.2.63.63,0,0,0-.4.8C7.3,5.9,7.8,5.9,8.1,5.9Zm-.3-1h.1a.71.71,0,0,1,.6.6H8.1c-.4,0-.5-.1-.5-.2s.1-.3.2-.4Z" transform="translate(0 0.05)"/><path class="cls-2" d="M10.5,4.7h0c.1,0,.2-.1.3-.1a.1.1,0,0,1,.1-.1h0A1.22,1.22,0,0,1,12.1,4a1.21,1.21,0,0,0,1.3-.7A1.09,1.09,0,0,0,13.1,2a1.65,1.65,0,0,0-1.9,0,2.76,2.76,0,0,0-.9,2.6A.35.35,0,0,0,10.5,4.7Zm.9-2.4a1.08,1.08,0,0,1,.7-.3.76.76,0,0,1,.5.2.66.66,0,0,1,.2.7c-.2.4-.4.4-.8.4a2,2,0,0,0-1.3.4,1.91,1.91,0,0,1,.7-1.4Z" transform="translate(0 0.05)"/><path class="cls-2" d="M7.5,3.2a1.29,1.29,0,0,1,1.2.4,3,3,0,0,1,.8,2,.22.22,0,0,0,.2.2h0a.22.22,0,0,0,.2-.2,3.25,3.25,0,0,0-1-2.4,1.57,1.57,0,0,0-1.5-.5c-.1,0-.2.1-.2.3s.1.2.3.2Z" transform="translate(0 0.05)"/><path class="cls-2" d="M11.5,4.7a2.33,2.33,0,0,0-1,2,.2.2,0,0,0,.4,0,1.94,1.94,0,0,1,.8-1.6,1.51,1.51,0,0,1,1.6,0c.1.1.3.1.3,0s.1-.3,0-.3h0A1.62,1.62,0,0,0,11.5,4.7Z" transform="translate(0 0.05)"/><circle class="cls-2" cx="6.6" cy="3.15" r="0.2"/><circle class="cls-2" cx="6" cy="3.65" r="0.2"/><circle class="cls-2" cx="14.1" cy="5.35" r="0.2"/><circle class="cls-2" cx="14.6" cy="5.95" r="0.2"/></svg>