<?xml version="1.0" encoding="utf-8"?>
<!-- Generator: Adobe Illustrator 25.2.0, SVG Export Plug-In . SVG Version: 6.00 Build 0)  -->
<svg version="1.1" id="Capa_1" xmlns="http://www.w3.org/2000/svg" xmlns:xlink="http://www.w3.org/1999/xlink" x="0px" y="0px"
	 viewBox="0 0 24 24" style="enable-background:new 0 0 24 24;" xml:space="preserve">
<style type="text/css">
	.st0{fill:#FFFFFF;stroke:#FFFFFF;stroke-miterlimit:10;}
	.st1{display:none;}
	.st2{display:inline;fill:#9A7D22;}
	.st3{fill:#FEF0D9;}
</style>
<circle class="st0" cx="10.4" cy="10.2" r="9"/>
<g id="Capa_1_1_" class="st1">
	<circle class="st2" cx="12" cy="10.4" r="10"/>
</g>
<g id="Capa_3">
	<path class="st3" d="M17.3,2.6c-3-2.7-7.4-3.4-11.1-1.8C2.5,2.4,0.1,6.1,0,10.1v0.1c0,3.1,1.3,5.5,3.6,7.8c3,2.9,5.8,5.6,5.8,5.6
		c0.3,0.3,0.7,0.5,1.2,0.4c-0.1,0-0.2,0-0.4,0c0.1,0,0.2,0,0.4,0c0.4-0.1,0.7-0.2,1-0.5c0,0,2.7-2.7,5.7-5.7
		c1.4-1.3,2.3-2.6,2.9-4.2c0.1-0.4,0.6-1.8,0.6-3.5C20.7,6.1,18,3.3,17.3,2.6z M10.4,19c-4.9,0-9-4-9-8.9s4-9,8.9-9s9,4,9,8.9l0,0
		C19.3,15,15.3,19,10.4,19L10.4,19z"/>
</g>
<g>
	<path class="st3" d="M17.3,15.3L12,6.7c-0.1-0.1-0.2-0.2-0.3-0.2c-0.1,0-0.3,0.1-0.3,0.2L10.8,8l-0.5-0.6c-0.1-0.1-0.4-0.2-0.5,0
		c0,0-0.1,0.1-0.1,0.1L9.3,8.2L8.7,6.8C8.7,6.6,8.5,6.5,8.4,6.5c-0.1,0-0.3,0.1-0.3,0.2c-4.6,8.7-4.6,8.7-4.6,8.8
		c0,0.2,0.2,0.4,0.4,0.4H17c0.2,0,0.4-0.2,0.4-0.4C17.3,15.4,17.3,15.3,17.3,15.3z M4.4,15.1l3.9-7.4L9,9.2C9,9.3,9.1,9.4,9.3,9.4
		c0.1,0,0.3-0.1,0.3-0.2l0.5-0.9l0.5,0.6C10.8,9,11,9,11.2,8.9c0,0,0.1-0.1,0.1-0.1l0.5-1.1l4.6,7.5H4.4z"/>
	<path class="st3" d="M8.1,5.9c0.2,0,0.4,0.1,0.6,0.2c0,0,0.1,0.1,0.2,0.1H9c0.1,0,0.2-0.1,0.2-0.2c0-0.5-0.2-0.9-0.5-1.3
		C8.4,4.4,8,4.3,7.6,4.5C7.3,4.6,7.1,4.9,7.2,5.3C7.3,5.9,7.8,5.9,8.1,5.9z M7.8,4.9c0,0,0.1,0,0.1,0c0.1,0,0.3,0.1,0.4,0.2
		c0.1,0.1,0.2,0.3,0.2,0.4c-0.1,0-0.2,0-0.4,0c-0.4,0-0.5-0.1-0.5-0.2C7.7,5.1,7.7,5,7.8,4.9L7.8,4.9z"/>
	<path class="st3" d="M10.5,4.7L10.5,4.7c0.1,0,0.2-0.1,0.3-0.1c0,0,0-0.1,0.1-0.1l0,0c0.4-0.5,0.7-0.5,1.2-0.5c0.4,0,1,0,1.3-0.7
		c0.2-0.4,0.1-1-0.3-1.3c-0.6-0.4-1.3-0.4-1.9,0c-1.2,0.8-0.9,2.5-0.9,2.6C10.3,4.6,10.4,4.7,10.5,4.7z M11.4,2.3
		C11.6,2.1,11.9,2,12.1,2c0.2,0,0.4,0.1,0.5,0.2c0.2,0.2,0.3,0.5,0.2,0.7c-0.2,0.4-0.4,0.4-0.8,0.4c-0.5,0-0.9,0.1-1.3,0.4
		C10.7,3.2,11,2.6,11.4,2.3L11.4,2.3z"/>
	<path class="st3" d="M7.5,3.2c0.5-0.1,0.9,0.1,1.2,0.4c0.5,0.5,0.8,1.3,0.8,2c0,0.1,0.1,0.2,0.2,0.2c0,0,0,0,0,0l0,0
		c0.1,0,0.2-0.1,0.2-0.2c0-0.9-0.3-1.7-1-2.4C8.6,2.8,8,2.6,7.4,2.7c-0.1,0-0.2,0.1-0.2,0.3C7.2,3.1,7.3,3.2,7.5,3.2
		C7.4,3.2,7.5,3.2,7.5,3.2L7.5,3.2z"/>
	<path class="st3" d="M11.5,4.7c-0.7,0.4-1,1.3-1,2c0,0.1,0.1,0.2,0.2,0.2c0.1,0,0.2-0.1,0.2-0.2c0-0.6,0.3-1.3,0.8-1.6
		c0.6-0.3,1.3-0.3,1.6,0c0.1,0.1,0.3,0.1,0.3,0c0.1-0.1,0.1-0.3,0-0.3l0,0C13.2,4.3,12.3,4.2,11.5,4.7z"/>
	<circle class="st3" cx="6.6" cy="3.1" r="0.2"/>
	<circle class="st3" cx="6" cy="3.6" r="0.2"/>
	<circle class="st3" cx="14.1" cy="5.3" r="0.2"/>
	<circle class="st3" cx="14.6" cy="5.9" r="0.2"/>
</g>
</svg>
